<?xml version="1.0" encoding="utf-8"?>
<!-- Generator: Adobe Illustrator 16.0.0, SVG Export Plug-In . SVG Version: 6.00 Build 0)  -->
<!DOCTYPE svg PUBLIC "-//W3C//DTD SVG 1.1//EN" "http://www.w3.org/Graphics/SVG/1.1/DTD/svg11.dtd" [
	<!ENTITY ns_flows "http://ns.adobe.com/Flows/1.0/">
	<!ENTITY ns_extend "http://ns.adobe.com/Extensibility/1.0/">
	<!ENTITY ns_ai "http://ns.adobe.com/AdobeIllustrator/10.0/">
	<!ENTITY ns_graphs "http://ns.adobe.com/Graphs/1.0/">
]>
<svg version="1.1" id="Capa_1" xmlns:x="&ns_extend;" xmlns:i="&ns_ai;" xmlns:graph="&ns_graphs;"
	 xmlns="http://www.w3.org/2000/svg" xmlns:xlink="http://www.w3.org/1999/xlink" xmlns:a="http://ns.adobe.com/AdobeSVGViewerExtensions/3.0/"
	 x="0px" y="0px" width="987.144px" height="74.286px" viewBox="0 0 987.144 74.286" enable-background="new 0 0 987.144 74.286"
	 xml:space="preserve">
<polygon fill="#ECD551" points="-7.099,64.615 -8.009,66.131 -9.682,66.689 -9.682,79.945 13.053,79.945 14.759,78.58 
	16.277,77.973 15.367,79.795 15.224,79.945 52.101,79.945 51.797,79.188 52.404,77.668 53.315,76.455 55.137,77.365 53.025,79.945 
	101.601,79.945 103.103,78.275 104.317,76.758 104.622,78.275 104.064,79.945 150.614,79.945 151.374,79.188 151.525,79.945 
	258.564,79.945 260.267,78.031 261.785,77.424 261.785,79.246 260.805,79.945 296.13,79.945 298.215,78.334 298.822,76.211 
	301.857,74.084 302.77,72.264 303.68,73.174 302.77,74.387 300.946,74.994 297.729,79.945 333.767,79.945 334.646,78.941 
	336.466,78.334 335.93,79.945 345.475,79.945 345.574,79.246 348.002,77.727 349.824,77.424 348.914,79.246 347.714,79.945 
	421.417,79.945 421.167,78.941 422.685,78.334 421.61,79.945 574.926,79.945 576.628,78.031 578.146,77.424 578.146,79.246 
	577.165,79.945 612.491,79.945 614.576,78.334 615.184,76.211 618.22,74.084 619.131,72.264 620.04,73.174 619.131,74.387 
	617.308,74.994 614.092,79.945 650.129,79.945 651.007,78.941 652.828,78.334 652.292,79.945 661.836,79.945 661.936,79.246 
	664.363,77.727 666.186,77.424 665.275,79.246 664.075,79.945 737.779,79.945 737.529,78.941 739.047,78.334 737.973,79.945 
	842.012,79.945 843.714,78.031 845.231,77.424 845.231,79.246 844.252,79.945 879.577,79.945 881.662,78.334 882.27,76.211 
	885.305,74.084 886.217,72.264 887.126,73.174 886.217,74.387 884.394,74.994 881.177,79.945 917.215,79.945 918.093,78.941 
	919.913,78.334 919.378,79.945 928.922,79.945 929.021,79.246 931.449,77.727 933.271,77.424 932.36,79.246 931.161,79.945 
	996.001,79.945 996.001,65.277 994.597,66.799 993.383,67.102 996.001,63.768 996.001,-5.551 903.448,-5.551 903.521,-5.455 
	902.913,-3.938 901.395,-2.724 899.573,-2.419 901.698,-5.152 901.938,-5.551 636.363,-5.551 636.435,-5.455 635.827,-3.938 
	634.309,-2.724 632.487,-2.419 634.613,-5.152 634.853,-5.551 320.001,-5.551 320.074,-5.455 319.465,-3.938 317.947,-2.724 
	316.126,-2.419 318.251,-5.152 318.491,-5.551 -9.682,-5.551 -9.682,66.4 -8.618,64.008 "/>
<g>
</g>
<g>
</g>
<g>
</g>
<g>
</g>
<g>
</g>
<g>
</g>
</svg>
