<?xml version="1.0" encoding="utf-8"?>
<!-- Generator: Adobe Illustrator 20.1.0, SVG Export Plug-In . SVG Version: 6.00 Build 0)  -->
<svg version="1.1" xmlns="http://www.w3.org/2000/svg" xmlns:xlink="http://www.w3.org/1999/xlink" x="0px" y="0px"
	 viewBox="0 0 140 109" style="enable-background:new 0 0 140 109;" xml:space="preserve">
<style type="text/css">
	.st0{clip-path:url(#SVGID_4_);fill:#040607;}
	.st1{fill:#FFFFFF;}
	.st2{clip-path:url(#SVGID_14_);}
	.st3{fill-rule:evenodd;clip-rule:evenodd;fill:#FFFFFF;}
	.st4{clip-path:url(#SVGID_16_);}
	.st5{clip-path:url(#SVGID_18_);}
	.st6{clip-path:url(#SVGID_20_);}
	.st7{clip-path:url(#SVGID_22_);}
	.st8{fill-rule:evenodd;clip-rule:evenodd;fill:#89C8C9;}
	.st9{fill:#89C8C9;}
	.st10{clip-path:url(#SVGID_24_);}
	.st11{clip-path:url(#SVGID_26_);fill:#FFDE37;}
	.st12{clip-path:url(#SVGID_26_);}
	.st13{fill-rule:evenodd;clip-rule:evenodd;fill:#FFDE37;}
	.st14{fill:#FFDE37;}
	.st15{clip-path:url(#SVGID_28_);}
	.st16{fill-rule:evenodd;clip-rule:evenodd;fill:#40342D;}
	.st17{fill:#40342D;}
	.st18{fill-rule:evenodd;clip-rule:evenodd;fill:#DEC937;}
	.st19{fill:#F9F6F7;}
	.st20{fill:#49392F;}
	.st21{fill-rule:evenodd;clip-rule:evenodd;fill:#F9F6F7;}
	.st22{fill:#333332;}
	.st23{fill:none;stroke:#40342D;stroke-miterlimit:10;}
</style>
<g id="Capa_1">
</g>
<g id="Capa_2">
	<path class="st17" d="M86.5,103.8l0.3-0.2l0.3,0l0.4,0.1l0.4-0.4l0.2-0.8l-0.2-0.9l0.2-0.3l-0.1-0.2l0-0.6l-0.2-0.3l0.2-0.1
		l0.1-0.2l-0.2-0.4l0.1-0.2l0-0.7l-0.3-0.6L87.4,98l0.1-0.2l-0.1-0.2l-0.2,0.1l-0.4-0.1l-0.4-0.3L86,97.5l-0.4-0.2L85,97.4l-1.8,0
		l-0.4,0.1l-0.4,0.2l-0.1-0.2l-0.2-0.1l-0.5,0l-0.1,0.3l-0.1-0.1l-0.5-0.2l-0.2,0.1l-1.4,0.1l-0.6,0.3l-0.2-0.2l-0.4-0.2l-0.4,0.1
		l-1.4,0.1L76,97.7l-0.3,0.2l-0.2-0.1l-0.8,0l-0.2-0.1l-0.3,0.1l-0.4-0.2l-0.3,0L73,97.9l-0.2-0.3l-0.5,0l-0.6,0.2l-0.7,0l-0.4-0.2
		l-0.3,0.1l-0.8-0.1l-1.8,0.2l-0.2-0.1l-0.1,0l-0.3-0.2l-0.5,0.2l-0.4-0.2l-0.6,0.2l-1.8,0l-0.4,0.1l-0.4,0.2l-0.1-0.2l-0.2-0.1
		l-0.5,0l-0.1,0.3L62,97.8l-0.5-0.2l-0.2,0.1L60,97.8L59.4,98l-0.2-0.2l-0.4-0.2l-0.4,0.1l-1.4,0.1l-0.4,0.1l-0.3,0.2L56.2,98
		l-0.8,0l-0.2-0.1L54.9,98l-0.4-0.2l-0.3,0l-0.5,0.3l-0.2-0.3l-0.5,0l-0.6,0.2l-0.7,0l-0.4-0.2L50.9,98l-0.8-0.1L48.3,98l-0.2-0.1
		l-0.4,0L47.2,98l-0.8,0.4l-0.1,0.5l0.1,0.9l-0.1,0.1l0,0.4l0.2,0.6l-0.1,0.2l0.2,0.1l0.1,0.2l-0.3,0l0.1,0.4l0,0.3l0.2,0l0.1,0.2
		l-0.3,0.1l0,0.7l0.1,0.2l0.2,0.1l0,0.5l0.3,0.2l0.7,0.1l0-0.4l0.2,0.2l0,0.3l0.3,0l0.4-0.2l0.4,0.2l0.3,0l-0.1-0.2l0.1-0.1l0.3,0.2
		l0.4,0.1l0.2-0.3l0.3,0.2l0.3,0l0.4-0.3l0.3,0.3l0.3-0.3l0.1,0.2l0.1,0.1l1.6,0l0.2,0.1l0.3-0.2l0.2,0l-0.1-0.1l-0.2-0.1l-0.1-0.1
		l0.5,0.2l-0.1,0.2l0.1,0.1l0.4,0l0.4-0.1l0-0.3l0.1-0.1l0.2-0.1l0.1,0.2l0.1,0l0.4-0.2l0.3,0.4l0.3,0l0.1-0.2l0-0.3l0.2-0.1l0,0.3
		l0.2,0.2l0.7,0.1l0.5,0l0.2-0.1l0.1-0.1L58,104l0.1-0.2l0.2-0.1l0.4,0.1l0.1,0.1l0.1,0.2l0.7-0.1l0.1-0.2L60,104l0.4,0.1l0.4-0.2
		l0.3-0.3l0.1,0.3l0.2,0.1l0.5-0.4l0.2,0l-0.2,0.4l0.5-0.1l0.9,0l-0.1-0.1l-0.3-0.1l0.1-0.2l0.2-0.1l0.3,0.2l1.2,0.3l0.5,0l0.6-0.1
		l0.9,0l0.5,0.1l0,0l0,0l0.1-0.1l0,0.2l0.3,0l0.4-0.2l0.4,0.2l0.3,0l-0.1-0.2l0.1-0.1l0.3,0.2l0.4,0.1l0.2-0.3l0.3,0.2l0.3,0
		l0.4-0.3l0.3,0.3l0.3-0.3l0.1,0.2l0.1,0.1l1.6,0l0.2,0.1l0.3-0.2l0.2,0l-0.1-0.1l-0.2-0.1l-0.1-0.1l0.5,0.2l-0.1,0.2l0.1,0.1l0.4,0
		l0.4-0.1l0-0.3l0.1-0.1l0.2-0.1l0.1,0.2l0.1,0l0.4-0.2l0.3,0.4l0.3,0l0.1-0.2l0-0.3l0.2-0.1l0,0.3l0.2,0.2l0.7,0.1l0.5,0l0.2-0.1
		l0.1-0.1l-0.3,0.1l0.1-0.2l0.2-0.1l0.4,0.1l0.1,0.1l0.1,0.2l0.7-0.1l0.1-0.2l0.2,0.1l0.4,0.1l0.4-0.2l0.3-0.3l0.1,0.3l0.2,0.1
		l0.5-0.4l0.2,0l-0.2,0.4l0.5-0.1l0.9,0l-0.1-0.1l-0.3-0.1l0.1-0.2l0.2-0.1l0.3,0.2l1.2,0.3l0.5,0l0.6-0.1L86.5,103.8z M53.4,98.4
		l0.1,0.1l-0.1,0.2L53.4,98.4z M60.2,100.9l0.2,0l-0.1,0.5l-0.2,0.1l-0.1-0.2L60.2,100.9z M54.7,101.6l-0.2-0.1l0-0.1l0.1-0.1
		l0.2,0.1L54.7,101.6L54.7,101.6z M77.8,102l0,0.2l-0.2,0.1l-0.3-0.3l0-0.2l0.1-0.1l0.2-0.1L77.8,102z M80.6,101.4l0.2,0l-0.2,0.2
		l-0.2,0.1l0-0.2L80.6,101.4z M77,102.4l-0.1-0.1l0.1-0.1l0.1,0.1L77,102.4z M64.6,100.5l-0.2-0.1l0.1-0.2l0.2,0.1L64.6,100.5z
		 M73.2,100.8l0.1-0.2l0.1,0.2l0,0.2L73.2,100.8z M71.2,101l0-0.2l0-0.2l0.2,0.1l0.1,0.2L71.2,101z M75,100.8l-0.3-0.2l0.1-0.2
		l0.2,0.1l0.2,0.4L75,100.8z M76.1,100.3l-0.1-0.2l0.1-0.2l0.2,0.2l0,0.2L76.1,100.3z M69.2,100.7l0,0.2l-0.2-0.1l0-0.2L69.2,100.7z
		 M65.9,101l0.1,0.2l-0.2,0l-0.1-0.1L65.9,101L65.9,101z M61.4,101.7l-0.2,0.2L61,102l0-0.2l0.2-0.2L61.4,101.7z M64.8,101.5
		l0.4,0.1l0,0.2l-0.2,0l-0.1-0.1L64.8,101.5z M60.3,102.2l-0.1,0.3l-0.2-0.1l0-0.2l0.1-0.1L60.3,102.2z M71.6,102l0.1,0.1l-0.1,0.1
		L71.6,102z M70,102.3l-0.1-0.1l0.2-0.1L70,102.3z M68.9,102.5l0.2,0l-0.1,0.2l-0.1,0l-0.1-0.1L68.9,102.5z M72.8,102.3l0.2,0
		l-0.1,0.2l-0.2,0.1l-0.1-0.2L72.8,102.3z M73.6,102.3l0.1-0.1l0.1-0.1l0.2,0l-0.1,0.2l-0.2,0.1L73.6,102.3z M75.1,101.8l-0.3,0
		l-0.1-0.2l0.1-0.3l0.3,0L75.1,101.8z M69.2,101.8l-0.2-0.2l0.1-0.2l0.2,0l0,0.3L69.2,101.8z M73.8,101.3l0-0.1l0.1-0.1l0.2,0.1
		l0,0.1l-0.1,0.1L73.8,101.3z M76.9,100.8l0-0.2l0.1,0l0.2,0l-0.1,0.2l-0.1,0.1L76.9,100.8z M77.8,100.4l-0.1-0.2l0.3-0.1l0.1-0.2
		l0.2,0.1l0.1,0.2l0,0.2l-0.2,0.1L77.8,100.4z M79.1,100l-0.1-0.1l0.1-0.2l0.3,0l0,0.3l-0.1,0.1L79.1,100z M80.9,99.5l0.2,0.1l0,0.1
		l-0.2,0.1L80.9,99.5z M82.6,99.5l0.1-0.2l0.2,0l0.1,0.3l-0.2,0L82.6,99.5z M83.9,99.2L84,99l0.1,0.2L83.9,99.2z M62.4,100l0.1,0.2
		l0,0.2l-0.1,0.2l-0.1-0.1l-0.2-0.3l0.1-0.1L62.4,100z M61.6,100.1l0-0.3l0.2,0.1l0,0.1L61.6,100.1z M60.1,100.1l-0.1,0.1l-0.2,0
		l-0.1-0.1l0.1-0.2l0.3,0L60.1,100.1z M59,100.2l0.1,0.2l0,0.2l-0.2,0.1l-0.4-0.2l-0.1-0.2l0.3-0.1l0.1-0.2L59,100.2z M61.2,100.5
		l0.2,0l0.2,0.4l0,0.2l-0.4-0.2l-0.1-0.2L61.2,100.5z M61.9,101.2l0.5,0l-0.1,0.2l-0.3,0L61.9,101.2z M58.4,102.2l0,0.2l-0.2,0.1
		l-0.3-0.3l0-0.2l0.1-0.1l0.2-0.1L58.4,102.2z M57.7,102.6l-0.1-0.1l0.1-0.1l0.1,0.1L57.7,102.6z M57.3,102.4l0.1,0.2l-0.2,0l0,0.2
		l-0.5-0.2l0.1-0.2l0.2,0L57.3,102.4z M75.3,102.6l0,0.3l-0.1-0.1L75.3,102.6z M82.3,102.1l0,0.1l-0.1,0l0-0.1L82.3,102.1z
		 M76.2,102.4l0.1-0.2l0.2,0l0.2,0.1l0.1,0.2l-0.2,0l0,0.2L76.2,102.4z M79.6,102.2l-0.2-0.1l0-0.2l0.1-0.1l0.1,0.1L79.6,102.2z
		 M84.5,101.4l0,0.2l-0.2,0l-0.1-0.1l0-0.2L84.5,101.4z M85.6,100.8l-0.1,0.3l-0.3-0.1l-0.1-0.1l0.1-0.1l0.2,0L85.6,100.8z
		 M81.7,101l-0.1,0.2l-0.3,0l-0.1-0.2L81.7,101z M79.5,101.2l-0.1-0.2l0.1-0.4l0.2,0l-0.1,0.5L79.5,101.2z M80.9,100.7l0,0.2
		l-0.4-0.2l-0.1-0.2l0.1-0.1l0.2,0L80.9,100.7z M84.1,100.1l-0.1,0.1l-0.2-0.1l0.1-0.2L84.1,100.1z M81.9,100l0,0.2l-0.1,0.2
		l-0.1-0.1l-0.2-0.3l0.1-0.1l0.2,0.1L81.9,100z M86,99.3l-0.1,0.2l-0.1-0.1l0.1-0.2L86,99.3z M87.3,98.8l0,0.2l-0.2,0l-0.1-0.1
		l0-0.2L87.3,98.8z M78.4,99.3l0.1,0.3l-0.2-0.1l-0.1-0.1l0-0.2L78.4,99.3z M74.7,99.4l-0.2,0.1l0-0.3L74.7,99.4z M82.3,98.3l0,0.1
		l-0.1,0l0-0.1L82.3,98.3z M83.8,97.6l-0.1,0.2L83,98.1l0-0.3l0.1,0L83.8,97.6z M69.9,98.8L70,99l-0.2,0l-0.1-0.2L69.9,98.8z
		 M72.8,98.2l-0.1,0.2l-0.1-0.3L72.8,98.2z M50.4,99l0.2,0l0.1,0.2l-0.2,0L50.4,99z M47.2,99.5l0.1,0l0.1,0.1L47.2,99.5z M63.7,98
		l0.1,0l0.6,0l-0.1,0.2l-0.7,0.2L63.7,98z M62.8,98.7l0-0.1l0.1,0l0,0.1L62.8,98.7z M55.1,99.5l0.2,0.2l-0.2,0.1L55.1,99.5z
		 M58.9,99.7l-0.1-0.1l0-0.2l0.2,0.1l0.1,0.3L58.9,99.7z M64.7,99.3l0.1,0.2l-0.3-0.1L64.7,99.3z M63.6,99.5l0.1,0.3l-0.2,0
		l-0.2-0.1l0.1-0.2L63.6,99.5z M56.9,100.4l0,0.2l-0.2,0l-0.1-0.2l0.1-0.2L56.9,100.4z M55.9,101l-0.2,0l-0.3-0.2l0.1-0.2l0.2,0.1
		L55.9,101z M49.8,101l0-0.2l0.1,0.1l0,0.2L49.8,101z M51.8,101.1l0-0.2L52,101l0.1,0.2l-0.3,0.1L51.8,101.1z M53.9,101.1l0.1-0.2
		l0.1,0.2l0,0.2L53.9,101.1z M57.6,100.9l0.1,0l0.2,0l-0.1,0.2l-0.1,0.1l-0.1-0.1L57.6,100.9z M49.7,101.9l0.1-0.2l0.2,0l0,0.3
		l-0.1,0.1L49.7,101.9z M55.5,101.6l0.3,0l0,0.5l-0.3,0l-0.1-0.2L55.5,101.6z M52.4,102.3l-0.1,0.1l0-0.2L52.4,102.3z M50.6,102.5
		l0.2-0.1l-0.1,0.2L50.6,102.5z M54.7,102.2l-0.1,0.2l-0.2,0.1l-0.2,0l0.1-0.1l0.1-0.1L54.7,102.2z M49.6,103L49.6,103l0-0.2l0.2,0
		l-0.1,0.2L49.6,103z M53.3,102.8l0.1-0.2l0.2,0l-0.1,0.2l-0.2,0.1L53.3,102.8z M55.8,103l0.2-0.1l0,0.3L55.8,103z M62.9,102.5
		l0-0.1l0.1,0l0,0.1L62.9,102.5z M58,103.4l-0.1-0.1l0.1-0.1l0.2,0.1l0,0.2L58,103.4z M61.5,103.1l0.1-0.2l0.2-0.1l0,0.2l-0.1,0.1
		L61.5,103.1z M57.5,103.8l0.1,0.2l-0.6,0l-0.1-0.3l0.2-0.1L57.5,103.8z M77.3,103.2l-0.1-0.1l0.1-0.1l0.2,0.1l0,0.2L77.3,103.2z
		 M80.8,102.9l0.1-0.2l0.2-0.1l0,0.2l-0.1,0.1L80.8,102.9z M76.9,103.6l0.1,0.2l-0.6,0l-0.1-0.3l0.2-0.1L76.9,103.6z"/>
	<g>
		<path class="st17" d="M39.4,20.7V6.4h8.4V9h-5.4v2.9h5.4v2.6h-5.4v3.6h5.4v2.6H39.4z"/>
		<path class="st17" d="M50.8,20.7V6.4H54l6.3,8.3c0.2,0.2,0.4,0.6,0.6,1c0.2,0.4,0.4,0.9,0.7,1.5c-0.1-0.4-0.1-0.8-0.2-1.3
			c0-0.4,0-0.9,0-1.6v-8h2.9v14.3h-3l-6.5-8.5c-0.2-0.2-0.4-0.6-0.6-1s-0.4-0.9-0.7-1.5c0.1,0.4,0.1,0.8,0.2,1.2c0,0.4,0,0.9,0,1.6
			v8.2H50.8z"/>
		<path class="st17" d="M71.1,20.7L65.9,6.4h3.4l2.8,8.9c0.1,0.2,0.1,0.5,0.2,1c0.1,0.5,0.2,1.1,0.4,1.7c0.1-0.6,0.2-1.2,0.3-1.6
			c0.1-0.5,0.2-0.9,0.3-1.2L76,6.4h3.3L74,20.7H71.1z"/>
		<path class="st17" d="M81,20.7V6.4H84v14.3H81z"/>
		<path class="st17" d="M85.6,20.7L91,6.4h3.5l5.5,14.3h-3.5l-1.2-3h-5.5l-1,3H85.6z M94.7,15.3l-1.6-4.6c0-0.1-0.1-0.4-0.2-0.7
			c-0.1-0.3-0.1-0.7-0.2-1.2c-0.1,0.5-0.2,0.9-0.2,1.2s-0.1,0.6-0.2,0.7l-1.5,4.6H94.7z M95.7,1.5l-3.1,3.6h-1.4l1.9-3.6H95.7z"/>
		<path class="st17" d="M41.3,55.5l0,0.7l-0.2,0.1l0.1,0.2l0.1,1l-0.2,1.5l0.2,0.3l-0.1,2.9l0.1,1l-0.2,1l0.2,0.2l-0.2,0.4l0.1,0.5
			l0,1l-0.1,0.9l-0.5,0.2v0.5l-0.1-0.2v-0.3l-0.5,0.5l-0.7,0l-0.9,0.2l-0.2-0.5l-0.2,0.1l-0.2,0.3h-0.3l-0.3-0.3l-0.3,0l-0.1,0.4
			l-0.6-0.1v-0.2l-0.4,0.4h-1.1l-1.1-0.2l-0.1-0.4h-0.5l-0.2-0.9l0.1-0.1h0.3l-0.3-1l0.1-0.5l0.1-0.2L33,64.6l0.1-0.2v-0.2l-0.2-0.4
			l0.2-0.3l-0.2-0.6l-0.1-1.1l0.1-0.5l0.2-0.1l-0.1-0.2l0-0.5l0.1-0.5l0.2-0.4l-0.1-0.1h-0.2V59l0.2-0.4l-0.2-1.2l0.1-0.5l-0.1-0.8
			l0.1-0.2l-0.1-0.2l0-1.6l-0.1-0.5l-0.1-0.2l-0.5-0.1l-0.4,0.2l-0.6,0.9l0,0.5l-0.2,0.1L30.9,55l-0.1-0.2L30.7,55l0.2,0.2l-0.1,0.2
			l-0.3,0.2l0.1,0.5l-1.2,2.2l-0.3,0.4v0.5l-0.5,0.3l-0.4,1.2l-1,1.6v0.3L27,63.4v0.2h-0.3l-0.2,0.4l-0.8,0.5l-0.5,0.2l-0.4-0.2
			l-1.1,0.2l-0.3-0.2l-0.7,0.1l-0.2-0.2l-0.7,0.2h-0.3l-0.3-0.4l-0.5-0.2l-0.1-0.3l-0.5-0.2L20,63.2l-0.1-0.5l-0.4-0.6l-0.8-1.8
			l-0.5-0.8l0-0.3l-0.6-0.8l0.1-0.5l-0.5-0.4l0-0.2l0.2-0.4l-0.5-0.2l0.1-0.3l-0.4-0.4l-0.1-0.2l-0.4-0.4L16,55.2l0.3-0.3l0-0.2
			l-0.1-0.2L16,54.3L16,54.8l-0.3-0.2L15.4,54l-0.6-0.8l-0.3-0.3l-0.2,0l0,0.2l0.1,0.1v0.2l-0.4,0l-0.1,0.8l-0.2,0l0,0.2l0.4,0.3
			l0.2,0.7v2.4l0.1,0.4l0,0.3l-0.2,0.5l0.2,0.6l-0.1,0.5l0.1,0.8l-0.2,1.4l0.2,0.5l-0.1,0.5l0.2,0.4v1.6l-0.2,0.9l0.2,0.2l-0.4,0.6
			l0,0.3l-0.5,0.2l-0.1,0.2l-0.5-0.1l-0.2,0l-0.2,0.1l-0.5-0.1l-0.2,0.2l-0.3-0.2l-0.5,0.1l-0.2-0.1H6.7l-0.1-0.2l-0.4-0.2l-0.2,0
			l0-1l-0.2-0.1l0.1-0.7l-0.1-1L6,64.1l-0.2-0.3l0-0.2l0.1-0.2l0.1-0.5l-0.1-1.1l0-0.2L6,61.5l0-0.7l-0.2-0.2l0.3-0.9v-0.2l-0.2,0.2
			l0,0.2l-0.2-0.1l0.2-1.1L5.8,58v-0.5l0.1-0.2l-0.1-0.6l0-0.2L6,56.4l-0.2-0.3L6,56l0.3,0l-0.1-0.2l-0.5-0.5l0.2-0.5l-0.1-0.6v-1.5
			l-0.1-0.2l0.2-0.2l0-0.3l-0.2-0.5l0.1-0.2l0-0.8l-0.1-0.5l0.1-1l-0.1-0.3l0.1-0.2l0.1-0.5l-0.1-0.7l0-0.5l0.1-0.2L5.8,46l0-0.5
			l-0.1-0.2l0.1-0.5v-2.1l0.1-0.5l-0.2-0.2l0-1.1l-0.1-1l0-0.5L6,39l-0.2-0.4v-2.4l0.5-0.5l0.1-0.2l0.2-0.1l0.8-0.1L8,35.3l1,0
			l0.4,0.1l0.7-0.2l0.5,0l0.2,0.4l0.5,0l0.2,0.1v-0.4l1.5,0.1l0.4,0.1l0.4,0.3l0.2,0l0.1-0.2l0.4,0.2l0.1,0.1v0.2l0.2,0.1l0.3,0.4
			l0.6,1.5l0.3,0.4l-0.3,0.4H16L16,39.1l0.4,0.2l0.2,0.5l0.2,0.1l0.1,0.8l0.2,0.4l0.2,0.1l0.1,0.7l0.3,0.7l1,1.2l0,0.2l0.6,1.1
			l0.2,1l0,0.3l0.4,0.1L19.8,47l0.6,0.4l0.2,0.4L20.6,48l0.4,0.3l0.6,1.4l0.4,0.3v0.3l0.5,0.7v0.3l0.7,1l0.3,0.2l0.4-0.2l0.2,0.1
			l0.3-0.7l0.7-1.3l0.1-0.5l0.3-0.4l0-0.2l0.4-0.6l0.9-1.7l0.5-0.8v-0.5l0.5-0.6l-0.1-0.3l0.2-0.1l0.7-1.1l0.2-0.1v-0.3l0.3-0.6
			l0.1-0.5l0.3-0.2l0.2-0.4l0-0.6l0.5-0.8l0.3-1l0.5-0.2l0-0.3l0.1-0.5l0.2-0.5l0-0.3l0.6-0.1l-0.1-0.7l0.2-0.5l0.5-0.2v-0.4
			l0.9-0.4l0.2,0l0.2,0.2l0.5-0.2l1.5,0l0.5-0.2l0.7,0.2l1.1-0.1l0.9,0.2l0.7-0.2l0.5,0l0.4,0.2l0.5,1.2l-0.1,1.7l-0.1,0.2l0.1,0.2
			l0.1,0.5l-0.1,1.5l0.1,0.2l0,0.3l-0.2,0.2l0.2,2.1l-0.2,1.4l0.1,0.5l0,0.9l-0.2,0.5l0.1,0.5l-0.2,0.2l0.3,0.5l-0.1,0.2v0.5
			l0.1,0.8l-0.1,0.2l-0.2,0.2l0.2,0.4l-0.1,0.7l0.1,1.9l-0.2,0.5l0.2,0.7l0,0.5l-0.1,0.2l0.2,0.5L41.3,55.5z M6.7,49.4v-0.2
			l-0.1-0.1l-0.3,0.4l0.3,0.2L6.7,49.4z M6.9,43.5h0.2l-0.1-0.3L6.9,43.5z M7.4,46.1L7.5,46l-0.1-0.1L7.1,46L7,46.2l0.2,0.1
			L7.4,46.1z M7.1,39l0,0.2l0.4,0.1V39l-0.1-0.2H7.2L7.1,39z M8,39.8l-0.4,0.2l0,0.9l-0.3,0.8l0.3,0.1l0.2-0.2l0-0.3l0.2-0.7
			l0.1-0.5L8,39.8l0.5,0.1l-0.1-0.2l-0.2-0.1l-0.3,0V39.8z M7.4,42.7l0.1-0.2l-0.1-0.1L7.4,42.7z M7.4,49.2l0.2,0.1l0.1-0.2v-0.2
			l-0.3,0.1L7.4,49.2z M7.5,47.5v0.2h0.2L7.5,47.5z M7.8,50.1L8,50l-0.1-0.2l-0.2,0.3H7.8z M8.1,43.1l0.2,0l-0.2-0.6l-0.2,0.2l0,0.2
			L8.1,43.1z M8,48.6H7.9v0.2H8V48.6z M8.2,55.8l0.2,0.1l-0.1-0.2l-0.2,0L8.2,55.8z M8.3,64.7l0.1-0.2l-0.2,0l-0.1,0.2L8.3,64.7z
			 M8.3,47l0.2-0.2l-0.4,0L8.3,47z M8.2,51.6l-0.1,0.2l0.2,0L8.2,51.6z M8.7,38.2l-0.4,0.2l-0.1,0.2l0.3,0.3l0.2,0l0.1-0.6L8.7,38.2
			z M8.5,53l-0.2,0l0.1,0.2h0.2L8.5,53z M8.2,54.3l0.3,0.2l0.2-0.1l-0.1-0.2L8.5,54l-0.2,0L8.2,54.3z M8.4,35.9h0.2v-0.2l-0.2-0.1
			L8.4,35.9z M8.6,49.6l0.2,0.2l0.5-0.2l0.1-0.2l-0.7-0.1l-0.3,0L8.6,49.6z M8.5,45.8L8.5,46l0.2,0l0.1-0.2H8.5z M8.5,46.7v0.2h0.2
			L8.5,46.7z M8.9,41.6l0.2-0.1l0.3,0l0-0.2l-0.2-0.1H8.9l-0.2,0.1l-0.1,0.2L8.9,41.6z M8.9,39.7l-0.2,0.1L9,40.3l0.4,0.2l0.2-0.2
			l-0.2-0.1l-0.1-0.5L8.9,39.7z M9,57.2l0.3-0.3H9l-0.3,0.4L9,57.2z M9,43.8l0.7,0l-0.1-0.2l-0.4-0.2l-0.2,0.2l-0.2,0L9,43.8z
			 M8.9,44.8L9,45l0.2-0.1l-0.1-0.2l-0.2-0.1V44.8z M9.1,51l0.2-0.1l0-0.2l-0.1-0.2l-0.3,0.4L9.1,51z M9.4,47.8l0.1-0.2l-0.1-0.2
			l-0.2,0.1v0.2L9.4,47.8z M9.5,42.5l0.2,0.2l0.2,0l-0.5-0.5l-0.1,0.3L9.5,42.5z M9.7,46.3L9.6,46l-0.4,0.4l0.1,0.1h0.2L9.7,46.3z
			 M9.7,53.8l0.2-0.2l-0.2-0.1l-0.2,0.1l0.1,0.2L9.7,53.8z M9.7,39.4l0.5,0.2l-0.1-0.2l-0.5-0.4l-0.1,0.4L9.7,39.4z M9.6,51.1
			l-0.2,0v0.2h0.2L9.6,51.1z M9.7,37.8L9.6,38l0,0.2l0.2,0L9.7,38l0.2-0.2L9.7,37.8z M9.8,55.1L9.6,55v0.2L9.8,55.1z M10,44.9
			l-0.2-0.1v0.1H10z M10.2,40.3L10,40.2l-0.1,0.2h0.3V40.3z M10.3,43.6l0.2,0.1l0.2,0l0.1-0.2l-0.1-0.2l-0.2,0l-0.2,0.1L10.3,43.6z
			 M10.4,56.5l-0.2-0.1v0.2L10.4,56.5z M10.3,45.8l0.2,0.2l0.3,0l-0.1-0.2l-0.2-0.1L10.3,45.8z M10.7,46.6l-0.1-0.2l-0.2,0v0.3
			l0.4,0.2V46.6z M10.5,52.4l-0.2-0.1v0.2L10.5,52.4z M10.4,40l0.2,0.1l0.2-0.1l-0.1-0.2l-0.3-0.3V40z M10.5,38.8l0.3,0l0-0.2h-0.4
			L10.5,38.8z M10.6,40.9l0.1-0.1h-0.2L10.6,40.9z M10.9,37.4l-0.4-0.2l0.1,0.4l0.4,0.1l0.1-0.2L10.9,37.4z M10.9,50.7h-0.3l0.2,0.4
			L11,51L10.9,50.7z M10.8,41.4l-0.1,0.4l0.2,0.1l0.1-0.5l-0.1-0.2L10.8,41.4z M10.7,50.4l0.2,0v-0.2h-0.2L10.7,50.4z M10.9,43.2
			l0,0.1l0.2-0.2L10.9,43.2z M11.1,40.2l0-0.2L11,39.9l-0.1,0.4L11.1,40.2z M11.2,44.7l0-0.3l-0.2,0l0,0.3l0.1,0.2L11.2,44.7z
			 M11.4,53.1v-0.2h-0.3v0.2H11.4z M11.2,36.8l0.2-0.2l-0.2-0.2V36.8z M11.5,56.5l0.1-0.2l-0.3,0.1L11.5,56.5z M11.6,43.6h-0.2
			l0,0.5l0.1,0.2l0.2-0.6L11.6,43.6z M11.7,38.6l-0.2,0.5l0,0.2l0.2-0.1l0.2-0.5l-0.1-0.4L11.7,38.6z M11.7,40.1l-0.1,0.2l0.3,0.6v1
			l0.3,0.3l0.1-0.3l-0.1-0.7l0.2-0.2l-0.3-0.4L12,40.2L11.7,40.1z M11.7,50.2l0.2,0.2h0.2L11.9,50l-0.2,0L11.7,50.2z M12,43.2
			l0.1-0.1L11.8,43v0.2L12,43.2z M12.1,54l0.2-0.2l-0.1-0.1l-0.4,0.2v0.2L12.1,54z M12.1,45.8l0.4-0.1l-0.1-0.2l-0.2,0L12,45.5
			l-0.1,0.2L12.1,45.8z M12.1,61.5l0.1-0.2l-0.2,0L12.1,61.5z M12.1,49.2l0.1,0.2h0.2l-0.1-0.5h-0.2L12.1,49.2z M12.2,52.8l0.4-0.2
			l-0.3,0l-0.2,0.1L12.2,52.8z M12.3,58.2L12.1,58v0.2H12.3z M12.6,44.3l0.2-0.1l0.1-0.3l-0.5-0.1l0-0.2h-0.2l0.2,0.5l0,0.3
			L12.6,44.3z M12.4,51.4l-0.1-0.1l-0.1,0.3h0.2V51.4z M12.2,37.1h0.1l0.1-0.2h-0.2V37.1z M12.5,46.8l0.1-0.2h-0.2l0,0.3L12.5,46.8z
			 M12.4,39.6l0,0.2h0.2l0.1-0.2H12.4z M12.9,43.3l-0.1-0.2l-0.1,0.1l0.1,0.1H12.9z M12.8,37.5l0.1,0.2l0.2,0.1l0.1-0.2l-0.1-0.2
			l-0.2-0.1L12.8,37.5z M12.8,38.5l0.1,0.2l0.2-0.1v-0.2l-0.2-0.1L12.8,38.5z M12.9,42.3l-0.1,0.2l0.1,0.2l0.2-0.2l0.1-0.3
			L12.9,42.3z M13.2,49.5l0.4-0.8h-0.2V49l-0.5,0.2l0.1,0.5L13.2,49.5z M13.4,43.6l0.3-0.1l-0.1-0.2h-0.3L13.4,43.6z M13.7,44.6
			l-0.2,0l-0.1,0.2h0.3V44.6z M13.8,44.1l-0.2-0.2l-0.1,0.2l0,0.2h0.2L13.8,44.1z M13.8,42.9l0.3,0.1l0-0.2l-0.2-0.1L13.8,42.9z
			 M14,39.3l0.2,0l0.1-0.1L14,39.1V39.3z M14.2,42l-0.2-0.1v0.2L14.2,42z M14.1,47.6l0.2,0.1l0.1-0.2l-0.1-0.1l-0.2,0L14.1,47.6z
			 M14.3,46.3l0.1-0.1V46l-0.2,0.1l0,0.3L14.3,46.3z M14.6,40.9l0-0.2h-0.2v0.3L14.6,40.9z M14.7,45.2l0.1-0.2l-0.3-0.1v0.3
			L14.7,45.2z M14.9,43.8l0.2-0.1l0.1-0.2l-0.1-0.2l-0.2-0.2l-0.2,0.5L14.9,43.8z M15.1,37.8l0,0.2l0.2,0l-0.1-0.5L15.1,37.8z
			 M15.9,48.7l-0.1-0.2l-0.1,0.2l0.2,0.1L15.9,48.7z M16.3,39.8H16l0,0.2l0.2,0L16.3,39.8z M16.8,45.6l0.1-0.3h-0.2l-0.1,0.4
			L16.8,45.6z M16.9,55l-0.2,0v0.2l0.3,0.1L16.9,55z M19.2,55.6L19,55.8l0.4,0L19.2,55.6z M19.9,58.1l-0.3,0.1l0.1,0.2h0.2V58.1z
			 M21,53.8l-0.3,0v0.3l0.2,0.1L21,53.8z M22.4,59.8l-0.2,0l0.2,0.1V59.8z M23.6,56.5l-0.4-0.3L23,56.3l-0.1,0.2l0.2,0.1l0.3,0.2
			l0.2,0L23.6,56.5z M23.7,55.8l0.1-0.2h-0.2v0.3L23.7,55.8z M24.3,56.4l0.3,0l0.2-0.2h-0.5V56.4z M24.4,58.9l0.2,0.1l0.2-0.2
			l-0.5-0.2V58.9z M25.6,55.5h-0.2l-0.1,0.2h0.3L25.6,55.5z M26.1,58.3l-0.2-0.1l-0.1,0.1L26.1,58.3z M26.4,55.7h-0.2V56l0.3-0.1
			L26.4,55.7z M26.3,57.2l-0.1-0.2L26.3,57.2L26.3,57.2z M27.6,56.6l-0.1-0.2l-0.1,0.3L27.6,56.6z M27.9,60.9h-0.1v0.2h0.1V60.9z
			 M28.6,53.5l-0.2-0.1v0.2L28.6,53.5z M29.1,47.7l-0.2-0.2v0.2H29.1z M29.4,46.9l0-0.2l-0.2,0V47L29.4,46.9z M29.4,50h-0.1v0.2h0.1
			V50z M29.4,49.3h-0.2v0.1h0.2V49.3z M30.1,47.9l-0.2-0.1v0.1H30.1z M30.4,46l-0.2-0.1l0,0.2l0.2,0.1L30.4,46z M30.7,42.5l-0.2,0
			l0.2,0.1V42.5z M31.4,45.7l0.1,0.2l0.2,0l0.1-0.2l-0.5-0.5l-0.5,0.1l-0.1,0.2v0.2l0.2,0.1l0.1-0.2l0.3,0L31.4,45.7z M31.2,47.3
			v-0.2L31,47l-0.1,0.2v0.2l0.2,0.1L31.2,47.3z M31.1,42.8l0.4,0.3h0.2l-0.1-0.2l-0.4-0.3L31.1,42.8z M31.8,44.8l0.2-0.2l-0.3-0.2
			l-0.1,0.2L31.8,44.8z M31.8,52.7l-0.1-0.1l-0.1,0.2l0.2,0L31.8,52.7z M32,48.9h-0.3l0.1,0.2l0.2,0.1V48.9z M32.2,43.1L32,43.2
			l0.2,0.3l0.2-0.2L32.2,43.1z M32.5,41.5h0.2v-0.2h-0.2V41.5z M32.8,46.2l0.2,0.1l0.1-0.2L33,45.8l-0.3,0l-0.1,0.2L32.8,46.2z
			 M32.8,40.7l0.2-0.1l-0.2-0.1V40.7z M33.1,47.7l0.2,0l-0.1-0.2l-0.2,0l-0.1,0.2L33.1,47.7z M33.1,44.3l0.2,0l0-0.2h-0.2L33,44.2
			L33.1,44.3z M33,39l0.1,0.2l0.2,0.1l0-0.2l-0.1-0.2l-0.2-0.1L33,39z M33.5,43.1l0.1-0.4l-0.3,0L33.2,43l0,0.2L33.5,43.1z
			 M33.4,66.7l0.2-0.1l-0.3-0.2l0,0.4L33.4,66.7z M33.4,41.6l-0.1,0.3l0.4,0.1l0.1-0.5l-0.1-0.2L33.4,41.6z M33.6,46.2l0.3-0.3
			l-0.2-0.1l-0.3,0.6l0.2,0.1V46.2z M33.5,47l0.2-0.1l-0.2,0L33.5,47z M34,44l-0.4,0.2l0,0.2l0.1,0.2l0.2-0.1l0.3-0.5L34,44z M34,42
			h-0.2v0.2H34V42z M34.1,53.3l-0.2-0.2v0.3L34.1,53.3z M34.2,44.8l0.2,0l0-0.2l-0.2,0L34,44.8L34.2,44.8z M34,45.8l0.2,0.1v-0.1H34
			z M34.1,40.2l0.1,0.2l0.2-0.1l0.1-0.2h-0.3L34.1,40.2z M34.4,56.9l-0.2-0.1v0.1H34.4z M34.5,54.7l0.2-0.1l-0.2-0.1l-0.2,0.1
			L34.5,54.7z M35,67l-0.3,0l-0.2,0.2l0.2,0.1h0.2L35,67z M34.6,63.3v0.2h0.2v-0.2H34.6z M34.8,41.2l-0.1,0.2l0.1,0.2l0.2-0.1
			l0.1-0.2L35,41.1L34.8,41.2z M34.8,61.4l0.2,0.1l0.3,0l-0.1-0.3l-0.2-0.1l-0.2,0L34.8,61.4z M34.9,41.9l0.1-0.2h-0.2V42L34.9,41.9
			z M34.8,62.3l0,0.2l0.7,0.2l-0.2-0.4l-0.4-0.2L34.8,62.3z M35.5,44l-0.2-0.2L35,43.4l-0.1,0.2l0,0.4l0.7,0.2l0.1-0.1L35.5,44z
			 M35.5,46.6l0.4,0.1l0-0.2l-0.2-0.2l-0.2-0.1l-0.7,0.2l0.4,0.2H35.5z M34.9,58l0,0.2l0.2-0.1L35,57.8L34.9,58z M35,44.8L34.9,45
			l0,0.2l0.2,0l0.1-0.2l0-0.2l-0.2-0.1L35,44.8z M35.1,40.4l0.2,0.1l0.1-0.3l-0.3-0.1V40.4z M35.2,57.2l0.2,0.1l0.1-0.2v-0.2
			l-0.3,0.1L35.2,57.2z M35.5,56.6l0.2-0.2l-0.2,0l-0.2,0.1L35.5,56.6z M35.5,60.2l0.1-0.2l-0.2-0.1l-0.1,0.3L35.5,60.2z M35.7,63.9
			l0.2-0.1l0-0.2l-0.2-0.1l-0.2,0.2L35.2,64L35.7,63.9z M35.3,39.8l0.2,0l0.2-0.1l0-0.3l-0.4-0.2V39.8z M35.8,41.5l-0.2,0.2l-0.3,0
			l0.1,0.4l0.5-0.1l0.7,0.2L36,41.4L35.8,41.5z M35.4,43l0.1,0.4l0.2,0v-0.2l-0.2-0.5h-0.2L35.4,43z M35.7,37.7l-0.2,0l0.1,0.2
			l0.2,0.1L35.7,37.7z M35.7,64.3h-0.2v0.1h0.2V64.3z M35.6,62.8l0.2,0l0-0.2l-0.2-0.1L35.6,62.8z M35.7,38.1l0,0.2h0.2L35.7,38.1z
			 M35.7,40.5l0,0.2l0.2-0.1v-0.2l-0.2-0.1L35.7,40.5z M35.8,49.2l0.4,0.3l0.1-0.2l0-0.2l-0.2-0.1h-0.3L35.8,49.2z M36,50.6l0.1-0.2
			h-0.2l-0.1,0.1L36,50.6z M36.1,58.2l0.1-0.2l-0.3,0.1l-0.1,0.2l0.3,0V58.2z M36.1,61.8l0.2,0.1l0.2,0l0.1-0.2l-0.6,0l-0.2,0.1
			L36.1,61.8z M36,39.3l0.2-0.2H36L36,39.3z M36.2,45.2l0-0.2H36v0.3L36.2,45.2z M36.6,61l0.1-0.6l-0.5-0.1L36,60.5l0.2,0.5l0.2,0.2
			L36.6,61z M36.4,63.3l-0.2-0.1l-0.1,0.2l0.2,0.1L36.4,63.3z M36.6,59.2l-0.1-0.2l-0.2,0l0.1,0.2l0.2,0.1l0.3,0L36.6,59.2z
			 M36.2,39.8l0.1,0.2h0.2l0.2-0.2l-0.4-0.2L36.2,39.8z M36.9,42.4l-0.3-0.2h-0.3l0.1,0.2l0.5,0.2L36.9,42.4z M36.3,55.9l0.2-0.1
			h-0.2L36.3,55.9z M36.5,38.8l0.1,0.3l0.2,0.2l0-0.2l-0.1-0.4l-0.2-0.1L36.5,38.8z M36.7,55l0.2,0.2h0.2l-0.2-0.4l-0.2-0.1l-0.2,0
			L36.7,55z M36.8,37.2l0.2,0.5l0.2,0.1l-0.1-0.7L36.8,37.2z M37.1,63.4l-0.2-0.2l-0.1,0.3L37.1,63.4z M37.1,46.4l0.1-0.1L37,46.2
			l-0.1,0.2L37.1,46.4z M36.9,41.2l0,0.2l0.2,0.1l0.2-0.1l-0.2-0.3L37.1,41L36.9,41.2z M37.6,39.4l-0.4,0.3L37,40l0.3,0.5l0.2,0.1
			V40l0.4-0.7l-0.2-0.2L37.6,39.4z M37.7,59v-0.3l-0.1-0.2L37,58.6V59H37.7z M37.2,45.3l0.1-0.1h-0.2L37.2,45.3z M37.5,66.1l0.1-0.2
			h-0.3v0.2l0.1,0.2L37.5,66.1z M37.9,42.4l-0.2-0.1h-0.2l-0.2,0.6l0.5-0.2l0,0.5h0.4v-0.7L37.9,42.4z M37.4,44.2l0.2,0.1l0.2,0
			L37.8,44l-0.2-0.1l-0.2,0L37.4,44.2z M37.7,61.3l0.1-0.2h-0.2l-0.1,0.2l0.2,0.2L37.7,61.3z M37.8,60.4L38,60l-0.2-0.1l-0.2,0.2
			l-0.1,0.2l0,0.2l0.2,0.1L37.8,60.4z M37.9,45.2l-0.2,0.4l0.2,0.2l0.3,0.1v-0.7L37.9,45.2z M38.2,41.3l0.5-0.1l0.1-0.2l-0.5,0
			L38,41.1l-0.1,0.2L38.2,41.3z M38.1,50.7l0.1-0.1l-0.2,0l-0.1,0.1L38.1,50.7z M37.9,59.4l0.2,0.2l0.2-0.2L37.9,59.4z M37.9,41.9
			l0,0.2l0.2,0l0-0.2L38,41.7L37.9,41.9z M37.9,38.2l0.2-0.1L37.9,38V38.2z M38.2,46.8l0-0.3l-0.3,0.2L38.2,46.8z M38.2,63l0.2,0
			l0-0.2l-0.2-0.1L38,62.8l0,0.3H38.2z M38.2,39.5l0,0.4l0.2-0.1l0.4,0v-0.5l-0.5,0l-0.2,0.1V39.5z M38.2,48.2l0.1,0.3l0.2-0.1
			l0.1-0.2L38.5,48L38.2,48V48.2z M38.2,58.4L38.2,58.4l0.2,0.1l0.1-0.1l-0.1-0.2h-0.2l-0.1,0.1V58.4z M38.3,61.8l0.1,0.2l0.2,0
			l0-0.2L38.3,61.8z M38.7,65.7l0.1-0.1l0-0.2l-0.2,0l-0.2,0.1l-0.1,0.3H38.7z M38.7,64.4h0.1v-0.1h-0.1V64.4z M39,66.9l-0.2-0.1
			l-0.1,0.3H39V66.9z M38.9,47l-0.1,0.2l0,0.2l0.2-0.1l0.1-0.2L38.9,47z M38.9,60.7l0,0.2l0.1,0.1l0.2-0.5l-0.2-0.1V60.7z
			 M38.9,42.1l0,0.2l0.1,0.2l0.2,0.1l0.1-0.2L39.2,42L39,41.9L38.9,42.1z M39,60l0-0.2h-0.1L39,60z M39.2,40.5l0.5,0.2l0.1-0.1
			l0-0.2l-0.5-0.1l-0.2,0l-0.1,0.1L39.2,40.5z M39.3,63.7l0.2-0.1l0-0.2l-0.2,0l-0.2,0.1l-0.1,0.2L39.3,63.7z M39.2,46.3l0.1,0.2
			l0.2-0.1v-0.2l-0.2-0.1L39.2,46.3z M39.6,45v-0.2l-0.2-0.1L39.4,45L39.6,45z M39.6,56.5h-0.2l-0.1,0.2L39.6,56.5z M39.9,39l-0.2,0
			l0.1,0.2l0.2,0.1L39.9,39z M40.5,50.5l-0.2-0.1v0.1H40.5z"/>
		<path class="st17" d="M82.4,63.9l0.2,0.4l0.4,1.4l0.5,0.8l-0.2,0.2l-0.1,0.5L83,67.4l-0.1-0.2l-0.1,0.2l0,0.2l-0.5,0.2L82,67.7
			l-0.5,0l-0.4-0.2l-0.6,0.3h-0.3l-0.4-0.2l-0.5,0.1l-0.5-0.1l-0.2-0.2l-1,0.3l-1.1,0l-0.5-0.1L75,67.5l-0.4-0.2l-0.1-0.2l0-0.3
			l-0.4-0.3l-0.2-1.2l-0.5-0.7l-0.2-0.7l-0.7-0.7L72,63l-0.5,0L71,63.2l-0.5-0.3L69,63.1L67.9,63l-0.2-0.2L67.2,63L66,63l-0.5-0.2
			l-0.5,0.3l-0.7-0.3L63.4,63h-0.5l-0.4-0.2L62,63l-0.5,0L61,62.9l-0.4,0.3L60,64l-0.2,0.1l-0.3,0l0.3,0.2l-0.1,0.2l-0.2,0.1l0,0.3
			l-0.1,0.2l-0.3,0.3l-0.1,0.2l-0.5,0.1l0.2,0.2l0.3,0.1l0,0.3L58.9,67l-1.1,0.8l-1-0.1l-0.2,0.1l-0.5-0.2l-0.4,0.1l-1.5,0.1l-2-0.1
			l-1,0.1l-0.4-0.2l-0.3,0.2l-0.2-0.1L50,67.3v-1.5l0.3-0.1v-0.5l0.2-0.2v-0.5l0.8-0.7l-0.1-0.2l-0.2,0l0.2-0.2l0.1-0.2l0-0.2
			l0.4-0.2v-0.3l0.5-1.2l0-0.5h0.5v-0.8l0.4-0.9l0.5,0.1v-0.2h-0.4l0-0.2l0.3-0.6l-0.1-0.2l0.5-0.2v-0.3l0.3-0.8L54.1,56l0.2-0.2
			l0.2-0.1l-0.1-0.5l0.4-0.2l-0.1-0.2l0-0.2l0.2-0.2l0.3-0.1l0.2-0.5l0.2-1.1l0.2-0.5l0.4-0.2L56,51.4l0.1-0.1l0.2,0l0.2-0.7
			l0.2-0.2l0-0.9l0.2-0.5l0.5-0.3l-0.1-0.2l0.1-0.5l0.2-0.2l0.3-0.1l-0.1-0.2l-0.2-0.1l-0.1-0.2l0.6-0.5L58,46.3l0-0.2l0.7-1.2v-0.2
			l0.5-0.2L59,44.1l0.5-1.3l0-0.2l0.2-0.1l0.5,0l-0.1-0.3v-0.2l0.5-0.5L60.1,41l0-0.3l0.5-0.8v-0.5l0.3-0.3v-0.3l0.4-0.8l0-0.5
			l0.3-0.3l0.1-0.2l0-0.3l0.6-0.5L62.4,36l0-0.4l0.2-0.2l0.4-0.2l0.7-0.1l0.9,0.1l0.2-0.1l0.8,0.1l0.5-0.1l0.3,0.2l0.2-0.1l0.5,0
			l0.8,0.1l0.2-0.1l0.4,0.1l1.5,0l0.3,0.4h0.3l0.1,0.5h0.2l0.1,0.5l0.5,0.9l0,0.2l0.3,0.2l0.2,0.5L72,38.6l0.2,0.2l0.2,0.6l-0.3,0.1
			l0,0.3l0.1,0.2l0.4,0.3l0.1,0.2l0.2,0l0.1,0.2l-0.2,0.1l-0.5,0.1l0.1,0.4h0.3l-0.1,0.5l0.7-0.5l0.4,0.7l-0.2,0.3l0.5,0.7l0.2,0.5
			l0,0.5l0.5,0.5l0.2,0.7l0.5,1l0.3,0.4v0.3l0.2,0.7l0.4,0.9l0.1,0.5l0.5,0.9l0.6,1.4l-0.1,0.4l0.3,0.1l0.1,0.7l0.2,0.1l-0.1,0.2
			l0.1,0.4l0.4,0.2l0.9,2.5l0.1,0.5l0.4,0.6l0.4,0.8L80,58l0.5,0.8l1.1,2.8l0.5,0.8l-0.1,0.3l0.2,0.5v0.2l-0.3,0.4l0.5-0.1
			L82.4,63.9z M52.9,63h0.2l0.1-0.1l-0.4-0.1L52.9,63z M53.7,61.3l0.2-0.1l-0.1-0.3l-0.2-0.1l-0.1,0.5L53.7,61.3z M54.8,61.9
			l0.2-0.1l-0.1-0.5l-0.2-0.1v0.4l-0.1,0.3H54.8z M55.5,62l-0.1-0.1l-0.1,0.2l0.1,0.1L55.5,62z M55.9,62.2l-0.2,0.1l0.2,0.2V62.2z
			 M55.8,57h0.2v-0.2h-0.2V57z M56,61.2l-0.2-0.1l-0.1,0.2l0.2,0.1L56,61.2z M56.4,58.6l-0.1-0.1L56,58.4l0,0.2l0.1,0.2l0.2,0.1
			l0.2-0.1L56.4,58.6z M56.1,60.3l0.2-0.2l0-0.2l-0.1-0.2l-0.3,0l0,0.2l-0.1,0.4L56.1,60.3z M56.4,55v0.3l0.4-0.1L56.7,55l-0.2-0.1
			L56.4,55z M56.9,61.6l-0.3-0.2l-0.1,0.2l0.1,0.2L56.9,61.6z M57,57.7l-0.2-0.5l-0.2-0.1l0.2,0.5l0,0.3l0.2,0.1L57,57.7z
			 M56.8,62.2h-0.2l0,0.2l0.1,0.1L56.8,62.2z M56.7,63.1l-0.2-0.2V63L56.7,63.1z M56.8,56.9l-0.1-0.1v0.4L56.8,56.9z M57,55.4
			l-0.1,0.2l0.2,0.1l0.1,0.2l0.2,0.1l-0.2-0.6L57,55.4z M57.2,60.8l0.1-0.2l0.1-0.5L57.1,60L57,60.9L57.2,60.8z M57.4,49.2l-0.1,0.1
			l0.3-0.1H57.4z M57.9,58.3l0-0.5l-0.5,0.2l0.1,0.5l0.4,0.2L57.9,58.3z M57.7,63.3l0.1-0.2l-0.3,0l-0.1,0.2L57.7,63.3z M57.9,53.7
			l-0.1-0.2l-0.2,0l0,0.2l0.2,0.1L57.9,53.7z M57.6,54.8l0,0.2l0.2,0l0-0.2l-0.2-0.1L57.6,54.8z M57.8,62l-0.1,0.2l0,0.2l0.2,0.1
			l0.1-0.2l0-0.5L57.8,62z M58,61.2h0.2L58.1,61L58,60.9l-0.1,0.1L58,61.2z M58.2,63.3l-0.2,0l-0.1,0.1l0.3,0.1V63.3z M58.4,57.3
			l-0.1-0.2l-0.2,0L58,57.5l0.2,0.2L58.4,57.3z M58.1,52.7h0.2l0.1-0.2h-0.3L58.1,52.7z M58.3,56.3l-0.2,0.1l0,0.2l0.3-0.1l0.1-0.2
			L58.3,56.3z M58.8,60.1l-0.1-0.2h-0.2l-0.1,0.2l0,0.2l0.4-0.1V60.1z M58.4,51.4L58.4,51.4l0.2,0.1l0.1-0.1l-0.1-0.2l-0.2,0V51.4z
			 M58.8,59l-0.2-0.1l-0.1,0.2l0.2,0.2L58.8,59z M59.1,53.4L59,53.2l-0.1,0.1L59.1,53.4z M59,49.6h0.2v-0.2l-0.2-0.1L59,49.6z
			 M59.1,52.8V53h0.2v-0.2H59.1z M59.3,60.7l0-0.2h-0.3l0.1,0.3L59.3,60.7z M59.5,52l-0.1-0.2l-0.2,0l0,0.2l0.1,0.1l0.2,0L59.5,52z
			 M59.5,56.2l0.2-0.1l0.1-0.2l-0.2,0L59.5,56l-0.1,0.2L59.5,56.2z M59.5,63.3l-0.1-0.1v0.2L59.5,63.3z M59.7,55.4h-0.2l0.1,0.2
			L59.7,55.4z M59.8,50.1l0.2,0.2l0.1-0.2l0-0.2l-0.4,0L59.8,50.1z M60.3,52.4l-0.2,0.1l0,0.2h0.3l0.2-0.2v-0.2L60.3,52.4z
			 M60.3,61.1l-0.1,0.2h0.2L60.3,61.1z M60.4,51.4v-0.2l-0.1-0.1L60.4,51.4z M60.7,55.3l0.1-0.2h-0.3l-0.2,0.1v0.2l0.2,0.1
			L60.7,55.3z M61,46.9l0.1-0.2l-0.1-0.2l-0.2,0.2l0,0.3L61,46.9z M61.2,45.6l0.1-0.2L61,45.5L61.2,45.6z M61.5,50.7l0.2,0.1
			l0.1-0.2l-0.2-0.2l-0.3,0.2L61.5,50.7z M61.5,43.2l0,0.2h0.2l0-0.2L61.7,43L61.5,43.2z M61.8,59.2h-0.2l0,0.3l0.2,0V59.2z
			 M62.5,40.3L62.4,40L62,40.1v0.2l0.1,0.2l0.2,0.1l0.2,0L62.5,40.3z M62.4,41.6v-0.2h-0.2v0.2H62.4z M62.2,45.6v0.2h0.2v-0.2H62.2z
			 M62.5,50.1l0-0.2l-0.1-0.1l-0.1,0.1l0,0.2L62.5,50.1z M62.5,44.8l-0.2,0l0,0.2l0.2,0.1L62.5,44.8z M63,42.9l0.2-0.1L63,42.5h-0.2
			l-0.1,0.3L63,42.9z M63,47.7l-0.3,0.1L63,48L63,47.7z M63,62.8l-0.1-0.2v0.2L63,62.8z M63.4,45.5l-0.2-0.2H63l0,0.2l0.2,0.1l0.2,0
			V45.5z M63.5,39.8l0.1,0.1h0.3l0.1-0.2l0-0.3l-0.2-0.1h-0.2l-0.2,0.1l-0.1,0.2L63.5,39.8z M63.5,44.2L63.4,44l-0.1,0.3L63.5,44.2z
			 M63.5,41.1l0.2-0.1l-0.3-0.1L63.5,41.1z M69.4,55l0.5-0.8l-0.2-0.1l-0.3-0.6v-0.3l-0.3-0.4L69,52.4l0-0.6l-0.5-0.7l-0.2-0.5
			l0-0.6l-0.2-0.2l-0.4-0.8v-0.7l-0.8-1.1h-0.4l-0.7,1.2l-0.3,0.9l-0.2,1l-0.4,0.3l-0.2,1.1l-0.5,0.8v0.2l-0.4,1.4l0,0.6l0.4,0.3
			l0.5,0.2l1.5-0.1l0.5,0.2l0.4-0.2l0.4,0.2l0.4-0.1h1l0.5-0.1L69.4,55z M63.8,38.7h0.1l0.1-0.2l-0.2-0.1V38.7z M64,42.1l-0.2,0.2
			l0,0.2l0.2,0.2l0.2-0.2l0.1-0.3H64z M64.4,45l0.3,0.2l0.2-0.5l-0.2-0.1l-0.3,0L64.4,45z M64.9,37.7l0.2-0.1l-0.3-0.1L64.9,37.7z
			 M64.9,46.2l0,0.2h0.2v-0.2H64.9z M65.3,38L65,38l-0.1,0.2l0.2,0.1L65.3,38z M65.3,42l0.2-0.1l0.1-0.2l-0.2-0.1l-0.2-0.2v0.3H65
			V42H65.3z M65.3,40.2l0,0.2l0.2,0l0.1-0.2H65.3z M65.9,44.8l0.2-0.1l0.1-0.2L66,44.2l-0.3,0l-0.2,0.1v0.5L65.9,44.8z M66.4,38.5
			L66,38.4l-0.2,0.1l0,0.2h0.3l0.2,0.1l0.1-0.1L66.4,38.5z M66.3,42.6l-0.1-0.2L66,42.4v0.2H66.3z M66.3,41.5l0.2,0.1l0.2-0.4l0-0.2
			l-0.3,0l-0.2,0.1l-0.1,0.2L66.3,41.5z M66.7,39.7h-0.2v0.3l0.3-0.1L66.7,39.7z M66.8,61.5l-0.2-0.2l-0.1,0.2L66.8,61.5z
			 M66.7,39.4h0.5v-0.2l-0.5,0V39.4z M67.4,44.1l0-0.2l-0.1-0.2l-0.2-0.1l-0.2,0.1l0,0.2l0.3,0.4L67.4,44.1z M67.1,60l-0.2-0.1v0.2
			l0.2,0L67.1,60z M67.5,41.9l-0.1,0.2h0.3L67.5,41.9z M67.6,42.9h-0.2v0.2l0.1,0.1L67.6,42.9z M67.5,37.3l0,0.2l0.2,0l0.1-0.4
			L67.5,37V37.3z M67.6,40.5l-0.1,0.2l0.4-0.1l0-0.2L67.6,40.5z M68.3,59.4l-0.1-0.2L68,59.3l0.1,0.2l0.2,0.1L68.3,59.4z M68.1,43.3
			h0.4l0-0.2h-0.4L68.1,43.3z M68.4,48.8l-0.2-0.1l-0.1,0.2l0.1,0.2l0.2,0L68.4,48.8z M68.2,39l0.2,0.1l0-0.2l-0.2-0.1V39z
			 M68.6,41.5l-0.2,0.2v0.5l0.1-0.2l0.2-0.1l0.1-0.3L68.6,41.5z M68.8,44.9l0.2-0.1v-0.3l-0.2-0.1h-0.2l-0.2,0.2l0,0.2L68.8,44.9z
			 M68.7,42.6l-0.2-0.1v0.2L68.7,42.6z M68.8,46l-0.1-0.2L68.6,46l0,0.2L68.8,46z M69.1,39.9l-0.3,0.3l0.1,0.2l0.4-0.2l0.1-0.2
			L69.1,39.9z M69.5,43l0.2-0.1v-0.3l-0.2-0.1L69,42.7l0.1,0.3H69.5z M69.2,47.5l0.1-0.2l-0.2,0.1L69.2,47.5z M69.3,38.5l0.2,0.1
			l0.2,0l0-0.2l-0.2-0.1l-0.2,0L69.3,38.5z M69.9,41.4l-0.4-0.1l0,0.2l0.1,0.2l0.4,0.3V41.4z M69.7,45.8l0.2-0.1l-0.2-0.1L69.7,45.8
			z M69.8,43.8v0.3l0.2,0.4v0.3l0.3-0.3l-0.1-0.7H69.8z M70.5,57.2l0.2-0.5l-0.5,0.1l-0.4,0.2l0.5,0.3L70.5,57.2z M69.9,58v0.2h0.2
			L69.9,58z M70.1,40h0.5l0.1-0.2l-0.2-0.1h-0.3L70,39.8L70.1,40z M70.3,45.5v-0.2h-0.2v0.2H70.3z M70.6,46.8l-0.3,0l-0.1,0.3
			l0.3,0.1L70.6,46.8z M71,42.4L71,42.2l-0.4-0.1l-0.2,0.2l0.6,0.3L71,42.4z M70.7,46.2l0.1-0.2l-0.2,0.1L70.7,46.2z M71,41.2
			l-0.1-0.4l-0.2-0.1v0.5l0.3,0.4V41.2z M70.7,58.6l0.2,0.1l-0.2-0.2V58.6z M71,49.7l0.2-0.4l-0.2,0l-0.2,0.2l0,0.3L71,49.7z
			 M71,58.8l-0.2-0.1L70.7,59l0.2,0.2l0.2-0.1L71,58.8z M71.2,45.3l0-0.2l-0.1-0.2L71,44.8v0.5L71.2,45.3z M71.3,43.3l-0.1,0.5
			l0.1,0.5l0.2-0.1l0.1-0.5v-0.6l0.2,0.1l0.1-0.2l-0.2,0l-0.2,0.1L71.3,43.3z M71.2,57.8l0.1,0.2l0.2,0l0-0.3l-0.2-0.2L71.2,57.8z
			 M71.5,61.5h-0.1l-0.1,0.2h0.2V61.5z M71.5,56.5l-0.2-0.1l-0.1,0.2l0,0.2h0.2V56.5z M71.5,48.8l-0.2,0.1l0.3,0.1L71.5,48.8z
			 M71.6,55.3l0.1,0.1l0.1-0.3h-0.2L71.6,55.3z M71.6,55.6l0.1,0.2l0.2,0l0.1-0.2l-0.4-0.2V55.6z M71.9,59.5l0.2-0.3l-0.5,0.1v0.3
			L71.9,59.5z M72.1,46l0.1-0.2l-0.3,0l-0.1,0.3L72.1,46z M72,44.3l-0.1,0.2h0.3L72,44.3z M72.4,58.4v-0.5l-0.1-0.2h-0.2l0,0.5
			l0.1,0.2l0.2,0.2L72.4,58.4z M72.3,54.3l-0.2,0l0.1,0.2l0.2,0.1L72.3,54.3z M72.6,44.6l-0.2,0.1l0.3,0.1l0.1-0.2H72.6z M72.7,56
			l0.1,0.4l0.3,0.1l0.2-0.7L73,55.7h-0.2l-0.2,0.1L72.7,56z M73,47.2L72.8,47l-0.2,0.2l0.5,0.2L73,47.2z M73.1,54.4l-0.2,0.2
			l0.1,0.2L73.1,54.4L73.1,54.4z M73.2,58.4L73,58.6l0.1,0.2l0.3-0.2l0-0.2L73.2,58.4z M73.2,41.2l0.1-0.1l0.1,0.2L73.2,41.2z
			 M73.3,53.8l0.1,0.1l0.1-0.2l-0.2-0.1L73.3,53.8z M73.5,57.7l0.2-0.1l-0.1-0.2l-0.2-0.1l-0.1,0.3L73.5,57.7z M73.5,60.4l0.1-0.2
			l-0.3,0.1L73.5,60.4z M73.7,51.1l0.1,0.2l0.1-0.2H73.7z M74.1,56.7l-0.2-0.1l-0.1,0.2h0.3V56.7z M74,54.2l0.3,0L74,53.8L73.9,54
			L74,54.2z M74.3,55.2l-0.3,0l0.1,0.2l0.2,0V55.2z M74.5,58.3l0.4,0.2L74.8,58h-0.3L74.5,58.3z M74.6,61.4h0.2l0.1-0.2l-0.2-0.1
			l-0.2,0.1L74.6,61.4z M74.9,59.5h0.2l-0.1-0.2l-0.2-0.1V59.5z M75.1,55l0.3,0l0.1-0.2l-0.4,0.1V55z M75.6,64l-0.1-0.4l-0.2,0.1
			l-0.1,0.2l0.4,0.2L75.6,64z M75.8,57.7l-0.5-0.2l-0.1,0.3l0.4,0.2L75.8,57.7z M75.5,47.8l0.2-0.2h-0.2L75.5,47.8z M75.8,56.6
			l0,0.2l0.2,0l0.1-0.2l-0.1-0.2l-0.2-0.1L75.8,56.6z M76,60.4l0.1,0.2l0.2,0.1l0.1-0.4l-0.4-0.1L76,60.4z M76.1,59.2l0.2,0.2
			l0.1-0.3l-0.2-0.2L76.1,59.2z M76.3,63l-0.1,0.1l0,0.2l0.4-0.1L76.3,63z M76.6,61.9l-0.2-0.2l-0.1,0.1L76.6,61.9z M76.7,57.2
			l0.2,0.2v-0.2L76.7,57.2z M77,59.7h-0.2l0,0.2l0.2,0L77,59.7z M77.3,62.7l0.2,0.1h0.2l0.1-0.2l-0.2-0.1h-0.5L77.3,62.7z M77.4,64
			l0.1-0.2l-0.2,0l-0.1,0.1L77.4,64z M77.4,61.3l0.2,0l0.1-0.2l-0.2-0.1l-0.2,0.1L77.4,61.3z M78.2,60.8L78,60.6L78.2,60.8
			L78.2,60.8z M78.4,64h-0.2v0.2h0.2V64z M79,60.7h-0.2l0.2,0.2V60.7z M81.3,66.7L81.3,66.7v0.1V66.7z M83.2,67l0-0.2L83,66.9
			L83.2,67z"/>
		<path class="st17" d="M100.7,62.6l-0.2,0.2l0,0.2l0.2,0l-0.2,0.9l-0.1,0.2l0.2,0.3l-0.1,0.5l0.1,1.9l-0.2,0.1l-0.3,0.4l-0.3,0v0.2
			l0.1,0.1l-0.8,0.2l-0.2,0.1l-0.5-0.2l-0.2,0.1l0-0.2L98,67.7l-0.7,0l-0.2,0.1l-0.1-0.2l-0.3,0l-0.2,0.1l0,0.2l-0.5-0.2l-0.6,0
			l-1.8-0.2l-0.1,0.1l0,0.2l-0.3,0l-0.2-0.1l-0.3-0.4l-0.2-0.2l0.3-0.2h-0.2l-0.1-0.1l-0.2-0.5V66L92,65.7l0.2-0.7l-0.1-0.3l0.4-0.3
			l-0.2-0.2l-0.2-0.1v-1.2l0.2-0.9L92,61.2v-0.3l0.1-0.2L92,58.1l0.2-0.4L92,56.8l0.2-0.7l-0.1-0.5l0-0.5l0.2-0.2l-0.2,0L92,54.7
			l0.1-0.5v-0.5L92,53.1l0.1-0.2l0.2-0.1l-0.2-0.2v-0.5l0.2-0.2l-0.1-0.2l-0.2,0l0.2-0.3l0-0.2L92,50.7l0.1-0.5l0.2-0.5l-0.2-0.4v-1
			l0.2-0.5l-0.4-0.3l0-0.3l0.3-0.1h0.8l-0.2-0.2l-0.5,0l0.1-0.9l-0.4-0.3l0.1-0.3l0.2-0.1l-0.4-0.6v-0.5l0.1-0.6L92,43.1l0.1-0.5
			l0.2-0.4l-0.3-0.3l0-0.7L92,40.7l0.1-0.2l0.2-0.2l-0.1-0.2l-0.1-0.5l0.1-0.5l0.1-0.2l-0.1-0.2L92,38.6l0.2-0.7l-0.1-0.5L92,37.2
			l0.3,0l-0.2-0.5l0.1-0.5l0.6-0.8l2.3-0.1l1.9,0.1l0.1,0.2l0.3,0l-0.1-0.5h1.7l0.5,0.1l0.4,0.2l0,0.4l0.2,0.1h0.3l0.2,0.4l0.1,0.5
			l0,0.5l-0.2,0.5l0.2,0.6l0.1,1.5l-0.1,1l0,0.5l0.1,0.2l-0.2,0.4l0.1,0.2l-0.1,0.5l0.1,1.3l-0.2,0.5l0.1,1.7l0,1.9l-0.1,0.6
			l-0.2,0.4l0.2,0.5l0,1l-0.5-0.2l-0.3-0.5L99.7,50l0,0.8l0.4,0.2v0.5l-0.3-0.1l0.1,0.2v0.5h0.2l0.2,0.1l-0.4,0.4v0.2h0.2l0.3-0.2
			l0,0.4l-0.4,0.5l-0.5-0.5L99.1,53l-0.3,0.1l0.7,0.3l0.3-0.1v0.5l-0.2,0.5l0.9,0.7l0.2,1.9l0.1,0.4l0,1.6l-0.1,1l0.2,1v0.5
			l-0.2,0.4l0.3,0.5L100.7,62.6z M92.5,43.3h-0.2l0.1,0.2L92.5,43.3z M92.6,50.7l-0.1-0.3l-0.1,0.3H92.6z M92.8,35.9l-0.3,0l0.1,0.2
			h0.2L92.8,35.9z M93,58h-0.2l-0.1,0.1L93,58z M93.6,41.4l0.2,0.3l0.2-0.2l0-0.2l-0.3-0.1L93.6,41.4z M93.6,48.7l0.1,0.2l0.2,0.1
			l0.2-0.1l-0.2-0.5l-0.2-0.1L93.6,48.7z M93.7,49.9l0.2,0.3l0-0.4l-0.2-0.2L93.7,49.9z M94,52.6l-0.2,0l0.1,0.2l0.2-0.1L94,52.6z
			 M94.2,44.4l0.1-0.2l0-0.2L94,43.9l-0.1,0.2l0.1,0.3L94.2,44.4z M94.3,51.3l-0.1-0.1l-0.2,0l-0.1,0.2l0.1,0.2l0.4-0.1L94.3,51.3z
			 M94.3,43.1l0.2,0.1l-0.3-0.4L94.3,43.1z M94.4,47.2l0.2-0.1l0-0.2l-0.2-0.1l-0.1,0.5H94.4z M94.5,62.7l-0.1-0.1l-0.1,0.2l0.2,0.1
			L94.5,62.7z M94.7,54l-0.3-0.1v0.2l0.1,0.1L94.7,54z M94.5,42.4l0-0.2h-0.1L94.5,42.4z M94.8,49.6l0.1-0.2l-0.2,0.1l0,0.2
			L94.8,49.6z M94.8,56.8v0.3L95,57l0.1-0.2L95,56.6L94.8,56.8z M94.9,48.1v0.2l0.1,0.2l0.2-0.4l0-0.2L95,47.9L94.9,48.1z M95,39.7
			l0.2,0.1v-0.2L95,39.5L95,39.7z M95,41h0.2v-0.2H95L95,41z M95.3,65.2H95l0,0.2l0.2,0.1L95.3,65.2z M95.5,50.9v-0.3l-0.5,0.2
			L95,50.9l0.2,0.1l0.3,0L95.5,50.9z M95.4,42.2h-0.2l0,0.2l0.2,0V42.2z M95.3,43.3l-0.1,0.1l0.2,0l0.1-0.2L95.3,43.3z M95.5,52.2
			l0-0.2l-0.1-0.1l-0.1,0.3H95.5z M95.4,55l-0.2-0.1v0.2L95.4,55z M95.6,53.8l0.1,0.2l0.2,0l0-0.2l-0.1-0.4h-0.2l-0.1,0.2L95.6,53.8
			z M95.6,38l0.2,0l0-0.2l-0.3,0L95.6,38z M95.9,56.5l0.2,0.1l0.2-0.1l-0.1-0.2L96,56.2l-0.2,0.1L95.9,56.5z M96,57.6l-0.2-0.1v0.2
			L96,57.6z M96.1,47.8h0.3l-0.1-0.2h-0.2L96.1,47.8z M96.2,44.3l0,0.2l0.2-0.1l0-0.2l-0.3-0.1L96.2,44.3z M96.8,51.6l-0.1-0.2
			l-0.3,0.1l-0.2,0.2l0.1,0.2l0.4-0.1V51.6z M96.8,50.5l-0.1-0.3L96.5,50l-0.1,0.1l0,0.2l0.2,0.2l0.3,0.1V50.5z M96.5,64.7l-0.2-0.1
			L96.5,64.7L96.5,64.7z M96.9,43l-0.5-0.2l0.1,0.3l0.2,0.2L96.9,43z M96.6,59.1h-0.2l0.2,0.2V59.1z M96.7,42.2H97l-0.2-0.1V42.2z
			 M97.1,54.3h-0.2v0.2H97L97.1,54.3z M97.4,53.2l0.1-0.2l-0.3,0l0,0.2L97.4,53.2z M97.5,39.9L97.3,40l0,0.3h0.3l0.2-0.1l0.1-0.2
			L97.5,39.9z M97.3,45l0.2,0.1l0.2-0.1l-0.1-0.2h-0.2L97.3,45z M97.3,52.5l0.2-0.1l0-0.2h-0.2l-0.1,0.1L97.3,52.5L97.3,52.5z
			 M97.3,55.8l0,0.3l0.3-0.1l0.1-0.2l-0.1-0.2L97.3,55.8z M97.7,64.4l0.1-0.3L97.5,64l-0.2,0.1l-0.1,0.2l0,0.2l0.2,0.1L97.7,64.4z
			 M97.5,47.2l-0.1,0.2l0.1,0.2l0.2-0.2l0-0.2L97.6,47L97.5,47.2z M97.9,58.8l0.2-0.4L98,58.2l-0.3,0l-0.1,0.5l0.2,0.2L97.9,58.8z
			 M97.7,50l0.3,0.1l0.2-0.1l-0.1-0.2l-0.4-0.2l-0.2,0.1l-0.1,0.2L97.7,50z M97.7,55l0.2,0.1V55H97.7z M98,41.8l0.2,0.2l0-0.3
			L98,41.5L98,41.8z M98.4,52.7l-0.2-0.1L98,52.8l0.5,0.1L98.4,52.7z M98.5,61.2L98.4,61l-0.3-0.1L98,61v0.3l0.2,0.1h0.3L98.5,61.2z
			 M98.2,45.1l-0.2,0.1L98,45.5h0.3l0.2-0.1l0-0.2L98.2,45.1z M98.1,53.7L98,53.8l0.2,0.1h0.2l0-0.2l-0.1-0.1L98.1,53.7z M98.7,51.6
			l-0.2,0.1l0.3,0.1L98.7,51.6z M98.7,55.2l0.2-0.1L98.5,55L98.7,55.2z M98.6,47l0.2,0.1l0.1-0.2l0-0.2l-0.2-0.1L98.6,47z M99,58.1
			l-0.2-0.2l-0.1,0.2l0.2,0.2L99,58.1z M99.4,49.4L99.2,49l-0.2-0.1l-0.1,0.2l0.1,0.3l0.3,0.5l0.2-0.3L99.4,49.4z M99.5,52.1
			l-0.4-0.2l-0.1,0.2l0,0.4l0.2,0l0.1-0.2l0.3-0.2L99.5,52.1z M99.4,53.5l-0.2,0.1l0,0.2l0.1-0.1L99.4,53.5z"/>
		<path class="st17" d="M112.8,35.2l0.7,0.2l0.5-0.1l1,0.1l0.1,0.3l0.2-0.2l0.4-0.2l1.8-0.1l0.5,0.1l0.2,0.2l0.7-0.1l0.3,0.1
			l0.4,0.2l0.2,0.4l-0.1,0.2l-0.2-0.1l0.3,1l-0.1,0.5l-0.6,0.2l0.1,0.2h0.4l0.2,0.1v0.3l-0.3,0.3l0.3,0.1v1.6l-0.3,0.3l0.3,0.2
			l-0.1,1.4l0.1,0.5h-0.2l-0.1,0.2l0,0.1l0.2,0l0.1,0.5l0,1l0.1,0.8l0,0.2l-0.2,0.2l0.2,2.1l-0.1,0.5l-0.2,0.4l-0.2,0.2l0,0.6
			l0.3,0.9l-0.1,0.5l0.1,0.5l0,0.3l-0.2,0.2l0.2,0.5v0.5l-0.2,0.7v0.4l-0.2,0.1l0.3,0.3l0.1,3.9v0.2l0.2,0.4l0,0.2l1.1,0.6l0.4-0.1
			l1,0.2l0.5-0.1l1.1,0l0.4,0.2l0.5-0.2l0.4,0.1l0.2,0.5l0.2-0.2l0-0.3h0.2l0.3-0.2l0.4,0.2l1,0.1l0.2,0.1l0.1,0.2l0.1,0.1l0.2-0.1
			l0-0.2l-0.2-0.1l0.2-0.1l0.6,0L129,60l0.2,0l0.1-0.2v-0.3l0.5,0.1h0.4l0.2-0.1l1,0.2l1-0.1l0.5,0l0.6,0.4l0.1-0.4l1,0.3l0.4,0.3
			l0,0.5l0.2,0.6l-0.1,0.5l0,0.5l-0.1,0.4l0.2,0.4l0.1,1l-0.1,0.5v1.1l-0.4,0.4l0.3,0.3l-0.2,0.6l-0.2,0l0.1,0.5l-0.2-0.1l-0.8,0.4
			l-0.2,0l-0.2-0.2L133,68l-1-0.2l-1.4,0.2h-0.8l-0.3-0.2l-0.5,0.2l-0.4-0.1l-0.6,0.2l-1-0.2l-0.5,0.2l-0.5-0.2l-0.5,0.1l-1-0.1
			l-0.5,0l-0.4,0.2l-0.5-0.2l-0.5-0.1l-0.7,0.1l-0.3-0.1l-0.5,0l-0.2,0.1h-0.5L120,68l-0.5-0.3l-0.5,0.2l-0.5-0.1l-1.1,0l-0.2-0.1
			l-0.2,0.1l-0.5,0l-0.4-0.2l-0.5,0.2l-0.3-0.2l-0.2-0.2l-0.5,0.4l-0.5-0.2l-0.2,0.2l-0.4-0.1l-0.4,0.2l-1-0.1l-0.5-0.2l-0.5-0.5
			l0-0.2l-0.2-1.1l0-0.7l0.1-0.2l-0.1-0.4l0-2l0.5-0.2l-0.2-0.3l-0.2-0.2l0.1-1.6l-0.1-0.5l0.3-0.3l0.1-0.2v-0.4h0.2l0-0.2l-0.3-0.3
			l0-0.2l0.5-0.1l0.1-0.2l-0.5,0l0-0.3l-0.1-0.2l0.2-0.1l0.4,0.3l0.2,0.1L112,57l-0.7-0.4l0.1-0.3l-0.1-0.4l0.2,0l0,0.2l0.1-0.2l0-1
			l0.1-0.2l-0.5-0.2l0.2-0.7l-0.2-0.4l0.1-0.5l0-1l0.2-0.7l-0.1-0.2l-0.2,0l0.1-0.2l-0.1-0.5l-0.1-0.2l0.1-0.5v-0.8l0.1-0.2
			l-0.1-0.7l0.1-0.5l0.2-0.2l0.2-0.1l-0.4-0.8l0-0.5l0.1-0.2l-0.2-1l0-0.5l0.3-0.4l0-0.2l-0.3-0.7l0.1-1.3l-0.1-0.2l0.5-0.1
			l-0.3-0.3l0-0.5l-0.1-1l0.1-0.7l-0.2-0.3l0.4-0.6l-0.3-0.4l0.1-0.5l0.4-0.1l-0.1-0.1l-0.2,0l0.1-0.7l0.5-0.2l0.3,0l0.3,0.3
			l0.2,0.1l0.1-0.2l-0.1-0.2V35.2z M111.2,58.5h0.1l-0.2,0.2L111.2,58.5z M111.8,53.5l0.2-0.1l0.1-0.4l-0.4-0.2l0,0.4V53.5z
			 M112.5,44.1l-0.1-0.4l-0.2-0.1l0,0.2l0.1,0.2L112.5,44.1z M112.5,46.4l0.2,0.2l0.2-0.1l-0.2-0.2L112.5,46.4z M112.5,55.1l0.2-0.1
			l0.2-0.5l-0.2-0.1l-0.1,0.2v0.2L112.5,55.1z M112.7,58.9l0.2,0l0.1-0.2v-0.2h-0.3l0,0.2L112.7,58.9z M113,58v-0.4l-0.1,0.2L113,58
			z M112.9,56.2l0.1,0.2l0.2,0.2l0.3,0l0.1-0.2l-0.1-0.2l-0.2-0.1L112.9,56.2z M113.2,41.6l-0.2,0l0.1,0.2L113.2,41.6z M113,40.7
			l0.1,0.2h0.2l0-0.3l-0.2,0L113,40.7z M113,57.5h0.2v-0.1H113V57.5z M113.3,61.2l-0.2-0.1l0.1,0.2L113.3,61.2z M113.1,60.1l0.1,0.2
			l0.2,0.1l0.1-0.3l-0.2,0L113.1,60.1z M113.5,44.8l0.1-0.1l0-0.5l-0.3,0.1l-0.1,0.2l0.1,0.2L113.5,44.8z M113.5,59.5l0.2-0.1
			l0.1-0.2l-0.2-0.2l-0.3,0v0.3L113.5,59.5z M113.4,52.2l0.1-0.2l0.1-0.5l-0.2-0.2l-0.2,0.5V52L113.4,52.2z M113.3,43.4l0.4,0.1
			l0-0.5l-0.2-0.1l0,0.3L113.3,43.4z M113.6,55.5l0.2-0.1l-0.2-0.1V55.5z M113.9,63.2v-0.3h-0.2v0.2L113.9,63.2z M113.8,54.6l1,0.4
			l-0.1-0.2l-0.4-0.2l-0.2-0.2l0-0.3h-0.3V54.6z M113.8,62.1h0.3l0-0.2l-0.2,0L113.8,62.1z M114,46.2V46l-0.2,0L114,46.2z
			 M114.1,49.3l0.5-0.5l-0.3-0.2L114,49L114.1,49.3z M114.4,40.2l0.2-0.1v-0.4l-0.3,0l-0.1,0.1l-0.1,0.2l0.1,0.2L114.4,40.2z
			 M114.5,50l0-0.2l-0.3-0.2l0,0.2l0.2,0.2H114.5z M114.1,41.4l0.2,0l0-0.6h-0.2l-0.1,0.2V41.4z M114.1,57.2l0.2,0l0.1-0.2l-0.1-0.2
			l-0.2,0l0,0.2V57.2z M114.5,61l-0.2,0l0.2,0.1L114.5,61z M114.3,51.4l0.3,0.2l0.1-0.2l-0.2,0L114.3,51.4z M114.3,52.3l0.2,0
			l0.1-0.2l-0.2,0L114.3,52.3z M114.6,42.9v0.2h0.2l0.3-0.2l-0.3-0.1L114.6,42.9z M114.6,63.8l0.2,0.1l0.1-0.2l-0.1-0.1l-0.1,0.1
			L114.6,63.8z M114.9,59.7l-0.2-0.1l0.1,0.2L114.9,59.7z M115,62.8l0.1-0.2v-0.2l-0.3-0.1v0.3L115,62.8z M115.2,61.8l0.1-0.2
			l-0.2-0.3l-0.2,0v0.2l0.1,0.2L115.2,61.8z M115.3,45.7l0-0.2l-0.1-0.2l-0.2-0.1l-0.1,0.2l0.1,0.2L115.3,45.7z M115,46.4h0.2v-0.2
			H115V46.4z M115,54.2l0.3-0.6l-0.2,0L115,54L115,54.2z M115.1,53.1l0.1,0l0.3-0.1l-0.1-0.2l-0.2,0l-0.1,0.1L115.1,53.1z
			 M115.4,48.6l0.2-0.1l0.1-0.2l-0.1-0.2h-0.3l0,0.4L115.4,48.6z M115.7,39.6l0-0.2l-0.1-0.2l-0.2,0l0.1,0.3L115.7,39.6z
			 M115.5,50.8h0.2l-0.2-0.2V50.8z M115.6,56.8v-0.2h-0.1L115.6,56.8z M115.9,55.8l0-0.2l-0.1-0.2l-0.2,0l0,0.2l0.1,0.2L115.9,55.8z
			 M115.9,60.5l0-0.2l-0.2,0l0.1,0.3L115.9,60.5z M115.7,42.1l0.2,0.1l0.2-0.1l0.1-0.2l-0.1-0.2l-0.4,0.2L115.7,42.1z M115.9,47
			l-0.2-0.2l0,0.2L115.9,47z M115.7,52.1l0.2-0.1v-0.2l-0.2-0.1l-0.1,0.2L115.7,52.1z M116,43.5v-0.3l-0.2-0.2l0,0.2l0.1,0.2
			L116,43.5z M115.9,59.4l0.2-0.5l-0.3-0.1l0,0.5L115.9,59.4z M116.2,58.3l-0.1-0.4l-0.3-0.1l0,0.2l0.2,0.2L116.2,58.3z M116.2,40.8
			l0-0.2l-0.2,0l0,0.2L116.2,40.8z M116.1,45.8l0,0.2l0.2,0.1h0.2l0-0.3l-0.2-0.1L116.1,45.8z M116.2,45.2l0.2-0.1l0.1-0.2l-0.3-0.2
			l-0.1,0.2L116.2,45.2z M116.3,61.3l0.3,0v-0.2l-0.2,0L116.3,61.3z M116.4,57.3l0.2-0.1l0.1-0.2h-0.2V57.3z M116.5,47.6l0.1,0.2
			l0.2,0.1l0.2-0.4l-0.1-0.2l-0.2-0.1l-0.2,0.2L116.5,47.6z M116.5,49.1l0.2-0.1l0.1-0.4h-0.2L116.5,49.1z M116.6,40l0.2,0l0-0.2
			l-0.2,0L116.6,40z M116.6,55l0.2,0.1L117,55l-0.4-0.2L116.6,55z M116.7,39.3l0.2-0.2l-0.3-0.2l0,0.3L116.7,39.3z M116.9,44.1v-0.2
			l-0.1-0.1l-0.1,0.2L116.9,44.1z M116.7,56h0.1l0.1-0.2l-0.2-0.1V56z M116.8,38.9l0.2-0.1l-0.1-0.2L116.8,38.9z M117.2,46.8l0-0.2
			l-0.1-0.2l-0.2-0.1l0,0.2l0.1,0.2L117.2,46.8z M117,50.9l0.2-0.4l0-0.3l-0.3-0.1l-0.2,0.5l0,0.2L117,50.9z M116.9,41.4l0.1,0.2
			l0.2,0.1l0.2-0.2l-0.1-0.2l-0.2-0.1L116.9,41.4z M117,42.8h0.2l0-0.2H117V42.8z M117.2,61.6l0.2,0.1l0.2-0.1l-0.1-0.1l0.1-0.2
			h-0.4L117.2,61.6z M117.2,45.5l0.1,0.4l0.3-0.5l0-0.3l-0.3,0.1L117.2,45.5z M117.6,60.6l0.1-0.4l-0.1-0.2h-0.2l-0.1,0.2l0,0.2
			L117.6,60.6z M117.6,49.6l-0.2-0.2l-0.2,0l0.1,0.2L117.6,49.6z M117.5,43.1l0.3,0.2l0.3,0.1l-0.1-0.2l-0.2-0.1l0-0.3h-0.2V43.1z
			 M117.7,44.7l0.2-0.7l-0.3,0.1l-0.2,0.2v0.2L117.7,44.7z M117.9,64.1l0-0.2h-0.2l0,0.2H117.9z M117.7,48.3l0.2-0.1L118,48
			l-0.2-0.1l0,0.2V48.3z M117.9,63.5v-0.2l-0.1-0.2v0.3L117.9,63.5z M117.8,46.8l0.2,0.5l0.5,0.2l-0.2-0.6l-0.2-0.1L117.8,46.8z
			 M118,66l0.2,0.2l0.3,0l0.2-0.2l-0.2-0.2l-0.2,0L118,66z M118.1,51.2l0.2-0.1l0.1-0.2l-0.2-0.1l-0.1,0.2V51.2z M118.2,58.1h0.2
			l-0.2-0.1V58.1z M118.8,43.8l-0.2,0.2l0.6,0.1l0-0.2l-0.1-0.2L118.8,43.8z M118.8,61.1l0.1-0.3l-0.2-0.2l-0.1,0.4L118.8,61.1z
			 M118.8,36.5l0.3,0.1v-0.3l-0.2,0L118.8,36.5z M119,64l0.1-0.2l0-0.3h-0.3l0.1,0.5L119,64z M118.9,42.6h0.2v-0.2h-0.2V42.6z
			 M119.7,65.5l0-0.2l-0.4-0.3l-0.1,0.2l0.2,0.2L119.7,65.5z M119.8,60.5l0.2-0.1l-0.2-0.1V60.5z M120.1,62.2h0.2l0.2-0.1l0-0.2
			l-0.4-0.3l-0.1,0.2l0,0.2L120.1,62.2z M121,65v-0.3l-0.1-0.2l-0.2,0l-0.1,0.2l0,0.2l0.2,0.1L121,65z M121.7,63l0-0.2l-0.2-0.2
			l0,0.2L121.7,63z M122.2,64.7l0-0.3l-0.2-0.2h-0.2l0.2,0.5L122.2,64.7z M121.9,65.7l0.1-0.2v-0.3h-0.2v0.3L121.9,65.7z M123,61.8
			h-0.3l0.1,0.2L123,61.8z M123,63.7l0.1,0.2l0.3,0.1l0-0.5l-0.1-0.1l-0.1,0.2L123,63.7z M123.9,66.1l-0.2,0.1l0.1,0.1L123.9,66.1z
			 M124.4,60.7l0-0.3l-0.2-0.2v0.5H124.4z M124.2,64.6l0.5,0.1l0.2,0l-0.5-0.5l-0.1,0.2L124.2,64.6z M124.3,62.8V63l0.1,0.3l0.3,0.1
			l0.1-0.2V63l-0.1-0.2l-0.2-0.1L124.3,62.8z M125.2,66.1l-0.2-0.5l-0.2-0.1v0.2l0.2,0.2L125.2,66.1z M125.2,65.1l0.2,0.1V65h-0.2
			L125.2,65.1z M125.3,60.9h0.2l-0.1-0.2l-0.2-0.1V60.9z M125.4,64l0.2-0.1l0-0.3l-0.2,0l-0.1,0.1L125.4,64z M126,62.8l-0.4-0.3
			l0,0.3l0.2,0.2L126,62.8z M126.4,65.7v-0.5l-0.2,0l0,0.2l0.1,0.2L126.4,65.7z M126.5,60.9h0.2l0-0.2h-0.1L126.5,60.9z M126.5,64
			h0.2l-0.1-0.2L126.5,64z M126.9,63.2l-0.3,0.2l0.2,0l0.3-0.1v-0.3L127,63L126.9,63.2z M126.7,62l0.3,0.3l0.3,0V62l-0.3-0.3
			l-0.2,0.1L126.7,62z M127.3,65.1l0.5-0.1l-0.1-0.5l-0.3,0.1l-0.2,0.2V65.1z M128,64.1l0-0.2l-0.1-0.1l0,0.2L128,64.1z M128.1,61.7
			l0.2,0l0.2-0.1l0.1-0.2l-0.5-0.2l-0.1,0.2V61.7z M128.1,62.8h0.2l0.2-0.2l0.1-0.3l-0.3,0l-0.2,0.2L128.1,62.8z M128.7,65.7
			l0.2-0.2l0-0.3l-0.2,0.1l-0.1,0.3L128.7,65.7z M129,64.5V64h-0.4v0.3l0.1,0.1L129,64.5z M129.1,63.5h0.2l0-0.2l-0.2-0.1V63.5z
			 M129.4,62.2l0.1,0.2l0.2-0.1v-0.2L129.4,62.2z M129.7,61.5l0.3-0.4l-0.1-0.2l-0.2,0l-0.2,0.2v0.2L129.7,61.5z M129.9,65.1l0.2,0
			l0-0.4l-0.2,0l-0.1,0.2L129.9,65.1z M130.1,63.9l0.2-0.1v-0.4l-0.2,0l0,0.2L130.1,63.9z M130.4,62.9h0.2l-0.1-0.2L130.4,62.9
			L130.4,62.9z M130.9,60.8l0.3-0.1l-0.2-0.3l-0.1,0.2V60.8z M131,63.3h0.1V63H131V63.3z M134.7,60.4l-0.2-0.2l-0.2-0.1l0,0.2
			l0.2,0.1L134.7,60.4z"/>
	</g>
</g>
</svg>
