<?xml version="1.0" encoding="utf-8"?>
<!-- Generator: Adobe Illustrator 20.1.0, SVG Export Plug-In . SVG Version: 6.00 Build 0)  -->
<svg version="1.1" xmlns="http://www.w3.org/2000/svg" xmlns:xlink="http://www.w3.org/1999/xlink" x="0px" y="0px"
	 viewBox="0 0 183.8 109" style="enable-background:new 0 0 183.8 109;" xml:space="preserve">
<style type="text/css">
	.st0{clip-path:url(#SVGID_4_);fill:#040607;}
	.st1{fill:#FFFFFF;}
	.st2{clip-path:url(#SVGID_14_);}
	.st3{fill-rule:evenodd;clip-rule:evenodd;fill:#FFFFFF;}
	.st4{clip-path:url(#SVGID_16_);}
	.st5{clip-path:url(#SVGID_18_);}
	.st6{clip-path:url(#SVGID_20_);}
	.st7{clip-path:url(#SVGID_22_);}
	.st8{fill-rule:evenodd;clip-rule:evenodd;fill:#89C8C9;}
	.st9{fill:#89C8C9;}
	.st10{clip-path:url(#SVGID_24_);}
	.st11{clip-path:url(#SVGID_26_);fill:#FFDE37;}
	.st12{clip-path:url(#SVGID_26_);}
	.st13{fill-rule:evenodd;clip-rule:evenodd;fill:#FFDE37;}
	.st14{fill:#FFDE37;}
	.st15{clip-path:url(#SVGID_28_);}
	.st16{fill-rule:evenodd;clip-rule:evenodd;fill:#40342D;}
	.st17{fill:#40342D;}
	.st18{fill-rule:evenodd;clip-rule:evenodd;fill:#DEC937;}
	.st19{fill:#F9F6F7;}
	.st20{fill:#49392F;}
	.st21{fill-rule:evenodd;clip-rule:evenodd;fill:#F9F6F7;}
	.st22{fill:#333332;}
	.st23{fill:none;stroke:#40342D;stroke-miterlimit:10;}
</style>
<g id="Capa_1">
</g>
<g id="Capa_2">
	<g>
		<path class="st17" d="M50,10.1c-0.6-0.6-1.3-1-1.9-1.2c-0.7-0.3-1.3-0.4-2.1-0.4c-1.5,0-2.7,0.5-3.6,1.4c-0.9,0.9-1.4,2.1-1.4,3.7
			c0,1.5,0.4,2.7,1.3,3.6s2,1.3,3.4,1.3c0.8,0,1.6-0.1,2.3-0.4c0.7-0.3,1.4-0.7,2-1.2l0,3.1c-0.7,0.4-1.3,0.7-2,0.9
			s-1.5,0.3-2.3,0.3c-2.3,0-4.1-0.7-5.6-2.1c-1.5-1.4-2.2-3.2-2.2-5.4c0-2.2,0.7-4,2.2-5.4s3.4-2.1,5.7-2.1c0.8,0,1.5,0.1,2.2,0.2
			s1.4,0.4,2.1,0.8L50,10.1z"/>
		<path class="st17" d="M67.5,13.6c0,1-0.2,2-0.6,2.9s-0.9,1.7-1.6,2.4c-0.7,0.7-1.6,1.3-2.5,1.6c-0.9,0.4-1.9,0.6-2.9,0.6
			c-0.9,0-1.7-0.1-2.6-0.4c-0.8-0.3-1.6-0.7-2.3-1.3c-0.9-0.7-1.6-1.6-2.1-2.6s-0.7-2.1-0.7-3.2c0-1,0.2-2,0.6-2.9
			c0.4-0.9,0.9-1.7,1.7-2.4C55.2,7.6,56,7.1,57,6.7s1.9-0.6,2.9-0.6c1,0,2,0.2,2.9,0.6c0.9,0.4,1.8,0.9,2.5,1.6
			c0.7,0.7,1.3,1.5,1.7,2.4C67.3,11.6,67.5,12.6,67.5,13.6z M59.9,18.4c1.3,0,2.4-0.5,3.2-1.4c0.8-0.9,1.3-2,1.3-3.4
			c0-1.4-0.4-2.5-1.3-3.4c-0.9-0.9-1.9-1.4-3.2-1.4c-1.3,0-2.4,0.5-3.2,1.4c-0.9,0.9-1.3,2.1-1.3,3.4c0,1.4,0.4,2.5,1.3,3.4
			S58.6,18.4,59.9,18.4z"/>
		<path class="st17" d="M70.1,20.7V6.4h3.2l6.3,8.3c0.2,0.2,0.4,0.6,0.6,1c0.2,0.4,0.4,0.9,0.7,1.5c-0.1-0.4-0.1-0.8-0.2-1.3
			c0-0.4,0-0.9,0-1.6v-8h2.9v14.3h-3l-6.5-8.5c-0.2-0.2-0.4-0.6-0.6-1s-0.4-0.9-0.7-1.5c0.1,0.4,0.1,0.8,0.2,1.2c0,0.4,0,0.9,0,1.6
			v8.2H70.1z"/>
		<path class="st17" d="M92.1,9v11.7H89V9h-3.5V6.4h10.1V9H92.1z"/>
		<path class="st17" d="M94.8,20.7l5.4-14.3h3.5l5.5,14.3h-3.5l-1.2-3h-5.5l-1,3H94.8z M103.9,15.3l-1.6-4.6c0-0.1-0.1-0.4-0.2-0.7
			c-0.1-0.3-0.1-0.7-0.2-1.2c-0.1,0.5-0.2,0.9-0.2,1.2s-0.1,0.6-0.2,0.7l-1.5,4.6H103.9z"/>
		<path class="st17" d="M121.9,10.1c-0.6-0.6-1.3-1-1.9-1.2c-0.7-0.3-1.3-0.4-2.1-0.4c-1.5,0-2.7,0.5-3.6,1.4
			c-0.9,0.9-1.4,2.1-1.4,3.7c0,1.5,0.4,2.7,1.3,3.6s2,1.3,3.4,1.3c0.8,0,1.6-0.1,2.3-0.4c0.7-0.3,1.4-0.7,2-1.2l0,3.1
			c-0.7,0.4-1.3,0.7-2,0.9s-1.5,0.3-2.3,0.3c-2.3,0-4.1-0.7-5.6-2.1c-1.5-1.4-2.2-3.2-2.2-5.4c0-2.2,0.7-4,2.2-5.4s3.4-2.1,5.7-2.1
			c0.8,0,1.5,0.1,2.2,0.2s1.4,0.4,2.1,0.8L121.9,10.1z"/>
		<path class="st17" d="M130.1,9v11.7H127V9h-3.5V6.4h10.1V9H130.1z"/>
		<path class="st17" d="M149.9,13.6c0,1-0.2,2-0.6,2.9s-0.9,1.7-1.6,2.4c-0.7,0.7-1.6,1.3-2.5,1.6c-0.9,0.4-1.9,0.6-2.9,0.6
			c-0.9,0-1.7-0.1-2.6-0.4c-0.8-0.3-1.6-0.7-2.3-1.3c-0.9-0.7-1.6-1.6-2.1-2.6s-0.7-2.1-0.7-3.2c0-1,0.2-2,0.6-2.9
			c0.4-0.9,0.9-1.7,1.7-2.4c0.7-0.7,1.5-1.2,2.5-1.6s1.9-0.6,2.9-0.6c1,0,2,0.2,2.9,0.6c0.9,0.4,1.8,0.9,2.5,1.6
			c0.7,0.7,1.3,1.5,1.7,2.4C149.7,11.6,149.9,12.6,149.9,13.6z M142.3,18.4c1.3,0,2.4-0.5,3.2-1.4c0.8-0.9,1.3-2,1.3-3.4
			c0-1.4-0.4-2.5-1.3-3.4c-0.9-0.9-1.9-1.4-3.2-1.4c-1.3,0-2.4,0.5-3.2,1.4c-0.9,0.9-1.3,2.1-1.3,3.4c0,1.4,0.4,2.5,1.3,3.4
			S140.9,18.4,142.3,18.4z"/>
		<path class="st17" d="M36.5,47.5l0.1,0.7l-0.1,0.5l-0.2,0.4l0.2,0.5L36.1,51l-0.2,0.1l0.1,0.5l-0.5,1.1L35,53.5l-0.2,0.1l-0.2,0
			l0,0.2l0.2,0.1l-0.5,0.6l-0.2,0.1l0,0.3l-0.4,0.6l-1.1,1l-0.5,0l0.1,0.2l-1.2,1l-0.2,0.1l0.1,0.3l-0.2,0.2l0.4,0.5l0,0.2l0.7,0.7
			l0.2,0.5l0.5,0.2l0.3,0.6l0.4,0.3v0.5l0.2,0.1l0.3,0.3l0.5,0.8l0.3,0.3l0.2,0.1l0.1,0.8l0.2,0.1l0.3,0.4l0.4,0.3l0.2,0.5l0.7,0.9
			l0.1,0.2l-0.5,0.8l-1,0.1L34.6,68l-0.7-0.1h-3.1l-1.4-0.1L28.9,68l-1.5-0.3L27,67.5l-0.1-0.1v-0.2L26.6,67l-0.4-0.5L25.9,66
			l-0.6-0.7l-0.2-0.5l-0.2,0l0-0.3l-0.2-0.5l-0.4-0.2l0-0.2l-0.7-1.2L23,62.1l-0.2-0.3l0.2,0l0-0.2l0.1-0.2l-0.4-0.2l-0.2-0.2
			l-0.1-0.2l0.2-0.2l-0.1-0.2l-0.8-0.2l-0.2-0.3l0.3-0.3l-0.2-0.3l-0.2,0.1l-0.1-0.4l-0.3,0.5l-0.6-0.2h-0.5l-0.2,0.1l-0.3-0.1
			l-0.1-0.2L19,59.1l-0.3,0.1l-1-0.4L17.6,59l0,0.3l-0.2,0.1l-0.3,0.4l-0.4,1.2l0.3,0.4l-0.1,0.2v0.6l0.1,0.2l-0.2,0.2v0.8l-0.1,0.2
			l-0.2,0.1l0.3,0.2l0.1,0.2l-0.2,0.2l0.2,0.5l0,0.7L16.8,67l-0.5,0.1l0.1,0.5l-0.3,0.1l-1,0.2l0.4-0.5l-0.2-0.1l-0.3,0l-0.2,0.1
			l0.2,0.3l-0.9-0.1l-1,0l-0.5,0.1l-0.1-0.3l-0.7,0.2h-0.9l-0.6,0.1l-0.1-0.4l-0.4,0.3l-0.3,0L9,67.5l-0.3-0.4l-0.2-0.7v-0.5
			l0.1-0.5l0.2-0.4l-0.2-0.2l-0.1-0.4l-0.1-0.2l0.4-0.5l-0.1-0.2l-0.3-0.2l0.2-0.8l0.1-1l-0.1-0.2l-0.1-0.7l0.2-0.4L8.5,60l-0.1-0.5
			l0-0.5l0.2-1l-0.1-0.2l-0.2-0.2l0.2-1l0.1-0.2l-0.1-0.4L8.4,55l0.1-0.5l0.2-0.4L8.8,54l-0.1-0.2l-0.3-0.2l0.1-0.2l0.2-0.1
			l-0.4-0.3l-0.1-0.5l0.1-0.8l0-0.5l-0.1-0.2l0.1-1.1l-0.1-0.2l0.2-0.5v-0.7l0.1-0.5l-0.1-0.2l-0.1-0.5l0.2-0.9l-0.2-0.5l0.2-0.7
			l0-0.5l-0.1-0.2l0.3-1.3l-0.3-0.7l0.4-0.2v-0.2l-0.4-0.7l0.2-0.5l0.2-1l0-0.2l-0.2-0.3l0.1-0.7l-0.1-1l0-0.2L8.6,37l-0.2-0.4
			l0-0.2l0.3-0.5v-0.3l0.7-0.2l0.5-0.1l0.5,0l0.5,0.2l0.4-0.2l0.5-0.1l0.2,0.2l0.2-0.2h0.2l0.4,0.2l0.7-0.2l0.5,0.1l0.2,0.2l0.5-0.2
			l0.5,0l2,0.1l0.5-0.1l0.2,0.1l0.3,0l0.2,0.1l0.4-0.2l0.3,0l0.2,0.1h0.3l0.2-0.1l0.2,0.2l0.1,0.2l0.7-0.2l0.2,0.1l0.5-0.2h1.5
			l0.5-0.1l0.2,0.1l0.1,0.2l1-0.3h0.6l0.5,0.1l0.4,0.3l0.3-0.3l0.9,0.3v0.5l0.5-0.5l0.4,0.3l0.5,0.1l1,0.1l0.2,0.1l0.2,0.5l0.4-0.1
			l1.1,0.5l0.1,0.2l0.5,0.1L32.4,38l0.3,0l0.5,0.2l0.3,0.4l0.4,0.3l0.2,0.1l0,0.3l0.2,0.4l0.5,0.7L35,41l0.1,0.2l0.4,0.2l0.3,1.5
			l0.2,0.5l0.3,0.4v0.3l0.2,1l0,0.6l0.1,0.2l0.1,0.8l-0.1,0.5l-0.1,0.2L36.5,47.5z M9.8,42.9l0.1,0.2h0.2l0-0.4l-0.2,0V42.9z
			 M10.1,55.5H9.8v0.2H10L10.1,55.5z M9.9,57.9l0.3,0.2l0-0.2l-0.3-0.2L9.9,57.9z M9.9,39.6h0.2v-0.2H10L9.9,39.6z M10.2,54.3v-0.2
			h-0.1v0.2H10.2z M10.4,50.4l-0.3-0.1l0,0.2l0.2,0L10.4,50.4z M10.2,51.7l0.2,0.1l0.1-0.2l-0.2-0.2l-0.2,0.1L10.2,51.7z M10.8,43.8
			l-0.2,0.1l0.1,0.1h0.2L10.8,43.8z M11,40.2l0-0.2l-0.2-0.1l-0.1,0.3H11z M11.3,42.4l-0.2,0.1l-0.1,0.2l0.3,0l0.2-0.2L11.3,42.4z
			 M11.1,46.5l0.2,0l0.1-0.1l0-0.2l-0.4-0.1V46.5z M11.5,51l-0.1-0.2l-0.2-0.1l-0.1,0.2l0.1,0.2l0.2,0.1L11.5,51z M11.1,39.1
			l0.2-0.1l-0.2-0.1V39.1z M11.3,41.8l0.3,0.1l0.2-0.1l-0.4-0.2l-0.2,0.1L11.3,41.8z M11.3,59.5h-0.2v0.2h0.2V59.5z M11.2,62.4
			l0.1,0l-0.2-0.2L11.2,62.4z M11.7,50.1L11.5,50v0.2L11.7,50.1z M11.9,45.2l0-0.2h-0.3v0.4l0.2,0L11.9,45.2z M12.1,56.7l0.2-0.1
			l-0.1-0.4L12,56l-0.2,0l-0.1,0.7l0.2,0.1L12.1,56.7z M11.7,36l0.1,0.2l0.1,0L11.7,36z M12,39l-0.1,0.2l0.1,0.2l0.2,0.1v-0.3
			L12.2,39H12z M12,38.5l0.2-0.1L12,38.2V38.5z M12.2,51.6l-0.2-0.1v0.2L12.2,51.6z M12.4,45.6l-0.2,0l0.1,0.2l0.2,0L12.4,45.6z
			 M12.7,58.9l-0.2-0.1l-0.2,0l0,0.2h0.5L12.7,58.9z M12.7,61.8l0-0.2l-0.3,0l-0.1,0.1l0.3,0.3l0.2,0L12.7,61.8z M12.5,63h-0.2
			l0.1,0.2l0.2,0L12.5,63z M12.5,50.3v0.2h0.2l0-0.2L12.5,50.3z M12.6,42.1l0,0.2l0.2-0.1l-0.1-0.2L12.6,42.1z M12.8,52.9L12.6,53
			l-0.1,0.2l0.2,0.1l0.2,0l0.1-0.2l0-0.2L12.8,52.9z M13,57.1L12.7,57l-0.2,0l0.1,0.2l0.2,0.1L13,57.1z M12.6,41.2h0.3v-0.1h-0.3
			V41.2z M12.9,43.6l0.1,0.2l0.2,0v-0.3L12.9,43.6z M13.1,60.9H13V61h0.1V60.9z M13.1,42.8L13.1,42.8l0.2,0.1l0.1-0.1l-0.1-0.2
			l-0.2,0V42.8z M13.1,59.9l0.2,0.1l0.1-0.2l-0.2-0.1L13.1,59.9z M13.1,38.1l0.2,0l0.1-0.2l-0.1-0.2h-0.2V38.1z M13.5,47.5v-0.3
			h-0.2l-0.2,0.5l0.2,0.2L13.5,47.5z M13.4,38.9v-0.2l-0.2-0.1L13.2,39L13.4,38.9z M13.4,62.6l0.1-0.1h-0.2L13.4,62.6z M13.8,58.8
			l-0.1-0.5l-0.2-0.2l-0.2,0.4l0.1,0.4l0.2,0.1L13.8,58.8z M13.4,55v0.2h0.2V55H13.4z M13.7,42.1L13.5,42l0.1,0.3L13.7,42.1z
			 M13.7,41.5l0.2,0.1v-0.2L13.7,41.5z M13.9,57.7l-0.2-0.1l0,0.2l0.2,0.2L13.9,57.7z M14,61.3h-0.2v0.2H14V61.3z M14.2,52.7
			l0.2,0.1l0.1-0.2l-0.2-0.2L14,52.6L14.2,52.7z M14.1,51.2l0.1,0.3l0.1-0.3H14.1z M14.4,59.4l0.2,0l-0.1-0.2l-0.2-0.1l-0.1,0.1
			L14.4,59.4z M14.4,50.7l0.2,0l-0.1-0.2l-0.2,0L14.4,50.7z M14.5,55.4l-0.2,0l0.1,0.3l0.2-0.1L14.5,55.4z M14.7,62.6l-0.1-0.2
			l-0.2-0.1l0,0.2l0.1,0.2l0.3,0.1V62.6z M14.6,54.9l0.2-0.2l0-0.2l-0.2,0.1L14.4,55L14.6,54.9z M14.4,38.5l0.1,0.2l0.2-0.1v-0.2
			l-0.2-0.2L14.4,38.5z M14.9,58.2L15,58l-0.2-0.1L14.6,58l0,0.3L14.9,58.2z M15.1,44.7h-0.2l0,0.2l0.2,0V44.7z M15.5,59.9l0.1-0.2
			l0-0.2l-0.2,0l-0.1,0.3l0.1,0.2L15.5,59.9z M15.3,42.9l0.2,0l0.1-0.2l-0.1-0.1h-0.2L15.3,42.9z M15.3,52.2h0.2v-0.3h-0.2V52.2z
			 M15.8,42.3l-0.2-0.1v0.2L15.8,42.3z M15.6,38.2l0.3,0l0-0.2l-0.3-0.1V38.2z M15.8,36.8L15.7,37l0,0.2l0.2,0l0.1-0.1v-0.3
			L15.8,36.8z M16,52.8l0.2,0.1l-0.1-0.2l-0.2-0.1L16,52.8z M16.1,44.3L16,44.2v0.2l0.1,0.1V44.3z M16.1,55.6l0.2,0.1l0.2,0
			l-0.1-0.3l-0.2-0.1l-0.2,0L16.1,55.6z M16.6,58.2l0.1-0.2l-0.2-0.1L16.3,58l0.1,0.2L16.6,58.2z M16.9,54.5l0.2-0.1l0.1-0.2h-0.6
			l0,0.3L16.9,54.5z M16.7,41.1l0.4,0l-0.3-0.4l-0.1-0.2V41.1z M17,57.2h-0.2v0.2H17V57.2z M22.4,51.5l0.2,0.1l0.8-0.1l0.5,0.1
			l0.2-0.2l0.5-0.2h0.5l0.2,0.1l1.3-0.7l0.7-0.7l0.2-0.5l0.4-0.3v-0.3l0.1-0.2l0.3-0.4l-0.2-2.5l-1.5-1.8l-0.2-0.1l-0.8-0.5
			l-0.5,0.1L25,43l0-0.4h-0.2v0.5l-0.5-0.2l-0.4,0.2l-0.5-0.2l-1,0.1L22,42.9l-0.5,0.2L21.3,43l-0.6,0l-0.2,0.1L20,42.7l-0.3,0.2
			l-0.3-0.1L18.5,43l-1,0l-0.6,0.9v2.8l0.2,0.5L17,47.9v3l1,0.5l0.9-0.1l0.5,0.1l0,0.2l0.1,0.2l0.4-0.4l0.2,0.1l0.1-0.2l0.2-0.1h0.6
			l0.3-0.1l0.4,0.2l0.5,0l0.2-0.2L22.4,51.5z M17.1,53.2l0,0.2l0.2,0l0-0.2l-0.2-0.1L17.1,53.2z M17.1,37.6h0.2l0.1-0.2l-0.2-0.1
			L17.1,37.6z M17.4,57.2h-0.2v0.2h0.2V57.2z M17.7,55.8h-0.2V56l0.2,0V55.8z M17.8,41.6l0.1,0.1l-0.1-0.3L17.8,41.6z M18.8,56.9
			l0.1-0.2l-0.1-0.2l-0.2,0l-0.1,0.2l0,0.2l0.2,0.1L18.8,56.9z M18.5,39.6l0,0.2l0.2,0l0.1-0.2l-0.2-0.3L18.5,39.6z M18.9,56
			l0.2-0.3L19,55.4l-0.2-0.1l-0.1,0.1l0,0.5H18.9z M18.9,54.5l0.2,0l0.1-0.2l-0.3-0.1V54.5z M20.1,37.9l-0.2,0l0.1,0.3l0.2,0.2
			l0.1-0.4L20.1,37.9z M20.5,40.4l-0.2,0l0.2,0.5l0.4-0.2v-0.3l-0.1-0.2L20.5,40.4z M20.3,54.3h0.2l0-0.2l-0.2,0l-0.2,0.1L20.3,54.3
			z M20.6,42.3l-0.1,0.2h0.2v-0.2H20.6z M20.7,57.4h-0.1v0.1h0.1V57.4z M20.8,39.8l0.2,0.1l-0.2-0.2V39.8z M21.4,55.8l0.2-0.1l0-0.2
			h-0.7l0.3,0.5L21.4,55.8z M21.2,38.7l0.1,0.2l0.2-0.4l-0.2-0.2V38.7z M21.5,40.3l0.1,0.1l0.2,0l0.1-0.2l0-0.3l-0.3-0.1L21.5,40
			L21.5,40.3z M21.5,41.2h0.2l-0.1-0.3L21.5,41.2z M22,57.2l0-0.2l-0.2-0.2l-0.2,0.1l0.1,0.5l0.1,0.2L22,57.2z M22.3,56.2v-0.2h-0.2
			v0.2H22.3z M22.5,58.9l-0.2,0v0.2h0.2L22.5,58.9z M22.5,36.8L22.4,37l0.3,0l0.1-0.2L22.5,36.8z M22.6,54.6l0.3-0.3L23,54l-0.1-0.2
			l-0.2-0.2l-0.3,0.9L22.6,54.6z M22.9,57.7h-0.2v0.2h0.2V57.7z M23.2,39.5l-0.5,0.1l0.2,0.5l0.2,0l0.2-0.4L23.2,39.5z M23.3,56.6
			l0.1-0.2l-0.2-0.3v-0.5l-0.1-0.2h-0.2v0.2l0.1,0.2l-0.2,0.9l0.3,0.1L23.3,56.6z M23.1,57l-0.2,0.2l0.2,0.1V57z M22.9,36.3h0.1
			v-0.2h-0.1V36.3z M23.5,38.1l0.2,0v-0.3l-0.3,0.1L23.5,38.1z M24.1,53.4h-0.3l0,0.2l0.2,0L24.1,53.4z M24.1,39.1v0.3h0.2l0.1-0.5
			h-0.2L24.1,39.1z M24.6,60.1l0.1-0.2l-0.2-0.1l-0.2,0.2l0.2,0.2L24.6,60.1z M24.4,56.2v0.2l0.2,0.1v-0.3L24.4,56.2z M24.6,55.2
			l0.1-0.2h-0.2l0,0.2L24.6,55.2z M24.5,57.8l0.2,0.2l0.2,0.1l0.2-0.1l-0.3-0.4l-0.2,0L24.5,57.8z M24.7,41.6l-0.2,0.2l0.2,0.1
			l0.2,0l0.1-0.2L24.7,41.6z M24.8,59l0-0.2l-0.2-0.1l-0.1,0.2l0,0.2L24.8,59z M24.9,40.7V41l0.2,0v-0.3H24.9z M25.6,54.3l-0.2,0
			l-0.2-0.2l0.1-0.2l-0.2-0.2l-0.2,0.7l0.2,0.1l0.5,0L25.6,54.3z M25.2,61.4l-0.3,0.1l0.3,0.1V61.4z M25.4,60.5l-0.2-0.2l-0.2,0
			l0.1,0.5l0.2,0.1L25.4,60.5z M25.3,40.1l0.6-0.5l-0.7,0.1L25.3,40.1z M25.4,38.6l-0.1,0.2l0.1,0.2l0.2,0.1l0.1-0.2v-0.3l-0.1-0.2
			L25.4,38.6z M25.3,52.9l0,0.2l0.1,0.1L25.3,52.9z M25.5,55.5l0.2,0.3l0.1-0.5l-0.2-0.1L25.5,55.5z M25.9,59.3l-0.2-0.1l-0.1,0.2
			l0.1,0.2l0.2,0L25.9,59.3z M25.7,62.1h-0.1v0.2h0.1V62.1z M25.8,41.4H26l0.2-0.1l0-0.2L26,41l-0.3,0.1L25.8,41.4z M25.8,54.8
			l0.2,0.1L26,54.6l-0.3-0.1L25.8,54.8z M26.3,39.9l-0.2-0.2l-0.2,0.1l0.1,0.2l0.4,0.2L26.3,39.9z M26.3,58.3l0-0.2l-0.2,0L26,58.3
			l0.2,0.2L26.3,58.3z M26.5,60.9h-0.2l-0.1,0.2h0.3L26.5,60.9z M26.5,52.8l-0.1-0.1l-0.1,0.2l0.2,0.2L26.5,52.8z M26.5,56.2
			l0.2,0.2l0.2,0L27,56l-0.5,0l-0.2,0.1L26.5,56.2z M26.7,38.2l0.2,0.1l0.2-0.1l0-0.2h-0.4L26.7,38.2z M26.9,55l-0.2,0.4l0,0.2
			l0.2,0l0.2-0.4V55H26.9z M26.8,63.7h-0.2v0.2h0.2V63.7z M26.8,54l0.1,0.2l0.2,0.1l0.1-0.5l-0.5-0.1V54z M27.1,62.9h-0.2l0.2,0.2
			V62.9z M27.1,40.6l-0.1,0.2L27,41l0.2,0.1l0.3-0.5l-0.2-0.1L27.1,40.6z M27.1,61.6l0.2,0l-0.1-0.2l-0.2,0.1L27.1,61.6z M27.3,58.2
			L27.1,58l-0.1,0.2l0.2,0.2L27.3,58.2z M27.3,56.8l0.2,0.2h0.2v-0.2l-0.3-0.2h-0.2L27.3,56.8z M27.4,53v0.3h0.2V53H27.4z
			 M27.5,40.1l0.1,0l0-0.2L27.5,40.1z M27.6,52v0.1h0.2L27.6,52z M27.8,38.9L27.7,39l0.1,0.2l0.2-0.1L28,39L27.8,38.9z M28,63.3
			l0-0.2l-0.3,0.1l0.1,0.2L28,63.3z M27.8,37.5l0.2,0v-0.2h-0.2L27.8,37.5z M28.1,62.4l0.1-0.2L28,62.1l-0.2,0l0.1,0.4H28.1z
			 M28.3,58.4l-0.2-0.2l-0.2,0l0.1,0.2L28.3,58.4z M28.1,53.8l0.2,0l0.1-0.2l-0.2-0.1l-0.2,0L28.1,53.8z M28.1,54.6l0.1,0.2l0.2-0.5
			h-0.2V54.6z M28.2,40.2l0.1,0.5h0.3l0.2-0.4l-0.1-0.2L28.3,40L28.2,40.2z M28.5,57.2l0-0.1L28.4,57v0.2H28.5z M28.9,56.2l-0.1-0.2
			l-0.2,0l0,0.3l0.2,0.2L28.9,56.2z M28.7,39.8l0.2,0l0-0.2h-0.3L28.7,39.8z M29.1,59.1v-0.5l-0.5,0.1l0,0.3l0.1,0.2l0.2,0.1
			L29.1,59.1z M29,60.1l-0.2-0.4h-0.2v0.4l0.2,0.2l0.2,0V60.1z M29,42.7L28.7,43l0.3,0.3l0.2-0.3v-0.3L29,42.7z M29,51.4h0.1
			L29,51.3L29,51.4L29,51.4z M29.4,52.9l-0.1-0.2l-0.2,0l0.1,0.2l0.2,0.2l0.2,0L29.4,52.9z M29.4,57.8l-0.2-0.1l-0.2,0l0.1,0.2
			l0.2,0.1L29.4,57.8z M29.6,61.8l0-0.4l-0.4,0.1v0.2l0.4,0.3L29.6,61.8z M29.7,39.5l-0.3,0.1l-0.1,0.2l0.4,0.3l0.2,0.1v-0.6
			L29.7,39.5z M29.5,54v-0.2h-0.2V54H29.5z M29.8,55.4l-0.3-0.1l-0.1,0.2l0.1,0.3h0.3l0.2-0.2L29.8,55.4z M29.8,41.2l0-0.2l-0.2-0.1
			l0,0.4L29.8,41.2z M29.9,56.5h-0.4l0,0.2l0.2,0L29.9,56.5z M29.6,47.1v0.2l0.2,0.1L29.6,47.1z M30.2,42.3l-0.3,0.1l-0.2,0.2
			l0.3,0.2l0.2,0l0.2-0.5L30.2,42.3z M30.2,54.5v-0.2l-0.3,0.1L30.2,54.5z M30.4,50.6H30l0,0.3l0.2,0L30.4,50.6z M30.3,62.8l0.2-0.2
			l0-0.3l-0.2,0.1L30,62.8L30.3,62.8z M30.6,45.5l0.2-0.2l0.1-0.2l-0.3-0.3l-0.2,0l0.1,0.5l-0.2,0.2L30.6,45.5z M30.5,43.7v0.2
			l0.2,0.1l0.1-0.2l0-0.2l-0.2-0.1L30.5,43.7z M30.9,48.1L31,48v-0.2l-0.2,0.1l-0.1,0.2L30.9,48.1z M30.7,39.3v0.2l0.2-0.1l0-0.2
			l-0.2-0.1L30.7,39.3z M31,46.5v-0.2h-0.2v0.3L31,46.5z M31.1,42.1h0.2l0.2-0.1l0-0.3l-0.5,0l-0.2,0.2v0.3L31.1,42.1z M31.1,55
			v-0.2L30.9,55l0.1,0.2L31.1,55z M31.4,49.3l-0.2,0.2h0.3L31.4,49.3z M31.4,44.8l0.1,0.2l0.2,0.1l0.3-0.5l-0.1-0.2l-0.2,0l-0.2,0.1
			l-0.1,0.2L31.4,44.8z M31.5,45.7l-0.2-0.1v0.2h0.2L31.5,45.7z M31.9,52l0.2-0.1v-0.2h-0.3l-0.1,0.2L31.9,52z M31.8,43.3l0,0.2
			l0.2-0.1v-0.2l-0.2-0.1L31.8,43.3z M32.3,47.5l0.2-0.2l0-0.2l-0.4,0v0.5L32.3,47.5z M32.7,49.9l-0.1-0.2l-0.2,0l-0.2,0.4l0.5,0.1
			V49.9z M32.6,41.4l-0.2,0.1h0.4l0-0.2l-0.1-0.1L32.6,41.4z M33.2,43.9L33,43.8l-0.5,0.1l-0.1,0.2l0.3,0.1l0.5,0L33.2,43.9z
			 M32.5,48.4l0,0.2l0.1,0.2l0.3,0.3l0-0.2l-0.2-0.6H32.5z M33.1,52.8l0.2,0l-0.1-0.5L33,52.3l-0.1,0.5L33.1,52.8z M32.9,51.2l0,0.2
			l0.2-0.2L33,51.1L32.9,51.2z M33,42.9v0.2h0.3l0-0.3L33,42.7L33,42.9z M33.3,48l-0.2,0v0.2h0.2L33.3,48z M33.5,45.6l0.2,0.2l0.2,0
			l-0.2-0.2l0-0.3l-0.2-0.1l-0.2,0.5L33.5,45.6z M33.6,46.9v-0.3h-0.2l-0.1,0.2l0.1,0.2L33.6,46.9z M33.9,43.6l0.2,0l-0.3-0.2
			L33.9,43.6z M34.1,48.2l-0.2-0.2l-0.1,0.2l0.2,0.1L34.1,48.2z M35,46.3l-0.2-0.1l-0.1,0.2l0.2,0.1L35,46.3z"/>
		<path class="st17" d="M70.8,38.8l0.2,0.4l0,0.5l-0.2,1.2l0.3,0.6l-0.4,1.4l-0.4,0.5l-0.9,0.2l-0.5-0.2l-0.2,0.1l-0.5,0.1L67,43.6
			l-0.7,0.1l-0.7-0.1h-1l-0.5-0.1l-0.2,0.1l-0.1,0.1l-0.4-0.2l-1.1,0.1L62,43.2l-0.1,0.3l-1.9,0l-1.7,0.1L58,43.6l-0.5-0.3l-1.2,0.2
			l-0.2,0.1L56,43.1l-0.5,0.5L55,43.8l-0.3,0.5l-0.2,0.2v0.7l-0.2,0.4l0.1,0.2l0,0.5l0.1,0.2l-0.2,0.2l0,0.3l0.6,1l0.2,0.3l0.5,0.1
			L56,48h1l0.2-0.1l0.2,0.1l1-0.1l0.3,0.2L59,48l0.7,0l0.2-0.1l0.5,0.3l0.2-0.1l0.1,0.2l0.2,0L61,48l0.9,0l1,0.2l0.2-0.1l0.1-0.2
			l1.5,0.1l0.4,0.1l0.7-0.2l1.7,0.2l0.5,0.5l0,0.3l0.1,1.6L68,50.9l-0.2,0.4l0.1,0.2l0.3,0.3v0.3l-0.2,0l-0.2-0.1l-0.2,0l0.2,0.4
			v0.3l0.2-0.1l0.1,0.1l0.1,1.3l-0.4,0.2l0.1,0.2l-0.1,0.5l-0.3,0.4l-0.2,0l-0.2-0.1l0.2-0.2l-0.1-0.2l-0.4,0.5l-0.2,0l-0.4-0.2v0.3
			l-1.1,0l-1-0.2l-0.5,0.2l-1,0l0.2-0.5l-0.2,0.1l-0.3,0.5l-0.6-0.2l-0.2,0.1l-0.3-0.1L61,55.4l-0.2,0.2l-1,0.1l-0.2-0.5l-0.2-0.1
			l-0.1,0.2l0.1,0.2l-2.1,0.1l-0.9,0l-0.5-0.2l-0.5,0.2l-0.9,0.9v1.9l0.2,0.5l0.3,0.5l1,0.1l0.4,0.1l0.5-0.1h1.4l0.2-0.1l0.2,0.1
			l0.3,0.3l0.2-0.1l0.1-0.2h0.2l0.2,0.2l0.5-0.2h1.1l0.7,0.2l0.2,0l0.1-0.2l0.2,0l0,0.2l0.1,0.1l0.5,0.2l0-0.2L63,59.7l0.2-0.1
			l0.2,0l0.5,0.3l0.2,0.2l0.2-0.1l0.1-0.2l0.5,0.1l0.9-0.2l0.5,0v0.3l0.2,0.2l0.2-0.4l0.7,0.2l0.4-0.3l0.6-0.2l0.5,0.2h0.2l0.2-0.1
			l1.1,0.3l0.3,0.7l0.2,0.2l-0.1,0.4l0.1,0.7l0.1,0.2l0.2,0.1l-0.1,0.5l-0.2,1.6l-0.1,0.2l0.3,0.5l0,0.2l-0.2,0.4l0.3,0L71,66.3
			l-0.1,0v0.2l0.1,0.2l-0.1,0.2l-0.8,0.5L70,67.7l-0.2,0l-0.8,0.2l-1-0.2l-0.5,0.1L67,67.7l-0.2,0.1l-0.8,0l-0.2,0.1L65.5,68
			l-1.1-0.5l-0.2,0.1l-0.1,0.2l-0.6,0l-0.4-0.2l-0.3,0.1h-0.2l-0.7-0.2l-0.2,0l0-0.2l-0.2-0.1l-0.1,0.2l0.1,0.2l-0.5,0l-1.5-0.1
			l-0.5,0l-0.5,0.2l-0.2-0.1l-0.3-0.2l-0.1,0.2l-0.4,0.2l-0.5-0.1l-0.7,0l-0.2-0.1l-0.2,0.1l-1.1,0.1L54.5,68l-0.6-0.2l-0.3,0.1
			l-1-0.1l-0.2,0.1l-0.4-0.4l-0.3,0.4l-1-0.1l-0.7,0.1l-0.7-0.1l-0.4,0.1L48.6,68l-0.5-0.1l-0.3-0.2L47,67.8l-0.4-0.2l-0.4-0.3
			L46,66.9l0.1-0.2l0.2-0.1l-0.1-0.2l-0.2,0L46,66.1l0.3-0.1l0-0.5l-0.3-1l0-0.4l0.1-0.2L46,63.3l0.1-0.4L46,61.4l0.2-1v-0.5
			l-0.1-0.2l0.2-0.3L46,58.9l0.2-0.2L46,58.5L45.9,58l0.2-0.5v-0.2l0.6-0.1L46.1,57l0-0.5l0.1-0.2l0.1-0.1L46,55.7l0.1-0.2l0.4-0.2
			L46,55v-0.3l0.3-0.6L46,53.8l0-0.5l0.1-1L46,52v-2.4l0.1-0.4l-0.2-1.5l0.2-0.4v-0.7l0.2-0.2L46,45.3l0-0.2l0.2-0.1l0.2,0.2
			l-0.1-0.5l-0.3-0.3l0-0.5l-0.2-0.5l0.2-0.5L46,42.3l0.1-0.2L46,41.7l0-0.5l0.2-0.4l-0.2-0.7l0.1-1.5L46,38.4L46,38v-1.1l0.2-1
			l0.2-0.4l0.2-0.1l3.7-0.1l0.5,0.3l0.1-0.2l0.2-0.1l0.5,0.1l0.1,0.1l1.3-0.3l0.3,0.1l0,0.2h0.3l0.1-0.2l0.2-0.1l0.6,0.1l0.5,0.3
			l0.1-0.3h3.1l0.7,0.2l0.3-0.2l0.5,0.1l1-0.1l0.5,0l0.2,0.1l0.9-0.2l2.1,0l1.5-0.1l0.5,0.1l0.9-0.2l0.5,0.1l0.7,0.2l0.3-0.1h1
			l1.2,0.5l0.2,0.9l0.1,1.5l-0.2,0.4L70.8,38.8z M46.5,58.3l0-0.3l-0.1,0.2L46.5,58.3z M46.5,65.4h0.2v-0.2h-0.2V65.4z M47,59.6
			l0-0.3l-0.1-0.1l-0.2,0l0.2,0.4L47,59.6z M47.1,42.8l0.2,0.1l-0.2-0.2V42.8z M47.6,62.1l0-0.2l-0.2-0.1l-0.1,0.2l0.2,0.2
			L47.6,62.1z M47.5,44.2l0,0.4l0.2-0.1l0.1-0.2l-0.2-0.1L47.5,44.2z M47.5,45.8l0.3-0.1l-0.3-0.2V45.8z M47.6,39.9h0.2v-0.2h-0.2
			V39.9z M47.6,48.7l0.3-0.1l0.1-0.2l0-0.3L47.9,48l-0.2,0.4L47.6,48.7z M47.6,64.8l0.3,0.2l0-0.4l-0.1-0.1l-0.2,0.2L47.6,64.8z
			 M47.8,56.4l0.2-0.1l0.1-0.2l0-0.4l-0.3,0.1L47.7,56l0,0.2L47.8,56.4z M47.9,43.6l0.2,0l0.1-0.1L48,43.3L47.9,43.6z M48,47.6
			l0.2-0.1v-0.2L48,47.3V47.6z M48,51.6l0.4,0l0.2-0.5l-0.2,0L48,51.4L48,51.6z M48,60.1h0.2v-0.2H48L48,60.1z M48.3,58.9l0.1-0.4
			l-0.1-0.2l-0.2,0L48,58.5l0.1,0.3L48.3,58.9z M48,54.1h0.1V54H48V54.1z M48.4,42.5l-0.2,0.1l0.1,0.1L48.4,42.5z M48.5,41.7l0-0.2
			l-0.2,0L48.5,41.7z M48.5,54.3l0.3-0.1l0-0.2l-0.1-0.1L48.4,54L48.5,54.3z M48.6,61.9H49l-0.2-0.6l0.1-0.2L48.6,61l-0.2,0.2l0,0.5
			L48.6,61.9z M48.5,57l0.4,0.1l0.2-0.1v-0.4l-0.3,0l-0.2,0.1L48.5,57z M48.5,45.1l0.1,0.2l0.5,0.2L49,45.2L48.8,45L48.5,45.1z
			 M48.9,49.2v-0.1h-0.2L48.9,49.2z M48.8,44.1l0.4-0.2l0.1-0.2l-0.1-0.2l-0.3,0l-0.1,0.4L48.8,44.1z M48.7,55.6l0.4,0.1l0-0.2
			l-0.2-0.1L48.7,55.6z M48.9,39.4h0.2v-0.2l-0.1-0.1L48.9,39.4z M48.9,36.6l0.2,0.1L49,36.4L48.9,36.6z M48.9,59.6l0.4,0.2l0.3,0
			l0.1-0.2v-0.2l-0.2-0.2l-0.4,0L49,59.3L48.9,59.6z M49.3,64.5l-0.1-0.5l-0.3-0.1v0.4l0.1,0.2L49.3,64.5z M49,48.1h0.4l-0.1-0.3
			L49,47.7V48.1z M49.4,38.4v-0.6h-0.2l0,0.2l0.1,0.2L49.4,38.4z M49.2,46.9l0.2,0.2h0.2l0.1-0.2l-0.2-0.2v-0.2h-0.2l0,0.2
			L49.2,46.9z M49.2,51.1L49.2,51.1l0.5-0.2v-0.2h-0.3l-0.1,0.2L49.2,51.1z M49.3,63.5l0.3-0.1l-0.1-0.2l-0.2-0.1l-0.1,0.2
			L49.3,63.5z M49.3,41.9l0.1,0.5l0.2,0.1l0.2,0l0.1-0.6l-0.2-0.1h-0.2L49.3,41.9z M49.3,43.4h0.2l-0.1-0.3L49.3,43.4z M49.9,49.2
			L49.7,49l-0.2,0.1l-0.1,0.2v0.2l0.1,0.2l0.2,0.1l0.1-0.5L49.9,49.2z M49.5,53.8l0.2,0.1l0.1-0.4l-0.2,0.1L49.5,53.8z M49.6,62.4
			l0.5,0.1l-0.2-0.4L49.7,62l0,0.2L49.6,62.4z M49.8,40.9l-0.1-0.1L49.8,40.9z M49.9,57.6v-0.2h-0.2L49.9,57.6z M49.7,44.8l0.2,0.2
			l0.5-0.6l-0.2,0l-0.2,0.1l-0.2,0.2L49.7,44.8z M49.9,52.4l0.1-0.3l-0.2-0.1l-0.1,0.2L49.9,52.4z M49.9,61.6l0.2-0.1L50,61.1l0-0.3
			l-0.3-0.2l-0.1,0.2l0.2,0.4V61.6z M49.9,36.4l0.2-0.1v-0.2h-0.2V36.4z M50.5,56.6l-0.1-0.2l-0.4-0.2l0.1,0.2l0.2,0.2L50.5,56.6z
			 M50,52.8h0.1v-0.2H50V52.8z M50.1,63.8l0.4,0.2l0.1-0.2v-0.5l-0.1-0.2l-0.2,0l-0.2,0.3V63.8z M50.5,40.2L50.4,40l-0.2-0.1l0,0.2
			l0.2,0.2H50.5z M50.1,60.4l0.2,0.1l0.1-0.2v-0.3l-0.2,0l-0.1,0.2L50.1,60.4z M50.6,38.9l-0.1-0.2l-0.2,0l-0.1,0.2l0,0.1L50.6,38.9
			z M50.2,50.2l0.2,0.2l0.3,0l0.1-0.2l-0.4,0L50.2,50.2z M50.3,47.2l0,0.3l0.2,0.1l0.2-0.1l-0.1-0.3L50.3,47.2z M50.7,46.2l0.2-0.3
			l-0.3-0.1l-0.2,0.1V46L50.7,46.2z M51,41.9l0.4-0.4L51,41.3h-0.3l-0.2,0.1v0.4l0.2,0.1H51z M51,49.5l0.1-0.4v-0.5l-0.3-0.1l-0.2,0
			l-0.1,0.1v0.2l0.2,0.5L51,49.5z M50.7,54.6l0.2-0.1l0-0.3h-0.2l-0.1,0.2L50.7,54.6z M51.1,61.8l-0.2-0.1l-0.3,0l0.1,0.3h0.2
			L51.1,61.8z M50.7,38h0.2v-0.2h-0.2V38z M50.9,53l0.1,0.5l0.2-0.1l0.1-0.2l0-0.2H51L50.9,53z M51.5,44.6l0.1-0.2l-0.1-0.2
			l-0.2-0.2h-0.4l0.3,0.4L51.5,44.6z M50.9,51.4l0,0.3l0.2,0.2v0.3l0.2-0.1l0.1-0.2v-0.3l-0.1-0.2h-0.3L50.9,51.4z M50.9,60.6l0.2,0
			l0.1-0.1l0-0.2l-0.2,0l-0.1,0.1V60.6z M51.2,40.3l0.1-0.2L51,40v0.2L51.2,40.3z M51.1,35.7l0.3,0l-0.2-0.2L51.1,35.7z M51.4,39.8
			l0.1-0.2l-0.3-0.1L51.4,39.8z M51.2,63l0.3,0.5l0.2,0.1l0.1-0.2v-0.5l-0.2-0.1h-0.2L51.2,63z M51.3,43.1l0.2-0.1v-0.2l-0.2-0.1
			V43.1z M51.5,47.2l0.3-0.4l0-0.2l-0.2-0.2l-0.3,0.4L51.5,47.2z M51.7,56l0.2-0.1v-0.3l-0.2-0.1h-0.3l0.1,0.3L51.7,56z M51.5,38.7
			l0.2-0.1l0-0.3l-0.2-0.1l0,0.2V38.7z M51.7,51.1v-0.3l-0.2,0.1V51L51.7,51.1z M51.5,58.8l0.5-0.2l0.1-0.2l-0.2-0.1l-0.2,0.1
			l-0.1,0.2L51.5,58.8z M51.9,49.6l-0.1,0.1l-0.1-0.1h-0.2l0.1,0.2l0.2,0l0.2-0.1L51.9,49.6z M51.8,54.4l-0.2-0.1l0.1,0.2L51.8,54.4
			z M51.5,55h0.2l-0.1-0.2l-0.2-0.1V55z M51.6,65.5l0,0.2l0.2,0.2l0.2,0l0.2-0.3l-0.1-0.2l-0.2,0L51.6,65.5z M52.1,46.1l0-0.6
			l-0.2-0.2l-0.2,0.2v0.2l0.1,0.2L52.1,46.1z M51.9,48.6l0.3-0.1l0.2-0.5l-0.2-0.2L52.1,48l-0.2,0.4L51.9,48.6z M52.1,54v-0.2
			l-0.2-0.1v0.2L52.1,54z M52.1,61.6l0.1-0.2l0.4-0.2l-0.5,0l0,0.2L52.1,61.6z M52.5,52.6l0-0.5l-0.3,0l-0.1,0.1l0.2,0.3H52.5z
			 M52.2,39.8l0.1-0.2l-0.2-0.1l0,0.2L52.2,39.8z M52.5,41.4l0.1-0.2l-0.1-0.2l-0.2-0.1l-0.1,0.2v0.2l0.1,0.2L52.5,41.4z M52.3,51.4
			l0.2-0.1l0.1-0.1l0.1-0.2l-0.4-0.2l-0.1,0.4V51.4z M52.5,65.1v-0.2L52.3,65L52.5,65.1z M52.8,40.4l-0.1-0.2l-0.2-0.1l0,0.3H52.8z
			 M52.5,44.1l0.4-0.2v-0.3l-0.1-0.1l-0.2,0l-0.1,0.4L52.5,44.1z M52.5,55.6l0.2-0.2l0-0.3l-0.2,0l-0.1,0.2L52.5,55.6z M52.5,54h0.2
			l-0.1-0.3l-0.1,0.2L52.5,54z M52.6,64.1l0.3-0.1l0.1-0.2l-0.2,0l-0.2,0.1L52.6,64.1z M52.6,62.8l0.3,0.2l0.1-0.2v-0.3l-0.2-0.2
			l-0.2,0.2L52.6,62.8z M52.7,54.5l0.2-0.1l0.1-0.2h-0.2L52.7,54.5z M52.8,49.3h0.3l0.2-0.1l-0.1-0.3l-0.3,0.2L52.8,49.3z
			 M52.8,38.1H53l0-0.2l-0.2-0.1V38.1z M53.1,40.7l0.2-0.1l0.1-0.3h-0.5l0,0.3L53.1,40.7z M53,45.2h0.1l0.1-0.1L53,45V45.2z
			 M53.2,53.3l0.1-0.3H53l0,0.2L53.2,53.3z M53,65.1l0,0.3l0.1,0.2l0.2,0l0.1-0.2l0-0.3h-0.3L53,65.1z M53.5,48l0-0.2l-0.1-0.2
			l-0.2-0.1h-0.2l0.1,0.5L53.5,48z M53.2,37.3L53.1,37l0,0.2L53.2,37.3z M53.1,52.1l0.3,0l0.2-0.1l-0.1-0.2l-0.4-0.1L53.1,52.1z
			 M53.5,50.6h0.4v-0.4l-0.2-0.1l-0.2,0.1l-0.1,0.2L53.5,50.6z M53.5,43.4l0.4,0.1l0.1-0.1v-0.3L53.6,43l-0.1,0.2L53.5,43.4z
			 M53.6,54.7l0.1,0.3l0.2,0.1l0.1-0.4l-0.2,0L53.6,54.7z M53.7,39l0.3-0.1l0.1-0.2l-0.2-0.1l-0.1,0.1L53.7,39z M53.9,63.6v-0.3
			l-0.2,0.2L53.9,63.6z M53.8,53.1l0.2,0.4v0.3l0.2-0.1l0-0.2l-0.1-0.2L54,53L53.8,53.1z M53.8,62l0.1,0.2h0.3L54.1,62L53.8,62z
			 M53.9,42.6h0.2l-0.2-0.2V42.6z M54.3,49.7L54,49.7l0.1,0.2L54.3,49.7z M54.1,37.6l0.2,0l0.1-0.2l-0.2,0L54.1,37.6z M54.1,64.8
			l0.6,0.2l0.1-0.5l-0.2-0.1l-0.4,0.2L54.1,64.8z M54.2,41.2l0.2,0.2l0.1-0.2H54.2z M54.4,52.5h0.2l0-0.2l-0.2-0.1V52.5z M55.1,50.4
			v-0.3h-0.3l0,0.2L55.1,50.4z M55.1,38.3v-0.1h-0.2L55.1,38.3z M55.1,52.6l0.3,0.3l0.1,0.2l0.1-0.2v-0.3l-0.4-0.1L55.1,52.6z
			 M55.3,42l-0.1-0.3l0,0.2L55.3,42z M55.6,65.5l0.1,0.2h0.2l0.1-0.2L55.6,65.5z M55.9,42.1l0.1,0.2l0.2,0l0.1-0.2l-0.2-0.2
			L55.9,42.1z M56.1,67.1v-0.3L56,66.7v0.3L56.1,67.1z M56.5,49.5l0-0.2h-0.2l0.1,0.3L56.5,49.5z M56.4,52.3l0.3,0.4l0.2,0l0.2-0.4
			L56.7,52l-0.2,0.1L56.4,52.3z M56.8,39.1l0.2,0l0.1-0.1h-0.2L56.8,39.1z M57.1,50.5l0.4-0.2l0-0.2l-0.3,0.2L57.1,50.5z M57.5,53.2
			l0.3,0.2l0-0.3L57.7,53L57.5,53.2z M57.7,51.6l0.3,0.5l0.2-0.2l0.1-0.2l-0.5-0.1L57.7,51.6z M57.7,64.8l0.2-0.1l-0.2-0.1V64.8z
			 M58.4,51.2v-0.3l-0.2,0.2L58.4,51.2z M58.2,49.9l0.2-0.1l-0.2-0.1V49.9z M58.6,63.3l-0.1-0.2h-0.3l0,0.2l0.2,0L58.6,63.3z
			 M58.7,41.2H59L58.9,41l-0.2-0.1L58.7,41.2z M58.7,52.5l0.1,0.2l0.2,0.1l0.2-0.2v-0.2L59,52.5L58.7,52.5z M58.8,51.4l0.3,0.2h0.2
			l-0.1-0.2v-0.3L59,51l-0.1,0.2L58.8,51.4z M59.2,64.3h0.3V64l-0.2,0L59.2,64.3z M59.9,54.4l0.1-0.2l-0.3-0.4l0,0.5L59.9,54.4z
			 M59.6,66.7l0.2,0.1l-0.2-0.2V66.7z M60.1,52.1l0.2,0.1l0.2-0.1l0.1-0.2l-0.2,0l-0.2,0.1L60.1,52.1z M60.6,51.1l0-0.2l-0.2-0.2
			v0.3L60.6,51.1z M60.7,53.3l0.3,0.1v-0.2l-0.2,0L60.7,53.3z M61.6,51.4h0.2l-0.1-0.2L61.6,51.4z M62,50.4l-0.2-0.2l0,0.3L62,50.4z
			 M61.8,54.2l0.2,0.1l0.1-0.2h-0.2L61.8,54.2z M62.2,63.1l0.1-0.2L62,62.7l0,0.3L62.2,63.1z M62.4,53.2l0.1-0.2l0-0.2l-0.2-0.1
			l-0.2,0.2l0.1,0.2L62.4,53.2z M62.3,64.3v0.2l0.3,0l0.2-0.2l-0.2-0.2L62.3,64.3z M63,39.9l-0.1-0.2l-0.4-0.2l0.1,0.2l0.2,0.1
			L63,39.9z M62.8,51.1l0.2,0l0.1-0.1l-0.2-0.1L62.8,51.1z M63.2,67.2L63,67.1h-0.2l0.1,0.2L63.2,67.2z M63.4,49.4l0.2-0.1l-0.2-0.1
			V49.4z M64,66.7h0.2l0.1-0.2l-0.3,0V66.7z M64.2,37.3h0.2v-0.1h-0.2V37.3z M64.2,53.1l0.2,0L64.2,53V53.1z M64.4,61.9h0.2
			l-0.2-0.2V61.9z M64.9,52.1l0.1-0.3h-0.2v0.2L64.9,52.1z M65.2,63.6l0-0.2L65,63.2l0,0.2L65.2,63.6z M65,66l0.1,0.2h0.3v-0.3h-0.2
			L65,66z M65.8,60.2l0.1-0.1l0-0.2L65.7,60L65.8,60.2z M66,52.7l0.1-0.2h-0.2L66,52.7z M66,51.7h0.2v-0.1H66V51.7z M66.3,65.5
			l0.2,0.1l0.2-0.1l0-0.2h-0.3L66.3,65.5z M66.6,60.8l0-0.2l-0.2,0L66.6,60.8z M67.2,66.3h0.2v-0.2h-0.2V66.3z M67.9,64h0.2
			l-0.2-0.2V64z M68.1,63l0.2-0.1l-0.2-0.1V63z M68.1,60.1h0.2l0.1-0.2l-0.2-0.1V60.1z M68.5,66.8l0-0.2l-0.2-0.1v0.2L68.5,66.8z
			 M68.9,64.5l0.2-0.3l-0.2,0l-0.1,0.2L68.9,64.5z M69.4,63.5h0.1l-0.1-0.2L69.4,63.5L69.4,63.5z M70.5,63.1h0.2v-0.2h-0.2V63.1z"/>
		<path class="st17" d="M87.2,35.4l0.5-0.2h1l0.6,0.2l0.2-0.1l0.2,0.1l0.1,0.2l0.1-0.2l0.2-0.1l0.5,0l0.4,0.2l0.2-0.1l0.5,0l0.8,0.1
			l0.4-0.1l0.5,0.2l1-0.2h0.9l1.3,0.2l0.4-0.2h0.2l1.1,0.5l0.4-0.2l0.5,0l0.4,0.3l0.5,0l0.3,0.2l0.1,0.2l0.5-0.2l0.6,0.5l0.1,0.3
			l0.5-0.3l0.2,0.4l0.5-0.1l0.1,0.2v0.2l0.3,0l0.4,0.1l0.8,0.5l0.2,0v0.4h0.4l1.7,1.4l0.2,0.5l1,1.2v0.3l0.3,0.4l1.1,2l-0.1,0.2
			l0.2,0.2l0.4,0.9l0.2,0.2l0,0.5l0.1,0.5l0.2,0.4l-0.1,0.2l0.1,0.6l-0.1,0.2l0.3,0.9l0.1,2.1l0.1,0.2l-0.1,0.5l0.1,0.4v0.5
			l-0.2,0.4l0.1,0.5l-0.1,1l-0.2,1l-0.1,0.8l-0.4,0.4l0,0.3l-0.2,0.5l0,0.3l-0.6,0.2l0.1,0.2l0.4,0.2l-0.5,0.2l0.1,0.3v0.2l-0.5,0.8
			l-0.1,0.5l-0.2,0.2l-0.3,0.1l0.1,0.5l-0.4,0.5l-0.1,0.5l-0.6,0.4v0.4l-1.1,0.9l-0.2,0l-0.1,0.5l-2.7,1.9l-0.3-0.1l-0.3,0.4h-0.2
			l-0.5,0.2l-0.8,0.5l-0.8,0.1l-0.5,0.2l-0.4-0.2l-0.2,0.1l-1.5,0.2l-0.2,0.2l-0.3-0.2l-0.2,0.2h-0.8l-0.5-0.2l-0.2,0.2h-0.5
			l-0.5-0.3l-0.2,0.1l-0.1,0.2l-1.1-0.1l-0.2-0.5L93,67.8l-0.2,0.1l-0.3-0.1l-0.2-0.2l-0.5,0.2l-0.2,0l-0.2-0.2l-0.2,0.1l-0.5,0
			l-0.2,0.2l-0.6,0l-1-0.2l-0.4,0l-0.2,0.1l-0.7-0.2l-0.7,0.2l-0.1-0.3l-0.4,0.2l-0.5,0l-0.4-0.2l-0.5,0.2l-0.7-0.1l-0.5,0.1
			l-0.2,0.1l-0.2-0.2l-1.2,0l-0.2-0.2l-0.2,0.2l-0.3,0.1l-0.2-0.1l-0.4-0.6L80.7,67l-0.1-2l0.3-1.1l-0.2-0.3l0-2l0.1-1l-0.1-0.2
			l0-0.9l-0.1-0.2l0.1-0.2l0.2-0.1l-0.2-0.3v-1.1l-0.2-0.7l0.3-0.7l-0.2-0.5l0.2-0.5l-0.1-2.2l0.2-0.5l-0.2-0.3l0.1-0.2l0-0.9
			l0.1-0.2l-0.1-0.3l-0.2-0.2l0.2-1.4l-0.2-0.4l0.1-0.5l0-0.5l0.1-0.8l0.2-0.2l-0.1-0.2l-0.2-0.1l0.1-1.5l-0.1-1.4l0.1-0.2l0.2-0.1
			l-0.1-0.2l-0.2-0.1l0.1-0.2l0-1.1l0.2-0.5l-0.1-0.2v-1.7l-0.1-0.5l0.3-0.4l-0.2-0.4v-1.5L81,36l0.2,0.1v-0.2l-0.2-0.1l0.1-0.2
			l0.2-0.1l0.5-0.1l0.2,0l0.5-0.1l0.2-0.1l0.5,0.1h2.1l0.5,0.1l0.1-0.2l0.5-0.1l0.5,0l0.2,0.1L87.2,35.4z M80.9,62.9L81,63l0.2,0
			l0.1-0.2l-0.2,0L80.9,62.9z M81.1,45.6l0-0.2l-0.1,0L81.1,45.6z M81,56.6h0.2v-0.1H81V56.6z M81.2,41.8h0.2v-0.2h-0.2V41.8z
			 M81.6,67.4l-0.1-0.2l-0.2,0l-0.2,0.1l0.2,0.1L81.6,67.4z M81.6,43l-0.1-0.2l-0.2,0.1L81.6,43z M82.2,51v-0.2H82l0.1,0.2H82.2z
			 M82.2,55.1l0.2,0.1l0.2,0l-0.1-0.2l-0.2-0.1L82.2,55.1z M82.3,42.8h0.2l-0.2-0.2V42.8z M82.5,59l0.1-0.2l0-0.3h-0.2l0,0.4
			L82.5,59z M82.4,41.5l0.4-0.2l0-0.5h-0.2l-0.1,0.4L82.4,41.5z M82.4,49.9l0.1,0.2l0.2,0.1l0.2-0.1l0-0.2l-0.3-0.2L82.4,49.9z
			 M82.6,54l0-0.2l-0.3-0.1l0,0.2L82.6,54z M82.9,49.1l-0.1-0.3l-0.2-0.1l-0.1,0.2l0,0.2l0.2,0.1L82.9,49.1z M82.7,40.3l0,0.2l0.2,0
			l-0.1-0.2H82.7z M82.8,52.9l0.2,0.1l0.3,0l0-0.3l-0.2-0.1l-0.2,0.1L82.8,52.9z M82.9,51.3l0,0.5l0.2,0.1l0.1-0.2v-0.2l-0.1-0.2
			L82.9,51.3z M82.9,60.6h0.2l0.1-0.2l-0.2-0.1L82.9,60.6z M82.9,43.3l0.7,0.2l-0.1-0.3l-0.4-0.3L83,43L82.9,43.3z M83.4,50.7v-0.2
			h-0.2L83.4,50.7z M83.2,54.6h0.3l0-0.2l-0.1-0.1l0,0.2L83.2,54.6z M83.4,55.7V55h-0.2l0,0.5L83.4,55.7z M83.3,42l0.2-0.1l-0.2-0.2
			V42z M83.5,47.1l0.1-0.3l-0.1-0.2h-0.2V47L83.5,47.1z M83.5,53.5l0.4-0.1l-0.1-0.5h-0.2l-0.1,0.3L83.5,53.5z M83.5,46.1h0.2v-0.2
			h-0.2V46.1z M83.5,67.5h0.2l-0.1-0.2l-0.2-0.1V67.5z M83.6,57.6l0.2,0l0.2-0.3l-0.2-0.1l-0.1,0.2L83.6,57.6z M84.4,39.9l-0.3-0.3
			h-0.3l0,0.2L84,40l0.2,0L84.4,39.9z M83.8,58.9H84v-0.2h-0.2V58.9z M84,66.1v-0.3h-0.2V66L84,66.1z M83.9,44.9h0.2v-0.2h-0.2V44.9
			z M84.1,52.3l0.2,0l0-0.2L84.2,52L84.1,52.3z M84.5,43.6l-0.1-0.2l-0.2-0.1l-0.1,0.2l0.2,0.2L84.5,43.6z M84.4,38.5l0-0.2
			l-0.2,0.1L84.4,38.5z M84.2,51.1l0.1,0.5l0.2-0.2l0.2,0l-0.1-0.2l-0.2-0.1L84.2,51.1z M84.4,60.3l0.1-0.2l-0.4-0.2l0.1,0.3
			L84.4,60.3z M84.2,42.8l0.2,0.1l-0.1-0.2L84.2,42.8z M84.2,63.9l0.2,0.2l0.1-0.4l0.2-0.1l-0.1-0.2l-0.2,0l-0.2,0.1l0.2,0.2
			l-0.2,0.1L84.2,63.9z M84.9,41.5l-0.3-0.1l0.1,0.2L84.9,41.5z M84.5,42.4l0.2-0.2h-0.2L84.5,42.4z M84.5,46.5h0.2v-0.2h-0.2V46.5z
			 M84.5,54l0.4,0.1l0.1-0.5l-0.1-0.3h-0.2l-0.1,0.2l0,0.2V54z M84.5,54.8h0.2l0.1-0.2h-0.2L84.5,54.8z M84.6,45.3l0.3,0L85,45
			l-0.2-0.1L84.7,45L84.6,45.3z M85.2,52.9L85,52.5l-0.4-0.2l0.2,0.5l0.2,0.1L85.2,52.9z M84.9,48.4l0.2,0l0.2-0.1l0-0.2l-0.2-0.2
			H85L84.8,48l0,0.2L84.9,48.4z M84.8,57.9l0.3,0.2L85,57.8L84.8,57.9z M85,64.3l0.4,0.1l0.1-0.2l0-0.2L85.2,64l-0.2,0.2L85,64.3z
			 M85.1,39.2l0.1,0.2l0.2,0.2v-0.9L85.2,39L85.1,39.2z M85.1,56.6l0.4,0.2v-0.2l-0.1-0.2v-0.2h-0.2l-0.1,0.2V56.6z M85.4,61.4
			l-0.3-0.2l-0.1,0.2l0.2,0.2L85.4,61.4z M85.2,50.6l0.3,0.3l0.2,0l0.1-0.5l-0.4-0.2l-0.1,0.2L85.2,50.6z M85.4,51.9l0.2-0.4
			l-0.2-0.1l-0.1,0.2L85.4,51.9z M85.3,60.6h0.3l0-0.2l-0.2-0.1L85.3,60.6z M85.4,43.2h0.2v-0.1h-0.2V43.2z M85.6,41.8v0.5l0.2-0.1
			l0.1-0.5L85.6,41.8z M85.7,53.4l0.5,0.2l0.1-0.6l-0.2-0.1L86,53.1l-0.2,0.1L85.7,53.4z M85.7,54.6l0.2,0l0-0.2l-0.2-0.1l-0.1,0.2
			V54.6z M85.8,44.6l0.1,0.2l0.2,0.1l0.1-0.2L86,44.6L85.8,44.6z M86,63.1v-0.3l-0.2-0.1V63L86,63.1z M86.3,52.2L86.1,52l0-0.2
			l-0.2-0.1l0.2,0.6L86.3,52.2z M86.1,48.8l0.2-0.1l0-0.3l-0.2-0.2L86,48.5L86.1,48.8z M86.1,57.3l0.2-0.1l0.1-0.2v-0.2h-0.3l0,0.3
			L86.1,57.3z M86.1,35.7l0.3-0.1l-0.2-0.2L86.1,35.7z M86.1,54.8h0.2l-0.1-0.2L86.1,54.8z M86.1,65l0.2-0.1l0-0.3h-0.2L86.1,65z
			 M86.4,47.7l0.2-0.4l0-0.2L86.4,47l-0.2,0.5v0.2L86.4,47.7z M86.2,56.3l0.2-0.1l0.1-0.2l0-0.3l-0.2-0.1L86.3,56L86.2,56.3z
			 M86.4,43.8l0-0.2l-0.2-0.1L86.4,43.8z M86.8,63.9l0-0.2l-0.1-0.2l-0.2,0l0,0.2l0.1,0.2L86.8,63.9z M86.4,50.1l0.2,0.1l0.1,0.2
			l0.2,0l0.1-0.5l-0.3,0L86.4,50.1z M86.7,51.4l0.2-0.3L86.6,51l-0.1,0.2L86.7,51.4z M86.7,46.3l0.2,0.1l-0.2-0.2V46.3z M86.7,48.9
			h0.2v-0.2h-0.2V48.9z M87,57.7v-0.4h-0.2l0,0.2L87,57.7z M86.9,63l0.2,0l0.3-0.3l-0.2-0.2l-0.4,0.2L86.9,63z M86.9,44.2l0.2,0.1
			l0.2,0l-0.1-0.2H87L86.9,44.2z M87.2,62.1l-0.1-0.3l-0.3,0l0.1,0.2L87.2,62.1z M87.3,36.9l-0.1-0.2l-0.2,0.1L87.3,36.9z
			 M87.1,49.2l0.2,0.1L87.1,49L87.1,49.2z M87.1,52.9l0.2-0.1l0.1-0.2l-0.2,0.1L87.1,52.9z M87.3,51.9v-0.6l-0.1-0.2l-0.1,0.5l0,0.2
			L87.3,51.9z M87.3,40.4l0-0.2l-0.2-0.1v0.2L87.3,40.4z M87.1,45.4h0.2v-0.2l-0.2,0V45.4z M87.2,64.5l0.2,0.1l0.2-0.1v-0.3h-0.2
			l-0.2,0.1L87.2,64.5z M87.3,35.8l0.2,0l0-0.2l-0.2,0L87.3,35.8z M87.4,65.5l0.2-0.3h-0.2L87.4,65.5z M87.5,55.5h0.2v-0.2h-0.2
			V55.5z M87.9,46.7l-0.3-0.1l0.1,0.2L87.9,46.7z M88,38.4l0.1-0.2L88,37.9l-0.2-0.1L87.7,38l0.1,0.2L88,38.4z M88.1,67.2l0-0.2
			l-0.2-0.1l0,0.2L88.1,67.2z M87.9,42.3l0.5-0.1l0-0.2l-0.2,0l-0.2,0.1L87.9,42.3z M88.5,66.1v-0.2l-0.1-0.2l-0.2,0l0,0.3l0.2,0.2
			L88.5,66.1z M88.1,60.9l0.1,0.3l0.2-0.1l-0.1-0.2L88.1,60.9z M88.6,39.8l-0.1-0.2l-0.3,0l0.1,0.2L88.6,39.8z M88.4,44l0.2-0.1
			l0-0.2L88.4,44z M88.7,60.3h0.2l-0.2-0.2V60.3z M88.8,39l0.2,0l0.1-0.2v-0.2h-0.2l-0.1,0.2V39z M89,37.8l0.2,0.1v-0.7H89l0.1,0.4
			V37.8z M89.2,44.2v0.6l0.1,0.4l-0.2,1.2l0.1,0.5l0.1,0.2l-0.1,1.4l0.1,0.7l-0.1,0.5l0.2,1l-0.1,0.3l0.1,0.2l0,1.7l0.1,0.2
			l-0.2,0.5l0.2,0.4l0,1l0.1,1l-0.1,0.7l0.1,0.5l-0.1,0.4l0.1,1l0.5,0.9H90l0.5,0.3l0.2,0l0.5-0.2l0.9,0l0.5,0.1l1.2,0l0.2,0.2
			l0.6-0.3h0.5l0.2,0.1l0.5-0.1l1.2-0.1l1.2-0.5l0.2-0.2l0.2,0l0.7-0.3h0.3l0.3-0.5l0.9-0.9h0.4v-0.3l0.3-0.1l-0.1-0.3l0.2-0.6
			l0-0.3l0.5-0.1l0-0.3l0.1-0.4l0.4-0.6l-0.1-0.5l0.2-0.9l-0.1-0.5l0.4-1.9l0-0.7l-0.5,0l-0.1-0.5l0.1-0.8l-0.7-0.7v-1l-0.3-0.5
			l-0.5-0.2l-0.3-0.3l-0.1-0.2l-0.2-0.1l-0.5-0.6v-0.5l-0.3,0.2l-0.2,0l-1-0.3L98,43.8l-0.1-0.2h-0.7v-0.3l-0.3,0l-0.6-0.1l0.1,0.2
			l-0.1,0.2l-0.5-0.2h-1l-0.2-0.1h-0.2l-0.5,0.2l-0.4-0.2l-0.4,0.3l-0.5-0.2l-0.2,0.2l-0.3,0.1L92,43.3l-0.2,0.1h-0.7l-0.5,0.2
			l-0.4-0.4l-0.3,0.4l-0.5,0.5L89.2,44.2z M89.3,40.4l0.2,0.1l0.2-0.1l0-0.2l-0.2,0.1L89.3,40.4z M89.4,65.5l0.2-0.1l-0.2-0.1V65.5z
			 M89.6,62.1l0.2-0.1l0-0.3l-0.3-0.1l-0.1,0.2L89.6,62.1z M90,63.5l0.2-0.3L90,63.2l-0.1,0.2L90,63.5z M90,36.8L90,37l0.3,0
			l0.2-0.1l-0.5-0.2L90,36.8z M90.5,37.5l-0.2-0.3l-0.2,0l0,0.2l0.2,0.1H90.5z M90.3,39.6l0.1,0.2l0.5,0.3v-0.5l-0.3,0L90.3,39.6z
			 M90.7,41l-0.2,0.1l0.1,0.1L90.7,41z M90.7,61.3l0.2,0.1l0.1-0.2l-0.2,0L90.7,61.3z M91.1,63h0.3v-0.3l-0.2,0L91.1,63z M91.2,63.9
			l0,0.2h0.2v-0.3L91.2,63.9z M91.6,63.1h-0.3l0,0.2h0.2L91.6,63.1z M91.4,65.4l0.2,0.3l0.2,0v-0.3l0.1-0.2l-0.1-0.2l-0.2,0.2
			L91.4,65.4z M91.6,61.9h0.3v-0.3l-0.1-0.2l-0.2,0.2V61.9z M92,39.5l0.1-0.5l-0.2-0.2L91.7,39l-0.1,0.2l0.1,0.2L92,39.5z
			 M92.4,37.5l0.2-0.1l-0.2-0.1V37.5z M92.7,62.7l0.2-0.2l0-0.3l-0.1-0.1h-0.2v0.5L92.7,62.7z M92.8,41.2V41l-0.2,0.1l0,0.2
			L92.8,41.2z M93.1,65.4l0.2-0.2L93.1,65l0.1-0.3h-0.2l0,0.5L93.1,65.4z M93.4,41.6l0.1,0.2l0.2,0.1l0.1-0.1l0-0.2l-0.2-0.1
			L93.4,41.6z M93.8,62.1l0.2,0l0.2-0.5l-0.6,0.3L93.8,62.1z M93.9,40.8h0.2l0.1-0.2l-0.2,0V40.8z M94,64.7h0.2l0.1-0.1v-0.2h-0.2
			L94,64.5V64.7z M94.1,39.6l0.2,0l0.2-0.1l0.1-0.2l-0.2,0l-0.2,0.1L94.1,39.6z M94.2,38.2l0.1,0.2l0.5,0.1l0-0.3l-0.2-0.1
			L94.2,38.2z M94.9,62.5l0.2,0l0.1-0.1L95,62.3L94.9,62.5z M95.6,37.8l0.3,0.1l0.2-0.1L96,37.6l-0.2-0.1l-0.2,0.1L95.6,37.8z
			 M95.6,39.3h0.2l-0.2-0.1V39.3z M95.9,41.7l0.1,0.2l0.3,0.1l0.3,0l0.2-0.1l-0.1-0.2H95.9z M96.2,62.1h0.1V62h-0.1V62.1z
			 M96.3,40.7h0.2v-0.2l-0.2-0.2V40.7z M96.4,63.3l0.1,0.4l0.5-0.1l0.1-0.2l0-0.2l-0.4,0.1L96.4,63.3z M96.9,38.5l0.1,0.2l0.2,0
			l0-0.2l-0.2-0.1L96.9,38.5z M97,37.6l0.1,0.2h0.2l0-0.2H97L97,37.6z M97.2,39.8l0.2,0.2l0.1,0.5l0.2-0.1v-0.2l-0.3-0.4L97.2,39.8z
			 M97.2,41.4l0.2-0.1l-0.2-0.1V41.4z M98,38.2l-0.2-0.1l0.1,0.2L98,38.2z M98.5,41.9l0-0.6l-0.1-0.2l-0.2,0.5l0.1,0.2L98.5,41.9z
			 M98.3,65.5l0.1,0.1l-0.1-0.2V65.5z M98.5,39.5l0.2,0.1l0.1-0.2l-0.2-0.1L98.5,39.5z M99.2,35.8l-0.3,0.1l0.2,0L99.2,35.8z
			 M99.3,38.7L99,38.7l0.1,0.2L99.3,38.7z M99,42.1h0.2l0.1-0.2H99V42.1z M99.4,63.8v-0.2h-0.2l0,0.2L99.4,63.8z M99.5,65.1l0.2,0.1
			l0.2-0.1L99.6,65L99.5,65.1z M99.8,40.5l0-0.2l-0.2-0.1l0,0.2L99.8,40.5z M100.1,39.3l0.2-0.1l-0.2-0.1V39.3z M100.2,41.6l0.1,0.3
			l0.2-0.4h-0.2L100.2,41.6z M100.8,64.9l0.1-0.2l0-0.2l-0.3,0v0.3L100.8,64.9z M100.9,38.5l0,0.2l0.2,0.1h0.2l0-0.2l-0.1-0.2
			l-0.3,0L100.9,38.5z M100.9,43.5l0.2,0l0.1-0.1l-0.2,0L100.9,43.5z M101.2,63.4v-0.3l-0.2,0.1v0.2L101.2,63.4z M101.5,59.8
			l0.5,0.2l0-0.2l-0.1-0.2l-0.2,0.1L101.5,59.8z M101.6,40.9v0.5l0.2,0l0-0.2l-0.1-0.2L101.6,40.9z M101.6,44.1l0.3,0.1l0.2-0.1
			l0.1-0.2l-0.1-0.2l-0.2-0.1l-0.2,0l-0.1,0.2V44.1z M101.9,40.3h0.2v-0.1h-0.2V40.3z M102.3,41.9l0.2,0.2l0.2-0.5l-0.2,0.1
			L102.3,41.9z M102.3,55l0.3,0.1l-0.1-0.2L102.3,55z M102.4,58.4l0.4-0.2l-0.1-0.2l-0.3,0l-0.1,0.2L102.4,58.4z M102.7,40.8
			l0.4,0.1l0.2-0.4l-0.2-0.1l-0.2,0.1L102.7,40.8z M103.1,43.5l0.1-0.4l-0.2,0l0,0.2L103.1,43.5z M103.2,42.1l0.1-0.3l-0.2-0.1
			l-0.1,0.2L103.2,42.1z M103.2,46.1l0.1,0.1h0.5L104,46l-0.2-0.2l-0.2,0.2l-0.2-0.1L103.2,46.1z M103.4,57.2l0.2,0.4l0.3,0.2
			l0.1-0.5l-0.2-0.2l-0.2,0L103.4,57.2z M103.4,44.6l0.2,0.4l0.2,0.1l0.1-0.2l0-0.6l-0.2-0.3l0,0.2l-0.2,0.1L103.4,44.6z
			 M103.9,41.2h-0.3l0.1,0.2L103.9,41.2z M103.6,56.1l0.2,0.1l0.2-0.1l-0.1-0.4l-0.3,0.1L103.6,56.1z M103.8,40.2l0,0.2h0.2l0.1-0.2
			H103.8L103.8,40.2z M103.8,49l0.2,0.1l0.2,0l-0.1-0.2l-0.2,0L103.8,49z M104.1,43l0.2-0.1l0.2-0.5l-0.2-0.1l-0.2,0.3V43z
			 M104.2,47.6l0-0.2l-0.1-0.1L104.2,47.6z M104.4,48v-0.3l-0.2,0.1v0.2L104.4,48z M104.1,51.5h0.3l0.2,0.1l0.1-0.5l-0.2-0.1
			l-0.1,0.2L104.1,51.5z M104.6,60.4l-0.2-0.1l-0.2,0.1l0.2,0.1L104.6,60.4z M104.8,42.1l0.1-0.2l-0.1-0.5h-0.2l-0.2-0.1l0.2,0.7
			L104.8,42.1z M104.4,53.8l0.1,0.3l0.2,0.1l0.2-0.1l0.2-0.2l0-0.2l-0.2-0.2l-0.1,0.2l-0.2,0.1L104.4,53.8z M104.8,50.3v-0.4
			l-0.3-0.1l0,0.2l0.1,0.2L104.8,50.3z M104.8,46.6l-0.2,0l0.1,0.2L104.8,46.6z M105.1,53.2l0-0.3l-0.2-0.2l-0.2-0.1l0,0.3l0.2,0.2
			L105.1,53.2z M104.8,52.5h0.1v-0.2h-0.1V52.5z M104.8,56.9l0.2,0l0.1-0.1l-0.3-0.1V56.9z M105.1,44.8l0.2,0v-0.2h-0.2V44.8z
			 M105.1,48.4l0.5-0.2l-0.1-0.2l-0.2-0.1l-0.2,0.1V48.4z M105.1,55.2l0.1,0.4l0.4,0.2l0.1-0.2l-0.2-0.5l-0.2,0L105.1,55.2z
			 M105.3,43.5l0.2,0.1h0.2l-0.3-0.3L105.3,43.5z M105.4,59.6L105.4,59.6l-0.1-0.2L105.4,59.6z M105.6,42.4l0.4,0.1v-0.3l-0.2,0
			L105.6,42.4z M105.9,46.1l-0.3-0.1l0.1,0.2L105.9,46.1z M105.8,54.8h0.1l-0.1-0.2L105.8,54.8L105.8,54.8z M105.8,50.1l0.2-0.2
			l0.1-0.3l-0.1-0.2l-0.1,0.1l0,0.2V50.1z M105.8,52.2l0.5,0.5l0.2-0.6l-0.2-0.2l-0.2-0.1l-0.2,0.1L105.8,52.2z M106.1,47.5l0.1,0.2
			l0.2,0l0.2-0.1l0.1-0.2l-0.4,0L106.1,47.5z M106.2,55l0.3,0.1l0.2-0.1l0.1-0.2l-0.1-0.2h-0.2l-0.3,0.2L106.2,55z M106.3,46.3
			l0.1,0.4h0.2l0.1-0.1v-0.2l-0.2,0L106.3,46.3z M106.4,51.6l0.3,0l-0.2-0.2L106.4,51.6z M106.4,56.2h0.2l-0.1-0.2L106.4,56.2z
			 M106.5,50.4l0.2,0.2h0.2l0.2-0.2l0-0.3l-0.5,0.1L106.5,50.4z M107,57.8v-0.3l-0.1-0.2h-0.2l0,0.3L107,57.8z M106.8,48.9l0.1,0.5
			l0.3,0.3l0.1-0.6l-0.1-0.2l-0.2-0.1L106.8,48.9z M106.8,52.8l0.1,0.2l0.4,0.2l0.4-0.2l0.1-0.2l-0.2-0.2H107L106.8,52.8z
			 M106.9,45.9l0.2-0.1l-0.2-0.1V45.9z M107.1,44.7h0.3v-0.3l-0.2-0.1l-0.1,0.2V44.7z M107.2,51.6v0.2l0.2,0.2l0.3,0.1l0-0.2
			l-0.1-0.2l-0.2-0.1L107.2,51.6z M107.5,48.5v-0.2l-0.2,0L107.5,48.5z M107.6,51.1l0.2,0l0.1-0.1l-0.2-0.1L107.6,51.1z M107.8,56
			l0.2-0.5h-0.2l-0.1,0.4L107.8,56z M107.8,47.3l0.3-0.1l0.1-0.3h-0.3v0.2L107.8,47.3z M107.8,58.5l0.2,0l0.1-0.2h-0.2L107.8,58.5z
			 M107.9,49.7l0.1,0.2l0.2,0.1l0.1-0.4h-0.2L107.9,49.7z M108,54.8l0.2-0.4l-0.3-0.2l0,0.3L108,54.8z M108,45.3l0.2,0.1l0.1-0.2
			L108,45.3z M108,53.6l0.3,0.1v-0.2l-0.2,0L108,53.6z M108.5,48.6v-0.3h-0.3l0,0.2L108.5,48.6z M108.2,52.5l0.4,0.3l0.3-0.2v-0.3
			h-0.3l-0.2,0.1L108.2,52.5z M108.9,51.8l0.1-0.5l-0.2-0.1h-0.3l0.2,0.5L108.9,51.8z M108.7,55.1l0,0.3l0.3-0.1l0-0.2L109,55
			L108.7,55.1z M109,54l0.2-0.3l-0.3-0.1v0.3L109,54z M109,50.7h0.2l-0.2-0.1V50.7z M109.2,49.3l0.2,0.1l0.2-0.3l-0.3,0L109.2,49.3z
			 M109.8,48.2V48l-0.2-0.1l-0.1,0.2l0.1,0.1L109.8,48.2z"/>
		<path class="st17" d="M145.2,38.8l0.2,0.4l0,0.5l-0.2,1.2l0.3,0.6l-0.4,1.4l-0.4,0.5l-0.9,0.2l-0.5-0.2l-0.2,0.1l-0.5,0.1
			l-1.4-0.1l-0.7,0.1l-0.7-0.1h-1l-0.5-0.1l-0.2,0.1l-0.1,0.1l-0.4-0.2l-1.1,0.1l-0.3-0.4l-0.1,0.3l-1.9,0l-1.7,0.1l-0.2-0.1
			l-0.5-0.3l-1.2,0.2l-0.2,0.1l-0.1-0.5l-0.5,0.5l-0.5,0.2l-0.3,0.5l-0.2,0.2v0.7l-0.2,0.4l0.1,0.2l0,0.5l0.1,0.2l-0.2,0.2l0,0.3
			l0.6,1l0.2,0.3l0.5,0.1l0.5-0.3h1l0.2-0.1l0.2,0.1l1-0.1l0.3,0.2l0.3-0.2l0.7,0l0.2-0.1l0.5,0.3L135,48l0.1,0.2l0.2,0l0.1-0.2
			l0.9,0l1,0.2l0.2-0.1l0.1-0.2l1.5,0.1l0.4,0.1l0.7-0.2l1.7,0.2l0.5,0.5l0,0.3l0.1,1.6l-0.1,0.4l-0.2,0.4l0.1,0.2l0.3,0.3v0.3
			l-0.2,0l-0.2-0.1l-0.2,0l0.2,0.4v0.3l0.2-0.1l0.1,0.1l0.1,1.3l-0.4,0.2l0.1,0.2l-0.1,0.5l-0.3,0.4l-0.2,0l-0.2-0.1l0.2-0.2
			l-0.1-0.2l-0.4,0.5l-0.2,0l-0.4-0.2v0.3l-1.1,0l-1-0.2l-0.5,0.2l-1,0l0.2-0.5l-0.2,0.1l-0.3,0.5l-0.6-0.2l-0.2,0.1l-0.3-0.1
			l-0.1-0.2l-0.2,0.2l-1,0.1l-0.2-0.5l-0.2-0.1l-0.1,0.2l0.1,0.2l-2.1,0.1l-0.9,0l-0.5-0.2l-0.5,0.2l-0.9,0.9v1.9l0.2,0.5l0.3,0.5
			l1,0.1l0.4,0.1l0.5-0.1h1.4l0.2-0.1l0.2,0.1l0.3,0.3l0.2-0.1l0.1-0.2h0.2l0.2,0.2l0.5-0.2h1.1l0.7,0.2l0.2,0l0.1-0.2l0.2,0l0,0.2
			l0.1,0.1l0.5,0.2l0-0.2l-0.1-0.2l0.2-0.1l0.2,0l0.5,0.3l0.2,0.2l0.2-0.1l0.1-0.2l0.5,0.1l0.9-0.2l0.5,0v0.3l0.2,0.2l0.2-0.4
			l0.7,0.2l0.4-0.3l0.6-0.2l0.5,0.2h0.2l0.2-0.1l1.1,0.3l0.3,0.7l0.2,0.2l-0.1,0.4l0.1,0.7l0.1,0.2l0.2,0.1l-0.1,0.5l-0.2,1.6
			l-0.1,0.2l0.3,0.5l0,0.2l-0.2,0.4l0.3,0l-0.2,0.7l-0.1,0v0.2l0.1,0.2l-0.1,0.2l-0.8,0.5l-0.1,0.2l-0.2,0l-0.8,0.2l-1-0.2l-0.5,0.1
			l-0.4-0.2l-0.2,0.1l-0.8,0l-0.2,0.1l-0.1,0.2l-1.1-0.5l-0.2,0.1l-0.1,0.2l-0.6,0l-0.4-0.2l-0.3,0.1H137l-0.7-0.2l-0.2,0l0-0.2
			l-0.2-0.1l-0.1,0.2l0.1,0.2l-0.5,0l-1.5-0.1l-0.5,0l-0.5,0.2l-0.2-0.1l-0.3-0.2l-0.1,0.2l-0.4,0.2l-0.5-0.1l-0.7,0l-0.2-0.1
			l-0.2,0.1l-1.1,0.1l-0.2,0.1l-0.6-0.2l-0.3,0.1l-1-0.1l-0.2,0.1l-0.4-0.4l-0.3,0.4l-1-0.1l-0.7,0.1l-0.7-0.1l-0.4,0.1L123,68
			l-0.5-0.1l-0.3-0.2l-0.7,0.1l-0.4-0.2l-0.4-0.3l-0.2-0.4l0.1-0.2l0.2-0.1l-0.1-0.2l-0.2,0l-0.1-0.2l0.3-0.1l0-0.5l-0.3-1l0-0.4
			l0.1-0.2l-0.2-0.5l0.1-0.4l-0.1-1.5l0.2-1v-0.5l-0.1-0.2l0.2-0.3l-0.2-0.5l0.2-0.2l-0.2-0.2l-0.1-0.5l0.2-0.5v-0.2l0.6-0.1
			l-0.5-0.2l0-0.5l0.1-0.2l0.1-0.1l-0.3-0.4l0.1-0.2l0.4-0.2l-0.5-0.2v-0.3l0.3-0.6l-0.2-0.4l0-0.5l0.1-1l-0.1-0.4v-2.4l0.1-0.4
			l-0.2-1.5l0.2-0.4v-0.7l0.2-0.2l-0.2-0.9l0-0.2l0.2-0.1l0.2,0.2l-0.1-0.5l-0.3-0.3l0-0.5l-0.2-0.5l0.2-0.5l-0.1-0.7l0.1-0.2
			l-0.1-0.4l0-0.5l0.2-0.4l-0.2-0.7l0.1-1.5l-0.1-0.2l0.1-0.4v-1.1l0.2-1l0.2-0.4l0.2-0.1l3.7-0.1l0.5,0.3l0.1-0.2l0.2-0.1l0.5,0.1
			l0.1,0.1l1.3-0.3l0.3,0.1l0,0.2h0.3l0.1-0.2l0.2-0.1l0.6,0.1l0.5,0.3l0.1-0.3h3.1l0.7,0.2l0.3-0.2l0.5,0.1l1-0.1l0.5,0l0.2,0.1
			l0.9-0.2l2.1,0l1.5-0.1l0.5,0.1l0.9-0.2l0.5,0.1l0.7,0.2l0.3-0.1h1l1.2,0.5l0.2,0.9l0.1,1.5l-0.2,0.4L145.2,38.8z M120.9,58.3
			l0-0.3l-0.1,0.2L120.9,58.3z M120.9,65.4h0.2v-0.2h-0.2V65.4z M121.4,59.6l0-0.3l-0.1-0.1l-0.2,0l0.2,0.4L121.4,59.6z M121.5,42.8
			l0.2,0.1l-0.2-0.2V42.8z M122,62.1l0-0.2l-0.2-0.1l-0.1,0.2l0.2,0.2L122,62.1z M121.9,44.2l0,0.4l0.2-0.1l0.1-0.2l-0.2-0.1
			L121.9,44.2z M121.9,45.8l0.3-0.1l-0.3-0.2V45.8z M122,39.9h0.2v-0.2H122V39.9z M122,48.7l0.3-0.1l0.1-0.2l0-0.3l-0.2-0.1
			l-0.2,0.4L122,48.7z M122,64.8l0.3,0.2l0-0.4l-0.1-0.1l-0.2,0.2L122,64.8z M122.2,56.4l0.2-0.1l0.1-0.2l0-0.4l-0.3,0.1l-0.1,0.2
			l0,0.2L122.2,56.4z M122.3,43.6l0.2,0l0.1-0.1l-0.2-0.2L122.3,43.6z M122.3,47.6l0.2-0.1v-0.2l-0.2-0.1V47.6z M122.3,51.6l0.4,0
			l0.2-0.5l-0.2,0l-0.2,0.2L122.3,51.6z M122.3,60.1h0.2v-0.2h-0.1L122.3,60.1z M122.7,58.9l0.1-0.4l-0.1-0.2l-0.2,0l-0.1,0.2
			l0.1,0.3L122.7,58.9z M122.4,54.1h0.1V54h-0.1V54.1z M122.8,42.5l-0.2,0.1l0.1,0.1L122.8,42.5z M122.9,41.7l0-0.2l-0.2,0
			L122.9,41.7z M122.9,54.3l0.3-0.1l0-0.2l-0.1-0.1l-0.2,0.2L122.9,54.3z M123,61.9h0.4l-0.2-0.6l0.1-0.2L123,61l-0.2,0.2l0,0.5
			L123,61.9z M122.9,57l0.4,0.1l0.2-0.1v-0.4l-0.3,0l-0.2,0.1L122.9,57z M122.9,45.1l0.1,0.2l0.5,0.2l-0.1-0.3l-0.2-0.2L122.9,45.1z
			 M123.3,49.2v-0.1h-0.2L123.3,49.2z M123.2,44.1l0.4-0.2l0.1-0.2l-0.1-0.2l-0.3,0l-0.1,0.4L123.2,44.1z M123.1,55.6l0.4,0.1l0-0.2
			l-0.2-0.1L123.1,55.6z M123.3,39.4h0.2v-0.2l-0.1-0.1L123.3,39.4z M123.3,36.6l0.2,0.1l-0.1-0.2L123.3,36.6z M123.3,59.6l0.4,0.2
			l0.3,0l0.1-0.2v-0.2l-0.2-0.2l-0.4,0l-0.1,0.2L123.3,59.6z M123.7,64.5l-0.1-0.5l-0.3-0.1v0.4l0.1,0.2L123.7,64.5z M123.4,48.1
			h0.4l-0.1-0.3l-0.2-0.1V48.1z M123.8,38.4v-0.6h-0.2l0,0.2l0.1,0.2L123.8,38.4z M123.6,46.9l0.2,0.2h0.2l0.1-0.2l-0.2-0.2v-0.2
			h-0.2l0,0.2L123.6,46.9z M123.6,51.1L123.6,51.1l0.5-0.2v-0.2h-0.3l-0.1,0.2L123.6,51.1z M123.7,63.5l0.3-0.1l-0.1-0.2l-0.2-0.1
			l-0.1,0.2L123.7,63.5z M123.7,41.9l0.1,0.5l0.2,0.1l0.2,0l0.1-0.6l-0.2-0.1h-0.2L123.7,41.9z M123.7,43.4h0.2l-0.1-0.3L123.7,43.4
			z M124.3,49.2l-0.2-0.2l-0.2,0.1l-0.1,0.2v0.2l0.1,0.2l0.2,0.1l0.1-0.5L124.3,49.2z M123.9,53.8l0.2,0.1l0.1-0.4l-0.2,0.1
			L123.9,53.8z M124,62.4l0.5,0.1l-0.2-0.4l-0.2-0.1l0,0.2L124,62.4z M124.2,40.9l-0.1-0.1L124.2,40.9z M124.3,57.6v-0.2H124
			L124.3,57.6z M124.1,44.8l0.2,0.2l0.5-0.6l-0.2,0l-0.2,0.1l-0.2,0.2L124.1,44.8z M124.3,52.4l0.1-0.3l-0.2-0.1l-0.1,0.2
			L124.3,52.4z M124.3,61.6l0.2-0.1l-0.1-0.5l0-0.3l-0.3-0.2l-0.1,0.2l0.2,0.4V61.6z M124.3,36.4l0.2-0.1v-0.2h-0.2V36.4z
			 M124.9,56.6l-0.1-0.2l-0.4-0.2l0.1,0.2l0.2,0.2L124.9,56.6z M124.4,52.8h0.1v-0.2h-0.1V52.8z M124.5,63.8l0.4,0.2l0.1-0.2v-0.5
			l-0.1-0.2l-0.2,0l-0.2,0.3V63.8z M124.9,40.2l-0.1-0.2l-0.2-0.1l0,0.2l0.2,0.2H124.9z M124.5,60.4l0.2,0.1l0.1-0.2v-0.3l-0.2,0
			l-0.1,0.2L124.5,60.4z M125,38.9l-0.1-0.2l-0.2,0l-0.1,0.2l0,0.1L125,38.9z M124.6,50.2l0.2,0.2l0.3,0l0.1-0.2l-0.4,0L124.6,50.2z
			 M124.7,47.2l0,0.3l0.2,0.1l0.2-0.1l-0.1-0.3L124.7,47.2z M125.1,46.2l0.2-0.3l-0.3-0.1l-0.2,0.1V46L125.1,46.2z M125.4,41.9
			l0.4-0.4l-0.4-0.2h-0.3l-0.2,0.1v0.4l0.2,0.1H125.4z M125.4,49.5l0.1-0.4v-0.5l-0.3-0.1l-0.2,0l-0.1,0.1v0.2l0.2,0.5L125.4,49.5z
			 M125.1,54.6l0.2-0.1l0-0.3h-0.2l-0.1,0.2L125.1,54.6z M125.5,61.8l-0.2-0.1l-0.3,0l0.1,0.3h0.2L125.5,61.8z M125.1,38h0.2v-0.2
			h-0.2V38z M125.3,53l0.1,0.5l0.2-0.1l0.1-0.2l0-0.2h-0.2L125.3,53z M125.9,44.6l0.1-0.2l-0.1-0.2l-0.2-0.2h-0.4l0.3,0.4
			L125.9,44.6z M125.3,51.4l0,0.3l0.2,0.2v0.3l0.2-0.1l0.1-0.2v-0.3l-0.1-0.2h-0.3L125.3,51.4z M125.3,60.6l0.2,0l0.1-0.1l0-0.2
			l-0.2,0l-0.1,0.1V60.6z M125.6,40.3l0.1-0.2l-0.3-0.1v0.2L125.6,40.3z M125.5,35.7l0.3,0l-0.2-0.2L125.5,35.7z M125.8,39.8
			l0.1-0.2l-0.3-0.1L125.8,39.8z M125.6,63l0.3,0.5l0.2,0.1l0.1-0.2v-0.5l-0.2-0.1h-0.2L125.6,63z M125.7,43.1l0.2-0.1v-0.2
			l-0.2-0.1V43.1z M125.9,47.2l0.3-0.4l0-0.2l-0.2-0.2l-0.3,0.4L125.9,47.2z M126.1,56l0.2-0.1v-0.3l-0.2-0.1h-0.3l0.1,0.3L126.1,56
			z M125.9,38.7l0.2-0.1l0-0.3l-0.2-0.1l0,0.2V38.7z M126.1,51.1v-0.3l-0.2,0.1V51L126.1,51.1z M125.9,58.8l0.5-0.2l0.1-0.2
			l-0.2-0.1l-0.2,0.1l-0.1,0.2L125.9,58.8z M126.3,49.6l-0.1,0.1l-0.1-0.1h-0.2l0.1,0.2l0.2,0l0.2-0.1L126.3,49.6z M126.2,54.4
			l-0.2-0.1l0.1,0.2L126.2,54.4z M125.9,55h0.2l-0.1-0.2l-0.2-0.1V55z M126,65.5l0,0.2l0.2,0.2l0.2,0l0.2-0.3l-0.1-0.2l-0.2,0
			L126,65.5z M126.5,46.1l0-0.6l-0.2-0.2l-0.2,0.2v0.2l0.1,0.2L126.5,46.1z M126.3,48.6l0.3-0.1l0.2-0.5l-0.2-0.2l-0.2,0.1l-0.2,0.4
			L126.3,48.6z M126.5,54v-0.2l-0.2-0.1v0.2L126.5,54z M126.5,61.6l0.1-0.2l0.4-0.2l-0.5,0l0,0.2L126.5,61.6z M126.9,52.6l0-0.5
			l-0.3,0l-0.1,0.1l0.2,0.3H126.9z M126.6,39.8l0.1-0.2l-0.2-0.1l0,0.2L126.6,39.8z M126.9,41.4l0.1-0.2l-0.1-0.2l-0.2-0.1l-0.1,0.2
			v0.2l0.1,0.2L126.9,41.4z M126.7,51.4l0.2-0.1l0.1-0.1l0.1-0.2l-0.4-0.2l-0.1,0.4V51.4z M126.9,65.1v-0.2l-0.2,0.1L126.9,65.1z
			 M127.2,40.4l-0.1-0.2l-0.2-0.1l0,0.3H127.2z M126.9,44.1l0.4-0.2v-0.3l-0.1-0.1l-0.2,0l-0.1,0.4L126.9,44.1z M126.9,55.6l0.2-0.2
			l0-0.3l-0.2,0l-0.1,0.2L126.9,55.6z M126.9,54h0.2l-0.1-0.3l-0.1,0.2L126.9,54z M127,64.1l0.3-0.1l0.1-0.2l-0.2,0l-0.2,0.1
			L127,64.1z M127,62.8l0.3,0.2l0.1-0.2v-0.3l-0.2-0.2l-0.2,0.2L127,62.8z M127.1,54.5l0.2-0.1l0.1-0.2h-0.2L127.1,54.5z
			 M127.2,49.3h0.3l0.2-0.1l-0.1-0.3l-0.3,0.2L127.2,49.3z M127.2,38.1h0.2l0-0.2l-0.2-0.1V38.1z M127.5,40.7l0.2-0.1l0.1-0.3h-0.5
			l0,0.3L127.5,40.7z M127.4,45.2h0.1l0.1-0.1l-0.2-0.1V45.2z M127.6,53.3l0.1-0.3h-0.3l0,0.2L127.6,53.3z M127.4,65.1l0,0.3
			l0.1,0.2l0.2,0l0.1-0.2l0-0.3h-0.3L127.4,65.1z M127.9,48l0-0.2l-0.1-0.2l-0.2-0.1h-0.2l0.1,0.5L127.9,48z M127.6,37.3l-0.1-0.3
			l0,0.2L127.6,37.3z M127.5,52.1l0.3,0l0.2-0.1l-0.1-0.2l-0.4-0.1L127.5,52.1z M127.9,50.6h0.4v-0.4l-0.2-0.1l-0.2,0.1l-0.1,0.2
			L127.9,50.6z M127.9,43.4l0.4,0.1l0.1-0.1v-0.3L128,43l-0.1,0.2L127.9,43.4z M128,54.7l0.1,0.3l0.2,0.1l0.1-0.4l-0.2,0L128,54.7z
			 M128.1,39l0.3-0.1l0.1-0.2l-0.2-0.1l-0.1,0.1L128.1,39z M128.3,63.6v-0.3l-0.2,0.2L128.3,63.6z M128.2,53.1l0.2,0.4v0.3l0.2-0.1
			l0-0.2l-0.1-0.2l-0.2-0.1L128.2,53.1z M128.2,62l0.1,0.2h0.3l-0.1-0.2L128.2,62z M128.3,42.6h0.2l-0.2-0.2V42.6z M128.7,49.7
			l-0.3-0.1l0.1,0.2L128.7,49.7z M128.5,37.6l0.2,0l0.1-0.2l-0.2,0L128.5,37.6z M128.5,64.8l0.6,0.2l0.1-0.5l-0.2-0.1l-0.4,0.2
			L128.5,64.8z M128.6,41.2l0.2,0.2l0.1-0.2H128.6z M128.8,52.5h0.2l0-0.2l-0.2-0.1V52.5z M129.5,50.4v-0.3h-0.3l0,0.2L129.5,50.4z
			 M129.5,38.3v-0.1h-0.2L129.5,38.3z M129.5,52.6l0.3,0.3l0.1,0.2l0.1-0.2v-0.3l-0.4-0.1L129.5,52.6z M129.7,42l-0.1-0.3l0,0.2
			L129.7,42z M130,65.5l0.1,0.2h0.2l0.1-0.2L130,65.5z M130.3,42.1l0.1,0.2l0.2,0l0.1-0.2l-0.2-0.2L130.3,42.1z M130.5,67.1v-0.3
			l-0.1-0.1v0.3L130.5,67.1z M130.9,49.5l0-0.2h-0.2l0.1,0.3L130.9,49.5z M130.8,52.3l0.3,0.4l0.2,0l0.2-0.4l-0.4-0.2l-0.2,0.1
			L130.8,52.3z M131.2,39.1l0.2,0l0.1-0.1h-0.2L131.2,39.1z M131.5,50.5l0.4-0.2l0-0.2l-0.3,0.2L131.5,50.5z M131.9,53.2l0.3,0.2
			l0-0.3l-0.2-0.1L131.9,53.2z M132.1,51.6l0.3,0.5l0.2-0.2l0.1-0.2l-0.5-0.1L132.1,51.6z M132.1,64.8l0.2-0.1l-0.2-0.1V64.8z
			 M132.8,51.2v-0.3l-0.2,0.2L132.8,51.2z M132.6,49.9l0.2-0.1l-0.2-0.1V49.9z M133,63.3l-0.1-0.2h-0.3l0,0.2l0.2,0L133,63.3z
			 M133,41.2h0.3l-0.1-0.2l-0.2-0.1L133,41.2z M133.1,52.5l0.1,0.2l0.2,0.1l0.2-0.2v-0.2l-0.2-0.1L133.1,52.5z M133.2,51.4l0.3,0.2
			h0.2l-0.1-0.2v-0.3l-0.2-0.1l-0.1,0.2L133.2,51.4z M133.6,64.3h0.3V64l-0.2,0L133.6,64.3z M134.3,54.4l0.1-0.2l-0.3-0.4l0,0.5
			L134.3,54.4z M134,66.7l0.2,0.1l-0.2-0.2V66.7z M134.5,52.1l0.2,0.1l0.2-0.1l0.1-0.2l-0.2,0l-0.2,0.1L134.5,52.1z M135,51.1l0-0.2
			l-0.2-0.2v0.3L135,51.1z M135.1,53.3l0.3,0.1v-0.2l-0.2,0L135.1,53.3z M136,51.4h0.2l-0.1-0.2L136,51.4z M136.4,50.4l-0.2-0.2
			l0,0.3L136.4,50.4z M136.2,54.2l0.2,0.1l0.1-0.2h-0.2L136.2,54.2z M136.6,63.1l0.1-0.2l-0.2-0.2l0,0.3L136.6,63.1z M136.8,53.2
			l0.1-0.2l0-0.2l-0.2-0.1l-0.2,0.2l0.1,0.2L136.8,53.2z M136.7,64.3v0.2l0.3,0l0.2-0.2l-0.2-0.2L136.7,64.3z M137.4,39.9l-0.1-0.2
			l-0.4-0.2l0.1,0.2l0.2,0.1L137.4,39.9z M137.2,51.1l0.2,0l0.1-0.1l-0.2-0.1L137.2,51.1z M137.6,67.2l-0.1-0.1h-0.2l0.1,0.2
			L137.6,67.2z M137.8,49.4l0.2-0.1l-0.2-0.1V49.4z M138.4,66.7h0.2l0.1-0.2l-0.3,0V66.7z M138.6,37.3h0.2v-0.1h-0.2V37.3z
			 M138.6,53.1l0.2,0l-0.2-0.2V53.1z M138.8,61.9h0.2l-0.2-0.2V61.9z M139.3,52.1l0.1-0.3h-0.2v0.2L139.3,52.1z M139.6,63.6l0-0.2
			l-0.2-0.1l0,0.2L139.6,63.6z M139.4,66l0.1,0.2h0.3v-0.3h-0.2L139.4,66z M140.2,60.2l0.1-0.1l0-0.2l-0.2,0.1L140.2,60.2z
			 M140.3,52.7l0.1-0.2h-0.2L140.3,52.7z M140.4,51.7h0.2v-0.1h-0.2V51.7z M140.7,65.5l0.2,0.1l0.2-0.1l0-0.2h-0.3L140.7,65.5z
			 M141,60.8l0-0.2l-0.2,0L141,60.8z M141.6,66.3h0.2v-0.2h-0.2V66.3z M142.3,64h0.2l-0.2-0.2V64z M142.5,63l0.2-0.1l-0.2-0.1V63z
			 M142.5,60.1h0.2l0.1-0.2l-0.2-0.1V60.1z M142.9,66.8l0-0.2l-0.2-0.1v0.2L142.9,66.8z M143.3,64.5l0.2-0.3l-0.2,0l-0.1,0.2
			L143.3,64.5z M143.8,63.5h0.1l-0.1-0.2L143.8,63.5L143.8,63.5z M144.9,63.1h0.2v-0.2h-0.2V63.1z"/>
		<path class="st17" d="M172.4,35.3l0.2,0.3l0.4,0l0.6,0.4l0.5,0.1l0.2,0l0.7,0.6l0.7,0.2l0.3,0.4l1.2,0.9l0.6,0.7L178,39l0.3,0.5
			l0,0.3l-0.1,0.2l0.7,0.5l0.3,0.4l0.1,0.5l0.3,0.5l-0.2,0.5l0.5,0.5l0.2,1.1l0,0.5l-0.1,0.2l-0.2,0.2l0.2,0.4l-0.2,0.1l-0.4,0.3
			l-1.5,0.2H177l-0.1-0.4l-0.4,0.3l-0.6,0.1l-0.5-0.1l-0.5,0.2l-1.6-0.1l-0.9-0.2l-0.4-0.2l0-0.4l-0.7-0.6l-0.2-0.5l-0.8-0.7
			l-0.3-0.4l-1.5-0.4l-0.6-0.3H167l-1.1,0.1l-1,0.2l-0.4,0.2l-0.7,0.5l-0.6,0.8l0.2,0.5l-0.1,0.2l0.6,0.7l0.4,0.3l0.5,0.2l0.3,0.4
			l0.3,0l0.7,0.2l0.4,0.3l0.6,0l0.7,0.3h0.3l0.4,0.2l1.4,0.5l0.4,0.2l0.5,0.1l1.7,0.7l0.2,0l0.5,0.5l0.5,0.1l0.8,0.5l0.4,0.5l0.5,0
			l0.5,0.2l0.8,1l0.3,0.1l0.8,0.6l0.3,0.1l0.2,0.5l0.8,0.8l0.2,0.4l0.1,0.5V55l0.5,0.6l0.1,0.5l0.3,0.3l0,0.5l0.2,0.4l-0.2,0.9
			l0.1,0.2l0.2,0.1l-0.1,0.5l0,0.5l-0.1,0.5l-0.2,0.2l0.1,0.2V61l-0.3,0.3v0.4l-0.3,1l-0.2,0.2l-0.2,0.1v0.5l-0.3,0.4l-0.3-0.2
			l-0.1,0.2l-0.2,0.1l0.1,0.2l0.2,0.1l-1,0.9l-0.1,0.3l-0.2,0.1l-0.4,0.3l-0.3,0.1l-0.7,0.6l-0.6,0l-0.2,0.4l-0.2,0l-0.6,0.4H174
			l-0.2,0.2l-0.5,0.2l-0.2,0.2l-0.6,0l-0.8,0.3l-0.3,0l-0.7,0.1l-0.3-0.2l-0.2,0.2l-1,0.4l-1-0.1l-1.2,0.1l-0.1-0.2V68l-0.5,0.2
			h-0.2l-0.5-0.2l-0.1,0.4l-1-0.3l-0.3-0.4l-0.2,0.5l-0.2-0.2l-0.5-0.1h-0.8l0.2-0.2l-0.2-0.3h-0.2l-0.2,0.1h-0.2l-0.4-0.2l-1.5-0.2
			l-0.7-0.2l0.1-0.4l-0.4,0.3l-0.2,0l0-0.3l0.2-0.1l-0.1-0.2l-0.8,0l-0.3-0.3l-0.2-0.1h-0.3l-0.2-0.4l-0.5-0.4l-0.3,0l-0.2-0.6
			l-0.4-0.1l-1.2-1.7l-0.5-1l-0.5-2v-0.8l0.6-0.9l0.2-0.1l0.5,0.1l1-0.1h4.9l0.8,0.6l1.7,1.8l0.6,0.5l0.3-0.1l1,0.2L166,61l0.7,0.1
			l0.2-0.1l0.2,0l0.1,0.1l0.5-0.2l0.5,0.1l0,0.3l0.1,0.1l0.2-0.1v-0.3l0.1,0.2l0.4-0.2l0.1-0.2h0.3l0.6-0.3l0.3,0l0.3-0.3l0.2-0.5
			l0.3-1.2l-0.2-0.3l-0.2-0.1l-0.3,0l-0.1-0.5l-0.5-0.1l-0.6-0.4l-0.4-0.1l-0.3,0l-0.2-0.4h-0.6l-0.5-0.2l-0.4-0.3l-0.1-0.2
			l-0.5,0.1l-0.2-0.1l-0.4-0.3l-0.5,0l-1.3-0.5l-0.8-0.2l-0.7-0.4h-0.5l-0.6-0.5l-0.5-0.1l-0.7-0.5l-0.5-0.1h-0.3l-0.7-0.6l-1.1-0.6
			v-0.3l-0.3-0.3l-0.5,0l-0.2-0.5l-0.7-0.6l0-0.5l-0.4-0.2l0.1-0.4l-0.5-0.1l-0.4-0.6l0-0.5l-0.5-0.8l-0.1-0.5v-0.3l0.4-0.2l-0.3-1
			l0-0.5l0.1-0.2l-0.2-0.4l0-0.6l0.1-0.6l0.3-0.4l0-0.6l0.1-0.5l0.3-0.4l-0.1-0.5l0.2,0l0.2-0.2l0.3-1h0.3l0.2-0.1l0.2-0.5l0.3-0.3
			l0.2,0l0-0.5l0.1-0.2l0.6,0.2l0.3,0l-0.2-0.5L158,37l0.2-0.1l0.1,0.2v0.3l0.2-0.1v-0.6h0.5l0.1-0.1l0-0.2l0.2,0L160,36h0.6
			l0.6-0.7l1,0.3l-0.1-0.2v-0.2l0.2-0.1l0.8,0l0.1-0.2l0.5,0.2l0.1-0.2l0.3,0.4l0.2-0.2v-0.2l0.1-0.2l0.5-0.1l0.3,0.1l0,0.2l0.2-0.2
			h0.8l-0.1,0.5l0.2-0.1l0.1-0.1v-0.2l-0.2-0.1l0.5-0.2h0.2l0.7,0.3l0.6-0.1l2.4,0.4l0.5,0l0.2,0.1l0.3,0.3l0.2,0L172.4,35.3z
			 M155.9,43l0.3-0.2H156L155.9,43z M156.4,46.9l0.2,0l0-0.3l-0.2,0.1L156.4,46.9z M157.1,44.9l-0.1-0.2l-0.2-0.1l0,0.2L157.1,44.9z
			 M157.1,42.8l0.5,0.2l0.2-0.1l-0.2-0.4l-0.4-0.3l-0.1,0.2v0.2L157.1,42.8z M157.1,43.6l0.3-0.1l-0.2-0.1L157.1,43.6z M157.5,44.1
			l-0.1-0.2l-0.2,0l0,0.2H157.5z M158.1,47.9l0,0.2l0.1,0.2l0.2-0.2l0-0.2l-0.5-0.3l-0.2,0l-0.2,0.1l0.2,0.1l0.2,0L158.1,47.9z
			 M157.6,41.7v0.2l0.2,0.1l0.1-0.1v-0.2H157.6L157.6,41.7z M157.8,41l0.4-0.1l0-0.2l-0.3,0.1L157.8,41z M157.8,45.6h0.3l-0.1-0.2
			l-0.2-0.1V45.6z M157.9,46.8l0.2-0.5l-0.2,0.1l0,0.2L157.9,46.8z M158.3,39.6l0.1-0.2l-0.1-0.2l-0.1,0.2L158.3,39.6z M158.3,49.4
			l0-0.2l-0.2-0.1v0.2L158.3,49.4z M158.3,40.6l0.1-0.2l-0.2-0.2l0,0.2L158.3,40.6z M158.5,42l0.1,0.3l0.2,0.1l0.2,0l-0.1-0.2
			l-0.2-0.2L158.5,42z M158.5,43l0.1,0.2l0.2,0.1L159,43l-0.2-0.1L158.5,43z M158.8,46.3l0.3,0.1l0.1-0.5l-0.2-0.1l-0.2,0.3V46.3z
			 M158.8,47.5l0.2-0.1l-0.2-0.1V47.5z M158.9,44.6v0.2L159,45l0.2,0.1l0.2-0.1l-0.2-0.5H159L158.9,44.6z M159.1,41.4l0.2,0.2
			l0.2-0.3l-0.2,0L159.1,41.4z M159.2,40.4l0.2,0.1l0.3,0l0.1-0.2V40l-0.1-0.2l-0.4,0.2l-0.1,0.2L159.2,40.4z M159.3,47.7l0.5,0.2
			l0-0.3l-0.1-0.2l-0.2-0.1l-0.1,0.2L159.3,47.7z M159.7,49l0-0.4l-0.1-0.2l-0.1,0.2v0.2L159.7,49z M159.4,39l0.3,0.1V39l-0.2-0.1
			L159.4,39z M159.8,63.8h0.2l-0.1-0.2L159.8,63.8L159.8,63.8z M160.1,66.6l-0.2-0.1l0.1,0.2L160.1,66.6z M160.2,41.8l0-0.2
			l-0.2-0.1l0,0.2L160.2,41.8z M160.1,47l0-0.2l-0.2-0.1v0.2L160.1,47z M160.2,42.8v-0.3l-0.2,0v0.2L160.2,42.8z M160.2,62.8h0.1
			l-0.1-0.2L160.2,62.8L160.2,62.8z M160.5,44.5l0.2-0.4l-0.3,0l-0.1,0.2l0.1,0.2L160.5,44.5z M160.3,45.8l0.2,0.1l0.2-0.5l-0.3-0.1
			l-0.1,0.2L160.3,45.8z M160.2,53.2h0.2l-0.2-0.2V53.2z M160.7,40.9l0-0.2l-0.3-0.1l0.1,0.2L160.7,40.9z M160.5,39.7l0.4,0.1l0.2,0
			l-0.1-0.2h-0.3L160.5,39.7z M160.6,48.5l0.2,0.1l0.2-0.2l-0.3-0.2L160.6,48.5z M160.7,51.3l0.2,0.1l0.5-0.2v-0.3l-0.2-0.1
			l-0.4,0.2L160.7,51.3z M161,47.4l0-0.2l-0.2-0.1l0.1,0.2L161,47.4z M161,50l0.2-0.5H161l0,0.3L161,50z M161,42.4l0.4,0.2l0.1-0.3
			l-0.3,0L161,42.4z M161.4,41.1l0.1-0.2l0-0.2l-0.2-0.1l0,0.4L161.4,41.1z M161.7,44.7l-0.2,0.2l-0.1,0.2l0.1,0.2l0.2,0l0-0.2
			L161.7,44.7z M161.8,63.8l-0.1-0.2l-0.1,0.2L161.8,63.8z M162.1,44.1l-0.1-0.2l-0.3,0V44l0.2,0H162.1z M162.1,64.9l-0.1-0.2
			l-0.3-0.1l0.2,0.3L162.1,64.9z M162.2,46.9l0.1-0.3l0-0.3l-0.2-0.1l-0.2,0.4l0.1,0.2L162.2,46.9z M162.1,48.1l0-0.2l-0.2-0.1V48
			L162.1,48.1z M162.2,37.7v-0.3l-0.2,0.2L162.2,37.7z M162.1,50.6l0.5,0.2l-0.1-0.5l-0.1-0.2l-0.2,0.2L162.1,50.6z M162.6,41.6
			l0.1-0.3h-0.2l0,0.2L162.6,41.6z M162.4,49.4l0.2,0.2l0.1-0.2H162.4z M162.6,40.4h0.1v-0.2h-0.1V40.4z M162.9,52.3v-0.5l-0.2-0.1
			l0.1,0.5L162.9,52.3z M162.9,47.5l0.2,0v-0.2l-0.2-0.1L162.9,47.5z M163.1,38.6h0.2v-0.3l-0.2,0.1V38.6z M163.3,50l0.2,0.4
			l0.5-0.2l0.1-0.2l-0.2-0.1l-0.2,0.1L163.3,50z M163.6,39.6l0.2,0.4l0.2,0l0-0.3l-0.2-0.2L163.6,39.6z M164,51.3l0.3,0.6l0.2,0
			l-0.3-0.6L164,51.3z M164.3,38.1l0.3,0l0.2-0.2l0.2,0.2l-0.1-0.2l-0.3-0.1l-0.1,0.2L164.3,38.1z M164.6,49.5l0.2,0.1l0.5,0v-0.3
			l-0.2-0.1l-0.3,0.1L164.6,49.5z M164.8,40.8h0.2v-0.2h-0.2V40.8z M165.1,48.6l-0.1-0.5h-0.2l0.1,0.3L165.1,48.6z M164.9,39.6
			l0.4,0v-0.2l-0.1-0.1l-0.2,0.1L164.9,39.6z M164.9,53.3v0.2l0.2-0.1L164.9,53.3L164.9,53.3z M165.3,38.6l0.3,0.1v-0.2h-0.2
			L165.3,38.6z M165.3,51l0,0.2l0.2,0.1l0.2,0l0-0.3l-0.2-0.2L165.3,51z M165.6,52.5l0-0.2l-0.3-0.3l-0.1,0.2l0.1,0.2L165.6,52.5z
			 M165.4,63.3l0.2,0.2l0.1-0.2l0-0.2L165.4,63.3z M165.7,62.7l0-0.2l-0.2-0.1v0.2L165.7,62.7z M165.8,37.3h0.2v-0.2h-0.2V37.3z
			 M166,49.1h0.3v-0.3l-0.2-0.1l-0.1,0.2V49.1z M166.1,40.3l0.2,0l0-0.2l-0.2-0.1l-0.1,0.2V40.3z M166.7,38.9l0-0.2l-0.4-0.2
			l0.2,0.4L166.7,38.9z M166.6,61.8l-0.1-0.4l-0.2-0.2l-0.1,0.2l0.1,0.2L166.6,61.8z M167.1,50.8l-0.2-0.4l-0.2-0.1v0.2l0.2,0.2
			L167.1,50.8z M167,37l0.2-0.1l0-0.3l-0.3,0.3L167,37z M167.2,50.2h0.1V50h-0.1V50.2z M167.6,38.6l0.2-0.1l0-0.3l-0.2-0.1l-0.1,0.3
			L167.6,38.6z M167.6,51.4l0.4,0.1l0.2-0.1V51l-0.2,0l-0.4,0.1L167.6,51.4z M167.6,63.8h0.1v-0.2h-0.1V63.8z M167.8,40.9l0.2-0.1
			l-0.1-0.2L167.8,40.9z M168.1,50.1l0.1-0.3h-0.2V50L168.1,50.1z M168.3,54l0.2-0.4l-0.2-0.1l-0.2,0.4L168.3,54z M168.7,53
			l-0.2-0.5l0-0.3l-0.3,0.1l-0.1,0.2l0.1,0.2l0.2,0.2L168.7,53z M168.5,65.5l-0.1-0.2l-0.2-0.1l0,0.2L168.5,65.5z M168.4,64.5
			l0.3,0.1l0-0.5l-0.1-0.2l-0.1,0.1l0,0.2V64.5z M168.5,39.1l0.2,0.1h0.4v-0.3h-0.5L168.5,39.1z M168.8,66.8h0.2l0.1-0.2h-0.2
			L168.8,66.8z M169.1,50.8L169.1,50.8l-0.1-0.2L169.1,50.8z M169.3,53.5h0.2l0.1-0.2h-0.3V53.5z M169.6,52.4l0-0.2l-0.1-0.1
			l-0.1,0.2L169.6,52.4z M169.8,38.7h0.3l0.1-0.2l-0.2-0.2l-0.2,0.2L169.8,38.7z M169.8,66.3l0.4,0.2l0.2-0.1l0-0.2l-0.5,0
			L169.8,66.3z M169.8,37.2h0.2V37h-0.2L169.8,37.2z M170.1,50.4h0.1v-0.2h-0.1V50.4z M170.3,39.8l0.2,0.5l0.2,0.2l0.1-0.2l-0.1-0.2
			l-0.2-0.2L170.3,39.8z M170.4,41.3h0.2l0.1-0.2h-0.2V41.3z M171,51.8l0.1-0.2l0-0.2l-0.2-0.2h-0.2l-0.1,0.2l0,0.2l0.1,0.1
			L171,51.8z M170.5,53l0.2,0l0.1-0.2l-0.2-0.1l-0.1,0.2L170.5,53z M170.9,64.2l-0.2,0.1l0.2,0.1L170.9,64.2z M170.8,62.8h0.2v-0.2
			h-0.2L170.8,62.8z M170.9,55.4l0.2,0.1v-0.2H171L170.9,55.4z M171.5,39.6h0.1v-0.2h-0.1V39.6z M171.8,50.9l0.1,0.2l0.2,0l0.1-0.4
			h-0.2L171.8,50.9z M172.1,52.5v-0.3l-0.2-0.1l0,0.2L172.1,52.5z M172,62.3l0.4,0.1l0.1-0.2l-0.2-0.2h-0.2L172,62.3z M172.3,49
			l-0.2,0l0.1,0.2L172.3,49z M172.3,42.3l0.2-0.3h-0.2l0,0.2L172.3,42.3z M172.6,57.8l-0.3-0.2l0,0.2l0.2,0.1L172.6,57.8z
			 M172.3,56.3l0.1,0.2l0.2,0.1h0.2l0.1-0.2l-0.2-0.2l-0.3-0.1L172.3,56.3z M172.4,40.2l0.1,0.2l0.3,0.1v-0.2l-0.1-0.2L172.4,40.2z
			 M172.8,59.2l0.2,0.4l0.2,0.1l0.1-0.3l-0.1-0.3l-0.2-0.2l-0.2,0L172.8,59.2z M172.9,60.7l0.2-0.1l-0.2-0.1V60.7z M173.2,41.6h0.2
			v-0.2h-0.2L173.2,41.6z M173.6,58.5v-0.2l-0.3,0.1L173.6,58.5z M173.4,62.1l0.3,0l0.1-0.2l0-0.3l-0.3,0l-0.1,0.2L173.4,62.1z
			 M173.6,55.8l0.4,0.3l0.2,0.1l0.1-0.2l-0.1-0.2l-0.4-0.2L173.6,55.8z M174.1,57.2L174,57l-0.2,0l0.1,0.3L174.1,57.2z M174.4,40
			l0-0.2l-0.2-0.1h-0.2l0,0.3l0.2,0.1L174.4,40z M174,54.6l0.2-0.1l-0.2-0.2V54.6z M174,60.1h0.3l0.1-0.2l-0.3-0.1L174,60.1z
			 M174.4,59l0.2-0.1l0.1-0.2l-0.1-0.3l-0.2-0.2l-0.2,0.5l0,0.2L174.4,59z M174.2,63.8h0.2v-0.2h-0.2V63.8z M174.6,62.8l0.1-0.2
			l-0.3-0.1l0,0.2L174.6,62.8z M174.6,57.6l0.1,0.2l0.2-0.2H174.6z M175.2,61.3h-0.3l0,0.2l0.2,0L175.2,61.3z M175.1,56.7l0.3-0.4
			l-0.2-0.2l-0.2,0.4L175.1,56.7z M175.2,55.6l0.2,0.1l0.1-0.2l-0.2,0L175.2,55.6z M175.6,56.7h0.2l-0.2-0.2V56.7z M175.8,58.1
			l-0.2,0.1L175.8,58.1l0.2-0.2h-0.2L175.8,58.1z M175.8,61.2h0.2l0.3-0.3v-0.2l-0.2-0.1l-0.3,0.4L175.8,61.2z M175.9,59.6l0.2,0.1
			l0.1-0.2l-0.2,0L175.9,59.6z M176.6,55l0-0.2l-0.1-0.2l-0.2-0.1l-0.1,0.2l0.2,0.4H176.6z M176.5,56.2l0.2-0.2h-0.2l-0.2,0.1
			L176.5,56.2z M177,59l-0.1-0.2l-0.3,0l0.1,0.2L177,59z M176.7,62.9l0.2-0.4l-0.2-0.1l-0.1,0.4L176.7,62.9z M177,57.7l-0.1-0.3
			l-0.2-0.2l0,0.5H177z M177.6,60.4l0-0.2l-0.2-0.1l-0.2,0l0,0.3l0.2,0.2L177.6,60.4z M177.2,55.5l0.1,0.2h0.2l0.1-0.2H177.2
			L177.2,55.5z M178.3,59.8l0.5,0.2l-0.1-0.2l-0.2,0L178.3,59.8z"/>
	</g>
	<path class="st17" d="M111.3,103.8l0.3-0.2l0.3,0l0.4,0.1l0.4-0.4l0.2-0.8l-0.2-0.9l0.2-0.3l-0.1-0.2l0-0.6l-0.2-0.3l0.2-0.1
		l0.1-0.2l-0.2-0.4l0.1-0.2l0-0.7l-0.3-0.6l-0.2,0.1l0.1-0.2l-0.1-0.2l-0.2,0.1l-0.4-0.1l-0.4-0.3l-0.5,0.2l-0.4-0.2l-0.6,0.2
		l-1.8,0l-0.4,0.1l-0.4,0.2l-0.1-0.2l-0.2-0.1l-0.5,0l-0.1,0.3l-0.1-0.1l-0.5-0.2l-0.2,0.1l-1.4,0.1l-0.6,0.3l-0.2-0.2l-0.4-0.2
		l-0.4,0.1l-1.4,0.1l-0.4,0.1l-0.3,0.2l-0.2-0.1l-0.8,0l-0.2-0.1L99,97.8l-0.4-0.2l-0.3,0l-0.5,0.3l-0.2-0.3l-0.5,0l-0.6,0.2l-0.7,0
		l-0.4-0.2L95,97.7l-0.8-0.1l-1.8,0.2l-0.2-0.1l-0.1,0l-0.3-0.2l-0.5,0.2l-0.4-0.2l-0.6,0.2l-1.8,0l-0.4,0.1L88,97.9l-0.1-0.2
		l-0.2-0.1l-0.5,0L87,97.9l-0.1-0.1l-0.5-0.2l-0.2,0.1l-1.4,0.1L84.2,98L84,97.9l-0.4-0.2l-0.4,0.1l-1.4,0.1l-0.4,0.1l-0.3,0.2
		L81,98l-0.8,0L80,97.9L79.7,98l-0.4-0.2l-0.3,0l-0.5,0.3l-0.2-0.3l-0.5,0L77,98.1l-0.7,0l-0.4-0.2L75.7,98l-0.8-0.1L73.1,98
		l-0.2-0.1l-0.4,0L72,98l-0.8,0.4l-0.1,0.5l0.1,0.9l-0.1,0.1l0,0.4l0.2,0.6l-0.1,0.2l0.2,0.1l0.1,0.2l-0.3,0l0.1,0.4l0,0.3l0.2,0
		l0.1,0.2l-0.3,0.1l0,0.7l0.1,0.2l0.2,0.1l0,0.5l0.3,0.2l0.7,0.1l0-0.4l0.2,0.2l0,0.3l0.3,0l0.4-0.2l0.4,0.2l0.3,0l-0.1-0.2L74,104
		l0.3,0.2l0.4,0.1l0.2-0.3l0.3,0.2l0.3,0l0.4-0.3l0.3,0.3l0.3-0.3l0.1,0.2l0.1,0.1l1.6,0l0.2,0.1l0.3-0.2l0.2,0l-0.1-0.1l-0.2-0.1
		l-0.1-0.1L79,104l-0.1,0.2l0.1,0.1l0.4,0l0.4-0.1l0-0.3l0.1-0.1l0.2-0.1l0.1,0.2l0.1,0l0.4-0.2l0.3,0.4l0.3,0l0.1-0.2l0-0.3
		l0.2-0.1l0,0.3l0.2,0.2l0.7,0.1l0.5,0l0.2-0.1l0.1-0.1l-0.3,0.1l0.1-0.2l0.2-0.1l0.4,0.1l0.1,0.1l0.1,0.2l0.7-0.1l0.1-0.2l0.2,0.1
		l0.4,0.1l0.4-0.2l0.3-0.3L86,104l0.2,0.1l0.5-0.4l0.2,0l-0.2,0.4l0.5-0.1l0.9,0l-0.1-0.1l-0.3-0.1l0.1-0.2l0.2-0.1l0.3,0.2l1.2,0.3
		l0.5,0l0.6-0.1l0.9,0l0.5,0.1l0,0l0,0l0.1-0.1l0,0.2l0.3,0l0.4-0.2l0.4,0.2l0.3,0l-0.1-0.2l0.1-0.1l0.3,0.2l0.4,0.1l0.2-0.3
		l0.3,0.2l0.3,0l0.4-0.3l0.3,0.3l0.3-0.3l0.1,0.2l0.1,0.1l1.6,0l0.2,0.1l0.3-0.2l0.2,0l-0.1-0.1l-0.2-0.1l-0.1-0.1l0.5,0.2l-0.1,0.2
		l0.1,0.1l0.4,0l0.4-0.1l0-0.3l0.1-0.1l0.2-0.1l0.1,0.2l0.1,0l0.4-0.2l0.3,0.4l0.3,0l0.1-0.2l0-0.3l0.2-0.1l0,0.3l0.2,0.2l0.7,0.1
		l0.5,0l0.2-0.1l0.1-0.1l-0.3,0.1l0.1-0.2l0.2-0.1l0.4,0.1l0.1,0.1l0.1,0.2l0.7-0.1l0.1-0.2l0.2,0.1l0.4,0.1l0.4-0.2l0.3-0.3
		l0.1,0.3l0.2,0.1l0.5-0.4l0.2,0l-0.2,0.4l0.5-0.1l0.9,0l-0.1-0.1l-0.3-0.1l0.1-0.2l0.2-0.1l0.3,0.2l1.2,0.3l0.5,0l0.6-0.1
		L111.3,103.8z M78.2,98.4l0.1,0.1l-0.1,0.2L78.2,98.4z M85,100.9l0.2,0l-0.1,0.5l-0.2,0.1l-0.1-0.2L85,100.9z M79.5,101.6l-0.2-0.1
		l0-0.1l0.1-0.1l0.2,0.1L79.5,101.6L79.5,101.6z M102.6,102l0,0.2l-0.2,0.1l-0.3-0.3l0-0.2l0.1-0.1l0.2-0.1L102.6,102z M105.4,101.4
		l0.2,0l-0.2,0.2l-0.2,0.1l0-0.2L105.4,101.4z M101.8,102.4l-0.1-0.1l0.1-0.1l0.1,0.1L101.8,102.4z M89.4,100.5l-0.2-0.1l0.1-0.2
		l0.2,0.1L89.4,100.5z M98,100.8l0.1-0.2l0.1,0.2l0,0.2L98,100.8z M96,101l0-0.2l0-0.2l0.2,0.1l0.1,0.2L96,101z M99.8,100.8
		l-0.3-0.2l0.1-0.2l0.2,0.1l0.2,0.4L99.8,100.8z M100.9,100.3l-0.1-0.2l0.1-0.2l0.2,0.2l0,0.2L100.9,100.3z M94,100.7l0,0.2
		l-0.2-0.1l0-0.2L94,100.7z M90.7,101l0.1,0.2l-0.2,0l-0.1-0.1L90.7,101L90.7,101z M86.2,101.7l-0.2,0.2l-0.2,0.1l0-0.2l0.2-0.2
		L86.2,101.7z M89.6,101.5l0.4,0.1l0,0.2l-0.2,0l-0.1-0.1L89.6,101.5z M85.1,102.2l-0.1,0.3l-0.2-0.1l0-0.2l0.1-0.1L85.1,102.2z
		 M96.4,102l0.1,0.1l-0.1,0.1L96.4,102z M94.8,102.3l-0.1-0.1l0.2-0.1L94.8,102.3z M93.8,102.5l0.2,0l-0.1,0.2l-0.1,0l-0.1-0.1
		L93.8,102.5z M97.6,102.3l0.2,0l-0.1,0.2l-0.2,0.1l-0.1-0.2L97.6,102.3z M98.4,102.3l0.1-0.1l0.1-0.1l0.2,0l-0.1,0.2l-0.2,0.1
		L98.4,102.3z M99.9,101.8l-0.3,0l-0.1-0.2l0.1-0.3l0.3,0L99.9,101.8z M94,101.8l-0.2-0.2l0.1-0.2l0.2,0l0,0.3L94,101.8z
		 M98.6,101.3l0-0.1l0.1-0.1l0.2,0.1l0,0.1l-0.1,0.1L98.6,101.3z M101.7,100.8l0-0.2l0.1,0l0.2,0l-0.1,0.2l-0.1,0.1L101.7,100.8z
		 M102.6,100.4l-0.1-0.2l0.3-0.1l0.1-0.2l0.2,0.1l0.1,0.2l0,0.2l-0.2,0.1L102.6,100.4z M103.9,100l-0.1-0.1l0.1-0.2l0.3,0l0,0.3
		l-0.1,0.1L103.9,100z M105.7,99.5l0.2,0.1l0,0.1l-0.2,0.1L105.7,99.5z M107.4,99.5l0.1-0.2l0.2,0l0.1,0.3l-0.2,0L107.4,99.5z
		 M108.7,99.2l0.1-0.1l0.1,0.2L108.7,99.2z M87.2,100l0.1,0.2l0,0.2l-0.1,0.2l-0.1-0.1l-0.2-0.3L87,100L87.2,100z M86.4,100.1l0-0.3
		l0.2,0.1l0,0.1L86.4,100.1z M84.9,100.1l-0.1,0.1l-0.2,0l-0.1-0.1l0.1-0.2l0.3,0L84.9,100.1z M83.8,100.2l0.1,0.2l0,0.2l-0.2,0.1
		l-0.4-0.2l-0.1-0.2l0.3-0.1l0.1-0.2L83.8,100.2z M86,100.5l0.2,0l0.2,0.4l0,0.2l-0.4-0.2l-0.1-0.2L86,100.5z M86.7,101.2l0.5,0
		l-0.1,0.2l-0.3,0L86.7,101.2z M83.2,102.2l0,0.2l-0.2,0.1l-0.3-0.3l0-0.2l0.1-0.1l0.2-0.1L83.2,102.2z M82.5,102.6l-0.1-0.1
		l0.1-0.1l0.1,0.1L82.5,102.6z M82.1,102.4l0.1,0.2l-0.2,0l0,0.2l-0.5-0.2l0.1-0.2l0.2,0L82.1,102.4z M100.1,102.6l0,0.3l-0.1-0.1
		L100.1,102.6z M107.1,102.1l0,0.1l-0.1,0l0-0.1L107.1,102.1z M101,102.4l0.1-0.2l0.2,0l0.2,0.1l0.1,0.2l-0.2,0l0,0.2L101,102.4z
		 M104.4,102.2l-0.2-0.1l0-0.2l0.1-0.1l0.1,0.1L104.4,102.2z M109.3,101.4l0,0.2l-0.2,0l-0.1-0.1l0-0.2L109.3,101.4z M110.4,100.8
		l-0.1,0.3L110,101l-0.1-0.1l0.1-0.1l0.2,0L110.4,100.8z M106.5,101l-0.1,0.2l-0.3,0L106,101L106.5,101z M104.3,101.2l-0.1-0.2
		l0.1-0.4l0.2,0l-0.1,0.5L104.3,101.2z M105.7,100.7l0,0.2l-0.4-0.2l-0.1-0.2l0.1-0.1l0.2,0L105.7,100.7z M108.9,100.1l-0.1,0.1
		l-0.2-0.1l0.1-0.2L108.9,100.1z M106.7,100l0,0.2l-0.1,0.2l-0.1-0.1l-0.2-0.3l0.1-0.1l0.2,0.1L106.7,100z M110.8,99.3l-0.1,0.2
		l-0.1-0.1l0.1-0.2L110.8,99.3z M112.1,98.8l0,0.2l-0.2,0l-0.1-0.1l0-0.2L112.1,98.8z M103.2,99.3l0.1,0.3l-0.2-0.1l-0.1-0.1l0-0.2
		L103.2,99.3z M99.5,99.4l-0.2,0.1l0-0.3L99.5,99.4z M107.1,98.3l0,0.1l-0.1,0l0-0.1L107.1,98.3z M108.6,97.6l-0.1,0.2l-0.7,0.2
		l0-0.3l0.1,0L108.6,97.6z M94.7,98.8l0.1,0.2l-0.2,0l-0.1-0.2L94.7,98.8z M97.6,98.2l-0.1,0.2l-0.1-0.3L97.6,98.2z M75.2,99l0.2,0
		l0.1,0.2l-0.2,0L75.2,99z M72,99.5l0.1,0l0.1,0.1L72,99.5z M88.5,98l0.1,0l0.6,0l-0.1,0.2l-0.7,0.2L88.5,98z M87.6,98.7l0-0.1
		l0.1,0l0,0.1L87.6,98.7z M79.9,99.5l0.2,0.2L80,99.7L79.9,99.5z M83.8,99.7l-0.1-0.1l0-0.2l0.2,0.1l0.1,0.3L83.8,99.7z M89.5,99.3
		l0.1,0.2l-0.3-0.1L89.5,99.3z M88.4,99.5l0.1,0.3l-0.2,0l-0.2-0.1l0.1-0.2L88.4,99.5z M81.7,100.4l0,0.2l-0.2,0l-0.1-0.2l0.1-0.2
		L81.7,100.4z M80.7,101l-0.2,0l-0.3-0.2l0.1-0.2l0.2,0.1L80.7,101z M74.6,101l0-0.2l0.1,0.1l0,0.2L74.6,101z M76.6,101.1l0-0.2
		l0.2,0.1l0.1,0.2l-0.3,0.1L76.6,101.1z M78.7,101.1l0.1-0.2l0.1,0.2l0,0.2L78.7,101.1z M82.4,100.9l0.1,0l0.2,0l-0.1,0.2l-0.1,0.1
		l-0.1-0.1L82.4,100.9z M74.5,101.9l0.1-0.2l0.2,0l0,0.3l-0.1,0.1L74.5,101.9z M80.3,101.6l0.3,0l0,0.5l-0.3,0l-0.1-0.2L80.3,101.6z
		 M77.2,102.3l-0.1,0.1l0-0.2L77.2,102.3z M75.4,102.5l0.2-0.1l-0.1,0.2L75.4,102.5z M79.5,102.2l-0.1,0.2l-0.2,0.1l-0.2,0l0.1-0.1
		l0.1-0.1L79.5,102.2z M74.4,103L74.4,103l0-0.2l0.2,0l-0.1,0.2L74.4,103z M78.1,102.8l0.1-0.2l0.2,0l-0.1,0.2l-0.2,0.1L78.1,102.8z
		 M80.6,103l0.2-0.1l0,0.3L80.6,103z M87.7,102.5l0-0.1l0.1,0l0,0.1L87.7,102.5z M82.8,103.4l-0.1-0.1l0.1-0.1l0.2,0.1l0,0.2
		L82.8,103.4z M86.3,103.1l0.1-0.2l0.2-0.1l0,0.2l-0.1,0.1L86.3,103.1z M82.3,103.8l0.1,0.2l-0.6,0l-0.1-0.3l0.2-0.1L82.3,103.8z
		 M102.1,103.2l-0.1-0.1l0.1-0.1l0.2,0.1l0,0.2L102.1,103.2z M105.6,102.9l0.1-0.2l0.2-0.1l0,0.2l-0.1,0.1L105.6,102.9z
		 M101.7,103.6l0.1,0.2l-0.6,0l-0.1-0.3l0.2-0.1L101.7,103.6z"/>
</g>
</svg>
