<?xml version="1.0" encoding="utf-8"?>
<!-- Generator: Adobe Illustrator 20.1.0, SVG Export Plug-In . SVG Version: 6.00 Build 0)  -->
<svg version="1.1" xmlns="http://www.w3.org/2000/svg" xmlns:xlink="http://www.w3.org/1999/xlink" x="0px" y="0px"
	 viewBox="0 0 180 112" style="enable-background:new 0 0 180 112;" xml:space="preserve">
<style type="text/css">
	.st0{clip-path:url(#SVGID_4_);fill:#040607;}
	.st1{fill:#FFFFFF;}
	.st2{clip-path:url(#SVGID_14_);}
	.st3{fill-rule:evenodd;clip-rule:evenodd;fill:#FFFFFF;}
	.st4{clip-path:url(#SVGID_16_);}
	.st5{clip-path:url(#SVGID_18_);}
	.st6{clip-path:url(#SVGID_20_);}
	.st7{clip-path:url(#SVGID_22_);}
	.st8{fill-rule:evenodd;clip-rule:evenodd;fill:#89C8C9;}
	.st9{fill:#89C8C9;}
	.st10{clip-path:url(#SVGID_24_);}
	.st11{clip-path:url(#SVGID_26_);fill:#FFDE37;}
	.st12{clip-path:url(#SVGID_26_);}
	.st13{fill-rule:evenodd;clip-rule:evenodd;fill:#FFDE37;}
	.st14{fill:#FFDE37;}
	.st15{clip-path:url(#SVGID_28_);}
	.st16{fill-rule:evenodd;clip-rule:evenodd;fill:#40342D;}
	.st17{fill:#40342D;}
	.st18{fill-rule:evenodd;clip-rule:evenodd;fill:#DEC937;}
	.st19{fill:#F9F6F7;}
	.st20{fill:#49392F;}
	.st21{fill-rule:evenodd;clip-rule:evenodd;fill:#F9F6F7;}
	.st22{fill:#333332;}
	.st23{fill:none;stroke:#40342D;stroke-miterlimit:10;}
</style>
<g id="Capa_1">
</g>
<g id="Capa_2">
	<path class="st17" d="M107.6,102.6l0.3-0.2l0.3,0l0.4,0.1l0.4-0.4l0.2-0.8l-0.2-0.9l0.2-0.3l-0.1-0.2l0-0.6l-0.2-0.3l0.2-0.1
		l0.1-0.2l-0.2-0.4l0.1-0.2l0-0.7l-0.3-0.6l-0.2,0.1l0.1-0.2l-0.1-0.2l-0.2,0.1l-0.4-0.1l-0.4-0.3l-0.5,0.2l-0.4-0.2l-0.6,0.2
		l-1.8,0l-0.4,0.1l-0.4,0.2l-0.1-0.2l-0.2-0.1l-0.5,0l-0.1,0.3l-0.1-0.1l-0.5-0.2l-0.2,0.1l-1.4,0.1l-0.6,0.3l-0.2-0.2l-0.4-0.2
		l-0.4,0.1l-1.4,0.1l-0.4,0.1l-0.3,0.2l-0.2-0.1l-0.8,0l-0.2-0.1l-0.3,0.1L95,96.4l-0.3,0l-0.5,0.3l-0.2-0.3l-0.5,0l-0.6,0.2l-0.7,0
		l-0.4-0.2l-0.3,0.1l-0.8-0.1l-1.8,0.2l-0.2-0.1l-0.1,0l-0.3-0.2l-0.5,0.2l-0.4-0.2l-0.6,0.2l-1.8,0l-0.4,0.1l-0.4,0.2l-0.1-0.2
		L84,96.4l-0.5,0l-0.1,0.3l-0.1-0.1l-0.5-0.2l-0.2,0.1l-1.4,0.1l-0.6,0.3l-0.2-0.2L80,96.4l-0.4,0.1l-1.4,0.1l-0.4,0.1l-0.3,0.2
		l-0.2-0.1l-0.8,0l-0.2-0.1L76,96.8l-0.4-0.2l-0.3,0l-0.5,0.3l-0.2-0.3l-0.5,0l-0.6,0.2l-0.7,0l-0.4-0.2L72,96.8l-0.8-0.1l-1.8,0.2
		l-0.2-0.1l-0.4,0l-0.5,0.1l-0.8,0.4l-0.1,0.5l0.1,0.9l-0.1,0.1l0,0.4l0.2,0.6l-0.1,0.2l0.2,0.1l0.1,0.2l-0.3,0l0.1,0.4l0,0.3l0.2,0
		l0.1,0.2l-0.3,0.1l0,0.7l0.1,0.2l0.2,0.1l0,0.5l0.3,0.2l0.7,0.1l0-0.4l0.2,0.2l0,0.3l0.3,0l0.4-0.2l0.4,0.2l0.3,0l-0.1-0.2l0.1-0.1
		l0.3,0.2l0.4,0.1l0.2-0.3l0.3,0.2l0.3,0l0.4-0.3l0.3,0.3l0.3-0.3l0.1,0.2l0.1,0.1l1.6,0l0.2,0.1L75,103l0.2,0l-0.1-0.1l-0.2-0.1
		l-0.1-0.1l0.5,0.2l-0.1,0.2l0.1,0.1l0.4,0l0.4-0.1l0-0.3l0.1-0.1l0.2-0.1l0.1,0.2l0.1,0l0.4-0.2l0.3,0.4l0.3,0l0.1-0.2l0-0.3
		l0.2-0.1l0,0.3l0.2,0.2l0.7,0.1l0.5,0l0.2-0.1l0.1-0.1l-0.3,0.1l0.1-0.2l0.2-0.1l0.4,0.1l0.1,0.1l0.1,0.2l0.7-0.1l0.1-0.2l0.2,0.1
		l0.4,0.1l0.4-0.2l0.3-0.3l0.1,0.3l0.2,0.1l0.5-0.4l0.2,0l-0.2,0.4l0.5-0.1l0.9,0l-0.1-0.1l-0.3-0.1l0.1-0.2l0.2-0.1l0.3,0.2
		l1.2,0.3l0.5,0l0.6-0.1l0.9,0l0.5,0.1l0,0l0,0l0.1-0.1l0,0.2l0.3,0l0.4-0.2l0.4,0.2l0.3,0l-0.1-0.2l0.1-0.1l0.3,0.2l0.4,0.1
		l0.2-0.3l0.3,0.2l0.3,0l0.4-0.3l0.3,0.3l0.3-0.3l0.1,0.2l0.1,0.1l1.6,0l0.2,0.1l0.3-0.2l0.2,0l-0.1-0.1l-0.2-0.1l-0.1-0.1l0.5,0.2
		l-0.1,0.2l0.1,0.1l0.4,0l0.4-0.1l0-0.3l0.1-0.1l0.2-0.1l0.1,0.2l0.1,0l0.4-0.2l0.3,0.4l0.3,0l0.1-0.2l0-0.3l0.2-0.1l0,0.3l0.2,0.2
		l0.7,0.1l0.5,0l0.2-0.1l0.1-0.1l-0.3,0.1l0.1-0.2l0.2-0.1l0.4,0.1l0.1,0.1l0.1,0.2l0.7,0l0.1-0.2l0.2,0.1l0.4,0.1l0.4-0.2l0.3-0.3
		l0.1,0.3l0.2,0.1l0.5-0.4l0.2,0l-0.2,0.4l0.5-0.1l0.9,0l-0.1-0.1l-0.3-0.1l0.1-0.2l0.2-0.1l0.3,0.2l1.2,0.3l0.5,0l0.6-0.1
		L107.6,102.6z M74.5,97.2l0.1,0.1l-0.1,0.2L74.5,97.2z M81.4,99.7l0.2,0l-0.1,0.5l-0.2,0.1l-0.1-0.2L81.4,99.7z M75.8,100.4
		l-0.2-0.1l0-0.1l0.1-0.1l0.2,0.1L75.8,100.4L75.8,100.4z M98.9,100.8l0,0.2l-0.2,0.1l-0.3-0.3l0-0.2l0.1-0.1l0.2-0.1L98.9,100.8z
		 M101.7,100.2l0.2,0l-0.2,0.2l-0.2,0.1l0-0.2L101.7,100.2z M98.1,101.1L98,101l0.1-0.1l0.1,0.1L98.1,101.1z M85.7,99.3l-0.2-0.1
		l0.1-0.2l0.2,0.1L85.7,99.3z M94.3,99.6l0.1-0.2l0.1,0.2l0,0.2L94.3,99.6z M92.3,99.8l0-0.2l0-0.2l0.2,0.1l0.1,0.2L92.3,99.8z
		 M96.1,99.5l-0.3-0.2l0.1-0.2l0.2,0.1l0.2,0.4L96.1,99.5z M97.2,99.1l-0.1-0.2l0.1-0.2l0.2,0.2l0,0.2L97.2,99.1z M90.4,99.4l0,0.2
		l-0.2-0.1l0-0.2L90.4,99.4z M87,99.8l0.1,0.2l-0.2,0l-0.1-0.1L87,99.8L87,99.8z M82.6,100.4l-0.2,0.2l-0.2,0.1l0-0.2l0.2-0.2
		L82.6,100.4z M85.9,100.3l0.4,0.1l0,0.2l-0.2,0l-0.1-0.1L85.9,100.3z M81.4,101l-0.1,0.3l-0.2-0.1l0-0.2l0.1-0.1L81.4,101z
		 M92.7,100.8l0.1,0.1l-0.1,0.1L92.7,100.8z M91.2,101.1L91,101l0.2-0.1L91.2,101.1z M90.1,101.3l0.2,0l-0.1,0.2l-0.1,0l-0.1-0.1
		L90.1,101.3z M93.9,101.1l0.2,0l-0.1,0.2l-0.2,0.1l-0.1-0.2L93.9,101.1z M94.7,101.1l0.1-0.1l0.1-0.1l0.2,0l-0.1,0.2l-0.2,0.1
		L94.7,101.1z M96.2,100.6l-0.3,0l-0.1-0.2l0.1-0.3l0.3,0L96.2,100.6z M90.3,100.6l-0.2-0.2l0.1-0.2l0.2,0l0,0.3L90.3,100.6z
		 M95,100.1l0-0.1l0.1-0.1l0.2,0.1l0,0.1l-0.1,0.1L95,100.1z M98,99.6l0-0.2l0.1,0l0.2,0l-0.1,0.2l-0.1,0.1L98,99.6z M99,99.1
		l-0.1-0.2l0.3-0.1l0.1-0.2l0.2,0.1l0.1,0.2l0,0.2l-0.2,0.1L99,99.1z M100.2,98.8l-0.1-0.1l0.1-0.2l0.3,0l0,0.3l-0.1,0.1L100.2,98.8
		z M102,98.3l0.2,0.1l0,0.1l-0.2,0.1L102,98.3z M103.7,98.3l0.1-0.2l0.2,0l0.1,0.3l-0.2,0L103.7,98.3z M105,97.9l0.1-0.1l0.1,0.2
		L105,97.9z M83.5,98.8l0.1,0.2l0,0.2l-0.1,0.2l-0.1-0.1l-0.2-0.3l0.1-0.1L83.5,98.8z M82.7,98.8l0-0.3l0.2,0.1l0,0.1L82.7,98.8z
		 M81.2,98.9l-0.1,0.1l-0.2,0l-0.1-0.1l0.1-0.2l0.3,0L81.2,98.9z M80.1,99l0.1,0.2l0,0.2L80,99.5l-0.4-0.2l-0.1-0.2l0.3-0.1l0.1-0.2
		L80.1,99z M82.3,99.3l0.2,0l0.2,0.4l0,0.2l-0.4-0.2l-0.1-0.2L82.3,99.3z M83,100l0.5,0l-0.1,0.2l-0.3,0L83,100z M79.5,101l0,0.2
		l-0.2,0.1L79,101l0-0.2l0.1-0.1l0.2-0.1L79.5,101z M78.8,101.4l-0.1-0.1l0.1-0.1l0.1,0.1L78.8,101.4z M78.5,101.2l0.1,0.2l-0.2,0
		l0,0.2l-0.5-0.2l0.1-0.2l0.2,0L78.5,101.2z M96.4,101.4l0,0.3l-0.1-0.1L96.4,101.4z M103.4,100.9l0,0.1l-0.1,0l0-0.1L103.4,100.9z
		 M97.3,101.2l0.1-0.2l0.2,0l0.2,0.1l0.1,0.2l-0.2,0l0,0.2L97.3,101.2z M100.7,101l-0.2-0.1l0-0.2l0.1-0.1l0.1,0.1L100.7,101z
		 M105.6,100.2l0,0.2l-0.2,0l-0.1-0.1l0-0.2L105.6,100.2z M106.7,99.5l-0.1,0.3l-0.3-0.1l-0.1-0.1l0.1-0.1l0.2,0L106.7,99.5z
		 M102.8,99.8l-0.1,0.2l-0.3,0l-0.1-0.2L102.8,99.8z M100.6,100l-0.1-0.2l0.1-0.4l0.2,0l-0.1,0.5L100.6,100z M102,99.4l0,0.2
		l-0.4-0.2l-0.1-0.2l0.1-0.1l0.2,0L102,99.4z M105.2,98.9l-0.1,0.1l-0.2-0.1l0.1-0.2L105.2,98.9z M103,98.8l0,0.2l-0.1,0.2l-0.1-0.1
		l-0.2-0.3l0.1-0.1l0.2,0.1L103,98.8z M107.1,98.1l-0.1,0.2l-0.1-0.1l0.1-0.2L107.1,98.1z M108.4,97.6l0,0.2l-0.2,0l-0.1-0.1l0-0.2
		L108.4,97.6z M99.5,98.1l0.1,0.3l-0.2-0.1l-0.1-0.1l0-0.2L99.5,98.1z M95.8,98.2l-0.2,0.1l0-0.3L95.8,98.2z M103.4,97.1l0,0.1
		l-0.1,0l0-0.1L103.4,97.1z M104.9,96.4l-0.1,0.2l-0.7,0.2l0-0.3l0.1,0L104.9,96.4z M91,97.6l0.1,0.2l-0.2,0l-0.1-0.2L91,97.6z
		 M94,97l-0.1,0.2L93.8,97L94,97z M71.5,97.8l0.2,0l0.1,0.2l-0.2,0L71.5,97.8z M68.3,98.3l0.1,0l0.1,0.1L68.3,98.3z M84.8,96.7
		l0.1,0l0.6,0l-0.1,0.2l-0.7,0.2L84.8,96.7z M84,97.5l0-0.1l0.1,0l0,0.1L84,97.5z M76.2,98.2l0.2,0.2l-0.2,0.1L76.2,98.2z
		 M80.1,98.5l-0.1-0.1l0-0.2l0.2,0.1l0.1,0.3L80.1,98.5z M85.8,98.1l0.1,0.2l-0.3-0.1L85.8,98.1z M84.7,98.3l0.1,0.3l-0.2,0
		l-0.2-0.1l0.1-0.2L84.7,98.3z M78,99.2l0,0.2l-0.2,0l-0.1-0.2l0.1-0.2L78,99.2z M77,99.8l-0.2,0l-0.3-0.2l0.1-0.2l0.2,0.1L77,99.8z
		 M70.9,99.8l0-0.2l0.1,0.1l0,0.2L70.9,99.8z M72.9,99.9l0-0.2l0.2,0.1l0.1,0.2l-0.3,0.1L72.9,99.9z M75,99.9l0.1-0.2l0.1,0.2l0,0.2
		L75,99.9z M78.7,99.6l0.1,0l0.2,0l-0.1,0.2l-0.1,0.1l-0.1-0.1L78.7,99.6z M70.8,100.7l0.1-0.2l0.2,0l0,0.3l-0.1,0.1L70.8,100.7z
		 M76.6,100.4l0.3,0l0,0.5l-0.3,0l-0.1-0.2L76.6,100.4z M73.5,101.1l-0.1,0.1l0-0.2L73.5,101.1z M71.7,101.3l0.2-0.1l-0.1,0.2
		L71.7,101.3z M75.8,101l-0.1,0.2l-0.2,0.1l-0.2,0l0.1-0.1l0.1-0.1L75.8,101z M70.7,101.7L70.7,101.7l0-0.2l0.2,0l-0.1,0.2
		L70.7,101.7z M74.4,101.6l0.1-0.2l0.2,0l-0.1,0.2l-0.2,0.1L74.4,101.6z M76.9,101.7l0.2-0.1l0,0.3L76.9,101.7z M84,101.3l0-0.1
		l0.1,0l0,0.1L84,101.3z M79.1,102.2l-0.1-0.1l0.1-0.1l0.2,0.1l0,0.2L79.1,102.2z M82.6,101.9l0.1-0.2l0.2-0.1l0,0.2l-0.1,0.1
		L82.6,101.9z M78.7,102.6l0.1,0.2l-0.6,0l-0.1-0.3l0.2-0.1L78.7,102.6z M98.4,102l-0.1-0.1l0.1-0.1l0.2,0.1l0,0.2L98.4,102z
		 M101.9,101.7l0.1-0.2l0.2-0.1l0,0.2l-0.1,0.1L101.9,101.7z M98,102.4l0.1,0.2l-0.6,0l-0.1-0.3l0.2-0.1L98,102.4z"/>
	<g>
		<path class="st17" d="M46.1,13.9c-0.6-0.6-1.3-1-1.9-1.2s-1.3-0.4-2.1-0.4c-1.5,0-2.7,0.5-3.6,1.4s-1.4,2.1-1.4,3.7
			c0,1.5,0.4,2.7,1.3,3.6s2,1.3,3.4,1.3c0.8,0,1.6-0.1,2.3-0.4s1.4-0.7,2-1.2l0,3.1c-0.7,0.4-1.3,0.7-2,0.9s-1.5,0.3-2.3,0.3
			c-2.3,0-4.1-0.7-5.6-2.1S34,19.5,34,17.4c0-2.2,0.7-4,2.2-5.4s3.4-2.1,5.7-2.1c0.8,0,1.5,0.1,2.2,0.2s1.4,0.4,2.1,0.8L46.1,13.9z"
			/>
		<path class="st17" d="M63.6,17.4c0,1-0.2,2-0.6,2.9s-0.9,1.7-1.6,2.4c-0.7,0.7-1.6,1.3-2.5,1.6S57,24.9,56,24.9
			c-0.9,0-1.7-0.1-2.6-0.4s-1.6-0.7-2.3-1.3c-0.9-0.7-1.6-1.6-2.1-2.6s-0.7-2.1-0.7-3.2c0-1,0.2-2,0.6-2.9s0.9-1.7,1.7-2.4
			c0.7-0.7,1.5-1.2,2.5-1.6S55,9.9,56,9.9c1,0,2,0.2,2.9,0.6s1.8,0.9,2.5,1.6c0.7,0.7,1.3,1.5,1.7,2.4S63.6,16.4,63.6,17.4z
			 M56,22.2c1.3,0,2.4-0.5,3.2-1.4s1.3-2,1.3-3.4c0-1.4-0.4-2.5-1.3-3.4s-1.9-1.4-3.2-1.4c-1.3,0-2.4,0.5-3.2,1.4s-1.3,2.1-1.3,3.4
			c0,1.4,0.4,2.5,1.3,3.4S54.7,22.2,56,22.2z"/>
		<path class="st17" d="M66.2,24.5V10.2h3.2l6.3,8.3c0.2,0.2,0.4,0.6,0.6,1s0.4,0.9,0.7,1.5c-0.1-0.4-0.1-0.8-0.2-1.3s0-0.9,0-1.6
			v-8h2.9v14.3h-3L70.2,16c-0.2-0.2-0.4-0.6-0.6-1s-0.4-0.9-0.7-1.5c0.1,0.4,0.1,0.8,0.2,1.2s0,0.9,0,1.6v8.2H66.2z"/>
		<path class="st17" d="M88.2,12.8v11.7h-3.1V12.8h-3.5v-2.6h10.1v2.6H88.2z"/>
		<path class="st17" d="M90.9,24.5l5.4-14.3h3.5l5.5,14.3h-3.5l-1.2-3h-5.5l-1,3H90.9z M100,19.1l-1.6-4.6c0-0.1-0.1-0.4-0.2-0.7
			S98.1,13,98,12.5c-0.1,0.5-0.2,0.9-0.2,1.2s-0.1,0.6-0.2,0.7l-1.5,4.6H100z"/>
		<path class="st17" d="M118,13.9c-0.6-0.6-1.3-1-1.9-1.2s-1.3-0.4-2.1-0.4c-1.5,0-2.7,0.5-3.6,1.4s-1.4,2.1-1.4,3.7
			c0,1.5,0.4,2.7,1.3,3.6s2,1.3,3.4,1.3c0.8,0,1.6-0.1,2.3-0.4s1.4-0.7,2-1.2l0,3.1c-0.7,0.4-1.3,0.7-2,0.9s-1.5,0.3-2.3,0.3
			c-2.3,0-4.1-0.7-5.6-2.1s-2.2-3.2-2.2-5.4c0-2.2,0.7-4,2.2-5.4s3.4-2.1,5.7-2.1c0.8,0,1.5,0.1,2.2,0.2s1.4,0.4,2.1,0.8L118,13.9z"
			/>
		<path class="st17" d="M126.2,12.8v11.7h-3.1V12.8h-3.5v-2.6h10.1v2.6H126.2z"/>
		<path class="st17" d="M146,17.4c0,1-0.2,2-0.6,2.9s-0.9,1.7-1.6,2.4c-0.7,0.7-1.6,1.3-2.5,1.6s-1.9,0.6-2.9,0.6
			c-0.9,0-1.7-0.1-2.6-0.4s-1.6-0.7-2.3-1.3c-0.9-0.7-1.6-1.6-2.1-2.6s-0.7-2.1-0.7-3.2c0-1,0.2-2,0.6-2.9s0.9-1.7,1.7-2.4
			c0.7-0.7,1.5-1.2,2.5-1.6s1.9-0.6,2.9-0.6c1,0,2,0.2,2.9,0.6s1.8,0.9,2.5,1.6c0.7,0.7,1.3,1.5,1.7,2.4S146,16.4,146,17.4z
			 M138.4,22.2c1.3,0,2.4-0.5,3.2-1.4s1.3-2,1.3-3.4c0-1.4-0.4-2.5-1.3-3.4s-1.9-1.4-3.2-1.4c-1.3,0-2.4,0.5-3.2,1.4
			s-1.3,2.1-1.3,3.4c0,1.4,0.4,2.5,1.3,3.4S137.1,22.2,138.4,22.2z"/>
		<path class="st17" d="M14.3,39.3l0.2-0.2l0.2,0l0.7,0.2l-0.2,0.3l0.5,0.2l0.2-0.3l0.2,0.1v0.5l0.2,0.2v2.5l-0.1,0.2L16.1,43
			l0.4,0.5l-0.2,2.1l0.2,1.5l-0.2,0.7l0.2,0.3l-0.2,2.1l0,0.4l0.2,0.5l0.3,0.2l1.6,0.6l0.4-0.2l0.5-0.1l0.7,0.1l0.2,0.2l0.4-0.2
			l1-0.2l0.4,0.2l0.2-0.1l0.2,0l0.8,0.1l0.2-0.1l0.8,0.3l0.3-0.2h1.1v0.2l0.1-0.2l0.6,0.1l0.6-0.2l1.3,0.2l1.1-0.7l-0.1-1.3l0.2-0.4
			l-0.2-0.7l0.1-1.5l0-0.5L29.3,46l0.2-0.5l-0.1-1l0.1-0.8l-0.1-1.2l0.1-0.2l-0.2-0.5l0.1-1.3h0.3l-0.1-0.2l-0.2,0l0.2-0.5l0.4-0.7
			l0.4,0.1l0.2-0.3l0.3,0l0,0.2l-0.2,0.3l0.5-0.1l0.1-0.4l0.2,0l0.4,0.2l0.6-0.2l1.9,0l0.9-0.1l-0.1,0.5l0.1,0.2l0.3,0l0.2-0.2v-0.2
			l0.2-0.1h0.9l0.1,0.2v0.3l0.2-0.2l-0.1-0.3l0.3,0.1l0.3,0.4l0.1,0.5l0.2,0.3v0.3l-0.1,0.1l-0.1-0.1l-0.2,0.2l0,0.3l0.2,0.1
			l0.2-0.1l0,0.2l-0.2,0.4l0,0.3l-0.1,0.2l0.3,0.3l0,1.2l-0.2,0.3l0.2,0.2l0,0.2l-0.2,0.2l0.1,0.2l0.1,0.5l-0.2,0.5l-0.2,0.2
			l0.4,0.5v0.3l-0.2,0.4l0.3,1.4l-0.2,0.2v0.2l0.2,0.5l-0.2,0.1l-0.5-0.1l0,0.2l0.2,0.1l0.2,0l0.1,0.5l-0.2,0.1l0.3,0.1v2.1l0.1,0.6
			L38,53.9l0,2l-0.1,1l-0.2,0.7l0.1,0.4l0.1,2.1l0.1,0.5l-0.3,0.2l0.2,0.8l-0.1,0.4l-0.1,0.2l0.1,0.2l0.1,0.4l0,1.7l-0.4,0.3
			l0.1,0.1l0.3,0l0,1.1l-0.2,0.5l0.3,0.4l-0.2,1L37.6,68l0.4,0.6l-0.2,1l0.2,0.8l-0.6,0.8l-0.5,0.4l-0.4-0.1l-0.7,0.2l-2.1-0.2
			L33,71.6l-0.2-0.1l-0.1-0.2l-0.2,0.1h-1l-1,0.2l-0.4-0.2l0.1-0.3h0.2l0.3,0.3v-0.2l-0.4-0.5l-0.3,0.3l-0.3,0l-0.1-0.5l-0.2-0.2
			l0.1-0.4l-0.1-0.2l0.5-0.2l0-0.3l-0.4,0.3l0-0.2l0.1-0.7l0-0.2l-0.2-0.2l0.2-0.6l-0.2-0.7v-0.3l0.1-0.4l-0.2-0.6l0.1-0.2h0.3
			l0.2-0.1l-0.2-0.2L29.5,65l0.1-0.5l-0.1-0.7l0.1-0.2L29.3,63l0.1-0.5l0.1-1l0-0.8l0.2-0.3L29,59.7l-2.1-0.2l-0.7,0.1l-0.2-0.5
			l-0.5,0.1l0.2,0.4l-0.2,0l-0.4-0.1l-1.6,0.1l-0.4-0.2l-0.4,0.2l-0.5-0.2l-1.5,0.2l-1.2-0.2l-0.5,0.2h-1l-0.6-0.1L17,59.9l-0.7,1.1
			l0.2,0.5l-0.1,0.7l0.1,0.2l-0.2,0.4l0.2,0.7l-0.2,0.7l0.1,0.2l0,0.5l-0.1,1.1l0.1,1.2l-0.2,0.5l0.2,0.5l-0.2,0.2v0.4l-0.1,0.2
			l0.2,0.7l-0.1,0.5l0.1,0.2l-0.2,0.4v0.3l-0.4,0.2L15,71.6l-2.1,0l-1,0.1l-0.2,0l-0.1-0.2l-0.2,0.1l-0.6,0l-0.5-0.2l-0.2-0.2
			L10,71.6H9l-0.4-0.2l-0.2-0.2l-0.3-0.5l0-1.5L8,69.1l0.2-0.5v-0.5L8,67.7l0.1-0.3l0.2-0.2L8,66.3l-0.1-1l0.3-0.1L8,64.8l0.1-1
			l0.1-0.2L8,63.6l0.2-0.3L8,62.5L8.1,62l0.2-0.2L8,61.8l-0.2-0.2L8,61.1l-0.1-1.6l0.2-0.7l-0.2-0.4l0-0.2h0.5l0-0.3L8,57.7
			l-0.1-1.2l0.2-0.7L8,55.5l0-1.1L8.1,54L8,53.5l0-1.1l0.2-0.3v-0.5L8,50.4L8.2,50l-0.1-0.2l0-0.5l-0.2-0.5L8,47.8l0.5-0.1l0-0.2
			L8,47.4l-0.1-2l-0.1-0.5l0.3-0.6L8,43.4l0.4-0.2L8,42.7l0.1-0.3v-0.5l0.1-0.2L8,41.6v-0.2l0.2,0L8,40.7l0.2-0.2l0.3,0v-0.3L8.1,40
			l0.1-0.5L8.8,39l1.2,0.2l1-0.3l0.5,0l0.2,0.1l1-0.1l0.2,0.1l0.4-0.2l0.5,0l0.2,0.1L14.3,39.3z M8.6,50.2h0.2L8.8,50l-0.2,0V50.2z
			 M9.9,58.3l-0.1-0.2L9.5,58l0.1,0.2l0.2,0.1L9.9,58.3z M9.6,65.5l0.2,0.2l0.3,0l-0.1-0.2l-0.2-0.1L9.6,65.5z M10.5,59.7l-0.1-0.2
			l-0.2,0.1l0.2,0.1L10.5,59.7z M10.4,68.4l0-0.2l-0.1-0.1l0,0.2L10.4,68.4z M10.4,62.2l0.1,0.2l0.5,0.1l0.1-0.3L10.9,62h-0.4
			L10.4,62.2z M10.5,50.2l0.1,0.2l0.2,0l-0.1-0.2L10.5,50.2z M10.6,59h0.2l0.1-0.2l-0.2,0L10.6,59z M10.6,57.4v0.2l0.5,0.2l0.2-0.1
			l-0.1-0.2l-0.2-0.2l-0.2,0L10.6,57.4z M10.7,41.7l0.2,0.1l-0.2-0.2V41.7z M10.7,55.2l0.2-0.1L10.7,55V55.2z M10.7,61.6l0.2,0
			l0.1-0.1l-0.2,0L10.7,61.6z M11.2,53.2l-0.1-0.2l-0.2-0.1l0,0.3l0.2,0.1L11.2,53.2z M11.2,65.2l0.2-0.1l0-0.3h-0.2L11.1,65
			L11.2,65.2z M11.2,51.8l0.2,0.1l-0.2-0.2V51.8z M11.3,56.8l0.2-0.1l0-0.3l-0.2-0.2l-0.1,0.3L11.3,56.8z M12,63.4l-0.1-0.2
			l-0.5-0.1l0.1,0.2l0.2,0.1L12,63.4z M11.6,59.2h0.2L11.7,59L11.6,59.2L11.6,59.2z M11.6,50.4l0.1,0.1l0.1-0.2L11.6,50.4L11.6,50.4
			z M11.6,51.2l0.2-0.2h-0.2L11.6,51.2z M11.7,49.7l0.2,0.1l0.3,0l0.1-0.1l-0.2-0.1h-0.3L11.7,49.7z M11.8,58.4l0.1,0.2l0.2,0v-0.3
			L11.8,58.4z M12.2,57.3l0-0.2l-0.1-0.2l-0.2-0.1L11.8,57v0.2l0.2,0.1L12.2,57.3z M12.1,53.9l0.1-0.2l-0.1-0.4h-0.2l-0.1,0.2
			l0.1,0.2L12.1,53.9z M11.8,61.6l0.1,0.2l0.4,0.2l0.2-0.2l-0.2-0.3l-0.2,0L11.8,61.6z M11.9,65.7l0,0.2l0.4,0.2h0.2l0.1-0.3
			l-0.1-0.2h-0.5L11.9,65.7z M12.4,44.9l0-0.2l-0.1-0.1l0,0.2L12.4,44.9z M12.3,55.1l0.1,0.2l0.2,0.1h0.1l-0.1-0.3H12.3z M12.3,60
			l0.5,0.2l0.3,0l-0.2-0.3l0-0.2l-0.3,0l-0.2,0.1L12.3,60z M13.1,50.4l0-0.4l-0.2,0l-0.1,0.2l0.1,0.2L13.1,50.4z M12.8,64H13
			l-0.2-0.2V64z M12.8,49.2l0,0.2l0.2,0l0.2-0.1l0.1-0.2l-0.3-0.1L12.8,49.2z M13.1,53.1l0.2-0.1l0.1-0.3l-0.2,0L13,52.9L13.1,53.1z
			 M13.4,62.8l0-0.2h-0.2l0.1,0.2L13.4,62.8z M13.5,48v-0.2l-0.2,0L13.5,48z M13.4,56.8l0.2,0.1h0.2l0.2-0.2l-0.3-0.1L13.4,56.8z
			 M13.7,52.2V52l-0.1-0.1L13.7,52.2z M13.9,59.7l-0.1-0.3l-0.2-0.1l0,0.2l0.1,0.2L13.9,59.7z M13.9,56v-0.2l-0.2,0L13.9,56z
			 M13.8,53.4l0.5,0.4l0.4-0.2v-0.2l-0.2,0.1l-0.4-0.1L13.8,53.4z M13.8,66.7H14l0.1-0.2h-0.2L13.8,66.7z M13.9,58l0.2,0l0.1-0.1
			l-0.2,0L13.9,58z M14,44.7h0.2l0-0.2L14,44.4V44.7z M14.1,49.6l0.1-0.2l-0.2-0.1L14,49.5L14.1,49.6z M14.3,54.7H14l0,0.2h0.2
			L14.3,54.7z M14.1,58.7l0.2-0.1l0-0.2l-0.2,0L14.1,58.7z M14.2,57.5l0.1-0.2l-0.2-0.1L14.2,57.5z M14.4,51.5h0.5l-0.1-0.2
			l-0.2-0.1l-0.2,0.1L14.4,51.5z M14.8,67.3l0.1,0.2l0.2,0L15,67.2L14.8,67.3z M15.1,55.5l0-0.4l-0.2-0.1l-0.1,0.2l0,0.2L15.1,55.5z
			 M15,56.3l0-0.2L14.8,56l0,0.2L15,56.3z M15,54.1l0.1,0.2h0.2l0.1-0.1L15.4,54l-0.2,0L15,54.1z M15.1,56.9h0.2l0.1-0.2h-0.2
			L15.1,56.9z M16.1,54.6l0.1-0.2L16,54.3l-0.1,0.2L16.1,54.6z M16.3,53.9l0.2-0.3l-0.2-0.2L16,53.4l0,0.2l0.1,0.2L16.3,53.9z
			 M16.6,56.5V56l-0.2,0l-0.1,0.2l0.1,0.2L16.6,56.5z M16.5,57.4l0-0.3L16.4,57l-0.1,0.2L16.5,57.4z M17.7,53.1L17.6,53l-0.2-0.1
			l-0.1,0.2l0.2,0.1L17.7,53.1z M17.5,55.8l0.2,0.1l0.2-0.1l0.1-0.2v-0.3l-0.2,0l-0.2,0.1l-0.1,0.2L17.5,55.8z M17.7,57l0.2-0.1
			l0-0.3h-0.2l-0.1,0.2L17.7,57z M18.4,53.7h0.2v-0.2h-0.2V53.7z M18.7,55.3l0.3,0.1l0.2-0.1l0.1-0.2l-0.2-0.1l-0.4,0.2L18.7,55.3z
			 M19,57.7V58l0.2,0l0.2-0.1l0.1-0.2h-0.2L19,57.7z M20.2,55.9l0.1-0.3l-0.2-0.1L20,55.8L20.2,55.9z M20.1,54.4l0.1,0l-0.1,0.1
			l0,0.2l-0.1,0.1l0.1,0.2l0.2-0.1l0.2-0.4l0-0.2l-0.3-0.1L20.1,54.4z M20.2,53.4l0.5,0.2l-0.1-0.5h-0.3V53.4z M20.2,57.2h0.2v-0.1
			h-0.2V57.2z M21.1,56.3l-0.3-0.5l-0.2-0.2l0.1,0.5l0.2,0.1H21.1z M21.1,55.4l0.2,0.2l0.2-0.1l0-0.2l-0.3,0L21.1,55.4z M21.7,54.3
			L21.6,54l-0.2,0l0,0.2L21.7,54.3z M21.6,57l0.4,0.2l0.2,0l0.2-0.5l-0.6-0.1l-0.1,0.2L21.6,57z M22.2,56h0.2l-0.1-0.2l-0.2-0.1V56z
			 M22.9,53.4h0.2v-0.2H23L22.9,53.4z M23.5,56.6l-0.1-0.2l-0.2-0.1l-0.1,0l0.2,0.2H23.5z M23.5,56.1v-0.2h-0.2l0,0.2L23.5,56.1z
			 M24,54.3h0.1v-0.1H24V54.3z M24.4,56.2h0.4V56l-0.1-0.2l-0.2-0.1l-0.1,0.2L24.4,56.2z M24.5,55.7h0.2l-0.1-0.2L24.5,55.7z
			 M25.2,54.8l-0.1-0.1h-0.2l0.1,0.2L25.2,54.8z M25.4,53.7v0.2l0.2-0.1L25.4,53.7L25.4,53.7z M25.7,55.2l0.3,0.1l0-0.2L26,54.9
			L25.7,55.2z M26,58h0.2l0.2-0.1l0-0.2l-0.3,0.1L26,58z M26.5,57l0-0.2l-0.2-0.1l0,0.2L26.5,57z M27.5,55.1l-0.2-0.2l0.1-0.3
			l-0.3-0.1L27,54.6l0,0.2L27,55l0.2,0.1L27.5,55.1z M27.7,57.3l-0.4-0.1l0.1,0.3l0.2,0L27.7,57.3z M27.9,56.7l0-0.5l-0.3-0.4
			L27.4,56l0.1,0.2l0.2,0.2L27.9,56.7z M27.9,52.8l-0.2,0.1l0.1,0.1L27.9,52.8z M28,54.1l0.1,0.2l0.3,0.1l0.1-0.3l-0.2-0.2L28,54.1z
			 M28.4,57h0.2l-0.2-0.2V57z M28.4,58.2l0.2,0l0.1-0.2L28.5,58L28.4,58.2z M28.9,55.7l0-0.2l-0.1-0.1v0.2L28.9,55.7z M29.2,55v0.2
			l0.1,0.1h0.2v-0.3L29.2,55L29.2,55z M29.7,54.1l0.1-0.5l-0.1-0.2l-0.2-0.1l-0.2,0.2l0,0.3l0.1,0.2L29.7,54.1z M30.1,56.8v-0.5
			l-0.3,0l-0.1,0.2v0.2l0.2,0.1L30.1,56.8z M29.9,53.1l0.1-0.2l0-0.1h-0.2L29.9,53.1z M29.9,55.3l0.2-0.1l-0.2-0.1V55.3z M30.2,59.5
			l0.3-0.1l0.1-0.3L30.4,59h-0.3l0,0.2L30.2,59.5z M30.3,55.8L30.3,55.8l-0.1-0.2L30.3,55.8z M30.3,54.8h0.2l0.2-0.3v-0.2l-0.3,0.1
			l-0.1,0.2L30.3,54.8z M30.4,66.6l0-0.2l-0.1-0.1L30.4,66.6z M30.5,61.8l0.2,0.1l0.2-0.2l-0.2,0L30.5,61.8z M30.8,58.3V58h-0.2
			l0,0.2L30.8,58.3z M30.9,55.7l0,0.3l0.1,0.2l0.2,0.1l0.2-0.2l0-0.2l-0.1-0.2l-0.3,0L30.9,55.7z M31,65.5v0.1l0.1-0.1L31,65.5
			L31,65.5z M31.3,54.8l-0.1-0.3l0,0.2L31.3,54.8z M31.7,66.8l-0.3,0.4l0.1,0.3h0.3l0.1-0.5L31.7,66.8z M31.4,55.3l0.2,0.2l-0.1-0.3
			L31.4,55.3z M32,49.9l-0.6-0.2l0,0.2l0.2,0.2l0.2,0L32,49.9z M31.5,51.3h0.2l0.1-0.2h-0.2V51.3z M31.5,54.1l0.3,0.1l0.2-0.1l0-0.3
			l-0.2,0l-0.2,0.1L31.5,54.1z M31.5,58.8l0.3,0l0.1-0.2l-0.2-0.2l-0.1,0.2L31.5,58.8z M31.6,57.3l0.2,0l0.2-0.1L32,57h-0.2
			l-0.2,0.1L31.6,57.3z M31.7,62.6H32l-0.1-0.2h-0.2L31.7,62.6z M32.1,45l-0.2-0.1l-0.1,0.2L32.1,45z M31.9,43.9l0.5,0.2l0-0.2
			L32,43.5L32,43.6L31.9,43.9z M32,60.2l0.1-0.2L32,59.9l-0.1,0.2L32,60.2z M32.2,53.2l0.1-0.2v-0.3L32,52.5l0,0.5L32.2,53.2z
			 M32,61.7l0.3-0.1L32,61.5V61.7z M32.1,55.7l0.4,0l0-0.3l-0.2-0.2L32.1,55.7z M32.1,56.7h0.2l-0.1-0.2L32.1,56.7z M32.2,64.3
			l0.2,0l0.3-0.4l0-0.2l-0.2-0.1l0,0.3l-0.2,0.2L32.2,64.3z M32.3,48.3l0.2,0.1l0.3,0l0.1-0.2l-0.2-0.2l-0.2,0.2L32.3,48.3z
			 M32.3,54.3l0.2-0.1l0.1-0.2l-0.2,0L32.3,54.3z M32.6,52.1l0.1-0.4l-0.2,0L32.4,52L32.6,52.1z M32.4,58.3l0.4,0.2l0.2,0l0.1-0.2
			l0-0.4h-0.5L32.5,58L32.4,58.3z M32.5,42.1l0.3,0.1V42l-0.2-0.1L32.5,42.1z M32.5,59.2l0,0.2l0.1,0.2l0.2,0l0.1-0.2l0-0.2
			l-0.2-0.1L32.5,59.2z M32.7,47.1L33,47l-0.1-0.5l-0.2,0l-0.1,0.2l0,0.2L32.7,47.1z M32.6,50.9h0.3l-0.2-0.2L32.6,50.9z M32.6,54.7
			l0.2,0.2l0.1-0.3l-0.2-0.1L32.6,54.7z M32.8,49.6l0.5,0.1L33,49.2l-0.2,0.2L32.8,49.6z M32.8,56.7l0.2,0.2l0.1-0.2H32.8z
			 M32.8,66.5l0,0.2l0.2,0l0.1-0.1L33,66.4L32.8,66.5z M32.9,60.8l0.1,0.4l0.2,0.1l0.3-0.4l0.1-0.2l-0.2-0.1l-0.2,0.1L32.9,60.8z
			 M33.1,65.8v-0.2l-0.2,0v0.2L33.1,65.8z M33,53.5l0,0.2l0.2,0l0-0.2L33,53.5z M33,69.6h0.3l0-0.3l-0.2-0.2L33,69.3V69.6z
			 M33.5,52.6l0.1-0.7l-0.3-0.1l-0.2,0.1v0.4l0.2,0.2L33.5,52.6z M33.4,68.4l0.1-0.2L33.4,68l-0.2-0.1L33.1,68l0.1,0.2L33.4,68.4z
			 M33.4,55.1l0.4,0.1l0.2,0l0-0.3l-0.2-0.2l-0.2,0l-0.2,0.1L33.4,55.1z M33.5,56.2l0.2-0.1l-0.1-0.2l-0.2-0.1l0,0.2L33.5,56.2z
			 M33.5,47.6l0.5,0l0-0.4l-0.2,0.1L33.5,47.6z M33.7,60.1v-0.2l-0.2,0L33.7,60.1z M33.7,46l0.1,0.2l-0.2,0.1l0.5,0l0.2-0.2l0-0.2
			L34,45.8L33.7,46z M33.9,62.4l-0.1-0.2h-0.2l0.1,0.2L33.9,62.4z M33.7,50.4l0.2-0.1l-0.2-0.1V50.4z M34,54.3V54l-0.2-0.1l-0.1,0.2
			l0.1,0.1L34,54.3z M33.7,66.2l0.2,0.2h0.3l-0.1-0.3h-0.2L33.7,66.2z M33.8,59.1l0.4-0.1l0.3,0.1l0.2-0.4l-0.2-0.1l-0.5,0l-0.2,0.2
			L33.8,59.1z M34.1,65.1l0.2-0.2v-0.3L34,64.5L34,64.8L34.1,65.1z M34,69.2l0.2-0.1h0.5l0-0.2l-0.4-0.1l-0.2,0.2L34,69.2z M34.4,49
			l0.1-0.4h-0.3l0,0.2L34.4,49z M34.2,58l0.3-0.1v-0.2l-0.2-0.2l-0.2,0.1l0,0.2L34.2,58z M34.1,60.2l0.1,0.3h0.3l0.2-0.1l0.1-0.2
			L34.7,60l-0.1,0.1h-0.3L34.1,60.2z M34.2,41.7l0.2,0l0.1-0.2l-0.2-0.1L34.2,41.7z M34.3,61.6l0.2-0.1l-0.1-0.2L34.3,61.6z
			 M34.5,52.1l0.2-0.1l0-0.6l-0.2-0.1V52.1z M34.9,43.3l0.2-0.2l0-0.3l-0.2-0.1l-0.3,0l0.1,0.5L34.9,43.3z M35,63.2l-0.1-0.2
			l-0.3-0.1l0.2,0.2L35,63.2z M34.9,54.7l0.2-0.1l0-0.2L35,54.3l-0.3,0v0.4L34.9,54.7z M34.7,55.8h0.5L35,55.5h-0.2L34.7,55.8z
			 M34.7,64.2l0.1,0.2l0.2,0.1l0.2,0l0.1-0.2l-0.5,0L34.7,64.2z M34.9,65.6l0.4,0.1l0.2-0.1l-0.1-0.2l-0.2-0.1L35,65.4L34.9,65.6z
			 M35.4,58.5l-0.1-0.4H35l0.1,0.2L35.4,58.5z M35,61.8l0.2-0.1L35,61.6V61.8z M35,52.6l0.2,0l0.1-0.2l-0.2-0.1L35,52.6z M35.2,48.4
			l0.5,0.2l0.1-0.2l-0.1-0.2L35.6,48l-0.2,0.1L35.2,48.4z M35.4,59.9L36,60v-0.5l-0.2-0.1l-0.2,0.1L35.4,59.9z M35.4,68.4l0.1,0.2
			h0.3l-0.1-0.2L35.4,68.4z M35.6,67.2h0.2l0.1-0.2l0-0.2l-0.2-0.1L35.5,67L35.6,67.2z M35.6,51.3l0.3,0.2l0.2,0L36,51.2V51l0.1-0.3
			l-0.2,0l-0.2,0.1L35.6,51V51.3z M35.7,56.1l-0.1,0.2L35.7,56.1L35.7,56.1z M35.7,61.1l0.3,0.1l-0.2-0.2L35.7,61.1z M35.7,47.5
			l0.1,0.2l0.2,0.1l0.1-0.3l-0.2,0L35.7,47.5z M35.8,58.5l0.2-0.1l-0.2-0.1V58.5z M36.1,65.3h0.2v-0.1h-0.2V65.3z M36.4,62.2l-0.2,0
			l0.1,0.2L36.4,62.2z M36.4,64l0.1,0.1l0.1-0.2l-0.2-0.1L36.4,64z M37.1,70.6h0.5l-0.1-0.2l-0.2-0.1l0,0.2L37.1,70.6z M37.6,60h0.2
			v-0.2h-0.2V60z"/>
		<path class="st17" d="M71.3,40h0.5l2.2,1.4l0.2,0.3l0.1,0.2l0.2,0l0.7,0.4l0.5,0.5l0.2,0.5v0.2l0.1,0.2h0.5l-0.1,0.2l0.2,0.2
			l0,0.2l1,0.5l0.3,0.4l-0.1,0.2h-0.2l0.1,0.3l0.2,0.1l0.1,0.3l0.5-0.1l0.1,0.3l0.3,0.4l0.4,0.2l0.1,0.3l0.4,0.6v0.5l0.3,0.3
			l0.2,0.5v0.2l-0.1,0.2l0.2,0.1l0.3,0.4l0.2,0.5l0,0.5l0.4,0.6l0.1,0.5l0,1.1l0.3,0.5l-0.2,4l-0.4,1.5l0,0.5l-1,1.8l-0.1,1
			l-0.9,1.7l-0.5,0.4L78.5,65l-0.8,0.8l0,0.4l-0.4,0.3l-0.1,0.2L75.7,68l-2,1.5l-0.7,0.3l-0.3,0.4l-0.8,0.5l-0.2,0.2L70.6,71
			L69,71.6l-0.2-0.3l-0.3,0L68,71.9l-0.2-0.2l-1.4,0.3l-1,0l-0.2-0.1l-0.4,0.3l-0.5-0.1l-1,0.1l-0.4,0l-0.4-0.3L62,72.1l-0.3-0.3
			l-0.2-0.1l-0.2,0.1l-0.5,0l-0.7-0.2l-0.2-0.1h-0.5l-0.6-0.4l-0.4,0.2l-1.1-0.7l-0.2,0l-0.2,0.1l-0.4-0.3l-0.7-0.4h-0.2l-0.3-0.4
			l-1-0.4L54.2,69l0.1-0.2l-0.5-0.1l-0.4-0.2l-0.6-0.7l-0.4-0.6H52l-0.3-0.4l-1-0.7l-0.5-0.9l-0.7-0.7v-0.3L49,63.3l-0.1-0.5
			l-0.3-0.3l-0.2-0.5L48,60.6l-0.3-0.3l0-0.2l0.2-0.1l0-0.2l-0.3-0.1l-0.5-1.5L47.1,58l0.2-0.5L47,57l0.1-1.6l0-0.5l-0.2-0.5
			l0.2-0.9v-0.8l0.3-0.3L47.3,52l0.2-1l0.4-1l0.2-0.2l0.1-0.6l0.2-0.5l0.3-0.3l0-0.6l0.3-0.4l0.1-0.5l1-1.4l0.1,0.2l0.1-0.5l0.5-0.2
			v-0.3h0.5l-0.1-0.2L51,44.5l0.3-0.3l0.3,0l0.2-0.6l0.6-0.1l0.2,0.1v-0.2L52.5,43l0.1-0.2l0.3-0.2l0.5-0.1l0-0.2l0.3-0.4l0.9-0.5
			l0.1-0.4l0.5,0l0.4-0.3l0.9-0.5l2-0.7l0.9-0.5l0.2,0L60,39l0.8-0.2h0.5l0.2-0.1l0.5-0.1l0.4-0.2l0.3,0.2l2.1-0.2l0.5,0.1l0.2,0
			l0.2-0.1l0.7,0.2l0.5,0l0.2,0.2l1,0.3l0.2-0.1l1.3,0.1l0.1,0.2l0.5,0.2l0.5,0.1l0.4,0.2L71.3,40z M47.4,53.2l0-0.2h0V53.2z
			 M48.1,60.4l0.3-0.2l-0.2,0L48.1,60.4z M48.9,57l0.1,0.2l0.2-0.1l0.1-0.2H49L48.9,57z M49.4,56l-0.3-0.2V56L49.4,56z M49.6,59h0.3
			v-0.3l-0.2-0.1l-0.1,0.2V59z M50.6,56.5l-0.2,0.1l0.1,0.1L50.6,56.5z M51,58.4l0-0.3L50.7,58l0,0.2l0.1,0.2L51,58.4z M50.8,59.5
			l0.1-0.2l-0.1-0.5l-0.2-0.1l0,0.5L50.8,59.5z M51,62.1l0.3,0.2l0-0.3l-0.2-0.2L51,62.1z M51.2,57.1h0.1V57h-0.1V57.1z M51.9,50.4
			H52l0.1-0.2l-0.2-0.1V50.4z M52.1,54l0-0.3h-0.2l0,0.2L52.1,54z M51.9,57.9l0.2,0l0.2-0.1l0.1-0.2l-0.2,0L52,57.7L51.9,57.9z
			 M52.3,60.6l0.2,0.1l0.2-0.1v-0.2l-0.2-0.1l-0.2,0.1L52.3,60.6z M52.5,52.7l0-0.2l-0.2,0L52.5,52.7z M52.6,63.2h0.2V63h-0.2V63.2z
			 M52.9,64.3l0.1-0.3h-0.3v0.2L52.9,64.3z M52.9,45.9l0.2-0.4l-0.2,0.1l-0.1,0.2L52.9,45.9z M53,47.2l0.1-0.3L52.9,47L53,47.2z
			 M53.1,46.6l-0.2-0.1v0.2L53.1,46.6z M53,57.4l0.2-0.1l0-0.3l-0.2,0l0,0.2L53,57.4z M53.4,58.2l0-0.3l-0.2-0.1l-0.1,0.2l0.1,0.2
			L53.4,58.2z M53.3,48.6L53.3,48.6l-0.1-0.2L53.3,48.6z M53.4,51.4l0.4,0.1v-0.4L53.6,51l0,0.2L53.4,51.4z M53.7,47.5l0,0.2l0.2,0
			l0-0.2H53.7L53.7,47.5z M53.7,52.6l0.2,0.1l0.1-0.2l-0.2,0L53.7,52.6z M53.8,63.9l0.2-0.1l0.1-0.2l-0.2-0.1l0,0.2L53.8,63.9z
			 M54.3,53.8l-0.1-0.2l-0.3,0l0.1,0.3L54.3,53.8z M54.3,58.2h0.2V58h-0.2V58.2z M54.6,65.5l0-0.4l-0.2,0l-0.1,0.2l0.1,0.2
			L54.6,65.5z M54.6,66.6l0-0.3l-0.2-0.1l0,0.3L54.6,66.6z M54.7,50.8H55l0.2-0.2l-0.1-0.2l-0.2-0.1l-0.1,0.3L54.7,50.8z M55.3,66.8
			l-0.1-0.2l-0.1,0.2L55.3,66.8z M55.5,62l0-0.2l-0.1-0.1l0,0.2L55.5,62z M64.2,46.2l-0.3,0.3l-0.2,0.1l-0.8-0.1l-0.2,0.1l-0.5,0.1
			l-0.5,0L61.6,47l-2,0.8l-0.3,0.4L59,48.3l-0.2,0.3l-0.4,0.3l-1,1.1l-0.2,0.1l-0.1,0.5L56.7,51l-0.8,1.3v0.5l-0.2,0.7l-0.1,0.2
			l0.1,0.5l-0.3,0.4l0.1,0.5v0.5l0.2,0.7l-0.1,0.2l0.4,1l0.1,0.8l1.1,1.7l1.6,1.9h0.3l0.2,0.1l0.3,0.4l0.5,0.1l1.2,0.7l1.2,0.3
			l0.2,0.2l0.2-0.1l0.2,0l0.5,0.3l0.1-0.2l0.2-0.1l0.7,0.2L65,64l0.2,0l0.2,0.1l0.9,0.1l0.2-0.3l0.2-0.2l0.5,0.2l0.8-0.6l0-0.2h0.5
			l0.2-0.5l0.4-0.3l0.9-0.5h0.5l0.3-1l0.3-0.4l0.4-0.2l0.2-0.4l0.1-0.5l0.2,0.1l0.2,0l-0.2-0.2l0-0.2l0.2-0.5l0.3-0.4h0.3l-0.2-0.6
			l0.2-0.2l-0.1-0.5l0.1-2l0-1l-0.2-0.6v-0.5l-0.4-1L71.9,51l0.2-0.2l0.1-0.3l-0.3,0.1l-0.1,0.2l-0.1-0.2l0.2-0.2l-0.5-0.2l-0.3-0.3
			l-0.2-0.5l0-0.2L70.2,49l0-0.3l-0.5-0.1l-0.2-0.1l-0.1-0.2l0.1-0.2L69,48l0-0.3l-0.4-0.5v0.5L67.1,47l-0.4-0.3l0-0.5l-0.3,0
			l-0.4,0.3l-0.5-0.2l-0.4-0.3l0,0.4L65,46.8l-0.2-0.1l-0.3-0.4L64.2,46.2z M55.5,48.8l0.2-0.1v-0.2h-0.2V48.8z M55.6,66l0.2,0.1H56
			l-0.1-0.5l-0.2-0.1l-0.1,0.3L55.6,66z M56,65l-0.1-0.2l-0.2-0.1L55.6,65l0.2,0.2L56,65z M56.2,42.5h0.2v-0.2h-0.2V42.5z
			 M56.8,63.1v-0.5h-0.2l0.1,0.5L56.8,63.1z M56.7,65.7l0.2,0.1l0.2-0.1l0-0.2l-0.3,0L56.7,65.7z M57.2,66.7l0,0.3l0.1,0.2l0.3-0.1
			v-0.5L57.2,66.7z M57.2,68.1l0.3,0.1l0-0.2l-0.1-0.1L57.2,68.1z M57.8,43.7l0.3,0.2l0-0.2L58,43.6L57.8,43.7z M57.9,65l0.1,0.2
			h0.4l0.1-0.2l-0.2-0.1h-0.3L57.9,65z M58.8,66.4v-0.2l-0.3,0l-0.1,0.2l0.1,0.1L58.8,66.4z M59,69.4h0.5l-0.1-0.2L59.1,69L59,69.4z
			 M59.5,42.6h0.3l-0.2-0.2L59.5,42.6z M60,65.9v-0.3l-0.2,0.1v0.2L60,65.9z M60.5,69l0.2-0.5l-0.2-0.4l-0.1,0.2v0.6L60.5,69z
			 M60.7,67.8l0.2-0.2h-0.2L60.7,67.8z M61.5,43.5l0.2,0l0.1-0.2l-0.2-0.1L61.5,43.5z M61.5,68.4l0.2,0.1l0.3-0.1L61.9,68l-0.2-0.1
			l-0.2,0.4L61.5,68.4z M61.9,69.3l-0.1-0.3h-0.3v0.3l0.2,0.1L61.9,69.3z M62.1,40.3h0.1l-0.1-0.2L62.1,40.3L62.1,40.3z M62.4,66.4
			l0.1-0.2L62.4,66l-0.2,0.2L62.4,66.4z M62.4,44.1l0.3,0.1L62.6,44L62.4,44.1z M62.5,43l0.4,0.2l0.2-0.1l-0.1-0.3l-0.2-0.1
			l-0.2,0.1L62.5,43z M62.7,68.8l0.2,0.2l0.2-0.1l-0.2-0.2L62.7,68.8z M62.7,67.9l0.4,0l0-0.2l-0.1-0.3l-0.2-0.1l-0.2,0.3V67.9z
			 M63.2,42l0-0.5l-0.2,0l-0.1,0.2l0.1,0.2L63.2,42z M63.6,41.1l-0.1-0.2h-0.2l0.1,0.2L63.6,41.1z M63.3,44l0.1,0.2l0.1,0.5l0.2,0.1
			l-0.1-0.3V44l0.2-0.4l-0.3,0l-0.2,0.1L63.3,44z M63.7,42.5l0.2,0.1l0.3-0.3v-0.2l-0.5,0.1L63.7,42.5z M64.3,67.2v-0.3l-0.2-0.1
			l0,0.2L64.3,67.2z M64.2,70l0.2,0l0.3-0.3l0.1-0.2h-0.5l-0.1,0.2L64.2,70z M64.7,44l0.2-0.3l-0.2-0.1l-0.1,0.2L64.7,44z
			 M64.8,44.5h0.2v-0.2h-0.2V44.5z M65,43.3l0.2,0l0-0.2l-0.2,0L65,43.3z M65.6,66.5l0-0.2l-0.2-0.1h-0.2l0.1,0.2L65.6,66.5z
			 M65.2,42l0.4,0.2l-0.1-0.6l-0.2-0.1l-0.1,0.2V42z M65.3,67h0.3v-0.2l-0.2-0.1l-0.1,0.2L65.3,67z M65.7,44.8h0.5l-0.4-0.4v0.2
			L65.7,44.8z M65.7,65.9h0.1v-0.2h-0.1V65.9z M66.3,68.7v-0.2l-0.2,0L66.3,68.7z M66.3,42.9l0.1-0.3h-0.3v0.2L66.3,42.9z
			 M66.1,67.3l0.1,0.2l0.2,0.1l0.2-0.5l-0.2,0l-0.1,0.2L66.1,67.3z M66.4,66.2h0.5v-0.5l-0.2,0l-0.2,0.1L66.4,66.2z M66.7,41.6
			l0.2,0.1l0.1-0.2l-0.2,0L66.7,41.6z M66.9,65.4l0.2-0.1l-0.2-0.2V65.4z M67.5,42.2L67.5,42.2L67.4,42L67.5,42.2z M67.5,65.6h0.3
			l0.2,0.1l0.1-0.5l-0.2-0.1l-0.3,0.2L67.5,65.6z M67.8,67l0.1-0.2l-0.1-0.2l-0.2-0.1l-0.1,0.2l0.1,0.2L67.8,67z M67.8,46H68
			l-0.1-0.2L67.8,46L67.8,46z M68,45.1l0.2-0.2l0-0.3l-0.2,0.1l-0.1,0.2L68,45.1z M67.9,69.4l0.1,0.2h0.2v-0.2L67.9,69.4z M68,68.4
			l0.5-0.1l-0.1-0.2h-0.2L68,68.4z M68.5,66.1l0.1,0.2h0.5v-0.2L68.7,66L68.5,66.1z M69,46.5l-0.1-0.2l-0.3-0.1l0.1,0.2L69,46.5z
			 M68.7,65l0.5,0.3l0.1-0.4v-0.3L69,64.5l-0.2,0.1l-0.1,0.2L68.7,65z M69.1,71.4l0.1-0.3L69,70.9v0.3L69.1,71.4z M69.2,69h0.2
			l0.1-0.1h-0.2L69.2,69z M69.4,67.7h0.2l0.2-0.1l0-0.2l-0.2,0l-0.2,0.1L69.4,67.7z M69.7,43.2l0.1-0.2v-0.3h-0.2l-0.1,0.3
			L69.7,43.2z M69.5,66.3h0.2v-0.2h-0.2V66.3z M69.7,45.5l0,0.2l0.2,0.2l0.2,0.1L70,45.5l-0.2,0H69.7z M70.3,44.8V45l0.2,0.1
			l0.1-0.2l-0.1-0.1L70.3,44.8L70.3,44.8z M70.3,64.8l0.2,0l0.1-0.1l0-0.4h-0.3V64.8z M70.5,43.8l0.3,0.2l0.2-0.1l-0.1-0.2l-0.2,0
			L70.5,43.8z M70.9,67.6l0.2-0.2L71.1,67l-0.2-0.2l-0.3,0v0.5l0.2,0.2L70.9,67.6z M70.8,42.9l0.3,0l0.1-0.2l-0.1-0.1l-0.2,0.1
			L70.8,42.9z M71.1,46.5l-0.3,0l0.2,0.1L71.1,46.5z M71.3,45.5l0.1-0.2l-0.3-0.1l0,0.2L71.3,45.5z M71.8,63.6l-0.3,0l-0.1,0.2
			l0.1,0.2l0.2,0.1l0.2-0.1l0-0.3L71.8,63.6z M71.6,43.9l0.1-0.1l0-0.2l-0.2-0.1L71.6,43.9z M71.6,44.2v0.2l0.2,0.1l0.1-0.1v-0.2
			H71.6L71.6,44.2z M71.7,43.1l0,0.2h0.2l0.1-0.1v-0.2l-0.1-0.1L71.7,43.1L71.7,43.1z M72.2,62.1h0.2l0.1-0.2l-0.2-0.1L72.2,62.1z
			 M72.6,64.7l0-0.2l-0.2-0.1l0,0.2L72.6,64.7z M72.7,44.8l-0.2,0.1l0.1,0.1L72.7,44.8z M73.1,63.3l-0.6-0.1l0,0.2l0.2,0.1l0.3-0.1
			L73.1,63.3z M72.9,48.8l-0.1-0.2l-0.2,0l0,0.3L72.9,48.8z M72.9,66l-0.2,0l0.1,0.2L72.9,66z M72.9,47.5l0.2-0.1L73,47.2L72.9,47.5
			z M73.4,62.5l-0.1-0.2l-0.3,0l0,0.3H73.4z M73.1,46.5h0.2v-0.2h-0.2L73.1,46.5z M73.6,45.6l0-0.2l-0.2-0.2l-0.2,0l0.2,0.4
			L73.6,45.6z M73.2,65.8l0.1,0.2h0.2l0.1-0.2l-0.1-0.1L73.2,65.8L73.2,65.8z M73.6,60l0.1,0.3l0.2-0.1l0.1-0.2l-0.2,0L73.6,60z
			 M73.6,44l0,0.2l0.2,0l0.2-0.1L74,44l-0.2,0L73.6,44z M73.7,62.6l0.3,0.5l0.2,0.1l0.1-0.2l0-0.5l-0.5,0.1L73.7,62.6z M74.3,47.2
			l0.1-0.2v-0.3l-0.5-0.1l0.2,0.5L74.3,47.2z M73.8,48.1l0.2,0.1l0.2,0L74.1,48L73.8,48.1z M74.1,45.2l0.3,0.6l0,0.2l0.2-0.1v-0.6
			l-0.4-0.2L74.1,45.2z M74.2,58.2h0.2l0.1-0.2L74.2,58V58.2z M74.8,52.5l0-0.3l-0.2-0.1l0,0.3L74.8,52.5z M74.6,42.8h0.2l0.1-0.2
			l-0.3-0.1V42.8z M74.6,48l0,0.2l0.3,0.2l0.1-0.2L75.1,48l-0.2-0.1L74.6,48z M74.6,59.5l0.1,0.2V60l0.5-0.2l0.1-0.2l-0.1-0.2h-0.4
			L74.6,59.5z M75.1,47.7h0.2l0.1-0.2h-0.3V47.7z M75.1,51.2h0.2L75.2,51l-0.1-0.1V51.2z M75.3,58.8l0-0.2l-0.2-0.1l0,0.2L75.3,58.8
			z M75.5,46.7v-0.3l-0.4-0.1l0,0.2l0.2,0.1L75.5,46.7z M75.5,62.5h0.2v-0.1h-0.2V62.5z M75.7,49.2h0.2L76,49l-0.3,0V49.2z
			 M75.8,51.6l0.1,0.3l0.2-0.1l0.1-0.2L76,51.5L75.8,51.6z M76.1,47.3h0.3l-0.1-0.2h-0.2L76.1,47.3z M76.2,59.3l0.2-0.1l0.1-0.2
			l0-0.2l-0.2,0.1l-0.1,0.2L76.2,59.3z M76.3,50.9l0.2,0.1l0.1-0.2v-0.3l-0.1-0.2l-0.3-0.1l0.1,0.5V50.9z M76.9,62.1l0-0.3l-0.2-0.4
			l-0.2,0.2v0.3l0.2,0.2L76.9,62.1z M76.6,57.1l0.2,0.1l0.2-0.2l-0.3-0.1L76.6,57.1z M76.7,49.8l0.2,0l0.1-0.2l-0.2,0L76.7,49.8z
			 M76.8,48.7l0.3-0.1L77,48.4l-0.2-0.1l-0.1,0.2L76.8,48.7z M77.1,46.1L77,45.9l-0.2,0l0.1,0.2L77.1,46.1z M77.2,44.2L77,44.1
			L76.8,44l0.2,0L77.2,44.2z M77.3,61l-0.1-0.2h-0.3L77,61L77.3,61z M77,55.9l0.2,0.2l0.1-0.4L77,55.5V55.9z M77.2,59.9h0.2v-0.2
			h-0.2V59.9z M77.5,59.1l0.2-0.1l0.1-0.2v-0.3l-0.5-0.2l-0.1,0.2l0.2,0.4L77.5,59.1z M77.5,50.5l0.2-0.1l-0.1-0.2L77.5,50.5z
			 M78,61.4l0-0.3l-0.2-0.1l-0.1,0.2l0.1,0.2H78z M78.1,52.8h0.1l-0.1-0.2L78.1,52.8L78.1,52.8z M78.5,50.7l0.1,0.2l0.2-0.2H78.5z
			 M78.7,58.2l0.3,0.2L79,57.9l-0.2-0.1L78.7,58L78.7,58.2z M79.1,52.5l0.2-0.1l0.1-0.3L79.2,52l-0.1,0.2V52.5z M79.4,54.9h0.2
			l0.1-0.2l-0.2-0.1V54.9z"/>
		<path class="st17" d="M92.1,39l0.7,0.2l0.5-0.1l1,0.1l0.1,0.3l0.2-0.2l0.4-0.2l1.8-0.1l0.5,0.1l0.2,0.2l0.7-0.1l0.3,0.1l0.4,0.2
			l0.2,0.4L98.9,40L98.8,40l0.3,1L99,41.4l-0.6,0.2l0.1,0.2h0.4l0.2,0.1v0.3l-0.3,0.3l0.3,0.1v1.6l-0.3,0.3l0.3,0.2L99,46l0.1,0.5
			h-0.2l-0.1,0.2l0,0.1l0.2,0l0.1,0.5l0,1l0.1,0.8l0,0.2L99,49.5l0.2,2.1l-0.1,0.5l-0.2,0.4l-0.2,0.2l0,0.6l0.3,0.9L99,54.7l0.1,0.5
			l0,0.3l-0.2,0.2l0.2,0.5v0.5l-0.2,0.7v0.4l-0.2,0.1L99,58l0.1,3.9v0.2l0.2,0.4l0,0.2l1.1,0.6l0.4-0.1l1,0.2l0.5-0.1l1.1,0l0.4,0.2
			l0.5-0.2l0.4,0.1l0.2,0.5l0.2-0.2l0-0.3h0.2l0.3-0.2l0.4,0.2l1,0.1l0.2,0.1l0.1,0.2l0.1,0.1l0.2-0.1l0-0.2l-0.2-0.1l0.2-0.1l0.6,0
			l0.3,0.4l0.2,0l0.1-0.2v-0.3l0.5,0.1h0.4l0.2-0.1l1,0.2l1-0.1l0.5,0l0.6,0.4l0.1-0.4l1,0.3l0.4,0.3l0,0.5l0.2,0.6l-0.1,0.5l0,0.5
			l-0.1,0.4l0.2,0.4l0.1,1l-0.1,0.5v1.1l-0.4,0.4l0.3,0.3l-0.2,0.6l-0.2,0l0.1,0.5l-0.2-0.1l-0.8,0.4l-0.2,0l-0.2-0.2l-0.4,0.4
			l-1-0.2l-1.4,0.2h-0.8l-0.3-0.2l-0.5,0.2l-0.4-0.1l-0.6,0.2l-1-0.2l-0.5,0.2l-0.5-0.2l-0.5,0.1l-1-0.1l-0.5,0l-0.4,0.2l-0.5-0.2
			l-0.5-0.1l-0.7,0.1l-0.3-0.1l-0.5,0l-0.2,0.1h-0.5l-0.5,0.2l-0.5-0.3l-0.5,0.2l-0.5-0.1l-1.1,0l-0.2-0.1l-0.2,0.1l-0.5,0l-0.4-0.2
			L95,71.6l-0.3-0.2l-0.2-0.2L94,71.6l-0.5-0.2l-0.2,0.2L93,71.5l-0.4,0.2l-1-0.1l-0.5-0.2l-0.5-0.5l0-0.2l-0.2-1.1l0-0.7l0.1-0.2
			l-0.1-0.4l0-2l0.5-0.2l-0.2-0.3l-0.2-0.2l0.1-1.6l-0.1-0.5l0.3-0.3l0.1-0.2v-0.4h0.2l0-0.2l-0.3-0.3l0-0.2l0.5-0.1l0.1-0.2l-0.5,0
			l0-0.3l-0.1-0.2l0.2-0.1l0.4,0.3l0.2,0.1l-0.2-0.4l-0.7-0.4l0.1-0.3l-0.1-0.4l0.2,0l0,0.2l0.1-0.2l0-1l0.1-0.2l-0.5-0.2l0.2-0.7
			l-0.2-0.4l0.1-0.5l0-1l0.2-0.7l-0.1-0.2l-0.2,0l0.1-0.2L90.6,54l-0.1-0.2l0.1-0.5v-0.8l0.1-0.2l-0.1-0.7l0.1-0.5l0.2-0.2l0.2-0.1
			L90.6,50l0-0.5l0.1-0.2l-0.2-1l0-0.5l0.3-0.4l0-0.2l-0.3-0.7l0.1-1.3l-0.1-0.2l0.5-0.1l-0.3-0.3l0-0.5l-0.1-1l0.1-0.7l-0.2-0.3
			l0.4-0.6L90.6,41l0.1-0.5l0.4-0.1l-0.1-0.1l-0.2,0l0.1-0.7l0.5-0.2l0.3,0l0.3,0.3l0.2,0.1l0.1-0.2l-0.1-0.2V39z M90.6,62.3h0.1
			l-0.2,0.2L90.6,62.3z M91.2,57.3l0.2-0.1l0.1-0.4l-0.4-0.2l0,0.4V57.3z M91.9,47.9l-0.1-0.4l-0.2-0.1l0,0.2l0.1,0.2L91.9,47.9z
			 M91.9,50.2l0.2,0.2l0.2-0.1l-0.2-0.2L91.9,50.2z M91.9,58.9l0.2-0.1l0.2-0.5l-0.2-0.1l-0.1,0.2v0.2L91.9,58.9z M92.1,62.6l0.2,0
			l0.1-0.2v-0.2h-0.3l0,0.2L92.1,62.6z M92.3,61.8v-0.4l-0.1,0.2L92.3,61.8z M92.3,60l0.1,0.2l0.2,0.2l0.3,0l0.1-0.2l-0.1-0.2
			l-0.2-0.1L92.3,60z M92.6,45.4l-0.2,0l0.1,0.2L92.6,45.4z M92.4,44.5l0.1,0.2h0.2l0-0.3l-0.2,0L92.4,44.5z M92.4,61.3h0.2v-0.1
			h-0.2V61.3z M92.6,65l-0.2-0.1l0.1,0.2L92.6,65z M92.5,63.9l0.1,0.2l0.2,0.1l0.1-0.3l-0.2,0L92.5,63.9z M92.9,48.5l0.1-0.1l0-0.5
			L92.7,48l-0.1,0.2l0.1,0.2L92.9,48.5z M92.9,63.3l0.2-0.1l0.1-0.2L93,62.8l-0.3,0v0.3L92.9,63.3z M92.8,56l0.1-0.2l0.1-0.5
			l-0.2-0.2l-0.2,0.5v0.2L92.8,56z M92.7,47.2l0.4,0.1l0-0.5l-0.2-0.1l0,0.3L92.7,47.2z M93,59.3l0.2-0.1L93,59.1V59.3z M93.3,67
			v-0.3H93V67L93.3,67z M93.1,58.4l1,0.4L94,58.6l-0.4-0.2l-0.2-0.2l0-0.3h-0.3V58.4z M93.1,65.9h0.3l0-0.2l-0.2,0L93.1,65.9z
			 M93.4,50v-0.2l-0.2,0L93.4,50z M93.5,53.1l0.5-0.5l-0.3-0.2l-0.2,0.5L93.5,53.1z M93.8,44l0.2-0.1v-0.4l-0.3,0l-0.1,0.1l-0.1,0.2
			l0.1,0.2L93.8,44z M93.9,53.8l0-0.2l-0.3-0.2l0,0.2l0.2,0.2H93.9z M93.5,45.2l0.2,0l0-0.6h-0.2l-0.1,0.2V45.2z M93.5,61l0.2,0
			l0.1-0.2l-0.1-0.2l-0.2,0l0,0.2V61z M93.9,64.8l-0.2,0l0.2,0.1L93.9,64.8z M93.7,55.1l0.3,0.2l0.1-0.2l-0.2,0L93.7,55.1z
			 M93.7,56.1l0.2,0L94,56l-0.2,0L93.7,56.1z M94,46.6v0.2h0.2l0.3-0.2l-0.3-0.1L94,46.6z M94,67.5l0.2,0.1l0.1-0.2l-0.1-0.1
			L94,67.4L94,67.5z M94.3,63.5L94,63.4l0.1,0.2L94.3,63.5z M94.3,66.6l0.1-0.2v-0.2l-0.3-0.1v0.3L94.3,66.6z M94.6,65.6l0.1-0.2
			l-0.2-0.3l-0.2,0v0.2l0.1,0.2L94.6,65.6z M94.7,49.5l0-0.2l-0.1-0.2L94.4,49l-0.1,0.2l0.1,0.2L94.7,49.5z M94.3,50.2h0.2v-0.2
			h-0.2V50.2z M94.4,58l0.3-0.6l-0.2,0l-0.1,0.5L94.4,58z M94.5,56.8l0.1,0l0.3-0.1l-0.1-0.2l-0.2,0l-0.1,0.1L94.5,56.8z M94.8,52.4
			l0.2-0.1l0.1-0.2L95,51.8h-0.3l0,0.4L94.8,52.4z M95,43.4l0-0.2L95,43l-0.2,0l0.1,0.3L95,43.4z M94.9,54.6h0.2l-0.2-0.2V54.6z
			 M95,60.6v-0.2h-0.1L95,60.6z M95.3,59.6l0-0.2l-0.1-0.2l-0.2,0l0,0.2l0.1,0.2L95.3,59.6z M95.2,64.3l0-0.2L95,64l0.1,0.3
			L95.2,64.3z M95,45.9l0.2,0.1l0.2-0.1l0.1-0.2l-0.1-0.2l-0.4,0.2L95,45.9z M95.2,50.8L95,50.6l0,0.2L95.2,50.8z M95.1,55.8
			l0.2-0.1v-0.2l-0.2-0.1L95,55.6L95.1,55.8z M95.4,47.3V47l-0.2-0.2l0,0.2l0.1,0.2L95.4,47.3z M95.3,63.2l0.2-0.5l-0.3-0.1l0,0.5
			L95.3,63.2z M95.6,62.1l-0.1-0.4l-0.3-0.1l0,0.2l0.2,0.2L95.6,62.1z M95.6,44.6l0-0.2l-0.2,0l0,0.2L95.6,44.6z M95.5,49.5l0,0.2
			l0.2,0.1H96l0-0.3l-0.2-0.1L95.5,49.5z M95.6,49l0.2-0.1l0.1-0.2l-0.3-0.2l-0.1,0.2L95.6,49z M95.7,65.1l0.3,0v-0.2l-0.2,0
			L95.7,65.1z M95.8,61.1L96,61l0.1-0.2h-0.2V61.1z M95.9,51.4l0.1,0.2l0.2,0.1l0.2-0.4l-0.1-0.2L96.2,51L96,51.2L95.9,51.4z
			 M95.9,52.9l0.2-0.1l0.1-0.4H96L95.9,52.9z M96,43.8l0.2,0l0-0.2l-0.2,0L96,43.8z M96,58.8l0.2,0.1l0.2-0.2L96,58.5L96,58.8z
			 M96.1,43.1l0.2-0.2L96,42.7l0,0.3L96.1,43.1z M96.2,47.9v-0.2l-0.1-0.1L96,47.8L96.2,47.9z M96.1,59.7h0.1l0.1-0.2l-0.2-0.1V59.7
			z M96.2,42.7l0.2-0.1l-0.1-0.2L96.2,42.7z M96.6,50.6l0-0.2l-0.1-0.2l-0.2-0.1l0,0.2l0.1,0.2L96.6,50.6z M96.4,54.7l0.2-0.4l0-0.3
			l-0.3-0.1l-0.2,0.5l0,0.2L96.4,54.7z M96.3,45.2l0.1,0.2l0.2,0.1l0.2-0.2l-0.1-0.2l-0.2-0.1L96.3,45.2z M96.4,46.5h0.2l0-0.2h-0.2
			V46.5z M96.6,65.4l0.2,0.1l0.2-0.1l-0.1-0.1l0.1-0.2h-0.4L96.6,65.4z M96.6,49.2l0.1,0.4l0.3-0.5l0-0.3L96.7,49L96.6,49.2z
			 M96.9,64.4l0.1-0.4l-0.1-0.2h-0.2L96.7,64l0,0.2L96.9,64.4z M97,53.4l-0.2-0.2l-0.2,0l0.1,0.2L97,53.4z M96.9,46.9l0.3,0.2
			l0.3,0.1l-0.1-0.2l-0.2-0.1l0-0.3h-0.2V46.9z M97.1,48.5l0.2-0.7L97,47.9l-0.2,0.2v0.2L97.1,48.5z M97.3,67.9l0-0.2H97l0,0.2H97.3
			z M97.1,52.1l0.2-0.1l0.1-0.2l-0.2-0.1l0,0.2V52.1z M97.2,67.2V67l-0.1-0.2v0.3L97.2,67.2z M97.2,50.6l0.2,0.5l0.5,0.2l-0.2-0.6
			l-0.2-0.1L97.2,50.6z M97.4,69.8l0.2,0.2l0.3,0l0.2-0.2l-0.2-0.2l-0.2,0L97.4,69.8z M97.5,55l0.2-0.1l0.1-0.2l-0.2-0.1l-0.1,0.2
			V55z M97.6,61.9h0.2l-0.2-0.1V61.9z M98.2,47.5l-0.2,0.2l0.6,0.1l0-0.2l-0.1-0.2L98.2,47.5z M98.2,64.9l0.1-0.3L98,64.5l-0.1,0.4
			L98.2,64.9z M98.2,40.3l0.3,0.1v-0.3l-0.2,0L98.2,40.3z M98.4,67.8l0.1-0.2l0-0.3h-0.3l0.1,0.5L98.4,67.8z M98.3,46.3h0.2v-0.2
			h-0.2V46.3z M99.1,69.3l0-0.2l-0.4-0.3L98.6,69l0.2,0.2L99.1,69.3z M99.1,64.3l0.2-0.1l-0.2-0.1V64.3z M99.5,66h0.2l0.2-0.1l0-0.2
			l-0.4-0.3l-0.1,0.2l0,0.2L99.5,66z M100.4,68.8v-0.3l-0.1-0.2l-0.2,0l-0.1,0.2l0,0.2l0.2,0.1L100.4,68.8z M101.1,66.8l0-0.2
			l-0.2-0.2l0,0.2L101.1,66.8z M101.6,68.4l0-0.3l-0.2-0.2h-0.2l0.2,0.5L101.6,68.4z M101.3,69.4l0.1-0.2V69h-0.2v0.3L101.3,69.4z
			 M102.4,65.5h-0.3l0.1,0.2L102.4,65.5z M102.4,67.5l0.1,0.2l0.3,0.1l0-0.5l-0.1-0.1l-0.1,0.2L102.4,67.5z M103.3,69.9l-0.2,0.1
			l0.1,0.1L103.3,69.9z M103.7,64.5l0-0.3l-0.2-0.2v0.5H103.7z M103.5,68.4l0.5,0.1l0.2,0l-0.5-0.5l-0.1,0.2L103.5,68.4z
			 M103.7,66.6v0.2l0.1,0.3l0.3,0.1l0.1-0.2v-0.2l-0.1-0.2l-0.2-0.1L103.7,66.6z M104.6,69.9l-0.2-0.5l-0.2-0.1v0.2l0.2,0.2
			L104.6,69.9z M104.6,68.9l0.2,0.1v-0.2h-0.2L104.6,68.9z M104.7,64.6h0.2l-0.1-0.2l-0.2-0.1V64.6z M104.8,67.8l0.2-0.1l0-0.3
			l-0.2,0l-0.1,0.1L104.8,67.8z M105.4,66.6l-0.4-0.3l0,0.3l0.2,0.2L105.4,66.6z M105.7,69.4v-0.5l-0.2,0l0,0.2l0.1,0.2L105.7,69.4z
			 M105.9,64.6h0.2l0-0.2H106L105.9,64.6z M105.9,67.8h0.2l-0.1-0.2L105.9,67.8z M106.3,67l-0.3,0.2l0.2,0l0.3-0.1v-0.3l-0.2-0.1
			L106.3,67z M106.1,65.8l0.3,0.3l0.3,0v-0.4l-0.3-0.3l-0.2,0.1L106.1,65.8z M106.7,68.9l0.5-0.1l-0.1-0.5l-0.3,0.1l-0.2,0.2V68.9z
			 M107.4,67.9l0-0.2l-0.1-0.1l0,0.2L107.4,67.9z M107.4,65.5l0.2,0l0.2-0.1l0.1-0.2l-0.5-0.2l-0.1,0.2V65.5z M107.4,66.6h0.2
			l0.2-0.2l0.1-0.3l-0.3,0l-0.2,0.2L107.4,66.6z M108.1,69.5l0.2-0.2l0-0.3l-0.2,0.1l-0.1,0.3L108.1,69.5z M108.4,68.3v-0.5H108v0.3
			l0.1,0.1L108.4,68.3z M108.5,67.2h0.2l0-0.2l-0.2-0.1V67.2z M108.8,66l0.1,0.2l0.2-0.1v-0.2L108.8,66z M109.1,65.3l0.3-0.4
			l-0.1-0.2l-0.2,0l-0.2,0.2v0.2L109.1,65.3z M109.3,68.9l0.2,0l0-0.4l-0.2,0l-0.1,0.2L109.3,68.9z M109.5,67.7l0.2-0.1v-0.4l-0.2,0
			l0,0.2L109.5,67.7z M109.8,66.7h0.2l-0.1-0.2L109.8,66.7L109.8,66.7z M110.3,64.5l0.3-0.1l-0.2-0.3l-0.1,0.2V64.5z M110.4,67.1
			h0.1v-0.3h-0.1V67.1z M114,64.2l-0.2-0.2l-0.2-0.1l0,0.2l0.2,0.1L114,64.2z"/>
		<path class="st17" d="M153.7,67.7l0.2,0.4l0.4,1.4l0.5,0.8l-0.2,0.2l-0.1,0.5l-0.3,0.1l-0.1-0.2l-0.1,0.2l0,0.2l-0.5,0.2l-0.3-0.1
			l-0.5,0l-0.4-0.2l-0.6,0.3h-0.3l-0.4-0.2l-0.5,0.1l-0.5-0.1l-0.2-0.2l-1,0.3l-1.1,0l-0.5-0.1l-0.9-0.3l-0.4-0.2l-0.1-0.2l0-0.3
			l-0.4-0.3l-0.2-1.2l-0.5-0.7l-0.2-0.7l-0.7-0.7l-0.5-0.2l-0.5,0l-0.5,0.2l-0.5-0.3l-1.5,0.2l-1.1-0.1l-0.2-0.2l-0.5,0.2l-1.2,0
			l-0.5-0.2l-0.5,0.3l-0.7-0.3l-0.9,0.2h-0.5l-0.4-0.2l-0.5,0.2l-0.5,0l-0.5-0.1l-0.4,0.3l-0.6,0.8L131,68l-0.3,0l0.3,0.2l-0.1,0.2
			l-0.2,0.1l0,0.3l-0.1,0.2l-0.3,0.3l-0.1,0.2l-0.5,0.1l0.2,0.2l0.3,0.1l0,0.3l-0.2,0.5l-1.1,0.8l-1-0.1l-0.2,0.1l-0.5-0.2l-0.4,0.1
			l-1.5,0.1l-2-0.1l-1,0.1l-0.4-0.2l-0.3,0.2l-0.2-0.1l-0.3-0.4v-1.5l0.3-0.1v-0.5l0.2-0.2v-0.5l0.8-0.7l-0.1-0.2l-0.2,0l0.2-0.2
			l0.1-0.2l0-0.2l0.4-0.2V66l0.5-1.2l0-0.5h0.5v-0.8l0.4-0.9l0.5,0.1v-0.2h-0.4l0-0.2l0.3-0.6l-0.1-0.2l0.5-0.2v-0.3l0.3-0.8
			l-0.1-0.3l0.2-0.2l0.2-0.1l-0.1-0.5l0.4-0.2l-0.1-0.2l0-0.2l0.2-0.2l0.3-0.1l0.2-0.5l0.2-1.1l0.2-0.5l0.4-0.2l-0.1-0.5l0.1-0.1
			l0.2,0l0.2-0.7l0.2-0.2l0-0.9l0.2-0.5l0.5-0.3l-0.1-0.2l0.1-0.5l0.2-0.2l0.3-0.1l-0.1-0.2l-0.2-0.1l-0.1-0.2l0.6-0.5l-0.1-0.5
			l0-0.2l0.7-1.2v-0.2l0.5-0.2l-0.3-0.3l0.5-1.3l0-0.2l0.2-0.1l0.5,0l-0.1-0.3v-0.2l0.5-0.5l-0.3-0.3l0-0.3l0.5-0.8v-0.5l0.3-0.3
			v-0.3l0.4-0.8l0-0.5L133,41l0.1-0.2l0-0.3l0.6-0.5l-0.1-0.2l0-0.4l0.2-0.2l0.4-0.2L135,39l0.9,0.1l0.2-0.1l0.8,0.1l0.5-0.1
			l0.3,0.2l0.2-0.1l0.5,0l0.8,0.1l0.2-0.1l0.4,0.1l1.5,0l0.3,0.4h0.3l0.1,0.5h0.2l0.1,0.5l0.5,0.9l0,0.2l0.3,0.2l0.2,0.5l-0.2,0.2
			l0.2,0.2l0.2,0.6l-0.3,0.1l0,0.3l0.1,0.2l0.4,0.3l0.1,0.2l0.2,0l0.1,0.2l-0.2,0.1l-0.5,0.1l0.1,0.4h0.3l-0.1,0.5l0.7-0.5l0.4,0.7
			l-0.2,0.3l0.5,0.7l0.2,0.5l0,0.5l0.5,0.5l0.2,0.7l0.5,1l0.3,0.4v0.3l0.2,0.7l0.4,0.9l0.1,0.5l0.5,0.9l0.6,1.4l-0.1,0.4l0.3,0.1
			l0.1,0.7l0.2,0.1l-0.1,0.2l0.1,0.4l0.4,0.2l0.9,2.5l0.1,0.5l0.4,0.6l0.4,0.8l-0.1,0.4l0.5,0.8l1.1,2.8l0.5,0.8l-0.1,0.3l0.2,0.5
			v0.2l-0.3,0.4l0.5-0.1L153.7,67.7z M124.2,66.8h0.2l0.1-0.1l-0.4-0.1L124.2,66.8z M125,65l0.2-0.1l-0.1-0.3l-0.2-0.1l-0.1,0.5
			L125,65z M126.1,65.7l0.2-0.1l-0.1-0.5l-0.2-0.1v0.4l-0.1,0.3H126.1z M126.8,65.8l-0.1-0.1l-0.1,0.2l0.1,0.1L126.8,65.8z
			 M127.1,66l-0.2,0.1l0.2,0.2V66z M127,60.7h0.2v-0.2H127V60.7z M127.3,65l-0.2-0.1l-0.1,0.2l0.2,0.1L127.3,65z M127.6,62.4
			l-0.1-0.1l-0.2-0.1l0,0.2l0.1,0.2l0.2,0.1l0.2-0.1L127.6,62.4z M127.4,64.1l0.2-0.2l0-0.2l-0.1-0.2l-0.3,0l0,0.2l-0.1,0.4
			L127.4,64.1z M127.6,58.8v0.3L128,59l-0.1-0.2l-0.2-0.1L127.6,58.8z M128.1,65.4l-0.3-0.2l-0.1,0.2l0.1,0.2L128.1,65.4z
			 M128.3,61.5l-0.2-0.5l-0.2-0.1l0.2,0.5l0,0.3l0.2,0.1L128.3,61.5z M128,66h-0.2l0,0.2l0.1,0.1L128,66z M127.9,66.9l-0.2-0.2v0.2
			L127.9,66.9z M128,60.7l-0.1-0.1v0.4L128,60.7z M128.3,59.2l-0.1,0.2l0.2,0.1l0.1,0.2l0.2,0.1l-0.2-0.6L128.3,59.2z M128.5,64.6
			l0.1-0.2l0.1-0.5l-0.3-0.1l-0.2,0.8L128.5,64.6z M128.6,52.9l-0.1,0.1l0.3-0.1H128.6z M129.1,62.1l0-0.5l-0.5,0.2l0.1,0.5l0.4,0.2
			L129.1,62.1z M129,67l0.1-0.2l-0.3,0l-0.1,0.2L129,67z M129.2,57.5l-0.1-0.2l-0.2,0l0,0.2l0.2,0.1L129.2,57.5z M128.9,58.5l0,0.2
			l0.2,0l0-0.2l-0.2-0.1L128.9,58.5z M129,65.8L129,66l0,0.2l0.2,0.1l0.1-0.2l0-0.5L129,65.8z M129.2,65h0.2l-0.1-0.2l-0.2-0.1
			l-0.1,0.1L129.2,65z M129.5,67.1l-0.2,0l-0.1,0.1l0.3,0.1V67.1z M129.6,61.1l-0.1-0.2l-0.2,0l-0.1,0.4l0.2,0.2L129.6,61.1z
			 M129.4,56.5h0.2l0.1-0.2h-0.3L129.4,56.5z M129.5,60.1l-0.2,0.1l0,0.2l0.3-0.1l0.1-0.2L129.5,60.1z M130,63.9l-0.1-0.2h-0.2
			l-0.1,0.2l0,0.2l0.4-0.1V63.9z M129.7,55.2L129.7,55.2l0.2,0.1l0.1-0.1l-0.1-0.2l-0.2,0V55.2z M130.1,62.8l-0.2-0.1l-0.1,0.2
			l0.2,0.2L130.1,62.8z M130.3,57.2l-0.1-0.2l-0.1,0.1L130.3,57.2z M130.2,53.4h0.2v-0.2l-0.2-0.1L130.2,53.4z M130.3,56.5v0.2h0.2
			v-0.2H130.3z M130.6,64.5l0-0.2h-0.3l0.1,0.3L130.6,64.5z M130.8,55.8l-0.1-0.2l-0.2,0l0,0.2l0.1,0.1l0.2,0L130.8,55.8z M130.8,60
			l0.2-0.1l0.1-0.2l-0.2,0l-0.2,0.1l-0.1,0.2L130.8,60z M130.7,67.1l-0.1-0.1v0.2L130.7,67.1z M130.9,59.2h-0.2l0.1,0.2L130.9,59.2z
			 M131.1,53.8l0.2,0.2l0.1-0.2l0-0.2l-0.4,0L131.1,53.8z M131.6,56.2l-0.2,0.1l0,0.2h0.3l0.2-0.2v-0.2L131.6,56.2z M131.5,64.9
			l-0.1,0.2h0.2L131.5,64.9z M131.7,55.1v-0.2l-0.1-0.1L131.7,55.1z M131.9,59.1l0.1-0.2h-0.3l-0.2,0.1v0.2l0.2,0.1L131.9,59.1z
			 M132.2,50.7l0.1-0.2l-0.1-0.2l-0.2,0.2l0,0.3L132.2,50.7z M132.4,49.4l0.1-0.2l-0.2,0.1L132.4,49.4z M132.7,54.5l0.2,0.1l0.1-0.2
			l-0.2-0.2l-0.3,0.2L132.7,54.5z M132.8,47l0,0.2h0.2l0-0.2l-0.1-0.2L132.8,47z M133.1,63h-0.2l0,0.3l0.2,0V63z M133.8,44.1
			l-0.1-0.2l-0.4,0.1v0.2l0.1,0.2l0.2,0.1l0.2,0L133.8,44.1z M133.6,45.3v-0.2h-0.2v0.2H133.6z M133.4,49.4v0.2h0.2v-0.2H133.4z
			 M133.7,53.9l0-0.2l-0.1-0.1l-0.1,0.1l0,0.2L133.7,53.9z M133.8,48.6l-0.2,0l0,0.2l0.2,0.1L133.8,48.6z M134.2,46.7l0.2-0.1
			l-0.1-0.3H134l-0.1,0.3L134.2,46.7z M134.3,51.5l-0.3,0.1l0.2,0.2L134.3,51.5z M134.3,66.5l-0.1-0.2v0.2L134.3,66.5z M134.6,49.3
			l-0.2-0.2h-0.2l0,0.2l0.2,0.1l0.2,0V49.3z M134.7,43.6l0.1,0.1h0.3l0.1-0.2l0-0.3l-0.2-0.1h-0.2l-0.2,0.1l-0.1,0.2L134.7,43.6z
			 M134.7,48l-0.1-0.2l-0.1,0.3L134.7,48z M134.8,44.8l0.2-0.1l-0.3-0.1L134.8,44.8z M140.7,58.8l0.5-0.8l-0.2-0.1l-0.3-0.6V57
			l-0.3-0.4l-0.1-0.5l0-0.6l-0.5-0.7l-0.2-0.5l0-0.6l-0.2-0.2l-0.4-0.8v-0.7l-0.8-1.1h-0.4l-0.7,1.2l-0.3,0.9l-0.2,1l-0.4,0.3
			l-0.2,1.1l-0.5,0.8v0.2L135,58l0,0.6l0.4,0.3l0.5,0.2l1.5-0.1l0.5,0.2l0.4-0.2l0.4,0.2l0.4-0.1h1l0.5-0.1L140.7,58.8z M135.1,42.4
			h0.1l0.1-0.2l-0.2-0.1V42.4z M135.2,45.9l-0.2,0.2l0,0.2l0.2,0.2l0.2-0.2l0.1-0.3H135.2z M135.7,48.8l0.3,0.2l0.2-0.5l-0.2-0.1
			l-0.3,0L135.7,48.8z M136.2,41.4l0.2-0.1l-0.3-0.1L136.2,41.4z M136.2,50l0,0.2h0.2V50H136.2z M136.5,41.8l-0.2-0.1l-0.1,0.2
			l0.2,0.1L136.5,41.8z M136.6,45.8l0.2-0.1l0.1-0.2l-0.2-0.1l-0.2-0.2v0.3h-0.2v0.3H136.6z M136.6,44l0,0.2l0.2,0l0.1-0.2H136.6z
			 M137.1,48.5l0.2-0.1l0.1-0.2l-0.1-0.2l-0.3,0l-0.2,0.1v0.5L137.1,48.5z M137.6,42.3l-0.4-0.2l-0.2,0.1l0,0.2h0.3l0.2,0.1l0.1-0.1
			L137.6,42.3z M137.5,46.4l-0.1-0.2l-0.2-0.1v0.2H137.5z M137.5,45.3l0.2,0.1L138,45l0-0.2l-0.3,0l-0.2,0.1l-0.1,0.2L137.5,45.3z
			 M138,43.4h-0.2v0.3l0.3-0.1L138,43.4z M138,65.3l-0.2-0.2l-0.1,0.2L138,65.3z M138,43.2h0.5v-0.2l-0.5,0V43.2z M138.6,47.8l0-0.2
			l-0.1-0.2l-0.2-0.1l-0.2,0.1l0,0.2l0.3,0.4L138.6,47.8z M138.3,63.8l-0.2-0.1V64l0.2,0L138.3,63.8z M138.7,45.7l-0.1,0.2h0.3
			L138.7,45.7z M138.8,46.7h-0.2v0.2l0.1,0.1L138.8,46.7z M138.7,41.1l0,0.2l0.2,0l0.1-0.4l-0.3-0.1V41.1z M138.8,44.3l-0.1,0.2
			l0.4-0.1l0-0.2L138.8,44.3z M139.6,63.2l-0.1-0.2l-0.2,0.1l0.1,0.2l0.2,0.1L139.6,63.2z M139.3,47.1h0.4l0-0.2h-0.4L139.3,47.1z
			 M139.6,52.6l-0.2-0.1l-0.1,0.2l0.1,0.2l0.2,0L139.6,52.6z M139.4,42.7l0.2,0.1l0-0.2l-0.2-0.1V42.7z M139.9,45.3l-0.2,0.2v0.5
			l0.1-0.2l0.2-0.1l0.1-0.3L139.9,45.3z M140,48.7l0.2-0.1v-0.3l-0.2-0.1h-0.2l-0.2,0.2l0,0.2L140,48.7z M140,46.4l-0.2-0.1v0.2
			L140,46.4z M140.1,49.8l-0.1-0.2l-0.1,0.2l0,0.2L140.1,49.8z M140.4,43.7L140,44l0.1,0.2l0.4-0.2l0.1-0.2L140.4,43.7z M140.8,46.8
			l0.2-0.1v-0.3l-0.2-0.1l-0.5,0.2l0.1,0.3H140.8z M140.5,51.3l0.1-0.2l-0.2,0.1L140.5,51.3z M140.5,42.2l0.2,0.1l0.2,0l0-0.2
			l-0.2-0.1l-0.2,0L140.5,42.2z M141.1,45.2l-0.4-0.1l0,0.2l0.1,0.2l0.4,0.3V45.2z M140.9,49.6l0.2-0.1l-0.2-0.1L140.9,49.6z
			 M141,47.6v0.3l0.2,0.4v0.3l0.3-0.3l-0.1-0.7H141z M141.7,61l0.2-0.5l-0.5,0.1l-0.4,0.2l0.5,0.3L141.7,61z M141.1,61.8V62h0.2
			L141.1,61.8z M141.3,43.8h0.5l0.1-0.2l-0.2-0.1h-0.3l-0.2,0.1L141.3,43.8z M141.6,49.3v-0.2h-0.2v0.2H141.6z M141.9,50.6l-0.3,0
			l-0.1,0.3l0.3,0.1L141.9,50.6z M142.3,46.2l-0.1-0.2l-0.4-0.1l-0.2,0.2l0.6,0.3L142.3,46.2z M142,50l0.1-0.2l-0.2,0.1L142,50z
			 M142.2,45l-0.1-0.4l-0.2-0.1V45l0.3,0.4V45z M141.9,62.4l0.2,0.1l-0.2-0.2V62.4z M142.2,53.5l0.2-0.4l-0.2,0l-0.2,0.2l0,0.3
			L142.2,53.5z M142.3,62.6l-0.2-0.1l-0.1,0.2l0.2,0.2l0.2-0.1L142.3,62.6z M142.5,49.1l0-0.2l-0.1-0.2l-0.2-0.1v0.5L142.5,49.1z
			 M142.5,47l-0.1,0.5l0.1,0.5l0.2-0.1l0.1-0.5v-0.6l0.2,0.1l0.1-0.2l-0.2,0l-0.2,0.1L142.5,47z M142.4,61.6l0.1,0.2l0.2,0l0-0.3
			l-0.2-0.2L142.4,61.6z M142.7,65.3h-0.1l-0.1,0.2h0.2V65.3z M142.8,60.2l-0.2-0.1l-0.1,0.2l0,0.2h0.2V60.2z M142.7,52.6l-0.2,0.1
			l0.3,0.1L142.7,52.6z M142.8,59l0.1,0.1l0.1-0.3h-0.2L142.8,59z M142.9,59.4l0.1,0.2l0.2,0l0.1-0.2l-0.4-0.2V59.4z M143.2,63.3
			l0.2-0.3l-0.5,0.1v0.3L143.2,63.3z M143.3,49.8l0.1-0.2l-0.3,0l-0.1,0.3L143.3,49.8z M143.2,48.1l-0.1,0.2h0.3L143.2,48.1z
			 M143.6,62.1v-0.5l-0.1-0.2h-0.2l0,0.5l0.1,0.2l0.2,0.2L143.6,62.1z M143.6,58l-0.2,0l0.1,0.2l0.2,0.1L143.6,58z M143.9,48.3
			l-0.2,0.1l0.3,0.1l0.1-0.2H143.9z M143.9,59.8l0.1,0.4l0.3,0.1l0.2-0.7l-0.2-0.1H144l-0.2,0.1L143.9,59.8z M144.2,50.9l-0.2-0.2
			l-0.2,0.2l0.5,0.2L144.2,50.9z M144.3,58.2l-0.2,0.2l0.1,0.2L144.3,58.2L144.3,58.2z M144.4,62.2l-0.2,0.2l0.1,0.2l0.3-0.2l0-0.2
			L144.4,62.2z M144.5,44.9l0.1-0.1l0.1,0.2L144.5,44.9z M144.6,57.6l0.1,0.1l0.1-0.2l-0.2-0.1L144.6,57.6z M144.7,61.4l0.2-0.1
			l-0.1-0.2l-0.2-0.1l-0.1,0.3L144.7,61.4z M144.7,64.2l0.1-0.2l-0.3,0.1L144.7,64.2z M145,54.9l0.1,0.2l0.1-0.2H145z M145.3,60.5
			l-0.2-0.1l-0.1,0.2h0.3V60.5z M145.3,58l0.3,0l-0.3-0.3l-0.2,0.2L145.3,58z M145.6,59l-0.3,0l0.1,0.2l0.2,0V59z M145.7,62.1
			l0.4,0.2l-0.1-0.5h-0.3L145.7,62.1z M145.8,65.2h0.2l0.1-0.2l-0.2-0.1l-0.2,0.1L145.8,65.2z M146.1,63.3h0.2l-0.1-0.2l-0.2-0.1
			V63.3z M146.4,58.7l0.3,0l0.1-0.2l-0.4,0.1V58.7z M146.8,67.7l-0.1-0.4l-0.2,0.1l-0.1,0.2l0.4,0.2L146.8,67.7z M147,61.4l-0.5-0.2
			l-0.1,0.3l0.4,0.2L147,61.4z M146.8,51.6l0.2-0.2h-0.2L146.8,51.6z M147,60.4l0,0.2l0.2,0l0.1-0.2l-0.1-0.2l-0.2-0.1L147,60.4z
			 M147.3,64.2l0.1,0.2l0.2,0.1l0.1-0.4l-0.4-0.1L147.3,64.2z M147.4,62.9l0.2,0.2l0.1-0.3l-0.2-0.2L147.4,62.9z M147.5,66.8
			l-0.1,0.1l0,0.2l0.4-0.1L147.5,66.8z M147.8,65.7l-0.2-0.2l-0.1,0.1L147.8,65.7z M147.9,61l0.2,0.2V61L147.9,61z M148.2,63.5H148
			l0,0.2l0.2,0L148.2,63.5z M148.5,66.5l0.2,0.1h0.2l0.1-0.2l-0.2-0.1h-0.5L148.5,66.5z M148.6,67.8l0.1-0.2l-0.2,0l-0.1,0.1
			L148.6,67.8z M148.7,65.1l0.2,0L149,65l-0.2-0.1l-0.2,0.1L148.7,65.1z M149.5,64.5l-0.2-0.1L149.5,64.5L149.5,64.5z M149.7,67.8
			h-0.2V68h0.2V67.8z M150.3,64.5h-0.2l0.2,0.2V64.5z M152.5,70.5L152.5,70.5v0.1V70.5z M154.5,70.8l0-0.2l-0.2,0.1L154.5,70.8z"/>
		<path class="st17" d="M165.7,62.8l-0.1-0.2l-0.2,0l0.1-0.1l-0.1-0.2l0.4-0.2h0.3l0.2,0.1l1.1-0.5l0.2,0.1l0.5,0.4v-0.5l0.2,0
			l0.2,0.4l0.5,0.1l1.2,0.1l0.9,0.9l0.2,0l0.2,0.1l0.7,0.7v0.3l0.1,0.2l0.6,0.7l-0.1,0.5l-0.1-0.2h-0.2l0,0.2l0.3,0.1l-0.1,0.2
			l0.2,0.3l-0.2,0.5l0.3,0.5l-0.3,1.5l-0.3,0.6l-0.2-0.2l0,0.3l0.1,0.2l-0.6,0.8l-0.7,0.4l-0.2,0.5l-0.5,0.2l-0.4,0.3l-0.9,0.4
			l-0.6,0l-0.5,0.3l-1-0.2l-0.2,0.1l-1.8-0.8l-0.6-0.4v-0.2l-0.7-0.6l-0.3-0.1l-0.9-2.1l0.1-0.5l-0.2-1v-0.5l0.2-0.4l0.2-0.1
			l-0.1-0.2l0.1-0.9h0.2v-0.3l0.5-0.5v0.3l0.5-0.5l-0.2-0.1l-0.1-0.2h0.5l0.1-0.2l0-0.3l0.2,0.1l0.3-0.2v-0.2l0.2-0.1l0.5,0.2
			L165.7,62.8z M171.1,39l0.2,0.2l0.9,0.5l0.1,0.2l0,0.6l0.1,0.2l-0.3,0.5l0.3,0.6l-0.4,0.5l0.1,0.5l-0.2,1.4l0.1,0.6l-0.2,0
			l-0.1,0.2l0,0.2l0.2,0.3l-0.1,0.6l0,0.2l-0.3,0.3l-0.1,0.2l0.1,0.2v0.9l0.1,0.2l-0.3,0.4l0.1,0.2l0,0.3l-0.2,0.7l0.1,1l-0.5,0.4
			l0.2,0.2l0,0.2l-0.1,0.5l-0.2,0.4l0.3,0.5l-0.5,0.2l-0.1,0.2l0.4,0.3l0.2,0.4l0,0.2l-0.3,0.3l0.2,0.3l-0.1,0.5l0.2,0.2l-0.4,0.5
			l0.1,0.5l-0.1,0.2l-0.2,0.2l0.1,0.5l-0.3,1.4l0,0.5l-0.2,0.1h-1.2l-0.7,0.2l-0.2,0.2l-0.5,0l-0.8,0.1l-0.2-0.7l-0.2,0l-0.6,0.4
			h-0.2l0-0.2l0.1-0.2l-0.2,0l-0.1,0.2l-0.1-0.2l0-0.5l-0.3-0.1l-0.2-1.4l-0.2-0.5l0.1-0.4l0-0.7l0.1-0.5l0.2-0.2l-0.1-0.1l-0.1,0.2
			l-0.1-0.2l0-0.2l0.2-0.2l-0.1-0.2l-0.2-0.1l0-0.2l0.5-0.1l-0.5-0.5l0-0.5l-0.2-1l0.4-0.2l0.1-0.2h-0.2l-0.3,0.1v-0.2l-0.3-0.9
			l0.4-0.1l-0.1-0.2l-0.2-0.2l0.1-1.1l-0.2-0.8l0.1-0.7l-0.2-0.4l-0.1-1.4l-0.1-0.2l0.2-0.3l-0.2-1v-0.5l0.2-1l-0.4-0.3l0.1-0.5
			l0.2-0.1l-0.3-0.2l0-1l0.2-0.6h0.3l0.2-0.1l0.1-0.2l0.2,0L165,39l0.2,0l0.2,0.2l0.7-0.3l0.2,0.1l0.5,0l0.5-0.1l0.5,0l0.2,0.1
			l0.3-0.2l0.2,0.1l0.7-0.2l0.2,0l0.2,0.2l0.5-0.2l0.7,0.2L171.1,39z M164.6,56.6h0.2v-0.2l-0.2-0.1L164.6,56.6z M164.8,52.6
			l0.3,0.1l-0.1-0.3L164.8,52.6z M165.3,47.8l0.3,0.1l0-0.2l-0.2,0L165.3,47.8z M165.7,67.4l0.1-0.2l0-0.2l-0.2-0.1l-0.1,0.2
			l0.1,0.3L165.7,67.4z M165.6,43.3l0.2,0l0-0.2l-0.2,0.1L165.6,43.3z M165.7,45.8l0.2,0l0.1-0.2h-0.3L165.7,45.8z M165.7,50.6
			l0.2-0.1l0-0.3h-0.2l0,0.2L165.7,50.6z M165.9,40.7h0.2v-0.2h-0.2V40.7z M166.1,53.2v-0.1h-0.2L166.1,53.2z M165.9,68.4l0.4-0.1
			l0.2-0.2l-0.2-0.1H166l0,0.2L165.9,68.4z M166.1,59.3l0.4,0.3l0.1,0.2l-0.5-0.1v-0.2L166.1,59.3z M166.5,64.8l-0.2-0.1l0.1,0.2
			L166.5,64.8z M166.3,44.7l0.5,0l-0.2-0.2l-0.3,0.1L166.3,44.7z M166.7,66.2l0.1,0.3l0.3-0.1l0.1-0.2l-0.2,0L166.7,66.2z
			 M167.1,70.3l0-0.2l-0.2,0l0,0.2L167.1,70.3z M167.2,65.4l0.1-0.2l-0.4-0.4l0,0.2l0.1,0.2L167.2,65.4z M166.9,48.7L167,49l0.3,0.1
			l0-0.2l-0.2-0.2L166.9,48.7z M166.9,50.1l0.2-0.1v-0.2l-0.2-0.1V50.1z M167.1,42.4l0.2-0.2H167L167.1,42.4z M167.2,41.5l0.1-0.2
			V41l-0.2-0.1v0.5L167.2,41.5z M167.1,62.1h0.2l-0.1-0.2L167.1,62.1z M167.2,69.1l0.6,0.2v-0.2l-0.5-0.3l0,0.2L167.2,69.1z
			 M167.3,51.7l0.2,0l0.3-0.1l-0.1-0.2l-0.3,0.1L167.3,51.7z M167.3,64.7h0.2v-0.1h-0.2V64.7z M167.4,68l0-0.2l-0.1-0.1v0.2
			L167.4,68z M167.4,42.9l0.2-0.2l-0.1-0.2l-0.1,0.2L167.4,42.9z M167.4,44.4l0.2-0.1l0.1-0.2l-0.1-0.2l-0.2,0.2L167.4,44.4z
			 M167.7,47.9l0.2-0.1l-0.2-0.1V47.9z M168,67.1v-0.2h-0.2l0,0.2L168,67.1z M167.9,46.8h0.3v-0.2H168L167.9,46.8z M168,65.8
			l0.1,0.2h0.2l0-0.3l-0.2,0L168,65.8z M168.1,48.3l0.3,0.2h0.2l0.1-0.3l-0.2-0.1h-0.3L168.1,48.3z M168.1,68.6h0.4l-0.1-0.2h-0.2
			L168.1,68.6z M168.5,64.4l-0.3-0.3l0.1,0.2L168.5,64.4z M168.4,49.5l0-0.2l-0.1-0.1l0,0.2L168.4,49.5z M168.8,67.5l0.2-0.5
			l-0.2-0.2l-0.2,0.4l0.1,0.2L168.8,67.5z M168.9,52.1l0-0.2l-0.2-0.1l-0.1,0.2l0.1,0.2L168.9,52.1z M168.7,55l0.2-0.2l-0.2-0.2V55z
			 M169.1,46.3l0.2,0l0-0.3l-0.2,0l-0.1,0.1L169.1,46.3z M169.1,52.6l0.3-0.1l0-0.2l-0.2-0.1V52.6z M169.3,45.2l0.3,0.1v-0.2
			L169.3,45.2z M169.4,55.1h0.2l-0.1-0.2h-0.2V55.1z M169.5,63.6v0.2l0.2-0.1L169.5,63.6L169.5,63.6z M169.9,66.8l-0.1-0.2l-0.2-0.1
			l0.1,0.2L169.9,66.8z M170.1,68.1l-0.1-0.3l-0.1,0.2L170.1,68.1z M170.4,65.3l-0.1-0.3l0,0.2L170.4,65.3z"/>
	</g>
</g>
</svg>
