<?xml version="1.0" encoding="utf-8"?>
<!-- Generator: Adobe Illustrator 20.1.0, SVG Export Plug-In . SVG Version: 6.00 Build 0)  -->
<svg version="1.1" xmlns="http://www.w3.org/2000/svg" xmlns:xlink="http://www.w3.org/1999/xlink" x="0px" y="0px"
	 viewBox="0 0 347 115" style="enable-background:new 0 0 347 115;" xml:space="preserve">
<style type="text/css">
	.st0{clip-path:url(#SVGID_4_);fill:#040607;}
	.st1{fill:#FFFFFF;}
	.st2{clip-path:url(#SVGID_14_);}
	.st3{fill-rule:evenodd;clip-rule:evenodd;fill:#FFFFFF;}
	.st4{clip-path:url(#SVGID_16_);}
	.st5{clip-path:url(#SVGID_18_);}
	.st6{clip-path:url(#SVGID_20_);}
	.st7{clip-path:url(#SVGID_22_);}
	.st8{fill-rule:evenodd;clip-rule:evenodd;fill:#89C8C9;}
	.st9{fill:#89C8C9;}
	.st10{clip-path:url(#SVGID_24_);}
	.st11{clip-path:url(#SVGID_26_);fill:#FFDE37;}
	.st12{clip-path:url(#SVGID_26_);}
	.st13{fill-rule:evenodd;clip-rule:evenodd;fill:#FFDE37;}
	.st14{fill:#FFDE37;}
	.st15{clip-path:url(#SVGID_28_);}
	.st16{fill-rule:evenodd;clip-rule:evenodd;fill:#40342D;}
	.st17{fill:#40342D;}
	.st18{fill:none;}
	.st19{font-family:'Cabin-Bold';}
	.st20{font-size:22px;}
	.st21{fill-rule:evenodd;clip-rule:evenodd;fill:#DEC937;}
	.st22{fill:#F9F6F7;}
	.st23{fill:#49392F;}
	.st24{fill-rule:evenodd;clip-rule:evenodd;fill:#F9F6F7;}
	.st25{fill:#333332;}
	.st26{font-family:'FuturaBT-Heavy';}
	.st27{font-size:20px;}
	.st28{fill:none;stroke:#40342D;stroke-miterlimit:10;}
</style>
<g id="Capa_1">
</g>
<g id="Capa_2">
	<rect x="294.1" y="-363.4" class="st18" width="391.6" height="405.5"/>
	<text transform="matrix(1 0 0 1 362.5576 -346.9239)"><tspan x="0" y="0" class="st1 st19 st20">LLEVAMOS EL PLACER DE </tspan><tspan x="39.6" y="32.2" class="st1 st19 st20">LO ARTESANAL A: </tspan><tspan x="-64.6" y="66.5" class="st1 st19 st20">Eventos Sociales / Eventos Corporativos </tspan><tspan x="-26.4" y="100.7" class="st1 st19 st20">/ Acciones de Marketing / Ferias</tspan></text>
	<text transform="matrix(1 0 0 1 113.3372 27.0194)" class="st17 st26 st27">EL MAESTRO</text>
	<path class="st17" d="M194.6,105.4l0.3-0.2l0.3,0l0.4,0.1l0.4-0.4l0.2-0.8l-0.2-0.9l0.2-0.3l-0.1-0.2l0-0.6l-0.2-0.3l0.2-0.1
		l0.1-0.2l-0.2-0.4l0.1-0.2l0-0.7l-0.3-0.6l-0.2,0.1l0.1-0.2l-0.1-0.2l-0.2,0.1l-0.4-0.1l-0.4-0.3l-0.5,0.2l-0.4-0.2l-0.6,0.2
		l-1.8,0l-0.4,0.1l-0.4,0.2l-0.1-0.2l-0.2-0.1l-0.5,0l-0.1,0.3l-0.1-0.1l-0.5-0.2l-0.2,0.1l-1.4,0.1l-0.6,0.3l-0.2-0.2l-0.4-0.2
		l-0.4,0.1l-1.4,0.1l-0.4,0.1l-0.3,0.2l-0.2-0.1l-0.8,0l-0.2-0.1l-0.3,0.1l-0.4-0.2l-0.3,0l-0.5,0.3l-0.2-0.3l-0.5,0l-0.6,0.2
		l-0.7,0l-0.4-0.2l-0.3,0.1l-0.8-0.1l-1.8,0.2l-0.2-0.1l-0.1,0l-0.3-0.2l-0.5,0.2l-0.4-0.2l-0.6,0.2l-1.8,0l-0.4,0.1l-0.4,0.2
		l-0.1-0.2l-0.2-0.1l-0.5,0l-0.1,0.3l-0.1-0.1l-0.5-0.2l-0.2,0.1l-1.4,0.1l-0.6,0.3l-0.2-0.2l-0.4-0.2l-0.4,0.1l-1.4,0.1l-0.4,0.1
		l-0.3,0.2l-0.2-0.1l-0.8,0l-0.2-0.1l-0.3,0.1l-0.4-0.2l-0.3,0l-0.5,0.3l-0.2-0.3l-0.5,0l-0.6,0.2l-0.7,0l-0.4-0.2l-0.3,0.1
		l-0.8-0.1l-1.8,0.2l-0.2-0.1l-0.4,0l-0.5,0.1l-0.8,0.4l-0.1,0.5l0.1,0.9l-0.1,0.1l0,0.4l0.2,0.6l-0.1,0.2l0.2,0.1l0.1,0.2l-0.3,0
		l0.1,0.4l0,0.3l0.2,0l0.1,0.2l-0.3,0.1l0,0.7l0.1,0.2l0.2,0.1l0,0.5l0.3,0.2l0.7,0.1l0-0.4l0.2,0.2l0,0.3l0.3,0l0.4-0.2l0.4,0.2
		l0.3,0l-0.1-0.2l0.1-0.1l0.3,0.2l0.4,0.1l0.2-0.3l0.3,0.2l0.3,0l0.4-0.3l0.3,0.3l0.3-0.3l0.1,0.2l0.1,0.1l1.6,0l0.2,0.1l0.3-0.2
		l0.2,0l-0.1-0.1l-0.2-0.1l-0.1-0.1l0.5,0.2l-0.1,0.2l0.1,0.1l0.4,0l0.4-0.1l0-0.3l0.1-0.1l0.2-0.1l0.1,0.2l0.1,0l0.4-0.2l0.3,0.4
		l0.3,0l0.1-0.2l0-0.3l0.2-0.1l0,0.3l0.2,0.2l0.7,0.1l0.5,0l0.2-0.1l0.1-0.1l-0.3,0.1l0.1-0.2l0.2-0.1l0.4,0.1l0.1,0.1l0.1,0.2
		l0.7,0l0.1-0.2l0.2,0.1l0.4,0.1l0.4-0.2l0.3-0.3l0.1,0.3l0.2,0.1l0.5-0.4l0.2,0l-0.2,0.4l0.5-0.1l0.9,0l-0.1-0.1l-0.3-0.1l0.1-0.2
		l0.2-0.1l0.3,0.2l1.2,0.3l0.5,0l0.6-0.1l0.9,0l0.5,0.1l0,0l0,0l0.1-0.1l0,0.2l0.3,0l0.4-0.2l0.4,0.2l0.3,0l-0.1-0.2l0.1-0.1
		l0.3,0.2l0.4,0.1l0.2-0.3l0.3,0.2l0.3,0l0.4-0.3l0.3,0.3l0.3-0.3l0.1,0.2l0.1,0.1l1.6,0l0.2,0.1l0.3-0.2l0.2,0l-0.1-0.1l-0.2-0.1
		l-0.1-0.1l0.5,0.2l-0.1,0.2l0.1,0.1l0.4,0l0.4-0.1l0-0.3l0.1-0.1l0.2-0.1l0.1,0.2l0.1,0l0.4-0.2l0.3,0.4l0.3,0l0.1-0.2l0-0.3
		l0.2-0.1l0,0.3l0.2,0.2l0.7,0.1l0.5,0l0.2-0.1l0.1-0.1l-0.3,0.1l0.1-0.2l0.2-0.1l0.4,0.1l0.1,0.1l0.1,0.2l0.7,0l0.1-0.2l0.2,0.1
		l0.4,0.1l0.4-0.2l0.3-0.3l0.1,0.3l0.2,0.1l0.5-0.4l0.2,0l-0.2,0.4l0.5-0.1l0.9,0l-0.1-0.1l-0.3-0.1l0.1-0.2l0.2-0.1l0.3,0.2
		l1.2,0.3l0.5,0l0.6-0.1L194.6,105.4z M161.4,100l0.1,0.1l-0.1,0.2L161.4,100z M168.3,102.5l0.2,0l-0.1,0.5l-0.2,0.1l-0.1-0.2
		L168.3,102.5z M162.7,103.2l-0.2-0.1l0-0.1l0.1-0.1l0.2,0.1L162.7,103.2L162.7,103.2z M185.8,103.6l0,0.2l-0.2,0.1l-0.3-0.3l0-0.2
		l0.1-0.1l0.2-0.1L185.8,103.6z M188.6,103l0.2,0l-0.2,0.2l-0.2,0.1l0-0.2L188.6,103z M185.1,104l-0.1-0.1l0.1-0.1l0.1,0.1
		L185.1,104z M172.7,102.1l-0.2-0.1l0.1-0.2l0.2,0.1L172.7,102.1z M181.3,102.4l0.1-0.2l0.1,0.2l0,0.2L181.3,102.4z M179.2,102.6
		l0-0.2l0-0.2l0.2,0.1l0.1,0.2L179.2,102.6z M183.1,102.4l-0.3-0.2l0.1-0.2l0.2,0.1l0.2,0.4L183.1,102.4z M184.1,102l-0.1-0.2
		l0.1-0.2l0.2,0.2l0,0.2L184.1,102z M177.3,102.3l0,0.2l-0.2-0.1l0-0.2L177.3,102.3z M174,102.6l0.1,0.2l-0.2,0l-0.1-0.1L174,102.6
		L174,102.6z M169.5,103.3l-0.2,0.2l-0.2,0.1l0-0.2l0.2-0.2L169.5,103.3z M172.8,103.1l0.4,0.1l0,0.2l-0.2,0l-0.1-0.1L172.8,103.1z
		 M168.4,103.8l-0.1,0.3l-0.2-0.1l0-0.2l0.1-0.1L168.4,103.8z M179.6,103.6l0.1,0.1l-0.1,0.1L179.6,103.6z M178.1,104l-0.1-0.1
		l0.2-0.1L178.1,104z M177,104.2l0.2,0l-0.1,0.2l-0.1,0l-0.1-0.1L177,104.2z M180.8,103.9l0.2,0l-0.1,0.2l-0.2,0.1l-0.1-0.2
		L180.8,103.9z M181.6,103.9l0.1-0.1l0.1-0.1l0.2,0l-0.1,0.2l-0.2,0.1L181.6,103.9z M183.2,103.4l-0.3,0l-0.1-0.2l0.1-0.3l0.3,0
		L183.2,103.4z M177.2,103.5l-0.2-0.2l0.1-0.2l0.2,0l0,0.3L177.2,103.5z M181.9,102.9l0-0.1l0.1-0.1l0.2,0.1l0,0.1l-0.1,0.1
		L181.9,102.9z M185,102.4l0-0.2l0.1,0l0.2,0l-0.1,0.2l-0.1,0.1L185,102.4z M185.9,102l-0.1-0.2l0.3-0.1l0.1-0.2l0.2,0.1l0.1,0.2
		l0,0.2l-0.2,0.1L185.9,102z M187.2,101.6l-0.1-0.1l0.1-0.2l0.3,0l0,0.3l-0.1,0.1L187.2,101.6z M189,101.2l0.2,0.1l0,0.1l-0.2,0.1
		L189,101.2z M190.7,101.1l0.1-0.2l0.2,0l0.1,0.3l-0.2,0L190.7,101.1z M191.9,100.8l0.1-0.1l0.1,0.2L191.9,100.8z M170.4,101.7
		l0.1,0.2l0,0.2l-0.1,0.2l-0.1-0.1l-0.2-0.3l0.1-0.1L170.4,101.7z M169.6,101.7l0-0.3l0.2,0.1l0,0.1L169.6,101.7z M168.1,101.7
		l-0.1,0.1l-0.2,0l-0.1-0.1l0.1-0.2l0.3,0L168.1,101.7z M167.1,101.8l0.1,0.2l0,0.2l-0.2,0.1l-0.4-0.2l-0.1-0.2l0.3-0.1l0.1-0.2
		L167.1,101.8z M169.2,102.2l0.2,0l0.2,0.4l0,0.2l-0.4-0.2l-0.1-0.2L169.2,102.2z M170,102.9l0.5,0l-0.1,0.2l-0.3,0L170,102.9z
		 M166.5,103.8l0,0.2l-0.2,0.1l-0.3-0.3l0-0.2l0.1-0.1l0.2-0.1L166.5,103.8z M165.7,104.2l-0.1-0.1l0.1-0.1l0.1,0.1L165.7,104.2z
		 M165.4,104l0.1,0.2l-0.2,0l0,0.2l-0.5-0.2l0.1-0.2l0.2,0L165.4,104z M183.4,104.2l0,0.3l-0.1-0.1L183.4,104.2z M190.4,103.7l0,0.1
		l-0.1,0l0-0.1L190.4,103.7z M184.2,104l0.1-0.2l0.2,0l0.2,0.1l0.1,0.2l-0.2,0l0,0.2L184.2,104z M187.7,103.8l-0.2-0.1l0-0.2
		l0.1-0.1l0.1,0.1L187.7,103.8z M192.5,103l0,0.2l-0.2,0l-0.1-0.1l0-0.2L192.5,103z M193.6,102.4l-0.1,0.3l-0.3-0.1l-0.1-0.1
		l0.1-0.1l0.2,0L193.6,102.4z M189.8,102.6l-0.1,0.2l-0.3,0l-0.1-0.2L189.8,102.6z M187.6,102.8l-0.1-0.2l0.1-0.4l0.2,0l-0.1,0.5
		L187.6,102.8z M188.9,102.3l0,0.2l-0.4-0.2l-0.1-0.2l0.1-0.1l0.2,0L188.9,102.3z M192.1,101.7l-0.1,0.1l-0.2-0.1l0.1-0.2
		L192.1,101.7z M189.9,101.6l0,0.2l-0.1,0.2l-0.1-0.1l-0.2-0.3l0.1-0.1l0.2,0.1L189.9,101.6z M194.1,100.9l-0.1,0.2l-0.1-0.1
		l0.1-0.2L194.1,100.9z M195.3,100.4l0,0.2l-0.2,0l-0.1-0.1l0-0.2L195.3,100.4z M186.4,100.9l0.1,0.3l-0.2-0.1l-0.1-0.1l0-0.2
		L186.4,100.9z M182.7,101l-0.2,0.1l0-0.3L182.7,101z M190.4,99.9l0,0.1l-0.1,0l0-0.1L190.4,99.9z M191.8,99.3l-0.1,0.2l-0.7,0.2
		l0-0.3l0.1,0L191.8,99.3z M178,100.4l0.1,0.2l-0.2,0l-0.1-0.2L178,100.4z M180.9,99.9l-0.1,0.2l-0.1-0.3L180.9,99.9z M158.4,100.6
		l0.2,0l0.1,0.2l-0.2,0L158.4,100.6z M155.3,101.1l0.1,0l0.1,0.1L155.3,101.1z M171.7,99.6l0.1,0l0.6,0l-0.1,0.2l-0.7,0.2
		L171.7,99.6z M170.9,100.3l0-0.1l0.1,0l0,0.1L170.9,100.3z M163.2,101.1l0.2,0.2l-0.2,0.1L163.2,101.1z M167,101.3l-0.1-0.1l0-0.2
		l0.2,0.1l0.1,0.3L167,101.3z M172.7,100.9l0.1,0.2l-0.3-0.1L172.7,100.9z M171.7,101.1l0.1,0.3l-0.2,0l-0.2-0.1l0.1-0.2
		L171.7,101.1z M165,102l0,0.2l-0.2,0l-0.1-0.2l0.1-0.2L165,102z M164,102.6l-0.2,0l-0.3-0.2l0.1-0.2l0.2,0.1L164,102.6z
		 M157.8,102.6l0-0.2l0.1,0.1l0,0.2L157.8,102.6z M159.8,102.7l0-0.2l0.2,0.1l0.1,0.2l-0.3,0.1L159.8,102.7z M161.9,102.7l0.1-0.2
		l0.1,0.2l0,0.2L161.9,102.7z M165.6,102.5l0.1,0l0.2,0l-0.1,0.2l-0.1,0.1l-0.1-0.1L165.6,102.5z M157.8,103.5l0.1-0.2l0.2,0l0,0.3
		l-0.1,0.1L157.8,103.5z M163.6,103.2l0.3,0l0,0.5l-0.3,0l-0.1-0.2L163.6,103.2z M160.4,103.9l-0.1,0.1l0-0.2L160.4,103.9z
		 M158.6,104.1l0.2-0.1l-0.1,0.2L158.6,104.1z M162.8,103.9l-0.1,0.2l-0.2,0.1l-0.2,0l0.1-0.1l0.1-0.1L162.8,103.9z M157.6,104.6
		L157.6,104.6l0-0.2l0.2,0l-0.1,0.2L157.6,104.6z M161.4,104.4l0.1-0.2l0.2,0l-0.1,0.2l-0.2,0.1L161.4,104.4z M163.9,104.6l0.2-0.1
		l0,0.3L163.9,104.6z M170.9,104.1l0-0.1l0.1,0l0,0.1L170.9,104.1z M166,105l-0.1-0.1l0.1-0.1l0.2,0.1l0,0.2L166,105z M169.5,104.8
		l0.1-0.2l0.2-0.1l0,0.2l-0.1,0.1L169.5,104.8z M165.6,105.4l0.1,0.2l-0.6,0l-0.1-0.3l0.2-0.1L165.6,105.4z M185.4,104.8l-0.1-0.1
		l0.1-0.1l0.2,0.1l0,0.2L185.4,104.8z M188.9,104.5l0.1-0.2l0.2-0.1l0,0.2l-0.1,0.1L188.9,104.5z M184.9,105.2l0.1,0.2l-0.6,0
		l-0.1-0.3l0.2-0.1L184.9,105.2z"/>
	<g>
		<path class="st17" d="M40.9,68.9l-0.1,0.2l-0.2,0.1v0.3L40.4,70H40l0,0.3l-0.1,0.2l-0.2,0.1l-0.1,0.5l-0.2,0.4l-0.5,0.2v0.3
			l-0.1,0.2l-0.2,0.1l-0.2,0l-0.1,0.5l-0.3,0.4l-0.4,0.3l-1,0.3l-0.1,0.5L36,74.4l-0.4,0.4l-0.4,0.3l-0.2,0l-0.4,0.3L33.1,76
			l-0.3,0.4h-0.4l-0.8,0.5L30.9,77l-1,0l-0.4,0.4l-0.4-0.1l-0.2,0.1l-0.5,0.1l-0.3-0.2l-0.2,0.1l-0.5,0l-0.1,0.2L27,77.6l-1,0.2
			l-0.5-0.2L25,77.9l-0.2-0.2l-0.2,0l-0.2,0.1l-0.5,0L23,77.4l-0.5,0L22.4,77l-0.3,0.3L20.7,77v-0.5h-0.3l-0.3,0.2l-0.2-0.1
			l-0.1-0.2l-0.5,0.2l-0.1-0.2l0-0.5L19.1,76l0,0.2L18,76l-2-1.3l-0.5-0.2l-0.2-0.4l-0.7-0.4l-1.5-1.4l-0.4-0.3v-0.3l-0.4,0
			l-0.2-0.6l-0.6-0.5l-0.3-0.4l-0.7-1.3l-0.3-0.4v-0.4L10.3,68l0-0.2l-0.2-0.2l-0.3-0.4l0-0.3l-0.4-0.8v-0.3l-0.4-0.3l0-1l-0.5-1.9
			l0.2-0.4l-0.2-0.7l0-0.5l0.1-0.2l-0.1-0.5l0-0.9l0.2-1l0.1-0.2l0.1-0.5l0-1.1l0.3-0.7l0-0.2l0.2-0.1h0.3l-0.2-0.4l0.1-0.4l0.5-0.9
			l0-0.2h0.3l0.2-0.1l0.1-0.2v-0.5l-0.1-0.2l0.3-0.6l0.3-0.3l0.2,0v-0.5l0.2-0.1l0.3-0.4h0.2v-0.6l0.4-0.1l0.1-0.2l0.6-0.5l0.3-0.4
			l0.5,0.1l0-0.2l-0.1-0.1l0-0.2l0.8-0.3l0.2-0.5l0.5,0.1l0.2-0.5l0.9-0.2v-0.5l0.1-0.2l0.2,0.2l0.3,0.1l0.2-0.5l0.3-0.1l0.5-0.5
			l1.6-0.5l0.5-0.1l0.3-0.3l1-0.1l0.5-0.1l0.2-0.2l1-0.2l0.3,0.1l0.2,0.2L25,44l0.4-0.2l1,0.1l0.2,0.2l0.5-0.2l0.5,0.1l0.4,0.2h1.4
			l1,0.3l0.4,0.2l0.3,0.3l0.3-0.2l0.3,0l2.4,1l0.3,0.5l0.5-0.1l0.1,0.2l1.3,0.8l0.1,0.2l0.7,0.4l0.7,0.6l1.9,2.2l-0.1,0.2l0.1,0.2
			H40l0.4,0.8l0.3,1l0,0.4l-0.3,0.3l-0.3,0.1l-0.3,0.4l-0.4,0.3l-1.6,0.7l-0.4,0.3l-0.5-0.1l-0.3,0.4l-0.2,0.1l-0.2-0.1l-0.4,0.2
			l-0.2,0l-0.2-0.1l0-0.2l-0.2,0.2v0.5l-0.7,0l-0.2,0.2l-1-0.4l-0.2-0.2l0.2-0.3L33,55.3L32.7,55l-0.5,0l-0.5-0.5l-1.2-0.9l0.2-0.2
			l0.1-0.3h-0.3L30.1,53l-0.3,0v-0.2l0.4-0.4l-0.2-0.1l-1,0.2l0,0.1l-0.4-0.1v-0.2l-0.7-0.1L25,52.2l-0.5,0.2l-0.5,0l-0.9,0.2
			l-0.2,0l-0.8,0.6l-0.7,0.3L20.5,54l-0.3,0.4h-0.2l-0.8,0.5l0.1,0.5l-0.4,0.3l-0.7,1.4l-0.5,0.6l0.1,0.7l-0.4,0.3l0,0.5l-0.2,1.1
			l0.2,0.5L17.2,61l0,1l-0.1,0.2L17,62.3l0.2,0.2l0.4,0.2l-0.1,0.3l0.1,0.2l0.3,0.4l-0.1,0.2l0.1,0.7l0.2,0.1h0.2l0.4,0.9l1.1,1.6
			l0.2,0l0.7,0.5l0.5,0.2l0.3,0.4l1.7,0.8h0.3l0.7,0.3H27l1-0.3l0.4,0.1l0.8-0.5l0.5-0.2l0.8-0.4H31v-0.5l0.5,0l0.9-1l0.6-0.8h0.8
			v-0.5l0.7-0.1l0.1,0.2l0.6,0.3l0.3,0.2l0.1,0.2l1-0.2l0.5,0.4h0.2l-0.1,0.3l0.4,0.3l0.2-0.5l0.3,0.1V67l0.1,0.2l0.6-0.1l0.5,0.4
			l0.3-0.1l0.1,0.2l-0.1,0.3l0.2,0l0.3-0.1l0.5,0.4l0.3,0.4L40.9,68.9z M10.4,59.7v-0.2h-0.1v0.2H10.4z M10.7,63.3h-0.2l-0.1,0.2
			h0.2L10.7,63.3z M11,56.1l0.1,0.2l0.1,0L11,56.1z M11.1,58.9l0.2,0.1l0.2,0l0.1-0.2l-0.5-0.1L11,58.8L11.1,58.9z M11.9,62.8l0-0.1
			l-0.1-0.1l-0.1,0.2L11.9,62.8z M12.5,64.4l-0.1-0.4L12,63.9l-0.1,0.2l0.2,0.5l0.2,0.1L12.5,64.4z M12.3,65.7l-0.2-0.4L12,65.8
			L12.3,65.7z M12.1,55.9h0.2l0-0.1l-0.1-0.1L12.1,55.9z M12.2,56.8l0,0.2l0.2-0.1l0-0.3h-0.2L12.2,56.8z M12.3,63v0.2h0.2V63H12.3z
			 M12.7,67.4l0-0.5l-0.2-0.1l-0.2,0.5l0.1,0.2l0.2,0.1L12.7,67.4z M13.1,54l0.2-0.1l0-0.3l-0.1-0.1l-0.3,0.2L12.8,54H13.1z
			 M13,62.1h-0.2v0.2l0.2,0V62.1z M13.3,69.6l-0.3,0l0.1,0.2l0.2,0L13.3,69.6z M13.3,52.3l-0.1,0.1l0,0.2l0.2-0.2l0.1-0.2H13.3z
			 M13.3,56.7l0.2-0.1l0-0.2l-0.3,0l-0.2,0.2L13.3,56.7z M13.3,57.4h-0.2v0.2h0.2V57.4z M13.6,68.6l-0.3-0.2v0.2l0.4,0.2L13.6,68.6z
			 M13.4,60.2l0.1-0.2L13.3,60L13.4,60.2z M13.5,64.8l-0.2-0.1v0.2L13.5,64.8z M13.6,55.2l0,0.2l0.2,0.1l-0.1-0.5l-0.3,0.1
			L13.6,55.2z M14.2,57.9L14,57.5h-0.4v0.2l0.1,0.2l0.4,0.2V57.9z M13.8,58.8L13.7,59l0.1,0.2l0.2-0.1v-0.3L13.8,58.8z M14,66.7
			l-0.3-0.2v0.2l0.1,0.1L14,66.7z M13.9,54.4l-0.1,0.1l0.2,0.1l0.1-0.2L13.9,54.4z M14.2,53.2L14,53.2l0.1,0.2l0.2,0.1l0-0.3
			L14.2,53.2z M14.2,51.9v0.2l0.1,0.2l0.3,0v-0.5l-0.3-0.1L14.2,51.9z M14.9,63.3l0-0.2L14.5,63l-0.2,0.1l0.1,0.2l0.2,0.1l0.3,0
			L14.9,63.3z M14.6,65.3l-0.3,0l0.1,0.3L14.6,65.3z M14.5,69.9l-0.2-0.1v0.3h0.2L14.5,69.9z M14.6,54.6l0.2,0.1l0-0.1l0.2,0.2v-0.3
			l-0.4-0.1V54.6z M14.6,55.9l0.2-0.1l-0.2-0.1V55.9z M14.9,71.7l-0.2,0l-0.1,0.2L14.9,71.7z M14.8,51.2l-0.2,0.2l0.3,0L14.8,51.2z
			 M14.7,59.6l0,0.2l0.2,0v-0.2L14.7,59.6z M14.9,54.9l0,0.2l0.1,0.1L15,55L14.9,54.9z M15.4,57.5l-0.2-0.2L15,57.1v0.2l0.4,0.3
			L15.4,57.5z M15.1,53.9l0.2,0.2l0.1-0.2l-0.2-0.2L15.1,53.9z M15.3,65.4l-0.2,0.4l0.1,0.2l0.2,0.1l0.2-1.2l-0.5-0.2v0.2l0.1,0.2
			v0.2L15.3,65.4z M15.7,52.5l-0.3,0.2l0,0.2l0.3,0l0.2-0.1l0.1-0.2L15.7,52.5z M15.6,69.9l0-0.3l-0.2-0.2l-0.1,0.2l0,0.3L15.6,69.9
			z M15.5,51.5l0.1,0.4l0.2,0.1l0.1-0.2l-0.1-0.4l-0.2-0.1L15.5,51.5z M15.7,68.6l0-0.2l-0.2,0.1l0,0.2L15.7,68.6z M15.8,67.3
			l-0.2-0.1l0,0.3l0.2,0.1L15.8,67.3z M16.5,54.3L16.4,54l-0.2-0.2L16,53.8l0,0.2l0.1,0.2l0.2,0.2l0.2,0.1L16.5,54.3z M16,51l0.2,0
			v-0.2H16L16,51z M16,54.9L16,55.1l0.1,0.2l0.2-0.5l-0.1-0.2L16,54.9z M16.3,70.8H16l0,0.2l0.2,0.1V70.8z M16.4,49.3l0.1,0.5
			l0.2-0.1v-0.2l-0.1-0.2l-0.2-0.1V49.3z M16.5,52.4l0.2,0.1l0.2,0l0-0.2l-0.5,0L16.5,52.4z M16.7,68.1L16.5,68v0.2h0.2L16.7,68.1z
			 M16.7,51l0,0.2l0.2,0.2l0.2-0.4l-0.2-0.1L16.7,51z M17.5,53.8l-0.1-0.2l-0.2-0.1l-0.3,0l0.1,0.5l0.4,0.2L17.5,53.8z M17.3,50.3
			l0.2,0l0.1-0.2L17.3,50L17.3,50.3z M17.6,48.9l-0.1,0.2l0.2,0l0.2-0.1l0.1-0.2l-0.1-0.2l-0.2,0L17.6,48.9z M17.8,73.4l0.1-0.2
			h-0.4l0.1,0.3L17.8,73.4z M17.9,52.2l0.2-0.5l-0.3-0.1l-0.2,0.1V52l0.2,0.2L17.9,52.2z M18.2,54.6l0.2-0.1l-0.2-0.1l-0.2,0.1
			L18.2,54.6z M18.1,50.7l0.2,0.1l0-0.3h-0.2V50.7z M18.5,70.2l-0.2-0.1l0,0.3l0.2,0.1L18.5,70.2z M18.3,53.2l0.1,0.1l0.1-0.1H18.3z
			 M19,51.4l0.1,0.2l0.2-0.3L19,51.2L19,51.4z M19.2,49.7l0,0.2l0.2,0.1l0.1-0.2l-0.1-0.2l-0.2-0.2L19.2,49.7z M19.8,53.2h0.1v-0.2
			h-0.1V53.2z M20.4,72.5v-0.2l-0.1-0.2l-0.2,0.2l0,0.2l0.2,0.1L20.4,72.5z M20.6,76.8L20.4,77v-0.2L20.6,76.8z M20.6,71.4h-0.2v0.2
			h0.2V71.4z M20.7,49.8l0.1,0.1l-0.1-0.3V49.8z M21,48.4l0.3,0.1l0-0.2l-0.2-0.1L21,48.4z M21.3,47.4l0.2,0l0.1-0.2l-0.4,0.1
			L21.3,47.4z M21.8,50.1h-0.2l0.1,0.3l0.2,0l0.1-0.2L21.8,50.1z M22,48.9l-0.1,0.2l0.2,0l0.1-0.2L22,48.9z M22.3,48.2l0.2-0.1
			l-0.1-0.2L22.3,48V48.2z M23.3,73.9l-0.2-0.1l-0.2,0.3l0.2,0.1L23.3,73.9z M23.2,48l-0.1,0.2l0.2,0.1h0.3v-0.2l-0.2-0.3L23.2,48z
			 M23.5,47.6l0.2,0.1v-0.2l-0.2-0.1L23.5,47.6z M24.2,73.7l0.2-0.1l0.1-0.2l-0.2-0.1h-0.3l-0.2,0.1v0.3L24.2,73.7z M24.5,47.9
			l0.2-0.1l-0.2-0.2V47.9z M24.9,74.8L24.9,74.8h-0.3V75l0.1,0.1l0.2-0.1V74.8z M25.8,72l-0.2-0.2l-0.1,0.2L25.8,72z M25.7,47.3
			l0.2-0.1V47h-0.2V47.3z M25.9,49.8v0.2l0.2,0l0.1-0.1L25.9,49.8z M27.2,72.1h-0.2v0.2h0.2L27.2,72.1z M27.7,48.9l0.2,0l-0.1-0.2
			L27.7,48.9z M28.1,47.4l-0.2,0.1l0.4,0.1v-0.2L28.1,47.4z M29.7,48.3l0.2,0.1l0.1-0.2l-0.3-0.1V48.3z M30.6,71.2l0.1-0.2l-0.3-0.2
			v0.4L30.6,71.2z M32.3,47.5h0.2v-0.1h-0.2V47.5z M32.8,50.3h0.1V50h-0.1V50.3z M32.9,49.3l0.2,0v-0.3h-0.2L32.9,49.3z M33.3,52.8
			v0.2l0.2-0.2H33.3z M33.6,55.4l-0.1-0.1l-0.1,0.2l0,0.2l0-0.1l0.2,0L33.6,55.4z M33.8,71.4l0.1-0.2l-0.1-0.2h-0.3l-0.1,0.2
			l0.1,0.2L33.8,71.4z M33.6,72.5h-0.2v0.2h0.2V72.5z M34,49.7l0.2-0.1l0.1-0.2H34V49.7z M34.1,65.8h0.1l-0.1-0.2L34.1,65.8
			L34.1,65.8z M34.5,73.3l-0.1-0.2l-0.2,0.2L34.5,73.3z M34.6,74.5l-0.1,0.1l0.1,0.1h0.2L34.6,74.5z M38.6,71.8h-0.2l-0.1,0.2h0.2
			L38.6,71.8z"/>
		<path class="st17" d="M74.6,48.1l0.2,0.4l0,0.5l-0.2,1.2l0.3,0.6l-0.4,1.4l-0.4,0.5l-0.9,0.2l-0.5-0.2l-0.2,0.1l-0.5,0.1l-1.4-0.1
			L70.1,53l-0.7-0.1h-1l-0.5-0.1l-0.2,0.1L67.5,53l-0.4-0.2L66,52.9l-0.3-0.4l-0.1,0.3l-1.9,0L62,52.9l-0.2-0.1l-0.5-0.3l-1.2,0.2
			l-0.2,0.1l-0.1-0.5l-0.5,0.5l-0.5,0.2l-0.3,0.5l-0.2,0.2v0.7L58,54.8l0.1,0.2l0,0.5l0.1,0.2l-0.2,0.2l0,0.3l0.6,1l0.2,0.3l0.5,0.1
			l0.5-0.3h1l0.2-0.1l0.2,0.1l1-0.1l0.3,0.2l0.3-0.2l0.7,0l0.2-0.1l0.5,0.3l0.2-0.1l0.1,0.2l0.2,0l0.1-0.2l0.9,0l1,0.2l0.2-0.1
			l0.1-0.2l1.5,0.1l0.4,0.1l0.7-0.2l1.7,0.2l0.5,0.5l0,0.3l0.1,1.6l-0.1,0.4l-0.2,0.4l0.1,0.2l0.3,0.3v0.3l-0.2,0l-0.2-0.1l-0.2,0
			l0.2,0.4v0.3l0.2-0.1l0.1,0.1l0.1,1.3l-0.4,0.2l0.1,0.2l-0.1,0.5l-0.3,0.4l-0.2,0l-0.2-0.1l0.2-0.2l-0.1-0.2l-0.4,0.5l-0.2,0
			l-0.4-0.2v0.3l-1.1,0l-1-0.2L67.4,65l-1,0l0.2-0.5l-0.2,0.1L66,65.1l-0.6-0.2L65.2,65l-0.3-0.1l-0.1-0.2l-0.2,0.2l-1,0.1l-0.2-0.5
			l-0.2-0.1l-0.1,0.2l0.1,0.2L61.1,65l-0.9,0l-0.5-0.2L59.1,65l-0.9,0.9v1.9l0.2,0.5l0.3,0.5l1,0.1l0.4,0.1l0.5-0.1h1.4l0.2-0.1
			l0.2,0.1l0.3,0.3l0.2-0.1l0.1-0.2h0.2l0.2,0.2l0.5-0.2h1.1l0.7,0.2l0.2,0L66,69l0.2,0l0,0.2l0.1,0.1l0.5,0.2l0-0.2L66.7,69
			l0.2-0.1l0.2,0l0.5,0.3l0.2,0.2l0.2-0.1l0.1-0.2l0.5,0.1l0.9-0.2l0.5,0v0.3l0.2,0.2l0.2-0.4l0.7,0.2l0.4-0.3l0.6-0.2l0.5,0.2h0.2
			l0.2-0.1l1.1,0.3l0.3,0.7l0.2,0.2l-0.1,0.4l0.1,0.7l0.1,0.2l0.2,0.1L74.8,72l-0.2,1.6l-0.1,0.2l0.3,0.5l0,0.2l-0.2,0.4l0.3,0
			l-0.2,0.7l-0.1,0v0.2l0.1,0.2l-0.1,0.2l-0.8,0.5L73.7,77l-0.2,0l-0.8,0.2l-1-0.2l-0.5,0.1L70.7,77L70.5,77l-0.8,0l-0.2,0.1
			l-0.1,0.2l-1.1-0.5L68,77l-0.1,0.2l-0.6,0L66.9,77l-0.3,0.1h-0.2l-0.7-0.2l-0.2,0l0-0.2l-0.2-0.1l-0.1,0.2l0.1,0.2l-0.5,0L63.2,77
			l-0.5,0l-0.5,0.2L62,77.1l-0.3-0.2L61.5,77l-0.4,0.2l-0.5-0.1l-0.7,0L59.7,77l-0.2,0.1l-1.1,0.1l-0.2,0.1L57.6,77l-0.3,0.1l-1-0.1
			l-0.2,0.1l-0.4-0.4l-0.3,0.4l-1-0.1l-0.7,0.1L53,77.1l-0.4,0.1l-0.2,0.1l-0.5-0.1L51.5,77l-0.7,0.1l-0.4-0.2L50,76.6l-0.2-0.4
			l0.1-0.2l0.2-0.1l-0.1-0.2l-0.2,0l-0.1-0.2l0.3-0.1l0-0.5l-0.3-1l0-0.4l0.1-0.2l-0.2-0.5l0.1-0.4l-0.1-1.5l0.2-1v-0.5L49.8,69
			l0.2-0.3l-0.2-0.5l0.2-0.2l-0.2-0.2l-0.1-0.5l0.2-0.5v-0.2l0.6-0.1l-0.5-0.2l0-0.5l0.1-0.2l0.1-0.1L49.7,65l0.1-0.2l0.4-0.2
			l-0.5-0.2v-0.3l0.3-0.6l-0.2-0.4l0-0.5l0.1-1l-0.1-0.4v-2.4l0.1-0.4l-0.2-1.5l0.2-0.4v-0.7l0.2-0.2l-0.2-0.9l0-0.2l0.2-0.1
			l0.2,0.2L50.1,54l-0.3-0.3l0-0.5l-0.2-0.5l0.2-0.5l-0.1-0.7l0.1-0.2L49.7,51l0-0.5l0.2-0.4l-0.2-0.7l0.1-1.5l-0.1-0.2l0.1-0.4
			v-1.1l0.2-1l0.2-0.4l0.2-0.1l3.7-0.1l0.5,0.3l0.1-0.2l0.2-0.1l0.5,0.1l0.1,0.1l1.3-0.3l0.3,0.1l0,0.2h0.3l0.1-0.2l0.2-0.1l0.6,0.1
			l0.5,0.3l0.1-0.3h3.1l0.7,0.2l0.3-0.2l0.5,0.1l1-0.1l0.5,0l0.2,0.1l0.9-0.2l2.1,0l1.5-0.1l0.5,0.1l0.9-0.2l0.5,0.1l0.7,0.2
			l0.3-0.1h1l1.2,0.5l0.2,0.9l0.1,1.5l-0.2,0.4L74.6,48.1z M50.3,67.6l0-0.3l-0.1,0.2L50.3,67.6z M50.3,74.7h0.2v-0.2h-0.2V74.7z
			 M50.8,68.9l0-0.3l-0.1-0.1l-0.2,0l0.2,0.4L50.8,68.9z M50.8,52.1l0.2,0.1L50.8,52V52.1z M51.4,71.4l0-0.2l-0.2-0.1L51,71.4
			l0.2,0.2L51.4,71.4z M51.2,53.5l0,0.4l0.2-0.1l0.1-0.2l-0.2-0.1L51.2,53.5z M51.3,55.1l0.3-0.1l-0.3-0.2V55.1z M51.4,49.3h0.2V49
			h-0.2V49.3z M51.4,58l0.3-0.1l0.1-0.2l0-0.3l-0.2-0.1l-0.2,0.4L51.4,58z M51.4,74.1l0.3,0.2l0-0.4l-0.1-0.1l-0.2,0.2L51.4,74.1z
			 M51.5,65.7l0.2-0.1l0.1-0.2l0-0.4l-0.3,0.1l-0.1,0.2l0,0.2L51.5,65.7z M51.6,52.9l0.2,0l0.1-0.1l-0.2-0.2L51.6,52.9z M51.7,56.9
			l0.2-0.1v-0.2l-0.2-0.1V56.9z M51.7,60.9l0.4,0l0.2-0.5l-0.2,0l-0.2,0.2L51.7,60.9z M51.7,69.4h0.2v-0.2h-0.1L51.7,69.4z
			 M52.1,68.2l0.1-0.4l-0.1-0.2l-0.2,0l-0.1,0.2l0.1,0.3L52.1,68.2z M51.8,63.4h0.1v-0.2h-0.1V63.4z M52.2,51.8l-0.2,0.1L52,52
			L52.2,51.8z M52.3,51l0-0.2l-0.2,0L52.3,51z M52.2,63.6l0.3-0.1l0-0.2l-0.1-0.1l-0.2,0.2L52.2,63.6z M52.4,71.2h0.4l-0.2-0.6
			l0.1-0.2l-0.2-0.1l-0.2,0.2l0,0.5L52.4,71.2z M52.2,66.3l0.4,0.1l0.2-0.1v-0.4l-0.3,0l-0.2,0.1L52.2,66.3z M52.3,54.4l0.1,0.2
			l0.5,0.2l-0.1-0.3l-0.2-0.2L52.3,54.4z M52.6,58.5v-0.1h-0.2L52.6,58.5z M52.5,53.4l0.4-0.2L53,53l-0.1-0.2l-0.3,0l-0.1,0.4
			L52.5,53.4z M52.5,64.9l0.4,0.1l0-0.2l-0.2-0.1L52.5,64.9z M52.6,48.7h0.2v-0.2l-0.1-0.1L52.6,48.7z M52.7,45.9l0.2,0.1l-0.1-0.2
			L52.7,45.9z M52.7,68.9l0.4,0.2l0.3,0l0.1-0.2v-0.2l-0.2-0.2l-0.4,0l-0.1,0.2L52.7,68.9z M53.1,73.8L53,73.2l-0.3-0.1v0.4l0.1,0.2
			L53.1,73.8z M52.8,57.4h0.4L53,57.1L52.8,57V57.4z M53.2,47.7v-0.6h-0.2l0,0.2l0.1,0.2L53.2,47.7z M52.9,56.2l0.2,0.2h0.2l0.1-0.2
			L53.2,56v-0.2H53l0,0.2L52.9,56.2z M52.9,60.4L52.9,60.4l0.5-0.2v-0.2h-0.3l-0.1,0.2L52.9,60.4z M53.1,72.8l0.3-0.1l-0.1-0.2
			l-0.2-0.1L53,72.6L53.1,72.8z M53.1,51.2l0.1,0.5l0.2,0.1l0.2,0l0.1-0.6l-0.2-0.1h-0.2L53.1,51.2z M53.1,52.7h0.2l-0.1-0.3
			L53.1,52.7z M53.7,58.5l-0.2-0.2l-0.2,0.1l-0.1,0.2v0.2l0.1,0.2l0.2,0.1l0.1-0.5L53.7,58.5z M53.2,63.1l0.2,0.1l0.1-0.4l-0.2,0.1
			L53.2,63.1z M53.4,71.7l0.5,0.1l-0.2-0.4l-0.2-0.1l0,0.2L53.4,71.7z M53.5,50.2l-0.1-0.1L53.5,50.2z M53.6,66.9v-0.2h-0.2
			L53.6,66.9z M53.4,54.1l0.2,0.2l0.5-0.6l-0.2,0l-0.2,0.1l-0.2,0.2L53.4,54.1z M53.7,61.7l0.1-0.3l-0.2-0.1l-0.1,0.2L53.7,61.7z
			 M53.6,70.9l0.2-0.1l-0.1-0.5l0-0.3l-0.3-0.2l-0.1,0.2l0.2,0.4V70.9z M53.6,45.7l0.2-0.1v-0.2h-0.2V45.7z M54.2,65.9l-0.1-0.2
			l-0.4-0.2l0.1,0.2l0.2,0.2L54.2,65.9z M53.8,62.1h0.1v-0.2h-0.1V62.1z M53.8,73.1l0.4,0.2l0.1-0.2v-0.5l-0.1-0.2l-0.2,0l-0.2,0.3
			V73.1z M54.2,49.5l-0.1-0.2l-0.2-0.1l0,0.2l0.2,0.2H54.2z M53.9,69.7l0.2,0.1l0.1-0.2v-0.3l-0.2,0l-0.1,0.2L53.9,69.7z M54.3,48.2
			L54.2,48L54,48l-0.1,0.2l0,0.1L54.3,48.2z M54,59.5l0.2,0.2l0.3,0l0.1-0.2l-0.4,0L54,59.5z M54.1,56.5l0,0.3l0.2,0.1l0.2-0.1
			l-0.1-0.3L54.1,56.5z M54.4,55.5l0.2-0.3L54.3,55l-0.2,0.1v0.2L54.4,55.5z M54.8,51.2l0.4-0.4l-0.4-0.2h-0.3l-0.2,0.1v0.4l0.2,0.1
			H54.8z M54.8,58.8l0.1-0.4V58l-0.3-0.1l-0.2,0L54.4,58v0.2l0.2,0.5L54.8,58.8z M54.4,63.9l0.2-0.1l0-0.3h-0.2l-0.1,0.2L54.4,63.9z
			 M54.9,71.1l-0.2-0.1l-0.3,0l0.1,0.3h0.2L54.9,71.1z M54.4,47.3h0.2v-0.2h-0.2V47.3z M54.6,62.3l0.1,0.5l0.2-0.1l0.1-0.2l0-0.2
			h-0.2L54.6,62.3z M55.2,53.9l0.1-0.2l-0.1-0.2l-0.2-0.2h-0.4l0.3,0.4L55.2,53.9z M54.7,60.7l0,0.3l0.2,0.2v0.3l0.2-0.1l0.1-0.2
			v-0.3l-0.1-0.2h-0.3L54.7,60.7z M54.7,69.9l0.2,0l0.1-0.1l0-0.2l-0.2,0l-0.1,0.1V69.9z M55,49.6l0.1-0.2l-0.3-0.1v0.2L55,49.6z
			 M54.8,45l0.3,0l-0.2-0.2L54.8,45z M55.1,49.1l0.1-0.2L55,48.8L55.1,49.1z M55,72.3l0.3,0.5l0.2,0.1l0.1-0.2v-0.5l-0.2-0.1h-0.2
			L55,72.3z M55.1,52.4l0.2-0.1v-0.2l-0.2-0.1V52.4z M55.3,56.5l0.3-0.4l0-0.2l-0.2-0.2l-0.3,0.4L55.3,56.5z M55.4,65.3l0.2-0.1V65
			l-0.2-0.1h-0.3l0.1,0.3L55.4,65.3z M55.2,48l0.2-0.1l0-0.3l-0.2-0.1l0,0.2V48z M55.4,60.4V60l-0.2,0.1v0.2L55.4,60.4z M55.3,68.1
			l0.5-0.2l0.1-0.2l-0.2-0.1l-0.2,0.1l-0.1,0.2L55.3,68.1z M55.7,58.9L55.6,59l-0.1-0.1h-0.2l0.1,0.2l0.2,0l0.2-0.1L55.7,58.9z
			 M55.5,63.7l-0.2-0.1l0.1,0.2L55.5,63.7z M55.3,64.4h0.2l-0.1-0.2l-0.2-0.1V64.4z M55.4,74.8l0,0.2l0.2,0.2l0.2,0L56,75l-0.1-0.2
			l-0.2,0L55.4,74.8z M55.8,55.4l0-0.6l-0.2-0.2l-0.2,0.2V55l0.1,0.2L55.8,55.4z M55.7,57.9l0.3-0.1l0.2-0.5L56,57.2l-0.2,0.1
			l-0.2,0.4L55.7,57.9z M55.9,63.3V63l-0.2-0.1v0.2L55.9,63.3z M55.9,70.9l0.1-0.2l0.4-0.2l-0.5,0l0,0.2L55.9,70.9z M56.3,61.9
			l0-0.5l-0.3,0l-0.1,0.1l0.2,0.3H56.3z M56,49.1l0.1-0.2l-0.2-0.1l0,0.2L56,49.1z M56.2,50.7l0.1-0.2l-0.1-0.2L56,50.1l-0.1,0.2
			v0.2l0.1,0.2L56.2,50.7z M56.1,60.7l0.2-0.1l0.1-0.1l0.1-0.2L56.1,60l-0.1,0.4V60.7z M56.3,74.4v-0.2l-0.2,0.1L56.3,74.4z
			 M56.5,49.7l-0.1-0.2l-0.2-0.1l0,0.3H56.5z M56.2,53.4l0.4-0.2v-0.3l-0.1-0.1l-0.2,0l-0.1,0.4L56.2,53.4z M56.2,64.9l0.2-0.2
			l0-0.3l-0.2,0l-0.1,0.2L56.2,64.9z M56.2,63.4h0.2L56.3,63l-0.1,0.2L56.2,63.4z M56.3,73.4l0.3-0.1l0.1-0.2l-0.2,0l-0.2,0.1
			L56.3,73.4z M56.3,72.1l0.3,0.2l0.1-0.2v-0.3l-0.2-0.2l-0.2,0.2L56.3,72.1z M56.4,63.8l0.2-0.1l0.1-0.2h-0.2L56.4,63.8z
			 M56.5,58.6h0.3l0.2-0.1l-0.1-0.3l-0.3,0.2L56.5,58.6z M56.6,47.4h0.2l0-0.2l-0.2-0.1V47.4z M56.9,50l0.2-0.1l0.1-0.3h-0.5l0,0.3
			L56.9,50z M56.8,54.5h0.1l0.1-0.1l-0.2-0.1V54.5z M57,62.6l0.1-0.3h-0.3l0,0.2L57,62.6z M56.8,74.4l0,0.3l0.1,0.2l0.2,0l0.1-0.2
			l0-0.3H57L56.8,74.4z M57.2,57.3l0-0.2l-0.1-0.2L57,56.8h-0.2l0.1,0.5L57.2,57.3z M57,46.6l-0.1-0.3l0,0.2L57,46.6z M56.9,61.4
			l0.3,0l0.2-0.1L57.3,61L57,61L56.9,61.4z M57.2,60h0.4v-0.4l-0.2-0.1l-0.2,0.1l-0.1,0.2L57.2,60z M57.2,52.7l0.4,0.1l0.1-0.1v-0.3
			l-0.3-0.1l-0.1,0.2L57.2,52.7z M57.3,64l0.1,0.3l0.2,0.1l0.1-0.4l-0.2,0L57.3,64z M57.4,48.3l0.3-0.1l0.1-0.2l-0.2-0.1L57.5,48
			L57.4,48.3z M57.7,72.9v-0.3l-0.2,0.2L57.7,72.9z M57.6,62.4l0.2,0.4V63l0.2-0.1l0-0.2L58,62.4l-0.2-0.1L57.6,62.4z M57.6,71.3
			l0.1,0.2H58l-0.1-0.2L57.6,71.3z M57.7,51.9h0.2l-0.2-0.2V51.9z M58,59L57.8,59l0.1,0.2L58,59z M57.9,46.9l0.2,0l0.1-0.2l-0.2,0
			L57.9,46.9z M57.9,74.1l0.6,0.2l0.1-0.5l-0.2-0.1L58,73.9L57.9,74.1z M58,50.5l0.2,0.2l0.1-0.2H58z M58.1,61.8h0.2l0-0.2l-0.2-0.1
			V61.8z M58.9,59.7v-0.3h-0.3l0,0.2L58.9,59.7z M58.9,47.6v-0.1h-0.2L58.9,47.6z M58.9,61.9l0.3,0.3l0.1,0.2l0.1-0.2v-0.3L59,61.7
			L58.9,61.9z M59,51.3L59,51l0,0.2L59,51.3z M59.3,74.8l0.1,0.2h0.2l0.1-0.2L59.3,74.8z M59.7,51.4l0.1,0.2l0.2,0l0.1-0.2L60,51.2
			L59.7,51.4z M59.9,76.4v-0.3L59.8,76v0.3L59.9,76.4z M60.2,58.8l0-0.2H60l0.1,0.3L60.2,58.8z M60.1,61.6l0.3,0.4l0.2,0l0.2-0.4
			l-0.4-0.2l-0.2,0.1L60.1,61.6z M60.6,48.4l0.2,0l0.1-0.1h-0.2L60.6,48.4z M60.9,59.8l0.4-0.2l0-0.2l-0.3,0.2L60.9,59.8z
			 M61.2,62.5l0.3,0.2l0-0.3l-0.2-0.1L61.2,62.5z M61.5,61l0.3,0.5l0.2-0.2l0.1-0.2l-0.5-0.1L61.5,61z M61.5,74.1l0.2-0.1l-0.2-0.1
			V74.1z M62.1,60.5v-0.3l-0.2,0.2L62.1,60.5z M61.9,59.2l0.2-0.1L61.9,59V59.2z M62.3,72.6l-0.1-0.2h-0.3l0,0.2l0.2,0L62.3,72.6z
			 M62.4,50.5h0.3l-0.1-0.2l-0.2-0.1L62.4,50.5z M62.5,61.8l0.1,0.2l0.2,0.1l0.2-0.2v-0.2l-0.2-0.1L62.5,61.8z M62.6,60.7l0.3,0.2
			h0.2L63,60.7v-0.3l-0.2-0.1l-0.1,0.2L62.6,60.7z M62.9,73.6h0.3v-0.2l-0.2,0L62.9,73.6z M63.6,63.7l0.1-0.2l-0.3-0.4l0,0.5
			L63.6,63.7z M63.4,76l0.2,0.1l-0.2-0.2V76z M63.9,61.4l0.2,0.1l0.2-0.1l0.1-0.2l-0.2,0l-0.2,0.1L63.9,61.4z M64.3,60.4l0-0.2
			L64.2,60v0.3L64.3,60.4z M64.5,62.7l0.3,0.1v-0.2l-0.2,0L64.5,62.7z M65.3,60.7h0.2l-0.1-0.2L65.3,60.7z M65.7,59.7l-0.2-0.2
			l0,0.3L65.7,59.7z M65.6,63.5l0.2,0.1l0.1-0.2h-0.2L65.6,63.5z M65.9,72.4l0.1-0.2L65.8,72l0,0.3L65.9,72.4z M66.2,62.5l0.1-0.2
			l0-0.2L66,61.9l-0.2,0.2l0.1,0.2L66.2,62.5z M66.1,73.6v0.2l0.3,0l0.2-0.2l-0.2-0.2L66.1,73.6z M66.8,49.3L66.7,49l-0.4-0.2
			l0.1,0.2l0.2,0.1L66.8,49.3z M66.6,60.4l0.2,0l0.1-0.1l-0.2-0.1L66.6,60.4z M66.9,76.5l-0.1-0.1h-0.2l0.1,0.2L66.9,76.5z
			 M67.2,58.8l0.2-0.1l-0.2-0.1V58.8z M67.8,76H68l0.1-0.2l-0.3,0V76z M67.9,46.6h0.2v-0.1h-0.2V46.6z M67.9,62.4l0.2,0l-0.2-0.2
			V62.4z M68.2,71.2h0.2l-0.2-0.2V71.2z M68.6,61.4l0.1-0.3h-0.2v0.2L68.6,61.4z M68.9,72.9l0-0.2l-0.2-0.1l0,0.2L68.9,72.9z
			 M68.7,75.3l0.1,0.2h0.3v-0.3h-0.2L68.7,75.3z M69.5,69.5l0.1-0.1l0-0.2l-0.2,0.1L69.5,69.5z M69.7,62l0.1-0.2h-0.2L69.7,62z
			 M69.7,61h0.2v-0.1h-0.2V61z M70.1,74.8l0.2,0.1l0.2-0.1l0-0.2h-0.3L70.1,74.8z M70.4,70.1l0-0.2l-0.2,0L70.4,70.1z M71,75.6h0.2
			v-0.2H71V75.6z M71.7,73.3h0.2l-0.2-0.2V73.3z M71.8,72.3l0.2-0.1l-0.2-0.1V72.3z M71.9,69.4h0.2l0.1-0.2l-0.2-0.1V69.4z
			 M72.3,76.1l0-0.2l-0.2-0.1v0.2L72.3,76.1z M72.7,73.8l0.2-0.3l-0.2,0l-0.1,0.2L72.7,73.8z M73.1,72.9h0.1l-0.1-0.2L73.1,72.9
			L73.1,72.9z M74.3,72.4h0.2v-0.2h-0.2V72.4z"/>
		<path class="st17" d="M112.5,56.8l0.1,0.7l-0.1,0.5l-0.2,0.4l0.2,0.5l-0.4,1.4l-0.2,0.1l0.1,0.5l-0.5,1.1l-0.5,0.8l-0.2,0.1
			l-0.2,0l0,0.2l0.2,0.1l-0.5,0.6l-0.2,0.1l0,0.3l-0.4,0.6l-1.1,1l-0.5,0l0.1,0.2l-1.2,1l-0.2,0.1l0.1,0.3l-0.2,0.2l0.4,0.5l0,0.2
			l0.7,0.7l0.2,0.5l0.5,0.2l0.3,0.6l0.4,0.3v0.5l0.2,0.1l0.3,0.3l0.5,0.8l0.3,0.3l0.2,0.1l0.1,0.8l0.2,0.1l0.3,0.4l0.4,0.3l0.2,0.5
			l0.7,0.9l0.1,0.2l-0.5,0.8l-1,0.1l-0.5,0.2l-0.7-0.1h-3.1l-1.4-0.1l-0.5,0.2l-1.5-0.3l-0.5-0.2l-0.1-0.1v-0.2l-0.4-0.1l-0.4-0.5
			l-0.2-0.5l-0.6-0.7l-0.2-0.5l-0.2,0l0-0.3l-0.2-0.5l-0.4-0.2l0-0.2l-0.7-1.2L99,71.4l-0.2-0.3l0.2,0l0-0.2l0.1-0.2l-0.4-0.2
			l-0.2-0.2l-0.1-0.2l0.2-0.2l-0.1-0.2l-0.8-0.2l-0.2-0.3l0.3-0.3l-0.2-0.3l-0.2,0.1l-0.1-0.4l-0.3,0.5l-0.6-0.2h-0.5l-0.2,0.1
			l-0.3-0.1l-0.1-0.2L95,68.4l-0.3,0.1l-1-0.4l-0.1,0.2l0,0.3l-0.2,0.1l-0.3,0.4l-0.4,1.2l0.3,0.4L92.9,71v0.6l0.1,0.2L92.9,72v0.8
			L92.8,73l-0.2,0.1l0.3,0.2l0.1,0.2l-0.2,0.2l0.2,0.5l0,0.7l-0.1,1.5l-0.5,0.1l0.1,0.5L92.1,77l-1,0.2l0.4-0.5l-0.2-0.1l-0.3,0
			l-0.2,0.1l0.2,0.3L89.9,77l-1,0l-0.5,0.1l-0.1-0.3l-0.7,0.2h-0.9l-0.6,0.1l-0.1-0.4l-0.4,0.3l-0.3,0L85,76.8l-0.3-0.4l-0.2-0.7
			v-0.5l0.1-0.5l0.2-0.4l-0.2-0.2l-0.1-0.4l-0.1-0.2l0.4-0.5l-0.1-0.2l-0.3-0.2l0.2-0.8l0.1-1l-0.1-0.2l-0.1-0.7l0.2-0.4l-0.1-0.2
			l-0.1-0.5l0-0.5l0.2-1l-0.1-0.2L84.3,67l0.2-1l0.1-0.2l-0.1-0.4l-0.1-1.1l0.1-0.5l0.2-0.4l0.2-0.1l-0.1-0.2l-0.3-0.2l0.1-0.2
			l0.2-0.1l-0.4-0.3l-0.1-0.5l0.1-0.8l0-0.5l-0.1-0.2l0.1-1.1l-0.1-0.2l0.2-0.5v-0.7l0.1-0.5L84.5,57l-0.1-0.5l0.2-0.9l-0.2-0.5
			l0.2-0.7l0-0.5l-0.1-0.2l0.3-1.3l-0.3-0.7l0.4-0.2v-0.2l-0.4-0.7l0.2-0.5l0.2-1l0-0.2l-0.2-0.3l0.1-0.7l-0.1-1l0-0.2l0.2-0.4
			L84.4,46l0-0.2l0.3-0.5v-0.3l0.7-0.2l0.5-0.1l0.5,0l0.5,0.2l0.4-0.2l0.5-0.1l0.2,0.2l0.2-0.2h0.2l0.4,0.2l0.7-0.2l0.5,0.1l0.2,0.2
			l0.5-0.2l0.5,0l2,0.1l0.5-0.1l0.2,0.1l0.3,0l0.2,0.1l0.4-0.2l0.3,0l0.2,0.1h0.3l0.2-0.1l0.2,0.2l0.1,0.2l0.7-0.2l0.2,0.1l0.5-0.2
			h1.5l0.5-0.1l0.2,0.1l0.1,0.2l1-0.3h0.6l0.5,0.1l0.4,0.3l0.3-0.3l0.9,0.3v0.5l0.5-0.5l0.4,0.3l0.5,0.1l1,0.1l0.2,0.1l0.2,0.5
			l0.4-0.1l1.1,0.5l0.1,0.2l0.5,0.1l-0.1,0.5l0.3,0l0.5,0.2l0.3,0.4l0.4,0.3l0.2,0.1l0,0.3l0.2,0.4l0.5,0.7l0.1,0.5l0.1,0.2l0.4,0.2
			l0.3,1.5l0.2,0.5l0.3,0.4v0.3l0.2,1l0,0.6l0.1,0.2l0.1,0.8l-0.1,0.5l-0.1,0.2L112.5,56.8z M85.8,52.2l0.1,0.2h0.2l0-0.4l-0.2,0
			V52.2z M86.1,64.8h-0.2V65H86L86.1,64.8z M85.9,67.3l0.3,0.2l0-0.2L85.8,67L85.9,67.3z M85.9,48.9h0.2v-0.2H86L85.9,48.9z
			 M86.2,63.6v-0.2h-0.1v0.2H86.2z M86.4,59.7l-0.3-0.1l0,0.2l0.2,0L86.4,59.7z M86.2,61l0.2,0.1l0.1-0.2l-0.2-0.2l-0.2,0.1L86.2,61
			z M86.8,53.1l-0.2,0.1l0.1,0.1h0.2L86.8,53.1z M87,49.5l0-0.2l-0.2-0.1l-0.1,0.3H87z M87.3,51.7l-0.2,0.1L87.1,52l0.3,0l0.2-0.2
			L87.3,51.7z M87.1,55.8l0.2,0l0.1-0.1l0-0.2l-0.4-0.1V55.8z M87.5,60.3L87.5,60L87.2,60l-0.1,0.2l0.1,0.2l0.2,0.1L87.5,60.3z
			 M87.1,48.4l0.2-0.1l-0.2-0.1V48.4z M87.3,51.1l0.3,0.1l0.2-0.1l-0.4-0.2l-0.2,0.1L87.3,51.1z M87.3,68.8h-0.2V69h0.2V68.8z
			 M87.2,71.7l0.1,0l-0.2-0.2L87.2,71.7z M87.7,59.4l-0.2-0.1v0.2L87.7,59.4z M87.9,54.5l0-0.2h-0.3v0.4l0.2,0L87.9,54.5z M88.1,66
			l0.2-0.1l-0.1-0.4L88,65.3l-0.2,0l-0.1,0.7l0.2,0.1L88.1,66z M87.7,45.3l0.1,0.2l0.1,0L87.7,45.3z M88,48.3l-0.1,0.2l0.1,0.2
			l0.2,0.1v-0.3l-0.1-0.2H88z M88,47.8l0.2-0.1L88,47.6V47.8z M88.2,61l-0.2-0.1V61L88.2,61z M88.4,54.9l-0.2,0l0.1,0.2l0.2,0
			L88.4,54.9z M88.7,68.2l-0.2-0.1l-0.2,0l0,0.2h0.5L88.7,68.2z M88.7,71.2l0-0.2l-0.3,0l-0.1,0.1l0.3,0.3l0.2,0L88.7,71.2z
			 M88.5,72.3h-0.2l0.1,0.2l0.2,0L88.5,72.3z M88.4,59.6v0.2h0.2l0-0.2L88.4,59.6z M88.6,51.4l0,0.2l0.2-0.1l-0.1-0.2L88.6,51.4z
			 M88.8,62.2l-0.2,0.1l-0.1,0.2l0.2,0.1l0.2,0l0.1-0.2l0-0.2L88.8,62.2z M89,66.4l-0.2-0.1l-0.2,0l0.1,0.2l0.2,0.1L89,66.4z
			 M88.6,50.5h0.3v-0.1h-0.3V50.5z M88.9,52.9L89,53l0.2,0v-0.3L88.9,52.9z M89.1,70.2H89v0.2h0.1V70.2z M89.1,52.1L89.1,52.1
			l0.2,0.1l0.1-0.1l-0.1-0.2l-0.2,0V52.1z M89.1,69.2l0.2,0.1l0.1-0.2L89.1,69L89.1,69.2z M89.1,47.4l0.2,0l0.1-0.2L89.4,47h-0.2
			V47.4z M89.5,56.8v-0.3h-0.2L89.1,57l0.2,0.2L89.5,56.8z M89.4,48.2V48l-0.2-0.1l-0.1,0.4L89.4,48.2z M89.4,71.9l0.1-0.1h-0.2
			L89.4,71.9z M89.8,68.1l-0.1-0.5l-0.2-0.2l-0.2,0.4l0.1,0.4l0.2,0.1L89.8,68.1z M89.4,64.4v0.2h0.2v-0.2H89.4z M89.7,51.4
			l-0.1-0.1l0.1,0.3L89.7,51.4z M89.7,50.8l0.2,0.1v-0.2L89.7,50.8z M89.9,67l-0.2-0.1l0,0.2l0.2,0.2L89.9,67z M90,70.6h-0.2v0.2H90
			V70.6z M90.1,62l0.2,0.1l0.1-0.2l-0.2-0.2L90,61.9L90.1,62z M90.1,60.5l0.1,0.3l0.1-0.3H90.1z M90.4,68.7l0.2,0l-0.1-0.2l-0.2-0.1
			l-0.1,0.1L90.4,68.7z M90.4,60l0.2,0l-0.1-0.2l-0.2,0L90.4,60z M90.5,64.7l-0.2,0l0.1,0.3l0.2-0.1L90.5,64.7z M90.7,71.9l-0.1-0.2
			l-0.2-0.1l0,0.2l0.1,0.2l0.3,0.1V71.9z M90.6,64.2l0.2-0.2l0-0.2l-0.2,0.1l-0.2,0.5L90.6,64.2z M90.4,47.8l0.1,0.2l0.2-0.1v-0.2
			l-0.2-0.2L90.4,47.8z M90.9,67.5l0.1-0.2l-0.2-0.1l-0.2,0.1l0,0.3L90.9,67.5z M91.1,54h-0.2l0,0.2l0.2,0V54z M91.5,69.2l0.1-0.2
			l0-0.2l-0.2,0L91.2,69l0.1,0.2L91.5,69.2z M91.3,52.2l0.2,0l0.1-0.2L91.5,52h-0.2L91.3,52.2z M91.3,61.5h0.2v-0.3h-0.2V61.5z
			 M91.8,51.6l-0.2-0.1v0.2L91.8,51.6z M91.6,47.6l0.3,0l0-0.2l-0.3-0.1V47.6z M91.8,46.1l-0.1,0.2l0,0.2l0.2,0l0.1-0.1V46
			L91.8,46.1z M92,62.1l0.2,0.1L92.1,62l-0.2-0.1L92,62.1z M92.1,53.6L92,53.5v0.2l0.1,0.1V53.6z M92.1,64.9l0.2,0.1l0.2,0l-0.1-0.3
			l-0.2-0.1l-0.2,0L92.1,64.9z M92.6,67.5l0.1-0.2l-0.2-0.1l-0.2,0.2l0.1,0.2L92.6,67.5z M92.9,63.8l0.2-0.1l0.1-0.2h-0.6l0,0.3
			L92.9,63.8z M92.7,50.4l0.4,0L92.8,50l-0.1-0.2V50.4z M93,66.5h-0.2v0.2H93V66.5z M98.4,60.8l0.2,0.1l0.8-0.1l0.5,0.1l0.2-0.2
			l0.5-0.2h0.5l0.2,0.1l1.3-0.7l0.7-0.7l0.2-0.5l0.4-0.3v-0.3l0.1-0.2l0.3-0.4l-0.2-2.5l-1.5-1.8l-0.2-0.1l-0.8-0.5l-0.5,0.1
			l-0.1-0.2l0-0.4h-0.2v0.5l-0.5-0.2l-0.4,0.2l-0.5-0.2l-1,0.1L98,52.2l-0.5,0.2l-0.2-0.1l-0.6,0l-0.2,0.1L96,52l-0.3,0.2l-0.3-0.1
			l-0.8,0.1l-1,0l-0.6,0.9v2.8l0.2,0.5L93,57.2v3l1,0.5l0.9-0.1l0.5,0.1l0,0.2l0.1,0.2l0.4-0.4L96,61l0.1-0.2l0.2-0.1h0.6l0.3-0.1
			l0.4,0.2l0.5,0l0.2-0.2L98.4,60.8z M93.1,62.5l0,0.2l0.2,0l0-0.2l-0.2-0.1L93.1,62.5z M93.1,46.9h0.2l0.1-0.2l-0.2-0.1L93.1,46.9z
			 M93.4,66.5h-0.2v0.2h0.2V66.5z M93.7,65.1h-0.2v0.2l0.2,0V65.1z M93.8,50.9L94,51l-0.1-0.3L93.8,50.9z M94.8,66.2l0.1-0.2
			l-0.1-0.2l-0.2,0l-0.1,0.2l0,0.2l0.2,0.1L94.8,66.2z M94.5,48.9l0,0.2l0.2,0l0.1-0.2l-0.2-0.3L94.5,48.9z M94.9,65.3l0.2-0.3
			L95,64.7l-0.2-0.1l-0.1,0.1l0,0.5H94.9z M94.9,63.9l0.2,0l0.1-0.2l-0.3-0.1V63.9z M96.1,47.2l-0.2,0l0.1,0.3l0.2,0.2l0.1-0.4
			L96.1,47.2z M96.5,49.8l-0.2,0l0.2,0.5l0.4-0.2v-0.3l-0.1-0.2L96.5,49.8z M96.3,63.6h0.2l0-0.2l-0.2,0l-0.2,0.1L96.3,63.6z
			 M96.6,51.6l-0.1,0.2h0.2v-0.2H96.6z M96.7,66.7h-0.1v0.1h0.1V66.7z M96.8,49.1l0.2,0.1l-0.2-0.2V49.1z M97.4,65.1l0.2-0.1l0-0.2
			h-0.7l0.3,0.5L97.4,65.1z M97.2,48l0.1,0.2l0.2-0.4l-0.2-0.2V48z M97.5,49.6l0.1,0.1l0.2,0l0.1-0.2l0-0.3l-0.3-0.1l-0.2,0.1
			L97.5,49.6z M97.5,50.5h0.2l-0.1-0.3L97.5,50.5z M98,66.5l0-0.2l-0.2-0.2l-0.2,0.1l0.1,0.5l0.1,0.2L98,66.5z M98.3,65.6v-0.2h-0.2
			v0.2H98.3z M98.5,68.2l-0.2,0v0.2h0.2L98.5,68.2z M98.5,46.1l-0.1,0.3l0.3,0l0.1-0.2L98.5,46.1z M98.6,63.9l0.3-0.3l0.1-0.2
			l-0.1-0.2l-0.2-0.2l-0.3,0.9L98.6,63.9z M98.9,67h-0.2v0.2h0.2V67z M99.2,48.8l-0.5,0.1l0.2,0.5l0.2,0l0.2-0.4L99.2,48.8z
			 M99.3,65.9l0.1-0.2l-0.2-0.3V65l-0.1-0.2h-0.2V65l0.1,0.2l-0.2,0.9l0.3,0.1L99.3,65.9z M99.1,66.3l-0.2,0.2l0.2,0.1V66.3z
			 M98.9,45.6h0.1v-0.2h-0.1V45.6z M99.5,47.4l0.2,0v-0.3l-0.3,0.1L99.5,47.4z M100.1,62.7h-0.3l0,0.2l0.2,0L100.1,62.7z
			 M100.1,48.4v0.3h0.2l0.1-0.5h-0.2L100.1,48.4z M100.6,69.4l0.1-0.2l-0.2-0.1l-0.2,0.2l0.2,0.2L100.6,69.4z M100.4,65.5v0.2
			l0.2,0.1v-0.3L100.4,65.5z M100.6,64.5l0.1-0.2h-0.2l0,0.2L100.6,64.5z M100.5,67.1l0.2,0.2l0.2,0.1l0.2-0.1l-0.3-0.4l-0.2,0
			L100.5,67.1z M100.7,50.9l-0.2,0.2l0.2,0.1l0.2,0l0.1-0.2L100.7,50.9z M100.8,68.3l0-0.2l-0.2-0.1l-0.1,0.2l0,0.2L100.8,68.3z
			 M100.9,50v0.3l0.2,0V50H100.9z M101.6,63.6l-0.2,0l-0.2-0.2l0.1-0.2l-0.2-0.2l-0.2,0.7l0.2,0.1l0.5,0L101.6,63.6z M101.2,70.7
			l-0.3,0.1l0.3,0.1V70.7z M101.4,69.8l-0.2-0.2l-0.2,0l0.1,0.5l0.2,0.1L101.4,69.8z M101.3,49.4l0.6-0.5l-0.7,0.1L101.3,49.4z
			 M101.3,47.9l-0.1,0.2l0.1,0.2l0.2,0.1l0.1-0.2V48l-0.1-0.2L101.3,47.9z M101.3,62.2l0,0.2l0.1,0.1L101.3,62.2z M101.5,64.8
			l0.2,0.3l0.1-0.5l-0.2-0.1L101.5,64.8z M101.9,68.6l-0.2-0.1l-0.1,0.2l0.1,0.2l0.2,0L101.9,68.6z M101.7,71.4h-0.1v0.2h0.1V71.4z
			 M101.8,50.7h0.2l0.2-0.1l0-0.2l-0.2-0.1l-0.3,0.1L101.8,50.7z M101.8,64.1l0.2,0.1l-0.1-0.2l-0.3-0.1L101.8,64.1z M102.3,49.3
			l-0.2-0.2l-0.2,0.1l0.1,0.2l0.4,0.2L102.3,49.3z M102.3,67.6l0-0.2l-0.2,0l-0.1,0.2l0.2,0.2L102.3,67.6z M102.5,70.2h-0.2
			l-0.1,0.2h0.3L102.5,70.2z M102.5,62.1l-0.1-0.1l-0.1,0.2l0.2,0.2L102.5,62.1z M102.5,65.5l0.2,0.2l0.2,0l0.2-0.4l-0.5,0l-0.2,0.1
			L102.5,65.5z M102.7,47.5l0.2,0.1l0.2-0.1l0-0.2h-0.4L102.7,47.5z M102.9,64.3l-0.2,0.4l0,0.2l0.2,0l0.2-0.4v-0.2H102.9z
			 M102.8,73h-0.2v0.2h0.2V73z M102.8,63.4l0.1,0.2l0.2,0.1l0.1-0.5l-0.5-0.1V63.4z M103,72.2h-0.2l0.2,0.2V72.2z M103,49.9
			l-0.1,0.2l0.1,0.2l0.2,0.1l0.3-0.5l-0.2-0.1L103,49.9z M103,70.9l0.2,0l-0.1-0.2l-0.2,0.1L103,70.9z M103.3,67.5l-0.2-0.1
			l-0.1,0.2l0.2,0.2L103.3,67.5z M103.3,66.1l0.2,0.2h0.2V66l-0.3-0.2h-0.2L103.3,66.1z M103.4,62.3v0.3h0.2v-0.3H103.4z
			 M103.5,49.4l0.1,0l0-0.2L103.5,49.4z M103.6,61.3v0.1h0.2L103.6,61.3z M103.8,48.2l-0.2,0.2l0.1,0.2l0.2-0.1l0.1-0.2L103.8,48.2z
			 M104,72.6l0-0.2l-0.3,0.1l0.1,0.2L104,72.6z M103.8,46.8l0.2,0v-0.2h-0.2L103.8,46.8z M104.1,71.7l0.1-0.2l-0.2-0.2l-0.2,0
			l0.1,0.4H104.1z M104.2,67.8l-0.2-0.2l-0.2,0l0.1,0.2L104.2,67.8z M104.1,63.1l0.2,0l0.1-0.2l-0.2-0.1l-0.2,0L104.1,63.1z
			 M104.1,63.9l0.1,0.2l0.2-0.5h-0.2V63.9z M104.2,49.5l0.1,0.5h0.3l0.2-0.4l-0.1-0.2l-0.4-0.1L104.2,49.5z M104.5,66.5l0-0.1
			l-0.2-0.1v0.2H104.5z M104.9,65.6l-0.1-0.2l-0.2,0l0,0.3l0.2,0.2L104.9,65.6z M104.7,49.1l0.2,0l0-0.2h-0.3L104.7,49.1z
			 M105.1,68.4v-0.5l-0.5,0.1l0,0.3l0.1,0.2l0.2,0.1L105.1,68.4z M105,69.4l-0.2-0.4h-0.2v0.4l0.2,0.2l0.2,0V69.4z M105,52l-0.3,0.3
			l0.3,0.3l0.2-0.3V52L105,52z M105,60.7h0.1l-0.1-0.2L105,60.7L105,60.7z M105.4,62.2l-0.1-0.2l-0.2,0l0.1,0.2l0.2,0.2l0.2,0
			L105.4,62.2z M105.4,67.1l-0.2-0.1l-0.2,0l0.1,0.2l0.2,0.1L105.4,67.1z M105.6,71.1l0-0.4l-0.4,0.1V71l0.4,0.3L105.6,71.1z
			 M105.7,48.8l-0.3,0.1l-0.1,0.2l0.4,0.3l0.2,0.1v-0.6L105.7,48.8z M105.5,63.4v-0.2h-0.2v0.2H105.5z M105.8,64.7l-0.3-0.1
			l-0.1,0.2l0.1,0.3h0.3l0.2-0.2L105.8,64.7z M105.8,50.5l0-0.2l-0.2-0.1l0,0.4L105.8,50.5z M105.9,65.8h-0.4l0,0.2l0.2,0
			L105.9,65.8z M105.6,56.4v0.2l0.2,0.1L105.6,56.4z M106.2,51.6l-0.3,0.1l-0.2,0.2l0.3,0.2l0.2,0l0.2-0.5L106.2,51.6z M106.2,63.8
			v-0.2l-0.3,0.1L106.2,63.8z M106.4,59.9H106l0,0.3l0.2,0L106.4,59.9z M106.3,72.1l0.2-0.2l0-0.3l-0.2,0.1l-0.2,0.5L106.3,72.1z
			 M106.6,54.8l0.2-0.2l0.1-0.2l-0.3-0.3l-0.2,0l0.1,0.5l-0.2,0.2L106.6,54.8z M106.4,53v0.2l0.2,0.1l0.1-0.2l0-0.2l-0.2-0.1
			L106.4,53z M106.9,57.4l0.2-0.1v-0.2l-0.2,0.1l-0.1,0.2L106.9,57.4z M106.7,48.6v0.2l0.2-0.1l0-0.2l-0.2-0.1L106.7,48.6z
			 M107,55.8v-0.2h-0.2v0.3L107,55.8z M107.1,51.5h0.2l0.2-0.1l0-0.3l-0.5,0l-0.2,0.2v0.3L107.1,51.5z M107.1,64.3v-0.2l-0.2,0.2
			l0.1,0.2L107.1,64.3z M107.4,58.6l-0.2,0.2h0.3L107.4,58.6z M107.4,54.1l0.1,0.2l0.2,0.1l0.3-0.5l-0.1-0.2l-0.2,0l-0.2,0.1
			l-0.1,0.2L107.4,54.1z M107.5,55l-0.2-0.1v0.2h0.2L107.5,55z M107.9,61.3l0.2-0.1V61h-0.3l-0.1,0.2L107.9,61.3z M107.8,52.6l0,0.2
			l0.2-0.1v-0.2l-0.2-0.1L107.8,52.6z M108.3,56.8l0.2-0.2l0-0.2l-0.4,0v0.5L108.3,56.8z M108.7,59.2l-0.1-0.2l-0.2,0l-0.2,0.4
			l0.5,0.1V59.2z M108.6,50.7l-0.2,0.1h0.4l0-0.2l-0.1-0.1L108.6,50.7z M109.2,53.2l-0.2-0.1l-0.5,0.1l-0.1,0.2l0.3,0.1l0.5,0
			L109.2,53.2z M108.5,57.7l0,0.2l0.1,0.2l0.3,0.3l0-0.2l-0.2-0.6H108.5z M109.1,62.2l0.2,0l-0.1-0.5l-0.2-0.1l-0.1,0.5L109.1,62.2z
			 M108.9,60.5l0,0.2l0.2-0.2l-0.2-0.2L108.9,60.5z M109,52.2v0.2h0.3l0-0.3L109,52L109,52.2z M109.3,57.3l-0.2,0v0.2h0.2
			L109.3,57.3z M109.5,54.9l0.2,0.2l0.2,0l-0.2-0.2l0-0.3l-0.2-0.1l-0.2,0.5L109.5,54.9z M109.6,56.2v-0.3h-0.2l-0.1,0.2l0.1,0.2
			L109.6,56.2z M109.9,52.9l0.2,0l-0.3-0.2L109.9,52.9z M110.1,57.5l-0.2-0.2l-0.1,0.2l0.2,0.1L110.1,57.5z M111,55.6l-0.2-0.1
			l-0.1,0.2l0.2,0.1L111,55.6z"/>
		<path class="st17" d="M124.9,44.9l0.2-0.1l0.2-0.3l0.3,0l0.5,0.1l0.9,0.6l0.2,0.6l-0.1,0.2l0.5,0.6l0.1,0.2l-0.1,0.5l0.4,0.4
			l0,0.3l0.3,0.6l0,0.6l0.2,0.4l0.2,0.5l0.5,1l-0.1,0.2l0,0.2l0.3,0.4l0.8,1.6v0.2l-0.1,0.2l0.2,0.2l0.5,1l0,0.2l-0.2,0.1l0.4,0.3
			l0,0.2l0.3,0.4l0.1,0.5l0.5,1.2l0,0.3l-0.3,0.5l0.1,0.2l0.5,0.2l0,0.3l0.4,0.3v0.2l-0.1,0.1h-0.2l-0.2,0.1l0.1,0.5l0.8,0.2
			l0.1,0.5l0.1,0.2V62l-0.1,0.1v0.2l0.2,0.2l0.3,0l0.1,0.3v0.2l-0.1,0.2l0.3,0.4l0.5,0.9l0.2,0.2l0.2,0l0.6-0.2l0.2,0.1l0.2-0.2
			l0.4-0.6l-0.1-0.2l-0.2,0.1l0-0.2l-0.1-0.5l0.1-0.2l0.3-0.4l0.1-0.2l0-0.3l0.2-0.6v-0.3l0.2-0.1l0.2-0.4l0.1-0.6h0.7v-0.3h-0.5
			l0-0.3l0.3-0.3l0-0.5l0.8-1.3l-0.1-0.4l0.3-0.7l0-0.3l0.7-0.8l-0.2-0.5l0.6-1.9l0.5-0.8v-0.3l0.2-0.5l0.4-0.6v-0.7l0.2-0.2
			l0.5-0.8l0.2-0.2v-0.6l0.2-0.5l0.4-0.6l0.1-0.6l0.3-0.9l0.2-0.4l0.2,0l0.4,0.1l-0.3-0.5l0.1-0.2l0.2-0.1l0.2,0.1l1-0.2l1.6,0
			l0.7-0.1l1,0.1h2.5l0.9,0.3l0.4,0.2l0,0.2l-0.1,0.5l-0.3,0.4l0.1,0.6l-0.3,0.5l-0.4,1l-0.4,0.6l0.1,0.4l-0.5,0.8l-0.6,1.9
			l-0.4,0.9l-0.3,0.3v0.5l-0.1,0.5l-0.6,1l-0.2,1.1l-0.8,1.5l-0.1,0.5l-0.6,1.4l-0.4,0.6l0,0.5l-0.3,0.9l-0.8,1.7l-0.1,0.5l-0.5,0.3
			l0.2,0.4l-0.1,0.5l-0.5,0.9l-0.1,0.3l-0.3,0.3l-0.2,0.8l-0.4,0.1v1l-0.2,0.4l-0.2,0.1l0,0.3l-0.1,0.2l-0.5,0.5l0.2,0.4l0,0.2
			l-0.3,0.4l-0.2,0.4l0,0.2l-0.2,0.5l-0.2,0.2v0.2l0.2,0.1l0,0.3l-0.6,0.7l0,0.3l-0.3,0.1l0.1,0.5l0,0.5l-0.4,1l-0.5,0.9H139
			l-0.5,0.5l-0.5-0.1l-0.2-0.1l-0.4,0.3l-1.5-0.1l-0.5,0.1l-1.8-0.2l0.2,0.1l-0.4,0.1h-1l-0.2,0.1l-1.3-0.5l-0.4-0.3l-0.1-0.4
			l-0.2-0.4l0-0.3l-0.5-0.9l-0.2-0.2l0-0.5l-0.2-0.2l0.1-0.4l-0.5-0.6l-0.1-0.7l0.1-0.2l-0.1-0.2l-0.6-0.8l-0.2-0.5l0.1-0.5
			l-0.4-0.2l-0.3-0.5l0.2-0.5l-0.5-0.2l0.2-0.4l-0.1-0.2l-0.5,0.1v-0.4L127,67l0-0.2l-0.2-0.1l-0.5-0.7l-0.2-0.1l0-0.3l-0.2-0.5
			l0.2-0.5l-0.5-0.1v-0.3l-0.5-0.8l-0.3-0.9l-0.5-0.9l0-0.3l-0.5-0.9l0-0.3l0.2-0.2l-0.2-0.3l-0.2,0v-0.2l-0.2-0.4l-0.3-0.3l-0.3-1
			l-0.4-0.5v-0.6l-0.1-0.2l-0.3-0.4l0-0.5l-0.2-0.5l-0.5-0.8l-0.1-0.5l-0.3-0.5l0-0.5l0.1-0.2l-0.3-0.3l-0.2-0.1l-0.2-0.5l-0.3-0.4
			l-0.2-0.5l0.2-0.4l-0.1-0.2l-0.4-0.2L119,48l-0.1-0.5l0-0.5l-0.3-0.4l-0.2-0.5l-0.1-0.5l0.1-0.8l1-0.2l0.7,0l0.5,0.2l0.5-0.2
			l0.5,0.1l0.2,0.2l0.2-0.1l0.3-0.3l0.2-0.1l0.6,0.2l0.5-0.1l0.2,0.1l0.2-0.2l0.8,0.1L124.9,44.9z M119.2,47.1l0-0.2l-0.3,0l0.1,0.2
			L119.2,47.1z M123,47.8l0.2-0.2l-0.1-0.2l-0.1,0.2L123,47.8z M123.1,57.1v-0.2h-0.2L123.1,57.1z M123.3,49.8l0.2,0.1l0.2-0.1
			l0-0.2l-0.3,0.1L123.3,49.8z M123.3,50.7l0.2,0.1l0.1-0.2l-0.2,0L123.3,50.7z M124.2,51.1l-0.1-0.2l-0.3-0.1l0.1,0.2L124.2,51.1z
			 M124.4,55l0-0.2l-0.2,0l0.1,0.2L124.4,55z M124.5,57.9l0.2,0l0.1-0.2l-0.2-0.1l-0.1,0.2L124.5,57.9z M124.7,49h0.2v-0.2h-0.2V49z
			 M125,51.7h0.3v-0.2h-0.2L125,51.7z M125.1,54.5l0.5-0.2l0.2-0.2l-0.2-0.1l-0.4,0.2L125.1,54.5z M125.6,56.9l0.2,0.3h0.3l-0.1-0.5
			l-0.2-0.1l0,0.2L125.6,56.9z M126.1,52.4l0.2,0l0.1-0.1l-0.3-0.1V52.4z M126.5,61.2h0.3v-0.4l-0.3,0.1V61.2z M126.5,62.6l0.2,0.2
			l0.1-0.2l0-0.2l-0.2-0.2l-0.1,0.2L126.5,62.6z M126.9,53.9l-0.2-0.2l0,0.2L126.9,53.9z M126.8,52.4l0.2-0.1l0-0.2l-0.2,0.1V52.4z
			 M127.2,64.1l0-0.2l-0.3-0.2l0.1,0.3L127.2,64.1z M128,62.2l0.1-0.2l-0.1-0.5h-0.3l0,0.3l0.1,0.2L128,62.2z M128,53.2v-0.3
			l-0.2,0.2L128,53.2z M128.3,65l0.2-0.1l0-0.2l-0.2,0.1V65z M128.8,57.5l0-0.2l-0.2-0.1v0.3L128.8,57.5z M128.8,61.3l0,0.2l0.4,0.1
			l0.1-0.2l-0.1-0.2l-0.2,0L128.8,61.3z M128.9,69l0.2,0l0-0.2l-0.2-0.1l-0.1,0.2V69z M129,70.4h0.2l-0.2-0.2L129,70.4z M129.1,64.2
			l0.2,0.2l0.3,0.1l0.2-0.2l0.1-0.3l-0.5-0.1l-0.2,0L129.1,64.2z M129.3,69.4h0.2v-0.2h-0.2V69.4z M129.9,63.2l-0.2-0.7l-0.2-0.1
			l-0.1,0.2l0,0.2l0.1,0.2l0.2,0.2H129.9z M129.5,66.9l0.2,0.1h0.2l0.1-0.1l0-0.2l-0.2-0.1l-0.2,0.1L129.5,66.9z M130,65.8h0.2
			l-0.1-0.2L130,65.8L130,65.8z M130,60.9l0.1,0.2h0.2l0.1-0.2l-0.2-0.1L130,60.9z M130.3,64.7v0.2l0.1,0.1h0.2l0.1-0.1v-0.2
			l-0.1-0.1L130.3,64.7L130.3,64.7z M130.5,63.8l0.5-0.1l-0.1-0.4l-0.3,0.2L130.5,63.8z M131,62.5l0.1-0.4l-0.2,0l-0.1,0.2l0,0.2
			L131,62.5z M131.1,66.5l0.2-0.6l-0.2,0.1l-0.1,0.3L131.1,66.5z M131,65l0.1,0.2l0.2,0.1l0.1-0.6l-0.3-0.2l-0.1,0.2L131,65z
			 M131.4,69.5l0.4-0.2l-0.1-0.5l-0.2-0.1l-0.2,0.6L131.4,69.5z M131.6,70.4l-0.1-0.2l-0.2,0.1L131.6,70.4z M131.7,64.3l0-0.2
			l-0.2-0.1l0,0.2L131.7,64.3z M131.6,68.1h0.2v-0.2h-0.2V68.1z M131.7,72l0.4-0.1v-0.3l-0.2,0l-0.1,0.1L131.7,72z M132.2,70.7
			l0.1-0.2l-0.1-0.3l-0.2-0.1l-0.1,0.2l0,0.2L132.2,70.7z M132.5,65.8l-0.4-0.2h-0.2l0.1,0.2l0.2,0.1l0.2,0L132.5,65.8z M132.1,58.8
			l0.3,0.1l-0.1,0.2l-0.2-0.1V58.8z M132.1,74.6h0.6v-0.3l-0.5,0.1L132.1,74.6z M132.2,61.9l0,0.2l0.2,0l0.2-0.1l0-0.2l-0.1-0.1
			L132.2,61.9z M132.5,73.4l0.2-0.5l-0.2-0.1l-0.1,0.2l0,0.2L132.5,73.4z M132.7,70l0.1,0l0-0.2l-0.2-0.1L132.7,70z M132.7,68.9
			l0.4,0.1v-0.5l-0.3,0.2L132.7,68.9z M133,72.6h0.2v-0.1H133V72.6z M133.1,71.4l0.5-0.1l-0.1-0.2h-0.2l-0.2-0.1V71.4z M133.5,70.4
			l0.1-0.2l0-0.2l-0.2-0.1l-0.1,0.2l0.1,0.2L133.5,70.4z M133.3,74.3l0.7-0.2l-0.1-0.5l-0.2,0l-0.3,0.2l-0.1,0.2V74.3z M133.6,65.1
			l0.1,0.2l0.2-0.1l-0.1-0.2L133.6,65.1z M134.1,73l0-0.3l-0.4-0.3l-0.1,0.2l0.2,0.4L134.1,73z M133.9,68.5h0.5l0.2-0.3l0-0.2
			l-0.5-0.2l-0.4,0.2l0,0.2L133.9,68.5z M134.1,71.7v0.2l0.2,0.1l0.1-0.1v-0.2H134.1L134.1,71.7z M134.9,70.7l-0.2-0.1h-0.5l0,0.2
			l0.2,0.1l0.3-0.1L134.9,70.7z M134.8,72.1l0.2,0.1l0.3,0V72l-0.1-0.1l-0.2,0L134.8,72.1z M134.9,73.1l0.1,0.2l0.2-0.1l0.1-0.2
			l-0.2,0L134.9,73.1z M135.1,67.8l0.2,0.1l0.3-0.1l0.1-0.2l-0.2-0.1h-0.2l-0.2,0.1L135.1,67.8z M135.5,66.3V66l-0.2-0.1l-0.1,0.2
			l0,0.2L135.5,66.3z M135.4,69h0.2l-0.2-0.1V69z M135.7,75.3l0.1-0.2l0-0.2l-0.2-0.2l-0.2,0l0.2,0.5L135.7,75.3z M135.5,66.8
			l0.3-0.1l-0.2-0.2L135.5,66.8z M135.6,70.4l0.1,0.1l0.3,0v-0.2L136,70l-0.3,0.1L135.6,70.4z M136,74.1l0.1-0.2l-0.2-0.1l0,0.2
			L136,74.1z M136.1,72.7l0.3,0.1l-0.2-0.3L136.1,72.7z M136.6,72h0.1v-0.3h-0.1V72z M136.6,74l0.1,0.3l0.2-0.1v-0.3L136.6,74z
			 M137,67.2v-0.3h-0.2l0.1,0.2L137,67.2z M137.3,68.1H137l0.2,0.5l0.4,0.2l-0.2-0.2l0-0.3L137.3,68.1z M137.4,65.1h0.2V65h-0.2
			V65.1z M137.6,67.7h0.1v-0.2h-0.1V67.7z M138,65.7h0.2l0.1-0.2l-0.2-0.1L138,65.7z M138.2,66.9l0.1-0.2l-0.1-0.2l-0.2-0.1v0.2
			l0.1,0.2L138.2,66.9z M138.3,69l0,0.2l-0.1,0.2l0.2,0.1l0.2-0.7h-0.2L138.3,69z M138.3,67.9l0.4,0.4v-0.5l-0.3,0L138.3,67.9z
			 M138.7,63.5l0.2,0l0-0.2l-0.2,0.1V63.5z M138.7,65.8l0.1,0.5l0.2,0.1l0.1-0.3l0.3-0.3l-0.2-0.1l-0.2,0L138.7,65.8z M138.8,70.4
			l0.2-0.2h-0.2L138.8,70.4z M139.3,68.8l0.2,0.1l0.2-0.1l0.1-0.2l-0.1-0.2h-0.2l-0.2,0.1L139.3,68.8z M139.6,70.1l0.1-0.3l-0.2-0.1
			l0,0.2L139.6,70.1z M139.7,65.1l-0.2-0.2l-0.1,0.2L139.7,65.1z M139.7,60.3l0.1-0.2l-0.2-0.1v0.2L139.7,60.3z M140,63.2l0.1-0.2
			v-0.3l-0.2-0.1l0,0.4L140,63.2z M140.3,62.1l0.1-0.2l-0.1-0.5h-0.2l-0.1,0.3l0.1,0.2L140.3,62.1z M140.1,65.3l0.1,0.2l0.2,0.1
			l0.2,0l0.1-0.2l-0.2-0.1l-0.3,0L140.1,65.3z M140.7,64.3v-0.2l-0.2,0L140.7,64.3z M140.8,59.6l0.2-0.2l-0.1-0.2l0,0.2L140.8,59.6z
			 M141.2,62.4l-0.3-0.2l0.1,0.3L141.2,62.4z M141.4,65.1l0.2,0.1l0.2-0.1l0.1-0.2l-0.1-0.2l-0.2,0l-0.1,0.1L141.4,65.1z
			 M141.5,62.5h0.2v-0.1h-0.2V62.5z M142.6,58.1l-0.2,0.1l0.1,0.1L142.6,58.1z M143.2,55.8l-0.2-0.1l-0.1,0.1l0.2,0.1L143.2,55.8z
			 M143.9,51h0.2l0.1-0.2h-0.2V51z M144.2,59.4l0.1-0.2l-0.1-0.1l-0.1,0.2L144.2,59.4z M144.3,62.5v-0.2h-0.2l0,0.2L144.3,62.5z
			 M144.7,58l-0.2-0.1l0.1,0.2L144.7,58z M145.6,53.3h0.2l-0.2-0.2V53.3z M146.3,52.7v-0.2h-0.2l0,0.2L146.3,52.7z M147.7,50.7
			l0.2,0.1l0.1-0.2l-0.2,0L147.7,50.7z"/>
		<path class="st17" d="M185.2,48.1l0.2,0.4l0,0.5l-0.2,1.2l0.3,0.6l-0.4,1.4l-0.4,0.5l-0.9,0.2l-0.5-0.2l-0.2,0.1l-0.5,0.1
			l-1.4-0.1l-0.7,0.1l-0.7-0.1h-1l-0.5-0.1l-0.2,0.1l-0.1,0.1l-0.4-0.2l-1.1,0.1l-0.3-0.4l-0.1,0.3l-1.9,0l-1.7,0.1l-0.2-0.1
			l-0.5-0.3l-1.2,0.2l-0.2,0.1l-0.1-0.5l-0.5,0.5l-0.5,0.2l-0.3,0.5l-0.2,0.2v0.7l-0.2,0.4l0.1,0.2l0,0.5l0.1,0.2l-0.2,0.2l0,0.3
			l0.6,1l0.2,0.3l0.5,0.1l0.5-0.3h1l0.2-0.1l0.2,0.1l1-0.1l0.3,0.2l0.3-0.2l0.7,0l0.2-0.1l0.5,0.3l0.2-0.1l0.1,0.2l0.2,0l0.1-0.2
			l0.9,0l1,0.2l0.2-0.1l0.1-0.2l1.5,0.1l0.4,0.1l0.7-0.2l1.7,0.2l0.5,0.5l0,0.3l0.1,1.6l-0.1,0.4l-0.2,0.4l0.1,0.2l0.3,0.3v0.3
			l-0.2,0l-0.2-0.1l-0.2,0l0.2,0.4v0.3l0.2-0.1l0.1,0.1l0.1,1.3l-0.4,0.2l0.1,0.2l-0.1,0.5l-0.3,0.4l-0.2,0l-0.2-0.1l0.2-0.2
			l-0.1-0.2l-0.4,0.5l-0.2,0l-0.4-0.2v0.3l-1.1,0l-1-0.2L178,65l-1,0l0.2-0.5l-0.2,0.1l-0.3,0.5l-0.6-0.2l-0.2,0.1l-0.3-0.1
			l-0.1-0.2l-0.2,0.2l-1,0.1l-0.2-0.5l-0.2-0.1l-0.1,0.2l0.1,0.2l-2.1,0.1l-0.9,0l-0.5-0.2l-0.5,0.2l-0.9,0.9v1.9l0.2,0.5l0.3,0.5
			l1,0.1l0.4,0.1l0.5-0.1h1.4l0.2-0.1l0.2,0.1l0.3,0.3l0.2-0.1l0.1-0.2h0.2l0.2,0.2l0.5-0.2h1.1l0.7,0.2l0.2,0l0.1-0.2l0.2,0l0,0.2
			l0.1,0.1l0.5,0.2l0-0.2l-0.1-0.2l0.2-0.1l0.2,0l0.5,0.3l0.2,0.2l0.2-0.1l0.1-0.2l0.5,0.1l0.9-0.2l0.5,0v0.3l0.2,0.2l0.2-0.4
			l0.7,0.2l0.4-0.3l0.6-0.2l0.5,0.2h0.2l0.2-0.1l1.1,0.3l0.3,0.7l0.2,0.2l-0.1,0.4l0.1,0.7l0.1,0.2l0.2,0.1l-0.1,0.5l-0.2,1.6
			l-0.1,0.2l0.3,0.5l0,0.2l-0.2,0.4l0.3,0l-0.2,0.7l-0.1,0v0.2l0.1,0.2l-0.1,0.2l-0.8,0.5l-0.1,0.2l-0.2,0l-0.8,0.2l-1-0.2l-0.5,0.1
			l-0.4-0.2l-0.2,0.1l-0.8,0l-0.2,0.1l-0.1,0.2l-1.1-0.5l-0.2,0.1l-0.1,0.2l-0.6,0l-0.4-0.2l-0.3,0.1H177l-0.7-0.2l-0.2,0l0-0.2
			l-0.2-0.1l-0.1,0.2l0.1,0.2l-0.5,0l-1.5-0.1l-0.5,0l-0.5,0.2l-0.2-0.1l-0.3-0.2l-0.1,0.2l-0.4,0.2l-0.5-0.1l-0.7,0l-0.2-0.1
			l-0.2,0.1l-1.1,0.1l-0.2,0.1l-0.6-0.2l-0.3,0.1l-1-0.1l-0.2,0.1l-0.4-0.4l-0.3,0.4l-1-0.1l-0.7,0.1l-0.7-0.1l-0.4,0.1l-0.2,0.1
			l-0.5-0.1l-0.3-0.2l-0.7,0.1l-0.4-0.2l-0.4-0.3l-0.2-0.4l0.1-0.2l0.2-0.1l-0.1-0.2l-0.2,0l-0.1-0.2l0.3-0.1l0-0.5l-0.3-1l0-0.4
			l0.1-0.2l-0.2-0.5l0.1-0.4l-0.1-1.5l0.2-1v-0.5l-0.1-0.2l0.2-0.3l-0.2-0.5l0.2-0.2l-0.2-0.2l-0.1-0.5l0.2-0.5v-0.2l0.6-0.1
			l-0.5-0.2l0-0.5l0.1-0.2l0.1-0.1l-0.3-0.4l0.1-0.2l0.4-0.2l-0.5-0.2v-0.3l0.3-0.6l-0.2-0.4l0-0.5l0.1-1l-0.1-0.4v-2.4l0.1-0.4
			l-0.2-1.5l0.2-0.4v-0.7l0.2-0.2l-0.2-0.9l0-0.2l0.2-0.1l0.2,0.2l-0.1-0.5l-0.3-0.3l0-0.5l-0.2-0.5l0.2-0.5l-0.1-0.7l0.1-0.2
			l-0.1-0.4l0-0.5l0.2-0.4l-0.2-0.7l0.1-1.5l-0.1-0.2l0.1-0.4v-1.1l0.2-1l0.2-0.4l0.2-0.1l3.7-0.1l0.5,0.3l0.1-0.2l0.2-0.1l0.5,0.1
			l0.1,0.1l1.3-0.3l0.3,0.1l0,0.2h0.3l0.1-0.2l0.2-0.1l0.6,0.1l0.5,0.3l0.1-0.3h3.1l0.7,0.2l0.3-0.2l0.5,0.1l1-0.1l0.5,0l0.2,0.1
			l0.9-0.2l2.1,0l1.5-0.1l0.5,0.1l0.9-0.2l0.5,0.1l0.7,0.2l0.3-0.1h1l1.2,0.5l0.2,0.9l0.1,1.5l-0.2,0.4L185.2,48.1z M160.9,67.6
			l0-0.3l-0.1,0.2L160.9,67.6z M160.9,74.7h0.2v-0.2h-0.2V74.7z M161.4,68.9l0-0.3l-0.1-0.1l-0.2,0l0.2,0.4L161.4,68.9z M161.5,52.1
			l0.2,0.1l-0.2-0.2V52.1z M162,71.4l0-0.2l-0.2-0.1l-0.1,0.2l0.2,0.2L162,71.4z M161.9,53.5l0,0.4l0.2-0.1l0.1-0.2l-0.2-0.1
			L161.9,53.5z M161.9,55.1l0.3-0.1l-0.3-0.2V55.1z M162,49.3h0.2V49H162V49.3z M162,58l0.3-0.1l0.1-0.2l0-0.3l-0.2-0.1l-0.2,0.4
			L162,58z M162,74.1l0.3,0.2l0-0.4l-0.1-0.1l-0.2,0.2L162,74.1z M162.2,65.7l0.2-0.1l0.1-0.2l0-0.4l-0.3,0.1l-0.1,0.2l0,0.2
			L162.2,65.7z M162.3,52.9l0.2,0l0.1-0.1l-0.2-0.2L162.3,52.9z M162.3,56.9l0.2-0.1v-0.2l-0.2-0.1V56.9z M162.3,60.9l0.4,0l0.2-0.5
			l-0.2,0l-0.2,0.2L162.3,60.9z M162.3,69.4h0.2v-0.2h-0.1L162.3,69.4z M162.7,68.2l0.1-0.4l-0.1-0.2l-0.2,0l-0.1,0.2l0.1,0.3
			L162.7,68.2z M162.4,63.4h0.1v-0.2h-0.1V63.4z M162.8,51.8l-0.2,0.1l0.1,0.1L162.8,51.8z M162.9,51l0-0.2l-0.2,0L162.9,51z
			 M162.9,63.6l0.3-0.1l0-0.2l-0.1-0.1l-0.2,0.2L162.9,63.6z M163,71.2h0.4l-0.2-0.6l0.1-0.2l-0.2-0.1l-0.2,0.2l0,0.5L163,71.2z
			 M162.9,66.3l0.4,0.1l0.2-0.1v-0.4l-0.3,0l-0.2,0.1L162.9,66.3z M162.9,54.4l0.1,0.2l0.5,0.2l-0.1-0.3l-0.2-0.2L162.9,54.4z
			 M163.3,58.5v-0.1h-0.2L163.3,58.5z M163.2,53.4l0.4-0.2l0.1-0.2l-0.1-0.2l-0.3,0l-0.1,0.4L163.2,53.4z M163.1,64.9l0.4,0.1l0-0.2
			l-0.2-0.1L163.1,64.9z M163.3,48.7h0.2v-0.2l-0.1-0.1L163.3,48.7z M163.3,45.9l0.2,0.1l-0.1-0.2L163.3,45.9z M163.3,68.9l0.4,0.2
			l0.3,0l0.1-0.2v-0.2l-0.2-0.2l-0.4,0l-0.1,0.2L163.3,68.9z M163.7,73.8l-0.1-0.5l-0.3-0.1v0.4l0.1,0.2L163.7,73.8z M163.4,57.4
			h0.4l-0.1-0.3l-0.2-0.1V57.4z M163.8,47.7v-0.6h-0.2l0,0.2l0.1,0.2L163.8,47.7z M163.5,56.2l0.2,0.2h0.2l0.1-0.2l-0.2-0.2v-0.2
			h-0.2l0,0.2L163.5,56.2z M163.5,60.4L163.5,60.4l0.5-0.2v-0.2h-0.3l-0.1,0.2L163.5,60.4z M163.7,72.8l0.3-0.1l-0.1-0.2l-0.2-0.1
			l-0.1,0.2L163.7,72.8z M163.7,51.2l0.1,0.5l0.2,0.1l0.2,0l0.1-0.6l-0.2-0.1h-0.2L163.7,51.2z M163.7,52.7h0.2l-0.1-0.3L163.7,52.7
			z M164.3,58.5l-0.2-0.2l-0.2,0.1l-0.1,0.2v0.2l0.1,0.2l0.2,0.1l0.1-0.5L164.3,58.5z M163.9,63.1l0.2,0.1l0.1-0.4l-0.2,0.1
			L163.9,63.1z M164,71.7l0.5,0.1l-0.2-0.4l-0.2-0.1l0,0.2L164,71.7z M164.2,50.2l-0.1-0.1L164.2,50.2z M164.3,66.9v-0.2H164
			L164.3,66.9z M164.1,54.1l0.2,0.2l0.5-0.6l-0.2,0l-0.2,0.1l-0.2,0.2L164.1,54.1z M164.3,61.7l0.1-0.3l-0.2-0.1l-0.1,0.2
			L164.3,61.7z M164.3,70.9l0.2-0.1l-0.1-0.5l0-0.3l-0.3-0.2l-0.1,0.2l0.2,0.4V70.9z M164.3,45.7l0.2-0.1v-0.2h-0.2V45.7z
			 M164.9,65.9l-0.1-0.2l-0.4-0.2l0.1,0.2l0.2,0.2L164.9,65.9z M164.4,62.1h0.1v-0.2h-0.1V62.1z M164.5,73.1l0.4,0.2l0.1-0.2v-0.5
			l-0.1-0.2l-0.2,0l-0.2,0.3V73.1z M164.9,49.5l-0.1-0.2l-0.2-0.1l0,0.2l0.2,0.2H164.9z M164.5,69.7l0.2,0.1l0.1-0.2v-0.3l-0.2,0
			l-0.1,0.2L164.5,69.7z M165,48.2l-0.1-0.2l-0.2,0l-0.1,0.2l0,0.1L165,48.2z M164.6,59.5l0.2,0.2l0.3,0l0.1-0.2l-0.4,0L164.6,59.5z
			 M164.7,56.5l0,0.3l0.2,0.1l0.2-0.1l-0.1-0.3L164.7,56.5z M165.1,55.5l0.2-0.3L165,55l-0.2,0.1v0.2L165.1,55.5z M165.4,51.2
			l0.4-0.4l-0.4-0.2h-0.3l-0.2,0.1v0.4l0.2,0.1H165.4z M165.4,58.8l0.1-0.4V58l-0.3-0.1l-0.2,0L165,58v0.2l0.2,0.5L165.4,58.8z
			 M165.1,63.9l0.2-0.1l0-0.3h-0.2l-0.1,0.2L165.1,63.9z M165.5,71.1l-0.2-0.1l-0.3,0l0.1,0.3h0.2L165.5,71.1z M165.1,47.3h0.2v-0.2
			h-0.2V47.3z M165.3,62.3l0.1,0.5l0.2-0.1l0.1-0.2l0-0.2h-0.2L165.3,62.3z M165.9,53.9l0.1-0.2l-0.1-0.2l-0.2-0.2h-0.4l0.3,0.4
			L165.9,53.9z M165.3,60.7l0,0.3l0.2,0.2v0.3l0.2-0.1l0.1-0.2v-0.3l-0.1-0.2h-0.3L165.3,60.7z M165.3,69.9l0.2,0l0.1-0.1l0-0.2
			l-0.2,0l-0.1,0.1V69.9z M165.6,49.6l0.1-0.2l-0.3-0.1v0.2L165.6,49.6z M165.5,45l0.3,0l-0.2-0.2L165.5,45z M165.8,49.1l0.1-0.2
			l-0.3-0.1L165.8,49.1z M165.6,72.3l0.3,0.5l0.2,0.1l0.1-0.2v-0.5l-0.2-0.1h-0.2L165.6,72.3z M165.7,52.4l0.2-0.1v-0.2l-0.2-0.1
			V52.4z M165.9,56.5l0.3-0.4l0-0.2l-0.2-0.2l-0.3,0.4L165.9,56.5z M166.1,65.3l0.2-0.1V65l-0.2-0.1h-0.3l0.1,0.3L166.1,65.3z
			 M165.9,48l0.2-0.1l0-0.3l-0.2-0.1l0,0.2V48z M166.1,60.4V60l-0.2,0.1v0.2L166.1,60.4z M165.9,68.1l0.5-0.2l0.1-0.2l-0.2-0.1
			l-0.2,0.1l-0.1,0.2L165.9,68.1z M166.3,58.9l-0.1,0.1l-0.1-0.1h-0.2l0.1,0.2l0.2,0l0.2-0.1L166.3,58.9z M166.2,63.7l-0.2-0.1
			l0.1,0.2L166.2,63.7z M165.9,64.4h0.2l-0.1-0.2l-0.2-0.1V64.4z M166,74.8l0,0.2l0.2,0.2l0.2,0l0.2-0.3l-0.1-0.2l-0.2,0L166,74.8z
			 M166.5,55.4l0-0.6l-0.2-0.2l-0.2,0.2V55l0.1,0.2L166.5,55.4z M166.3,57.9l0.3-0.1l0.2-0.5l-0.2-0.2l-0.2,0.1l-0.2,0.4L166.3,57.9
			z M166.5,63.3V63l-0.2-0.1v0.2L166.5,63.3z M166.5,70.9l0.1-0.2l0.4-0.2l-0.5,0l0,0.2L166.5,70.9z M166.9,61.9l0-0.5l-0.3,0
			l-0.1,0.1l0.2,0.3H166.9z M166.6,49.1l0.1-0.2l-0.2-0.1l0,0.2L166.6,49.1z M166.9,50.7l0.1-0.2l-0.1-0.2l-0.2-0.1l-0.1,0.2v0.2
			l0.1,0.2L166.9,50.7z M166.7,60.7l0.2-0.1l0.1-0.1l0.1-0.2l-0.4-0.2l-0.1,0.4V60.7z M166.9,74.4v-0.2l-0.2,0.1L166.9,74.4z
			 M167.2,49.7l-0.1-0.2l-0.2-0.1l0,0.3H167.2z M166.9,53.4l0.4-0.2v-0.3l-0.1-0.1l-0.2,0l-0.1,0.4L166.9,53.4z M166.9,64.9l0.2-0.2
			l0-0.3l-0.2,0l-0.1,0.2L166.9,64.9z M166.9,63.4h0.2L167,63l-0.1,0.2L166.9,63.4z M167,73.4l0.3-0.1l0.1-0.2l-0.2,0l-0.2,0.1
			L167,73.4z M167,72.1l0.3,0.2l0.1-0.2v-0.3l-0.2-0.2l-0.2,0.2L167,72.1z M167.1,63.8l0.2-0.1l0.1-0.2h-0.2L167.1,63.8z
			 M167.2,58.6h0.3l0.2-0.1l-0.1-0.3l-0.3,0.2L167.2,58.6z M167.2,47.4h0.2l0-0.2l-0.2-0.1V47.4z M167.5,50l0.2-0.1l0.1-0.3h-0.5
			l0,0.3L167.5,50z M167.4,54.5h0.1l0.1-0.1l-0.2-0.1V54.5z M167.6,62.6l0.1-0.3h-0.3l0,0.2L167.6,62.6z M167.4,74.4l0,0.3l0.1,0.2
			l0.2,0l0.1-0.2l0-0.3h-0.3L167.4,74.4z M167.9,57.3l0-0.2l-0.1-0.2l-0.2-0.1h-0.2l0.1,0.5L167.9,57.3z M167.6,46.6l-0.1-0.3l0,0.2
			L167.6,46.6z M167.5,61.4l0.3,0l0.2-0.1L168,61l-0.4-0.1L167.5,61.4z M167.9,60h0.4v-0.4l-0.2-0.1l-0.2,0.1l-0.1,0.2L167.9,60z
			 M167.9,52.7l0.4,0.1l0.1-0.1v-0.3l-0.3-0.1l-0.1,0.2L167.9,52.7z M168,64l0.1,0.3l0.2,0.1l0.1-0.4l-0.2,0L168,64z M168.1,48.3
			l0.3-0.1l0.1-0.2l-0.2-0.1l-0.1,0.1L168.1,48.3z M168.3,72.9v-0.3l-0.2,0.2L168.3,72.9z M168.2,62.4l0.2,0.4V63l0.2-0.1l0-0.2
			l-0.1-0.2l-0.2-0.1L168.2,62.4z M168.2,71.3l0.1,0.2h0.3l-0.1-0.2L168.2,71.3z M168.3,51.9h0.2l-0.2-0.2V51.9z M168.7,59l-0.3-0.1
			l0.1,0.2L168.7,59z M168.5,46.9l0.2,0l0.1-0.2l-0.2,0L168.5,46.9z M168.5,74.1l0.6,0.2l0.1-0.5l-0.2-0.1l-0.4,0.2L168.5,74.1z
			 M168.6,50.5l0.2,0.2l0.1-0.2H168.6z M168.8,61.8h0.2l0-0.2l-0.2-0.1V61.8z M169.5,59.7v-0.3h-0.3l0,0.2L169.5,59.7z M169.5,47.6
			v-0.1h-0.2L169.5,47.6z M169.5,61.9l0.3,0.3l0.1,0.2l0.1-0.2v-0.3l-0.4-0.1L169.5,61.9z M169.7,51.3l-0.1-0.3l0,0.2L169.7,51.3z
			 M170,74.8l0.1,0.2h0.2l0.1-0.2L170,74.8z M170.3,51.4l0.1,0.2l0.2,0l0.1-0.2l-0.2-0.2L170.3,51.4z M170.5,76.4v-0.3l-0.1-0.1v0.3
			L170.5,76.4z M170.9,58.8l0-0.2h-0.2l0.1,0.3L170.9,58.8z M170.8,61.6l0.3,0.4l0.2,0l0.2-0.4l-0.4-0.2l-0.2,0.1L170.8,61.6z
			 M171.2,48.4l0.2,0l0.1-0.1h-0.2L171.2,48.4z M171.5,59.8l0.4-0.2l0-0.2l-0.3,0.2L171.5,59.8z M171.9,62.5l0.3,0.2l0-0.3l-0.2-0.1
			L171.9,62.5z M172.1,61l0.3,0.5l0.2-0.2l0.1-0.2l-0.5-0.1L172.1,61z M172.1,74.1l0.2-0.1l-0.2-0.1V74.1z M172.8,60.5v-0.3
			l-0.2,0.2L172.8,60.5z M172.6,59.2l0.2-0.1l-0.2-0.1V59.2z M173,72.6l-0.1-0.2h-0.3l0,0.2l0.2,0L173,72.6z M173,50.5h0.3l-0.1-0.2
			l-0.2-0.1L173,50.5z M173.1,61.8l0.1,0.2l0.2,0.1l0.2-0.2v-0.2l-0.2-0.1L173.1,61.8z M173.2,60.7l0.3,0.2h0.2l-0.1-0.2v-0.3
			l-0.2-0.1l-0.1,0.2L173.2,60.7z M173.6,73.6h0.3v-0.2l-0.2,0L173.6,73.6z M174.3,63.7l0.1-0.2l-0.3-0.4l0,0.5L174.3,63.7z M174,76
			l0.2,0.1l-0.2-0.2V76z M174.5,61.4l0.2,0.1l0.2-0.1l0.1-0.2l-0.2,0l-0.2,0.1L174.5,61.4z M175,60.4l0-0.2l-0.2-0.2v0.3L175,60.4z
			 M175.1,62.7l0.3,0.1v-0.2l-0.2,0L175.1,62.7z M176,60.7h0.2l-0.1-0.2L176,60.7z M176.4,59.7l-0.2-0.2l0,0.3L176.4,59.7z
			 M176.2,63.5l0.2,0.1l0.1-0.2h-0.2L176.2,63.5z M176.6,72.4l0.1-0.2l-0.2-0.2l0,0.3L176.6,72.4z M176.8,62.5l0.1-0.2l0-0.2
			l-0.2-0.1l-0.2,0.2l0.1,0.2L176.8,62.5z M176.7,73.6v0.2l0.3,0l0.2-0.2l-0.2-0.2L176.7,73.6z M177.4,49.3l-0.1-0.2l-0.4-0.2
			l0.1,0.2l0.2,0.1L177.4,49.3z M177.2,60.4l0.2,0l0.1-0.1l-0.2-0.1L177.2,60.4z M177.6,76.5l-0.1-0.1h-0.2l0.1,0.2L177.6,76.5z
			 M177.8,58.8l0.2-0.1l-0.2-0.1V58.8z M178.4,76h0.2l0.1-0.2l-0.3,0V76z M178.6,46.6h0.2v-0.1h-0.2V46.6z M178.6,62.4l0.2,0
			l-0.2-0.2V62.4z M178.8,71.2h0.2l-0.2-0.2V71.2z M179.3,61.4l0.1-0.3h-0.2v0.2L179.3,61.4z M179.6,72.9l0-0.2l-0.2-0.1l0,0.2
			L179.6,72.9z M179.4,75.3l0.1,0.2h0.3v-0.3h-0.2L179.4,75.3z M180.2,69.5l0.1-0.1l0-0.2l-0.2,0.1L180.2,69.5z M180.3,62l0.1-0.2
			h-0.2L180.3,62z M180.4,61h0.2v-0.1h-0.2V61z M180.7,74.8l0.2,0.1l0.2-0.1l0-0.2h-0.3L180.7,74.8z M181,70.1l0-0.2l-0.2,0
			L181,70.1z M181.6,75.6h0.2v-0.2h-0.2V75.6z M182.3,73.3h0.2l-0.2-0.2V73.3z M182.5,72.3l0.2-0.1l-0.2-0.1V72.3z M182.5,69.4h0.2
			l0.1-0.2l-0.2-0.1V69.4z M182.9,76.1l0-0.2l-0.2-0.1v0.2L182.9,76.1z M183.3,73.8l0.2-0.3l-0.2,0l-0.1,0.2L183.3,73.8z
			 M183.8,72.9h0.1l-0.1-0.2L183.8,72.9L183.8,72.9z M184.9,72.4h0.2v-0.2h-0.2V72.4z"/>
		<path class="st17" d="M225.3,68.9l-0.1,0.2l-0.2,0.1v0.3l-0.2,0.5h-0.4l0,0.3l-0.1,0.2l-0.2,0.1l-0.1,0.5l-0.2,0.4l-0.5,0.2v0.3
			l-0.1,0.2l-0.2,0.1l-0.2,0l-0.1,0.5l-0.3,0.4l-0.4,0.3l-1,0.3l-0.1,0.5l-0.2,0.1l-0.4,0.4l-0.4,0.3l-0.2,0l-0.4,0.3l-1.5,0.5
			l-0.3,0.4h-0.4l-0.8,0.5l-0.7,0.2l-1,0l-0.4,0.4l-0.4-0.1l-0.2,0.1l-0.5,0.1l-0.3-0.2l-0.2,0.1l-0.5,0l-0.1,0.2l-0.2-0.1l-1,0.2
			l-0.5-0.2l-0.5,0.2l-0.2-0.2l-0.2,0l-0.2,0.1l-0.5,0l-0.9-0.3l-0.5,0l-0.1-0.4l-0.3,0.3l-1.4-0.3v-0.5h-0.3l-0.3,0.2l-0.2-0.1
			l-0.1-0.2l-0.5,0.2l-0.1-0.2l0-0.5l-0.1,0.1l0,0.2l-1-0.3l-2-1.3l-0.5-0.2l-0.2-0.4l-0.7-0.4l-1.5-1.4l-0.4-0.3v-0.3l-0.4,0
			l-0.2-0.6l-0.6-0.5l-0.3-0.4l-0.7-1.3l-0.3-0.4v-0.4l-0.1-0.2l0-0.2l-0.2-0.2l-0.3-0.4l0-0.3l-0.4-0.8v-0.3l-0.4-0.3l0-1l-0.5-1.9
			l0.2-0.4l-0.2-0.7l0-0.5l0.1-0.2l-0.1-0.5l0-0.9l0.2-1l0.1-0.2l0.1-0.5l0-1.1l0.3-0.7l0-0.2l0.2-0.1h0.3l-0.2-0.4l0.1-0.4l0.5-0.9
			l0-0.2h0.3l0.2-0.1l0.1-0.2v-0.5l-0.1-0.2l0.3-0.6l0.3-0.3l0.2,0v-0.5l0.2-0.1l0.3-0.4h0.2v-0.6l0.4-0.1l0.1-0.2l0.6-0.5l0.3-0.4
			l0.5,0.1l0-0.2l-0.1-0.1l0-0.2l0.8-0.3l0.2-0.5l0.5,0.1l0.2-0.5l0.9-0.2v-0.5l0.1-0.2l0.2,0.2l0.3,0.1l0.2-0.5l0.3-0.1l0.5-0.5
			l1.6-0.5l0.5-0.1l0.3-0.3l1-0.1l0.5-0.1l0.2-0.2l1-0.2l0.3,0.1l0.2,0.2l1.2-0.2l0.4-0.2l1,0.1l0.2,0.2l0.5-0.2l0.5,0.1l0.4,0.2
			h1.4l1,0.3l0.4,0.2l0.3,0.3l0.3-0.2l0.3,0l2.4,1l0.3,0.5l0.5-0.1l0.1,0.2l1.3,0.8l0.1,0.2l0.7,0.4l0.7,0.6l1.9,2.2l-0.1,0.2
			l0.1,0.2h0.5l0.4,0.8l0.3,1l0,0.4l-0.3,0.3l-0.3,0.1l-0.3,0.4l-0.4,0.3l-1.6,0.7l-0.4,0.3l-0.5-0.1l-0.3,0.4l-0.2,0.1l-0.2-0.1
			l-0.4,0.2l-0.2,0l-0.2-0.1l0-0.2l-0.2,0.2v0.5l-0.7,0l-0.2,0.2l-1-0.4l-0.2-0.2l0.2-0.3l-0.1-0.2l-0.3-0.2l-0.5,0l-0.5-0.5
			l-1.2-0.9l0.2-0.2l0.1-0.3H215l-0.5-0.1l-0.3,0v-0.2l0.4-0.4l-0.2-0.1l-1,0.2l0,0.1l-0.4-0.1v-0.2l-0.7-0.1l-2.7-0.1l-0.5,0.2
			l-0.5,0l-0.9,0.2l-0.2,0l-0.8,0.6l-0.7,0.3l-0.9,0.5l-0.3,0.4h-0.2l-0.8,0.5l0.1,0.5l-0.4,0.3l-0.7,1.4l-0.5,0.6l0.1,0.7l-0.4,0.3
			l0,0.5l-0.2,1.1l0.2,0.5l-0.1,0.2l0,1l-0.1,0.2l-0.2,0.1l0.2,0.2l0.4,0.2l-0.1,0.3l0.1,0.2l0.3,0.4l-0.1,0.2l0.1,0.7l0.2,0.1h0.2
			l0.4,0.9l1.1,1.6l0.2,0l0.7,0.5l0.5,0.2l0.3,0.4l1.7,0.8h0.3l0.7,0.3h2.7l1-0.3l0.4,0.1l0.8-0.5l0.5-0.2l0.8-0.4h0.5v-0.5l0.5,0
			l0.9-1l0.6-0.8h0.8v-0.5l0.7-0.1l0.1,0.2l0.6,0.3l0.3,0.2l0.1,0.2l1-0.2l0.5,0.4h0.2l-0.1,0.3l0.4,0.3l0.2-0.5l0.3,0.1V67l0.1,0.2
			l0.6-0.1l0.5,0.4l0.3-0.1l0.1,0.2l-0.1,0.3l0.2,0l0.3-0.1l0.5,0.4l0.3,0.4L225.3,68.9z M194.9,59.7v-0.2h-0.1v0.2H194.9z
			 M195.1,63.3h-0.2l-0.1,0.2h0.2L195.1,63.3z M195.4,56.1l0.1,0.2l0.1,0L195.4,56.1z M195.6,58.9l0.2,0.1l0.2,0l0.1-0.2l-0.5-0.1
			l-0.2,0.1L195.6,58.9z M196.3,62.8l0-0.1l-0.1-0.1l-0.1,0.2L196.3,62.8z M196.9,64.4l-0.1-0.4l-0.4-0.2l-0.1,0.2l0.2,0.5l0.2,0.1
			L196.9,64.4z M196.7,65.7l-0.2-0.4l-0.1,0.5L196.7,65.7z M196.6,55.9h0.2l0-0.1l-0.1-0.1L196.6,55.9z M196.6,56.8l0,0.2l0.2-0.1
			l0-0.3h-0.2L196.6,56.8z M196.8,63v0.2h0.2V63H196.8z M197.1,67.4l0-0.5l-0.2-0.1l-0.2,0.5l0.1,0.2l0.2,0.1L197.1,67.4z M197.5,54
			l0.2-0.1l0-0.3l-0.1-0.1l-0.3,0.2l-0.1,0.2H197.5z M197.4,62.1h-0.2v0.2l0.2,0V62.1z M197.8,69.6l-0.3,0l0.1,0.2l0.2,0L197.8,69.6
			z M197.7,52.3l-0.1,0.1l0,0.2l0.2-0.2l0.1-0.2H197.7z M197.8,56.7l0.2-0.1l0-0.2l-0.3,0l-0.2,0.2L197.8,56.7z M197.7,57.4h-0.2
			v0.2h0.2V57.4z M198,68.6l-0.3-0.2v0.2l0.4,0.2L198,68.6z M197.8,60.2l0.1-0.2l-0.2,0.1L197.8,60.2z M197.9,64.8l-0.2-0.1v0.2
			L197.9,64.8z M198,55.2l0,0.2l0.2,0.1l-0.1-0.5l-0.3,0.1L198,55.2z M198.6,57.9l-0.2-0.4h-0.4v0.2l0.1,0.2l0.4,0.2V57.9z
			 M198.2,58.8l-0.1,0.2l0.1,0.2l0.2-0.1v-0.3L198.2,58.8z M198.5,66.7l-0.3-0.2v0.2l0.1,0.1L198.5,66.7z M198.3,54.4l-0.1,0.1
			l0.2,0.1l0.1-0.2L198.3,54.4z M198.6,53.2l-0.2,0.1l0.1,0.2l0.2,0.1l0-0.3L198.6,53.2z M198.6,51.9v0.2l0.1,0.2l0.3,0v-0.5
			l-0.3-0.1L198.6,51.9z M199.3,63.3l0-0.2L199,63l-0.2,0.1l0.1,0.2l0.2,0.1l0.3,0L199.3,63.3z M199,65.3l-0.3,0l0.1,0.3L199,65.3z
			 M198.9,69.9l-0.2-0.1v0.3h0.2L198.9,69.9z M199,54.6l0.2,0.1l0-0.1l0.2,0.2v-0.3l-0.4-0.1V54.6z M199,55.9l0.2-0.1l-0.2-0.1V55.9
			z M199.3,71.7l-0.2,0l-0.1,0.2L199.3,71.7z M199.3,51.2l-0.2,0.2l0.3,0L199.3,51.2z M199.1,59.6l0,0.2l0.2,0v-0.2L199.1,59.6z
			 M199.3,54.9l0,0.2l0.1,0.1l0.1-0.2L199.3,54.9z M199.8,57.5l-0.2-0.2l-0.2-0.1v0.2l0.4,0.3L199.8,57.5z M199.5,53.9l0.2,0.2
			l0.1-0.2l-0.2-0.2L199.5,53.9z M199.7,65.4l-0.2,0.4l0.1,0.2l0.2,0.1l0.2-1.2l-0.5-0.2v0.2l0.1,0.2v0.2L199.7,65.4z M200.1,52.5
			l-0.3,0.2l0,0.2l0.3,0l0.2-0.1l0.1-0.2L200.1,52.5z M200,69.9l0-0.3l-0.2-0.2l-0.1,0.2l0,0.3L200,69.9z M199.9,51.5l0.1,0.4
			l0.2,0.1l0.1-0.2l-0.1-0.4l-0.2-0.1L199.9,51.5z M200.1,68.6l0-0.2l-0.2,0.1l0,0.2L200.1,68.6z M200.3,67.3l-0.2-0.1l0,0.3
			l0.2,0.1L200.3,67.3z M200.9,54.3l-0.1-0.2l-0.2-0.2l-0.2-0.1l0,0.2l0.1,0.2l0.2,0.2l0.2,0.1L200.9,54.3z M200.4,51l0.2,0v-0.2
			h-0.2L200.4,51z M200.5,54.9l-0.1,0.2l0.1,0.2l0.2-0.5l-0.1-0.2L200.5,54.9z M200.7,70.8h-0.2l0,0.2l0.2,0.1V70.8z M200.8,49.3
			l0.1,0.5l0.2-0.1v-0.2l-0.1-0.2l-0.2-0.1V49.3z M200.9,52.4l0.2,0.1l0.2,0l0-0.2l-0.5,0L200.9,52.4z M201.1,68.1l-0.2-0.1v0.2h0.2
			L201.1,68.1z M201.1,51l0,0.2l0.2,0.2l0.2-0.4l-0.2-0.1L201.1,51z M202,53.8l-0.1-0.2l-0.2-0.1l-0.3,0l0.1,0.5l0.4,0.2L202,53.8z
			 M201.7,50.3l0.2,0l0.1-0.2l-0.2-0.1L201.7,50.3z M202,48.9l-0.1,0.2l0.2,0l0.2-0.1l0.1-0.2l-0.1-0.2l-0.2,0L202,48.9z
			 M202.2,73.4l0.1-0.2h-0.4l0.1,0.3L202.2,73.4z M202.4,52.2l0.2-0.5l-0.3-0.1l-0.2,0.1V52l0.2,0.2L202.4,52.2z M202.7,54.6
			l0.2-0.1l-0.2-0.1l-0.2,0.1L202.7,54.6z M202.5,50.7l0.2,0.1l0-0.3h-0.2V50.7z M202.9,70.2l-0.2-0.1l0,0.3l0.2,0.1L202.9,70.2z
			 M202.7,53.2l0.1,0.1l0.1-0.1H202.7z M203.4,51.4l0.1,0.2l0.2-0.3l-0.3-0.2L203.4,51.4z M203.6,49.7l0,0.2l0.2,0.1l0.1-0.2
			l-0.1-0.2l-0.2-0.2L203.6,49.7z M204.2,53.2h0.1v-0.2h-0.1V53.2z M204.9,72.5v-0.2l-0.1-0.2l-0.2,0.2l0,0.2l0.2,0.1L204.9,72.5z
			 M205,76.8l-0.2,0.1v-0.2L205,76.8z M205.1,71.4h-0.2v0.2h0.2V71.4z M205.1,49.8l0.1,0.1l-0.1-0.3V49.8z M205.4,48.4l0.3,0.1
			l0-0.2l-0.2-0.1L205.4,48.4z M205.8,47.4l0.2,0l0.1-0.2l-0.4,0.1L205.8,47.4z M206.3,50.1h-0.2l0.1,0.3l0.2,0l0.1-0.2L206.3,50.1z
			 M206.4,48.9l-0.1,0.2l0.2,0l0.1-0.2L206.4,48.9z M206.7,48.2l0.2-0.1l-0.1-0.2l-0.1,0.1V48.2z M207.7,73.9l-0.2-0.1l-0.2,0.3
			l0.2,0.1L207.7,73.9z M207.6,48l-0.1,0.2l0.2,0.1h0.3v-0.2l-0.2-0.3L207.6,48z M207.9,47.6l0.2,0.1v-0.2l-0.2-0.1L207.9,47.6z
			 M208.6,73.7l0.2-0.1l0.1-0.2l-0.2-0.1h-0.3l-0.2,0.1v0.3L208.6,73.7z M209,47.9l0.2-0.1l-0.2-0.2V47.9z M209.3,74.8L209.3,74.8
			H209V75l0.1,0.1l0.2-0.1V74.8z M210.2,72l-0.2-0.2l-0.1,0.2L210.2,72z M210.1,47.3l0.2-0.1V47h-0.2V47.3z M210.3,49.8v0.2l0.2,0
			l0.1-0.1L210.3,49.8z M211.6,72.1h-0.2v0.2h0.2L211.6,72.1z M212.1,48.9l0.2,0l-0.1-0.2L212.1,48.9z M212.5,47.4l-0.2,0.1l0.4,0.1
			v-0.2L212.5,47.4z M214.1,48.3l0.2,0.1l0.1-0.2l-0.3-0.1V48.3z M215.1,71.2l0.1-0.2l-0.3-0.2v0.4L215.1,71.2z M216.8,47.5h0.2
			v-0.1h-0.2V47.5z M217.2,50.3h0.1V50h-0.1V50.3z M217.3,49.3l0.2,0v-0.3h-0.2L217.3,49.3z M217.8,52.8v0.2l0.2-0.2H217.8z
			 M218,55.4l-0.1-0.1l-0.1,0.2l0,0.2l0-0.1l0.2,0L218,55.4z M218.2,71.4l0.1-0.2l-0.1-0.2h-0.3l-0.1,0.2l0.1,0.2L218.2,71.4z
			 M218,72.5h-0.2v0.2h0.2V72.5z M218.4,49.7l0.2-0.1l0.1-0.2h-0.2V49.7z M218.5,65.8h0.1l-0.1-0.2L218.5,65.8L218.5,65.8z
			 M218.9,73.3l-0.1-0.2l-0.2,0.2L218.9,73.3z M219,74.5l-0.1,0.1l0.1,0.1h0.2L219,74.5z M223,71.8h-0.2l-0.1,0.2h0.2L223,71.8z"/>
		<path class="st17" d="M259,48.1l0.2,0.4l0,0.5l-0.2,1.2l0.3,0.6l-0.4,1.4l-0.4,0.5l-0.9,0.2l-0.5-0.2l-0.2,0.1l-0.5,0.1l-1.4-0.1
			l-0.7,0.1l-0.7-0.1h-1l-0.5-0.1l-0.2,0.1l-0.1,0.1l-0.4-0.2l-1.1,0.1l-0.3-0.4l-0.1,0.3l-1.9,0l-1.7,0.1l-0.2-0.1l-0.5-0.3
			l-1.2,0.2l-0.2,0.1l-0.1-0.5l-0.5,0.5l-0.5,0.2l-0.3,0.5l-0.2,0.2v0.7l-0.2,0.4l0.1,0.2l0,0.5l0.1,0.2l-0.2,0.2l0,0.3l0.6,1
			l0.2,0.3l0.5,0.1l0.5-0.3h1l0.2-0.1l0.2,0.1l1-0.1l0.3,0.2l0.3-0.2l0.7,0l0.2-0.1l0.5,0.3l0.2-0.1l0.1,0.2l0.2,0l0.1-0.2l0.9,0
			l1,0.2l0.2-0.1l0.1-0.2l1.5,0.1l0.4,0.1l0.7-0.2l1.7,0.2l0.5,0.5l0,0.3l0.1,1.6l-0.1,0.4l-0.2,0.4l0.1,0.2l0.3,0.3v0.3l-0.2,0
			l-0.2-0.1l-0.2,0l0.2,0.4v0.3l0.2-0.1l0.1,0.1l0.1,1.3l-0.4,0.2l0.1,0.2l-0.1,0.5l-0.3,0.4l-0.2,0l-0.2-0.1l0.2-0.2l-0.1-0.2
			l-0.4,0.5l-0.2,0l-0.4-0.2v0.3l-1.1,0l-1-0.2l-0.5,0.2l-1,0l0.2-0.5l-0.2,0.1l-0.3,0.5l-0.6-0.2l-0.2,0.1l-0.3-0.1l-0.1-0.2
			l-0.2,0.2l-1,0.1l-0.2-0.5l-0.2-0.1l-0.1,0.2l0.1,0.2l-2.1,0.1l-0.9,0l-0.5-0.2l-0.5,0.2l-0.9,0.9v1.9l0.2,0.5l0.3,0.5l1,0.1
			l0.4,0.1L245,69h1.4l0.2-0.1l0.2,0.1l0.3,0.3l0.2-0.1l0.1-0.2h0.2l0.2,0.2l0.5-0.2h1.1l0.7,0.2l0.2,0l0.1-0.2l0.2,0l0,0.2l0.1,0.1
			l0.5,0.2l0-0.2l-0.1-0.2l0.2-0.1l0.2,0l0.5,0.3l0.2,0.2l0.2-0.1l0.1-0.2l0.5,0.1L254,69l0.5,0v0.3l0.2,0.2l0.2-0.4l0.7,0.2L256,69
			l0.6-0.2l0.5,0.2h0.2l0.2-0.1l1.1,0.3l0.3,0.7l0.2,0.2l-0.1,0.4l0.1,0.7l0.1,0.2l0.2,0.1l-0.1,0.5l-0.2,1.6l-0.1,0.2l0.3,0.5
			l0,0.2l-0.2,0.4l0.3,0l-0.2,0.7l-0.1,0v0.2l0.1,0.2l-0.1,0.2l-0.8,0.5l-0.1,0.2l-0.2,0l-0.8,0.2l-1-0.2l-0.5,0.1l-0.4-0.2
			l-0.2,0.1l-0.8,0l-0.2,0.1l-0.1,0.2l-1.1-0.5l-0.2,0.1l-0.1,0.2l-0.6,0l-0.4-0.2l-0.3,0.1h-0.2l-0.7-0.2l-0.2,0l0-0.2l-0.2-0.1
			l-0.1,0.2l0.1,0.2l-0.5,0l-1.5-0.1l-0.5,0l-0.5,0.2l-0.2-0.1l-0.3-0.2L246,77l-0.4,0.2l-0.5-0.1l-0.7,0l-0.2-0.1l-0.2,0.1
			l-1.1,0.1l-0.2,0.1L242,77l-0.3,0.1l-1-0.1l-0.2,0.1l-0.4-0.4l-0.3,0.4l-1-0.1l-0.7,0.1l-0.7-0.1l-0.4,0.1l-0.2,0.1l-0.5-0.1
			L236,77l-0.7,0.1l-0.4-0.2l-0.4-0.3l-0.2-0.4l0.1-0.2l0.2-0.1l-0.1-0.2l-0.2,0l-0.1-0.2l0.3-0.1l0-0.5l-0.3-1l0-0.4l0.1-0.2
			l-0.2-0.5l0.1-0.4l-0.1-1.5l0.2-1v-0.5l-0.1-0.2l0.2-0.3l-0.2-0.5l0.2-0.2l-0.2-0.2l-0.1-0.5l0.2-0.5v-0.2l0.6-0.1l-0.5-0.2l0-0.5
			l0.1-0.2l0.1-0.1l-0.3-0.4l0.1-0.2l0.4-0.2l-0.5-0.2v-0.3l0.3-0.6l-0.2-0.4l0-0.5l0.1-1l-0.1-0.4v-2.4l0.1-0.4l-0.2-1.5l0.2-0.4
			v-0.7l0.2-0.2l-0.2-0.9l0-0.2l0.2-0.1l0.2,0.2l-0.1-0.5l-0.3-0.3l0-0.5l-0.2-0.5l0.2-0.5l-0.1-0.7l0.1-0.2l-0.1-0.4l0-0.5l0.2-0.4
			l-0.2-0.7l0.1-1.5l-0.1-0.2l0.1-0.4v-1.1l0.2-1l0.2-0.4l0.2-0.1l3.7-0.1l0.5,0.3l0.1-0.2l0.2-0.1l0.5,0.1l0.1,0.1l1.3-0.3l0.3,0.1
			l0,0.2h0.3l0.1-0.2l0.2-0.1l0.6,0.1l0.5,0.3l0.1-0.3h3.1l0.7,0.2l0.3-0.2l0.5,0.1l1-0.1l0.5,0l0.2,0.1l0.9-0.2l2.1,0l1.5-0.1
			l0.5,0.1l0.9-0.2l0.5,0.1l0.7,0.2l0.3-0.1h1l1.2,0.5l0.2,0.9l0.1,1.5l-0.2,0.4L259,48.1z M234.7,67.6l0-0.3l-0.1,0.2L234.7,67.6z
			 M234.7,74.7h0.2v-0.2h-0.2V74.7z M235.2,68.9l0-0.3l-0.1-0.1l-0.2,0l0.2,0.4L235.2,68.9z M235.3,52.1l0.2,0.1l-0.2-0.2V52.1z
			 M235.8,71.4l0-0.2l-0.2-0.1l-0.1,0.2l0.2,0.2L235.8,71.4z M235.7,53.5l0,0.4l0.2-0.1l0.1-0.2l-0.2-0.1L235.7,53.5z M235.7,55.1
			l0.3-0.1l-0.3-0.2V55.1z M235.8,49.3h0.2V49h-0.2V49.3z M235.8,58l0.3-0.1l0.1-0.2l0-0.3l-0.2-0.1l-0.2,0.4L235.8,58z M235.8,74.1
			l0.3,0.2l0-0.4l-0.1-0.1l-0.2,0.2L235.8,74.1z M236,65.7l0.2-0.1l0.1-0.2l0-0.4l-0.3,0.1l-0.1,0.2l0,0.2L236,65.7z M236,52.9
			l0.2,0l0.1-0.1l-0.2-0.2L236,52.9z M236.1,56.9l0.2-0.1v-0.2l-0.2-0.1V56.9z M236.1,60.9l0.4,0l0.2-0.5l-0.2,0l-0.2,0.2
			L236.1,60.9z M236.1,69.4h0.2v-0.2h-0.1L236.1,69.4z M236.5,68.2l0.1-0.4l-0.1-0.2l-0.2,0l-0.1,0.2l0.1,0.3L236.5,68.2z
			 M236.2,63.4h0.1v-0.2h-0.1V63.4z M236.6,51.8l-0.2,0.1l0.1,0.1L236.6,51.8z M236.7,51l0-0.2l-0.2,0L236.7,51z M236.7,63.6
			l0.3-0.1l0-0.2l-0.1-0.1l-0.2,0.2L236.7,63.6z M236.8,71.2h0.4l-0.2-0.6l0.1-0.2l-0.2-0.1l-0.2,0.2l0,0.5L236.8,71.2z M236.7,66.3
			l0.4,0.1l0.2-0.1v-0.4l-0.3,0l-0.2,0.1L236.7,66.3z M236.7,54.4l0.1,0.2l0.5,0.2l-0.1-0.3l-0.2-0.2L236.7,54.4z M237,58.5v-0.1
			h-0.2L237,58.5z M237,53.4l0.4-0.2l0.1-0.2l-0.1-0.2l-0.3,0l-0.1,0.4L237,53.4z M236.9,64.9l0.4,0.1l0-0.2l-0.2-0.1L236.9,64.9z
			 M237,48.7h0.2v-0.2l-0.1-0.1L237,48.7z M237.1,45.9l0.2,0.1l-0.1-0.2L237.1,45.9z M237.1,68.9l0.4,0.2l0.3,0l0.1-0.2v-0.2
			l-0.2-0.2l-0.4,0l-0.1,0.2L237.1,68.9z M237.5,73.8l-0.1-0.5l-0.3-0.1v0.4l0.1,0.2L237.5,73.8z M237.2,57.4h0.4l-0.1-0.3l-0.2-0.1
			V57.4z M237.6,47.7v-0.6h-0.2l0,0.2l0.1,0.2L237.6,47.7z M237.3,56.2l0.2,0.2h0.2l0.1-0.2l-0.2-0.2v-0.2h-0.2l0,0.2L237.3,56.2z
			 M237.3,60.4L237.3,60.4l0.5-0.2v-0.2h-0.3l-0.1,0.2L237.3,60.4z M237.5,72.8l0.3-0.1l-0.1-0.2l-0.2-0.1l-0.1,0.2L237.5,72.8z
			 M237.5,51.2l0.1,0.5l0.2,0.1l0.2,0l0.1-0.6l-0.2-0.1h-0.2L237.5,51.2z M237.5,52.7h0.2l-0.1-0.3L237.5,52.7z M238.1,58.5
			l-0.2-0.2l-0.2,0.1l-0.1,0.2v0.2l0.1,0.2l0.2,0.1l0.1-0.5L238.1,58.5z M237.7,63.1l0.2,0.1l0.1-0.4l-0.2,0.1L237.7,63.1z
			 M237.8,71.7l0.5,0.1l-0.2-0.4l-0.2-0.1l0,0.2L237.8,71.7z M237.9,50.2l-0.1-0.1L237.9,50.2z M238,66.9v-0.2h-0.2L238,66.9z
			 M237.9,54.1l0.2,0.2l0.5-0.6l-0.2,0l-0.2,0.1l-0.2,0.2L237.9,54.1z M238.1,61.7l0.1-0.3l-0.2-0.1l-0.1,0.2L238.1,61.7z M238,70.9
			l0.2-0.1l-0.1-0.5l0-0.3l-0.3-0.2l-0.1,0.2l0.2,0.4V70.9z M238,45.7l0.2-0.1v-0.2H238V45.7z M238.7,65.9l-0.1-0.2l-0.4-0.2
			l0.1,0.2l0.2,0.2L238.7,65.9z M238.2,62.1h0.1v-0.2h-0.1V62.1z M238.2,73.1l0.4,0.2l0.1-0.2v-0.5l-0.1-0.2l-0.2,0l-0.2,0.3V73.1z
			 M238.7,49.5l-0.1-0.2l-0.2-0.1l0,0.2l0.2,0.2H238.7z M238.3,69.7l0.2,0.1l0.1-0.2v-0.3l-0.2,0l-0.1,0.2L238.3,69.7z M238.7,48.2
			l-0.1-0.2l-0.2,0l-0.1,0.2l0,0.1L238.7,48.2z M238.4,59.5l0.2,0.2l0.3,0l0.1-0.2l-0.4,0L238.4,59.5z M238.5,56.5l0,0.3l0.2,0.1
			l0.2-0.1l-0.1-0.3L238.5,56.5z M238.9,55.5l0.2-0.3l-0.3-0.1l-0.2,0.1v0.2L238.9,55.5z M239.2,51.2l0.4-0.4l-0.4-0.2h-0.3
			l-0.2,0.1v0.4l0.2,0.1H239.2z M239.2,58.8l0.1-0.4V58l-0.3-0.1l-0.2,0l-0.1,0.1v0.2l0.2,0.5L239.2,58.8z M238.9,63.9l0.2-0.1
			l0-0.3h-0.2l-0.1,0.2L238.9,63.9z M239.3,71.1l-0.2-0.1l-0.3,0l0.1,0.3h0.2L239.3,71.1z M238.9,47.3h0.2v-0.2h-0.2V47.3z
			 M239,62.3l0.1,0.5l0.2-0.1l0.1-0.2l0-0.2h-0.2L239,62.3z M239.6,53.9l0.1-0.2l-0.1-0.2l-0.2-0.2h-0.4l0.3,0.4L239.6,53.9z
			 M239.1,60.7l0,0.3l0.2,0.2v0.3l0.2-0.1l0.1-0.2v-0.3l-0.1-0.2h-0.3L239.1,60.7z M239.1,69.9l0.2,0l0.1-0.1l0-0.2l-0.2,0l-0.1,0.1
			V69.9z M239.4,49.6l0.1-0.2l-0.3-0.1v0.2L239.4,49.6z M239.2,45l0.3,0l-0.2-0.2L239.2,45z M239.6,49.1l0.1-0.2l-0.3-0.1
			L239.6,49.1z M239.4,72.3l0.3,0.5l0.2,0.1l0.1-0.2v-0.5l-0.2-0.1h-0.2L239.4,72.3z M239.5,52.4l0.2-0.1v-0.2l-0.2-0.1V52.4z
			 M239.7,56.5l0.3-0.4l0-0.2l-0.2-0.2l-0.3,0.4L239.7,56.5z M239.9,65.3l0.2-0.1V65l-0.2-0.1h-0.3l0.1,0.3L239.9,65.3z M239.6,48
			l0.2-0.1l0-0.3l-0.2-0.1l0,0.2V48z M239.9,60.4V60l-0.2,0.1v0.2L239.9,60.4z M239.7,68.1l0.5-0.2l0.1-0.2l-0.2-0.1l-0.2,0.1
			l-0.1,0.2L239.7,68.1z M240.1,58.9L240,59l-0.1-0.1h-0.2l0.1,0.2l0.2,0l0.2-0.1L240.1,58.9z M239.9,63.7l-0.2-0.1l0.1,0.2
			L239.9,63.7z M239.7,64.4h0.2l-0.1-0.2l-0.2-0.1V64.4z M239.8,74.8l0,0.2l0.2,0.2l0.2,0l0.2-0.3l-0.1-0.2l-0.2,0L239.8,74.8z
			 M240.2,55.4l0-0.6l-0.2-0.2l-0.2,0.2V55l0.1,0.2L240.2,55.4z M240.1,57.9l0.3-0.1l0.2-0.5l-0.2-0.2l-0.2,0.1l-0.2,0.4L240.1,57.9
			z M240.3,63.3V63l-0.2-0.1v0.2L240.3,63.3z M240.3,70.9l0.1-0.2l0.4-0.2l-0.5,0l0,0.2L240.3,70.9z M240.7,61.9l0-0.5l-0.3,0
			l-0.1,0.1l0.2,0.3H240.7z M240.4,49.1l0.1-0.2l-0.2-0.1l0,0.2L240.4,49.1z M240.6,50.7l0.1-0.2l-0.1-0.2l-0.2-0.1l-0.1,0.2v0.2
			l0.1,0.2L240.6,50.7z M240.5,60.7l0.2-0.1l0.1-0.1l0.1-0.2l-0.4-0.2l-0.1,0.4V60.7z M240.7,74.4v-0.2l-0.2,0.1L240.7,74.4z
			 M240.9,49.7l-0.1-0.2l-0.2-0.1l0,0.3H240.9z M240.6,53.4l0.4-0.2v-0.3l-0.1-0.1l-0.2,0l-0.1,0.4L240.6,53.4z M240.6,64.9l0.2-0.2
			l0-0.3l-0.2,0l-0.1,0.2L240.6,64.9z M240.6,63.4h0.2l-0.1-0.3l-0.1,0.2L240.6,63.4z M240.8,73.4l0.3-0.1l0.1-0.2l-0.2,0l-0.2,0.1
			L240.8,73.4z M240.8,72.1l0.3,0.2l0.1-0.2v-0.3l-0.2-0.2l-0.2,0.2L240.8,72.1z M240.9,63.8l0.2-0.1l0.1-0.2h-0.2L240.9,63.8z
			 M240.9,58.6h0.3l0.2-0.1l-0.1-0.3l-0.3,0.2L240.9,58.6z M241,47.4h0.2l0-0.2l-0.2-0.1V47.4z M241.3,50l0.2-0.1l0.1-0.3H241l0,0.3
			L241.3,50z M241.2,54.5h0.1l0.1-0.1l-0.2-0.1V54.5z M241.4,62.6l0.1-0.3h-0.3l0,0.2L241.4,62.6z M241.2,74.4l0,0.3l0.1,0.2l0.2,0
			l0.1-0.2l0-0.3h-0.3L241.2,74.4z M241.6,57.3l0-0.2l-0.1-0.2l-0.2-0.1h-0.2l0.1,0.5L241.6,57.3z M241.4,46.6l-0.1-0.3l0,0.2
			L241.4,46.6z M241.3,61.4l0.3,0l0.2-0.1l-0.1-0.2l-0.4-0.1L241.3,61.4z M241.6,60h0.4v-0.4l-0.2-0.1l-0.2,0.1l-0.1,0.2L241.6,60z
			 M241.6,52.7l0.4,0.1l0.1-0.1v-0.3l-0.3-0.1l-0.1,0.2L241.6,52.7z M241.8,64l0.1,0.3l0.2,0.1l0.1-0.4l-0.2,0L241.8,64z
			 M241.8,48.3l0.3-0.1l0.1-0.2l-0.2-0.1l-0.1,0.1L241.8,48.3z M242.1,72.9v-0.3l-0.2,0.2L242.1,72.9z M242,62.4l0.2,0.4V63l0.2-0.1
			l0-0.2l-0.1-0.2l-0.2-0.1L242,62.4z M242,71.3l0.1,0.2h0.3l-0.1-0.2L242,71.3z M242.1,51.9h0.2l-0.2-0.2V51.9z M242.5,59l-0.3-0.1
			l0.1,0.2L242.5,59z M242.3,46.9l0.2,0l0.1-0.2l-0.2,0L242.3,46.9z M242.3,74.1l0.6,0.2l0.1-0.5l-0.2-0.1l-0.4,0.2L242.3,74.1z
			 M242.4,50.5l0.2,0.2l0.1-0.2H242.4z M242.6,61.8h0.2l0-0.2l-0.2-0.1V61.8z M243.3,59.7v-0.3H243l0,0.2L243.3,59.7z M243.3,47.6
			v-0.1h-0.2L243.3,47.6z M243.3,61.9l0.3,0.3l0.1,0.2l0.1-0.2v-0.3l-0.4-0.1L243.3,61.9z M243.5,51.3l-0.1-0.3l0,0.2L243.5,51.3z
			 M243.8,74.8l0.1,0.2h0.2l0.1-0.2L243.8,74.8z M244.1,51.4l0.1,0.2l0.2,0l0.1-0.2l-0.2-0.2L244.1,51.4z M244.3,76.4v-0.3l-0.1-0.1
			v0.3L244.3,76.4z M244.7,58.8l0-0.2h-0.2l0.1,0.3L244.7,58.8z M244.5,61.6l0.3,0.4l0.2,0l0.2-0.4l-0.4-0.2l-0.2,0.1L244.5,61.6z
			 M245,48.4l0.2,0l0.1-0.1h-0.2L245,48.4z M245.3,59.8l0.4-0.2l0-0.2l-0.3,0.2L245.3,59.8z M245.7,62.5l0.3,0.2l0-0.3l-0.2-0.1
			L245.7,62.5z M245.9,61l0.3,0.5l0.2-0.2l0.1-0.2l-0.5-0.1L245.9,61z M245.9,74.1l0.2-0.1l-0.2-0.1V74.1z M246.5,60.5v-0.3
			l-0.2,0.2L246.5,60.5z M246.4,59.2l0.2-0.1l-0.2-0.1V59.2z M246.7,72.6l-0.1-0.2h-0.3l0,0.2l0.2,0L246.7,72.6z M246.8,50.5h0.3
			l-0.1-0.2l-0.2-0.1L246.8,50.5z M246.9,61.8l0.1,0.2l0.2,0.1l0.2-0.2v-0.2l-0.2-0.1L246.9,61.8z M247,60.7l0.3,0.2h0.2l-0.1-0.2
			v-0.3l-0.2-0.1l-0.1,0.2L247,60.7z M247.4,73.6h0.3v-0.2l-0.2,0L247.4,73.6z M248.1,63.7l0.1-0.2l-0.3-0.4l0,0.5L248.1,63.7z
			 M247.8,76l0.2,0.1l-0.2-0.2V76z M248.3,61.4l0.2,0.1l0.2-0.1l0.1-0.2l-0.2,0l-0.2,0.1L248.3,61.4z M248.7,60.4l0-0.2l-0.2-0.2
			v0.3L248.7,60.4z M248.9,62.7l0.3,0.1v-0.2l-0.2,0L248.9,62.7z M249.7,60.7h0.2l-0.1-0.2L249.7,60.7z M250.1,59.7l-0.2-0.2l0,0.3
			L250.1,59.7z M250,63.5l0.2,0.1l0.1-0.2h-0.2L250,63.5z M250.3,72.4l0.1-0.2l-0.2-0.2l0,0.3L250.3,72.4z M250.6,62.5l0.1-0.2
			l0-0.2l-0.2-0.1l-0.2,0.2l0.1,0.2L250.6,62.5z M250.5,73.6v0.2l0.3,0l0.2-0.2l-0.2-0.2L250.5,73.6z M251.2,49.3l-0.1-0.2l-0.4-0.2
			l0.1,0.2l0.2,0.1L251.2,49.3z M251,60.4l0.2,0l0.1-0.1l-0.2-0.1L251,60.4z M251.3,76.5l-0.1-0.1H251l0.1,0.2L251.3,76.5z
			 M251.6,58.8l0.2-0.1l-0.2-0.1V58.8z M252.2,76h0.2l0.1-0.2l-0.3,0V76z M252.3,46.6h0.2v-0.1h-0.2V46.6z M252.3,62.4l0.2,0
			l-0.2-0.2V62.4z M252.6,71.2h0.2l-0.2-0.2V71.2z M253,61.4l0.1-0.3h-0.2v0.2L253,61.4z M253.3,72.9l0-0.2l-0.2-0.1l0,0.2
			L253.3,72.9z M253.1,75.3l0.1,0.2h0.3v-0.3h-0.2L253.1,75.3z M254,69.5l0.1-0.1l0-0.2l-0.2,0.1L254,69.5z M254.1,62l0.1-0.2H254
			L254.1,62z M254.2,61h0.2v-0.1h-0.2V61z M254.5,74.8l0.2,0.1l0.2-0.1l0-0.2h-0.3L254.5,74.8z M254.8,70.1l0-0.2l-0.2,0L254.8,70.1
			z M255.4,75.6h0.2v-0.2h-0.2V75.6z M256.1,73.3h0.2l-0.2-0.2V73.3z M256.2,72.3l0.2-0.1l-0.2-0.1V72.3z M256.3,69.4h0.2l0.1-0.2
			l-0.2-0.1V69.4z M256.7,76.1l0-0.2l-0.2-0.1v0.2L256.7,76.1z M257.1,73.8l0.2-0.3l-0.2,0l-0.1,0.2L257.1,73.8z M257.6,72.9h0.1
			l-0.1-0.2L257.6,72.9L257.6,72.9z M258.7,72.4h0.2v-0.2h-0.2V72.4z"/>
		<path class="st17" d="M296.9,56.8l0.1,0.7l-0.1,0.5l-0.2,0.4l0.2,0.5l-0.4,1.4l-0.2,0.1l0.1,0.5l-0.5,1.1l-0.5,0.8l-0.2,0.1
			l-0.2,0l0,0.2l0.2,0.1l-0.5,0.6l-0.2,0.1l0,0.3l-0.4,0.6l-1.1,1l-0.5,0l0.1,0.2l-1.2,1l-0.2,0.1l0.1,0.3l-0.2,0.2l0.4,0.5l0,0.2
			l0.7,0.7l0.2,0.5l0.5,0.2l0.3,0.6l0.4,0.3v0.5l0.2,0.1l0.3,0.3l0.5,0.8l0.3,0.3l0.2,0.1l0.1,0.8l0.2,0.1l0.3,0.4l0.4,0.3l0.2,0.5
			l0.7,0.9l0.1,0.2l-0.5,0.8l-1,0.1l-0.5,0.2l-0.7-0.1h-3.1l-1.4-0.1l-0.5,0.2l-1.5-0.3l-0.5-0.2l-0.1-0.1v-0.2l-0.4-0.1l-0.4-0.5
			l-0.2-0.5l-0.6-0.7l-0.2-0.5l-0.2,0l0-0.3l-0.2-0.5l-0.4-0.2l0-0.2l-0.7-1.2l-0.4-0.3l-0.2-0.3l0.2,0l0-0.2l0.1-0.2l-0.4-0.2
			l-0.2-0.2l-0.1-0.2l0.2-0.2l-0.1-0.2l-0.8-0.2l-0.2-0.3l0.3-0.3l-0.2-0.3l-0.2,0.1l-0.1-0.4l-0.3,0.5l-0.6-0.2h-0.5l-0.2,0.1
			l-0.3-0.1l-0.1-0.2l-0.2,0.2l-0.3,0.1l-1-0.4l-0.1,0.2l0,0.3l-0.2,0.1l-0.3,0.4l-0.4,1.2l0.3,0.4l-0.1,0.2v0.6l0.1,0.2l-0.2,0.2
			v0.8l-0.1,0.2l-0.2,0.1l0.3,0.2l0.1,0.2l-0.2,0.2l0.2,0.5l0,0.7l-0.1,1.5l-0.5,0.1l0.1,0.5l-0.3,0.1l-1,0.2l0.4-0.5l-0.2-0.1
			l-0.3,0l-0.2,0.1l0.2,0.3l-0.9-0.1l-1,0l-0.5,0.1l-0.1-0.3l-0.7,0.2h-0.9l-0.6,0.1l-0.1-0.4l-0.4,0.3l-0.3,0l-0.4-0.3l-0.3-0.4
			l-0.2-0.7v-0.5l0.1-0.5l0.2-0.4l-0.2-0.2l-0.1-0.4l-0.1-0.2l0.4-0.5l-0.1-0.2l-0.3-0.2l0.2-0.8l0.1-1l-0.1-0.2l-0.1-0.7l0.2-0.4
			l-0.1-0.2l-0.1-0.5l0-0.5l0.2-1l-0.1-0.2l-0.2-0.2l0.2-1l0.1-0.2l-0.1-0.4l-0.1-1.1l0.1-0.5l0.2-0.4l0.2-0.1l-0.1-0.2l-0.3-0.2
			l0.1-0.2l0.2-0.1l-0.4-0.3l-0.1-0.5l0.1-0.8l0-0.5l-0.1-0.2l0.1-1.1l-0.1-0.2l0.2-0.5v-0.7l0.1-0.5l-0.1-0.2l-0.1-0.5l0.2-0.9
			l-0.2-0.5l0.2-0.7l0-0.5l-0.1-0.2l0.3-1.3l-0.3-0.7l0.4-0.2v-0.2l-0.4-0.7l0.2-0.5l0.2-1l0-0.2l-0.2-0.3l0.1-0.7l-0.1-1l0-0.2
			l0.2-0.4l-0.2-0.4l0-0.2l0.3-0.5v-0.3l0.7-0.2l0.5-0.1l0.5,0l0.5,0.2l0.4-0.2l0.5-0.1l0.2,0.2l0.2-0.2h0.2l0.4,0.2l0.7-0.2
			l0.5,0.1l0.2,0.2l0.5-0.2l0.5,0l2,0.1l0.5-0.1l0.2,0.1l0.3,0l0.2,0.1l0.4-0.2l0.3,0l0.2,0.1h0.3l0.2-0.1l0.2,0.2l0.1,0.2l0.7-0.2
			l0.2,0.1l0.5-0.2h1.5l0.5-0.1l0.2,0.1l0.1,0.2l1-0.3h0.6l0.5,0.1l0.4,0.3l0.3-0.3l0.9,0.3v0.5l0.5-0.5l0.4,0.3l0.5,0.1l1,0.1
			l0.2,0.1l0.2,0.5l0.4-0.1l1.1,0.5l0.1,0.2l0.5,0.1l-0.1,0.5l0.3,0l0.5,0.2l0.3,0.4l0.4,0.3l0.2,0.1l0,0.3l0.2,0.4l0.5,0.7l0.1,0.5
			l0.1,0.2l0.4,0.2l0.3,1.5l0.2,0.5l0.3,0.4v0.3l0.2,1l0,0.6l0.1,0.2l0.1,0.8l-0.1,0.5l-0.1,0.2L296.9,56.8z M270.3,52.2l0.1,0.2
			h0.2l0-0.4l-0.2,0V52.2z M270.5,64.8h-0.2V65h0.2L270.5,64.8z M270.3,67.3l0.3,0.2l0-0.2l-0.3-0.2L270.3,67.3z M270.3,48.9h0.2
			v-0.2h-0.1L270.3,48.9z M270.6,63.6v-0.2h-0.1v0.2H270.6z M270.8,59.7l-0.3-0.1l0,0.2l0.2,0L270.8,59.7z M270.6,61l0.2,0.1
			l0.1-0.2l-0.2-0.2l-0.2,0.1L270.6,61z M271.2,53.1l-0.2,0.1l0.1,0.1h0.2L271.2,53.1z M271.4,49.5l0-0.2l-0.2-0.1l-0.1,0.3H271.4z
			 M271.7,51.7l-0.2,0.1l-0.1,0.2l0.3,0l0.2-0.2L271.7,51.7z M271.5,55.8l0.2,0l0.1-0.1l0-0.2l-0.4-0.1V55.8z M272,60.3l-0.1-0.2
			l-0.2-0.1l-0.1,0.2l0.1,0.2l0.2,0.1L272,60.3z M271.5,48.4l0.2-0.1l-0.2-0.1V48.4z M271.7,51.1l0.3,0.1l0.2-0.1l-0.4-0.2l-0.2,0.1
			L271.7,51.1z M271.7,68.8h-0.2V69h0.2V68.8z M271.6,71.7l0.1,0l-0.2-0.2L271.6,71.7z M272.1,59.4l-0.2-0.1v0.2L272.1,59.4z
			 M272.3,54.5l0-0.2H272v0.4l0.2,0L272.3,54.5z M272.5,66l0.2-0.1l-0.1-0.4l-0.2-0.1l-0.2,0l-0.1,0.7l0.2,0.1L272.5,66z
			 M272.2,45.3l0.1,0.2l0.1,0L272.2,45.3z M272.4,48.3l-0.1,0.2l0.1,0.2l0.2,0.1v-0.3l-0.1-0.2H272.4z M272.4,47.8l0.2-0.1l-0.2-0.1
			V47.8z M272.7,61l-0.2-0.1V61L272.7,61z M272.8,54.9l-0.2,0l0.1,0.2l0.2,0L272.8,54.9z M273.1,68.2l-0.2-0.1l-0.2,0l0,0.2h0.5
			L273.1,68.2z M273.1,71.2l0-0.2l-0.3,0l-0.1,0.1l0.3,0.3l0.2,0L273.1,71.2z M272.9,72.3h-0.2l0.1,0.2l0.2,0L272.9,72.3z
			 M272.9,59.6v0.2h0.2l0-0.2L272.9,59.6z M273,51.4l0,0.2l0.2-0.1l-0.1-0.2L273,51.4z M273.2,62.2l-0.2,0.1l-0.1,0.2l0.2,0.1l0.2,0
			l0.1-0.2l0-0.2L273.2,62.2z M273.4,66.4l-0.2-0.1l-0.2,0l0.1,0.2l0.2,0.1L273.4,66.4z M273,50.5h0.3v-0.1H273V50.5z M273.3,52.9
			l0.1,0.2l0.2,0v-0.3L273.3,52.9z M273.5,70.2h-0.1v0.2h0.1V70.2z M273.5,52.1L273.5,52.1l0.2,0.1l0.1-0.1l-0.1-0.2l-0.2,0V52.1z
			 M273.5,69.2l0.2,0.1l0.1-0.2l-0.2-0.1L273.5,69.2z M273.5,47.4l0.2,0l0.1-0.2l-0.1-0.2h-0.2V47.4z M273.9,56.8v-0.3h-0.2
			l-0.2,0.5l0.2,0.2L273.9,56.8z M273.9,48.2V48l-0.2-0.1l-0.1,0.4L273.9,48.2z M273.8,71.9l0.1-0.1h-0.2L273.8,71.9z M274.2,68.1
			l-0.1-0.5l-0.2-0.2l-0.2,0.4l0.1,0.4l0.2,0.1L274.2,68.1z M273.8,64.4v0.2h0.2v-0.2H273.8z M274.1,51.4l-0.1-0.1l0.1,0.3
			L274.1,51.4z M274.1,50.8l0.2,0.1v-0.2L274.1,50.8z M274.4,67l-0.2-0.1l0,0.2l0.2,0.2L274.4,67z M274.4,70.6h-0.2v0.2h0.2V70.6z
			 M274.6,62l0.2,0.1l0.1-0.2l-0.2-0.2l-0.2,0.2L274.6,62z M274.5,60.5l0.1,0.3l0.1-0.3H274.5z M274.8,68.7l0.2,0l-0.1-0.2l-0.2-0.1
			l-0.1,0.1L274.8,68.7z M274.8,60l0.2,0l-0.1-0.2l-0.2,0L274.8,60z M274.9,64.7l-0.2,0l0.1,0.3l0.2-0.1L274.9,64.7z M275.1,71.9
			l-0.1-0.2l-0.2-0.1l0,0.2l0.1,0.2l0.3,0.1V71.9z M275,64.2l0.2-0.2l0-0.2l-0.2,0.1l-0.2,0.5L275,64.2z M274.9,47.8l0.1,0.2
			l0.2-0.1v-0.2l-0.2-0.2L274.9,47.8z M275.3,67.5l0.1-0.2l-0.2-0.1l-0.2,0.1l0,0.3L275.3,67.5z M275.5,54h-0.2l0,0.2l0.2,0V54z
			 M275.9,69.2L276,69l0-0.2l-0.2,0l-0.1,0.3l0.1,0.2L275.9,69.2z M275.7,52.2l0.2,0l0.1-0.2l-0.1-0.1h-0.2L275.7,52.2z M275.7,61.5
			h0.2v-0.3h-0.2V61.5z M276.2,51.6l-0.2-0.1v0.2L276.2,51.6z M276.1,47.6l0.3,0l0-0.2l-0.3-0.1V47.6z M276.2,46.1l-0.1,0.2l0,0.2
			l0.2,0l0.1-0.1V46L276.2,46.1z M276.4,62.1l0.2,0.1l-0.1-0.2l-0.2-0.1L276.4,62.1z M276.5,53.6l-0.1-0.1v0.2l0.1,0.1V53.6z
			 M276.6,64.9l0.2,0.1l0.2,0l-0.1-0.3l-0.2-0.1l-0.2,0L276.6,64.9z M277,67.5l0.1-0.2l-0.2-0.1l-0.2,0.2l0.1,0.2L277,67.5z
			 M277.3,63.8l0.2-0.1l0.1-0.2H277l0,0.3L277.3,63.8z M277.1,50.4l0.4,0l-0.3-0.4l-0.1-0.2V50.4z M277.4,66.5h-0.2v0.2h0.2V66.5z
			 M282.9,60.8l0.2,0.1l0.8-0.1l0.5,0.1l0.2-0.2l0.5-0.2h0.5l0.2,0.1l1.3-0.7l0.7-0.7l0.2-0.5l0.4-0.3v-0.3l0.1-0.2l0.3-0.4
			l-0.2-2.5l-1.5-1.8l-0.2-0.1l-0.8-0.5l-0.5,0.1l-0.1-0.2l0-0.4h-0.2v0.5l-0.5-0.2l-0.4,0.2l-0.5-0.2l-1,0.1l-0.5-0.1l-0.5,0.2
			l-0.2-0.1l-0.6,0l-0.2,0.1l-0.5-0.4l-0.3,0.2l-0.3-0.1l-0.8,0.1l-1,0l-0.6,0.9v2.8l0.2,0.5l-0.1,0.7v3l1,0.5l0.9-0.1l0.5,0.1
			l0,0.2l0.1,0.2l0.4-0.4l0.2,0.1l0.1-0.2l0.2-0.1h0.6l0.3-0.1l0.4,0.2l0.5,0l0.2-0.2L282.9,60.8z M277.5,62.5l0,0.2l0.2,0l0-0.2
			l-0.2-0.1L277.5,62.5z M277.5,46.9h0.2l0.1-0.2l-0.2-0.1L277.5,46.9z M277.8,66.5h-0.2v0.2h0.2V66.5z M278.1,65.1h-0.2v0.2l0.2,0
			V65.1z M278.3,50.9l0.1,0.1l-0.1-0.3L278.3,50.9z M279.2,66.2l0.1-0.2l-0.1-0.2l-0.2,0l-0.1,0.2l0,0.2l0.2,0.1L279.2,66.2z
			 M278.9,48.9l0,0.2l0.2,0l0.1-0.2l-0.2-0.3L278.9,48.9z M279.3,65.3l0.2-0.3l-0.1-0.2l-0.2-0.1l-0.1,0.1l0,0.5H279.3z M279.3,63.9
			l0.2,0l0.1-0.2l-0.3-0.1V63.9z M280.5,47.2l-0.2,0l0.1,0.3l0.2,0.2l0.1-0.4L280.5,47.2z M280.9,49.8l-0.2,0l0.2,0.5l0.4-0.2v-0.3
			l-0.1-0.2L280.9,49.8z M280.7,63.6h0.2l0-0.2l-0.2,0l-0.2,0.1L280.7,63.6z M281,51.6l-0.1,0.2h0.2v-0.2H281z M281.1,66.7H281v0.1
			h0.1V66.7z M281.2,49.1l0.2,0.1l-0.2-0.2V49.1z M281.8,65.1L282,65l0-0.2h-0.7l0.3,0.5L281.8,65.1z M281.6,48l0.1,0.2l0.2-0.4
			l-0.2-0.2V48z M281.9,49.6l0.1,0.1l0.2,0l0.1-0.2l0-0.3l-0.3-0.1l-0.2,0.1L281.9,49.6z M281.9,50.5h0.2l-0.1-0.3L281.9,50.5z
			 M282.4,66.5l0-0.2l-0.2-0.2l-0.2,0.1l0.1,0.5l0.1,0.2L282.4,66.5z M282.7,65.6v-0.2h-0.2v0.2H282.7z M282.9,68.2l-0.2,0v0.2h0.2
			L282.9,68.2z M282.9,46.1l-0.1,0.3l0.3,0l0.1-0.2L282.9,46.1z M283,63.9l0.3-0.3l0.1-0.2l-0.1-0.2l-0.2-0.2l-0.3,0.9L283,63.9z
			 M283.3,67H283v0.2h0.2V67z M283.6,48.8l-0.5,0.1l0.2,0.5l0.2,0l0.2-0.4L283.6,48.8z M283.7,65.9l0.1-0.2l-0.2-0.3V65l-0.1-0.2
			h-0.2V65l0.1,0.2l-0.2,0.9l0.3,0.1L283.7,65.9z M283.5,66.3l-0.2,0.2l0.2,0.1V66.3z M283.4,45.6h0.1v-0.2h-0.1V45.6z M283.9,47.4
			l0.2,0v-0.3l-0.3,0.1L283.9,47.4z M284.6,62.7h-0.3l0,0.2l0.2,0L284.6,62.7z M284.6,48.4v0.3h0.2l0.1-0.5h-0.2L284.6,48.4z
			 M285,69.4l0.1-0.2l-0.2-0.1l-0.2,0.2l0.2,0.2L285,69.4z M284.8,65.5v0.2l0.2,0.1v-0.3L284.8,65.5z M285,64.5l0.1-0.2h-0.2l0,0.2
			L285,64.5z M284.9,67.1l0.2,0.2l0.2,0.1l0.2-0.1l-0.3-0.4l-0.2,0L284.9,67.1z M285.1,50.9l-0.2,0.2l0.2,0.1l0.2,0l0.1-0.2
			L285.1,50.9z M285.2,68.3l0-0.2l-0.2-0.1l-0.1,0.2l0,0.2L285.2,68.3z M285.3,50v0.3l0.2,0V50H285.3z M286.1,63.6l-0.2,0l-0.2-0.2
			l0.1-0.2l-0.2-0.2l-0.2,0.7l0.2,0.1l0.5,0L286.1,63.6z M285.6,70.7l-0.3,0.1l0.3,0.1V70.7z M285.8,69.8l-0.2-0.2l-0.2,0l0.1,0.5
			l0.2,0.1L285.8,69.8z M285.7,49.4l0.6-0.5l-0.7,0.1L285.7,49.4z M285.8,47.9l-0.1,0.2l0.1,0.2l0.2,0.1l0.1-0.2V48l-0.1-0.2
			L285.8,47.9z M285.7,62.2l0,0.2l0.1,0.1L285.7,62.2z M285.9,64.8l0.2,0.3l0.1-0.5l-0.2-0.1L285.9,64.8z M286.3,68.6l-0.2-0.1
			l-0.1,0.2l0.1,0.2l0.2,0L286.3,68.6z M286.1,71.4H286v0.2h0.1V71.4z M286.2,50.7h0.2l0.2-0.1l0-0.2l-0.2-0.1l-0.3,0.1L286.2,50.7z
			 M286.2,64.1l0.2,0.1l-0.1-0.2l-0.3-0.1L286.2,64.1z M286.7,49.3l-0.2-0.2l-0.2,0.1l0.1,0.2l0.4,0.2L286.7,49.3z M286.7,67.6
			l0-0.2l-0.2,0l-0.1,0.2l0.2,0.2L286.7,67.6z M286.9,70.2h-0.2l-0.1,0.2h0.3L286.9,70.2z M286.9,62.1l-0.1-0.1l-0.1,0.2l0.2,0.2
			L286.9,62.1z M286.9,65.5l0.2,0.2l0.2,0l0.2-0.4l-0.5,0l-0.2,0.1L286.9,65.5z M287.1,47.5l0.2,0.1l0.2-0.1l0-0.2H287L287.1,47.5z
			 M287.3,64.3l-0.2,0.4l0,0.2l0.2,0l0.2-0.4v-0.2H287.3z M287.3,73h-0.2v0.2h0.2V73z M287.3,63.4l0.1,0.2l0.2,0.1l0.1-0.5l-0.5-0.1
			V63.4z M287.5,72.2h-0.2l0.2,0.2V72.2z M287.5,49.9l-0.1,0.2l0.1,0.2l0.2,0.1l0.3-0.5l-0.2-0.1L287.5,49.9z M287.5,70.9l0.2,0
			l-0.1-0.2l-0.2,0.1L287.5,70.9z M287.8,67.5l-0.2-0.1l-0.1,0.2l0.2,0.2L287.8,67.5z M287.8,66.1l0.2,0.2h0.2V66l-0.3-0.2h-0.2
			L287.8,66.1z M287.8,62.3v0.3h0.2v-0.3H287.8z M287.9,49.4l0.1,0l0-0.2L287.9,49.4z M288,61.3v0.1h0.2L288,61.3z M288.3,48.2
			l-0.2,0.2l0.1,0.2l0.2-0.1l0.1-0.2L288.3,48.2z M288.4,72.6l0-0.2l-0.3,0.1l0.1,0.2L288.4,72.6z M288.2,46.8l0.2,0v-0.2h-0.2
			L288.2,46.8z M288.5,71.7l0.1-0.2l-0.2-0.2l-0.2,0l0.1,0.4H288.5z M288.7,67.8l-0.2-0.2l-0.2,0l0.1,0.2L288.7,67.8z M288.5,63.1
			l0.2,0l0.1-0.2l-0.2-0.1l-0.2,0L288.5,63.1z M288.5,63.9l0.1,0.2l0.2-0.5h-0.2V63.9z M288.6,49.5l0.1,0.5h0.3l0.2-0.4l-0.1-0.2
			l-0.4-0.1L288.6,49.5z M289,66.5l0-0.1l-0.2-0.1v0.2H289z M289.3,65.6l-0.1-0.2l-0.2,0l0,0.3l0.2,0.2L289.3,65.6z M289.1,49.1
			l0.2,0l0-0.2H289L289.1,49.1z M289.5,68.4v-0.5L289,68l0,0.3l0.1,0.2l0.2,0.1L289.5,68.4z M289.4,69.4l-0.2-0.4H289v0.4l0.2,0.2
			l0.2,0V69.4z M289.4,52l-0.3,0.3l0.3,0.3l0.2-0.3V52L289.4,52z M289.4,60.7h0.1l-0.1-0.2L289.4,60.7L289.4,60.7z M289.8,62.2
			l-0.1-0.2l-0.2,0l0.1,0.2l0.2,0.2l0.2,0L289.8,62.2z M289.8,67.1l-0.2-0.1l-0.2,0l0.1,0.2l0.2,0.1L289.8,67.1z M290,71.1l0-0.4
			l-0.4,0.1V71l0.4,0.3L290,71.1z M290.1,48.8l-0.3,0.1l-0.1,0.2l0.4,0.3l0.2,0.1v-0.6L290.1,48.8z M290,63.4v-0.2h-0.2v0.2H290z
			 M290.2,64.7l-0.3-0.1l-0.1,0.2l0.1,0.3h0.3l0.2-0.2L290.2,64.7z M290.2,50.5l0-0.2l-0.2-0.1l0,0.4L290.2,50.5z M290.3,65.8H290
			l0,0.2l0.2,0L290.3,65.8z M290,56.4v0.2l0.2,0.1L290,56.4z M290.6,51.6l-0.3,0.1l-0.2,0.2l0.3,0.2l0.2,0l0.2-0.5L290.6,51.6z
			 M290.6,63.8v-0.2l-0.3,0.1L290.6,63.8z M290.8,59.9h-0.4l0,0.3l0.2,0L290.8,59.9z M290.7,72.1l0.2-0.2l0-0.3l-0.2,0.1l-0.2,0.5
			L290.7,72.1z M291,54.8l0.2-0.2l0.1-0.2l-0.3-0.3l-0.2,0l0.1,0.5l-0.2,0.2L291,54.8z M290.9,53v0.2l0.2,0.1l0.1-0.2l0-0.2
			l-0.2-0.1L290.9,53z M291.3,57.4l0.2-0.1v-0.2l-0.2,0.1l-0.1,0.2L291.3,57.4z M291.2,48.6v0.2l0.2-0.1l0-0.2l-0.2-0.1L291.2,48.6z
			 M291.4,55.8v-0.2h-0.2v0.3L291.4,55.8z M291.5,51.5h0.2l0.2-0.1l0-0.3l-0.5,0l-0.2,0.2v0.3L291.5,51.5z M291.5,64.3v-0.2
			l-0.2,0.2l0.1,0.2L291.5,64.3z M291.9,58.6l-0.2,0.2h0.3L291.9,58.6z M291.9,54.1l0.1,0.2l0.2,0.1l0.3-0.5l-0.1-0.2l-0.2,0
			l-0.2,0.1l-0.1,0.2L291.9,54.1z M291.9,55l-0.2-0.1v0.2h0.2L291.9,55z M292.3,61.3l0.2-0.1V61h-0.3l-0.1,0.2L292.3,61.3z
			 M292.2,52.6l0,0.2l0.2-0.1v-0.2l-0.2-0.1L292.2,52.6z M292.7,56.8l0.2-0.2l0-0.2l-0.4,0v0.5L292.7,56.8z M293.1,59.2l-0.1-0.2
			l-0.2,0l-0.2,0.4l0.5,0.1V59.2z M293,50.7l-0.2,0.1h0.4l0-0.2l-0.1-0.1L293,50.7z M293.6,53.2l-0.2-0.1l-0.5,0.1l-0.1,0.2l0.3,0.1
			l0.5,0L293.6,53.2z M292.9,57.7l0,0.2l0.1,0.2l0.3,0.3l0-0.2l-0.2-0.6H292.9z M293.5,62.2l0.2,0l-0.1-0.5l-0.2-0.1l-0.1,0.5
			L293.5,62.2z M293.4,60.5l0,0.2l0.2-0.2l-0.2-0.2L293.4,60.5z M293.4,52.2v0.2h0.3l0-0.3l-0.2-0.1L293.4,52.2z M293.7,57.3l-0.2,0
			v0.2h0.2L293.7,57.3z M293.9,54.9l0.2,0.2l0.2,0l-0.2-0.2l0-0.3l-0.2-0.1l-0.2,0.5L293.9,54.9z M294.1,56.2v-0.3h-0.2l-0.1,0.2
			l0.1,0.2L294.1,56.2z M294.3,52.9l0.2,0l-0.3-0.2L294.3,52.9z M294.5,57.5l-0.2-0.2l-0.1,0.2l0.2,0.1L294.5,57.5z M295.4,55.6
			l-0.2-0.1l-0.1,0.2l0.2,0.1L295.4,55.6z"/>
		<path class="st17" d="M329.2,45.5h0.5l2.2,1.4l0.2,0.3l0.1,0.2l0.2,0l0.7,0.4l0.5,0.5l0.2,0.5V49l0.1,0.2h0.5l-0.1,0.2l0.2,0.2
			l0,0.2l1,0.5l0.3,0.4l-0.1,0.2h-0.2l0.1,0.3l0.2,0.1l0.1,0.3l0.5-0.1l0.1,0.3l0.3,0.4l0.4,0.2l0.1,0.3l0.4,0.6v0.5l0.3,0.3
			l0.2,0.5v0.2l-0.1,0.2l0.2,0.1l0.3,0.4l0.2,0.5l0,0.5L339,57l0.1,0.5l0,1.1l0.3,0.5l-0.2,4l-0.4,1.5l0,0.5l-1,1.8l-0.1,1l-0.9,1.7
			l-0.5,0.4l-0.2,0.5l-0.8,0.8l0,0.4l-0.4,0.3l-0.1,0.2l-1.5,1.2l-2,1.5l-0.7,0.3l-0.3,0.4l-0.8,0.5l-0.2,0.2l-1.1,0.2l-1.6,0.7
			l-0.2-0.3l-0.3,0l-0.5,0.5l-0.2-0.2l-1.4,0.3l-1,0l-0.2-0.1l-0.4,0.3l-0.5-0.1l-1,0.1l-0.4,0l-0.4-0.3l-0.6,0.2l-0.3-0.3l-0.2-0.1
			l-0.2,0.1l-0.5,0l-0.7-0.2l-0.2-0.1h-0.5l-0.6-0.4l-0.4,0.2l-1.1-0.7l-0.2,0l-0.2,0.1l-0.4-0.3l-0.7-0.4h-0.2l-0.3-0.4l-1-0.4
			l-0.1-0.2l0.1-0.2l-0.5-0.1l-0.4-0.2l-0.6-0.7l-0.4-0.6h-0.4l-0.3-0.4l-1-0.7l-0.5-0.9l-0.7-0.7v-0.3l-0.6-0.8l-0.1-0.5l-0.3-0.3
			l-0.2-0.5l-0.4-1.5l-0.3-0.3l0-0.2l0.2-0.1l0-0.2l-0.3-0.1l-0.5-1.5l-0.2-0.2l0.2-0.5l-0.2-0.6l0.1-1.6l0-0.5l-0.2-0.5L305,59
			v-0.8l0.3-0.3l-0.2-0.5l0.2-1l0.4-1l0.2-0.2l0.1-0.6l0.2-0.5l0.3-0.3l0-0.6L307,53l0.1-0.5l1-1.4l0.1,0.2l0.1-0.5l0.5-0.2v-0.3
			h0.5l-0.1-0.2l-0.2-0.1l0.3-0.3l0.3,0l0.2-0.6l0.6-0.1l0.2,0.1v-0.2l-0.2-0.2l0.1-0.2l0.3-0.2l0.5-0.1l0-0.2l0.3-0.4l0.9-0.5
			l0.1-0.4l0.5,0l0.4-0.3l0.9-0.5l2-0.7l0.9-0.5l0.2,0l0.3,0.1l0.8-0.2h0.5l0.2-0.1l0.5-0.1l0.4-0.2l0.3,0.2l2.1-0.2l0.5,0.1l0.2,0
			l0.2-0.1l0.7,0.2l0.5,0l0.2,0.2l1,0.3l0.2-0.1l1.3,0.1l0.1,0.2l0.5,0.2l0.5,0.1l0.4,0.2L329.2,45.5z M305.3,58.7l0-0.2h0V58.7z
			 M306,65.9l0.3-0.2l-0.2,0L306,65.9z M306.8,62.5l0.1,0.2l0.2-0.1l0.1-0.2H307L306.8,62.5z M307.3,61.5l-0.3-0.2v0.2L307.3,61.5z
			 M307.5,64.5h0.3v-0.3l-0.2-0.1l-0.1,0.2V64.5z M308.5,62l-0.2,0.1l0.1,0.1L308.5,62z M308.9,63.9l0-0.3l-0.2-0.1l0,0.2l0.1,0.2
			L308.9,63.9z M308.7,65.1l0.1-0.2l-0.1-0.5l-0.2-0.1l0,0.5L308.7,65.1z M308.9,67.6l0.3,0.2l0-0.3l-0.2-0.2L308.9,67.6z
			 M309.1,62.6h0.1v-0.1h-0.1V62.6z M309.8,56h0.2l0.1-0.2l-0.2-0.1V56z M310,59.5l0-0.3h-0.2l0,0.2L310,59.5z M309.8,63.4l0.2,0
			l0.2-0.1l0.1-0.2l-0.2,0l-0.1,0.1L309.8,63.4z M310.2,66.1l0.2,0.1l0.2-0.1v-0.2l-0.2-0.1l-0.2,0.1L310.2,66.1z M310.4,58.3l0-0.2
			l-0.2,0L310.4,58.3z M310.5,68.7h0.2v-0.2h-0.2V68.7z M310.8,69.8l0.1-0.3h-0.3v0.2L310.8,69.8z M310.9,51.5L311,51l-0.2,0.1
			l-0.1,0.2L310.9,51.5z M310.9,52.7l0.1-0.3l-0.2,0.1L310.9,52.7z M311,52.1l-0.2-0.1v0.2L311,52.1z M310.9,62.9l0.2-0.1l0-0.3
			l-0.2,0l0,0.2L310.9,62.9z M311.3,63.8l0-0.3l-0.2-0.1l-0.1,0.2l0.1,0.2L311.3,63.8z M311.2,54.1L311.2,54.1l-0.1-0.2L311.2,54.1z
			 M311.3,56.9l0.4,0.1v-0.4l-0.2-0.1l0,0.2L311.3,56.9z M311.6,53l0,0.2l0.2,0l0-0.2H311.6L311.6,53z M311.6,58.1l0.2,0.1l0.1-0.2
			l-0.2,0L311.6,58.1z M311.7,69.5l0.2-0.1l0.1-0.2l-0.2-0.1l0,0.2L311.7,69.5z M312.2,59.3l-0.1-0.2l-0.3,0l0.1,0.3L312.2,59.3z
			 M312.2,63.7h0.2v-0.2h-0.2V63.7z M312.6,71l0-0.4l-0.2,0l-0.1,0.2l0.1,0.2L312.6,71z M312.6,72.1l0-0.3l-0.2-0.1l0,0.3
			L312.6,72.1z M312.6,56.3h0.3l0.2-0.2l-0.1-0.2l-0.2-0.1l-0.1,0.3L312.6,56.3z M313.2,72.4l-0.1-0.2l-0.1,0.2L313.2,72.4z
			 M313.4,67.5l0-0.2l-0.1-0.1l0,0.2L313.4,67.5z M322.1,51.7l-0.3,0.3l-0.2,0.1l-0.8-0.1l-0.2,0.1l-0.5,0.1l-0.5,0l-0.1,0.3l-2,0.8
			l-0.3,0.4l-0.3,0.1l-0.2,0.3l-0.4,0.3l-1,1.1l-0.2,0.1l-0.1,0.5l-0.4,0.4l-0.8,1.3v0.5l-0.2,0.7l-0.1,0.2l0.1,0.5l-0.3,0.4
			l0.1,0.5v0.5l0.2,0.7l-0.1,0.2l0.4,1L314,64l1.1,1.7l1.6,2h0.3l0.2,0.1l0.3,0.4l0.5,0.1l1.2,0.7l1.2,0.3l0.2,0.2l0.2-0.1l0.2,0
			l0.5,0.3l0.1-0.2l0.2-0.1l0.7,0.2l0.2-0.2l0.2,0l0.2,0.1l0.9,0.1l0.2-0.3l0.2-0.2l0.5,0.2l0.8-0.6l0-0.2h0.5l0.2-0.5l0.4-0.3
			l0.9-0.5h0.5l0.3-1l0.3-0.4l0.4-0.2l0.2-0.4l0.1-0.5l0.2,0.1l0.2,0l-0.2-0.2l0-0.2l0.2-0.5l0.3-0.4h0.3l-0.2-0.6l0.2-0.2l-0.1-0.5
			l0.1-2l0-1l-0.2-0.6v-0.5l-0.4-1l-0.5-0.9l0.2-0.2L330,56l-0.3,0.1l-0.1,0.2l-0.1-0.2l0.2-0.2l-0.5-0.2l-0.3-0.3l-0.2-0.5l0-0.2
			l-0.5-0.2l0-0.3l-0.5-0.1l-0.2-0.1l-0.1-0.2l0.1-0.2l-0.5,0l0-0.3l-0.4-0.5v0.5l-1.4-0.6l-0.4-0.3l0-0.5l-0.3,0l-0.4,0.3l-0.5-0.2
			l-0.4-0.3l0,0.4l-0.1,0.1l-0.2-0.1l-0.3-0.4L322.1,51.7z M313.4,54.4l0.2-0.1v-0.2h-0.2V54.4z M313.5,71.6l0.2,0.1h0.3l-0.1-0.5
			l-0.2-0.1l-0.1,0.3L313.5,71.6z M313.9,70.6l-0.1-0.2l-0.2-0.1l-0.1,0.2l0.2,0.2L313.9,70.6z M314.1,48h0.2v-0.2h-0.2V48z
			 M314.7,68.7v-0.5h-0.2l0.1,0.5L314.7,68.7z M314.6,71.2l0.2,0.1l0.2-0.1l0-0.2l-0.3,0L314.6,71.2z M315.1,72.3l0,0.3l0.1,0.2
			l0.3-0.1v-0.5L315.1,72.3z M315.1,73.6l0.3,0.1l0-0.2l-0.1-0.1L315.1,73.6z M315.7,49.2l0.3,0.2l0-0.2l-0.2-0.1L315.7,49.2z
			 M315.8,70.5l0.1,0.2h0.4l0.1-0.2l-0.2-0.1H316L315.8,70.5z M316.7,71.9v-0.2l-0.3,0l-0.1,0.2l0.1,0.1L316.7,71.9z M316.9,74.9
			h0.5l-0.1-0.2l-0.2-0.1L316.9,74.9z M317.4,48.1h0.3l-0.2-0.2L317.4,48.1z M317.9,71.4v-0.3l-0.2,0.1v0.2L317.9,71.4z M318.4,74.6
			l0.2-0.5l-0.2-0.4l-0.1,0.2v0.6L318.4,74.6z M318.6,73.4l0.2-0.2h-0.2L318.6,73.4z M319.4,49l0.2,0l0.1-0.2l-0.2-0.1L319.4,49z
			 M319.4,73.9l0.2,0.1l0.3-0.1l-0.1-0.5l-0.2-0.1l-0.2,0.4L319.4,73.9z M319.8,74.8l-0.1-0.3h-0.3v0.3l0.2,0.1L319.8,74.8z
			 M320,45.9h0.1l-0.1-0.2L320,45.9L320,45.9z M320.3,71.9l0.1-0.2l-0.2-0.2l-0.2,0.2L320.3,71.9z M320.3,49.7l0.3,0.1l-0.1-0.2
			L320.3,49.7z M320.4,48.5l0.4,0.2l0.2-0.1l-0.1-0.3l-0.2-0.1l-0.2,0.1L320.4,48.5z M320.6,74.3l0.2,0.2l0.2-0.1l-0.2-0.2
			L320.6,74.3z M320.6,73.4l0.4,0l0-0.2l-0.1-0.3l-0.2-0.1l-0.2,0.3V73.4z M321.1,47.6l0-0.5l-0.2,0l-0.1,0.2l0.1,0.2L321.1,47.6z
			 M321.5,46.6l-0.1-0.2h-0.2l0.1,0.2L321.5,46.6z M321.2,49.5l0.1,0.2l0.1,0.5l0.2,0.1l-0.1-0.3v-0.5l0.2-0.4l-0.3,0l-0.2,0.1
			L321.2,49.5z M321.6,48.1l0.2,0.1l0.3-0.3v-0.2l-0.5,0.1L321.6,48.1z M322.2,72.7v-0.3l-0.2-0.1l0,0.2L322.2,72.7z M322.1,75.5
			l0.2,0l0.3-0.3l0.1-0.2h-0.5l-0.1,0.2L322.1,75.5z M322.6,49.5l0.2-0.3l-0.2-0.1l-0.1,0.2L322.6,49.5z M322.7,50h0.2v-0.2h-0.2V50
			z M322.9,48.8l0.2,0l0-0.2l-0.2,0L322.9,48.8z M323.5,72l0-0.2l-0.2-0.1H323l0.1,0.2L323.5,72z M323.1,47.6l0.4,0.2l-0.1-0.6
			l-0.2-0.1l-0.1,0.2V47.6z M323.2,72.5h0.3v-0.2l-0.2-0.1l-0.1,0.2L323.2,72.5z M323.6,50.3h0.5l-0.4-0.4v0.2L323.6,50.3z
			 M323.6,71.4h0.1v-0.2h-0.1V71.4z M324.2,74.2V74l-0.2,0L324.2,74.2z M324.2,48.5l0.1-0.3H324v0.2L324.2,48.5z M324,72.8l0.1,0.2
			l0.2,0.1l0.2-0.5l-0.2,0l-0.1,0.2L324,72.8z M324.3,71.7h0.5v-0.5l-0.2,0l-0.2,0.1L324.3,71.7z M324.6,47.1l0.2,0.1l0.1-0.2
			l-0.2,0L324.6,47.1z M324.8,70.9l0.2-0.1l-0.2-0.2V70.9z M325.4,47.8L325.4,47.8l-0.1-0.2L325.4,47.8z M325.4,71.1h0.3l0.2,0.1
			l0.1-0.5l-0.2-0.1l-0.3,0.2L325.4,71.1z M325.7,72.5l0.1-0.2l-0.1-0.2l-0.2-0.1l-0.1,0.2l0.1,0.2L325.7,72.5z M325.7,51.5h0.2
			l-0.1-0.2L325.7,51.5L325.7,51.5z M325.9,50.6l0.2-0.2l0-0.3l-0.2,0.1l-0.1,0.2L325.9,50.6z M325.8,74.9l0.1,0.2h0.2v-0.2
			L325.8,74.9z M325.9,73.9l0.5-0.1l-0.1-0.2H326L325.9,73.9z M326.4,71.7l0.1,0.2h0.5v-0.2l-0.4-0.1L326.4,71.7z M326.9,52
			l-0.1-0.2l-0.3-0.1l0.1,0.2L326.9,52z M326.6,70.6l0.5,0.3l0.1-0.4v-0.3l-0.2-0.1l-0.2,0.1l-0.1,0.2L326.6,70.6z M327,76.9
			l0.1-0.3l-0.3-0.1v0.3L327,76.9z M327.1,74.6h0.2l0.1-0.1h-0.2L327.1,74.6z M327.3,73.3h0.2l0.2-0.1l0-0.2l-0.2,0l-0.2,0.1
			L327.3,73.3z M327.6,48.8l0.1-0.2v-0.3h-0.2l-0.1,0.3L327.6,48.8z M327.4,71.8h0.2v-0.2h-0.2V71.8z M327.6,51l0,0.2l0.2,0.2
			l0.2,0.1l-0.1-0.6l-0.2,0H327.6z M328.2,50.4v0.1l0.2,0.1l0.1-0.2l-0.1-0.1L328.2,50.4L328.2,50.4z M328.2,70.3l0.2,0l0.1-0.1
			l0-0.4h-0.3V70.3z M328.4,49.3l0.3,0.2l0.2-0.1l-0.1-0.2l-0.2,0L328.4,49.3z M328.9,73.1l0.2-0.2l-0.1-0.5l-0.2-0.2l-0.3,0v0.5
			l0.2,0.2L328.9,73.1z M328.7,48.4l0.3,0l0.1-0.2L329,48l-0.2,0.1L328.7,48.4z M329,52l-0.3,0l0.2,0.1L329,52z M329.2,51l0.1-0.2
			l-0.3-0.1l0,0.2L329.2,51z M329.7,69.1l-0.3,0l-0.1,0.2l0.1,0.2l0.2,0.1l0.2-0.1l0-0.3L329.7,69.1z M329.5,49.5l0.1-0.1l0-0.2
			l-0.2-0.1L329.5,49.5z M329.5,49.8v0.2l0.2,0.1l0.1-0.1v-0.2H329.5L329.5,49.8z M329.6,48.7l0,0.2h0.2l0.1-0.1v-0.2l-0.1-0.1
			L329.6,48.7L329.6,48.7z M330.1,67.6h0.2l0.1-0.2l-0.2-0.1L330.1,67.6z M330.6,70.2l0-0.2l-0.2-0.1l0,0.2L330.6,70.2z M330.6,50.3
			l-0.2,0.1l0.1,0.1L330.6,50.3z M331,68.8l-0.6-0.1l0,0.2l0.2,0.1l0.3-0.1L331,68.8z M330.8,54.4l-0.1-0.2l-0.2,0l0,0.3L330.8,54.4
			z M330.8,71.5l-0.2,0l0.1,0.2L330.8,71.5z M330.8,53l0.2-0.1l-0.1-0.2L330.8,53z M331.3,68l-0.1-0.2l-0.3,0l0,0.3H331.3z M331,52
			h0.2v-0.2H331L331,52z M331.5,51.1l0-0.2l-0.2-0.2l-0.2,0l0.2,0.4L331.5,51.1z M331.1,71.4l0.1,0.2h0.2l0.1-0.2l-0.1-0.1
			L331.1,71.4L331.1,71.4z M331.5,65.5l0.1,0.3l0.2-0.1l0.1-0.2l-0.2,0L331.5,65.5z M331.5,49.5l0,0.2l0.2,0l0.2-0.1l-0.1-0.2
			l-0.2,0L331.5,49.5z M331.6,68.1l0.3,0.5l0.2,0.1l0.1-0.2l0-0.5l-0.5,0.1L331.6,68.1z M332.2,52.7l0.1-0.2v-0.3l-0.5-0.1l0.2,0.5
			L332.2,52.7z M331.8,53.7l0.2,0.1l0.2,0l-0.1-0.2L331.8,53.7z M332,50.7l0.3,0.6l0,0.2l0.2-0.1v-0.6l-0.4-0.2L332,50.7z
			 M332.1,63.8h0.2l0.1-0.2l-0.2-0.1V63.8z M332.7,58l0-0.3l-0.2-0.1l0,0.3L332.7,58z M332.5,48.3h0.2l0.1-0.2l-0.3-0.1V48.3z
			 M332.5,53.5l0,0.2l0.3,0.2l0.1-0.2l-0.1-0.2l-0.2-0.1L332.5,53.5z M332.5,65.1l0.1,0.2v0.3l0.5-0.2l0.1-0.2l-0.1-0.2h-0.4
			L332.5,65.1z M333,53.2h0.2l0.1-0.2H333V53.2z M333,56.7h0.2l-0.1-0.2l-0.1-0.1V56.7z M333.2,64.3l0-0.2l-0.2-0.1l0,0.2
			L333.2,64.3z M333.5,52.2v-0.3l-0.4-0.1l0,0.2l0.2,0.1L333.5,52.2z M333.4,68h0.2v-0.1h-0.2V68z M333.6,54.7h0.2l0.1-0.2l-0.3,0
			V54.7z M333.7,57.1l0.1,0.3l0.2-0.1l0.1-0.2l-0.2-0.2L333.7,57.1z M334,52.8h0.3l-0.1-0.2h-0.2L334,52.8z M334.1,64.8l0.2-0.1
			l0.1-0.2l0-0.2l-0.2,0.1l-0.1,0.2L334.1,64.8z M334.2,56.4l0.2,0.1l0.1-0.2V56l-0.1-0.2l-0.3-0.1l0.1,0.5V56.4z M334.8,67.7l0-0.3
			l-0.2-0.4l-0.2,0.2v0.3l0.2,0.2L334.8,67.7z M334.5,62.6l0.2,0.1l0.2-0.2l-0.3-0.1L334.5,62.6z M334.6,55.4l0.2,0l0.1-0.2l-0.2,0
			L334.6,55.4z M334.7,54.2l0.3-0.1l-0.1-0.2l-0.2-0.1l-0.1,0.2L334.7,54.2z M335,51.6l-0.1-0.2l-0.2,0l0.1,0.2L335,51.6z
			 M335.1,49.8l-0.2-0.1l-0.1-0.1l0.2,0L335.1,49.8z M335.2,66.5l-0.1-0.2h-0.3l0.1,0.2L335.2,66.5z M334.9,61.4l0.2,0.2l0.1-0.4
			l-0.3-0.1V61.4z M335.1,65.5h0.2v-0.2h-0.2V65.5z M335.4,64.6l0.2-0.1l0.1-0.2v-0.3l-0.5-0.2l-0.1,0.2l0.2,0.4L335.4,64.6z
			 M335.4,56l0.2-0.1l-0.1-0.2L335.4,56z M335.9,67l0-0.3l-0.2-0.1l-0.1,0.2l0.1,0.2H335.9z M336,58.3h0.1l-0.1-0.2L336,58.3
			L336,58.3z M336.4,56.3l0.1,0.2l0.2-0.2H336.4z M336.6,63.7l0.3,0.2l-0.1-0.5l-0.2-0.1l-0.1,0.2L336.6,63.7z M337,58l0.2-0.1
			l0.1-0.3l-0.2-0.1l-0.1,0.2V58z M337.3,60.4h0.2l0.1-0.2l-0.2-0.1V60.4z"/>
	</g>
</g>
</svg>
