<?xml version="1.0" encoding="utf-8"?>
<!-- Generator: Adobe Illustrator 20.1.0, SVG Export Plug-In . SVG Version: 6.00 Build 0)  -->
<svg version="1.1" xmlns="http://www.w3.org/2000/svg" xmlns:xlink="http://www.w3.org/1999/xlink" x="0px" y="0px"
	 viewBox="0 0 80.4 73.7" style="enable-background:new 0 0 80.4 73.7;" xml:space="preserve">
<style type="text/css">
	.st0{clip-path:url(#SVGID_4_);fill:#040607;}
	.st1{fill:#FFFFFF;}
	.st2{clip-path:url(#SVGID_14_);}
	.st3{fill-rule:evenodd;clip-rule:evenodd;fill:#FFFFFF;}
	.st4{clip-path:url(#SVGID_16_);}
	.st5{clip-path:url(#SVGID_18_);}
	.st6{clip-path:url(#SVGID_20_);}
	.st7{clip-path:url(#SVGID_22_);}
	.st8{fill-rule:evenodd;clip-rule:evenodd;fill:#89C8C9;}
	.st9{fill:#89C8C9;}
	.st10{clip-path:url(#SVGID_24_);}
	.st11{clip-path:url(#SVGID_26_);fill:#FFDE37;}
	.st12{clip-path:url(#SVGID_26_);}
	.st13{fill-rule:evenodd;clip-rule:evenodd;fill:#FFDE37;}
	.st14{fill:#FFDE37;}
	.st15{clip-path:url(#SVGID_28_);}
	.st16{fill-rule:evenodd;clip-rule:evenodd;fill:#40342D;}
	.st17{fill:#40342D;}
	.st18{fill-rule:evenodd;clip-rule:evenodd;fill:#DEC937;}
	.st19{fill:#F9F6F7;}
	.st20{fill:#49392F;}
	.st21{fill-rule:evenodd;clip-rule:evenodd;fill:#F9F6F7;}
	.st22{fill:#333332;}
	.st23{fill:none;stroke:#40342D;stroke-miterlimit:10;}
</style>
<g id="Capa_1">
</g>
<g id="Capa_2">
	<path class="st1" d="M52.6,50l1.6,1.2l-0.4,0.7l-2,1.1l-1.6-0.5l-2.4-2l-0.1-1.6l-0.4-0.4l-1.6-0.1l-0.3-0.7l-0.9-1.1l-3.7-2.9
		l-1.4-2l0.7-1.7l-0.9-0.1l-0.5,0.7l-0.9-0.3l-1.4-1.6l-1.1,0.1l-0.1-1.7l-1.7-0.4l-0.8,0.1l0.5,1.7l-5.1,0.1l-2.2-0.5l-0.9,1.4
		l0.8,2.2l2.4,2.1l-0.9,1.2l-1.7,1.3l1.7,0.1l0.7,0.5l1.1-0.5l-0.8-1.3l0.3-0.8l2.4,2.1l0.8,0.3l0.3,0.8l1.1,1.3l2.1,1.3l0.7,2.2
		h0.9l0.8,0.4l0.5,0.7v0.8L37,54.5l-0.9-0.5l-0.5,0.4l0.5,0.7l1.4,0.1l0.4,0.8v0.8L37,58.1l-0.7,0.4l-0.9-0.4l-1.7,0.1v-0.8
		l-0.7-1.3l-1.8-0.7l-0.9,0.1l-0.8-1.3l-2.6-2.6l0.3-0.7l0.7-0.3L27.4,50l-1.1-1.2l-0.5,0.5v0.9L25,50.1l-1-1.1l0.5-0.5l0.1-0.7
		l-0.5-0.3h-0.9L23,46.6h-1.4l-4.2-4.1l-0.4-0.7v-1.1h1.7L18.4,40l-0.7-0.3L16,39.9l-0.3-0.5v-0.9l-0.8,0.1l-1.4-0.4l0.4-0.8
		l-1.6-1.4l0.4-0.8l1.1-1.2l-0.7-1.4l1.3-0.7h0.8l0.1-0.4l-0.4-0.7l9.1-8.9l2.6-2.9l1.2,0.3l0.3-0.5v-0.9l2-2l2.2-2.8l1.8-1.2
		l0.9-0.1l1.6,0.4l0.9,1.1l0.5,2.1l-0.7,2.2l-0.5,0.7l-2.5,1.6v0.7L29.8,25l-0.9,1.4l-0.8,0.1l-1.2,0.7L26.4,29l-1.4,0.1V30
		l-0.7,1.3l0.7,0.4l1.6,0.3l4.1,0.1l1,0.8l0.4,0.7l0.4-1.4l1.6-0.3l1.2,0.4l2.9-2.6l1.2,0.5l0.3-0.5v-1.4l6.8-6.8l1.4-0.9l1.1-1.2
		l0.4-0.8l1-0.1l0.7-0.5l2.4,0.7l1.2,0.9l0.3,1l-2.1,4.1L52,24.9L51.1,25l-0.7,1.4L47,29.9v1.1l0.9,1.2l3.2-0.3l7.4,0.3l0.3,1.4
		l0.5-0.7l-0.3-0.8l2.9-0.3l0.9,1.4l0.5-1.2h0.9l1,1.2l0.4-0.7v-0.5l1.8,0.1l0.7,0.3l1.8,2.2l-0.7,1.7v0.9l-2.5,1.4l-1.2-0.4
		l-1.6,0.4l-1.8-0.1l-0.7-0.3l-1.3,0.3l-5.8,0.1l-0.4-0.7l-3.2,0.5l-3.7-0.3l-0.9,2.1l2.6,1.6l0.3,0.5v0.8l0.5,0.4l1.3,0.4l0.7,1.3
		l0.1,0.9l1.2-0.3l1.6,2.6l-0.1,0.9L52.6,50z M58.4,35.7l-0.7,0.1l-0.3,0.5l0.4,0.4L58.4,35.7z M54.7,34l-0.9,1.4l0.7,0.3l0.7-1.2
		L54.7,34z M53.6,48.5L52.9,48h-0.8l0.5,1.7l0.7-0.3L53.6,48.5z M49,35.9l-0.7-0.1l-0.8,0.4V37l0.4,0.4l0.9-0.7L49,35.9z M48.2,46.2
		l-0.5,0.3l-0.1,0.7h0.7V46.2z M44.6,43.9l-1-0.3l0.4,0.7L44.6,43.9z M43.8,35.3l-0.1,1l0.4,0.5l0.4-0.5v-0.7L43.8,35.3z M44.4,28.2
		L43.7,28l-0.4,0.4l0.7,0.1L44.4,28.2z M43.8,40l-0.5-1.8l-0.8,0.1l-0.4,1.6l0.8,0.4L43.8,40z M42.4,42l-0.9-0.4l-0.3,0.7l0.7,0.1
		L42.4,42z M42.1,33l-1.1,0.3l-0.7,0.5l0.8,1.4l0.9,0.1l0.3-1.6L42.1,33z M39,33l-0.3-1.4l-0.4-0.3l-0.5,2.1l0.5,0.4v-0.7L39,33z
		 M38.7,36.5l-0.4-0.8L37,35.9v0.9l0.5,0.3l0.4-0.5L38.7,36.5z M34.4,33.3l-0.5,0.5l-0.1,0.8l0.7,0.4l0.3-0.9L34.4,33.3z M32.7,52.9
		h0.8l0.4-0.4v-0.8L32,50.8l-0.7,0.7l0.1,0.3l0.8,0.1L32.7,52.9z M32.1,16.4L31,16.5l0.3,0.8l0.5,0.5l0.3-0.7L32.1,16.4z M31.7,48.3
		L31,48.4l-0.3,0.9l0.8-0.4L31.7,48.3z M29.8,35.3l0.3,0.8l1.1,0.3l0.7-0.1l-1.1-0.9H29.8z M31.5,19.2l-0.8,0.4l-0.1,0.8l0.7,1.4
		l0.4-0.7V20L31.5,19.2z M28.1,34.5v0.9h1.2L29,34.7L28.1,34.5z M28.1,23.1l-0.1-1.4l-0.5-0.3l-0.7,0.8l-0.1,0.7l0.4,0.4L28.1,23.1z
		 M27.5,33.3l-0.7,0.4l0.5,0.5L27.5,33.3z M27.2,36.2l-0.7,0.3l-0.4,1.4l0.8-0.3l0.4-0.7L27.2,36.2z M25.7,25.3v2h0.9l0.1-0.9
		l-0.3-0.8L25.7,25.3z M24.7,37.1l-1.2-0.7L22,38.2l-0.3,0.9l0.8,0.3l0.3-0.7l1.2-1.2L24.7,37.1z M24.3,43.7h-0.5l0.3,0.5l0.4-0.3
		L24.3,43.7z M24.4,23.3l-0.9,0.1l0.3,0.7L24.4,23.3z M23.5,43.4l-1.2-0.8l-2.2-0.9l0.5,1.4l0.5,0.7l1.2,0.5l0.7-0.3L23.5,43.4z
		 M23.2,24.4h-0.5v0.4h0.5V24.4z M23,29v-1.6h-1.4v0.9l-0.7,2.1l0.4,0.4l0.9-1.6L23,29z M21.8,33.6L21.2,33l-0.8,0.1l-0.5,0.4
		L19.5,35l0.9,0.3l0.7-0.3l0.5-0.7L21.8,33.6z M19.5,38.8v-0.4l-0.4,0.3l0.3,0.4L19.5,38.8z M18,35.4l-1.2-0.8L16,34.5L15.7,35
		l-0.5,0.3l0.3,1.2l0.9-0.3l0.5,0.5l-0.8,0.1l0.3,0.5l1.3-1.1L18,35.4z M17.7,31.1l-0.9,0.1l-0.5,0.4L16,32.3H17l0.7-0.4V31.1z"/>
</g>
</svg>
