<?xml version="1.0" encoding="utf-8"?>
<!-- Generator: Adobe Illustrator 20.1.0, SVG Export Plug-In . SVG Version: 6.00 Build 0)  -->
<svg version="1.1" xmlns="http://www.w3.org/2000/svg" xmlns:xlink="http://www.w3.org/1999/xlink" x="0px" y="0px"
	 viewBox="0 0 80.4 73.7" style="enable-background:new 0 0 80.4 73.7;" xml:space="preserve">
<style type="text/css">
	.st0{clip-path:url(#SVGID_4_);fill:#040607;}
	.st1{fill:#FFFFFF;}
	.st2{clip-path:url(#SVGID_14_);}
	.st3{fill-rule:evenodd;clip-rule:evenodd;fill:#FFFFFF;}
	.st4{clip-path:url(#SVGID_16_);}
	.st5{clip-path:url(#SVGID_18_);}
	.st6{clip-path:url(#SVGID_20_);}
	.st7{clip-path:url(#SVGID_22_);}
	.st8{fill-rule:evenodd;clip-rule:evenodd;fill:#89C8C9;}
	.st9{fill:#89C8C9;}
	.st10{clip-path:url(#SVGID_24_);}
	.st11{clip-path:url(#SVGID_26_);fill:#FFDE37;}
	.st12{clip-path:url(#SVGID_26_);}
	.st13{fill-rule:evenodd;clip-rule:evenodd;fill:#FFDE37;}
	.st14{fill:#FFDE37;}
	.st15{clip-path:url(#SVGID_28_);}
	.st16{fill-rule:evenodd;clip-rule:evenodd;fill:#40342D;}
	.st17{fill:#40342D;}
	.st18{fill-rule:evenodd;clip-rule:evenodd;fill:#DEC937;}
	.st19{fill:#F9F6F7;}
	.st20{fill:#49392F;}
	.st21{fill-rule:evenodd;clip-rule:evenodd;fill:#F9F6F7;}
	.st22{fill:#333332;}
	.st23{fill:none;stroke:#40342D;stroke-miterlimit:10;}
</style>
<g id="Capa_1">
</g>
<g id="Capa_2">
	<path class="st1" d="M30.2,20.3l-1.6-1.2l0.4-0.7l2-1.1l1.6,0.5l2.4,2l0.1,1.6l0.4,0.4L37,22l0.3,0.7l0.9,1.1l3.7,2.9l1.4,2
		l-0.7,1.7l0.9,0.1l0.5-0.7l0.9,0.3l1.4,1.6l1.1-0.1l0.1,1.7l1.7,0.4l0.8-0.1l-0.5-1.7l5.1-0.1l2.2,0.5l0.9-1.4l-0.8-2.2l-2.4-2.1
		l0.9-1.2l1.7-1.3l-1.7-0.1L55,23.2L54,23.7l0.8,1.3l-0.3,0.8l-2.4-2.1l-0.8-0.3l-0.3-0.8L50,21.3L47.9,20l-0.7-2.2h-0.9l-0.8-0.4
		l-0.5-0.7V16l0.8-0.1l0.9,0.5l0.5-0.4l-0.5-0.7l-1.4-0.1l-0.4-0.8v-0.8l0.9-1.4l0.7-0.4l0.9,0.4l1.7-0.1v0.8l0.7,1.3l1.8,0.7
		l0.9-0.1l0.8,1.3l2.6,2.6l-0.3,0.7L55,19.5l0.4,0.8l1.1,1.2L57,21V20l0.8,0.1l1,1.1l-0.5,0.5l-0.1,0.7l0.5,0.3h0.9l0.3,1.1h1.4
		l4.2,4.1l0.4,0.7v1.1h-1.7l0.3,0.8l0.7,0.3l1.7-0.1l0.3,0.5v0.9l0.8-0.1l1.4,0.4L69,32.9l1.6,1.4l-0.4,0.8l-1.1,1.2l0.7,1.4
		l-1.3,0.7h-0.8l-0.1,0.4l0.4,0.7l-9.1,8.9l-2.6,2.9L55,51l-0.3,0.5v0.9l-2,2l-2.2,2.8l-1.8,1.2l-0.9,0.1l-1.6-0.4l-0.9-1.1L44.8,55
		l0.7-2.2l0.5-0.7l2.5-1.6v-0.7l4.6-4.6l0.9-1.4l0.8-0.1L56,43l0.5-1.7l1.4-0.1v-0.9l0.7-1.3l-0.7-0.4l-1.6-0.3l-4.1-0.1l-1-0.8
		l-0.4-0.7l-0.4,1.4l-1.6,0.3L47.7,38l-2.9,2.6l-1.2-0.5l-0.3,0.5v1.4l-6.8,6.8l-1.4,0.9L34,51l-0.4,0.8l-1,0.1l-0.7,0.5l-2.4-0.7
		l-1.2-0.9l-0.3-1l2.1-4.1l0.7-0.4l0.9-0.1l0.7-1.4l3.4-3.4v-1.1l-0.9-1.2l-3.2,0.3l-7.4-0.3l-0.3-1.4l-0.5,0.7l0.3,0.8L21,38.4
		L20.1,37l-0.5,1.2h-0.9l-1-1.2l-0.4,0.7v0.5L15.4,38l-0.7-0.3l-1.8-2.2l0.7-1.7v-0.9l2.5-1.4l1.2,0.4l1.6-0.4l1.8,0.1l0.7,0.3
		l1.3-0.3l5.8-0.1l0.4,0.7l3.2-0.5l3.7,0.3l0.9-2.1l-2.6-1.6l-0.3-0.5v-0.8l-0.5-0.4l-1.3-0.4l-0.7-1.3L31,23.8l-1.2,0.3l-1.6-2.6
		l0.1-0.9L30.2,20.3z M24.4,34.6l0.7-0.1l0.3-0.5L25,33.6L24.4,34.6z M28.1,36.3l0.9-1.4l-0.7-0.3l-0.7,1.2L28.1,36.3z M29.3,21.7
		l0.7,0.5h0.8l-0.5-1.7l-0.7,0.3L29.3,21.7z M33.9,34.4l0.7,0.1l0.8-0.4v-0.8l-0.4-0.4L34,33.6L33.9,34.4z M34.7,24.1l0.5-0.3
		l0.1-0.7h-0.7V24.1z M38.2,26.3l1,0.3l-0.4-0.7L38.2,26.3z M39,35l0.1-1l-0.4-0.5L38.4,34v0.7L39,35z M38.5,42.1l0.7,0.1l0.4-0.4
		l-0.7-0.1L38.5,42.1z M39,30.3l0.5,1.8l0.8-0.1l0.4-1.6L39.9,30L39,30.3z M40.5,28.3l0.9,0.4l0.3-0.7L41,27.9L40.5,28.3z
		 M40.7,37.2l1.1-0.3l0.7-0.5L41.6,35l-0.9-0.1l-0.3,1.6L40.7,37.2z M43.9,37.2l0.3,1.4l0.4,0.3l0.5-2.1l-0.5-0.4v0.7L43.9,37.2z
		 M44.1,33.8l0.4,0.8l1.3-0.3v-0.9l-0.5-0.3l-0.4,0.5L44.1,33.8z M48.5,37l0.5-0.5l0.1-0.8l-0.7-0.4l-0.3,0.9L48.5,37z M50.2,17.4
		h-0.8L49,17.8v0.8l1.8,0.9l0.7-0.7l-0.1-0.3l-0.8-0.1L50.2,17.4z M50.7,53.9l1.2-0.1L51.6,53l-0.5-0.5l-0.3,0.7L50.7,53.9z
		 M51.1,22l0.8-0.1l0.3-0.9l-0.8,0.4L51.1,22z M53.1,35l-0.3-0.8L51.8,34l-0.7,0.1l1.1,0.9H53.1z M51.4,51l0.8-0.4l0.1-0.8l-0.7-1.4
		l-0.4,0.7v1.2L51.4,51z M54.8,35.8v-0.9h-1.2l0.3,0.7L54.8,35.8z M54.8,47.2l0.1,1.4l0.5,0.3l0.7-0.8l0.1-0.7l-0.4-0.4L54.8,47.2z
		 M55.3,37l0.7-0.4l-0.5-0.5L55.3,37z M55.7,34.1l0.7-0.3l0.4-1.4L56,32.6l-0.4,0.7L55.7,34.1z M57.1,45v-2h-0.9l-0.1,0.9l0.3,0.8
		L57.1,45z M58.2,33.2l1.2,0.7l1.4-1.7l0.3-0.9l-0.8-0.3L60,31.6l-1.2,1.2L58.2,33.2z M58.6,26.6h0.5l-0.3-0.5l-0.4,0.3L58.6,26.6z
		 M58.5,47l0.9-0.1l-0.3-0.7L58.5,47z M59.4,26.9l1.2,0.8l2.2,0.9l-0.5-1.4l-0.5-0.7l-1.2-0.5l-0.7,0.3L59.4,26.9z M59.6,45.9h0.5
		v-0.4h-0.5V45.9z M59.9,41.3v1.6h1.4V42l0.7-2.1l-0.4-0.4l-0.9,1.6L59.9,41.3z M61.1,36.7l0.5,0.5l0.8-0.1l0.5-0.4l0.4-1.4L62.4,35
		l-0.7,0.3l-0.5,0.7L61.1,36.7z M63.3,31.5v0.4l0.4-0.3l-0.3-0.4L63.3,31.5z M64.9,34.9l1.2,0.8l0.8,0.1l0.3-0.5l0.5-0.3l-0.3-1.2
		l-0.9,0.3l-0.5-0.5l0.8-0.1l-0.3-0.5L65.2,34L64.9,34.9z M65.2,39.2l0.9-0.1l0.5-0.4l0.3-0.7h-1.1l-0.7,0.4V39.2z"/>
</g>
</svg>
