<?xml version="1.0" encoding="utf-8"?>
<!-- Generator: Adobe Illustrator 16.0.0, SVG Export Plug-In . SVG Version: 6.00 Build 0)  -->
<!DOCTYPE svg PUBLIC "-//W3C//DTD SVG 1.1//EN" "http://www.w3.org/Graphics/SVG/1.1/DTD/svg11.dtd" [
	<!ENTITY ns_flows "http://ns.adobe.com/Flows/1.0/">
	<!ENTITY ns_extend "http://ns.adobe.com/Extensibility/1.0/">
	<!ENTITY ns_ai "http://ns.adobe.com/AdobeIllustrator/10.0/">
	<!ENTITY ns_graphs "http://ns.adobe.com/Graphs/1.0/">
]>
<svg version="1.1" id="Capa_1" xmlns:x="&ns_extend;" xmlns:i="&ns_ai;" xmlns:graph="&ns_graphs;"
	 xmlns="http://www.w3.org/2000/svg" xmlns:xlink="http://www.w3.org/1999/xlink" xmlns:a="http://ns.adobe.com/AdobeSVGViewerExtensions/3.0/"
	 x="0px" y="0px" width="640px" height="49.566px" viewBox="0 0 640 49.566" enable-background="new 0 0 640 49.566"
	 xml:space="preserve">
<path fill-rule="evenodd" clip-rule="evenodd" fill="#ECD450" d="M694.627,0.19l-0.229,0.189c0.512,0.294,1.49,0.393,1.374,0.945
	c-7.729-0.488-17.239-0.481-22.456-0.567l0.229,0.283l-0.688-0.094c-0.021,0.241-0.583,0.263-0.458,0.568
	c-0.574-0.077-0.936-0.244-0.916-0.568l-0.687,0.094l0.226-0.283c-14.943-0.141-34.034,0.397-49.947,0.757
	c-4.169,0.093-7.708,0.024-11.457,0.378c-0.073,0.222,0.079,0.537-0.459,0.568c-0.784-0.178-0.923-0.772-1.833-0.378
	c-1.285-0.082,1.146,0.704-0.457,0.756c-0.188-0.364-1.775-0.15-1.376-0.756c-4.196,0.569-8.258,0.166-11.913,0.756
	c0.532,0.031,0.498,0.299,0.459,0.567c-2.383-0.237-4.136,1.196-5.042,0.379v-0.19L588.309,3.5l0.688-0.095
	c0.076-0.41-1.627-0.085-2.29-0.189c0.778,1.205-2.203,0.855-3.669,1.136V3.405h-2.294c0.244,0.483,0.613,0.661-0.456,0.947h-1.833
	l-0.685-0.095l-0.69-0.094c-3.42,0.796-6.648,1.333-10.998,1.324c-0.71,0.671,1.557,0.114,1.375,0.567
	c-1.343,0.53-3.275-0.542-2.293-0.379c-1.289-0.214-2.98,0.219-3.662-0.567c0.513-0.04,0.713-0.21,0.914-0.379
	c-1.146,0.241-1.435-0.096-1.832,0.19l0.228,0.283l-0.685,0.095c-3.073,1.077-8.102-0.139-9.623,0.947
	c-1.605-0.441-5.571-0.453-6.875,0c-2.284-0.972-4.923-0.028-7.334-0.947c-0.221,0.224-0.487,0.43-0.916,0.568
	c-8.263-0.128-16.739-0.764-24.743-0.946c-2.834-0.065-6.838-0.177-9.166,0c-4.764,0.359-9.221-0.152-13.292-0.378
	c-1.049,0.818-2.592-0.034-3.207,0c-0.206,0.01-0.674,0.327-1.375,0.378c-2.454,0.179-4.806-0.718-8.248-0.378l-0.23,0.283
	l-0.229-0.283c-0.913,0.001-0.581,0.515-1.831,0.378c-3.793-1.215-8.708-0.378-13.289-0.378c-7.906,0-15.368-0.441-22.457-0.567
	c-6.386-0.116-13.112,0.215-18.787,0.378c-2.187,0.063-6.348-0.106-8.707-0.568c-9.128,1.081-16.188-0.463-27.956,0.568
	c0.621,0.458,0.916,0.117,1.375,0.377c-0.553,0.041-0.282,0.211,0,0.379c-0.652-0.076-0.772-0.228-1.375,0
	c0.853-0.336-0.198-0.553-0.457-0.945c-1.752-0.327-2.905,0.524-4.583-0.189c-4.274,1.132-10.188-0.332-14.665,0.945l0.688,0.221
	l-0.229,0.347c1.611,0.318-1.151,0.59-0.915,0l-0.23-0.285l0.23-0.283c-12.868-0.093-35.634,1.368-49.951,1.892
	c-0.101-0.212-0.512-0.296-0.915-0.378v0.189h-0.464c-8.124,0.294-14.952,1.584-24.284,0.756c-1.4,0.412-2.588,0.351-4.124,0.378
	c-7.297,0.137-16.608,0.002-24.289,0.379c-2.925,0.142-4.824,0.441-6.416,0.567c-2.197,0.174-3.471,0.296-4.583,0.378
	c-0.666,0.05-0.98-0.19-1.374-0.188c-1.461,0.004-2.5,0.664-3.666,0.756c0.032-0.002-0.599-0.387-0.916-0.378
	c-1.548,0.047-3.713,0.746-5.041,0.378c-0.251-0.336-0.238-0.785-0.915-0.946H234.3V8.514c-0.459,0-0.543,0.152-0.918,0.188
	c-0.446-0.257-1.219-0.378-1.832-0.567c-1.421,0.701-4.07-0.197-5.953,0c0.245,0.668-0.393,0.973-1.379,1.135l0.23,0.189l0.23,0.189
	c0.841,0.559,5.378,0.12,6.416,0.189c0.075,1.044-7.218,0.679-9.165,1.514c-2.735-0.806-5.896,0.858-7.792,0
	c0.006-0.25,0.803-0.172,0.917-0.379l-0.229-0.283l0.229-0.284c-2.613-0.24-4.842-0.279-8.707-0.568l-0.69,0.096l-0.225-0.285
	c-1.262,0.193-1.406,1.048-2.752,1.135c-0.472,0.032-1.67-0.657-2.289-0.758c-2.212-0.352-5.865,0.018-7.333-0.566
	c-0.802,0.176-2.461-0.005-2.291,0.566c-3.764,0.159-5.359-0.686-4.125-2.08c0.539-0.03,1.3,0.033,1.371-0.189l-0.685-0.093
	l0.23-0.285c-0.852-0.143-5.376-0.592-6.877-0.378l0.23,0.347l-0.685,0.22c3.994,0.87-0.073,3.895-4.128,2.458
	c-0.428,0.486-2.896-0.174-5.038,0c-0.32-0.755-2.925-1.558-3.669-1.511c0.356,0.041,0.534,0.157,0.458,0.378
	c-5.119-0.23-8.135,0.692-10.54,0.756c0.425,0.126-0.792,1.176-1.374,1.514l0.622,0.229l-0.163,0.338
	c0.357-0.042,0.906-0.005,0.915-0.19c0.539,0.283,1.907,0.224,1.834,0.757l0.69,0.222l-0.231,0.346
	c0.631-0.009,1.007,0.09,1.375,0.189c0.944-0.205-0.647-0.771,0.457-1.324c1.797-0.109,1.17,0.78,2.292,0.945l0.538-0.282
	l0.837,0.094c0.267-0.393,0.963-0.61,1.373-0.947c2.848,0.198,3.419,1.063,5.957,0.379l-0.226-0.189l-0.228-0.19
	c-0.122-0.265-1.006-0.216-1.379-0.377c0.006-0.251,0.804-0.173,0.917-0.379c0.909,0.003,0.584,0.517,1.833,0.379
	c0-0.105,0.372-0.215,0.461,0l0.685,0.22l-0.23,0.347c3.653,0.774,6.895-0.459,9.627,0.757c0.657-0.106,1.119-0.296,1.372-0.568
	l-0.687-0.093l0.23-0.286h-0.916v-0.567c2.792,0.236,3.259-0.098,5.5,0.19c-0.029,0.242-0.589,0.261-0.462,0.567l0.688,0.096
	l-0.227,0.282c0.818,0.352,3.341-0.269,4.581,0.379c1.725-0.321,2.591-0.858,3.667-0.19c1.122-0.247,2.445,0.046,3.665,0
	c0.917-0.032,0.953-0.337,1.374-0.378c2.521-0.24,8.411,0.234,8.707-0.946c0.905,0.32,3.378-0.006,2.75,0.946
	c-4.619,0.07-9.631,1.219-13.289,0.756c-2.752,0.983-7.248,0.618-10.54,1.514c-0.487,0.134-0.844,0.482-1.377,0.567
	c-1.985,0.324-5.087,0.121-6.416,0.19c-2.462,0.131-4.605,1.001-6.87,0.378c-0.656,0.047-0.775,0.313-1.379,0.378
	c-1.042,0.054-1.721-0.044-1.833-0.378c-0.626,0.191,0.197,0.313-0.915,0.569c-1.4,0.138-1.351-0.327-2.751-0.191L169,15.987
	l-0.688-0.095c-0.881,0.787-3.642-0.036-4.124,0.188c-1.075-0.002,0.165-0.515,0.916-0.379c-1.401-1.629-7.397-0.669-10.539-0.567
	c-2.862,0.094-6.045-0.51-9.169-0.568c-5.322-0.093-10.687,0.119-15.117-0.378c-0.261-0.385-1.383-0.371-0.462-0.756
	c-1.293,0.156-1.184-0.266-2.287-0.19c0.487-0.714,2.712,0.008,3.203-0.378l-0.229-0.283l0.69-0.095
	c-0.11-0.271-0.759-0.319-0.916-0.568l-0.689,0.095l-0.689-0.095c-1.299,0.198-1.909,0.198-3.203,0
	c-0.405-0.606,1.183-0.392,1.371-0.756c0.865,0.141,0.316,0.564,1.377,0.189l0.687-0.094l0.686,0.094
	c0.186-0.237,0.591-0.385,1.378-0.379l-0.23-0.283l0.685-0.094c0.042-0.299,1.17-0.149,0.917-0.57h-0.917V9.648
	c-1.544-0.384-6.072,0.521-6.414-0.756c0.576,0.041,0.938,0.295,0.916-0.19l-0.687-0.221l0.232-0.346
	c-5.42-0.558-10.93-0.276-14.211-0.946c0.515-0.394,0.496-0.4-0.457-0.189l-0.227,0.283L110.57,7
	c-0.619,0.321-5.11,0.019-4.125,0.378c-1.206,0.29-0.88-0.416-1.83-0.567c-1.867-0.296-5.655,0.809-5.957-0.567
	c1.825-0.004,3.226-0.182,4.123-0.569c2.532,0.395,6.126,0.964,6.873,0.569c0.252,0,0.522,0.152,0,0.189
	c-0.024,0.354,0.354,0.4,0.916,0.189l0.232-0.283l0.227,0.283c0.806-0.471,0.758-0.276,1.832,0c0.265-0.332-0.552-1.112,0.46-1.135
	l-0.231-0.285l0.231-0.283c-0.557-0.04-0.282-0.21,0-0.378c-1.393-0.056-3.129,0.029-3.208-0.567
	c-2.485,0.188-2.745,0.901-4.123,1.134c-2.104-0.393-0.716-0.338-2.75-0.756c-0.885,0.077-0.362,0.732-1.833,0.567
	c-1.383-0.373-2.578-0.257-2.749-0.756c-2.983-0.23-7.397,0.489-6.415-0.189c-1.296,0.189-1.15,0.276-1.834,0.378
	c1.078,0.052-0.044,0.704-0.462,0.756l0.231,0.283l-0.687,0.096c0.116,0.264,1.003,0.216,1.372,0.378l0.461-0.095l0.454,0.095
	c0-0.19,0.376-0.226,0.464-0.378c0.786-0.076,1.172,0.28,1.369,0c0.514,0.172,0.146,0.35,0.464,0.946
	c-1.174,0.144-2.107,0.278-2.751-0.189l-0.688,0.095l0.227-0.285c-0.866,0.083-2.761-0.258-2.288,0.379
	c-1.245-0.182-3.16-0.084-2.75-0.946c1.104,0.077,0.997-0.345,2.29-0.19V4.919h0.915c-0.387-0.701-2.743-0.8-4.12-0.567
	c-1.019-0.44-0.408-0.507-0.918-0.947c1.726-0.216,2.087,0.181,2.75-0.378c-1.641-0.714-3.52-1.108-5.96-0.567
	c-0.021,0.742,0.965,0.585,1.378,0.756c-0.769,0.882-2.75,1.262-3.669,2.081c1.136-0.027,1.902,0.098,2.291,0.378
	c-0.651,0.047-0.772,0.312-1.375,0.379c0.537-0.791-3.185,0.367-3.207-0.567c0-0.191,0.37-0.226,0.457-0.379l-0.688-0.095
	l-0.228-0.284h-1.374c-0.055-0.856-1.935-1.269-4.125-0.945c-0.335,0.049-0.485,0.486-0.916,0.568c0.226-0.044-1.445-0.396-1.374,0
	c0.642,0.049,0.523,0.413,0.916,0.567c-2.082,0.401-5.779,0.707-7.332,0.189l-0.458,0.094L60.62,5.108
	c-1.064-0.212-1.227,0.04-2.289-0.379l-0.46-0.094l-0.457-0.094c-0.49,0.88-1.438,0.674-2.292,0.946
	c0.213,0.718,0.25,0.433,1.832,1.135c-1.361-0.011-2.321,0.557-3.211,0.189l-0.454,0.094l-0.463-0.094
	c-1.563,1.048-3.735-0.314-4.581-0.757c-0.516,1.047-2.555,0.619-3.666,1.135l0.689,0.221l-0.227,0.346
	c0.967,0.252,1.354-0.093,2.749,0.189c0.077,0.536-1.551,0.37-0.917,1.135l0.687-0.092L47.329,9.27
	c0.585,0.264,2.243,0.081,2.295,0.567c-0.264,0.172-1.892,0.698-0.914,0.758c0.261-0.396,1.726,0.272,2.746,0.188
	c0.447-0.194,0.902-0.383,1.37-0.567l0.691-0.094c0,0,0.688-0.097,0.226-0.663c1.253,0.018,0.923-0.314,1.833,0
	c-0.021,0.243-0.584,0.262-0.454,0.566h-0.916l0.227,0.349l-0.689,0.221c0.859,0.798,2.353,0.364,4.128,0.188
	c0.601,1.71,4.324,0.058,7.333,0.756c0.804-0.677,3.594-0.299,4.582,0c-0.025-0.324,0.354-0.483,0.915-0.567
	c-1.081,0.653,0.571,0.126,1.375,0l-0.227-0.283l0.227-0.284c-0.327-0.578,0.468-0.69,0.458-1.135
	c1.458,0.029,2.019,0.429,3.667,0.378c0.079,0.256-2.651,0.247-0.918,0.568c-0.388,0.179-1.125,0.125-2.749,0.189l0.231,0.346
	l-0.689,0.221c0.012,0.318,0.838,1.256,1.832,0.946c0.143-0.751,7.562-0.404,8.708-0.379l-0.228-0.346l0.689-0.221
	c-0.072-0.222,0.074-0.535-0.462-0.567c-0.138-0.498,1.778-0.149,1.377-0.757c1.308,0.028,0.839,0.789,0.918,1.324l0.621,0.23
	l-0.168,0.337c2.208-0.705,2.035,0.128,1.379,0c1.325,0.256,1.974-0.083,3.204,0.568c0.453-0.255,1.545-0.244,1.832-0.568v0.379
	c3.71-0.524,5.24,0.272,7.794-0.189l-0.23-0.283l0.686-0.095c-0.447-0.256-1.219-0.379-1.833-0.568h-0.456v-0.188
	c-1.292,0.429-2.32,0.359-3.209-0.19c0.042-0.298,1.169-0.147,0.916-0.568c0.981,0.291,2.496,0.131,2.749,0
	c0.862,0.046-0.259,0.311,0.463,0.379h0.454v0.189c0.516-0.04,0.714-0.21,0.916-0.38c0.947,0.242,2.327,0.304,2.294,0.947
	l0.838-0.094l0.537,0.284c0.862-0.545,2.991-1.076,4.126-0.946c0.101,0.011-0.455,0.379-0.46,0.379
	c2.892-0.036,6.647,0.49,5.042-0.947c1.685-0.401,2.28-0.194,3.208,0c0.074,0.535-1.375,0.441-1.375,0.947
	c0.901-0.057,0.909,0.255,1.375,0.377c1.214-0.891,5.739-0.305,4.582,0.567c-1.073,0.064-1.895,0.229-2.75,0.379l0.228,0.285
	l-0.686-0.096c-0.182,0.271-0.549,0.32,0,0.567l0.686-0.093l-0.228,0.283c2.038,0.394,2.423-0.272,3.665,0v-0.568
	c0.576,0.043,0.938,0.295,0.916-0.189c1.643-0.047,1.678,0.569,3.209,0.567c-0.996,1.254-7.043,1.079-8.707,0.568l-0.228,0.284
	l-0.231-0.284c-1.886,0.68-5.814,0.205-8.246,0c-0.463,0.252-0.433,0.705-1.378,0.758c-1.293-0.533-2.781-0.745-4.581-0.758
	c-2.212-0.016-6.381,0.145-6.874,0c-0.331-0.096,0.879-0.353,0-0.378c-0.013,0-0.583,0.37-0.914,0.378
	c-2.56,0.059-6.316-0.495-9.165,0.19c-2.98,0.031-2.508-1.362-5.96-1.136c0.354,0.965-1.517,0.088-2.293,0.757
	c-2.687-1.561-10.741,0.233-13.287-0.379c0.482-0.009,0.36-0.241-0.46-0.188l-0.227,0.284l-0.23-0.284
	c-1.704-0.664-4.392,0.298-6.415-0.379c-0.505,0.491-2.857-0.115-4.128,0.567c-1.487-0.698-3.117,0.052-5.037,0.19
	c-0.05-0.213,0.663-0.293,0-0.378c-1.864,0.592-8.287-0.493-10.542,0.567c-0.094-0.211-0.506-0.292-0.918-0.379
	c0.217,0.594-1.148,0.534-1.833,0.758c1.357-0.691-2.373,0.385-4.581,0c0.131-0.431-0.108-0.711-0.918-0.758
	c-0.338,0.428-2.567,0.076-3.664,0.19c-0.303,0.506-1.379,0.693-2.292,0.946c1.157-0.529-1.454-0.353-1.833-0.188
	c0.705,0.073,0.069,0.227-0.459,0c-0.403,0.606,1.509,0.257,1.377,0.754c-0.957,0.112-1.311,0.47-2.751,0.379
	c0.587-0.445-0.062-0.351,0.458-0.945c-2.583-0.577-2.735,0.056-5.956,0c-0.488,0.897-3.301,2.431-6.419,2.27
	c0-0.189,0.374-0.225,0.461-0.379c-0.789-0.01-1.176,0.147-1.377,0.379l0.231,0.285l-0.686,0.094c0.1,0.149,0.382,0.22,0.916,0.19
	c-0.461,0.525-1.85,0.242-2.748,0.19H2.877v-0.19c-1.962,0.321-3.937,0.643-6.869,0.568c-1.775-1.637-4.962,0.396-6.878-0.191
	c-0.179,0.494-1.368,0.572-1.374,1.136c2.749,0.092,4.499,0.06,6.419-0.378c1.663,0.725,6.368,0.137,8.702,0
	c-0.252,0-0.518-0.154,0-0.189c0.49,0.867-1.955,1.509-2.288,1.892c-0.304-0.256-0.982-0.355-1.832-0.38l-0.232,0.283l-0.684-0.092
	c-0.259,0.272-0.715,0.461-1.38,0.567c-0.22-0.223-0.487-0.429-0.915-0.567c-0.776,0.724-1.894-0.193-2.748-0.191
	c-0.059,0-0.767,0.343-1.373,0.38c-2.955,0.175-5.714-0.508-9.626-0.38c-0.036,0.708,1.978,0.574,1.375,1.515
	c-3.958-0.894-10.589,0.826-15.121-0.568c-0.536,0.347-1.199,0.64-1.833,0.946c-1.996-0.392-3.428,0.115-5.5,0.189
	c-5.188,0.181-14.187-0.078-20.624,0.378c-6.523,0.461-12.708,0.013-18.79,0.757l0.691,0.221l-0.229,0.347
	c6.277,0.194,12.307-0.666,19.702,0.379c-0.354,0.041-0.528,0.158-0.456,0.378l0.621,0.229l-0.165,0.337
	c1.895-0.351,1.36,0.143,1.835,0.379c3.278,0.154,5.587,0.014,11.001-0.189c0.02,0.241,0.584,0.262,0.455,0.568
	c-2.065,0.184-4.651,0.499-7.788,0.568c-0.733,0.017-1.533-0.187-2.294-0.19c-0.685-0.004-1.552,0.346-2.291,0.377
	c-5.316,0.236-10.806,0.521-15.12,0.57c0.352,0.041,0.9,0.006,0.915,0.188c-3.866-0.134-6.011,0.53-8.249,0.565l0.228,0.349
	l-0.689,0.222c4.284,0.54,10.214,0.713,13.75,0.944c3.223,0.21,7.01-0.199,10.082,0c0.783,0.051,1.64,0.493,2.291,0.567
	c1.608,0.186,3.19-0.11,4.583,0c0.795,0.063,1.117,0.355,1.829,0.379c0.688,0.024,1.651-0.19,2.298-0.189
	c5.093,0.012,9.597,0.704,13.287,0.757c-0.256,0-0.523,0.153,0,0.188l0.841-0.094l0.534,0.283c1.249,0.139,0.923-0.375,1.833-0.378
	l0.685-0.094l-0.225,0.282c2.225,0.462-1.312,0.109,0.915,0.568l0.689-0.095l-0.23,0.284c1.435-0.213,1.213,0.055,2.29-0.189
	l0.228-0.188l0.232,0.188c0.652-0.072,0.77-0.226,1.374,0v-0.568c-0.429,0.117-1.692,0.441-1.374-0.188
	c1.622-0.1,1.204,0.453,2.748,0.757c-0.512,0.393-0.494,0.401,0.459,0.189c0.624,0.335-1.668,0.496-2.293,0.566l-0.685,0.096
	l0.228-0.285c-1.547,0.289-2.039,0.402-3.666,0v0.189h-0.459c-0.534-0.156-1.226-0.248-2.29-0.189
	c0.106-0.355-0.515-0.416-0.459-0.755l-0.84,0.094l-0.535-0.284c-1.264-0.516-0.428,0.277-1.373,0.379v0.189h-0.461
	c0.028,0.244,0.589,0.263,0.461,0.566c-0.461,0-0.55,0.155-0.917,0.189c-0.614-0.189-1.386-0.311-1.833-0.568
	c-0.526-0.594,0.719-0.459,0.915-0.756c-1.976,0.258-1.737-0.021-4.582,0c-1.005,0.469-1.212,1.268-3.209,1.324
	c-0.182-0.325,0.68-0.484,0-0.568c-1.816,0.135-0.132,0.228-2.288,0.379c0.374-0.533-0.651-0.49-0.463-0.944
	c-0.796,0.015-1.421-0.042-1.835-0.19c-0.229,0.932-1.674,0.79-2.284,1.893c0.353,0.041,0.529,0.158,0.455,0.377
	c4.799-0.557,5.959,1.849,11.458,0.568c-0.13,0.432,0.109,0.711,0.915,0.758c0.537-0.735,1.2-0.053,1.833,0.189
	c0.299-0.255,0.98-0.354,1.835-0.38c3.354,0.883,5.5-0.478,8.248,0.946c-4.093,1.193-15.76-0.076-18.33,2.082l0.227,0.189
	l-0.227,0.189c0.278,0.01,0.541,0.027,0.456,0.189l0.687-0.096l0.229,0.285c0.281,0.009,0.543,0.027,0.46,0.189
	c0.28-0.011,0.542-0.029,0.455-0.189c0.803,0.355,1.77-0.26,0.918,0.378c-0.278-0.013-0.543-0.03-0.454-0.188
	c-0.284,0.01-0.546,0.027-0.464,0.188c-0.456,0-0.539-0.153-0.915-0.188l-0.229,0.281l-0.687-0.093
	c-1.207-0.242-0.968,0.196-2.288,0.188c-0.199-0.732-0.505-0.675,0.455-1.135c-2.312,0.025,0.673-0.959-1.373-0.947
	c-0.194,0.644-6.19-0.576-8.251,0.381c0.487-0.01,1.166,0.088,0.459,0.188c-1.594-0.058,0.039-0.514-0.917-0.569
	c-1.556,0.199-3.922-0.172-5.041,0.381v0.188h-0.458c0.275,0.39,0.708,0.716,2.29,0.567l-0.226-0.285l0.686,0.096
	c0.807,0.391,1.421,0.165,1.833,0.379c-0.134,0.123-0.014,0.54,0.916,0.756h0.458v0.189c1.065-0.501,1.227,0.503,2.291,0
	c-0.646,0.631,1.53,0.628,1.832,1.135c0.079-0.221,0.727-0.205,1.378-0.189l-0.229-0.188l0.229-0.188
	c-0.003-0.191,0.368-0.226,0.456-0.381c0.63,0.19-0.194,0.312,0.914,0.569l0.691,0.093l-0.691,0.096
	c0.746,0.509,1.453,0.281,2.298,0c-1.18,0.744,1.564,0.127,1.832-0.188c0.103,0.146,0.011,0.372,0.456,0.378
	c0.234-0.632,2.129-0.089,3.209-0.189c0.262-0.024,0.382-0.377,0.917-0.377c0.008,0-0.383,0.384-0.462,0.377
	c1.921,0.175,6.504-0.245,8.71-0.377c0.923-0.057,2.417,0.054,1.374,0.377h1.834v0.189l0.227-0.096l-0.227,0.096
	c1.837-0.404,3.299-0.357,4.583,0.189l0.226-0.285l0.232,0.285c1.631,0.294,0.273-0.643,1.375-0.567
	c0.776,0.81,5.927,0.07,5.04,0.757c1.775-0.195,1.887,0.098,3.207-0.189c-0.337,0.516,0.913,0.379,0.917,0.757
	c-1.562,0.54-3.868,0.369-3.208,0.378c0.511,0.04,0.715,0.209,0.916,0.379c-1.209-0.059-1.182,0.395-1.375,0.757
	c1.802-0.002,3.612,0.011,5.958,0c3.688-0.019,4.019,0.036,5.499-0.19c-0.919,0.388,0.202,0.371,0.462,0.757
	c-1.113,0.385-1.665,0.802-1.38,1.135c0.694,0.222,2.398-0.435,3.213-0.378c0.122,0.01-0.728,0.452,0,0.378
	c1.2-0.122,1.912-1.315,3.664-0.378c-0.497,0.045-1.103,0.311-0.461,0.378c0.664-0.038,1.025-0.342,2.749-0.378v0.756
	c3.703-0.4,6.986,0.701,8.711-0.378c0.237,0.281,0.678,0.476,0.915,0.759c-0.67-0.273-1.453-0.146-1.374,0.377
	c0.685,0.033,1.693-0.066,1.833,0.19c-0.181,0.269-0.552,0.317,0,0.565l0.689,0.096l-0.231,0.283
	c5.246,0.56,9.576,0.363,15.581,0.379c-0.917-0.002,0.328,0.179,0.458,0.188c2.786,0.218,5.604-0.008,8.706,0
	c4.907,0.015,9.706,0.792,12.375,0.378c-0.256,0.002-0.52-0.152,0-0.189c2.708,0.441,6.719-0.219,8.249,0.568
	c-0.044-0.584,1.386-0.563,2.749-0.568v0.568l0.687-0.094l0.23,0.283c0.583-0.01,0.635-0.243,1.374-0.189
	c0.073,0.225-0.078,0.539,0.459,0.567c1.14-0.508,1.09-0.28,1.374,0c1.743-0.574,2.741-0.056,4.582-0.378
	c0.047,0.213-0.668,0.294,0,0.378c0.823-0.321,3.118-0.374,3.208-0.946c0.098,0.229,0.507,0.117,0.915,0l-0.229-0.281l0.688,0.092
	c1.205,0.492,0.361-0.305,1.834-0.188c0.002,0.192-0.373,0.226-0.459,0.378c4.235-1.191,11.431,0.188,15.58,1.135
	c-0.748-0.895,1.227-0.748-0.918-0.946c0.592-0.15,2.572-0.677,2.751-0.378c-0.815,0.094,0.202,0.203,0.46,0.378
	c-0.85,0.03-0.28,0.642-0.914,0.758c0.716,0.017,1.586-0.024,1.37,0.378c2.021-0.436,3.62-1.086,5.045-0.756
	c0.349,0.081-0.881,0.329,0,0.378c0.05,0.003,0.52-0.422,0.916-0.378c1.42,0.158,4.12,1.283,5.956,0.189
	c0.896,0.584,2.826,0.088,4.123,0.188c0.244,0.021,0.911,0.396,1.375,0.378c0.174-0.006,0.445-0.387,0.917-0.378
	c0.659,0.012,0.77,0.369,1.375,0.378c0.62,0.012,2.951-0.766,2.749,0.189c3.031-0.078,6.527,0.256,8.71,0.188
	c1.116,0.333,9.927,0.117,13.287,0.569c1.529-0.711,4.885-0.53,8.251-0.758c-1.138,0.367,0.404,0.551,1.832,0.568
	c3.823,0.047,8.801,0.639,11.455,0c0.42,0.331,1.606,0.346,2.292,0.567c0.205-0.767,1.66,0.161,2.29-0.567
	c4.699,0.362,9.375-0.156,15.58,0c0.296-0.744,1.571-0.06,3.211,0c1.844-1.008,2.837,0.254,5.038-0.568
	c-0.167,1.047,5.011-0.809,8.25,0.379c0.795-0.604,2.784-0.178,4.126-0.568c-0.304,0.089-0.354-0.344,0.457-0.378
	c-2.299,0.099,5.078,0.455,2.292,0.567c2.298-0.14,3.002,0.119,3.208-0.379c2.903,0.885,7.882-0.595,11.916-0.188
	c0.04,0.006,0.48,0.741,0.917,0.188c-0.988-0.166,0.274-0.097,0.916-0.188c-0.44,0.063,0.369-0.511,0.917-0.188
	c-0.102-0.059,0.317,1.008,1.371,0.188c0.268-0.207-0.367,0.167,1.379,0.188c2.908,0.039,7.006-0.694,10.08,0
	c0.102-0.145,0.011-0.371,0.459-0.377c0.118,0.736,3.388-0.24,4.582,0.377c0.181-0.324-0.683-0.484,0-0.566
	c0.458,0.781,1.374,0.275,2.75,0.756c-0.128-0.658,2.843,0.15,2.291-0.566c2.18,0.403,4.427-0.324,5.957-0.379
	c-0.022,0.002,0.021,0.379,0,0.379c2.103-0.051,3.866,0.025,5.499-0.569c0.003,0.192-0.372,0.226-0.459,0.38
	c8.299,0.023,16.611,0.195,23.831-0.38c0.952,0.421,1.93,0.356,2.749,0c-0.981,0.586,1.519,0.046,2.75,0
	c4.649-0.166,8.897,0.03,11.455,0c0.019-0.731,2.742-0.173,1.374-0.188c8.184,0.092,20.52-0.738,27.039-0.378
	c0.102-0.146,0.012-0.372,0.459-0.378c2.06,0.126,5.005,0.354,5.498-0.379c2.793,1.381,8.464-0.68,9.621,0.189
	c-0.109-0.412,1.946-0.412,1.835,0c3.132-0.297,6.472-0.006,8.25-0.758c-0.593,0.408,0.564,0.516,1.373,0.189
	c0.536-0.215-0.634,0.137,0.46,0.379c1.597,0.357,4.403-0.38,4.582-0.379c0.03,0-0.039,0.376,0,0.379
	c1.434,0.139,5.43-0.148,5.954-0.379c-0.129,0.057-1.371-0.364-0.454-0.376c-0.033,0,2.082,0.592,1.833,0.565
	c1.945,0.201,3.825-0.343,6.415-0.379c-0.224,0.002,0.405,0.371,0.457,0.379c0.25,0.049,1.868-0.209,2.294-0.189
	c0.676,0.035,3.246,0.6,5.039,0c0.596-0.469-1.346-0.784,0-0.943c1.166,0.018,1.083,0.703,0.458,0.943
	c1.97-0.209,0.585-0.087,1.376,0.189c4.495-1.008,6.014,0.102,10.079-0.565l0.229-0.284l0.229,0.284
	c0.873-0.081,0.829-0.542,2.292-0.379c0.003,0.188-0.371,0.225-0.458,0.379c4.675,0.032,5.267-0.746,9.625-0.567v0.567
	c1.422-0.25,1.308,0.05,3.204,0c0.106-0.646,1.456-0.593,1.833-0.19c3.655-1.496,11.774-0.515,16.043-1.136
	c1.226,0.716,0.858,0.542,0.915,1.136c2.273,0.079,0.26-0.566,1.375-0.758c5.957-0.367,11.23-0.96,16.038-0.378
	c1.378-0.868,3.698-0.157,5.961-0.378c0.266-0.393,0.88-0.645,1.832-0.757c0.31,0.682,2.894,0.075,3.204-0.378l-0.687-0.221
	c0,0,0.231-0.347-0.684-0.347c0.024-0.116,0.063-0.226,0.454-0.188c-0.022-0.116-0.065-0.225-0.454-0.189
	c0.187-0.324,0.591,0.04,1.37,0c0.004,0.189-0.367,0.223-0.455,0.378l0.686,0.22l-0.23,0.348c0.801,0.171,1.769,0.422,0.917,0.757
	c1.919,0.282,2.59-0.201,4.582,0.378l0.23-0.284l0.687-0.094c1.529-0.417,5.224,0.413,4.586,0.946
	c1.558-0.608,3.204-0.176,4.581-0.946c1.881,0.36,2.624,0.401,5.499,0.567c0.018-0.262-0.216-0.416-0.457-0.567
	c2.49-0.249,3.779-0.074,6.414,0.188c0.05-0.229,0.137-0.449,0.916-0.379c-0.037-0.611-1.172-0.988,0.918-1.134l-0.232-0.284
	l0.691-0.094c-0.951-0.695,0.507-0.727,1.372-1.136c1.82,0.298,0.592,0.677,1.835,1.136l0.229,0.282l-0.685,0.096
	c3.113,0.12,7.293,0.123,10.536-0.757c-0.355-0.044-0.902-0.006-0.918-0.188l-0.226-0.19l0.226-0.188
	c-1.052,0.057-0.505-0.548-1.368-0.568c0.119-0.447,1.7,0.016,1.83,0.189l0.686,0.094l-0.229,0.285
	c1.14,0.164,3.31,0.467,2.293,0.945c2.425-0.179,4.659-0.033,5.958-0.757c1.045,0.458,1.624,0.228,3.207,0.19
	c0.051,0.229,0.137,0.446,0.917,0.377l0.534-0.285l0.84,0.096c-0.004-0.189,0.371-0.225,0.46-0.378l-0.802-0.188l0.802-0.19
	c-0.026-0.116-0.07-0.226-0.46-0.188l-0.231,0.283l-0.227-0.283c-2.137,0.166,0.31-0.625-0.916-0.568
	c-0.142-0.383,1.323,0.039,1.374,0.189h0.46v0.189c1.329-0.271,0.512-0.145,0.458,0.378l0.684,0.095l-0.227,0.284
	c1.406,0.251-0.799,0.866-1.375,0.378l-0.534,0.283l-0.84-0.094c-0.137,0.386-1.24,0.371-1.375,0.756l0.686,0.094l-0.228,0.285
	c2.24-0.42,5.487,0.242,8.706-0.188c-0.978-0.062,0.072-0.825,0.459-0.946c1.707,0.199,1.479-0.398,2.29-0.567
	c0.024,0.819,2.932,1.479,3.207,0.567c0.053,0.485,0.261,0.902,0.918,1.135c0.834-0.239,1.666,0.018,3.667,0
	c0.342-0.582-1.258-0.363-0.917-0.945c1.442,0.215,1.112-0.299,1.832-0.379c0.404,0.637,2.162-0.037,2.748,0.757l0.69-0.096
	l-0.231,0.284c1.908,0.209,6.44,0.24,8.253-0.566c0.413,0.332,1.6,0.346,2.29,0.566c-0.463-0.568,1.021-0.334,1.832-0.377
	l-0.229-0.285l0.229-0.283c-0.399-0.389,2.332-0.378,0.918-0.566c0.19-0.015,3.68-0.021,2.291,0.379h-0.459l0.227,0.281
	l-0.227,0.285c2.907,0.016,5.696,0.204,8.248,0c0.841,0.281,1.552,0.507,2.291,0l-0.23-0.285l0.23-0.281
	c-2.007-0.588,2.512-0.236,0.916,0l0.228,0.344l-0.685,0.223c0.181,0.913,2.242-0.044,3.666,0.189
	c0.635,0.824,2.219,0.736,3.666,0.377c-0.217,0.783,2.144,0.502,3.205,0.757l-0.16-0.339L568.374,42
	c-0.046-0.214,0.667-0.297,0-0.379c0.307-0.399,2.667,0.438,3.209,0l0.688,0.095L572.499,42c0.656-0.046,0.772-0.312,1.376-0.379
	l0.229,0.095l0.226,0.094c0.114-0.289,0.757-0.027,0.918,0.19l0.689-0.097l-0.23,0.285c1.399-0.139,1.671,0.193,2.749,0.189
	c0.537-0.348,1.196-0.64,1.833-0.945v-0.379h0.915c-1.218-0.607-0.249-1.008,0.459-0.189l0.689-0.096l0.687,0.096h0.456l0.69-0.096
	l-0.226,0.285c1.435,0.088,1.29-0.477,1.831-0.756c0.253-0.002,0.521,0.152,0,0.188c0.862,0.69-0.181,0.418,1.831,1.135l0.838-0.096
	l0.538,0.284h0.459l0.228-0.284l0.688,0.096c0.027-0.243,0.586-0.262,0.459-0.567c0.585,0.011,0.631,0.242,1.376,0.189
	c0-0.191-0.372-0.225-0.458-0.379l-0.69-0.096l0.69-0.092c-0.656-0.553-0.355-0.215,0.915-0.19c-0.92-0.66,0.203,0.017,0.458-0.379
	c1.328,0.106-0.705,0.295-0.458,0.569l0.686,0.092l-0.686,0.096c-0.024,0.324,0.352,0.482,0.917,0.568
	c0,0.188-0.371,0.224-0.459,0.377l0.687,0.094l-0.228,0.285h1.374c0.673-0.416,1.513-0.764,2.749-0.945l0.229-0.285l0.688,0.096
	c0.252,0,0.521-0.152,0-0.189c0.687-0.623,0.537,0.634,1.833,0.379l0.459-0.096l0.458,0.096c0.025-0.117,0.068-0.225,0.457-0.189
	l-0.229-0.285l0.688,0.096c0.102-0.146,0.015-0.373,0.46-0.378c0.598,0.515,1.262,0.106,0.916,0.757
	c0.323-0.439,2.152,0.482,2.749,0c-0.92,0.385,0.201,0.371,0.459,0.757c0.949-0.114,3.008,0.233,3.208-0.19l-0.686-0.094
	l0.227-0.283v-0.189l-0.685,0.094l0.226-0.283c-1.524,0.129-0.737-0.393-0.458-0.567c0.256-0.002,0.521,0.153,0,0.19
	c0.102,0.146,0.385,0.219,0.917,0.188l0.231-0.284l0.228,0.284h0.917l0.229,0.094l0.228,0.096c0.341-0.426,1.747,0.266,1.834,0.567
	l0.69-0.096l0.683,0.096c0.519-0.041,0.717-0.211,0.917-0.378c0.544,0.092,1.04,0.2,1.376,0.378l0.688,0.095L617.408,42
	c6.539-0.382,8.007,0.54,13.752-0.19l-0.231-0.284l0.689,0.096v-0.378c0.627-0.01,1.002,0.09,1.373,0.189v0.188l0.686-0.096
	l-0.227,0.284c4.146,0.388,6.28,0.89,10.08,0.19c0.225-0.599-0.826-0.67-0.456-1.323c2.12-0.403,5.429-0.262,7.33-1.326l-0.23-0.188
	l0.23-0.188c-1.067-0.106-1.067-0.571,0-0.19c0.437-0.353-1.369-0.634,0-0.756c0.026,0.241,0.588,0.262,0.459,0.565
	c1.024-0.492,2.088-0.242,3.207-0.377c-0.588,0.071-0.129-0.338,0.458-0.377c1.574-0.111,5.131,0.287,7.79-0.758
	c0.048,0.211-0.662,0.293,0,0.379c1.973-0.729,3.032-0.318,5.959-0.379c0.046-0.587-0.561-0.904-0.918-1.324
	c0.81,0.575,1.423-0.517,1.834,0c-0.473,0.026,1.301,0.709,1.373,1.135c2.079-0.691,2.923,0.004,3.212-0.758
	c0.094,0.229,0.506,0.116,0.916,0c0.043,0.213-0.667,0.293,0,0.381c0.771-0.403,3.148-0.303,6.415-0.758l-0.231-0.189l0.231-0.188
	c-0.49-0.179-0.144-0.699-1.374-0.57l-0.457,0.095c0,0-0.459-0.095-1.834-0.282c0.627-0.01,1.002,0.088,1.375,0.188l0.229-0.283
	l0.688,0.096c1.51-1.143,6.743-0.392,7.333-1.326c0.71,0.273,1.785,0.399,2.747,0.567c2.284-1.226,6.542-0.843,8.707-1.136
	c-0.462-0.002-0.578-0.329,0-0.377c0.883,0.886,2.2-0.101,3.666-0.379c0.693,0.518,1.573,0.207,3.205,0.567
	c0.533-0.655-0.21-0.348,1.377-0.567c0.048,0.213-0.665,0.295,0,0.379c1.211-0.211,2.944-0.484,5.041,0
	c0.489-0.194,1.907-0.932,3.207-0.947c0.021,0-0.399,0.391-0.458,0.379c1.49,0.298,4.649,0.367,2.29,0.379
	c0.103,1.246,2.892-0.085,3.667,0.378c0.094-1.726-0.369-2.97-5.957-2.271c-0.782-0.801-1.989-1.098-3.209-0.945
	c-0.245-0.271,1.789-0.461,0.46-0.568c-2.03,0.346-4.102,0.037-5.956,0.758c-0.312-0.439-1.526-0.506-1.833-0.946l-0.686,0.096
	l0.227-0.284c-1.566-0.172-3.109-0.355-4.583-0.568c3.399,0.205-0.497-0.295,0-0.567c0.009-0.004,4.413-0.233,4.583-0.567
	c0.023,0.116,0.068,0.224,0.459,0.189l0.23-0.283l0.685,0.094c0.534-0.031,0.499-0.3,0.456-0.567
	c-0.536-0.029-1.296,0.032-1.371-0.188c1.056-0.328-0.55-1.149-1.375-1.325c0.515-0.04,0.713-0.21,0.916-0.379
	c-2.078,0.355-0.626-0.752-2.293-0.566l-0.227,0.282l-0.231-0.282c-0.661,0.21-1.117,0.204-1.372-0.19l-0.688,0.094l0.228-0.282
	c-4.43-0.415-5.877,1.124-9.165,0.188c1.16-0.757,3.579,0.123,5.04-0.567l-0.688-0.096l0.231-0.283
	c0.141-0.435-1.324-0.21-1.376-0.567c1.044,0.051,1.723-0.047,1.833-0.379c-2.002-0.506-2.592-0.184-3.662-0.567
	c-1.406-0.502-6.644,0.293-10.084,0c-0.647-0.058-0.769-0.324-1.374-0.378c-0.878-0.079-2.101,0.903-2.75,0.756
	c0.815-0.7-1.252,0.035-0.918-0.567c-2.161-0.019-6.947,0.448-7.79-0.189c1.172,0.231,2.055-0.557,0.916-0.946
	c3.231-0.575,4.439-1.047,9.17-0.758l-0.233-0.283l0.689-0.095c-0.179-0.271-0.554-0.319,0-0.567
	c-1.138,0.027-2.226,0.034-2.292-0.378c2.49,0.07,0.528-0.329,0-0.569c2.113-0.481,0.847-1.351,2.751-1.703
	c-2.129-1.055,1.491-2.53,2.747-2.459c-1.616-0.45,0.13-1.162-0.916-1.702c0.629,0.008,1.002-0.091,1.376-0.19l-0.23-0.283
	l0.23-0.284c-0.283-0.01-0.545-0.029-0.46-0.189c0.441-0.384,1.759-0.409,3.209-0.379c-0.174-0.585-1.562-0.734,0-1.135
	c1.522,0.445,2.829-0.606,4.581,0c0.219-0.223,0.488-0.428,0.916-0.567c4.189-0.289,2.797-2.882,6.875-3.216
	c1.084,0.058,0.851,0.657,2.293,0.568c-0.025-1.519,3.087-2.809,0-4.163c0.826-0.366-0.375-0.959-0.919-1.324
	c-2.233,0.365-2.398,0.25-4.582,0L694.627,0.19z M600.913,4.352l0.686,0.219l-0.228,0.348c0.457-0.002,0.545,0.154,0.915,0.189
	c-0.005,0.251-0.803,0.173-0.915,0.379c-0.534-0.033-0.498-0.3-0.458-0.568l-0.231-0.284c0,0,0.231-0.283-1.603-0.472
	c-0.537-1.049,1.786-1.029,3.207-0.758c0.049,0.212-0.667,0.296,0,0.379C601.534,4.39,600.913,4.352,600.913,4.352 M634.825,4.352
	c1.482-0.234,0.351,0.611,1.832,0.377C636.512,5.13,634.485,4.77,634.825,4.352 M640.782,4.541
	C639.776,5.119,637.845,4.321,640.782,4.541 M623.365,4.729c-0.646,0.538-1.478,0.245-3.665,0.379
	C619.423,4.362,622.218,4.885,623.365,4.729 M407.068,5.108C405.986,5.716,405.214,4.443,407.068,5.108 M593.122,5.108
	c0.184-0.47,1.776-0.012,1.374,0.379C593.48,5.59,593.845,5.125,593.122,5.108 M690.731,5.675c1.192-0.112,1.648,0.076,1.376,0.569
	C691.679,6.04,690.414,6.184,690.731,5.675 M364.904,6.622c-1.767-0.439,0.549-0.224,0.462,0
	C365.25,6.909,364.973,6.637,364.904,6.622 M590.831,6.433c1.643-0.512-0.396,0.561-0.459,0.378
	C590.29,6.573,590.037,6.678,590.831,6.433 M578.456,7.189c0.088-0.16-0.177-0.179-0.459-0.189c0.578-0.582,1.381,0.211,0.459,0.378
	C577.935,7.342,578.205,7.189,578.456,7.189 M662.549,7.663l-0.231,0.282c-0.296,0.273-4.696,0.909-5.499,0.19
	c1.145-0.16,2.458-0.248,4.124-0.19V7.756h0.457c-0.022-0.24-0.585-0.261-0.457-0.567c0.578,0.078,0.939,0.244,0.918,0.567
	L662.549,7.663z M507.427,7.378C507.741,8.505,505.475,7.818,507.427,7.378 M638.033,10.595c-0.202,0.231-0.589,0.388-1.376,0.377
	C636.858,10.74,637.241,10.584,638.033,10.595 M227.884,11.539c0.087-0.213,0.462-0.103,0.462,0c0.39,0.037,0.432-0.072,0.455-0.188
	C230.214,11.588,228.292,11.92,227.884,11.539 M616.264,12.013l0.687,0.094c0.118-0.293,1.006-0.131,1.374,0
	c0.003,0.105-0.372,0.216-0.458,0c-0.459,0-0.546,0.154-0.916,0.189l0.23,0.285l-0.689,0.093c-0.661-0.105-1.117-0.294-1.375-0.567
	c-0.352,0.043-0.899,0.006-0.917,0.189c-1.47-0.212,0.442-0.539,1.375-0.378c0.106,0.147,0.015,0.374,0.461,0.378L616.264,12.013z
	 M609.619,12.864c-0.537-0.03-0.386-0.343-0.459-0.568c1.021-0.104,0.654,0.363,1.375,0.378
	C610.371,12.971,609.728,12.51,609.619,12.864 M583.039,13.053l0.229,0.347l-0.688,0.222c0.702,0.581-2.991,0.581-2.291,0
	c-1.635,0.366,0.446,0.624-2.292,0.378c0.513,0.392,0.495,0.398-0.457,0.188v0.188h-0.459c-0.735,0.083-1.537-0.703-0.457-0.754
	l0.23,0.093l0.227,0.095v-0.188c0.534,0.237,2.992,0.432,2.29-0.38c0.621,0.06,0.879,0.27,1.833,0.19
	c-1.216,0.482,0.801,0.446,1.376,0.19l-0.228-0.349c0,0,0.687-0.22,0.687-0.787C585.026,12.564,583.039,13.053,583.039,13.053
	 M597.017,13.337l-0.688,0.095c-0.043,0.299-1.167,0.15-0.918,0.568c-0.575-0.078-0.937-0.244-0.916-0.568
	c-1.712,0.082,0.341,0.836-1.374,0.378c0.474-0.868,1.815-0.146,2.29-0.378l-0.229-0.284l0.229-0.284
	c1.137-0.711,1.625,0.037,1.377,0.189L597.017,13.337z M572.957,13.81c0.029-0.014-0.031-0.185,0-0.188
	C575.158,13.461,570.78,14.837,572.957,13.81 M659.569,14c-0.389-0.035-0.433,0.073-0.458,0.188
	C658.176,13.225,661.857,14.933,659.569,14 M565.625,14C567.613,14.078,565.141,15.098,565.625,14 M633.45,14.755h2.29v0.759
	C634.176,15.591,633.129,15.455,633.45,14.755 M536.295,15.323c0.596-0.584,0.605,0.544-0.459,0.378
	C534.915,16.153,536.041,15.492,536.295,15.323 M601.371,15.701c-0.142,0.071-0.566-0.265,0-0.187
	C602.732,15.697,599.511,16.628,601.371,15.701 M157.772,15.892c0.497,0.046,0.309,0.376,0.915,0.379
	c-0.051,0.668-1.514-0.403-1.375,0.188C155.795,16.274,157.827,16.084,157.772,15.892 M450.603,16.459
	c0.444,0.005,0.353,0.231,0.455,0.38c0.389,0.034,0.433-0.075,0.463-0.19c0.519,0.036,0.251,0.19,0,0.19
	c0.009,0.182,0.558,0.144,0.916,0.187c-0.105,0.272-1.371,0.067-1.379,0.379C450.445,17.275,451.285,16.9,450.603,16.459
	 M442.356,17.217c0.072-0.221-0.102-0.337-0.463-0.378c1.133-0.514,1.654,0.327,0.463,0.566
	C441.831,17.369,442.098,17.215,442.356,17.217 M466.414,17.311l-0.231-0.094v0.378h-2.29c-0.474-0.532,0.711-1.317,1.373-0.756
	l0.231-0.096l0.229,0.096c0.74-0.518,1.536,0.277,0.457,0.378L466.414,17.311z M491.389,16.649c1.061,0.418,1.227,0.167,2.287,0.377
	C493.345,17.451,491.065,17.119,491.389,16.649 M435.019,17.405c0.467-0.124,0.473-0.435,1.377-0.379
	c-0.16,0.249-0.81,0.298-0.917,0.569c-0.895,0.092-1.65-0.94,0-0.756C435.237,16.99,435.002,17.145,435.019,17.405 M500.552,17.217
	c1.675-0.125,1.759,0.407,3.208,0.378c-0.104,0.239-1.367,0.246-1.375,0c-0.561,0.081-0.939,0.241-0.915,0.567
	C500.788,18.002,500.806,17.553,500.552,17.217 M99.573,18.162c0.087-0.216,0.459-0.105,0.455,0c0.947-0.375,0.434-0.375,1.379,0
	c-0.113,0.333-0.791,0.43-1.834,0.378c-0.086-0.16,0.177-0.178,0.455-0.188C100.115,18.19,99.852,18.173,99.573,18.162
	 M117.445,17.973c1.064,0.471-0.892,0.385-1.376,0.567c-0.389,0.035-0.433-0.074-0.456-0.188v-0.379
	c0.367,0.1,0.741,0.196,1.374,0.189C117.375,18.197,117.418,18.087,117.445,17.973 M128.445,18.54
	c0.207-0.373,3.212-0.34,2.288,0.378C129.327,19.059,129.851,18.399,128.445,18.54 M13.651,19.58l-0.232-0.093
	c-0.321,0.532-1.074-0.217-1.832-0.189c-0.997,0.036-1.053,0.376-1.833,0.378c1.999-0.002-1.811-0.408-0.462,0
	c-0.497-0.151-0.145-0.547-0.455-0.758c0.694,0.469,3.948-0.115,4.582,0.38l0.459-0.097l0.458,0.097
	c-0.432-0.352,2.62-0.117,0.916-0.38c0.187-0.322,0.593,0.04,1.376,0c0.392,0.794-2.053,0.415-2.75,0.758L13.651,19.58z
	 M29.457,18.729c1.332,0.165,0.518,0.285,0.46,0.758h-1.375C28.206,18.97,29.454,19.105,29.457,18.729 M590.831,19.107
	C592.314,19.145,588.256,19.042,590.831,19.107 M24.418,19.107h1.374v0.379h-1.374V19.107z M569.291,19.298
	c0.328-0.086,2.679-0.069,0.459,0C569.266,19.312,568.508,19.498,569.291,19.298 M561.043,19.487c-0.852-0.587,1.393,0.495,1.834,0
	c1.149-0.292-1.151,0.508-1.375,0.378c-0.521-0.036-0.257-0.191,0-0.189C561.584,19.515,561.321,19.498,561.043,19.487
	 M150.671,20.148l-0.23,0.284c1.89,0.532-0.174-0.031-0.459,0.568c-0.515-0.04-0.714-0.21-0.917-0.378l-0.688-0.096l0.688-0.094
	c-0.701-0.728-0.448-0.375,0.917-0.189L150.671,20.148z M139.443,20.243c0.13,0.339-0.433,0.387-0.461,0.189
	C137.278,20.143,137.877,19.894,139.443,20.243 M142.192,20.243c0.391,0.035,0.432-0.074,0.455-0.189
	c1.002,0.082-0.866,0.836-1.37,0.378C141.434,20.215,142.081,19.953,142.192,20.243 M193.975,20.054
	C193.261,20.948,191.702,20.306,193.975,20.054 M414.854,20.622C414.27,21.555,411.964,19.195,414.854,20.622 M279.668,20.243
	c0.373,0.035,0.459,0.189,0.919,0.189C280.339,20.877,278.418,20.546,279.668,20.243 M537.668,20.243
	c0.643,0.066,0.041,0.332-0.457,0.379c-0.082,0.161,0.182,0.179,0.457,0.189c-0.256,0.547-0.714-0.291-1.373-0.189
	C536.4,20.349,537.667,20.555,537.668,20.243 M20.066,20.715l0.686-0.093c0.188-0.323,0.591,0.039,1.374,0
	c-1.807,0.683,0.32-0.03,0.916,0.378l0.689-0.096l-0.23,0.285v0.567l0.458-0.093l0.459,0.093c0.461,0.002,0.576,0.331,0,0.379
	c0,0.189,0.372,0.224,0.458,0.378l0.688-0.096l-0.231,0.285l0.231-0.285l0.686,0.096c0.282,0.01,0.541,0.028,0.459,0.189l0.84-0.095
	l0.532,0.285c0.514-0.04,0.717-0.212,0.918-0.379c0.657,0.045,0.772,0.312,1.375,0.379c1.417,0.244-1.316,0.247-0.918-0.19
	c-0.457-0.001-0.543,0.153-0.915,0.19c0.097,0.211,0.509,0.295,0.915,0.379c0.142,0.383-1.323-0.04-1.375-0.191l-0.685,0.095
	l-0.688-0.095h-0.917l-0.228,0.283l-0.688-0.092c-0.004,0.249-0.805,0.171-0.917,0.378c-1.244-0.173,0.466-0.663,0.459-0.947
	l-0.459-0.095l-0.458-0.094c-0.542-0.093-1.039-0.202-1.375-0.378h-0.459v-0.189c-0.575,0.076-0.937,0.243-0.915,0.567
	c-0.586-0.011-0.637-0.243-1.374-0.189l0.227,0.283l-0.687-0.094v0.758h-0.916c-0.028-0.118-0.067-0.227-0.458-0.191
	c1.858-0.788-1.246-1.707,0-2.648c0.866-0.043,1.01,0.214,1.834,0.19L20.066,20.715z M239.344,20.811
	c0.651-0.075,0.771-0.228,1.374,0l0.227-0.285l0.231,0.285c0.609,0.027,1.382-0.77,1.833-0.189l0.686-0.096l-0.227,0.285
	c0.811,0.351,1.338-0.082,2.291-0.189l-0.231-0.286l0.688,0.096c1.332,0.164,0.516,0.283,0.458,0.757
	c0.936-0.058,0.899-0.513,1.835-0.567l0.229,0.093l0.228,0.096c0.57,0,1.332-0.471,2.291-0.189v0.189l0.459-0.096l0.457,0.096
	c0.661,0.418,1.118-0.238,1.376,0.189l0.689,0.093l-0.231,0.285h0.456h0.46v0.189c0.809-0.351,1.421,0.048,1.833,0.379
	c-0.025,0.198-0.584,0.149-0.458-0.19c-0.358,0.042-0.907,0.005-0.917,0.19l-0.228,0.283l-0.69-0.094v0.189l0.993,0.283l0.383,0.473
	c0.356,0.043,0.902,0.005,0.917,0.191l0.686-0.096l-0.227,0.284v0.378h-0.917l0.227,0.284l-0.686-0.094
	c-0.671,0.003-1.449-0.798-1.376,0c-0.355-0.044-0.529-0.157-0.456-0.378c-0.722,0.081-0.391,0.593-1.834,0.378l-0.23-0.096
	l-0.227-0.094c-0.192,0.422-2.434,0.146-2.75,0l-0.457-0.096l-0.46-0.092c-0.415,0.329-1.024,0.727-1.833,0.378l-0.228,0.283
	l-0.229-0.283c-1.855,0.192-2.108-0.127-3.208,0.378c-1.327-0.106,0.704-0.295,0.458-0.568c-1.082,0.059-0.852,0.658-2.291,0.568
	c-0.177-0.27-0.553-0.318,0-0.568c-1.08,0.059-0.854,0.658-2.291,0.568c0.847-0.334-0.12-0.585-0.916-0.756l-0.534,0.282
	l-0.841-0.094c-0.069,0.472-1.558,0.056-1.836,0c0.489,0.176,0.144,0.698,1.377,0.568c1.31,0.01-1.746-0.028-1.833,0.378
	c-0.646,0.015-0.523-0.549-0.915-0.189c-0.636-0.389,0.14-0.524-1.379-0.757l-0.687-0.22l0.231-0.346
	c-0.517,0.019-0.715-0.277-0.916,0c-0.256,0-0.521-0.154,0-0.191c-0.391-0.553-1.48,0.114-2.295,0l-0.229-0.094l-0.227-0.094
	c-0.008,0.311-1.274,0.105-1.377,0.379l0.688,0.219l-0.227,0.347c-0.003,0.104,0.368,0.215,0.454,0
	c0.605,0.002,0.419,0.332,0.917,0.378c-1.216,0.894-2.287-0.057-3.205,0.568l-0.688,0.094l0.228-0.283
	c-0.354,0.042-0.902,0.005-0.916,0.189c-0.723-0.016-0.358-0.482-1.372-0.378c1.083,0.696-0.572-0.081-1.377,0.378l-0.229,0.284
	l-0.228-0.284c-0.97,0.418-1.355-0.243-2.748-0.189l0.226,0.283l-0.688-0.094c-0.539-0.091-1.038-0.201-1.375-0.378
	c-0.909,0.003-0.58,0.517-1.832,0.378c0.024-0.241,0.587-0.262,0.459-0.568c-0.963,0.126-2.036,0.502-2.75,0.19
	c-0.304,0.865-3.306,0.007-4.581,0.568c0.023-0.242,0.587-0.262,0.457-0.568c-0.588,0.01-0.635,0.242-1.375,0.189
	c0.83,0.592-0.141,0.098-1.374,0.379c0.119-1.043-1.036,0.665-0.917-0.379c-1.692,0.522-2.271,0.101-3.666,0.379h-0.461v-0.19
	c-0.509-0.019-0.711,0.276-0.914,0h-0.459v-0.189c-0.357,0.042-0.532,0.158-0.456,0.379c-2.448-0.07-2.743-0.596-4.583-0.19
	l-0.458,0.094l-0.459-0.094c-1.126,1.968-0.521-0.541,0-0.378c-0.506-0.158-2.084,0.529-3.665,0c-0.003-0.106,0.369-0.215,0.455,0
	c1.454-0.45,2.33,0.04,3.21-0.568l-0.621-0.23l-0.753-0.148h-0.459l-0.915,0.282v-0.47h-0.462l-0.229-0.096l-0.227-0.095
	c-1.036,0.781-3.49-1.232-4.127,0l-0.229,0.095l-0.227-0.095c-0.57,0.261-1.336,0.109-2.295-0.188l-0.228,0.283l-0.226-0.283
	c-0.463,0-0.55-0.153-0.917-0.19l-0.69,0.094l0.229-0.283c-0.514-0.04-0.713-0.21-0.918-0.378c-0.46-0.002-0.54,0.153-0.916,0.189
	l0.23,0.283l-0.685-0.094c-0.428,0.89-1.448,0.3-2.749,0.189l-0.464-0.095l-0.454-0.094c-0.879,0.642-2.612-1.14-0.916-0.567
	l0.686-0.096l0.23,0.285c0.642,0.015,0.519-0.55,0.918-0.189l0.685-0.096l-0.23,0.285c0.801,0.013,1.429-0.043,1.832-0.189
	l0.23,0.093l0.232,0.096c-0.004-0.107,0.367-0.215,0.454,0c0.359-0.042,0.534-0.16,0.46-0.379c0.869,0.021,0.319,0.626,1.374,0.568
	v-0.189h0.461c0.107-0.205,0.75-0.454,0.917-0.189l0.684-0.096l-0.23,0.285c2.246-0.167,3.288,0.067,5.044,0.189v-0.189h0.456
	c0.006-0.312,1.272-0.107,1.378-0.379c0.512,0.172-0.03,0.423,0.917,0.757h0.454v0.189c1.027-0.427,2.298,0.012,3.211,0.19
	c0.604-0.003,0.418-0.332,0.916-0.379c-0.103-0.147-0.382-0.221-0.916-0.189c0.172-0.321,3.243-0.433,3.665,0.378
	c0.596-0.646,1.961-0.089,2.747-0.378l0.233-0.285l0.228,0.285c0.679-0.218,1.154-0.218,1.834,0l0.227-0.285l0.688-0.093
	c1.093-0.274,1.125-0.287,1.376-0.568l0.23-0.285l0.686,0.096c0.63-0.164,2.285-0.341,2.749,0.189h0.459v0.189
	c0.588-0.011,0.635-0.243,1.374-0.189l-0.231-0.285l0.689,0.096h1.375l0.231-0.285L212.304,21c0.188-0.324,0.592,0.039,1.375,0
	l0.688-0.096l-0.229,0.285h0.458l0.459-0.096l0.456,0.096c0.097-0.229,0.509-0.117,0.921,0V21h0.454
	c0.469,0.022,0.929-0.816,1.379-0.189l0.685-0.096L218.719,21c1.148-0.242,1.437,0.095,1.834-0.189
	c1.327,0.105-0.701,0.295-0.456,0.567l0.686,0.094l-0.686,0.095c0.128,0.389,1.221,0.377,1.833,0.568l0.687-0.096l-0.23,0.285
	c0.356-0.044,0.905-0.007,0.916-0.189c0.655,0.044,0.771,0.311,1.377,0.378c1.332-0.164,0.514-0.283,0.455-0.757l-0.686-0.093
	l-0.23-0.285c-0.512,0.019-0.714-0.275-0.916,0c-1.631-0.159,1.122-0.999,1.377-0.378h0.455v0.189
	c0.36-0.042,0.536-0.159,0.463-0.378c0.952,0.105,0.966,0.295,0.455,0.567h0.461v0.189c1.089,0.106-0.513,0.569-0.916,0.189
	c-0.044,0.515,0.76,0.38,0,0.757c1.225-0.586,1.739,0.497,2.749,0l0.227-0.284l0.688,0.095c0.096-0.213,0.506-0.296,0.918-0.378
	l-0.23-0.283l0.23-0.285c-0.05-0.213,0.664-0.295,0-0.378c1.083-0.338,1.818,0.213,3.665,0.189l-0.231-0.285l0.688-0.093
	c1.424-0.275,2.013-0.456,2.294,0.378c0.642,0.015,0.519-0.551,0.917-0.189c1.113-0.356-0.9-0.688,1.374-0.378h0.459V20.811z
	 M529.879,20.622c-0.13-0.211,2.158-0.132,0.916,0C532.412,21.15,530.75,20.96,529.879,20.622 M162.812,20.811
	C165.219,20.562,161.572,20.938,162.812,20.811 M285.627,21.189C286.14,19.881,287.681,21.977,285.627,21.189 M260.879,21
	c-1.173-0.357,1.791,0.232,1.375,0.756c-0.407-0.411-2.612,0.022-1.375,0.19c0.084,0.16-0.177,0.179-0.458,0.189h-0.915
	c0.904-0.605,0.904-0.358,0-0.568C258.29,21.235,262.398,21.858,260.879,21 M1.733,22.417l-0.689-0.093
	c-1.36,0.745-0.974-1.054-1.371-0.378c-0.281-0.011-0.546-0.029-0.462-0.19v-0.378c0.934,0.056,1.223,0.378,1.833,0.568l0.231-0.283
	l0.685,0.093C2.198,21.477,2.639,21.279,2.877,21c1.467,0.128,0.865,0.629,1.379,0.756c-0.743,0.553-1.451,0.075-2.296,0.379
	L1.733,22.417z M9.524,22.039l-0.687-0.093c-0.585,0.01-0.634,0.242-1.378,0.189l-0.227-0.096l-0.228-0.093
	c-1.313,0.695-0.961-1.44,0.455-0.568h0.463v0.189C8.347,21.364,9.61,21.508,9.292,21c0.544,0.026,1.04,0.336,1.379,0
	c0.952,0.106,0.97,0.295,0.453,0.567c0.564-0.022,1.092-0.056,0.921-0.378c0.609-0.027,1.707,0.636,1.833,0.189
	c1.082,0.053-0.527,0.506-0.459,0.757c1.25,0.35-1.391-0.049,0-0.379c-1.081,0.278-0.851,0.4-2.295,0.19
	c0,0.189,0.375,0.224,0.463,0.378c-0.136,0.449-0.916-0.344-1.378-0.378L9.524,22.039z M270.049,21.189
	c-0.149-0.334,2.563-0.338,1.832,0.189C271.47,21.231,270.84,21.173,270.049,21.189 M384.153,21.189c0.02-0.004-0.007-0.191,0-0.189
	C385.687,21.106,381.711,21.793,384.153,21.189 M640.323,21c-0.5,0.487-2.959,0.165-3.666,0.567
	C635.434,20.726,638.768,21.323,640.323,21 M139.67,22.229l-0.228,0.284c0.459-0.001,0.542,0.154,0.915,0.189l0.455,0.094
	l0.464,0.096c0.31-0.377,1.521,0.186,1.832-0.19c1.082,0.053-0.526,0.506-0.462,0.757c-0.585-0.01-0.632-0.242-1.37-0.188
	l-0.689,0.092l-0.229-0.283c-0.662,0.419-1.117-0.238-1.376,0.191v0.378h-0.918c-0.058,0.339,0.455,0.441,1.379,0.378l0.685-0.096
	l0.23,0.284c0.499-0.074,1.097-0.227,0.455,0c0.152,0.628,2-0.497,2.296,0.19l0.685-0.095l0.231,0.284
	c0.641,0.049,0.521,0.413,0.916,0.568l0.455-0.095l0.462,0.095c1.249,0.138,0.924-0.376,1.832-0.379l-0.23-0.284l0.69-0.094
	c-0.004-0.106,0.37-0.215,0.457,0c0.512-0.041,0.715-0.211,0.917-0.378l-0.686-0.221l0.227-0.347h-0.458l-0.685-0.096
	c0,0-0.689-0.092-2.064,0.096c-0.021-0.261,0.217-0.415,0.455-0.567c0.068-0.337,0.819,0.081,0,0.188
	c0.102,0.149,0.386,0.22,0.92,0.191l0.534-0.285l0.84,0.094c0.801-0.878,0.953,0.23,2.292,0.191
	c-0.92-0.661,0.202,0.016,0.457-0.379l-0.229-0.347l0.688-0.221c0.964-0.824,1.029-0.471,2.29-0.568l0.686-0.093l-0.226,0.283
	c1.057,0.374,0.509-0.048,1.373-0.19l0.459-0.093l0.459,0.093c-0.058,0.089,1.746,0.322,2.749,0.568
	c-0.051-0.012,0.809,0.009-0.459,0.189l0.227,0.283l0.232,0.284c0.317,0.797,2.085-0.182,2.29,0.569l0.228,0.282l-0.686-0.094
	c-0.1,0.357,0.517,0.418,0.458,0.757c0.903,0.057,0.909-0.256,1.375-0.379l-0.231-0.284l0.69-0.094
	c0.055-0.231,0.137-0.448,0.916-0.378l0.116-0.379c0,0,0.801-0.188-1.032-0.945c0.744-0.386,3.525-0.287,5.498,0.189
	c-0.052,0.67-1.511-0.402-1.375,0.189c-0.551-0.04-0.28-0.21,0-0.378c-1.436-0.089-1.291,0.475-2.29,0.757l0.226,0.188l0.231,0.191
	c0.182,0.205,0.55,0.453,0,0.188c-1.24,0.172,0.387,0.696,0.917,0.756c0.102-0.146,0.015-0.373,0.458-0.378l0.229-0.284l0.689,0.096
	c0.569-0.464,1.332,0.566,2.29,0.566c1.545-0.171,0.054-0.422,0.917-0.756c0.533-0.542,0.533,0.305,0,0.378
	c1.003,0.035,1.457-0.155,1.378-0.566c1.255,0.167-1.069,0.766,1.37,0.566l0.23,0.094l0.233,0.096
	c0.02-0.115,0.064-0.224,0.454-0.19l-0.229-0.284l0.689,0.096c0.784-0.344,1.801,0.057,1.834,0.566
	c0.405-0.23,2.229-0.818,2.749-0.378l0.685-0.096l-0.23,0.286c0.463-0.003,0.549,0.153,0.916,0.188
	c-1.835-0.212-1.975,0.805-3.665,0.568l0.23,0.284l-0.685-0.094c-1.805-0.062-3.515,0.568-5.499,0h-0.918v-0.379
	c-0.122-0.267-1.009-0.217-1.377-0.379c0.201,0.376,1.052,1.232-0.459,0.758l0.231,0.094l-0.231-0.094
	c-0.447,0.256-1.543,0.245-1.833,0.568c-0.857,0.474,0.27-0.183,0-0.568c-1.583,0.757-0.043-0.234-0.917-0.758
	c-0.717,0.083-0.393,0.596-1.832,0.379l0.227,0.283l-0.684-0.094c-1-0.033-1.458,0.155-1.376,0.567
	c-0.634-0.471-1.299-0.45-1.832-0.567c-0.632,0.19,0.193,0.312-0.917,0.567c-0.957-0.055,0.683-0.512-0.917-0.567l-0.228,0.284
	l-0.231-0.284c-0.683-0.032-1.687,0.068-1.831-0.189l-0.688,0.095l0.229-0.284h-0.459l-0.229,0.472l-0.229-0.472
	c-0.934-0.106-0.898-0.569-1.833-0.19c0.343,0.359,1.368,0.133,0.458,0.568h0.46v0.19c0.025,0.467-1.995,0.843-0.918,0.189
	l-0.688-0.095l0.23-0.284c-0.872-0.082-1.151-0.408-2.29-0.378c0.847,0.637-0.119,0.023-0.917,0.378l-0.228,0.284l-0.689-0.094
	c0.034,0.329-0.104,0.586-0.458,0.754c-1.84-0.209-1.59,0.048-2.749-0.377l-0.232,0.283l-0.685-0.093
	c-0.515-0.041-0.714-0.212-0.916-0.379c-0.463,0-0.547,0.153-0.916,0.188l-0.231,0.283l-0.23-0.283
	c-2.071,0.641,0.497-1.105-1.37-0.377l-0.233,0.282l-0.686-0.093c-0.071,0.222,0.081,0.537-0.459,0.565l-0.229-0.094l-0.228-0.093
	c-0.198,0.642-0.988-0.83-0.916,0.187c-1.336-0.162-0.521-0.281-0.463-0.754c-0.432,0.323-1.517,0.381-1.832,0.754
	c-0.553-0.291-2.021-0.504-0.917-0.944c-1.35,0.576-2.402,0.49-4.12,1.136l0.229,0.283l-0.691-0.095
	c-1.545-0.332-2.818,0.2-3.203-0.757l-0.688-0.096l0.688-0.093c0-0.189-0.378-0.226-0.462-0.379
	c-1.065,0.317-1.639,0.837-2.75,1.136l-0.227-0.095l-0.232-0.097c-1.88,0.326-4.838-0.404-6.872,0
	c-0.634-0.014-0.484-0.481,0.458-0.377c-0.026-0.241-0.589-0.262-0.458-0.567c-0.666,0.232-0.693,0.722-1.374,0.944
	c-0.258,0-0.521-0.151,0-0.187c-0.113-0.488-0.791,0.259-1.835,0l0.228,0.283l-0.685-0.097c-0.584-0.01-0.636-0.241-1.376-0.187
	l0.229,0.283l-0.688-0.097h-0.916l-0.229-0.094l-0.229-0.093c-0.3,0.564-0.978-0.182-1.835,0c0.122-0.268,1.008-0.218,1.376-0.379
	l0.233-0.189l0.226-0.19c1.468-0.384-2.475-0.573-2.75,0c-0.458,0-0.545-0.154-0.918-0.189v0.189h-0.455
	c-0.636,0.29-2.115-0.893-2.75,0.19l0.229,0.282l-0.688-0.093c-0.068,0.351-1.554,0.115-1.837,0.379h-0.453v-0.19
	c-0.578,0.043-0.938,0.295-0.918-0.188c-0.532,0.031-0.498,0.298-0.461,0.565c-0.513,0.021-0.71-0.273-0.917,0
	c-0.253,0-0.519-0.151,0-0.187c-0.073-0.222-0.721-0.206-1.37-0.19l-0.689,0.096l-0.689-0.096c0.231,0.369-2.272,0.682-1.834,0
	c-0.837,0.643-1.883,0.106-3.203,0.377c-0.036-0.264,1.332-0.215,0.455-0.377h-0.455v-0.188c-0.534,0.031-0.497,0.298-0.462,0.565
	c-0.678-0.217-1.156-0.217-1.831,0l-0.686,0.097l0.229-0.283c-1.372-0.006-2.161-0.346-2.296-0.758l-0.684,0.094l0.23-0.283
	c0.224-0.369-2.278-0.681-1.833,0c0.277-0.01,0.542-0.029,0.454-0.189c0.971,0.277-0.48,0.399-1.371,0.189l-0.23-0.095l-0.232-0.094
	c-0.298,0.566-0.978-0.18-1.832,0c0.029,0.115,0.068,0.222,0.458,0.189c-0.415,0.512-1.023-0.432-1.832-0.379v0.19h-0.459h-0.457
	l-0.688,0.094l0.229-0.284c-0.28-0.055-1.766-0.471-1.834,0l0.687,0.095l-0.228,0.284c-0.799,0.686-2.76-0.332-4.582,0.379
	l-0.228-0.096l-0.231-0.094c-0.663,0.546-2.055-0.689-2.748-0.189l-0.459-0.095l-0.458-0.094c-0.05,0.358-1.516,0.132-1.374,0.568
	c0.086-0.148-0.178-0.855,0.456-1.324l-0.229-0.096l-0.228-0.094v-0.188l-0.689,0.092l0.231-0.283c0.764-0.374-0.047-0.241,0-0.756
	c0.144-0.306,0.649,0.015,0.458,0.378c0.808,0.054,1.417-0.89,1.832-0.378l0.229,0.189l0.23,0.189c0.461,0,0.544-0.152,0.916-0.189
	l-0.23-0.284l0.688,0.095c1.44-0.21,1.208-0.09,2.291,0.189h0.458v0.189c0.798-0.165,1.765-0.633,0.917,0h0.458v0.19
	c0.462-0.002,0.545,0.152,0.917,0.188l0.23-0.094l0.228,0.094c0.112-0.268,0.754-0.319,0.916-0.567
	c0.517,0.172-0.028,0.423,0.916,0.758c1.138-0.151,0.437-1.343,1.375-0.379l0.802,0.046l0.573-0.236
	c1.014-0.272-0.573-0.462,0.458-0.567c-0.065-0.47,0.996,0.96,1.832,0c0.463-0.002,0.548,0.153,0.918,0.189l0.688-0.095
	l-0.227,0.284c1.062,0.082,1.229,0.835,2.286,0.379l0.232,0.094l0.229,0.094c0.009-0.288,3.393-0.415,2.75,0.191
	c0.996,0.12,1.459-0.538,1.371,0.188c0.361-0.042,0.535-0.159,0.462-0.379c0.954,0.107,0.966,0.296,0.455,0.569
	c0.588-0.011,0.634-0.242,1.379-0.19c-1.127-0.748,0.681,0.212,0.454-0.567h0.461l0.229-0.285l0.225,0.285
	c0.518-0.04,0.714-0.212,0.918-0.379h-0.454v-0.189c0.18-0.454-2.091,0.104-1.379-0.568c1.147-0.032,1.436,0.291,1.833,0.568h0.46
	v0.189c0.46,0,0.546-0.154,0.918-0.189l0.228-0.285l0.689,0.096c0.251,0,0.519-0.154,0-0.189c1.958-0.147,2.504,0.091,5.039,0v-0.19
	h0.458c0.838,0.303,1.553-0.174,2.293,0.379c0.457,0,0.543-0.154,0.915-0.189l0.688-0.096l-0.229,0.285
	c1.247-0.018,0.923,0.314,1.833,0l-0.232-0.285l0.688,0.096c0.359,0.041,0.533,0.157,0.459,0.378c0.463,0,0.546-0.154,0.917-0.189
	l0.233,0.094l0.226,0.095c0.101-0.148,0.385-0.221,0.916-0.189l0.228,0.094l0.229,0.095c0.864-0.652,2.093-0.054,3.667,0
	c-0.549,0.273-2.259,0.286-0.458,0.568c-0.418,0.515-0.851-0.505-2.29-0.19l0.23,0.284l-0.69-0.094c-0.53,0.28-0.53,0.477,0,0.757
	l0.69-0.096l-0.23,0.284c0.511,0.041,0.712,0.211,0.916,0.378l0.457-0.094l0.46,0.094c-0.142-0.59,1.324,0.481,1.375-0.188
	c0.89,0.185,1.405,0.935,2.747,0.378l0.229-0.095l0.231,0.095v-0.19l-0.918-0.284l0.918-0.282c0.029-0.117,0.068-0.226,0.457-0.19
	l-0.228-0.284l-0.229-0.283c-0.182-0.27-0.55-0.319,0-0.568c-0.514,0.041-0.716,0.21-0.918,0.378
	c-0.468-0.914,2.476-0.141,4.124-0.378v0.378c1.23,0.337,0.885-0.833,1.376-0.189l0.689-0.096l0.227,0.285
	c1.206-0.425,2.764,0.359,3.212-0.378c0.453,0,0.54,0.154,0.915,0.189v0.379c-2.077-0.085-2.05-0.085-4.127,0l-0.459-0.096
	l-0.457-0.094v0.19c-1.047,0.259-1.721-0.489-1.832,0l0.229,0.346l-0.689,0.221l1.607,0.094l-1.147,0.474v0.188l0.685-0.094
	l-0.229,0.284c0.903-0.057,0.909,0.254,1.376,0.378l0.23-0.284l0.227,0.284c0.546-0.027,1.04-0.337,1.376,0h0.462v0.19
	c1.227-0.135,1.991-1.435,3.203-0.946l0.689-0.096l-0.227,0.284v0.568c3.319,0.56,2.044-0.561,3.203-0.378l0.232-0.095l0.229,0.095
	c0.133-0.45,1.236,0.21,1.371,0.378c0.62-0.06,0.876-0.269,1.833-0.189c-0.129,0.117-1.14,0.728,0,0.756
	c0.256,0,0.518-0.152,0-0.188c0.613-0.061,1.068-0.326,2.295-0.568l-0.23-0.189l-0.232-0.19c-0.1-0.146-0.382-0.22-0.916-0.188
	c0.181-0.27,0.553-0.319,0-0.568l-0.686,0.094l0.232-0.282c-0.081-0.475,0.698-0.594,1.369-0.758l0.232-0.347l0.686-0.22
	c-0.103-0.148-0.383-0.22-0.918-0.19c0.009-0.25,0.806-0.172,0.918-0.378c0.255-0.003,0.521,0.153,0,0.189
	c0,0.189,0.374,0.225,0.461,0.379L139.67,22.229z M381.862,21.378c-0.237,0.281-0.678,0.477-0.916,0.757
	c-0.679-0.083,0.18-0.242,0-0.568c-0.371,0.037-0.455,0.189-0.917,0.189C379.157,22.258,380.325,21.061,381.862,21.378
	 M142.192,21.567C143.769,22.056,139.832,22.025,142.192,21.567 M630.242,21.567c-0.104,0.589-2.284,0.32-3.669,0.379
	C627.306,21.619,628.636,21.536,630.242,21.567 M296.625,21.756c0.909,0.315,0.586-0.017,1.832,0
	c-0.242,0.153-0.477,0.307-0.458,0.568C297,22.358,296.543,22.169,296.625,21.756 M286.543,21.946
	c1.521,0.185-0.513,0.374-0.457,0.567C284.759,22.408,286.789,22.218,286.543,21.946 M270.965,22.135
	c0.485,0.135,2.105,0.739,2.749,0.189c0.678,0.082-0.181,0.242,0,0.568c-0.412-0.147-1.036-0.204-1.833-0.19
	c0.011,0.184,0.56,0.147,0.917,0.19c-0.451,0.305-1.228,0.434-1.833,0.188C272.122,22.536,271.437,22.751,270.965,22.135
	 M373.845,23.175l0.227-0.283c-0.63,0.006-1.005-0.09-1.375-0.19c-0.141-0.436,1.321-0.21,1.375-0.567
	c0.257-0.002,0.521,0.153,0,0.189c0.452,0.53,1.225-0.275,1.832,0.189c0.488,0.48-0.962,1.079-1.372,0.567L373.845,23.175z
	 M42.293,22.892C40.127,22.595,41.678,21.955,42.293,22.892 M508.802,22.513C507.459,22.262,511.772,23.07,508.802,22.513
	 M57.871,22.607l0.46,0.095c0.355,0.043,0.903,0.006,0.916,0.19l0.458-0.096l0.457,0.096c0.359-0.042,0.531-0.159,0.458-0.379
	c1.098-0.076-0.251,0.861,1.376,0.567c0.083,0.413-0.377,0.602-1.376,0.569c0.104-0.149,0.383-0.22,0.917-0.19
	c-0.188-0.238-0.592-0.388-1.375-0.379l0.076,0.22l-0.533-0.029c-0.03,0.113-0.068,0.222-0.458,0.188l-0.689,0.22l-0.227,0.348
	c0.177,0.269,0.549,0.318,0,0.567c-0.646-0.05-0.523-0.416-0.917-0.567l-0.46,0.094l-0.461-0.094c-0.78-0.078,0.104-0.245,0-0.568
	c-0.541,0.027-1.036,0.337-1.371,0l-0.689,0.094l0.228-0.282c-0.101-0.148-0.382-0.222-0.917-0.191l-0.535,0.283l-0.837-0.092
	c-0.749,0.558-2.164-1.176-0.46-0.191l0.537-0.284l0.841,0.096c0.108-0.355,0.755,0.106,0.917-0.19
	c0.723,0.016,0.357,0.483,1.37,0.378l-0.226-0.284l0.688,0.096c0.656,0.101,1.117-0.738,1.375-0.19L57.871,22.607z M132.566,22.892
	c-0.083,0.16,0.181,0.178,0.462,0.188c-0.088,0.215-0.462,0.105-0.462,0c-0.444,0.005-0.354,0.232-0.455,0.379
	c-0.681-0.162-0.989-0.477-0.916-0.946c0.671-0.002,1.45,0.797,1.371,0C133.142,22.56,133.028,22.889,132.566,22.892
	 M263.402,23.931l0.232-0.282c-1.073,0.282-1.979-0.065-2.296,0.188c-0.787-0.278,0.599-0.399-1.375-0.188
	c0.138-0.387,0.921-0.504,1.375-0.757c0.256-0.002,0.52,0.152,0,0.188c0.347,0.358,1.369,0.132,0.463,0.569
	c1.698-0.335,1.24-0.576,3.201-0.569c0.005-0.19-0.366-0.225-0.453-0.378c-0.754-0.306,1.523,0.451,2.287,0
	c0.852-0.513-0.115,0.433-0.915,0.378c0.122,0.266,1.005,0.216,1.377,0.379c0.383,0.157-2.492,0.147-3.211,0.378L263.402,23.931z
	 M686.834,24.184l-0.686,0.221c-3.893,0.917-8.543,0.661-13.749,0.757c-0.102-0.147-0.013-0.374-0.459-0.379v-0.189l-0.227-0.189
	l0.227-0.19c-2.031-0.618-0.881-0.335-1.833-1.135c0.689,0.327,1.681-0.219,3.208-0.188c0.014,0-0.012,0.379,0,0.379
	c1.558,0.026,6.166-0.437,5.503,0.566c2.813-0.427,5.148-0.908,8.706-0.566c-0.045,0.296,0.062,0.654-0.918,0.566L686.834,24.184z
	 M37.709,23.271C38.67,22.986,34.425,24.237,37.709,23.271 M369.486,23.271c-0.007-0.009-0.453,0.001-0.453,0
	C369.285,22.636,370.955,24.278,369.486,23.271 M434.562,23.837c-0.472-0.557,2,0.748,3.207,0.19
	c-0.075,0.22,0.101,0.336,0.459,0.378c-0.113,0.205-0.91,0.129-0.916,0.378C436.275,24.518,435.807,24.017,434.562,23.837
	 M426.545,24.877l-0.69,0.096c-0.422,1.038,0.015-0.487-1.373-0.19c0.119-0.266,1.003-0.217,1.373-0.378l0.228-0.284l0.231,0.284
	c1.237-0.528,0.824,0.462,1.832,0.568c-0.687,0.625-0.54-0.634-1.832-0.379L426.545,24.877z M415.317,24.783
	c0.345,0.15,0.328,0.661,0,0.944C413.736,25.591,415.009,25.16,415.317,24.783 M406.606,25.351c-1.327-0.211,0.708-0.203,0.462,0.19
	c0.923-0.403,1.214,0.421,0.917,0.757C407.321,26.066,407.288,25.575,406.606,25.351 M464.35,25.541
	c0.209-0.523,1.617,0.278,0.915,0.566C465.194,26.138,464.379,25.468,464.35,25.541 M559.668,25.919
	c0.288-0.459,2.316-0.1,1.834,0.379C560.248,26.437,560.578,25.921,559.668,25.919 M400.192,26.107c0.111-0.486,0.789,0.259,1.833,0
	C401.959,26.578,400.473,26.162,400.192,26.107 M398.359,26.675c-0.413,0.209-1.024,0.131-1.834,0
	C396.94,26.042,397.549,26.511,398.359,26.675 M392.401,26.864c-0.389-0.035-0.43,0.075-0.458,0.188
	C390.427,27.076,392.455,26.237,392.401,26.864c0.391,0.034,0.434-0.073,0.459-0.189c0.52,0.035,0.257,0.189,0,0.189
	c-0.083,0.16,0.181,0.18,0.459,0.188C393.154,27.319,392.513,27.069,392.401,26.864 M425.397,27.81
	c-0.013,0.185-0.563,0.146-0.915,0.19c-0.088,0.16,0.18,0.177,0.458,0.188C424.315,28.718,423.457,27.593,425.397,27.81
	 M72.304,29.419l-0.687-0.096c-1.083,0.245-0.851-0.023-2.291,0.189c0.025-0.115,0.068-0.223,0.459-0.189
	c-0.025-0.115-0.067-0.223-0.459-0.189c-0.924-0.234,1.896-0.082,2.291,0l0.231-0.283l0.685,0.094
	c2.188-0.402,4.728-0.541,3.667,0.758c-1.396,0.24-2.332-0.646-2.75-0.189c-1.284-0.002,1.09-0.517-0.917-0.379L72.304,29.419z
	 M100.028,29.134c0.816-0.813,1.822-0.375,1.836,0C101.752,29.623,101.073,28.875,100.028,29.134 M420.815,28.755
	c-3.297-0.008,1.133-0.242,1.374-0.188c1.063,0.237-2.523,0.422-0.916,0.378C420.836,28.957,420.879,28.755,420.815,28.755
	 M-6.743,29.702c0.037,0.301-0.223,0.723,0.456,0.756c-0.295,0.193-1.053,0.197-0.915,0.568c-0.371-0.131-1.258-0.294-1.373,0
	C-9.398,30.736-8.329,29.628-6.743,29.702 M2.193,30.933L1.96,30.648c-1.458,0.091-1.915,0.596-3.665,0.565
	c-0.544-0.563-0.123-0.643,0.462-1.134c1.392,0.433,3.224-0.465,5.499,0.188c-0.261,0.272-0.716,0.462-1.379,0.568L2.193,30.933z
	 M-15.452,30.648C-12.768,30.899-17.111,31.541-15.452,30.648 M709.518,30.648c0.718,0.065-0.4,0.332,0.459,0.378
	c-0.684,0.441-1.119,0.289-2.29,0.188C707.492,30.693,709.396,31.038,709.518,30.648 M283.336,31.214
	c0.639-0.287,2.37-0.535,3.207-0.188c0.084,0.16-0.181,0.178-0.457,0.188C285.89,31.3,285.971,31.044,283.336,31.214 M264.319,31.5
	l0.23,0.093c0.478-0.356,2.455,0.064,0,0.189l0.228,0.284l-0.689-0.095c-1.608,0.168-0.476-0.49,0-0.568L264.319,31.5z
	 M162.354,33.106c-0.389,0.408-1.126,0.671-2.749,0.568C159.548,32.733,160.801,33.056,162.354,33.106 M-6.973,34.716l-0.229-0.094
	c-0.258,0.545-0.717-0.292-1.373-0.191l0.228,0.096l-0.228-0.096c-0.123,0.824-1.84-0.504-3.21-0.377
	c0.068-0.422,1.154,0.246,2.29,0l0.231-0.094l0.227,0.094c0.369-0.775,1.886,0.098,2.75-0.379l-0.228-0.283l0.69,0.094
	c0.457,0,0.54,0.152,0.916,0.189l0.227-0.283l0.228,0.283c0.608,0.19,1.706,0.18,1.833,0.568c0.462-0.003,0.577-0.331,0-0.38
	c0.4-0.285,0.687,0.054,1.832-0.188c-1.849,0.686,0.766,0.174,1.833,0c-0.917,0.66,0.201-0.015,0.461,0.379H1.96v0.189
	c0.462,0,0.549-0.154,0.917-0.189c1.443-0.508-1.538,0.492,0,0.568c-0.188,0.32-0.588-0.04-1.372,0l-0.23-0.096l-0.231-0.096
	C1.023,34.63,0.46,34.58,0.589,34.243c-1.173,0.021-1.604,0.346-2.294,0.566c0.161-0.719-1.743,0.455-2.749-0.566
	C-5.97,34.7-4.296,34.739-6.743,34.81L-6.973,34.716z M8.148,34.148l0.689-0.095c0.787,0.008,1.177-0.146,1.372-0.379
	c0.256,0,0.523,0.152,0,0.188c0.043,0.3,1.168,0.149,0.915,0.567c-0.667,0.006-1.449-0.797-1.37,0l0.455,0.191L9.754,34.81
	c0.017,0.261-0.217,0.416-0.462,0.57c-0.235-1.295-1.276,0.779-1.37-0.38l-0.69,0.093L7.004,34.81c-0.257,0.002-0.519-0.151,0-0.188
	c0.043-0.213-0.667-0.295,0-0.379c-0.122-0.266-1.007-0.216-1.377-0.38c0.13-0.446,1.225,0.218,1.832,0.19L8.148,34.148z
	 M606.87,35.946c-1.833,1.082,0.965-1.193,0.917,0C607.775,36.25,605.389,36.819,606.87,35.946 M603.202,35.946
	c-0.488,0.176-0.142,0.697-1.374,0.568C602.316,36.337,601.97,35.814,603.202,35.946 M-25.991,36.515
	c0.805,0.043,1.043,0.322,0.916,0.756C-25.692,37.146-25.93,36.864-25.991,36.515 M520.716,37.554l0.457,0.096
	c0.258-0.002,0.52,0.15,0,0.189c1.411,0.867,0.31,0.146-0.457,0.377c-0.356-0.041-0.536-0.16-0.458-0.377l-0.688,0.092l0.229-0.281
	c-0.893-0.75,0.578-0.598,0.459,0L520.716,37.554z M565.165,38.216C568.197,37.888,561.458,38.699,565.165,38.216 M541.797,38.783
	c0.025-0.013-0.032-0.188,0-0.19C543.994,38.433,539.619,39.812,541.797,38.783 M642.613,38.783
	C641.502,39.402,640.425,38.259,642.613,38.783 M534.002,38.783c-0.299,0.253-0.978,0.353-1.832,0.379
	C532.284,38.828,532.959,38.73,534.002,38.783 M519.34,39.162c0.041-0.052,0.431-0.202,0.459,0.378
	C519.806,39.69,518.771,39.929,519.34,39.162 M550.504,39.162c-2.442-0.414,1.631,0.104,1.375,0
	c-0.012-0.005-0.535,0.376-0.459,0.378C550.838,39.521,550.834,39.218,550.504,39.162 M545.004,39.54
	c0.151-0.115-0.267-0.238-0.457-0.189C546.513,38.851,545.608,40.034,545.004,39.54 M622.907,39.351
	c-0.459,0.302-0.433,0.762-1.374,0.379C622.923,39.513,621.417,38.985,622.907,39.351 M489.556,39.351
	c0.521,0.035,0.254,0.189,0,0.189c0.624,0.325,1.48,0.743-0.461,0.758C490.097,39.903,488.695,39.685,489.556,39.351
	 M388.277,39.729C389.496,39.238,390.658,40.05,388.277,39.729 M477.639,40.107c0.833-0.685,1.267,0.334,2.292,0.19
	C479.244,40.923,478.811,39.903,477.639,40.107 M467.098,41.147l-0.457-0.094c-0.025,0.196-0.588,0.148-0.459-0.189
	c-1.673-0.1-2.057,0.83-3.205,0.379c-0.006-0.105,0.37-0.217,0.457,0c1.248-0.173-1.394-0.424,0-0.757
	c1.075,0.06,1.716,0.298,3.207,0.19l0.227-0.287l0.69,0.097c1.249-0.216,3.99-0.483,5.04-0.188
	c-0.855,0.529-2.512,0.729-4.124,0.945c0.026-0.355-0.354-0.402-0.916-0.189L467.098,41.147z M493.223,40.486
	C492.211,41.064,490.286,40.267,493.223,40.486 M572.04,40.486C573.617,40.974,569.684,40.943,572.04,40.486 M417.149,40.864
	c0.447-0.627,0.906,0.212,1.376,0.189C418.267,41.603,417.805,40.763,417.149,40.864 M445.558,41.433
	c0.452-0.58,1.547,0.084,1.833,0.188C446.945,42.2,446.173,41.403,445.558,41.433 M440.061,41.621
	C438.552,42.218,437.427,41.058,440.061,41.621 M466.182,41.621c0.499,0.046,0.311,0.376,0.916,0.379
	C466.696,42.513,465.065,41.839,466.182,41.621 M164.645,42.566c0.114-0.488,0.79,0.261,1.832,0
	C166.409,43.038,164.926,42.622,164.645,42.566 M274.63,45.403C277.517,45.235,273.829,45.452,274.63,45.403 M239.344,45.972
	C239.953,44.864,241.508,46.657,239.344,45.972 M180.683,46.917C183.089,46.671,179.443,47.046,180.683,46.917"/>
<g>
</g>
<g>
</g>
<g>
</g>
<g>
</g>
<g>
</g>
<g>
</g>
</svg>
