<?xml version="1.0" encoding="utf-8"?>
<!-- Generator: Adobe Illustrator 16.0.0, SVG Export Plug-In . SVG Version: 6.00 Build 0)  -->
<!DOCTYPE svg PUBLIC "-//W3C//DTD SVG 1.1//EN" "http://www.w3.org/Graphics/SVG/1.1/DTD/svg11.dtd" [
	<!ENTITY ns_flows "http://ns.adobe.com/Flows/1.0/">
	<!ENTITY ns_extend "http://ns.adobe.com/Extensibility/1.0/">
	<!ENTITY ns_ai "http://ns.adobe.com/AdobeIllustrator/10.0/">
	<!ENTITY ns_graphs "http://ns.adobe.com/Graphs/1.0/">
]>
<svg version="1.1" id="Capa_1" xmlns:x="&ns_extend;" xmlns:i="&ns_ai;" xmlns:graph="&ns_graphs;"
	 xmlns="http://www.w3.org/2000/svg" xmlns:xlink="http://www.w3.org/1999/xlink" xmlns:a="http://ns.adobe.com/AdobeSVGViewerExtensions/3.0/"
	 x="0px" y="0px" width="640px" height="49.566px" viewBox="0 0 640 49.566" enable-background="new 0 0 640 49.566"
	 xml:space="preserve">
<path fill-rule="evenodd" clip-rule="evenodd" fill="#97BEBF" d="M-55.068,0.19l0.229,0.189c-0.513,0.294-1.492,0.393-1.376,0.945
	c7.737-0.488,17.259-0.481,22.483-0.567l-0.231,0.283l0.689-0.094c0.022,0.241,0.584,0.263,0.459,0.568
	c0.575-0.077,0.937-0.244,0.917-0.568l0.688,0.094l-0.227-0.283C-16.477,0.616,2.637,1.154,18.57,1.514
	c4.173,0.093,7.716,0.024,11.47,0.378c0.074,0.222-0.08,0.537,0.459,0.568c0.786-0.178,0.924-0.772,1.835-0.378
	C33.621,2,31.187,2.786,32.792,2.838c0.189-0.364,1.778-0.15,1.377-0.756c4.203,0.569,8.268,0.166,11.928,0.756
	c-0.533,0.031-0.499,0.299-0.46,0.567c2.386-0.237,4.141,1.196,5.048,0.379v-0.19l0.69-0.094l-0.69-0.095
	c-0.076-0.41,1.629-0.085,2.293-0.189c-0.779,1.205,2.206,0.855,3.673,1.136V3.405h2.296c-0.243,0.483-0.612,0.661,0.457,0.947
	h1.835l0.687-0.095l0.69-0.094c3.424,0.796,6.657,1.333,11.011,1.324c0.711,0.671-1.558,0.114-1.376,0.567
	c1.344,0.53,3.28-0.542,2.295-0.379c1.29-0.214,2.985,0.219,3.667-0.567c-0.513-0.04-0.714-0.21-0.916-0.379
	c1.149,0.241,1.437-0.096,1.835,0.19l-0.228,0.283l0.685,0.095c3.078,1.077,8.111-0.139,9.635,0.947
	c1.607-0.441,5.577-0.453,6.883,0c2.287-0.972,4.928-0.028,7.342-0.947c0.221,0.224,0.489,0.43,0.918,0.568
	c8.272-0.128,16.759-0.764,24.773-0.946c2.836-0.065,6.846-0.177,9.176,0c4.768,0.359,9.231-0.152,13.308-0.378
	c1.049,0.818,2.594-0.034,3.211,0c0.206,0.01,0.675,0.327,1.376,0.378c2.457,0.179,4.811-0.718,8.258-0.378l0.23,0.283l0.229-0.283
	c0.914,0.001,0.582,0.515,1.834,0.378c3.797-1.215,8.718-0.378,13.304-0.378c7.916,0,15.386-0.441,22.484-0.567
	c6.394-0.116,13.127,0.215,18.809,0.378c2.189,0.063,6.355-0.106,8.717-0.568c9.139,1.081,16.208-0.463,27.99,0.568
	c-0.623,0.458-0.918,0.117-1.378,0.377c0.554,0.041,0.282,0.211,0,0.379c0.654-0.076,0.774-0.228,1.378,0
	c-0.854-0.336,0.198-0.553,0.457-0.945c1.753-0.327,2.908,0.524,4.588-0.189c4.28,1.132,10.201-0.332,14.683,0.945l-0.689,0.221
	l0.229,0.347c-1.613,0.318,1.153,0.59,0.916,0l0.231-0.285l-0.231-0.283c12.883-0.093,35.675,1.368,50.01,1.892
	c0.102-0.212,0.512-0.296,0.917-0.378v0.189h0.463c8.134,0.294,14.969,1.584,24.313,0.756c1.401,0.412,2.59,0.351,4.129,0.378
	c7.306,0.137,16.629,0.002,24.318,0.379c2.926,0.142,4.829,0.441,6.424,0.567c2.199,0.174,3.474,0.296,4.588,0.378
	c0.666,0.05,0.98-0.19,1.375-0.188c1.463,0.004,2.504,0.664,3.67,0.756c-0.032-0.002,0.6-0.387,0.918-0.378
	c1.55,0.047,3.717,0.746,5.047,0.378c0.252-0.336,0.238-0.785,0.916-0.946h0.463V8.514c0.46,0,0.543,0.152,0.919,0.188
	c0.446-0.257,1.219-0.378,1.834-0.567c1.423,0.701,4.075-0.197,5.96,0c-0.245,0.668,0.393,0.973,1.381,1.135l-0.232,0.189
	l-0.229,0.189c-0.842,0.559-5.384,0.12-6.423,0.189c-0.076,1.044,7.225,0.679,9.175,1.514c2.738-0.806,5.901,0.858,7.802,0
	c-0.007-0.25-0.804-0.172-0.919-0.379l0.229-0.283l-0.229-0.284c2.617-0.24,4.849-0.279,8.718-0.568l0.691,0.096l0.225-0.285
	c1.264,0.193,1.408,1.048,2.756,1.135c0.472,0.032,1.672-0.657,2.291-0.758c2.215-0.352,5.871,0.018,7.342-0.566
	c0.803,0.176,2.465-0.005,2.294,0.566c3.768,0.159,5.364-0.686,4.13-2.08c-0.54-0.03-1.301,0.033-1.373-0.189l0.686-0.093
	l-0.23-0.285c0.852-0.143,5.382-0.592,6.885-0.378l-0.23,0.347l0.686,0.22c-3.999,0.87,0.072,3.895,4.133,2.458
	c0.428,0.486,2.899-0.174,5.043,0c0.321-0.755,2.93-1.558,3.674-1.511c-0.357,0.041-0.535,0.157-0.459,0.378
	c5.125-0.23,8.145,0.692,10.553,0.756c-0.426,0.126,0.794,1.176,1.375,1.514l-0.621,0.229l0.162,0.338
	c-0.357-0.042-0.906-0.005-0.916-0.19c-0.539,0.283-1.909,0.224-1.836,0.757l-0.691,0.222l0.232,0.346
	c-0.633-0.009-1.01,0.09-1.377,0.189c-0.945-0.205,0.647-0.771-0.459-1.324c-1.797-0.109-1.17,0.78-2.293,0.945l-0.539-0.282
	l-0.838,0.094c-0.268-0.393-0.965-0.61-1.375-0.947c-2.851,0.198-3.422,1.063-5.965,0.379l0.227-0.189l0.228-0.19
	c0.123-0.265,1.009-0.216,1.382-0.377c-0.007-0.251-0.806-0.173-0.918-0.379c-0.91,0.003-0.586,0.517-1.836,0.379
	c0-0.105-0.373-0.215-0.462,0l-0.686,0.22l0.231,0.347c-3.658,0.774-6.904-0.459-9.639,0.757c-0.657-0.106-1.12-0.296-1.373-0.568
	l0.688-0.093l-0.231-0.286h0.917v-0.567c-2.795,0.236-3.262-0.098-5.506,0.19c0.029,0.242,0.589,0.261,0.462,0.567l-0.688,0.096
	l0.227,0.282c-0.819,0.352-3.346-0.269-4.587,0.379c-1.726-0.321-2.595-0.858-3.671-0.19c-1.123-0.247-2.448,0.046-3.67,0
	c-0.918-0.032-0.953-0.337-1.375-0.378c-2.525-0.24-8.42,0.234-8.717-0.946c-0.908,0.32-3.383-0.006-2.754,0.946
	c4.624,0.07,9.643,1.219,13.305,0.756c2.756,0.983,7.256,0.618,10.553,1.514c0.488,0.134,0.844,0.482,1.378,0.567
	c1.987,0.324,5.093,0.121,6.424,0.19c2.465,0.131,4.61,1.001,6.878,0.378c0.657,0.047,0.775,0.313,1.381,0.378
	c1.043,0.054,1.723-0.044,1.834-0.378c0.629,0.191-0.195,0.313,0.918,0.569c1.401,0.138,1.352-0.327,2.754-0.191l-0.232,0.286
	l0.688-0.095c0.883,0.787,3.647-0.036,4.129,0.188c1.078-0.002-0.164-0.515-0.916-0.379c1.402-1.629,7.405-0.669,10.551-0.567
	c2.865,0.094,6.052-0.51,9.181-0.568c5.328-0.093,10.699,0.119,15.134-0.378c0.262-0.385,1.385-0.371,0.463-0.756
	c1.295,0.156,1.186-0.266,2.291-0.19c-0.488-0.714-2.717,0.008-3.207-0.378l0.229-0.283l-0.691-0.095
	c0.111-0.271,0.76-0.319,0.916-0.568l0.691,0.095l0.689-0.095c1.301,0.198,1.911,0.198,3.207,0c0.406-0.606-1.183-0.392-1.371-0.756
	c-0.867,0.141-0.317,0.564-1.379,0.189l-0.688-0.094l-0.688,0.094c-0.187-0.237-0.592-0.385-1.379-0.379l0.23-0.283l-0.686-0.094
	c-0.043-0.299-1.172-0.149-0.918-0.57h0.918V9.648c1.547-0.384,6.079,0.521,6.422-0.756c-0.576,0.041-0.938,0.295-0.918-0.19
	l0.688-0.221l-0.233-0.346c5.426-0.558,10.943-0.276,14.228-0.946c-0.515-0.394-0.496-0.4,0.458-0.189l0.228,0.283L529.676,7
	c0.619,0.321,5.117,0.019,4.13,0.378c1.208,0.29,0.882-0.416,1.833-0.567c1.868-0.296,5.661,0.809,5.963-0.567
	c-1.827-0.004-3.229-0.182-4.127-0.569c-2.536,0.395-6.134,0.964-6.881,0.569c-0.252,0-0.521,0.152,0,0.189
	c0.025,0.354-0.355,0.4-0.918,0.189l-0.231-0.283l-0.228,0.283c-0.807-0.471-0.76-0.276-1.834,0
	c-0.266-0.332,0.553-1.112-0.46-1.135l0.23-0.285l-0.23-0.283c0.557-0.04,0.282-0.21,0-0.378c1.394-0.056,3.132,0.029,3.212-0.567
	c2.488,0.188,2.748,0.901,4.127,1.134c2.107-0.393,0.716-0.338,2.753-0.756c0.886,0.077,0.362,0.732,1.835,0.567
	c1.385-0.373,2.582-0.257,2.752-0.756c2.988-0.23,7.408,0.489,6.423-0.189c1.298,0.189,1.153,0.276,1.836,0.378
	c-1.079,0.052,0.044,0.704,0.464,0.756l-0.231,0.283l0.686,0.096c-0.114,0.264-1.004,0.216-1.372,0.378l-0.463-0.095l-0.453,0.095
	c0-0.19-0.377-0.226-0.466-0.378c-0.786-0.076-1.173,0.28-1.37,0c-0.515,0.172-0.146,0.35-0.465,0.946
	c1.176,0.144,2.111,0.278,2.754-0.189l0.689,0.095l-0.227-0.285c0.866,0.083,2.764-0.258,2.291,0.379
	c1.244-0.182,3.162-0.084,2.752-0.946c-1.105,0.077-0.998-0.345-2.293-0.19V4.919h-0.916c0.387-0.701,2.746-0.8,4.125-0.567
	c1.021-0.44,0.409-0.507,0.92-0.947c-1.728-0.216-2.091,0.181-2.754-0.378c1.644-0.714,3.524-1.108,5.967-0.567
	c0.022,0.742-0.967,0.585-1.379,0.756c0.77,0.882,2.752,1.262,3.672,2.081c-1.135-0.027-1.902,0.098-2.293,0.378
	c0.652,0.047,0.773,0.312,1.377,0.379c-0.539-0.791,3.188,0.367,3.211-0.567c0-0.191-0.371-0.226-0.457-0.379l0.688-0.095
	l0.228-0.284h1.375c0.056-0.856,1.938-1.269,4.131-0.945c0.335,0.049,0.486,0.486,0.917,0.568c-0.226-0.044,1.448-0.396,1.376,0
	c-0.643,0.049-0.524,0.413-0.918,0.567c2.085,0.401,5.787,0.707,7.341,0.189l0.459,0.094l0.459-0.094
	c1.067-0.212,1.228,0.04,2.292-0.379l0.46-0.094l0.459-0.094c0.491,0.88,1.438,0.674,2.294,0.946
	c-0.213,0.718-0.25,0.433-1.835,1.135c1.364-0.011,2.325,0.557,3.215,0.189l0.455,0.094l0.464-0.094
	c1.565,1.048,3.74-0.314,4.586-0.757c0.517,1.047,2.559,0.619,3.67,1.135l-0.688,0.221l0.226,0.346
	c-0.967,0.252-1.354-0.093-2.752,0.189c-0.076,0.536,1.553,0.37,0.918,1.135l-0.687-0.092l0.231,0.282
	c-0.586,0.264-2.246,0.081-2.298,0.567c0.263,0.172,1.894,0.698,0.915,0.758c-0.261-0.396-1.727,0.272-2.75,0.188
	c-0.447-0.194-0.902-0.383-1.371-0.567l-0.691-0.094c0,0-0.69-0.097-0.228-0.663c-1.254,0.018-0.923-0.314-1.834,0
	c0.021,0.243,0.584,0.262,0.454,0.566h0.917l-0.226,0.349l0.688,0.221c-0.86,0.798-2.354,0.364-4.133,0.188
	c-0.601,1.71-4.328,0.058-7.341,0.756c-0.805-0.677-3.598-0.299-4.588,0c0.027-0.324-0.354-0.483-0.916-0.567
	c1.083,0.653-0.571,0.126-1.376,0l0.227-0.283l-0.227-0.284c0.327-0.578-0.47-0.69-0.459-1.135
	c-1.459,0.029-2.021,0.429-3.671,0.378c-0.079,0.256,2.656,0.247,0.918,0.568c0.39,0.179,1.128,0.125,2.753,0.189l-0.231,0.346
	l0.69,0.221c-0.011,0.318-0.839,1.256-1.835,0.946c-0.143-0.751-7.569-0.404-8.719-0.379l0.229-0.346l-0.69-0.221
	c0.072-0.222-0.074-0.535,0.461-0.567c0.14-0.498-1.779-0.149-1.377-0.757c-1.31,0.028-0.841,0.789-0.92,1.324l-0.621,0.23
	l0.168,0.337c-2.211-0.705-2.039,0.128-1.381,0c-1.326,0.256-1.976-0.083-3.207,0.568c-0.453-0.255-1.548-0.244-1.834-0.568v0.379
	c-3.716-0.524-5.248,0.272-7.805-0.189l0.232-0.283l-0.688-0.095c0.448-0.256,1.221-0.379,1.835-0.568h0.457v-0.188
	c1.293,0.429,2.324,0.359,3.213-0.19c-0.043-0.298-1.171-0.147-0.917-0.568c-0.982,0.291-2.5,0.131-2.753,0
	c-0.862,0.046,0.261,0.311-0.464,0.379h-0.454v0.189c-0.516-0.04-0.715-0.21-0.917-0.38c-0.947,0.242-2.33,0.304-2.297,0.947
	l-0.839-0.094l-0.537,0.284c-0.864-0.545-2.995-1.076-4.131-0.946c-0.101,0.011,0.456,0.379,0.46,0.379
	c-2.895-0.036-6.655,0.49-5.047-0.947c-1.688-0.401-2.283-0.194-3.213,0c-0.074,0.535,1.377,0.441,1.377,0.947
	c-0.901-0.057-0.909,0.255-1.377,0.377c-1.215-0.891-5.746-0.305-4.586,0.567c1.074,0.064,1.896,0.229,2.752,0.379l-0.228,0.285
	l0.687-0.096c0.182,0.271,0.55,0.32,0,0.567l-0.687-0.093l0.228,0.283c-2.041,0.394-2.426-0.272-3.67,0v-0.568
	c-0.576,0.043-0.938,0.295-0.916-0.189c-1.646-0.047-1.681,0.569-3.213,0.567c0.998,1.254,7.051,1.079,8.717,0.568l0.229,0.284
	l0.23-0.284c1.889,0.68,5.822,0.205,8.257,0c0.464,0.252,0.434,0.705,1.379,0.758c1.295-0.533,2.785-0.745,4.587-0.758
	c2.215-0.016,6.389,0.145,6.882,0c0.332-0.096-0.88-0.353,0-0.378c0.013,0,0.584,0.37,0.915,0.378
	c2.563,0.059,6.324-0.495,9.176,0.19c2.985,0.031,2.512-1.362,5.967-1.136c-0.354,0.965,1.519,0.088,2.297,0.757
	c2.689-1.561,10.753,0.233,13.303-0.379c-0.484-0.009-0.362-0.241,0.46-0.188l0.228,0.284l0.23-0.284
	c1.705-0.664,4.396,0.298,6.421-0.379c0.506,0.491,2.862-0.115,4.134,0.567c1.489-0.698,3.121,0.052,5.043,0.19
	c0.051-0.213-0.664-0.293,0-0.378c1.867,0.592,8.297-0.493,10.555,0.567c0.094-0.211,0.507-0.292,0.918-0.379
	c-0.215,0.594,1.152,0.534,1.836,0.758c-1.359-0.691,2.376,0.385,4.587,0c-0.131-0.431,0.108-0.711,0.919-0.758
	c0.338,0.428,2.571,0.076,3.668,0.19c0.303,0.506,1.38,0.693,2.295,0.946c-1.158-0.529,1.456-0.353,1.835-0.188
	c-0.706,0.073-0.069,0.227,0.459,0c0.404,0.606-1.511,0.257-1.378,0.754c0.958,0.112,1.312,0.47,2.754,0.379
	c-0.588-0.445,0.063-0.351-0.458-0.945c2.585-0.577,2.737,0.056,5.963,0c0.488,0.897,3.306,2.431,6.426,2.27
	c0-0.189-0.375-0.225-0.462-0.379c0.791-0.01,1.179,0.147,1.379,0.379l-0.23,0.285l0.687,0.094c-0.1,0.149-0.383,0.22-0.917,0.19
	c0.461,0.525,1.853,0.242,2.751,0.19h0.464v-0.19c1.965,0.321,3.942,0.643,6.877,0.568c1.777-1.637,4.968,0.396,6.886-0.191
	c0.18,0.494,1.37,0.572,1.376,1.136c-2.752,0.092-4.504,0.06-6.427-0.378c-1.664,0.725-6.375,0.137-8.712,0
	c0.253,0,0.519-0.154,0-0.189c-0.49,0.867,1.957,1.509,2.291,1.892c0.304-0.256,0.982-0.355,1.834-0.38l0.232,0.283l0.684-0.092
	c0.261,0.272,0.717,0.461,1.383,0.567c0.221-0.223,0.487-0.429,0.916-0.567c0.776,0.724,1.896-0.193,2.751-0.191
	c0.06,0,0.768,0.343,1.375,0.38c2.959,0.175,5.721-0.508,9.637-0.38c0.036,0.708-1.98,0.574-1.376,1.515
	c3.962-0.894,10.601,0.826,15.139-0.568c0.536,0.347,1.199,0.64,1.835,0.946c1.998-0.392,3.433,0.115,5.506,0.189
	c5.194,0.181,14.203-0.078,20.648,0.378c6.531,0.461,12.723,0.013,18.812,0.757l-0.69,0.221l0.229,0.347
	c-6.284,0.194-12.32-0.666-19.726,0.379c0.355,0.041,0.529,0.158,0.457,0.378l-0.621,0.229l0.164,0.337
	c-1.897-0.351-1.361,0.143-1.836,0.379c-3.283,0.154-5.594,0.014-11.015-0.189c-0.02,0.241-0.585,0.262-0.455,0.568
	c2.067,0.184,4.655,0.499,7.797,0.568c0.733,0.017,1.536-0.187,2.297-0.19c0.686-0.004,1.554,0.346,2.293,0.377
	c5.323,0.236,10.819,0.521,15.139,0.57c-0.353,0.041-0.901,0.006-0.916,0.188c3.87-0.134,6.018,0.53,8.259,0.565l-0.229,0.349
	l0.69,0.222c-4.289,0.54-10.227,0.713-13.768,0.944c-3.226,0.21-7.018-0.199-10.093,0c-0.784,0.051-1.643,0.493-2.294,0.567
	c-1.61,0.186-3.194-0.11-4.588,0c-0.796,0.063-1.119,0.355-1.832,0.379c-0.688,0.024-1.652-0.19-2.301-0.189
	c-5.1,0.012-9.608,0.704-13.303,0.757c0.256,0,0.523,0.153,0,0.188l-0.842-0.094l-0.535,0.283c-1.25,0.139-0.924-0.375-1.835-0.378
	l-0.686-0.094l0.226,0.282c-2.228,0.462,1.313,0.109-0.916,0.568l-0.689-0.095l0.229,0.284c-1.437-0.213-1.214,0.055-2.293-0.189
	l-0.228-0.188l-0.232,0.188c-0.653-0.072-0.771-0.226-1.376,0v-0.568c0.43,0.117,1.694,0.441,1.376-0.188
	c-1.624-0.1-1.206,0.453-2.752,0.757c0.513,0.393,0.495,0.401-0.459,0.189c-0.625,0.335,1.67,0.496,2.296,0.566l0.687,0.096
	l-0.229-0.285c1.549,0.289,2.042,0.402,3.671,0v0.189h0.459c0.534-0.156,1.229-0.248,2.293-0.189
	c-0.105-0.355,0.517-0.416,0.459-0.755l0.843,0.094l0.534-0.284c1.266-0.516,0.429,0.277,1.375,0.379v0.189h0.461
	c-0.027,0.244-0.59,0.263-0.461,0.566c0.461,0,0.55,0.155,0.917,0.189c0.616-0.189,1.39-0.311,1.836-0.568
	c0.527-0.594-0.72-0.459-0.917-0.756c1.979,0.258,1.74-0.021,4.589,0c1.007,0.469,1.214,1.268,3.213,1.324
	c0.182-0.325-0.682-0.484,0-0.568c1.817,0.135,0.133,0.228,2.29,0.379c-0.374-0.533,0.651-0.49,0.464-0.944
	c0.797,0.015,1.423-0.042,1.837-0.19c0.229,0.932,1.676,0.79,2.287,1.893c-0.354,0.041-0.529,0.158-0.455,0.377
	c-4.806-0.557-5.966,1.849-11.473,0.568c0.131,0.432-0.109,0.711-0.917,0.758c-0.535-0.735-1.199-0.053-1.835,0.189
	c-0.299-0.255-0.979-0.354-1.836-0.38c-3.359,0.883-5.507-0.478-8.258,0.946c4.097,1.193,15.779-0.076,18.353,2.082l-0.229,0.189
	l0.229,0.189c-0.279,0.01-0.542,0.027-0.457,0.189l-0.688-0.096l-0.229,0.285c-0.282,0.009-0.544,0.027-0.461,0.189
	c-0.28-0.011-0.544-0.029-0.456-0.189c-0.804,0.355-1.771-0.26-0.918,0.378c0.278-0.013,0.543-0.03,0.453-0.188
	c0.284,0.01,0.548,0.027,0.465,0.188c0.457,0,0.54-0.153,0.917-0.188l0.229,0.281l0.688-0.093c1.208-0.242,0.969,0.196,2.29,0.188
	c0.199-0.732,0.506-0.675-0.455-1.135c2.313,0.025-0.675-0.959,1.374-0.947c0.194,0.644,6.197-0.576,8.262,0.381
	c-0.488-0.01-1.168,0.088-0.46,0.188c1.596-0.058-0.039-0.514,0.918-0.569c1.558,0.199,3.927-0.172,5.047,0.381v0.188h0.458
	c-0.275,0.39-0.709,0.716-2.293,0.567l0.227-0.285l-0.687,0.096c-0.808,0.391-1.422,0.165-1.835,0.379
	c0.134,0.123,0.014,0.54-0.917,0.756h-0.458v0.189c-1.066-0.501-1.229,0.503-2.295,0c0.646,0.631-1.531,0.628-1.834,1.135
	c-0.079-0.221-0.728-0.205-1.379-0.189l0.229-0.188l-0.229-0.188c0.003-0.191-0.369-0.226-0.457-0.381
	c-0.63,0.19,0.194,0.312-0.915,0.569l-0.691,0.093l0.691,0.096c-0.747,0.509-1.454,0.281-2.301,0
	c1.182,0.744-1.565,0.127-1.833-0.188c-0.104,0.146-0.013,0.372-0.457,0.378c-0.234-0.632-2.133-0.089-3.213-0.189
	c-0.263-0.024-0.383-0.377-0.919-0.377c-0.008,0,0.384,0.384,0.464,0.377c-1.924,0.175-6.513-0.245-8.722-0.377
	c-0.924-0.057-2.42,0.054-1.376,0.377h-1.835v0.189l-0.227-0.096l0.227,0.096c-1.84-0.404-3.304-0.357-4.589,0.189l-0.226-0.285
	l-0.233,0.285c-1.632,0.294-0.273-0.643-1.376-0.567c-0.777,0.81-5.934,0.07-5.046,0.757c-1.777-0.195-1.889,0.098-3.211-0.189
	c0.337,0.516-0.914,0.379-0.918,0.757c1.563,0.54,3.873,0.369,3.212,0.378c-0.512,0.04-0.716,0.209-0.918,0.379
	c1.212-0.059,1.184,0.395,1.377,0.757c-1.803-0.002-3.616,0.011-5.964,0c-3.693-0.019-4.024,0.036-5.506-0.19
	c0.92,0.388-0.202,0.371-0.463,0.757c1.114,0.385,1.667,0.802,1.382,1.135c-0.695,0.222-2.401-0.435-3.218-0.378
	c-0.121,0.01,0.73,0.452,0,0.378c-1.2-0.122-1.913-1.315-3.668-0.378c0.498,0.045,1.104,0.311,0.462,0.378
	c-0.664-0.038-1.026-0.342-2.753-0.378v0.756c-3.707-0.4-6.993,0.701-8.721-0.378c-0.236,0.281-0.679,0.476-0.916,0.759
	c0.671-0.273,1.455-0.146,1.375,0.377c-0.686,0.033-1.693-0.066-1.835,0.19c0.183,0.269,0.553,0.317,0,0.565l-0.688,0.096
	l0.23,0.283c-5.252,0.56-9.587,0.363-15.599,0.379c0.918-0.002-0.329,0.179-0.459,0.188c-2.789,0.218-5.61-0.008-8.716,0
	c-4.914,0.015-9.719,0.792-12.391,0.378c0.256,0.002,0.52-0.152,0-0.189c-2.711,0.441-6.726-0.219-8.259,0.568
	c0.044-0.584-1.386-0.563-2.751-0.568v0.568l-0.688-0.094l-0.23,0.283c-0.585-0.01-0.635-0.243-1.376-0.189
	c-0.074,0.225,0.078,0.539-0.46,0.567c-1.141-0.508-1.09-0.28-1.375,0c-1.745-0.574-2.745-0.056-4.588-0.378
	c-0.047,0.213,0.669,0.294,0,0.378c-0.824-0.321-3.121-0.374-3.213-0.946c-0.096,0.229-0.508,0.117-0.916,0l0.23-0.281l-0.689,0.092
	c-1.206,0.492-0.36-0.305-1.836-0.188c-0.002,0.192,0.373,0.226,0.459,0.378c-4.239-1.191-11.442,0.188-15.598,1.135
	c0.748-0.895-1.228-0.748,0.92-0.946c-0.594-0.15-2.576-0.677-2.755-0.378c0.817,0.094-0.202,0.203-0.461,0.378
	c0.851,0.03,0.28,0.642,0.915,0.758c-0.717,0.017-1.588-0.024-1.371,0.378c-2.023-0.436-3.625-1.086-5.051-0.756
	c-0.35,0.081,0.882,0.329,0,0.378c-0.051,0.003-0.52-0.422-0.918-0.378c-1.422,0.158-4.124,1.283-5.963,0.189
	c-0.896,0.584-2.829,0.088-4.128,0.188c-0.243,0.021-0.911,0.396-1.376,0.378c-0.176-0.006-0.445-0.387-0.918-0.378
	c-0.659,0.012-0.771,0.369-1.377,0.378c-0.62,0.012-2.955-0.766-2.752,0.189c-3.035-0.078-6.535,0.256-8.721,0.188
	c-1.117,0.333-9.938,0.117-13.303,0.569c-1.529-0.711-4.891-0.53-8.26-0.758c1.138,0.367-0.405,0.551-1.835,0.568
	c-3.828,0.047-8.812,0.639-11.47,0c-0.42,0.331-1.606,0.346-2.293,0.567c-0.207-0.767-1.662,0.161-2.293-0.567
	c-4.705,0.362-9.386-0.156-15.599,0c-0.296-0.744-1.573-0.06-3.215,0c-1.847-1.008-2.84,0.254-5.044-0.568
	c0.167,1.047-5.018-0.809-8.26,0.379c-0.795-0.604-2.786-0.178-4.131-0.568c0.305,0.089,0.354-0.344-0.457-0.378
	c2.302,0.099-5.084,0.455-2.295,0.567c-2.301-0.14-3.006,0.119-3.211-0.379c-2.908,0.885-7.893-0.595-11.932-0.188
	c-0.04,0.006-0.48,0.741-0.917,0.188c0.988-0.166-0.276-0.097-0.918-0.188c0.44,0.063-0.369-0.511-0.918-0.188
	c0.103-0.059-0.317,1.008-1.372,0.188c-0.27-0.207,0.367,0.167-1.381,0.188c-2.912,0.039-7.014-0.694-10.092,0
	c-0.102-0.145-0.012-0.371-0.459-0.377c-0.119,0.736-3.393-0.24-4.588,0.377c-0.18-0.324,0.683-0.484,0-0.566
	c-0.459,0.781-1.375,0.275-2.754,0.756c0.129-0.658-2.846,0.15-2.293-0.566c-2.183,0.403-4.432-0.324-5.963-0.379
	c0.021,0.002-0.022,0.379,0,0.379c-2.106-0.051-3.873,0.025-5.507-0.569c-0.003,0.192,0.373,0.226,0.459,0.38
	c-8.308,0.023-16.631,0.195-23.858-0.38c-0.955,0.421-1.933,0.356-2.752,0c0.982,0.586-1.521,0.046-2.754,0
	c-4.655-0.166-8.908,0.03-11.47,0c-0.018-0.731-2.745-0.173-1.375-0.188c-8.192,0.092-20.543-0.738-27.071-0.378
	c-0.102-0.146-0.011-0.372-0.459-0.378c-2.062,0.126-5.01,0.354-5.505-0.379c-2.796,1.381-8.474-0.68-9.633,0.189
	c0.111-0.412-1.948-0.412-1.837,0c-3.136-0.297-6.479-0.006-8.26-0.758c0.594,0.408-0.564,0.516-1.373,0.189
	c-0.538-0.215,0.634,0.137-0.461,0.379c-1.599,0.357-4.409-0.38-4.588-0.379c-0.03,0,0.039,0.376,0,0.379
	c-1.435,0.139-5.435-0.148-5.961-0.379c0.129,0.057,1.373-0.364,0.455-0.376c0.033,0-2.085,0.592-1.835,0.565
	c-1.947,0.201-3.83-0.343-6.423-0.379c0.224,0.002-0.405,0.371-0.458,0.379c-0.25,0.049-1.869-0.209-2.296-0.189
	c-0.678,0.035-3.25,0.6-5.045,0c-0.597-0.469,1.347-0.784,0-0.943c-1.168,0.018-1.085,0.703-0.459,0.943
	c-1.972-0.209-0.585-0.087-1.377,0.189c-4.501-1.008-6.021,0.102-10.092-0.565l-0.228-0.284l-0.23,0.284
	c-0.875-0.081-0.831-0.542-2.295-0.379c-0.004,0.188,0.371,0.225,0.458,0.379c-4.681,0.032-5.273-0.746-9.636-0.567v0.567
	c-1.424-0.25-1.309,0.05-3.209,0c-0.105-0.646-1.456-0.593-1.835-0.19c-3.659-1.496-11.787-0.515-16.061-1.136
	c-1.227,0.716-0.859,0.542-0.916,1.136c-2.277,0.079-0.26-0.566-1.377-0.758c-5.964-0.367-11.244-0.96-16.057-0.378
	c-1.379-0.868-3.703-0.157-5.968-0.378c-0.266-0.393-0.881-0.645-1.834-0.757c-0.311,0.682-2.898,0.075-3.208-0.378l0.687-0.221
	c0,0-0.232-0.347,0.685-0.347c-0.025-0.116-0.064-0.226-0.455-0.188c0.022-0.116,0.065-0.225,0.455-0.189
	c-0.187-0.324-0.591,0.04-1.372,0c-0.004,0.189,0.368,0.223,0.455,0.378l-0.686,0.22l0.231,0.348
	c-0.802,0.171-1.771,0.422-0.917,0.757c-1.922,0.282-2.594-0.201-4.588,0.378l-0.232-0.284l-0.686-0.094
	c-1.531-0.417-5.231,0.413-4.592,0.946c-1.559-0.608-3.207-0.176-4.586-0.946c-1.883,0.36-2.627,0.401-5.506,0.567
	c-0.018-0.262,0.217-0.416,0.458-0.567c-2.492-0.249-3.783-0.074-6.422,0.188c-0.05-0.229-0.137-0.449-0.916-0.379
	c0.036-0.611,1.172-0.988-0.919-1.134l0.232-0.284l-0.692-0.094c0.952-0.695-0.508-0.727-1.374-1.136
	c-1.823,0.298-0.592,0.677-1.837,1.136l-0.23,0.282l0.686,0.096c-3.118,0.12-7.302,0.123-10.549-0.757
	c0.355-0.044,0.903-0.006,0.919-0.188l0.226-0.19l-0.226-0.188c1.053,0.057,0.506-0.548,1.37-0.568
	c-0.119-0.447-1.702,0.016-1.833,0.189l-0.686,0.094l0.23,0.285c-1.141,0.164-3.314,0.467-2.296,0.945
	c-2.427-0.179-4.664-0.033-5.965-0.757c-1.046,0.458-1.625,0.228-3.211,0.19c-0.051,0.229-0.137,0.446-0.917,0.377l-0.536-0.285
	l-0.84,0.096c0.004-0.189-0.371-0.225-0.46-0.378l0.803-0.188l-0.803-0.19c0.026-0.116,0.069-0.226,0.46-0.188l0.231,0.283
	l0.228-0.283c2.138,0.166-0.311-0.625,0.917-0.568c0.141-0.383-1.326,0.039-1.376,0.189h-0.46v0.189
	c-1.331-0.271-0.514-0.145-0.459,0.378l-0.685,0.095l0.228,0.284c-1.409,0.251,0.799,0.866,1.376,0.378l0.534,0.283l0.842-0.094
	c0.136,0.386,1.241,0.371,1.376,0.756l-0.687,0.094l0.228,0.285c-2.243-0.42-5.494,0.242-8.716-0.188
	c0.979-0.062-0.073-0.825-0.459-0.946c-1.709,0.199-1.482-0.398-2.293-0.567c-0.025,0.819-2.935,1.479-3.211,0.567
	c-0.053,0.485-0.261,0.902-0.919,1.135c-0.835-0.239-1.667,0.018-3.671,0c-0.342-0.582,1.259-0.363,0.918-0.945
	c-1.445,0.215-1.114-0.299-1.835-0.379c-0.404,0.637-2.164-0.037-2.752,0.757l-0.69-0.096l0.232,0.284
	c-1.912,0.209-6.448,0.24-8.262-0.566c-0.415,0.332-1.603,0.346-2.293,0.566c0.462-0.568-1.024-0.334-1.835-0.377l0.23-0.285
	l-0.23-0.283c0.4-0.389-2.335-0.378-0.919-0.566c-0.19-0.015-3.684-0.021-2.293,0.379h0.459l-0.227,0.281l0.227,0.285
	c-2.912,0.016-5.704,0.204-8.259,0c-0.841,0.281-1.553,0.507-2.293,0l0.231-0.285l-0.231-0.281c2.009-0.588-2.514-0.236-0.917,0
	l-0.228,0.344l0.686,0.223c-0.181,0.913-2.245-0.044-3.671,0.189c-0.634,0.824-2.221,0.736-3.67,0.377
	c0.217,0.783-2.146,0.502-3.209,0.757l0.16-0.339L71.333,42c0.046-0.214-0.668-0.297,0-0.379c-0.307-0.399-2.671,0.438-3.213,0
	l-0.689,0.095L67.203,42c-0.657-0.046-0.772-0.312-1.377-0.379l-0.229,0.095L65.37,41.81c-0.114-0.289-0.756-0.027-0.918,0.19
	l-0.69-0.097l0.229,0.285c-1.4-0.139-1.671,0.193-2.752,0.189c-0.538-0.348-1.197-0.64-1.835-0.945v-0.379h-0.916
	c1.22-0.607,0.249-1.008-0.46-0.189l-0.689-0.096l-0.688,0.096h-0.456l-0.692-0.096l0.227,0.285
	c-1.436,0.088-1.293-0.477-1.834-0.756c-0.253-0.002-0.522,0.152,0,0.188c-0.863,0.69,0.181,0.418-1.834,1.135l-0.839-0.096
	l-0.538,0.284h-0.46l-0.227-0.284l-0.689,0.096c-0.026-0.243-0.586-0.262-0.459-0.567c-0.586,0.011-0.632,0.242-1.378,0.189
	c0-0.191,0.373-0.225,0.458-0.379l0.693-0.096l-0.693-0.092c0.659-0.553,0.357-0.215-0.916-0.19c0.922-0.66-0.203,0.017-0.458-0.379
	c-1.329,0.106,0.706,0.295,0.458,0.569l-0.685,0.092l0.685,0.096c0.026,0.324-0.351,0.482-0.917,0.568
	c0,0.188,0.373,0.224,0.459,0.377l-0.687,0.094l0.228,0.285h-1.376c-0.673-0.416-1.513-0.764-2.753-0.945l-0.229-0.285l-0.688,0.096
	c-0.253,0-0.521-0.152,0-0.189c-0.687-0.623-0.538,0.634-1.835,0.379l-0.46-0.096l-0.458,0.096
	c-0.025-0.117-0.069-0.225-0.458-0.189l0.23-0.285l-0.688,0.096c-0.102-0.146-0.015-0.373-0.461-0.378
	c-0.597,0.515-1.262,0.106-0.917,0.757c-0.324-0.439-2.155,0.482-2.753,0c0.921,0.385-0.201,0.371-0.459,0.757
	c-0.95-0.114-3.012,0.233-3.211-0.19l0.686-0.094l-0.227-0.283v-0.189l0.686,0.094l-0.227-0.283c1.527,0.129,0.74-0.393,0.459-0.567
	c-0.257-0.002-0.521,0.153,0,0.19c-0.101,0.146-0.385,0.219-0.918,0.188l-0.232-0.284l-0.227,0.284h-0.919l-0.228,0.094
	l-0.228,0.096c-0.342-0.426-1.749,0.266-1.836,0.567l-0.692-0.096l-0.684,0.096c-0.517-0.041-0.716-0.211-0.918-0.378
	c-0.544,0.092-1.04,0.2-1.376,0.378l-0.69,0.095L22.241,42c-6.546-0.382-8.016,0.54-13.768-0.19l0.233-0.284l-0.691,0.096v-0.378
	c-0.628-0.01-1.003,0.09-1.375,0.189v0.188l-0.686-0.096L6.18,41.81C2.03,42.197-0.107,42.699-3.911,42
	c-0.225-0.599,0.826-0.67,0.457-1.323c-2.123-0.403-5.436-0.262-7.34-1.326l0.232-0.188l-0.232-0.188
	c1.069-0.106,1.069-0.571,0-0.19c-0.436-0.353,1.372-0.634,0-0.756c-0.026,0.241-0.588,0.262-0.459,0.565
	c-1.025-0.492-2.09-0.242-3.21-0.377c0.588,0.071,0.128-0.338-0.459-0.377c-1.576-0.111-5.137,0.287-7.8-0.758
	c-0.047,0.211,0.664,0.293,0,0.379c-1.975-0.729-3.035-0.318-5.965-0.379c-0.046-0.587,0.561-0.904,0.919-1.324
	c-0.81,0.575-1.424-0.517-1.836,0c0.473,0.026-1.303,0.709-1.375,1.135c-2.082-0.691-2.927,0.004-3.216-0.758
	c-0.094,0.229-0.506,0.116-0.917,0c-0.043,0.213,0.667,0.293,0,0.381c-0.772-0.403-3.151-0.303-6.423-0.758l0.232-0.189
	l-0.232-0.188c0.491-0.179,0.144-0.699,1.376-0.57l0.458,0.095c0,0,0.46-0.095,1.836-0.282c-0.628-0.01-1.004,0.088-1.376,0.188
	l-0.229-0.283l-0.689,0.096c-1.512-1.143-6.751-0.392-7.341-1.326c-0.711,0.273-1.788,0.399-2.751,0.567
	c-2.286-1.226-6.55-0.843-8.717-1.136c0.463-0.002,0.579-0.329,0-0.377c-0.884,0.886-2.203-0.101-3.67-0.379
	c-0.694,0.518-1.575,0.207-3.209,0.567c-0.534-0.655,0.21-0.348-1.379-0.567c-0.048,0.213,0.666,0.295,0,0.379
	c-1.212-0.211-2.948-0.484-5.046,0c-0.49-0.194-1.91-0.932-3.211-0.947c-0.022,0,0.399,0.391,0.458,0.379
	c-1.492,0.298-4.655,0.367-2.293,0.379c-0.102,1.246-2.895-0.085-3.671,0.378c-0.094-1.726,0.369-2.97,5.964-2.271
	c0.783-0.801,1.992-1.098,3.213-0.945c0.245-0.271-1.791-0.461-0.46-0.568c2.032,0.346,4.105,0.037,5.963,0.758
	c0.312-0.439,1.527-0.506,1.834-0.946l0.687,0.096l-0.227-0.284c1.568-0.172,3.113-0.355,4.589-0.568
	c-3.404,0.205,0.497-0.295,0-0.567c-0.01-0.004-4.418-0.233-4.589-0.567c-0.023,0.116-0.068,0.224-0.46,0.189l-0.229-0.283
	l-0.687,0.094c-0.534-0.031-0.499-0.3-0.456-0.567c0.537-0.029,1.297,0.032,1.372-0.188c-1.057-0.328,0.551-1.149,1.378-1.325
	c-0.516-0.04-0.715-0.21-0.918-0.379c2.081,0.355,0.627-0.752,2.296-0.566l0.227,0.282l0.231-0.282
	c0.662,0.21,1.119,0.204,1.374-0.19l0.689,0.094l-0.228-0.282c4.435-0.415,5.884,1.124,9.175,0.188
	c-1.161-0.757-3.583,0.123-5.046-0.567l0.689-0.096l-0.231-0.283c-0.141-0.435,1.325-0.21,1.377-0.567
	c-1.045,0.051-1.724-0.047-1.835-0.379c2.005-0.506,2.596-0.184,3.667-0.567c1.408-0.502,6.652,0.293,10.095,0
	c0.649-0.058,0.771-0.324,1.376-0.378c0.879-0.079,2.104,0.903,2.753,0.756c-0.816-0.7,1.254,0.035,0.92-0.567
	c2.163-0.019,6.955,0.448,7.799-0.189c-1.173,0.231-2.058-0.557-0.917-0.946c-3.235-0.575-4.444-1.047-9.181-0.758l0.233-0.283
	l-0.689-0.095c0.178-0.271,0.554-0.319,0-0.567c1.138,0.027,2.228,0.034,2.294-0.378c-2.493,0.07-0.528-0.329,0-0.569
	c-2.116-0.481-0.848-1.351-2.754-1.703c2.132-1.055-1.493-2.53-2.751-2.459c1.619-0.45-0.13-1.162,0.917-1.702
	c-0.629,0.008-1.003-0.091-1.377-0.19l0.231-0.283l-0.231-0.284c0.283-0.01,0.546-0.029,0.46-0.189
	c-0.441-0.384-1.76-0.409-3.213-0.379c0.175-0.585,1.565-0.734,0-1.135c-1.523,0.445-2.832-0.606-4.586,0
	c-0.219-0.223-0.488-0.428-0.917-0.567c-4.194-0.289-2.8-2.882-6.883-3.216c-1.085,0.058-0.852,0.657-2.295,0.568
	c0.024-1.519-3.091-2.809,0-4.163c-0.828-0.366,0.374-0.959,0.92-1.324c2.235,0.365,2.401,0.25,4.587,0L-55.068,0.19z M38.756,4.352
	L38.07,4.571l0.228,0.348c-0.458-0.002-0.546,0.154-0.916,0.189c0.004,0.251,0.803,0.173,0.916,0.379
	c0.534-0.033,0.498-0.3,0.458-0.568l0.233-0.284c0,0-0.233-0.283,1.604-0.472c0.537-1.049-1.789-1.029-3.211-0.758
	c-0.049,0.212,0.667,0.296,0,0.379C38.134,4.39,38.756,4.352,38.756,4.352 M4.804,4.352C3.32,4.118,4.454,4.963,2.97,4.729
	C3.115,5.13,5.144,4.77,4.804,4.352 M-1.16,4.541C-0.152,5.119,1.78,4.321-1.16,4.541 M16.278,4.729
	c0.647,0.538,1.48,0.245,3.669,0.379C20.225,4.362,17.426,4.885,16.278,4.729 M232.829,5.108
	C233.913,5.716,234.685,4.443,232.829,5.108 M46.556,5.108c-0.183-0.47-1.777-0.012-1.376,0.379
	C46.198,5.59,45.832,5.125,46.556,5.108 M-51.168,5.675c-1.193-0.112-1.651,0.076-1.377,0.569
	C-52.116,6.04-50.851,6.184-51.168,5.675 M275.042,6.622c1.769-0.439-0.549-0.224-0.462,0
	C274.696,6.909,274.974,6.637,275.042,6.622 M48.85,6.433c-1.644-0.512,0.396,0.561,0.459,0.378
	C49.392,6.573,49.645,6.678,48.85,6.433 M61.239,7.189C61.153,7.029,61.417,7.01,61.699,7c-0.579-0.582-1.382,0.211-0.46,0.378
	C61.761,7.342,61.491,7.189,61.239,7.189 M-22.952,7.663l0.23,0.282c0.297,0.273,4.702,0.909,5.506,0.19
	c-1.145-0.16-2.46-0.248-4.129-0.19V7.756h-0.458c0.024-0.24,0.586-0.261,0.458-0.567c-0.578,0.078-0.94,0.244-0.919,0.567
	L-22.952,7.663z M132.352,7.378C132.037,8.505,134.306,7.818,132.352,7.378 M1.592,10.595c0.202,0.231,0.59,0.388,1.378,0.377
	C2.769,10.74,2.385,10.584,1.592,10.595 M412.225,11.539c-0.087-0.213-0.463-0.103-0.463,0c-0.391,0.037-0.434-0.072-0.456-0.188
	C409.892,11.588,411.815,11.92,412.225,11.539 M23.387,12.013L22.7,12.107c-0.119-0.293-1.008-0.131-1.376,0
	c-0.004,0.105,0.372,0.216,0.458,0c0.459,0,0.547,0.154,0.918,0.189l-0.231,0.285l0.69,0.093c0.661-0.105,1.119-0.294,1.376-0.567
	c0.353,0.043,0.902,0.006,0.919,0.189c1.471-0.212-0.443-0.539-1.378-0.378c-0.105,0.147-0.014,0.374-0.46,0.378L23.387,12.013z
	 M30.04,12.864c0.537-0.03,0.386-0.343,0.459-0.568c-1.021-0.104-0.655,0.363-1.376,0.378C29.286,12.971,29.931,12.51,30.04,12.864
	 M56.65,13.053L56.422,13.4l0.689,0.222c-0.704,0.581,2.995,0.581,2.293,0c1.637,0.366-0.446,0.624,2.295,0.378
	c-0.513,0.392-0.495,0.398,0.458,0.188v0.188h0.459c0.737,0.083,1.539-0.703,0.458-0.754l-0.231,0.093l-0.227,0.095v-0.188
	c-0.535,0.237-2.995,0.432-2.293-0.38c-0.621,0.06-0.879,0.27-1.835,0.19c1.218,0.482-0.802,0.446-1.377,0.19l0.228-0.349
	c0,0-0.688-0.22-0.688-0.787C54.662,12.564,56.65,13.053,56.65,13.053 M42.657,13.337l0.688,0.095
	c0.042,0.299,1.168,0.15,0.918,0.568c0.577-0.078,0.938-0.244,0.917-0.568c1.715,0.082-0.34,0.836,1.376,0.378
	c-0.473-0.868-1.817-0.146-2.293-0.378l0.23-0.284l-0.23-0.284c-1.137-0.711-1.626,0.037-1.378,0.189L42.657,13.337z M66.745,13.81
	c-0.029-0.014,0.032-0.185,0-0.188C64.541,13.461,68.924,14.837,66.745,13.81 M-19.969,14c0.389-0.035,0.434,0.073,0.458,0.188
	C-18.575,13.225-22.26,14.933-19.969,14 M74.083,14C72.096,14.078,74.57,15.098,74.083,14 M6.18,14.755H3.888v0.759
	C5.454,15.591,6.501,15.455,6.18,14.755 M103.449,15.323c-0.596-0.584-0.605,0.544,0.46,0.378
	C104.831,16.153,103.705,15.492,103.449,15.323 M38.298,15.701c0.141,0.071,0.567-0.265,0-0.187
	C36.935,15.697,40.16,16.628,38.298,15.701 M482.418,15.892c-0.498,0.046-0.309,0.376-0.916,0.379
	c0.052,0.668,1.517-0.403,1.377,0.188C484.397,16.274,482.363,16.084,482.418,15.892 M189.243,16.459
	c-0.444,0.005-0.354,0.231-0.455,0.38c-0.39,0.034-0.434-0.075-0.464-0.19c-0.52,0.036-0.251,0.19,0,0.19
	c-0.009,0.182-0.559,0.144-0.917,0.187c0.105,0.272,1.372,0.067,1.381,0.379C189.4,17.275,188.56,16.9,189.243,16.459 M197.5,17.217
	c-0.072-0.221,0.102-0.337,0.463-0.378c-1.134-0.514-1.655,0.327-0.463,0.566C198.024,17.369,197.758,17.215,197.5,17.217
	 M173.414,17.311l0.231-0.094v0.378h2.293c0.474-0.532-0.712-1.317-1.374-0.756l-0.233-0.096l-0.228,0.096
	c-0.741-0.518-1.538,0.277-0.458,0.378L173.414,17.311z M148.409,16.649c-1.063,0.418-1.228,0.167-2.289,0.377
	C146.451,17.451,148.733,17.119,148.409,16.649 M204.845,17.405c-0.467-0.124-0.473-0.435-1.378-0.379
	c0.16,0.249,0.81,0.298,0.918,0.569c0.896,0.092,1.652-0.94,0-0.756C204.626,16.99,204.862,17.145,204.845,17.405 M139.234,17.217
	c-1.677-0.125-1.761,0.407-3.212,0.378c0.104,0.239,1.369,0.246,1.377,0c0.561,0.081,0.941,0.241,0.916,0.567
	C138.999,18.002,138.98,17.553,139.234,17.217 M540.686,18.162c-0.086-0.216-0.459-0.105-0.455,0c-0.947-0.375-0.433-0.375-1.381,0
	c0.113,0.333,0.793,0.43,1.836,0.378c0.087-0.16-0.177-0.178-0.455-0.188C540.144,18.19,540.406,18.173,540.686,18.162
	 M522.793,17.973c-1.065,0.471,0.893,0.385,1.377,0.567c0.391,0.035,0.435-0.074,0.457-0.188v-0.379
	c-0.367,0.1-0.741,0.196-1.375,0.189C522.863,18.197,522.818,18.087,522.793,17.973 M511.781,18.54
	c-0.207-0.373-3.217-0.34-2.291,0.378C510.896,19.059,510.373,18.399,511.781,18.54 M626.71,19.58l0.231-0.093
	c0.321,0.532,1.075-0.217,1.834-0.189c0.999,0.036,1.055,0.376,1.836,0.378c-2.002-0.002,1.813-0.408,0.462,0
	c0.498-0.151,0.146-0.547,0.455-0.758c-0.693,0.469-3.953-0.115-4.587,0.38l-0.46-0.097l-0.458,0.097
	c0.433-0.352-2.623-0.117-0.917-0.38c-0.187-0.322-0.594,0.04-1.378,0c-0.392,0.794,2.056,0.415,2.753,0.758L626.71,19.58z
	 M610.885,18.729c-1.333,0.165-0.518,0.285-0.46,0.758h1.377C612.138,18.97,610.888,19.105,610.885,18.729 M48.85,19.107
	C47.365,19.145,51.428,19.042,48.85,19.107 M615.93,19.107h-1.375v0.379h1.375V19.107z M70.415,19.298
	c-0.328-0.086-2.681-0.069-0.459,0C70.439,19.312,71.199,19.498,70.415,19.298 M78.672,19.487c0.853-0.587-1.393,0.495-1.835,0
	c-1.152-0.292,1.152,0.508,1.376,0.378c0.521-0.036,0.257-0.191,0-0.189C78.131,19.515,78.394,19.498,78.672,19.487 M489.527,20.148
	l0.231,0.284c-1.894,0.532,0.174-0.031,0.459,0.568c0.516-0.04,0.715-0.21,0.918-0.378l0.688-0.096l-0.688-0.094
	c0.702-0.728,0.448-0.375-0.918-0.189L489.527,20.148z M500.769,20.243c-0.129,0.339,0.435,0.387,0.462,0.189
	C502.937,20.143,502.336,19.894,500.769,20.243 M498.017,20.243c-0.392,0.035-0.433-0.074-0.455-0.189
	c-1.004,0.082,0.867,0.836,1.372,0.378C498.775,20.215,498.129,19.953,498.017,20.243 M446.173,20.054
	C446.888,20.948,448.449,20.306,446.173,20.054 M225.034,20.622C225.619,21.555,227.927,19.195,225.034,20.622 M360.379,20.243
	c-0.375,0.035-0.461,0.189-0.92,0.189C359.707,20.877,361.629,20.546,360.379,20.243 M102.074,20.243
	c-0.642,0.066-0.04,0.332,0.458,0.379c0.084,0.161-0.181,0.179-0.458,0.189c0.256,0.547,0.715-0.291,1.375-0.189
	C103.345,20.349,102.076,20.555,102.074,20.243 M620.287,20.715l-0.688-0.093c-0.188-0.323-0.592,0.039-1.375,0
	c1.809,0.683-0.321-0.03-0.918,0.378l-0.689-0.096l0.23,0.285v0.567l-0.458-0.093l-0.46,0.093c-0.462,0.002-0.576,0.331,0,0.379
	c0,0.189-0.372,0.224-0.458,0.378l-0.689-0.096l0.231,0.285l-0.231-0.285l-0.687,0.096c-0.283,0.01-0.542,0.028-0.459,0.189
	l-0.842-0.095l-0.533,0.285c-0.514-0.04-0.717-0.212-0.919-0.379c-0.658,0.045-0.773,0.312-1.377,0.379
	c-1.419,0.244,1.318,0.247,0.919-0.19c0.458-0.001,0.544,0.153,0.917,0.19c-0.097,0.211-0.509,0.295-0.917,0.379
	c-0.142,0.383,1.325-0.04,1.377-0.191l0.686,0.095l0.689-0.095h0.918l0.228,0.283l0.689-0.092c0.003,0.249,0.806,0.171,0.918,0.378
	c1.245-0.173-0.466-0.663-0.46-0.947l0.46-0.095l0.458-0.094c0.543-0.093,1.041-0.202,1.377-0.378h0.46v-0.189
	c0.575,0.076,0.938,0.243,0.915,0.567c0.587-0.011,0.638-0.243,1.376-0.189l-0.227,0.283l0.688-0.094v0.758h0.916
	c0.029-0.118,0.068-0.227,0.459-0.191c-1.86-0.788,1.247-1.707,0-2.648c-0.867-0.043-1.011,0.214-1.836,0.19L620.287,20.715z
	 M400.75,20.811c-0.652-0.075-0.771-0.228-1.375,0l-0.228-0.285l-0.231,0.285c-0.61,0.027-1.383-0.77-1.834-0.189l-0.688-0.096
	l0.228,0.285c-0.812,0.351-1.338-0.082-2.293-0.189l0.23-0.286l-0.689,0.096c-1.332,0.164-0.516,0.283-0.457,0.757
	c-0.937-0.058-0.901-0.513-1.836-0.567l-0.231,0.093l-0.228,0.096c-0.572,0-1.334-0.471-2.293-0.189v0.189l-0.459-0.096
	l-0.459,0.096c-0.662,0.418-1.121-0.238-1.377,0.189l-0.691,0.093l0.232,0.285h-0.457h-0.461v0.189
	c-0.809-0.351-1.422,0.048-1.835,0.379c0.026,0.198,0.585,0.149,0.458-0.19c0.359,0.042,0.908,0.005,0.92,0.19l0.227,0.283
	l0.691-0.094v0.189l-0.994,0.283l-0.384,0.473c-0.356,0.043-0.903,0.005-0.918,0.191l-0.687-0.096l0.228,0.284v0.378h0.917
	l-0.227,0.284l0.687-0.094c0.673,0.003,1.452-0.798,1.378,0c0.355-0.044,0.53-0.157,0.457-0.378
	c0.723,0.081,0.391,0.593,1.836,0.378l0.23-0.096l0.229-0.094c0.191,0.422,2.435,0.146,2.752,0l0.459-0.096l0.459-0.092
	c0.416,0.329,1.025,0.727,1.834,0.378l0.229,0.283l0.23-0.283c1.856,0.192,2.109-0.127,3.211,0.378
	c1.33-0.106-0.705-0.295-0.457-0.568c1.082,0.059,0.852,0.658,2.293,0.568c0.177-0.27,0.553-0.318,0-0.568
	c1.08,0.059,0.855,0.658,2.293,0.568c-0.848-0.334,0.121-0.585,0.918-0.756l0.535,0.282l0.842-0.094
	c0.068,0.472,1.558,0.056,1.838,0c-0.491,0.176-0.145,0.698-1.379,0.568c-1.312,0.01,1.748-0.028,1.835,0.378
	c0.647,0.015,0.524-0.549,0.917-0.189c0.636-0.389-0.141-0.524,1.38-0.757l0.687-0.22l-0.23-0.346c0.517,0.019,0.715-0.277,0.917,0
	c0.256,0,0.521-0.154,0-0.191c0.39-0.553,1.481,0.114,2.298,0l0.229-0.094l0.227-0.094c0.008,0.311,1.275,0.105,1.378,0.379
	l-0.688,0.219l0.228,0.347c0.003,0.104-0.368,0.215-0.455,0c-0.606,0.002-0.419,0.332-0.917,0.378
	c1.216,0.894,2.289-0.057,3.208,0.568l0.688,0.094l-0.227-0.283c0.354,0.042,0.903,0.005,0.917,0.189
	c0.722-0.016,0.358-0.482,1.373-0.378c-1.084,0.696,0.573-0.081,1.379,0.378l0.229,0.284l0.227-0.284
	c0.973,0.418,1.357-0.243,2.751-0.189l-0.226,0.283l0.69-0.094c0.539-0.091,1.039-0.201,1.376-0.378
	c0.91,0.003,0.58,0.517,1.836,0.378c-0.027-0.241-0.589-0.262-0.461-0.568c0.965,0.126,2.038,0.502,2.754,0.19
	c0.303,0.865,3.309,0.007,4.586,0.568c-0.023-0.242-0.588-0.262-0.457-0.568c0.588,0.01,0.635,0.242,1.375,0.189
	c-0.83,0.592,0.141,0.098,1.377,0.379c-0.119-1.043,1.037,0.665,0.918-0.379c1.693,0.522,2.271,0.101,3.67,0.379h0.461v-0.19
	c0.511-0.019,0.713,0.276,0.916,0h0.459v-0.189c0.357,0.042,0.533,0.158,0.457,0.379c2.451-0.07,2.746-0.596,4.588-0.19l0.459,0.094
	l0.459-0.094c1.128,1.968,0.521-0.541,0-0.378c0.507-0.158,2.087,0.529,3.67,0c0.003-0.106-0.37-0.215-0.456,0
	c-1.456-0.45-2.333,0.04-3.214-0.568l0.623-0.23l0.753-0.148h0.46l0.916,0.282v-0.47h0.462l0.228-0.096l0.229-0.095
	c1.037,0.781,3.494-1.232,4.132,0l0.229,0.095l0.227-0.095c0.57,0.261,1.338,0.109,2.298-0.188l0.228,0.283l0.226-0.283
	c0.464,0,0.551-0.153,0.919-0.19l0.689,0.094l-0.229-0.283c0.516-0.04,0.714-0.21,0.919-0.378c0.461-0.002,0.541,0.153,0.917,0.189
	l-0.23,0.283l0.686-0.094c0.428,0.89,1.449,0.3,2.752,0.189l0.465-0.095l0.454-0.094c0.88,0.642,2.615-1.14,0.917-0.567
	l-0.688-0.096l-0.229,0.285c-0.643,0.015-0.521-0.55-0.919-0.189l-0.686-0.096l0.23,0.285c-0.802,0.013-1.43-0.043-1.834-0.189
	l-0.23,0.093l-0.232,0.096c0.004-0.107-0.367-0.215-0.455,0c-0.361-0.042-0.533-0.16-0.461-0.379
	c-0.869,0.021-0.318,0.626-1.375,0.568v-0.189h-0.461c-0.107-0.205-0.752-0.454-0.919-0.189l-0.685-0.096l0.231,0.285
	c-2.249-0.167-3.292,0.067-5.05,0.189v-0.189h-0.456c-0.007-0.312-1.274-0.107-1.38-0.379c-0.512,0.172,0.029,0.423-0.918,0.757
	h-0.455v0.189c-1.029-0.427-2.301,0.012-3.215,0.19c-0.606-0.003-0.418-0.332-0.917-0.379c0.102-0.147,0.383-0.221,0.917-0.189
	c-0.172-0.321-3.246-0.433-3.67,0.378c-0.596-0.646-1.963-0.089-2.75-0.378l-0.233-0.285l-0.228,0.285
	c-0.68-0.218-1.155-0.218-1.836,0l-0.228-0.285l-0.688-0.093c-1.094-0.274-1.127-0.287-1.377-0.568l-0.231-0.285l-0.687,0.096
	c-0.631-0.164-2.287-0.341-2.752,0.189h-0.459v0.189c-0.59-0.011-0.637-0.243-1.377-0.189l0.231-0.285l-0.688,0.096h-1.377
	l-0.232-0.285L427.822,21c-0.188-0.324-0.593,0.039-1.375,0l-0.691-0.096l0.23,0.285h-0.459l-0.46-0.096l-0.456,0.096
	c-0.097-0.229-0.509-0.117-0.922,0V21h-0.454c-0.47,0.022-0.93-0.816-1.381-0.189l-0.687-0.096L421.399,21
	c-1.149-0.242-1.438,0.095-1.836-0.189c-1.329,0.105,0.702,0.295,0.456,0.567l-0.688,0.094l0.688,0.095
	c-0.127,0.389-1.222,0.377-1.835,0.568l-0.687-0.096l0.229,0.285c-0.356-0.044-0.905-0.007-0.916-0.189
	c-0.657,0.044-0.772,0.311-1.379,0.378c-1.334-0.164-0.515-0.283-0.456-0.757l0.686-0.093l0.232-0.285
	c0.512,0.019,0.715-0.275,0.917,0c1.634-0.159-1.124-0.999-1.379-0.378h-0.456v0.189c-0.361-0.042-0.536-0.159-0.463-0.378
	c-0.953,0.105-0.967,0.295-0.456,0.567h-0.461v0.189c-1.09,0.106,0.513,0.569,0.917,0.189c0.044,0.515-0.762,0.38,0,0.757
	c-1.227-0.586-1.741,0.497-2.752,0l-0.229-0.284l-0.688,0.095c-0.095-0.213-0.506-0.296-0.918-0.378l0.229-0.283l-0.229-0.285
	c0.05-0.213-0.665-0.295,0-0.378c-1.084-0.338-1.821,0.213-3.67,0.189l0.231-0.285l-0.688-0.093
	c-1.426-0.275-2.016-0.456-2.297,0.378c-0.644,0.015-0.52-0.551-0.918-0.189c-1.116-0.356,0.9-0.688-1.377-0.378h-0.459V20.811z
	 M109.874,20.622c0.129-0.211-2.162-0.132-0.919,0C107.337,21.15,109,20.96,109.874,20.622 M477.373,20.811
	C474.963,20.562,478.615,20.938,477.373,20.811 M354.412,21.189C353.899,19.881,352.356,21.977,354.412,21.189 M379.189,21
	c1.174-0.357-1.792,0.232-1.376,0.756c0.408-0.411,2.615,0.022,1.376,0.19c-0.084,0.16,0.178,0.179,0.459,0.189h0.917
	c-0.907-0.605-0.907-0.358,0-0.568C381.783,21.235,377.67,21.858,379.189,21 M638.641,22.417l0.69-0.093
	c1.361,0.745,0.976-1.054,1.372-0.378c0.281-0.011,0.547-0.029,0.464-0.19v-0.378c-0.936,0.056-1.226,0.378-1.836,0.568l-0.23-0.283
	l-0.687,0.093c-0.238-0.279-0.68-0.477-0.918-0.756c-1.47,0.128-0.865,0.629-1.381,0.756c0.744,0.553,1.453,0.075,2.299,0.379
	L638.641,22.417z M630.842,22.039l0.687-0.093c0.586,0.01,0.636,0.242,1.38,0.189l0.228-0.096l0.228-0.093
	c1.315,0.695,0.962-1.44-0.455-0.568h-0.463v0.189c-0.426-0.203-1.689-0.059-1.372-0.567c-0.545,0.026-1.042,0.336-1.381,0
	c-0.953,0.106-0.971,0.295-0.454,0.567c-0.563-0.022-1.092-0.056-0.922-0.378c-0.608-0.027-1.709,0.636-1.835,0.189
	c-1.083,0.053,0.528,0.506,0.46,0.757c-1.251,0.35,1.393-0.049,0-0.379c1.083,0.278,0.853,0.4,2.297,0.19
	c0,0.189-0.375,0.224-0.463,0.378c0.137,0.449,0.917-0.344,1.38-0.378L630.842,22.039z M370.01,21.189
	c0.148-0.334-2.568-0.338-1.834,0.189C368.588,21.231,369.218,21.173,370.01,21.189 M255.771,21.189
	c-0.019-0.004,0.008-0.191,0-0.189C254.234,21.106,258.216,21.793,255.771,21.189 M-0.701,21c0.501,0.487,2.964,0.165,3.671,0.567
	C4.194,20.726,0.855,21.323-0.701,21 M500.541,22.229l0.228,0.284c-0.459-0.001-0.542,0.154-0.916,0.189l-0.455,0.094l-0.464,0.096
	c-0.311-0.377-1.523,0.186-1.835-0.19c-1.083,0.053,0.526,0.506,0.463,0.757c0.586-0.01,0.633-0.242,1.372-0.188l0.689,0.092
	l0.229-0.283c0.664,0.419,1.119-0.238,1.378,0.191v0.378h0.919c0.058,0.339-0.455,0.441-1.381,0.378l-0.685-0.096l-0.231,0.284
	c-0.499-0.074-1.099-0.227-0.455,0c-0.151,0.628-2.002-0.497-2.299,0.19l-0.687-0.095l-0.23,0.284
	c-0.643,0.049-0.52,0.413-0.917,0.568l-0.455-0.095l-0.463,0.095c-1.25,0.138-0.925-0.376-1.835-0.379l0.232-0.284l-0.691-0.094
	c0.003-0.106-0.372-0.215-0.458,0c-0.513-0.041-0.716-0.211-0.918-0.378l0.687-0.221l-0.228-0.347h0.459l0.685-0.096
	c0,0,0.69-0.092,2.067,0.096c0.021-0.261-0.218-0.415-0.456-0.567c-0.068-0.337-0.818,0.081,0,0.188
	c-0.102,0.149-0.387,0.22-0.921,0.191l-0.534-0.285l-0.841,0.094c-0.802-0.878-0.955,0.23-2.295,0.191
	c0.921-0.661-0.202,0.016-0.457-0.379l0.229-0.347l-0.689-0.221c-0.965-0.824-1.03-0.471-2.293-0.568l-0.688-0.093l0.227,0.283
	c-1.059,0.374-0.51-0.048-1.375-0.19l-0.459-0.093l-0.459,0.093c0.058,0.089-1.748,0.322-2.752,0.568
	c0.051-0.012-0.811,0.009,0.459,0.189l-0.228,0.283l-0.231,0.284c-0.318,0.797-2.088-0.182-2.293,0.569l-0.229,0.282l0.687-0.094
	c0.102,0.357-0.517,0.418-0.457,0.757c-0.904,0.057-0.91-0.256-1.377-0.379l0.231-0.284l-0.69-0.094
	c-0.056-0.231-0.138-0.448-0.918-0.378l-0.115-0.379c0,0-0.803-0.188,1.033-0.945c-0.746-0.386-3.529-0.287-5.506,0.189
	c0.053,0.67,1.514-0.402,1.377,0.189c0.553-0.04,0.281-0.21,0-0.378c1.438-0.089,1.293,0.475,2.293,0.757l-0.227,0.188l-0.23,0.191
	c-0.183,0.205-0.551,0.453,0,0.188c1.242,0.172-0.388,0.696-0.918,0.756c-0.103-0.146-0.015-0.373-0.459-0.378l-0.229-0.284
	l-0.691,0.096c-0.568-0.464-1.332,0.566-2.291,0.566c-1.548-0.171-0.055-0.422-0.918-0.756c-0.535-0.542-0.535,0.305,0,0.378
	c-1.005,0.035-1.459-0.155-1.381-0.566c-1.257,0.167,1.07,0.766-1.371,0.566l-0.231,0.094l-0.233,0.096
	c-0.021-0.115-0.064-0.224-0.455-0.19l0.229-0.284l-0.689,0.096c-0.785-0.344-1.804,0.057-1.836,0.566
	c-0.404-0.23-2.232-0.818-2.752-0.378l-0.686-0.096l0.23,0.286c-0.464-0.003-0.549,0.153-0.917,0.188
	c1.837-0.212,1.976,0.805,3.669,0.568l-0.23,0.284l0.686-0.094c1.807-0.062,3.52,0.568,5.505,0h0.919v-0.379
	c0.122-0.267,1.012-0.217,1.379-0.379c-0.201,0.376-1.054,1.232,0.459,0.758l-0.231,0.094l0.231-0.094
	c0.448,0.256,1.545,0.245,1.836,0.568c0.858,0.474-0.271-0.183,0-0.568c1.584,0.757,0.043-0.234,0.918-0.758
	c0.719,0.083,0.393,0.596,1.834,0.379l-0.227,0.283l0.684-0.094c1.002-0.033,1.461,0.155,1.379,0.567
	c0.635-0.471,1.301-0.45,1.834-0.567c0.633,0.19-0.193,0.312,0.918,0.567c0.959-0.055-0.684-0.512,0.918-0.567l0.227,0.284
	l0.232-0.284c0.685-0.032,1.688,0.068,1.834-0.189l0.688,0.095l-0.229-0.284h0.459l0.229,0.472l0.229-0.472
	c0.936-0.106,0.9-0.569,1.835-0.19c-0.343,0.359-1.369,0.133-0.458,0.568h-0.461v0.19c-0.024,0.467,1.998,0.843,0.919,0.189
	l0.688-0.095l-0.229-0.284c0.872-0.082,1.151-0.408,2.293-0.378c-0.849,0.637,0.118,0.023,0.918,0.378l0.228,0.284l0.69-0.094
	c-0.034,0.329,0.104,0.586,0.459,0.754c1.842-0.209,1.592,0.048,2.752-0.377l0.233,0.283l0.685-0.093
	c0.515-0.041,0.715-0.212,0.917-0.379c0.463,0,0.547,0.153,0.917,0.188l0.231,0.283l0.231-0.283
	c2.073,0.641-0.498-1.105,1.372-0.377l0.232,0.282l0.687-0.093c0.071,0.222-0.08,0.537,0.46,0.565l0.229-0.094l0.228-0.093
	c0.199,0.642,0.99-0.83,0.918,0.187c1.337-0.162,0.521-0.281,0.463-0.754c0.433,0.323,1.519,0.381,1.835,0.754
	c0.553-0.291,2.023-0.504,0.917-0.944c1.353,0.576,2.406,0.49,4.126,1.136l-0.229,0.283l0.692-0.095
	c1.547-0.332,2.82,0.2,3.207-0.757l0.689-0.096l-0.689-0.093c0-0.189,0.377-0.226,0.463-0.379c1.064,0.317,1.64,0.837,2.752,1.136
	l0.228-0.095l0.231-0.097c1.883,0.326,4.845-0.404,6.881,0c0.635-0.014,0.486-0.481-0.459-0.377c0.025-0.241,0.59-0.262,0.459-0.567
	c0.666,0.232,0.693,0.722,1.375,0.944c0.259,0,0.521-0.151,0-0.187c0.113-0.488,0.793,0.259,1.838,0l-0.227,0.283l0.685-0.097
	c0.584-0.01,0.636-0.241,1.377-0.187l-0.228,0.283l0.687-0.097h0.917l0.23-0.094l0.229-0.093c0.3,0.564,0.979-0.182,1.836,0
	c-0.122-0.268-1.01-0.218-1.377-0.379l-0.233-0.189l-0.226-0.19c-1.471-0.384,2.477-0.573,2.752,0c0.459,0,0.546-0.154,0.919-0.189
	v0.189h0.456c0.636,0.29,2.117-0.893,2.753,0.19l-0.229,0.282l0.689-0.093c0.068,0.351,1.557,0.115,1.839,0.379h0.454v-0.19
	c0.578,0.043,0.939,0.295,0.918-0.188c0.533,0.031,0.499,0.298,0.462,0.565c0.513,0.021,0.711-0.273,0.918,0
	c0.253,0,0.521-0.151,0-0.187c0.073-0.222,0.722-0.206,1.372-0.19l0.689,0.096l0.691-0.096c-0.23,0.369,2.275,0.682,1.836,0
	c0.838,0.643,1.885,0.106,3.206,0.377c0.037-0.264-1.333-0.215-0.454-0.377h0.454v-0.188c0.535,0.031,0.498,0.298,0.464,0.565
	c0.678-0.217,1.156-0.217,1.832,0l0.688,0.097l-0.23-0.283c1.373-0.006,2.163-0.346,2.299-0.758l0.685,0.094l-0.231-0.283
	c-0.224-0.369,2.281-0.681,1.836,0c-0.277-0.01-0.543-0.029-0.455-0.189c-0.972,0.277,0.481,0.399,1.373,0.189l0.231-0.095
	l0.231-0.094c0.299,0.566,0.979-0.18,1.834,0c-0.028,0.115-0.068,0.222-0.459,0.189c0.416,0.512,1.025-0.432,1.834-0.379v0.19h0.461
	h0.457l0.69,0.094l-0.231-0.284c0.281-0.055,1.769-0.471,1.836,0l-0.687,0.095l0.228,0.284c0.8,0.686,2.763-0.332,4.588,0.379
	l0.228-0.096l0.231-0.094c0.664,0.546,2.058-0.689,2.752-0.189l0.459-0.095l0.459-0.094c0.05,0.358,1.517,0.132,1.375,0.568
	c-0.085-0.148,0.178-0.855-0.457-1.324l0.23-0.096l0.227-0.094v-0.188l0.691,0.092l-0.232-0.283c-0.764-0.374,0.047-0.241,0-0.756
	c-0.143-0.306-0.65,0.015-0.459,0.378c-0.809,0.054-1.418-0.89-1.834-0.378l-0.229,0.189l-0.23,0.189
	c-0.462,0-0.545-0.152-0.918-0.189l0.232-0.284l-0.69,0.095c-1.442-0.21-1.209-0.09-2.294,0.189h-0.458v0.189
	c-0.8-0.165-1.767-0.633-0.919,0h-0.457v0.19c-0.463-0.002-0.547,0.152-0.92,0.188l-0.229-0.094l-0.228,0.094
	c-0.113-0.268-0.756-0.319-0.918-0.567c-0.517,0.172,0.029,0.423-0.916,0.758c-1.139-0.151-0.438-1.343-1.377-0.379l-0.803,0.046
	l-0.574-0.236c-1.015-0.272,0.574-0.462-0.459-0.567c0.065-0.47-0.996,0.96-1.834,0c-0.463-0.002-0.549,0.153-0.92,0.189
	l-0.688-0.095l0.227,0.284c-1.063,0.082-1.229,0.835-2.289,0.379l-0.232,0.094l-0.23,0.094c-0.008-0.288-3.396-0.415-2.752,0.191
	c-0.998,0.12-1.462-0.538-1.373,0.188c-0.363-0.042-0.535-0.159-0.464-0.379c-0.954,0.107-0.967,0.296-0.454,0.569
	c-0.59-0.011-0.636-0.242-1.382-0.19c1.128-0.748-0.681,0.212-0.454-0.567h-0.462l-0.229-0.285l-0.225,0.285
	c-0.518-0.04-0.716-0.212-0.919-0.379h0.454v-0.189c-0.179-0.454,2.094,0.104,1.381-0.568c-1.148-0.032-1.437,0.291-1.835,0.568
	h-0.461v0.189c-0.46,0-0.547-0.154-0.919-0.189l-0.229-0.285l-0.689,0.096c-0.251,0-0.52-0.154,0-0.189
	c-1.96-0.147-2.507,0.091-5.045,0v-0.19h-0.459c-0.839,0.303-1.555-0.174-2.295,0.379c-0.458,0-0.544-0.154-0.917-0.189
	l-0.688-0.096l0.229,0.285c-1.248-0.018-0.924,0.314-1.835,0l0.233-0.285l-0.689,0.096c-0.359,0.041-0.533,0.157-0.459,0.378
	c-0.464,0-0.547-0.154-0.918-0.189l-0.233,0.094l-0.226,0.095c-0.102-0.148-0.387-0.221-0.918-0.189l-0.229,0.094l-0.229,0.095
	c-0.864-0.652-2.095-0.054-3.671,0c0.55,0.273,2.262,0.286,0.459,0.568c0.418,0.515,0.852-0.505,2.293-0.19l-0.231,0.284
	l0.691-0.094c0.53,0.28,0.53,0.477,0,0.757l-0.691-0.096l0.231,0.284c-0.512,0.041-0.715,0.211-0.917,0.378l-0.458-0.094
	l-0.461,0.094c0.142-0.59-1.325,0.481-1.377-0.188c-0.889,0.185-1.406,0.935-2.75,0.378l-0.229-0.095l-0.232,0.095v-0.19l0.92-0.284
	l-0.92-0.282c-0.028-0.117-0.068-0.226-0.457-0.19l0.228-0.284l0.229-0.283c0.183-0.27,0.552-0.319,0-0.568
	c0.515,0.041,0.717,0.21,0.92,0.378c0.469-0.914-2.479-0.141-4.129-0.378v0.378c-1.232,0.337-0.887-0.833-1.377-0.189l-0.69-0.096
	l-0.228,0.285c-1.207-0.425-2.768,0.359-3.215-0.378c-0.455,0-0.541,0.154-0.916,0.189v0.379c2.078-0.085,2.051-0.085,4.131,0
	l0.459-0.096l0.459-0.094v0.19c1.047,0.259,1.723-0.489,1.834,0l-0.23,0.346l0.689,0.221l-1.607,0.094l1.148,0.474v0.188
	l-0.686-0.094l0.229,0.284c-0.904-0.057-0.909,0.254-1.377,0.378l-0.231-0.284l-0.228,0.284c-0.545-0.027-1.041-0.337-1.377,0
	h-0.463v0.19c-1.228-0.135-1.992-1.435-3.207-0.946l-0.689-0.096l0.227,0.284v0.568c-3.322,0.56-2.047-0.561-3.207-0.378
	l-0.232-0.095l-0.229,0.095c-0.134-0.45-1.239,0.21-1.373,0.378c-0.62-0.06-0.878-0.269-1.835-0.189
	c0.129,0.117,1.141,0.728,0,0.756c-0.257,0-0.52-0.152,0-0.188c-0.613-0.061-1.068-0.326-2.298-0.568l0.231-0.189l0.231-0.19
	c0.101-0.146,0.384-0.22,0.917-0.188c-0.181-0.27-0.553-0.319,0-0.568l0.688,0.094l-0.233-0.282
	c0.081-0.475-0.698-0.594-1.371-0.758l-0.231-0.347l-0.688-0.22c0.104-0.148,0.383-0.22,0.919-0.19
	c-0.008-0.25-0.807-0.172-0.919-0.378c-0.255-0.003-0.521,0.153,0,0.189c0,0.189-0.374,0.225-0.462,0.379L500.541,22.229z
	 M258.065,21.378c0.236,0.281,0.678,0.477,0.916,0.757c0.679-0.083-0.18-0.242,0-0.568c0.371,0.037,0.455,0.189,0.918,0.189
	C260.773,22.258,259.604,21.061,258.065,21.378 M498.017,21.567C496.438,22.056,500.379,22.025,498.017,21.567 M9.392,21.567
	c0.106,0.589,2.288,0.32,3.673,0.379C12.332,21.619,11,21.536,9.392,21.567 M343.4,21.756c-0.91,0.315-0.585-0.017-1.833,0
	c0.242,0.153,0.476,0.307,0.458,0.568C343.025,22.358,343.484,22.169,343.4,21.756 M353.496,21.946
	c-1.522,0.185,0.513,0.374,0.457,0.567C355.283,22.408,353.25,22.218,353.496,21.946 M369.093,22.135
	c-0.487,0.135-2.109,0.739-2.753,0.189c-0.68,0.082,0.181,0.242,0,0.568c0.412-0.147,1.037-0.204,1.836-0.19
	c-0.012,0.184-0.561,0.147-0.918,0.19c0.451,0.305,1.228,0.434,1.835,0.188C367.934,22.536,368.619,22.751,369.093,22.135
	 M266.091,23.175l-0.227-0.283c0.631,0.006,1.007-0.09,1.377-0.19c0.141-0.436-1.323-0.21-1.377-0.567
	c-0.257-0.002-0.522,0.153,0,0.189c-0.453,0.53-1.225-0.275-1.834,0.189c-0.488,0.48,0.963,1.079,1.374,0.567L266.091,23.175z
	 M598.033,22.892C600.203,22.595,598.649,21.955,598.033,22.892 M130.976,22.513C132.32,22.262,128.001,23.07,130.976,22.513
	 M582.437,22.607l-0.46,0.095c-0.355,0.043-0.904,0.006-0.917,0.19l-0.459-0.096l-0.457,0.096c-0.358-0.042-0.532-0.159-0.459-0.379
	c-1.099-0.076,0.252,0.861-1.377,0.567c-0.083,0.413,0.377,0.602,1.377,0.569c-0.103-0.149-0.382-0.22-0.918-0.19
	c0.188-0.238,0.593-0.388,1.377-0.379l-0.076,0.22l0.533-0.029c0.031,0.113,0.069,0.222,0.459,0.188l0.69,0.22l0.227,0.348
	c-0.176,0.269-0.548,0.318,0,0.567c0.648-0.05,0.525-0.416,0.919-0.567l0.459,0.094l0.462-0.094c0.782-0.078-0.103-0.245,0-0.568
	c0.542,0.027,1.037,0.337,1.373,0l0.691,0.094l-0.229-0.282c0.102-0.148,0.383-0.222,0.917-0.191l0.536,0.283l0.838-0.092
	c0.75,0.558,2.166-1.176,0.461-0.191l-0.537-0.284l-0.843,0.096c-0.108-0.355-0.755,0.106-0.918-0.19
	c-0.722,0.016-0.358,0.483-1.371,0.378l0.226-0.284l-0.69,0.096c-0.655,0.101-1.118-0.738-1.375-0.19L582.437,22.607z
	 M507.654,22.892c0.082,0.16-0.181,0.178-0.462,0.188c0.087,0.215,0.462,0.105,0.462,0c0.444,0.005,0.355,0.232,0.455,0.379
	c0.682-0.162,0.99-0.477,0.918-0.946c-0.673-0.002-1.451,0.797-1.373,0C507.078,22.56,507.192,22.889,507.654,22.892
	 M376.664,23.931l-0.231-0.282c1.073,0.282,1.979-0.065,2.298,0.188c0.787-0.278-0.6-0.399,1.376-0.188
	c-0.137-0.387-0.921-0.504-1.376-0.757c-0.257-0.002-0.52,0.152,0,0.188c-0.348,0.358-1.372,0.132-0.463,0.569
	c-1.701-0.335-1.243-0.576-3.207-0.569c-0.003-0.19,0.368-0.225,0.455-0.378c0.755-0.306-1.525,0.451-2.29,0
	c-0.853-0.513,0.116,0.433,0.916,0.378c-0.121,0.266-1.006,0.216-1.379,0.379c-0.382,0.157,2.496,0.147,3.216,0.378L376.664,23.931z
	 M-47.268,24.184l0.686,0.221c3.898,0.917,8.554,0.661,13.766,0.757c0.102-0.147,0.013-0.374,0.459-0.379v-0.189l0.228-0.189
	l-0.228-0.19c2.034-0.618,0.882-0.335,1.836-1.135c-0.69,0.327-1.684-0.219-3.212-0.188c-0.015,0,0.011,0.379,0,0.379
	c-1.56,0.026-6.174-0.437-5.509,0.566c-2.817-0.427-5.155-0.908-8.717-0.566c0.045,0.296-0.061,0.654,0.919,0.566L-47.268,24.184z
	 M602.623,23.271C601.662,22.986,605.91,24.237,602.623,23.271 M270.456,23.271c0.006-0.009,0.453,0.001,0.453,0
	C270.657,22.636,268.984,24.278,270.456,23.271 M205.303,23.837c0.473-0.557-2.002,0.748-3.211,0.19
	c0.075,0.22-0.101,0.336-0.459,0.378c0.113,0.205,0.91,0.129,0.917,0.378C203.587,24.518,204.057,24.017,205.303,23.837
	 M213.33,24.877l0.691,0.096c0.422,1.038-0.015-0.487,1.374-0.19c-0.119-0.266-1.004-0.217-1.374-0.378l-0.229-0.284l-0.232,0.284
	c-1.237-0.528-0.824,0.462-1.833,0.568c0.686,0.625,0.54-0.634,1.833-0.379L213.33,24.877z M224.571,24.783
	c-0.346,0.15-0.329,0.661,0,0.944C226.153,25.591,224.878,25.16,224.571,24.783 M233.291,25.351c1.33-0.211-0.708-0.203-0.462,0.19
	c-0.924-0.403-1.215,0.421-0.917,0.757C232.576,26.066,232.608,25.575,233.291,25.351 M175.479,25.541
	c-0.21-0.523-1.619,0.278-0.916,0.566C174.635,26.138,175.45,25.468,175.479,25.541 M80.048,25.919
	c-0.288-0.459-2.319-0.1-1.835,0.379C79.469,26.437,79.138,25.921,80.048,25.919 M239.712,26.107c-0.111-0.486-0.789,0.259-1.835,0
	C237.942,26.578,239.432,26.162,239.712,26.107 M241.549,26.675c0.413,0.209,1.025,0.131,1.835,0
	C242.969,26.042,242.358,26.511,241.549,26.675 M247.514,26.864c0.389-0.035,0.43,0.075,0.459,0.188
	C249.49,27.076,247.458,26.237,247.514,26.864c-0.392,0.034-0.435-0.073-0.46-0.189c-0.52,0.035-0.257,0.189,0,0.189
	c0.083,0.16-0.181,0.18-0.459,0.188C246.759,27.319,247.401,27.069,247.514,26.864 M214.479,27.81
	c0.013,0.185,0.563,0.146,0.916,0.19c0.088,0.16-0.18,0.177-0.459,0.188C215.562,28.718,216.42,27.593,214.479,27.81
	 M567.988,29.419l0.686-0.096c1.085,0.245,0.852-0.023,2.294,0.189c-0.025-0.115-0.068-0.223-0.46-0.189
	c0.027-0.115,0.068-0.223,0.46-0.189c0.926-0.234-1.897-0.082-2.294,0l-0.231-0.283l-0.686,0.094
	c-2.189-0.402-4.732-0.541-3.671,0.758c1.397,0.24,2.334-0.646,2.754-0.189c1.285-0.002-1.092-0.517,0.917-0.379L567.988,29.419z
	 M540.23,29.134c-0.816-0.813-1.824-0.375-1.838,0C538.504,29.623,539.184,28.875,540.23,29.134 M219.065,28.755
	c3.301-0.008-1.134-0.242-1.376-0.188c-1.065,0.237,2.526,0.422,0.918,0.378C219.043,28.957,219.001,28.755,219.065,28.755
	 M647.127,29.702c-0.036,0.301,0.224,0.723-0.456,0.756c0.296,0.193,1.055,0.197,0.916,0.568c0.371-0.131,1.26-0.294,1.375,0
	C649.785,30.736,648.716,29.628,647.127,29.702 M638.182,30.933l0.232-0.284c1.46,0.091,1.917,0.596,3.67,0.565
	c0.545-0.563,0.123-0.643-0.463-1.134c-1.395,0.433-3.229-0.465-5.506,0.188c0.262,0.272,0.718,0.462,1.381,0.568L638.182,30.933z
	 M655.847,30.648C653.159,30.899,657.508,31.541,655.847,30.648 M-69.978,30.648c-0.719,0.065,0.4,0.332-0.459,0.378
	c0.684,0.441,1.12,0.289,2.292,0.188C-67.948,30.693-69.855,31.038-69.978,30.648 M356.707,31.214
	c-0.641-0.287-2.373-0.535-3.211-0.188c-0.084,0.16,0.18,0.178,0.457,0.188C354.149,31.3,354.068,31.044,356.707,31.214
	 M375.746,31.5l-0.23,0.093c-0.479-0.356-2.457,0.064,0,0.189l-0.229,0.284l0.691-0.095c1.61,0.168,0.477-0.49,0-0.568L375.746,31.5
	z M477.832,33.106c0.389,0.408,1.127,0.671,2.752,0.568C480.641,32.733,479.386,33.056,477.832,33.106 M647.357,34.716l0.229-0.094
	c0.259,0.545,0.718-0.292,1.375-0.191l-0.229,0.096l0.229-0.096c0.123,0.824,1.842-0.504,3.214-0.377
	c-0.069-0.422-1.155,0.246-2.293,0l-0.232-0.094l-0.227,0.094c-0.369-0.775-1.889,0.098-2.753-0.379l0.229-0.283l-0.691,0.094
	c-0.456,0-0.54,0.152-0.916,0.189l-0.228-0.283l-0.229,0.283c-0.609,0.19-1.708,0.18-1.836,0.568c-0.463-0.003-0.577-0.331,0-0.38
	c-0.4-0.285-0.687,0.054-1.833-0.188c1.851,0.686-0.768,0.174-1.836,0c0.919,0.66-0.2-0.015-0.462,0.379h-0.455v0.189
	c-0.463,0-0.551-0.154-0.918-0.189c-1.445-0.508,1.539,0.492,0,0.568c0.188,0.32,0.589-0.04,1.373,0l0.231-0.096l0.23-0.096
	c0.021,0.199,0.585,0.149,0.456-0.188c1.174,0.021,1.605,0.346,2.297,0.566c-0.161-0.719,1.744,0.455,2.752-0.566
	c1.517,0.457-0.158,0.496,2.291,0.566L647.357,34.716z M632.219,34.148l-0.69-0.095c-0.788,0.008-1.178-0.146-1.373-0.379
	c-0.256,0-0.523,0.152,0,0.188c-0.043,0.3-1.17,0.149-0.917,0.567c0.668,0.006,1.452-0.797,1.373,0l-0.456,0.191l0.456,0.188
	c-0.018,0.261,0.216,0.416,0.462,0.57c0.235-1.295,1.277,0.779,1.372-0.38l0.69,0.093l0.228-0.283c0.258,0.002,0.521-0.151,0-0.188
	c-0.042-0.213,0.669-0.295,0-0.379c0.123-0.266,1.008-0.216,1.379-0.38c-0.13-0.446-1.227,0.218-1.834,0.19L632.219,34.148z
	 M32.792,35.946c1.835,1.082-0.965-1.193-0.918,0C31.886,36.25,34.273,36.819,32.792,35.946 M36.464,35.946
	c0.49,0.176,0.142,0.697,1.376,0.568C37.352,36.337,37.698,35.814,36.464,35.946 M666.398,36.515
	c-0.807,0.043-1.045,0.322-0.918,0.756C666.099,37.146,666.337,36.864,666.398,36.515 M119.047,37.554l-0.457,0.096
	c-0.258-0.002-0.521,0.15,0,0.189c-1.413,0.867-0.311,0.146,0.457,0.377c0.357-0.041,0.537-0.16,0.459-0.377l0.688,0.092
	l-0.228-0.281c0.892-0.75-0.579-0.598-0.46,0L119.047,37.554z M74.545,38.216C71.51,37.888,78.257,38.699,74.545,38.216
	 M97.941,38.783c-0.026-0.013,0.032-0.188,0-0.19C95.742,38.433,100.122,39.812,97.941,38.783 M-2.993,38.783
	C-1.881,39.402-0.803,38.259-2.993,38.783 M105.745,38.783c0.299,0.253,0.979,0.353,1.834,0.379
	C107.466,38.828,106.789,38.73,105.745,38.783 M120.425,39.162c-0.041-0.052-0.431-0.202-0.459,0.378
	C119.958,39.69,120.995,39.929,120.425,39.162 M89.224,39.162c2.445-0.414-1.633,0.104-1.376,0c0.011-0.005,0.535,0.376,0.458,0.378
	C88.89,39.521,88.893,39.218,89.224,39.162 M94.729,39.54c-0.151-0.115,0.268-0.238,0.458-0.189
	C93.221,38.851,94.126,40.034,94.729,39.54 M16.736,39.351c0.459,0.302,0.434,0.762,1.376,0.379
	C16.72,39.513,18.228,38.985,16.736,39.351 M150.244,39.351c-0.521,0.035-0.254,0.189,0,0.189c-0.624,0.325-1.483,0.743,0.462,0.758
	C149.702,39.903,151.105,39.685,150.244,39.351 M251.643,39.729C250.421,39.238,249.258,40.05,251.643,39.729 M162.176,40.107
	c-0.835-0.685-1.269,0.334-2.295,0.19C160.569,40.923,161.001,39.903,162.176,40.107 M172.729,41.147l0.458-0.094
	c0.024,0.196,0.588,0.148,0.458-0.189c1.676-0.1,2.059,0.83,3.21,0.379c0.006-0.105-0.371-0.217-0.458,0
	c-1.249-0.173,1.395-0.424,0-0.757c-1.076,0.06-1.718,0.298-3.21,0.19l-0.228-0.287l-0.691,0.097
	c-1.25-0.216-3.995-0.483-5.046-0.188c0.856,0.529,2.515,0.729,4.129,0.945c-0.027-0.355,0.354-0.402,0.917-0.189L172.729,41.147z
	 M146.573,40.486C147.585,41.064,149.514,40.267,146.573,40.486 M67.663,40.486C66.084,40.974,70.021,40.943,67.663,40.486
	 M222.736,40.864c-0.447-0.627-0.906,0.212-1.377,0.189C221.617,41.603,222.08,40.763,222.736,40.864 M194.293,41.433
	c-0.453-0.58-1.548,0.084-1.835,0.188C192.906,42.2,193.678,41.403,194.293,41.433 M199.798,41.621
	C201.309,42.218,202.435,41.058,199.798,41.621 M173.645,41.621c-0.499,0.046-0.31,0.376-0.916,0.379
	C173.131,42.513,174.764,41.839,173.645,41.621 M475.537,42.566c-0.113-0.488-0.791,0.261-1.834,0
	C473.771,43.038,475.257,42.622,475.537,42.566 M365.424,45.403C362.533,45.235,366.225,45.452,365.424,45.403 M400.75,45.972
	C400.141,44.864,398.584,46.657,400.75,45.972 M459.48,46.917C457.072,46.671,460.723,47.046,459.48,46.917"/>
<g>
</g>
<g>
</g>
<g>
</g>
<g>
</g>
<g>
</g>
<g>
</g>
</svg>
