<?xml version="1.0" encoding="utf-8"?>
<!-- Generator: Adobe Illustrator 20.1.0, SVG Export Plug-In . SVG Version: 6.00 Build 0)  -->
<svg version="1.1" id="Capa_1" xmlns="http://www.w3.org/2000/svg" xmlns:xlink="http://www.w3.org/1999/xlink" x="0px" y="0px"
	 viewBox="0 0 298.5 116.3" style="enable-background:new 0 0 298.5 116.3;" xml:space="preserve">
<style type="text/css">
	.st0{fill:none;}
	.st1{enable-background:new    ;}
	.st2{fill:#333332;}
</style>
<g id="Capa_1_1_">
</g>
<g id="Capa_2">
	<g>
		<rect x="-96.5" y="9" class="st0" width="496" height="124"/>
		<g class="st1">
			<path class="st2" d="M101.5,24.2V9.9h3.2l6.3,8.3c0.2,0.2,0.4,0.6,0.6,1s0.4,0.9,0.7,1.5c-0.1-0.4-0.1-0.8-0.2-1.3s0-0.9,0-1.6
				v-8h2.9v14.3h-3l-6.5-8.5c-0.2-0.2-0.4-0.6-0.6-1s-0.4-0.9-0.7-1.5c0.1,0.4,0.1,0.8,0.2,1.2s0,0.9,0,1.6v8.2H101.5z"/>
			<path class="st2" d="M130.5,9.9v8.9c0,1.9-0.5,3.4-1.5,4.3s-2.6,1.4-4.6,1.4c-2.1,0-3.6-0.5-4.7-1.4s-1.5-2.4-1.5-4.3V9.9h3v8.4
				c0,1.2,0.3,2.1,0.8,2.7s1.3,0.9,2.3,0.9c1,0,1.8-0.3,2.4-0.9s0.8-1.5,0.8-2.7V9.9H130.5z"/>
			<path class="st2" d="M133.6,24.2V9.9h8.4v2.6h-5.4v2.9h5.4V18h-5.4v3.6h5.4v2.6H133.6z"/>
			<path class="st2" d="M144.1,22.4l1.7-1.9c0.2,0.5,0.6,0.9,1,1.2s1,0.5,1.6,0.5c0.7,0,1.3-0.2,1.7-0.5c0.4-0.3,0.6-0.8,0.6-1.4
				c0-0.7-0.7-1.4-2.1-2c-0.4-0.2-0.8-0.4-1.1-0.5c-1.2-0.7-2.1-1.3-2.6-1.9c-0.5-0.6-0.7-1.4-0.7-2.2c0-1.2,0.5-2.1,1.4-2.9
				s2.1-1.1,3.6-1.1c0.9,0,1.6,0.2,2.2,0.5c0.6,0.3,1.2,0.8,1.7,1.4l-1.8,1.7c-0.2-0.4-0.5-0.7-0.9-0.9c-0.4-0.2-0.8-0.3-1.3-0.3
				c-0.6,0-1.1,0.2-1.5,0.5s-0.6,0.7-0.6,1.2c0,0.8,0.7,1.4,2.2,2.1c0.3,0.1,0.5,0.2,0.7,0.3c1.2,0.6,2.1,1.2,2.7,1.9
				c0.6,0.7,0.9,1.5,0.9,2.4c0,1.3-0.5,2.4-1.4,3.2c-0.9,0.8-2.1,1.2-3.7,1.2c-1.1,0-2-0.2-2.8-0.6S144.5,23.1,144.1,22.4z"/>
			<path class="st2" d="M161.6,12.5v11.7h-3.1V12.5H155V9.9h10.1v2.6H161.6z"/>
			<path class="st2" d="M177.4,24.2h-3.5l-3.8-6.7v6.7h-3.1V9.9h4.4c1.7,0,3,0.3,3.9,1c0.9,0.7,1.3,1.7,1.3,3c0,1-0.3,1.8-0.9,2.5
				c-0.6,0.7-1.4,1.1-2.3,1.2L177.4,24.2z M170.1,16h0.5c1.2,0,2.1-0.1,2.5-0.4c0.4-0.3,0.6-0.7,0.6-1.4c0-0.7-0.2-1.2-0.6-1.5
				c-0.4-0.3-1.2-0.4-2.4-0.4h-0.5V16z"/>
			<path class="st2" d="M177.5,24.2L183,9.9h3.5l5.5,14.3h-3.5l-1.2-3h-5.5l-1,3H177.5z M186.6,18.7l-1.6-4.6c0-0.1-0.1-0.4-0.2-0.7
				c-0.1-0.3-0.1-0.7-0.2-1.2c-0.1,0.5-0.2,0.9-0.2,1.2s-0.1,0.6-0.2,0.7l-1.5,4.6H186.6z"/>
			<path class="st2" d="M192.5,22.4l1.7-1.9c0.2,0.5,0.6,0.9,1,1.2c0.5,0.3,1,0.5,1.6,0.5c0.7,0,1.3-0.2,1.7-0.5
				c0.4-0.3,0.6-0.8,0.6-1.4c0-0.7-0.7-1.4-2.1-2c-0.4-0.2-0.8-0.4-1.1-0.5c-1.2-0.7-2.1-1.3-2.6-1.9c-0.5-0.6-0.7-1.4-0.7-2.2
				c0-1.2,0.5-2.1,1.4-2.9c0.9-0.8,2.1-1.1,3.6-1.1c0.9,0,1.6,0.2,2.2,0.5c0.6,0.3,1.2,0.8,1.7,1.4l-1.8,1.7
				c-0.2-0.4-0.5-0.7-0.9-0.9c-0.4-0.2-0.8-0.3-1.3-0.3c-0.6,0-1.1,0.2-1.5,0.5s-0.6,0.7-0.6,1.2c0,0.8,0.7,1.4,2.2,2.1
				c0.3,0.1,0.5,0.2,0.7,0.3c1.2,0.6,2.1,1.2,2.7,1.9c0.6,0.7,0.9,1.5,0.9,2.4c0,1.3-0.5,2.4-1.4,3.2c-0.9,0.8-2.1,1.2-3.7,1.2
				c-1.1,0-2-0.2-2.8-0.6S192.9,23.1,192.5,22.4z"/>
		</g>
		<path class="st2" d="M169.1,107.3l0.3-0.2h0.3l0.4,0.1l0.4-0.4l0.2-0.8l-0.2-0.9l0.2-0.3l-0.1-0.2V104l-0.2-0.3l0.2-0.1l0.1-0.2
			l-0.2-0.4l0.1-0.2v-0.7l-0.3-0.6l-0.2,0.1l0.1-0.2L170,101l-0.2,0.1l-0.4-0.1l-0.4-0.3l-0.5,0.2l-0.4-0.2l-0.6,0.2h-1.8l-0.4,0.1
			l-0.4,0.2l-0.1-0.2l-0.2-0.1h-0.5l-0.1,0.3l0-0.2l-0.5-0.2l-0.2,0.1l-1.4,0.1l-0.6,0.3l-0.2-0.2l-0.4-0.2l-0.4,0.1l-1.3,0
			l-0.4,0.1l-0.3,0.2l-0.2-0.1h-0.8l-0.2-0.1l-0.3,0.1l-0.4-0.2h-0.3l-0.5,0.3l-0.2-0.3h-0.5l-0.6,0.2h-0.7l-0.4-0.2l-0.3,0.1
			l-0.8-0.1l-1.8,0.2l-0.2-0.1H150l-0.3-0.2l-0.5,0.2l-0.4-0.2l-0.6,0.2h-1.8l-0.4,0.1l-0.4,0.2l-0.1-0.2l-0.2-0.1h-0.5l-0.1,0.3
			l-0.1-0.1l-0.5-0.2l-0.2,0.1l-1.4,0.1l-0.6,0.3l-0.2-0.2l-0.4-0.2l-0.4,0.1l-1.4,0.1l-0.4,0.1l-0.3,0.2l-0.2-0.1h-0.8l-0.2-0.1
			l-0.3,0.1l-0.4-0.2h-0.3l-0.5,0.3l-0.2-0.3h-0.5l-0.6,0.2h-0.7l-0.4-0.2l-0.3,0.1l-0.8-0.1l-1.8,0.2l-0.2-0.1h-0.4l-0.5,0.1
			l-0.8,0.4l-0.1,0.5l0.1,0.9l-0.1,0.1v0.4l0.2,0.6l-0.1,0.2l0.2,0.1l0.1,0.2h-0.3l0.1,0.4v0.3h0.2l0.1,0.2L129,106v0.7l0.1,0.2
			l0.2,0.1v0.5l0.3,0.2l0.7,0.1v-0.4l0.2,0.2v0.3h0.3l0.4-0.2l0.4,0.2h0.3l-0.1-0.2l0.1-0.1l0.3,0.2l0.4,0.1l0.2-0.3l0.3,0.2h0.3
			l0.4-0.3l0.3,0.3l0.3-0.3l0.1,0.2l0.1,0.1h1.6l0.2,0.1l0.3-0.2h0.2l-0.1-0.1l-0.2-0.1l-0.1-0.1l0.5,0.2l-0.1,0.2l0.1,0.1h0.4
			l0.4-0.1v-0.3l0.1-0.1l0.2-0.1l0.1,0.2h0.1l0.4-0.2l0.3,0.4h0.3l0.1-0.2v-0.3l0.2-0.1v0.3l0.2,0.2l0.7,0.1h0.5l0.2-0.1l0.1-0.1
			l-0.3,0.1l0.1-0.2l0.2-0.1l0.4,0.1l0.1,0.1l0.1,0.2l0.7-0.1l0.1-0.2l0.2,0.1l0.4,0.1l0.4-0.2l0.3-0.3l0.1,0.3l0.2,0.1l0.5-0.4h0.2
			l-0.2,0.4l0.5-0.1h0.9l-0.1-0.1l-0.3-0.1l0.1-0.2l0.2-0.1l0.3,0.2l1.2,0.3h0.5l0.6-0.1h0.9l0.5,0.1l0,0l0,0l0.1-0.1v0.2h0.3
			l0.4-0.2l0.4,0.2h0.3l-0.1-0.2l0.1-0.1l0.3,0.2l0.4,0.1l0.2-0.3l0.3,0.2h0.3l0.4-0.3l0.3,0.3l0.3-0.3l0.1,0.2l0.1,0.1h1.6l0.2,0.1
			l0.3-0.2h0.2l-0.1-0.1l-0.2-0.1l-0.1-0.1l0.5,0.2l-0.1,0.2l0.1,0.1h0.4l0.4-0.1v-0.3l0.1-0.1l0.2-0.1l0.1,0.2h0.1l0.4-0.2l0.3,0.4
			h0.3l0.1-0.2v-0.3l0.2-0.1v0.3l0.2,0.2l0.7,0.1h0.5l0.2-0.1l0.1-0.1l-0.3,0.1l0.1-0.2l0.2-0.1l0.4,0.1l0.1,0.1l0.1,0.2l0.7-0.1
			l0.1-0.2l0.2,0.1l0.4,0.1l0.4-0.2l0.3-0.3l0.1,0.3l0.2,0.1l0.5-0.4h0.2l-0.2,0.4l0.5-0.1h0.9l-0.1-0.1l-0.3-0.1l0.1-0.2l0.2-0.1
			l0.3,0.2l1.2,0.3h0.5l0.6-0.1L169.1,107.3z M136,101.9l0.1,0.1l-0.1,0.2V101.9z M142.8,104.3h0.2l-0.1,0.5l-0.2,0.1l-0.1-0.2
			L142.8,104.3z M137.3,105.1l-0.2-0.1v-0.1l0.1-0.1l0.2,0.1L137.3,105.1L137.3,105.1z M160.4,105.4v0.2l-0.2,0.1l-0.3-0.3v-0.2
			l0.1-0.1l0.2-0.1L160.4,105.4z M163.2,104.8h0.2l-0.2,0.2l-0.2,0.1v-0.2L163.2,104.8z M159.6,105.8l-0.1-0.1l0.1-0.1l0.1,0.1
			L159.6,105.8z M147.2,103.9l-0.2-0.1l0.1-0.2l0.2,0.1L147.2,103.9z M155.8,104.3l0.1-0.2l0.1,0.2v0.2L155.8,104.3z M153.8,104.5
			v-0.2v-0.2l0.2,0.1l0.1,0.2L153.8,104.5z M157.6,104.2l-0.3-0.2l0.1-0.2l0.2,0.1l0.2,0.4L157.6,104.2z M158.7,103.8l-0.1-0.2
			l0.1-0.2l0.2,0.2v0.2H158.7z M151.8,104.1v0.2l-0.2-0.1V104L151.8,104.1z M148.5,104.5l0.1,0.2h-0.2l-0.1-0.1L148.5,104.5
			L148.5,104.5z M144,105.1l-0.2,0.2l-0.2,0.1v-0.2l0.2-0.2L144,105.1z M147.4,105l0.4,0.1v0.2h-0.2l-0.1-0.1L147.4,105z
			 M142.9,105.7l-0.1,0.3l-0.2-0.1v-0.2l0.1-0.1L142.9,105.7z M154.2,105.4l0.1,0.1l-0.1,0.1V105.4z M152.6,105.8l-0.1-0.1l0.2-0.1
			L152.6,105.8z M151.5,106h0.2l-0.1,0.2h-0.1l-0.1-0.1L151.5,106z M155.4,105.8h0.2l-0.1,0.2l-0.2,0.1l-0.1-0.2L155.4,105.8z
			 M156.2,105.7l0.1-0.1l0.1-0.1h0.2l-0.1,0.2l-0.2,0.1L156.2,105.7z M157.7,105.3h-0.3l-0.1-0.2l0.1-0.3h0.3V105.3z M151.8,105.3
			l-0.2-0.2l0.1-0.2h0.2v0.3L151.8,105.3z M156.4,104.7L156.4,104.7l0.1-0.2l0.2,0.1v0.1l-0.1,0.1L156.4,104.7z M159.5,104.3v-0.2
			h0.1h0.2l-0.1,0.2H159.5L159.5,104.3z M160.4,103.8l-0.1-0.2l0.3-0.1l0.1-0.2l0.2,0.1l0.1,0.2v0.2l-0.2,0.1L160.4,103.8z
			 M161.7,103.5l-0.1-0.1l0.1-0.2h0.3v0.3l-0.1,0.1L161.7,103.5z M163.5,103l0.2,0.1v0.1l-0.2,0.1V103z M165.2,102.9l0.1-0.2h0.2
			l0.1,0.3h-0.2L165.2,102.9z M166.5,102.6l0.1-0.1l0.1,0.2L166.5,102.6z M145,103.5l0.1,0.2v0.2l-0.1,0.2l-0.1-0.1l-0.2-0.3
			l0.1-0.1L145,103.5z M144.2,103.5v-0.3l0.2,0.1v0.1L144.2,103.5z M142.7,103.6l-0.1,0.1h-0.2l-0.1-0.1l0.1-0.2h0.3V103.6z
			 M141.6,103.7l0.1,0.2v0.2l-0.2,0.1l-0.4-0.2l-0.1-0.2l0.3-0.1l0.1-0.2L141.6,103.7z M143.8,104h0.2l0.2,0.4v0.2l-0.4-0.2
			l-0.1-0.2L143.8,104z M144.5,104.7h0.5l-0.1,0.2h-0.3L144.5,104.7z M141,105.7v0.2l-0.2,0.1l-0.3-0.3v-0.2l0.1-0.1l0.2-0.1
			L141,105.7z M140.3,106l-0.1-0.1l0.1-0.1l0.1,0.1L140.3,106z M139.9,105.9l0.1,0.2h-0.2v0.2l-0.5-0.2l0.1-0.2h0.2H139.9z
			 M157.9,106.1v0.3l-0.1-0.1L157.9,106.1z M164.9,105.6L164.9,105.6l-0.1,0.1v-0.1H164.9z M158.8,105.8l0.1-0.2h0.2l0.2,0.1
			l0.1,0.2h-0.2v0.2L158.8,105.8z M162.2,105.7l-0.2-0.1v-0.2l0.1-0.1l0.1,0.1L162.2,105.7z M167.1,104.8v0.2h-0.2l-0.1-0.1v-0.2
			L167.1,104.8z M168.2,104.2l-0.1,0.3l-0.3-0.1l-0.1-0.1l0.1-0.1h0.2L168.2,104.2z M164.3,104.5l-0.1,0.2h-0.3l-0.1-0.2H164.3z
			 M162.1,104.6l-0.1-0.2l0.1-0.4h0.2L162.1,104.6L162.1,104.6z M163.5,104.1v0.2L163,104l-0.1-0.2l0.1-0.1h0.2L163.5,104.1z
			 M166.7,103.5l-0.1,0.1l-0.2-0.1l0.1-0.2L166.7,103.5z M164.5,103.4v0.2l-0.1,0.2l-0.1-0.1l-0.2-0.3l0.1-0.1l0.2,0.1L164.5,103.4z
			 M168.6,102.8l-0.1,0.2l-0.1-0.1l0.1-0.2L168.6,102.8z M169.9,102.2v0.2h-0.2l-0.1-0.1v-0.2L169.9,102.2z M161,102.7l0.1,0.3
			l-0.2-0.1l-0.1-0.1v-0.2L161,102.7z M157.3,102.9l-0.2,0.1v-0.3L157.3,102.9z M164.9,101.8L164.9,101.8l-0.1,0.1v-0.1H164.9z
			 M166.4,101.1l-0.1,0.2l-0.7,0.2v-0.3h0.1L166.4,101.1z M152.5,102.3l0.1,0.2h-0.2l-0.1-0.2H152.5z M155.4,101.7l-0.1,0.2
			l-0.1-0.3L155.4,101.7z M133,102.5h0.2l0.1,0.2h-0.2L133,102.5z M129.8,103h0.1l0.1,0.1L129.8,103z M146.3,101.4h0.1h0.6l-0.1,0.2
			l-0.7,0.2L146.3,101.4z M145.4,102.2L145.4,102.2l0.1-0.1v0.1H145.4z M137.7,102.9l0.2,0.2l-0.2,0.1V102.9z M141.5,103.2l-0.1-0.1
			v-0.2l0.2,0.1l0.1,0.3L141.5,103.2z M147.3,102.7l0.1,0.2l-0.3-0.1L147.3,102.7z M146.2,102.9l0.1,0.3h-0.2l-0.2-0.1l0.1-0.2
			L146.2,102.9z M139.5,103.9v0.2h-0.2l-0.1-0.2l0.1-0.2L139.5,103.9z M138.5,104.5h-0.2l-0.3-0.2l0.1-0.2l0.2,0.1L138.5,104.5z
			 M132.4,104.5v-0.2l0.1,0.1v0.2L132.4,104.5z M134.4,104.5v-0.2l0.2,0.1l0.1,0.2l-0.3,0.1V104.5z M136.5,104.5l0.1-0.2l0.1,0.2
			v0.2L136.5,104.5z M140.2,104.3h0.1h0.2l-0.1,0.2l-0.1,0.1l-0.1-0.1L140.2,104.3z M132.3,105.4l0.1-0.2h0.2v0.3l-0.1,0.1
			L132.3,105.4z M138.1,105h0.3v0.5h-0.3l-0.1-0.2L138.1,105z M135,105.8l-0.1,0.1v-0.2L135,105.8z M133.2,105.9l0.2-0.1
			L133.2,105.9L133.2,105.9z M137.3,105.7l-0.1,0.2L137,106h-0.2l0.1-0.1l0.1-0.1L137.3,105.7z M132.2,106.4L132.2,106.4v-0.2h0.2
			L132.2,106.4L132.2,106.4z M135.9,106.2l0.1-0.2h0.2l-0.1,0.2H135.9L135.9,106.2z M138.4,106.4l0.2-0.1v0.3L138.4,106.4z
			 M145.5,105.9L145.5,105.9l0.1-0.1v0.1H145.5z M140.6,106.9l-0.1-0.1l0.1-0.1l0.2,0.1v0.2L140.6,106.9z M144.1,106.6l0.1-0.2
			l0.2-0.1v0.2l-0.1,0.1H144.1z M140.1,107.3l0.1,0.2h-0.6l-0.1-0.3l0.2-0.1L140.1,107.3z M159.9,106.6l-0.1-0.1l0.1-0.1l0.2,0.1
			v0.2L159.9,106.6z M163.4,106.4l0.1-0.2l0.2-0.1v0.2l-0.1,0.1H163.4z M159.5,107l0.1,0.2H159l-0.1-0.3l0.2-0.1L159.5,107z"/>
		<g>
			<path class="st2" d="M24.3,43l0.1,0.2l0.7-0.1l0.5,0.2l0.2,0.5l0.2-0.1l0.3-0.3l0.4,0.1l0.1,0.2v0.2l0.5-0.2l0.8,0.4l0.8,0.2
				l0.3,0.5l1,0.3l0.8,0.5l0.4,0.5l0.3-0.1l1,0.8l0.3,0.1l0.2,0.4l0.6,0.3v0.3l0.5,0.2l-0.1,0.4l0.1,0.2h0.5l0.2,0.5l0.9,1l0.3,0.7
				l0.5,0.6l0.1,0.3l-0.3,0.4l-0.3,0.7l-1,0.2l-0.3,0.3l-0.7,0.2l-0.4,0.2h-0.5l-1,0.7l-0.6-0.1l0.3,0.4l-1,0.3h-0.2l-0.2-0.2
				l-0.2,0.4l-0.2,0.1L30,55h-0.2l-0.5-0.4h-0.2l-0.2-0.5l-0.4-0.2l-1-1.1L27,52.6l-0.5-0.2L26.1,52h-0.5L25,51.4h-0.3l-0.2,0.2
				L24,51.5l-0.1-0.2v-0.2l-0.2,0.1h-1L22.1,51l-1,0.2l-1.8,0.2l-1.8,1l-1.7,1.1L15,54.4l0.2,0.2l-0.8,1.2l-0.2,0.5v0.5L14,56.9
				l-0.2,0.7l-0.2,0.1V58l-0.3,0.6v0.3l0.3,0.4l-0.1,1.4l0.2,1l0.3,0.7l-0.2,0.4l0.1,0.2l0.3,0.3V64l-0.1,0.1h0.5l0.4,0.2v0.2
				l-0.1,0.2l0.7,0.7l0.6,0.8h0.5l0.3,0.4l1.2,0.8l0.1,0.2h0.5l0.6,0.2l0.3,0.2h0.7l0.2,0.2h2l1-0.1l0.5-0.1l0.6,0.3v-0.2l0.4-0.5
				h0.5l0.6-0.5l1.2-0.5l0.6-0.7l0.6-0.4l0.6-1l0.4-0.3l0.5-0.2h0.5l0.5,0.1l1,0.6l0.3-0.1l0.2,0.2l1,0.4l0.4,0.2l0.1,0.2h0.3
				l0.5,0.2l1.3,0.7h0.3l0.6,0.9l-0.6,1.4L35.6,70l-0.5,0.5V71l-0.8,0.6l-0.7,0.7l-0.3,0.4l-0.9,0.5L31.6,74l-0.2,0.2l-0.7,0.3
				l-1.1,0.7l-1,0.1l-0.5,0.2l-0.2,0.2l-0.5,0.1L27,76h-0.3l-0.1,0.3h-1l-1.1,0.4l-0.2-0.2h-0.6v-0.2h-0.2v0.2l-0.1,0.1h-0.2
				l-0.3-0.1l-0.2-0.2l-0.4,0.4H22l-0.2-0.1l-0.1-0.2l-0.2,0.1L21,76.2L20.3,76l-0.1,0.1v0.2h0.5l0.2,0.2h-0.2l-0.5-0.1L20,76.7
				l-0.2-0.2v-0.2l-0.2-0.1h-0.3l-0.1,0.2l-0.5-0.2l-1.3-0.1l-0.5-0.5h-0.8l-0.1,0l-0.2-0.4H15l-1.3-0.6l-0.4-0.2l-0.1-0.2L12.7,74
				l-0.2-0.5l-0.7-0.2l-0.2-0.5h-0.3l-0.2-0.1l-0.4-0.3l0.1-0.3L10.2,72l-0.4-0.3L9.3,71L9,70.7l-0.5-0.2l-0.1-0.3L8,69.7l0.2-0.5
				L8,69.1H7.8L7.7,69l-0.3-0.6l-0.2-0.1V68L7,67.8l-0.4-0.2V67l-0.2-0.3v-0.3l-0.2-0.1l-0.3-0.7l-0.2-0.2l0.2-0.2v-0.3l-0.2-0.1
				l-0.1-0.2l0.2-1l-0.5-0.1V63L5,62.7v-0.5L5.2,62L5,61.9l-0.1-0.2V61l-0.1-0.2L5,60.6l0.1-0.5L5,59.4v-0.5l0.2-0.2l-0.3-0.2V58
				l-0.1-0.2L5,57.4V57l0-0.3l0.4-0.2l-0.2-0.4l0.4-0.9v-0.3l0.6-1.5V53l0.4-0.5v-0.3L7,51.9l0.2-0.7V51l0.1-0.1l0.2-0.1l0.3-0.4
				L8,50.2l0.2-0.5L8.8,49l0.7-0.7l0.2-0.4H10l0.4-0.5l0.2-0.1l0.3-0.4l0.7-0.6l1.9-1.3l0.5-0.1l0.8-0.5h0.5l0.5-0.2l0.4-0.3
				l1.1-0.1l1.6-0.5l3.9-0.2l1.2,0.1h0.3V43z M5.7,63.2L5.7,63.2V63V63.2z M5.7,61.2l0.2-0.1v-0.2L5.8,61L5.7,61.2z M6.5,59.6
				l0.2-0.1l-0.2-0.1V59.6z M7.1,58.3v-0.2L7,57.9H6.8v0.2L7.1,58.3C7,58.3,7.1,58.3,7.1,58.3z M7.3,61.2l0.2-0.4l-0.2-0.2H7.1H7
				l-0.1,0.2V61L7,61.2H7.3z M7.7,62.4L7.8,62l-0.2,0.1v0.2L7.7,62.4z M7.7,57.6h0.2l-0.1-0.2L7.7,57.6L7.7,57.6z M7.9,66.1L8,66.3
				l0.2-0.1L8.3,66H8.1L7.9,66.1z M8.1,65.1l0.2-0.2L8,64.8v0.1L8.1,65.1z M8.1,60.5h0.5l0.2-0.2l-0.2-0.1H8.4l-0.2,0.1L8.1,60.5z
				 M8.2,55.6l0.2-0.1l-0.2-0.2V55.6z M8.2,64.3l0.1,0.1h0.2l0.1-0.2H8.5L8.2,64.3z M8.7,58.9v-0.2l-0.2-0.1v0.2L8.7,58.9z
				 M8.6,54.4h0.2L9,54.2V54l-0.4,0.2V54.4z M9,63.3l-0.1-0.5H8.7L8.6,63l0.2,0.2L9,63.3z M8.8,58.2v0.2H9l0.2-0.1v-0.2l-0.2,0
				L8.8,58.2z M8.8,64.5L9,64.6l0.2-0.1l0.1-0.2H9.1l-0.2,0.1L8.8,64.5z M8.9,56.9L9,57.1l0.1,0.2l0.5-0.2l-0.1-0.2l-0.4-0.4
				l-0.2,0.1L8.9,56.9z M9.2,62.3v-0.2L9,61.9v0.3L9.2,62.3z M9,65.6l0.2,0.3L9.4,66l0.1-0.2l-0.2-0.4H9.2L9,65.6z M9.5,56.2V56
				V56.2L9.5,56.2z M9.5,65h0.2v-0.1L9.5,65L9.5,65z M9.5,68.5h0.2v-0.2H9.5V68.5z M9.6,55.2l0.1,0.2H10l0.1-0.2L9.7,55L9.6,55.2z
				 M9.6,59.5l0.2,0.7l0.2,0.1l0.2-0.4v-0.5H9.9L9.6,59.5z M9.9,63.8l-0.1-0.2H9.6v0.2H9.9z M10.2,62.8v-0.2l-0.1-0.2H9.8v0.2
				l0.2,0.1L10.2,62.8z M9.8,58.3H10l0.1-0.1l-0.2-0.1L9.8,58.3z M10,57.6l0.1,0.2h0.2v-0.2H10z M10.2,65.5h0.3l0.2-0.2v-0.5h-0.2
				l-0.3,0.4V65.5z M10.2,61.7l0.2,0.1h0.2v-0.2h-0.2L10.2,61.7z M10.7,64l0.1-0.2l-0.1-0.2l-0.2,0.2L10.7,64z M10.6,56.7l0.3-0.1
				l-0.1-0.2h-0.2V56.7z M10.6,55.8l0.2,0.1l0.1-0.1l0.1-0.3l-0.3-0.1L10.6,55.8z M10.6,59.3l0.2,0.1l0.3-0.1l0.2-0.2l-0.1-0.2
				L10.8,59L10.6,59.3z M11.3,69.3l-0.2-0.1L11,69.3H11.3z M11.1,57.6l0.2-0.1v-0.2L11.1,57.6z M11.2,62.3l0.2-0.1l0.1-0.2l-0.3-0.2
				L11.1,62L11.2,62.3z M11.3,66.2l0.2-0.2l-0.3-0.1v0.2L11.3,66.2z M11.5,64.8l-0.2-0.2v0.2H11.5z M11.3,57.3l0.2-0.1V57h-0.2V57.3
				z M11.6,53.4v-0.3L11.4,53v0.2L11.6,53.4z M12.1,65v-0.2L12,64.6h-0.2l0.1,0.2L12.1,65z M11.8,67.4l0.2-0.1l-0.2-0.1V67.4z
				 M12.2,54.1l0.1-0.2l-0.2-0.1L12.2,54.1L12.2,54.1z M12.1,65.3v0.2h0.4l-0.1-0.3L12.1,65.3z M12.3,66.6v-0.3l-0.2-0.1v0.2
				L12.3,66.6z M12.6,50.3h0.2V50h-0.2V50.3z M13.1,71.4h-0.2l-0.2-0.1v0.2h0.2L13.1,71.4z M13.4,67.2l0.1-0.3l-0.2-0.1h-0.2V67
				l0.1,0.1h0.2V67.2z M13.4,53.6L13.4,53.6l-0.1-0.2L13.4,53.6z M13.5,49.6l0.5-0.1l-0.1-0.2l-0.2-0.1l-0.2,0.1V49.6z M14,68.8
				v-0.2h-0.2v0.2H14z M13.8,67.5l0.1,0.2l0.3,0.1l0.1-0.2L14,67.5H13.8z M14.1,50.8h0.2l-0.2-0.2V50.8z M14.5,66.7l-0.1-0.2
				l-0.3-0.1l0.1,0.2L14.5,66.7z M15.1,69.1h-0.3l0.1,0.2H15L15.1,69.1z M16,68.7h0.2v-0.2H16V68.7z M16.2,51.3l0.2,0.1l-0.2-0.2
				V51.3z M16.3,71.5l0.2,0.1h0.3l0.2-0.1l-0.4-0.3h-0.2L16.3,71.5z M16.8,74l0.1,0.2h0.2V74H16.8z M17.5,72.2h0.2L17.5,72V72.2z
				 M18,70.7h0.2v-0.2H18V70.7z M18.5,71.7h0.3l-0.2-0.2L18.5,71.7z M19,49.5h0.2H19L19,49.5z M19,74.4h0.1l0.1-0.2H19V74.4z
				 M19.4,73.1l-0.1-0.2L19.1,73L19.4,73.1z M19.6,71.7v-0.2h-0.2l0.1,0.3L19.6,71.7z M19.9,46.4h0.2v-0.2L19.9,46.4z M20,69.9
				l0.2-0.1L20,69.7V69.9z M20.3,72.2L20.3,72.2h0.2H20.3L20.3,72.2z M20.4,48.8h0.2l-0.2-0.2V48.8z M20.6,72.6h0.2l0.1-0.1h-0.2
				L20.6,72.6z M21,71.5v-0.4h-0.2v0.3L21,71.5z M21.2,70.3h-0.3l0.1,0.2L21.2,70.3z M21.7,47.4h0.2l0.1-0.2l-0.2-0.1v0.3H21.7z
				 M22.1,71.1l0.2-0.1v-0.2l-0.2-0.1L22,70.8L22.1,71.1z M22.2,69.9l0.2,0.2h0.2l-0.2-0.2H22.2z M22.5,72.9h0.3l0.1-0.2l-0.4-0.2
				l-0.1,0.2L22.5,72.9z M22.7,73.8l-0.1-0.2l-0.2,0.1l0.1,0.1H22.7z M22.6,48.1l0.2-0.1l0.1-0.5l-0.2,0.1l-0.1,0.2V48.1z
				 M23.4,74.3v-0.2h-0.2v0.2H23.4z M23.7,73.3l0.2-0.1L23.8,73l-0.2-0.1l-0.1,0.3L23.7,73.3z M23.7,71.9v0.2l0.5,0.1v-0.3l-0.2,0
				H23.7z M23.8,70.9l0.2-0.1l-0.2-0.1V70.9z M24,46.1h0.2l-0.1-0.2L24,46.1z M24.3,73.6l0.2-0.1v-0.2h-0.2V73.6z M24.4,50v-0.2
				h-0.1v0.1L24.4,50z M24.7,69.9v-0.2l-0.2-0.1v0.2L24.7,69.9z M24.9,48.8l-0.2-0.1l0.1,0.2L24.9,48.8z M24.9,71.7l0.2-0.1v-0.2
				h-0.2V71.7z M25.2,45.7h0.2v-0.2l-0.2-0.1l-0.1,0.2L25.2,45.7z M25.7,49.6v-0.2h-0.1L25.7,49.6z M25.8,49.3l0.2-0.1l-0.2-0.1
				V49.3z M26.3,47.4l0.2,0.1l-0.2-0.2V47.4z M26.6,49.3l0.5-0.2L27,48.9l-0.4-0.2L26.5,49L26.6,49.3z M26.6,72.3h0.2l-0.2-0.2V72.3
				z M26.9,47.8l0.2,0.1v-0.3l-0.2-0.1l-0.1-0.2v0.5H26.9z M27.3,46.9h0.2v-0.2h-0.2V46.9z M28,72.9h0.2L28,72.7V72.9z M28.4,51.3
				h0.3V51h-0.2l-0.2,0.2L28.4,51.3z M28.7,50.1l0.1-0.2l-0.1-0.4l-0.2-0.1V50L28.7,50.1z M29.1,69.6h-0.3v0.2H29L29.1,69.6z
				 M29.1,47.9h0.3v-0.3l-0.2-0.1l-0.1,0.2L29.1,47.9z M29.1,51.8h0.2v-0.2h-0.2V51.8z M29.4,71.3L29.4,71.3l-0.2-0.1L29.4,71.3z
				 M29.3,46.7h0.1l0.1-0.2L29.3,46.7L29.3,46.7z M29.7,49.6l0.4-0.2v-0.3L29.9,49l-0.2-0.1l-0.1,0.5L29.7,49.6z M29.6,50.4h0.2
				v-0.1L29.6,50.4L29.6,50.4z M30,48.4h0.2v-0.2h-0.1L30,48.4z M30,51.8v0.4l0.3,0.1l0.1-0.3l-0.1-0.2H30z M30.8,48.7l0.1,0.2
				l0.4-0.1v-0.2h-0.4L30.8,48.7z M30.9,54.7v-0.2l-0.2-0.1v0.2L30.9,54.7z M30.9,52.8l0.2-0.1v-0.2L31,52.6L30.9,52.8z M31.5,51.7
				l-0.3-0.1v0.2h0.2L31.5,51.7z M36.7,52l0.2-0.1l-0.1-0.2l-0.2-0.1L36.7,52L36.7,52z"/>
			<path class="st2" d="M69.4,43.5l0.5,0.2l0.1,0.2h0.3l0.2,0.1l0.6,0.7l0.1,1.5v0.5L70.9,47l-0.2,0.1l0.4,0.5L71,49.1l0.1,0.5
				l0.1,0.2l-0.5,1.4l-0.3,0.4l-0.9,0.2L69,51.6l-0.5,0.2H68l-1.3-0.1L66.3,52l-0.5-0.2h-1.5l-0.2-0.1L63.6,52v-0.2l-0.2-0.1
				l-1.6,0.1l-0.9-0.2l-0.5,0.2h-1.7L58.3,52l-0.2-0.2l-1.2-0.2h-0.2l-0.3,0.2L56,51.7l-0.2,0.1l-1,0.2l-0.2,0.5l-0.3,0.4l0.1,2.1
				l0.1,0.5l0.2,0.4l0.4,0.3l0.5,0.1l0.7-0.1l0.2,0.1l0.5-0.2l0.2,0.1h1.1l0.2,0.1l1-0.2l0.7,0.1l0.4,0.2l0.6-0.2h0.5l1,0.2l0.7-0.2
				l0.5,0.1l0.2,0.2l0.5-0.2h0.2l0.1,0.1l0.2-0.1l0.5-0.1l1.7,0.2l0.5,0.6v0.5l0.1,1.5l0.1,0.4l-0.1,0.2l0.3,0.6L68,60.7l-0.2-0.1
				v0.3l0.1,0.1h0.2v1.5L68,63l-0.2,0.4l-0.3-0.1l-0.2,0.1l-0.2,0.4h-0.7l-0.2-0.2l-0.4,0.2h-0.5l-0.6-0.1L64,63.6l-0.4,0.2h-1
				L62.3,64h-0.2L62,63.9v-0.3l-0.2,0.1l-0.1,0.2h-1.6l-0.5-0.1l-0.5-0.3L59,64h-0.3l-0.4-0.3l-0.2,0.2l0,0.1h-0.5l-1-0.2l-1,0.1
				l-0.7,0.5l-0.2,0.5L54.5,66l0.2,1.3l0.5,0.5l0.5,0.1H56l0.5,0.2L57,68l0.5,0.1l1-0.2l0.9,0.2l0.2-0.1l0.5,0.3l0.1-0.4l0.5,0.1
				v0.3l0.1,0.2l0.2-0.1V68h0.5l0.8-0.2l0.1,0.5l0.2-0.1l0.5,0.2L63,68l0.2-0.1l1.1,0.2l0.2-0.1l0.3,0.1l0.2,0.2l0.4-0.3l0.5-0.1
				l0.7,0.2l0.6-0.1l0.2,0.2l0.2-0.1l0.5-0.1l0.2-0.2l0.4,0.2l0.5-0.1l1.3,0.3l0.2,0.5l0.4,0.4l-0.2,0.4V70l0.3,0.6L71,70.9l0.1,1.1
				L71,72.5v2.2l-0.2,0.7l-0.6,0.5l0,0.1l-1.5,0.1L68,75.9L67.5,76h-1.1l-0.7,0.1l-0.2,0.1l-0.4-0.1h-0.5l-1.1,0.1L63,76l-0.5,0.2
				H62l0-0.4l-1.5,0.3H60l-1-0.2l-0.6,0.2L58.1,76h-1.5l-0.7-0.1L55.5,76h-0.8l-0.2,0.1L54,76l-1.8,0.1L52,75.8l-0.3,0.4h-0.3
				L51,75.9l-0.5,0.2L49,76l-0.4,0.2L48,76l-0.2-0.1l-0.7,0.2l-0.5-0.3l-0.5-0.6v-0.3l0.2-0.2l-0.2-0.2V74l0.1-1.1L46,72.6l0.1-0.7
				L46,71.6l0.1-0.2l0.2-0.1L46,70.8l0.1-0.2l-0.1-1l0.2-0.5v-0.3L46,68.6l0.3-0.3l-0.1-0.5v-1.2L45.9,66l0.1-0.5l0.2-0.1l-0.1-0.5
				v-1.4L46,63l0.3-0.6L46,61.9l0.1-1v-0.5L46,60.2l0.1-0.5L46,59.2v-2l-0.2-1v-0.4l0.2-0.4v-0.5l0.2-0.4l-0.1-0.3v-0.5L46,53.5
				l0.3-0.3l-0.1-0.5v-0.8l-0.1-0.2l0.1-0.5l-0.1-0.5l0.2-0.4l-0.2-0.8v-0.2l0.1-0.2L46,48.4l0.1-1.5L46,46.7l0.1-2.1l0.3-0.9
				l0.2-0.1l3.9-0.2h1.1l0.1,0.1l0.2,0.1h0.3l0.4-0.2l0.6,0.2l0.9-0.2l0.3,0.2l0.6-0.2h0.5l1,0.2l1.1-0.2l0.4,0.1h0.5l0.5,0.3
				l0.2-0.1l0.2-0.3l1.1,0.1h1l0.5-0.1h0.2l0.4,0.3l0.1-0.2l0.2-0.1h0.7l0.3-0.1l0.5,0.1l0.9-0.2h1l0.2,0.1h1l0.5-0.1l0.2,0.1h0.6
				l0.2,0.1l0.2-0.1L69.4,43.5z M47.6,70.5v-0.2h-0.2L47.6,70.5z M47.6,53l0.2-0.1v-0.2l-0.1-0.2h-0.2v0.2L47.6,53z M47.9,68.2
				l-0.3,0.2h0.6l0.1-0.2h-0.2H47.9z M47.8,64.6v-0.2l-0.2-0.1L47.8,64.6z M47.8,51.9H48l0.1-0.2l-0.3-0.1V51.9z M48.4,59.8L48,59.5
				v0.2l0.2,0.1H48.4z M48.1,67l0.2,0.1l0.2-0.1l-0.1-0.2h-0.2L48.1,67z M48.2,58.2h0.2l0.2-0.1v-0.2l-0.3-0.1V58L48.2,58.2z
				 M48.3,50.7h0.2l0.1-0.2l-0.3-0.1V50.7z M48.4,71.2l0.2-0.2l0.1-0.3l-0.2-0.1L48.4,71V71.2z M49.3,65.4v-0.2L49.2,65l-0.4-0.2
				h-0.3l0.1,0.2l0.4,0.3L49.3,65.4z M48.5,70l0.5,0.2l-0.5-0.7V70z M48.6,62.4l0.2-0.1l-0.2-0.1V62.4z M48.9,57.5v-0.2h-0.2
				L48.9,57.5z M48.7,52H49l0.1-0.2l-0.2-0.2L48.7,52z M48.8,56.2l0.2,0.2l0.3-0.1l0.1-0.3l-0.2-0.1L48.9,56L48.8,56.2z M49,67.8
				l0.7,0.4l-0.1-0.5l-0.4-0.2L49,67.8z M49,63.8l0.2-0.1L49,63.6V63.8z M49.4,55.1l0.1-0.5h-0.3l-0.1,0.2l0.1,0.2L49.4,55.1z
				 M49.6,71.6l-0.1-0.2h-0.2l0.1,0.2H49.6z M49.6,57.8h0.2v-0.2l-0.2-0.1l-0.2,0.2L49.6,57.8z M49.6,49.2h0.2V49l-0.1-0.1
				L49.6,49.2z M49.6,61.9h0.2v-0.2h-0.2V61.9z M49.6,70.6h0.3v-0.2h-0.2L49.6,70.6z M49.7,69v0.2l0.1,0.2l0.2,0.1l0.1-0.3V69h-0.2
				H49.7z M50.1,64.7l0.1,0.2l0.2,0.1l0.1-0.3L50.1,64.7z M50.1,73.1h0.4l-0.4-0.2V73.1z M50.2,68.5h0.3v-0.3l-0.2-0.1v0.2
				L50.2,68.5z M50.4,72.3l0.1-0.2v-0.5l-0.1-0.1L50.2,72v0.2L50.4,72.3z M50.3,47.3h0.2l0.1-0.3l-0.2-0.1l-0.2,0.2v0.2H50.3z
				 M50.6,55.6l-0.2,0.1l0.1,0.1L50.6,55.6z M50.8,54.6l-0.1-0.4l-0.2-0.1v0.3L50.8,54.6L50.8,54.6z M50.4,58.4l0.1,0.2h0.2l0.1-0.2
				h-0.2H50.4z M50.9,66l-0.1-0.2h-0.2V66H50.9z M50.9,71l-0.2,0.1l0.2,0.1V71z M50.7,45.4h0.2l0.1-0.2l-0.3-0.1V45.4z M50.8,57h0.3
				L51,56.8L50.8,57z M51,49.7l0.2,0.1l0.1-0.2L51,49.7z M51.4,44v-0.2l-0.2-0.1l-0.1,0.2l0.1,0.2L51.4,44z M51.2,49.1l0.2-0.1
				l-0.2-0.1V49.1z M51.2,63.9l0.1,0.2h0.2v-0.3L51.2,63.9z M51.3,69.1l0.1-0.2l-0.2-0.2L51.1,69L51.3,69.1z M51.2,72.9h0.2l0.5-0.1
				l-0.2-0.5l-0.2-0.1l-0.2,0.4L51.2,72.9z M51.2,70.2h0.2V70h-0.2V70.2z M51.4,46.7l0.2,0.1l0.2-0.1l-0.2-0.2L51.4,46.7z
				 M51.8,71.8l0.1-0.6l-0.5-0.1v0.5l0.1,0.2H51.8z M51.7,53.8v-0.3l-0.2,0.1L51.7,53.8z M52,55.3l-0.1-0.2L51.7,55l-0.1,0.2
				l0.2,0.2H52V55.3z M51.6,66.9h0.5l0.2-0.1l-0.1-0.2L52,66.5l-0.2,0.1L51.6,66.9z M51.6,73.8v0.3l0.2,0.1H52l0.2-0.2v-0.2
				l-0.4-0.1L51.6,73.8z M51.8,65.4l0.1,0.3l0.3,0.1v-0.3L52,65.4H51.8z M52,56.6h0.4l-0.1-0.2H52V56.6z M52.1,59.4l0.2,0.1l0.1-0.5
				h-0.2v0.2L52.1,59.4z M52.1,69.5l0.1,0.2l0.2,0.1v-0.5L52.1,69.5z M52.2,48h0.2l-0.1-0.2h-0.2L52.2,48L52.2,48z M52.2,73.3h0.2
				l0.1-0.1l-0.3-0.1V73.3z M52.3,63.5L52.3,63.5h0.2H52.3L52.3,63.5z M52.4,68.3l0.2-0.1V68h-0.1l-0.1,0.2V68.3z M52.6,68.8h0.2
				l-0.2-0.2V68.8z M52.7,62.3h0.2L52.8,62L52.7,62.3z M53.1,71.2v-0.5l-0.2,0.1L52.7,71l0.1,0.2H53.1z M52.7,72.2h0.2L53,72h-0.2
				L52.7,72.2L52.7,72.2z M53.1,66.4v-0.2L52.9,66l-0.1,0.2v0.2L53.1,66.4z M53.5,65.3l-0.3-0.4L53,65l0.3,0.3H53.5z M53.2,60.3
				l0.2,0.1l0.1-0.3l-0.2,0.1L53.2,60.3z M53.2,69.1l0.4,0.1L53.4,69L53.2,69.1z M53.2,73.9l0.2-0.1l-0.2-0.1V73.9z M53.9,58.8
				l-0.2-0.2h-0.3v0.3l0.2,0.1h0.2L53.9,58.8z M53.7,63.4l0.2-0.1L54,63h-0.2L53.7,63.4z M53.8,71.9l0.5-0.1l-0.1-0.4L54,71.5
				l-0.1,0.2v0.2H53.8z M53.9,70.3l0.5,0.2l-0.1-0.2h-0.2H53.9z M54.5,45.9l-0.1-0.2l-0.5-0.2v0.2l0.1,0.2h0.2H54.5z M53.9,61.7
				l0.3,0.1l0.1-0.4l-0.1-0.2l-0.3,0.2V61.7z M54.4,73.1h0.3l0.1-0.2l-0.2-0.2h-0.2l-0.1,0.2L54.4,73.1z M54.7,59.5h-0.3l0.1,0.2
				L54.7,59.5z M54.5,70l0.1-0.2h-0.2L54.5,70z M54.6,74.3v-0.2L54.4,74v0.2L54.6,74.3z M54.7,48.3L54.7,48.3l-0.1,0.1L54.7,48.3z
				 M54.9,46.3l0.1,0.2h0.2l-0.1-0.3L54.9,46.3z M54.9,58.8L54.9,58.8l0.1-0.2h-0.1V58.8z M54.9,69.9l0.2,0.1l0.2-0.1l0.2-0.2H55
				L54.9,69.9z M55.6,61.5v-0.6l-0.2-0.1L55.3,61v0.3L55.6,61.5z M55.6,72.5v0.2l0.2,0.1l0.1-0.3l-0.2-0.2L55.6,72.5z M55.6,73.9
				l0.6-0.1l-0.1-0.2L56,73.5l-0.2-0.1l-0.1,0.2v0.3H55.6z M56.3,75l-0.2-0.1l0.1,0.2L56.3,75z M56.6,60.7l0.2-0.3l-0.4-0.2
				l-0.1,0.2v0.2L56.6,60.7z M57,72.4l0.2-0.1L57,72.2V72.4z M57.1,58.5L57.1,58.5l0.2,0.2l0.1-0.3L57.1,58.5z M57.6,74.7L57.6,74.7
				l0.2-0.2h-0.2C57.6,74.5,57.6,74.7,57.6,74.7z M57.8,72.8l0.1,0.3l0.4-0.2L58,72.7L57.8,72.8z M58.1,47.4h0.2l-0.1-0.2L58.1,47.4
				L58.1,47.4z M58.8,61H59v-0.2l0,0L58.8,61z M58.8,71l0.5,0.1l0.1-0.2L59,70.8L58.8,71z M58.9,59.6h0.2v-0.2l-0.2,0.1V59.6z
				 M59.6,71.5L59.6,71.5h0.2H59.6L59.6,71.5z M59.7,70.5h0.2l0.1-0.1l-0.2-0.1L59.7,70.5L59.7,70.5z M60,74v-0.4h-0.3l0.1,0.2
				L60,74z M60.2,60.6l0.3-0.2v-0.2h-0.3l-0.1,0.2L60.2,60.6z M60.3,48.2h0.2v-0.1L60.3,48.2L60.3,48.2z M60.8,58.9l-0.2-0.2h-0.3
				V59l0.2,0.1h0.2L60.8,58.9z M60.8,71.9l-0.1-0.2h-0.2l0.1,0.2H60.8z M60.9,61.8l0.2-0.1l0.1-0.2L61,61.4l-0.2,0.1l-0.1,0.2
				L60.9,61.8z M62.2,71.4L62,71h-0.4v0.2l0.4,0.2L62.2,71.4z M63.4,73.5v-0.2l-0.1-0.1L63.4,73.5L63.4,73.5z M63.6,44.4v-0.3h-0.2
				v0.2L63.6,44.4z M65.7,48.7v-0.2h-0.2v0.2H65.7z M65.8,68.4H66v-0.2l-0.2-0.1V68.4z M66.4,73.9v-0.2l-0.1-0.1l-0.1,0.2L66.4,73.9
				z"/>
			<path class="st2" d="M90.1,43.5v0.4h0.3l0.4-0.2l0.3,0.3l0.6-0.1l0.2-0.2l0.5,0.5V44l-0.2-0.2l1.3-0.2l0.1,0.5L94,44l0.2-0.5h0.5
				l2.1,0.2h0.5l0.5-0.2l0.5,0.1h0.2l0.2,0.1l0.1,0.2l0.5-0.2l0.9,0.3l2,0.3l0.4,0.5l0.3-0.1l0.2,0.1l0.8,0.7l1,0.5l0.6,0.8l0.7,0.5
				l1.3,2.1l0.6,1.8v0.2l0.4,0.4l0.3,4.1v0.5l-0.3,0.9l0.1,0.5l-0.1,0.5l-0.4,0.9v0.5l-0.6,1.5l-0.2,0.4l-0.7,0.7v0.3l-0.1,0.2
				l-0.5,0.4v0.4l-0.8,0.5l-0.8,0.9h-0.2l-0.4,0.2l-0.2,0.2l-0.1,0.3l-0.5,0.4l-0.1,0.6v0.2l0.3,0.4l0.4,0.4v0.2l0.2,0.5l0.7,0.7
				v0.2l0.6,1l0.6,0.7l0.2,0.4l0.1,0.5l0.4,0.2l0.1,0.4l0.5,0.4l0.2,0.4v0.2l0.4,0.4l0.6,0.9l0.1,0.4l-0.1,0.4l-0.2,0.2l-0.5,0.1
				l-1.2,0.1l-0.6-0.2l-1.8,0.2l-0.2-0.1l-0.1-0.2l-1.1,0.2l-1-0.2l-0.8,0.2h-0.5l-1.4-0.4l-0.3-0.4l-0.6-1l0-0.1l-0.1-0.3l-0.2-0.1
				l-0.1-0.3l-0.6-0.7l-0.1-0.5h-0.5l-0.5-0.9l-0.1-0.3l-0.4-0.5v-0.3L95.2,70l-0.3-0.1l-0.1-0.3l-0.7-1L94,68.3l-0.4-0.2l-0.3-0.3
				l-0.1-0.2l-0.7-0.2L92,67.3l-0.5,0.2l-0.4-0.2l-0.5,0.1l-0.2-0.1L90,67.5h-0.2l-0.5,0.2l-0.2,0.2h-0.2l0.2,0.1L89,68.2v1l0,0.3
				v0.3l0.2,0.2v0.2l-0.3,0.3l0.2,0.4L89,71.8l0.2,0.4v0.5l-0.1,0.2L88.9,73l0.1,0.2l0.1,0.5v1.8l-0.4,0.3l-0.6,0.4l-0.8-0.3
				L87.1,76l-0.3,0.3L85.5,76l-0.2,0.1L84.8,76h-1l-1,0.1h-1l-1-0.3l-0.2-0.2l0.1-0.6v-0.5l-0.1-0.8l0.1-0.3l-0.1-0.5l0.4-0.3
				l-0.4-0.2l0.1-0.2L80.5,71l0.2-0.5l-0.1-0.4v-2l-0.1-0.9v-0.5l0.3-0.4l-0.2-0.5v-0.3l0.2-0.2l-0.2-0.2v-0.2l0.1-0.8L80.6,64v-1
				l0.1-0.1l-0.1-0.4l0.1-1l-0.1-0.4H81l-0.4-0.2v-0.2l0.2-0.2L80.6,60v-0.5l0.1-1.6l0.3-0.1l-0.3-0.2l-0.2-0.2l0.2-0.2V57l-0.1-0.5
				v-0.2l0.2-0.1l-0.2-0.5v-0.2l0.2-0.2l-0.4-0.5l0.2-2v-3l0.1-0.7l-0.2-0.7v-0.5l0.3-0.3l-0.2-0.7l0.1-0.5L80.6,46v-0.9l0.1-0.2
				l0.2-0.1H81l-0.1-0.2l-0.1-0.1v-0.2H81l0.2-0.4l0.5,0.1l0.2-0.3l0.5,0.1l0.2,0.1l1-0.2h0.5l0.4,0.1l0.2,0.2l1.1-0.3l0.6,0.2
				l0.5-0.1h1.4l0.2,0.2h0.9l0.5-0.1h0.2V43.5z M81.8,73.1H82l-0.1-0.2L81.8,73.1z M82,44.9l0.2-0.1L82,44.6V44.9z M82.4,48.5
				l-0.1-0.2L82,48.2l0.1,0.2L82.4,48.5z M82.4,67.1h0.2v-0.2l-0.2-0.1V67.1L82.4,67.1L82.4,67.1z M82.7,49.8v-0.2h-0.2L82.7,49.8z
				 M82.6,50.3h0.2l0.1-0.2v-0.2l-0.2-0.1L82.6,50.3L82.6,50.3z M82.6,69.9h0.2H82.6L82.6,69.9z M82.7,61.1l0.1,0.2H83V61L82.7,61.1
				z M82.8,65.2L83,65h-0.2V65.2z M82.8,47.7v0.2l0.1,0.1h0.2l0.1-0.2v-0.2H83L82.8,47.7z M82.8,49.1l0.5,0.1h0.2L83,48.8L82.8,49.1
				z M82.9,52.9l0.2-0.1v-0.2l-0.2-0.1v0.2V52.9z M83,71.2h0.2l0.4-0.1l-0.1-0.2l-0.2-0.1l-0.2,0.1L83,71.2z M83.1,60.3h0.3l0.1-0.2
				l-0.3,0.1L83.1,60.3z M83.1,67.8l0.4-0.2h-0.1l-0.2-0.1L83.1,67.8z M83.2,59.3h0.2V59h-0.2V59.3z M83.6,62.4v-0.2h-0.2v0.2H83.6z
				 M83.7,63.1v-0.2l-0.2-0.1V63L83.7,63.1z M83.8,46.7l0.1-0.2l-0.1-0.2h-0.2v0.3L83.8,46.7z M83.6,61.7l0.1,0.2l0.5-0.1L84,61.6
				h-0.2L83.6,61.7z M83.6,53.1l0.1,0.2l0.2,0.1l0.1-0.1l-0.1-0.2H83.6L83.6,53.1z M83.6,58.3L83.6,58.3L83.6,58.3L83.6,58.3
				L83.6,58.3z M83.7,64.9l0.1,0.5l0.2,0.1l0.2-0.6H84H83.7z M83.9,49.6l0.1-0.2v-0.3L83.8,49l-0.1,0.2v0.2L83.9,49.6z M84,48.7
				l0.4-0.3L84.1,48v0.3L84,48.5V48.7z M83.9,60.6h0.6l-0.1-0.2h-0.2L83.9,60.6L83.9,60.6z M83.9,67.6v0.3l0.2,0.2l0.3,0.1v-0.3
				l-0.2-0.2L84,67.6H83.9z M84,64.4v0.2h0.2v-0.2H84L84,64.4z M84.6,47.2L84.5,47l-0.3-0.1v0.2l0.2,0.1H84.6z M84.3,65.8l0.1,0.2
				l0.2,0.1h0.5l0.2-0.1l0.1-0.2l-0.8-0.1L84.3,65.8z M84.4,63.2l0.1,0.2h0.2l0.2-0.2l-0.2-0.1L84.4,63.2z M84.7,54.7l0.1-0.2
				l-0.1-0.1V54.7L84.7,54.7z M85.2,50.2L85.1,50l-0.2-0.1L84.6,50l0.1,0.2l0.2,0.1L85.2,50.2L85.2,50.2z M84.8,71v-0.3h-0.2V71
				H84.8z M85.2,73.5v-0.2L85,73.1h-0.2v0.2l0.1,0.2L85.2,73.5L85.2,73.5z M85.2,46.1l0.1-0.2L84.8,46l0.2,0.1H85.2z M84.8,62.4
				l0.2-0.1V62h-0.2V62.4z M85.1,68.6v-0.3h-0.3v0.3H85.1z M85.5,49.1l0.1-0.2l-0.1-0.2l-0.4-0.3L85,48.6l0.1,0.2l0.2,0.2L85.5,49.1
				z M85.2,56.9l0.2-0.3l-0.2-0.1L85,56.8L85.2,56.9z M85.1,48.2l0.5-0.2v-0.5l-0.2-0.1L85.1,48V48.2z M85.3,64.1h0.2v-0.2h-0.2
				V64.1z M85.4,46.8l0.2,0.1h0.2l0.2-0.2l-0.5-0.1L85.4,46.8z M85.4,60.5h0.2v-0.2h-0.2V60.5z M85.5,50.9h0.2l-0.1-0.2L85.5,50.9z
				 M85.6,50.3v0.2h0.2v-0.2H85.6z M85.7,70h0.2v-0.2h-0.2V70z M85.8,61.6l0.3,0.2l0.1-0.3H86L85.8,61.6z M85.8,49.5h0.4v-0.3H86
				l-0.2,0.1L85.8,49.5z M86.2,46.1l0.2-0.2v-0.3l-0.3-0.1L86,45.9L86.2,46.1z M86.5,52.2L86,51.9v0.3l0.1,0.2L86.5,52.2z
				 M86.1,72.9l0.2,0.1h0.1v-0.4l-0.2-0.1L86,72.7L86.1,72.9z M86.4,44.9v-0.2h-0.2v0.2H86.4z M86.2,46.8h0.2l-0.2-0.2V46.8z
				 M86.6,64.5L86.5,64h-0.1l-0.1,0.2l0.1,0.2L86.6,64.5z M86.6,72v-0.2l-0.1-0.2l-0.2-0.1l0.1,0.4L86.6,72z M86.5,48.3h0.3v-0.2
				h-0.2L86.5,48.3z M86.9,56.3l-0.5-0.4v0.2l0.2,0.1L86.9,56.3z M86.5,66.6l0.1,0.2l0.2,0.1v-0.2L86.5,66.6z M86.6,47.6l0.4-0.1
				l-0.2-0.3l-0.1,0.1L86.6,47.6z M86.7,51.3H87l0.1-0.5l-0.3-0.2l-0.1,0.2v0.3V51.3z M86.8,46.4H87v-0.2h-0.2V46.4z M86.8,49.8
				l0.2-0.2h-0.2V49.8z M86.8,50.1l0.1,0.2h0.2L87,50.1H86.8z M87.2,58.8l0.1-0.2L87,58.5v0.2L87.2,58.8z M87,48.8l0.1,0.2l0.2-0.1
				l-0.1-0.2L87,48.8z M87.4,66.3v-0.2h-0.2L87.4,66.3L87.4,66.3z M87.2,72.1h0.2l0.2-0.1l0.1-0.2l-0.4,0.1L87.2,72.1z M87.3,51.7
				L87.3,51.7l0.4,0.1v-0.3l-0.1-0.1l-0.2,0.1L87.3,51.7z M87.3,45.3h0.2v-0.2h-0.2V45.3z M87.4,56.8l0.2-0.2h-0.2V56.8z M87.5,63.2
				l0.2-0.1v-0.2h-0.3L87.5,63.2z M87.7,48l0.2-0.1v-0.2l-0.2-0.1V48L87.7,48z M87.8,55.3v-0.4h-0.2v0.3L87.8,55.3z M87.7,45.5
				l0.2,0.2l0.2-0.2h-0.2H87.7z M87.7,47.2L88,47l0.1-0.7h-0.2L87.7,47V47.2z M88.1,50.8l0.2-0.4l-0.1-0.2h-0.3v0.3l0.1,0.2
				L88.1,50.8z M88.2,66.7v-0.3L88,66.3l-0.1,0.3L88.2,66.7z M88.2,48.1v0.2l0.3,0.4h0.3v-0.2L88.4,48L88.2,48.1z M88.3,49.8
				l0.2-0.1l0.1-0.6L88.2,49v0.4l-0.1,0.2L88.3,49.8z M88.8,47.5l0.2-0.1l0.1-0.4h-0.2l-0.1,0.2V47.5z M90.7,51.3l-0.5-0.1l-1,0.4
				l-0.1,0.9V53l-0.4,0.2v0.6l0.3-0.3l0.1,0.1l-0.5,0.9L89,55l0.1,0.5L89,56.6v0.9l0.1,0.2l-0.2,0.4h0.2l0.2,0.2v0.5l0.3,0.6
				l0.6,0.3h0.6l0.5-0.1h0.5l0.9,0.2h0.5l0.2,0.1l0.2-0.2l0.3-0.1l0.5,0.2h0.4l0.5-0.1l0.2,0.1l0.1-0.2h0.2l0.2,0.1h0.5l1.5-0.4h0.5
				l0.1-0.2l0.2-0.1h0.3l0.2-0.5l0.5-0.2l0.5-0.8l0.6-1.9v-0.5l-0.3-0.5l0.1-0.4l-0.8-1.7L99,52.1l-0.2-0.5h-0.5l-1-0.3l-0.4-0.2
				l-0.4,0.1H96l-0.5-0.1L95.3,51l-0.2,0.2h-0.5L94,51.1h-0.5l-0.2,0.2L93.1,51l-0.3,0.3h-0.2L92.3,51l-0.5,0.3l-0.2-0.2L91.3,51
				l-0.4,0.2L90.7,51.3z M89.2,46.5l0.1-0.2l-0.1-0.2H89l-0.1,0.2l0.1,0.2H89.2z M89.4,45.4l-0.1-0.2h-0.2v0.2H89.4z M90,48.1v-0.2
				l-0.3-0.3l-0.2-0.1l-0.1,0.2l0.1,0.2l0.2,0.2L90,48.1z M89.6,48.9l0.1-0.4h-0.2l-0.1,0.2L89.6,48.9z M90.5,47.3l0.3,0.1l0.1-0.4
				l-0.2-0.1l-0.2,0.2L90.5,47.3z M90.6,48.8l0.2-0.1l0.2-0.5L90.9,48h-0.2l-0.1,0.5L90.6,48.8z M91.1,46.5l0.2,0.1l0.2-0.1l0.6,0.6
				l0.2-0.1l-0.1-0.2l-0.4-0.5L91.3,46h-0.2l-0.2,0.1L91.1,46.5z M91.6,62.8v-0.3l-0.2-0.1l-0.1,0.3L91.6,62.8z M91.5,49.3h0.2
				L92,49l-0.3-0.1l-0.1,0.2L91.5,49.3L91.5,49.3z M91.6,48.1l0.1,0.2H92l0.1-0.3L92,47.9L91.9,48L91.6,48.1z M92.6,45.9l0.2-0.1
				l-0.2-0.1V45.9z M93.1,48.8v-0.2h-0.2v0.2H93.1z M93.6,46.4l-0.1-0.3L93.3,46l-0.1,0.2l0.2,0.1L93.6,46.4z M93.2,47.6l0.2-0.1
				l0.1-0.2L93.4,47l-0.2,0.1v0.2C93.2,47.3,93.2,47.6,93.2,47.6z M93.5,49.1l0.5,0.2l-0.2-0.5l-0.2-0.1l-0.1,0.2
				C93.5,48.9,93.5,49.1,93.5,49.1z M94.1,47l0.1,0.2l0.2,0.1l0.2-0.4v-0.3l-0.5,0.2L94.1,47z M94.2,45.4l0.1,0.3h0.2l0.1-0.3h-0.2
				H94.2z M94.7,48.6h0.4v-0.2l-0.4-0.2V48.6z M94.9,49.8l0.2,0.1l-0.2-0.2V49.8z M95.3,46.8h0.2l0.4-0.2l-0.1-0.2l-0.2-0.1
				l-0.2,0.1l-0.1,0.2L95.3,46.8z M95.7,44.9l0.2,0.1l-0.2-0.2V44.9z M95.7,45.4h0.2v-0.1L95.7,45.4L95.7,45.4z M96.1,48.1
				L96.1,48.1l0.3,0.1L96.2,48L96.1,48.1z M97.1,61.1h0.2l-0.2-0.2V61.1z M98,67.6l-0.2-0.2l-0.3-0.1l0.1,0.2l0.1,0.1H98z
				 M97.9,45.4l0.5,0.1l-0.1-0.3H98L97.9,45.4z M98.6,47.1l0.3,0.1L98.8,47L98.6,47.1z M98.7,49.1v0.2h0.6l-0.1-0.2L99,49L98.7,49.1
				z M99.1,67.9v-0.2h-0.2L99.1,67.9L99.1,67.9z M99.9,63.8v-0.3l-0.2-0.1v0.2L99.9,63.8L99.9,63.8z M100.9,71.8h0.2v-0.2l-0.2-0.1
				V71.8z M101.2,70.7L101.2,70.7l0.2-0.2L101.2,70.7L101.2,70.7z M101.8,68.7l-0.1-0.3v0.2L101.8,68.7z M102.2,59.9v-0.2H102v0.2
				H102.2z M102,71.1l0.1,0.2h0.3l-0.1-0.4L102,71.1z M102.1,52.3l0.2-0.2h-0.2V52.3z M102.1,64l0.2-0.1v-0.3l-0.2-0.1v0.3V64z
				 M103,56.9v-0.3l-0.1-0.2L103,56.9L103,56.9z M102.9,59.2h0.2V59h-0.2V59.2z M103,58.1L103,58.1l0.2-0.2l-0.2-0.1V58.1z
				 M103.3,51.7l0.2-0.1v-0.2l-0.2,0.1V51.7z M103.4,62.1h0.2l0.1-0.1l-0.3-0.1C103.4,61.9,103.4,62.1,103.4,62.1z M103.6,53.3
				l0.3-0.1l0.2-0.2h-0.2l-0.2,0.1L103.6,53.3z M103.8,57.4l0.2,0.1l0.1-0.3h-0.2L103.8,57.4z M104.5,58.9l0.2-0.2v-0.2l-0.2,0.1
				V58.9z M105.2,55.9l0.2-0.1v-0.3l-0.2-0.1v0.2V55.9z M105.9,52.3h0.2v-0.1L105.9,52.3z"/>
			<path class="st2" d="M124.6,70.2l0.2-0.1l0.2-0.2l-0.6-0.6l-0.3-0.5v-0.5l0.1-0.2l-0.9-1.3v-0.5l-0.4-1.4l-0.2-0.3l-0.2-0.6
				l-0.1-0.2h0.2l-0.4-0.2l-0.1-0.5v-0.5l-0.6-0.5v-0.6l-0.4-0.8l0.1-0.4l-0.3-0.3l-0.4-0.8l-0.1-0.8l-0.4-0.3l-0.5-1.2l-0.2-0.2
				l0.2-0.3l-0.3-0.4l-0.4-0.7l-0.1-0.5l0.1-0.2l-0.3-0.3l-0.5-0.8l-0.3-1.5l-0.3-0.2l-0.8-2.2l-0.6-0.8l-0.2-1.1l-0.2-0.2v-0.2
				l-0.1-0.2v-0.2l-0.6-0.7l-0.2-1.6l0.4-0.1l-0.2-0.5l0.7-0.1l0.2-0.2l0.6,0.1h0.7l0.5-0.2l0.4,0.3l0.5-0.2h0.5l0.1,0.2l0.5-0.3
				h0.3l0.1,0.3l0.2-0.1l0.1-0.2l0.4,0.3l0.2-0.2l0.7-0.2l0.8,0.2l0.2,0.2l0.4-0.2l0.9,0.6l0.1,0.9l-0.1,0.2l0.5,0.2l0.2,0.7
				l-0.1,0.2l0.5,0.6l-0.1,0.8l0.5,0.3v0.3l0.4,1v0.2l-0.2,0.2l0.8,0.5V51l0.3,0.3l-0.2,0.2l0.3,0.5l-0.2,0.4l0.5,0.2l0.2,1l0.2,0.2
				v0.6l0.6,1l-0.2,0.2l0.5,0.7v0.5l0.7,1.4v0.5l0.7,1.4l0.5,1.9l0.4,0.6l0.1,0.6l0.4,0.6l0.6-0.1l0.5-1.4l0.3-0.4l0.1-0.5l0.7-1.9
				l0.7-1.5v-0.3l0.1-0.5h0.5l-0.1-0.5l0.1-0.5l0.5-0.8v-0.2l0.1-0.5l0.2-0.4l0.5-0.5l-0.2-0.2l0.3-0.5l-0.1-0.4l0.2-0.5l0.7-1v-0.6
				l0.1-0.5l0.6-1.4v-0.5l0.6-0.7l-0.1-0.5l-0.1,0l0.5-1.5l0.3-0.4L139,45l0.1-0.5l0.7-0.8l0.2,0.1l0.2,0.2l0.2-0.5l0.3,0.1l0.2,0.2
				l0.5-0.4l0.4,0.2h0.2l1-0.2l0.3,0.4h0.5l0.4,0.2l0.1-0.1l-0.1-0.2l2.2-0.2l0.4,0.2h0.5v0.2h0.4v0.2l-0.3,0.1l0.3,0.4l-0.2,0.5
				h-0.2l0.1,0.2l-0.1,0.5l-0.3,0.4v1l-0.1,0.2l-0.3,0.3l-0.1,0.2l-0.5-0.2v0.2l0.3,0.3v0.2l-0.4,0.6l-0.3,1l-0.3,0.7l-0.5,0.1
				l-0.1,0.2l0.1,0.2v0.2l0.2,0.1l-0.1,0.2l-0.1,0.9h-0.5l0.1,0.1h0.3l-0.5,1.2H144l-0.2-0.1l0.1,0.2l0.2,0.3l-0.3,0.4l-0.7,1.9
				L143,57l0.1,0.3l-0.1,0.2l-0.4,0.4l0.1,0.4l-0.2,0.2l-0.3,1.2l-0.1,0.2l-0.5-0.2V60l0.3,0.4l-0.2,0.2l-0.4,1L141,62v0.6l-0.4,0.8
				v0.2l-0.4,0.4v0.3l-0.1,0.5l-0.6,0.7V66l-0.6,1v0.5l-0.5,0.8l-0.7,1.8l-0.2,0.4l0.1,0.5l-0.5,0.2v0.3l0.1,0.2l-0.2,0.5v0.3
				l-0.4,0.6l-0.2,0.1l-0.1,0.5V74l-0.1,0.3l-0.3,0.3l-0.5,1.1h-0.3l-0.5,0.5h-0.3l0.2-0.5h-0.2l-0.8,0.4h-0.6l-0.2-0.4l-0.5,0.2
				L131,76l-0.5,0.2h-0.2l-0.4-0.2h-0.2l0.1-0.4l-0.2,0.2l-0.1,0.3L129,76l0.1-0.2l0.2-0.1l-0.2-0.1l-0.5,0.3h-0.5l-0.2-0.1
				l-0.2-0.5l-0.2,0.2h-0.2l-0.7-0.2v-0.6l-0.4-0.8v-0.2l0.1-0.3h-0.5l-0.2-0.4l-0.1-0.4l0.1-0.2l-0.5-0.5l0.1-0.2l0.2-0.1l-0.1-0.2
				l-0.5-0.2v-0.5L124.6,70.2z M118.9,50v-0.2l-0.1-0.1L118.9,50z M119.1,51l0.4,0.2l0.2-0.1l-0.4-0.2L119.1,51z M119.3,55.9v0.2
				l0.2-0.1L119.3,55.9L119.3,55.9z M119.6,46.5l0.1-0.2l-0.2-0.1L119.6,46.5z M119.5,49.8l0.2,0.1h0.2v-0.2h-0.3L119.5,49.8z
				 M120.4,49.1l-0.2,0.1l0.1,0.1L120.4,49.1z M120.5,52.7v-0.3l-0.2-0.1l-0.1,0.2l0.1,0.2L120.5,52.7z M121.2,49.8l0.2-0.1v-0.2
				l-0.2-0.1V49.8z M121.8,53.4h-0.3l-0.2-0.2v0.2l0.4,0.2L121.8,53.4z M121.3,48.8l0.2-0.1l-0.2-0.1V48.8z M121.5,52v0.2h0.4V52
				l-0.2-0.1L121.5,52z M121.6,52.7h0.2v-0.2l-0.2-0.1V52.7z M122,56.5L122,56.5l0.1-0.2H122V56.5z M122.4,55.1v-0.4h-0.1l-0.2-0.1
				v0.2l0.1,0.2L122.4,55.1z M123.5,55.3h-0.4l0.2,0.2L123.5,55.3z M123.9,51.3l0.2-0.1v-0.3h-0.2l-0.1,0.2L123.9,51.3z M123.9,61.6
				l0.2,0.1l-0.2-0.2V61.6z M124,56.3h0.2v-0.2L124,56V56.3z M124.5,49.2V49h-0.2L124.5,49.2z M125.9,68.8l0.3,0.1l-0.1-0.2
				L125.9,68.8z M126.2,72.9v-0.2l-0.2-0.1v0.2L126.2,72.9z M127.1,62.1l-0.1-0.2l-0.2-0.1l0.1,0.3H127.1z M127.1,59.3l0.1,0.2h0.2
				l0.1-0.2H127.1z M127.8,67.4h0.2v-0.2h-0.2V67.4z M128,69.6l0.4-0.5l-0.2,0.1l-0.1,0.2L128,69.6z M128.5,72.6l-0.1-0.2l-0.2-0.1
				v0.3L128.5,72.6z M129.5,71.7l0.2,0.2l0.1,0.2L130,72v-0.2l-0.1-0.2l-0.2-0.1L129.5,71.7z M130.2,70l-0.3-0.2L130,70H130.2z
				 M130.2,72.6l0.4-0.1l0.1-0.2l-0.4,0.1L130.2,72.6z M130.3,73.7l0.2-0.1l-0.2-0.2V73.7z M130.6,69v-0.3l-0.2,0.1V69H130.6z
				 M130.6,68.1l0.4,0.1h0.2l-0.1-0.2l-0.3-0.3l-0.2,0.2L130.6,68.1z M130.8,71.7l0.2-0.1l0.1-0.2l-0.1-0.2l-0.2,0.1l-0.1,0.2
				L130.8,71.7z M131.5,74v-0.3l-0.2-0.2v0.3L131.5,74z M131.5,72.1h0.1v-0.2h-0.1V72.1z M131.5,73.3l0.2-0.1V73l-0.2-0.2l-0.1,0.3
				L131.5,73.3z M131.7,68.5h0.2v-0.4l-0.3-0.2v0.6H131.7z M132.2,71.3L132.2,71.3l-0.1-0.2L132.2,71.3z M132.4,70l0.2-0.2v-0.2
				l-0.1-0.2h-0.2v0.4L132.4,70z M132.8,71.7h0.2l-0.2-0.2V71.7z M133.6,69.6l0.1,0.2h0.2l0.1-0.2l-0.2-0.1L133.6,69.6z M134.3,64.7
				l-0.3-0.1l0.1,0.2L134.3,64.7z M135.4,59.3h0.1v-0.2h-0.1V59.3z M135.6,62.1h0.3v-0.2l-0.2-0.1L135.6,62.1z M135.8,65.4h0.2v-0.2
				h-0.2V65.4z M136.1,68.7l0.1-0.2l-0.1-0.2h-0.2L136.1,68.7L136.1,68.7z M136.3,60l0.2-0.1l0.1-0.2l-0.1-0.1l-0.2,0.2V60z
				 M136.6,65.3l0.6-0.3l-0.1-0.2h-0.2l-0.2,0.2L136.6,65.3z M136.7,58.8v-0.2l-0.1-0.1v0.2L136.7,58.8z M136.9,64h0.2l-0.1-0.3
				L136.9,64z M137.3,56.3H137v0.2h0.2L137.3,56.3z M137.8,54.5l0.2-0.1v-0.3h-0.2l-0.1,0.2L137.8,54.5z M137.8,61.5h0.2l-0.1-0.2
				L137.8,61.5z M137.9,60.7h0.3l-0.1-0.2L137.9,60.7z M138,55.9l0.5,0.2l0.1-0.2l-0.2-0.4l-0.2,0.2L138,55.9z M138,63.4h0.2
				l0.2-0.2l-0.1-0.2l-0.1,0.1H138L138,63.4z M138.3,54.6h0.2l0.1-0.1l-0.1-0.2h-0.1L138.3,54.6z M138.6,57.3l0.2,0.1l0.2-0.1
				l-0.3-0.3L138.6,57.3z M138.9,58.8l0.1-0.2v-0.4l-0.3-0.1v0.5L138.9,58.8z M138.9,53.9h0.2l0.2-0.4H139l-0.1,0.2V53.9z
				 M138.9,59.9l0.2,0.2l0.2-0.3l-0.2-0.1L138.9,59.9z M139,52.6v0.2l0.2,0.1l0.2-0.1v-0.2h-0.2H139z M139.2,55.2l0.2,0.5l0.2,0.1
				l0.1-0.2v-0.2l-0.1-0.2l-0.2-0.1L139.2,55.2z M139.8,56.5v0.2h0.2v-0.4L139.8,56.5z M140,50h0.2v-0.2H140V50z M140.1,52.5
				l0.3,0.1h0.2v-0.3l-0.1-0.2l-0.2-0.1h-0.2l-0.1,0.2v0.3H140.1z M140.1,53.2l0.1,0.3l0.2-0.1v-0.3h-0.2L140.1,53.2z M140.5,54.9
				h0.3l0.3-0.3l-0.2-0.1l-0.2,0.1L140.5,54.9z M140.9,56.2V56l-0.1-0.1l-0.1,0.2L140.9,56.2z M140.8,47.7h0.2v-0.2h-0.2V47.7z
				 M141.2,53.9l-0.2-0.5l-0.2-0.1v0.2l0.2,0.2L141.2,53.9z M141.4,49.3v-0.2l-0.2-0.2l-0.2-0.1V49l0.1,0.2L141.4,49.3L141.4,49.3z
				 M141,57.6l0.5-0.1v-0.4h-0.2l-0.1,0.1L141,57.6z M141.3,52v0.2h0.5l0.2-0.6h-0.2v0.2h-0.2L141.3,52z M141.6,48.2l0.2-0.1
				l-0.2-0.1V48.2z M142.2,47.1l-0.1-0.2h-0.2v0.2H142.2z M142,53.1h0.2l0.1-0.1l-0.3-0.1V53.1z M142,54.6l0.3-0.1l-0.1-0.2H142
				V54.6z M142.2,48.3v0.2l0.2,0.1l0.2-0.3h-0.2H142.2z M142.8,51.1l0.1,0.3l0.2-0.1l0.1-0.2L143,51L142.8,51.1z M142.9,54h0.2v-0.2
				l-0.1-0.1L142.9,54z M143.1,50.2h0.2V50h-0.2V50.2z M143.5,48.2h0.3v-0.4h-0.3V48.2z M145.4,51.3v0.2h-0.3l0.1-0.2H145.4z
				 M146.5,47.6v-0.2h-0.2L146.5,47.6L146.5,47.6z"/>
			<path class="st2" d="M180.1,43.5l0.5,0.2l0.1,0.2h0.3l0.2,0.1l0.6,0.7l0.1,1.5v0.5l-0.2,0.4l-0.2,0.1l0.4,0.5l-0.1,1.5l0.1,0.5
				l0.1,0.2l-0.5,1.4l-0.3,0.4l-0.9,0.2l-0.5-0.2l-0.5,0.2h-0.5l-1.3-0.1L177,52l-0.5-0.2H175l-0.2-0.1l-0.5,0.2v-0.2l-0.2-0.1
				l-1.6,0.1l-0.9-0.2l-0.5,0.2h-1.7l-0.5,0.2l-0.2-0.2l-1.2-0.2h-0.2l-0.3,0.2l-0.3-0.2l-0.2,0.1l-1,0.2l-0.2,0.5l-0.3,0.4l0.1,2.1
				l0.1,0.5l0.2,0.4l0.4,0.3l0.5,0.1L167,56l0.2,0.1l0.5-0.2l0.2,0.1h1.1l0.2,0.1l1-0.2l0.7,0.1l0.4,0.2l0.6-0.2h0.5l1,0.2l0.7-0.2
				l0.5,0.1l0.2,0.2l0.5-0.2h0.2l0.1,0.1l0.2-0.1l0.5-0.1l1.7,0.2l0.5,0.6v0.5l0.1,1.5l-0.1,0.4l-0.1,0.2l0.3,0.6l-0.2,0.5l-0.2-0.1
				v0.3l0.1,0.1h0.2v1.5l-0.1,0.5l-0.2,0.4l-0.3-0.1l-0.2,0.1l-0.2,0.4h-0.7l-0.2-0.2l-0.4,0.2h-0.5l-0.6-0.1l-0.7-0.2l-0.4,0.2h-1
				L173,64h-0.2l-0.1-0.1v-0.3l-0.2,0.1l-0.1,0.2h-1.6l-0.5-0.1l-0.5-0.3l-0.1,0.5h-0.3l-0.4-0.3l-0.2,0.2l-0.1,0.2h-0.5l-1-0.2
				l-1,0.1l-0.7,0.5l-0.2,0.5l-0.2,1.1l0.2,1.3l0.5,0.5l0.5,0.1h0.3l0.5,0.2l0.5-0.1L168,68l1-0.2l0.9,0.2l0.2-0.1l0.5,0.3l0.1-0.4
				l0.5,0.1v0.3l0.1,0.2l0.2-0.1l0.1-0.4h0.5l0.8-0.2l0.1,0.5l0.2-0.1l0.5,0.2l-0.1-0.5l0.2-0.1l1.1,0.2l0.2-0.1l0.3,0.1l0.2,0.2
				L176,68l0.5-0.1l0.7,0.2l0.6-0.1l0.2,0.2l0.2-0.1l0.5-0.1l0.2-0.2l0.4,0.2l0.5-0.1l1.3,0.3l0.2,0.5l0.4,0.4l-0.2,0.4V70l0.3,0.6
				l-0.2,0.4l0.1,1.1l-0.1,0.5v2.2l-0.2,0.7l-0.6,0.5l-0.1,0.2l-1.5,0.1l-0.7-0.2l-0.5,0.1h-1.1l-0.7,0.1l-0.2,0.1l-0.4-0.1h-0.5
				l-1.1,0.1l-0.5-0.2l-0.5,0.2h-0.5l-0.1-0.3l-1.5,0.3h-0.5l-1-0.2l-0.6,0.2l-0.5-0.1h-1.5l-0.7-0.1l-0.5,0.1h-0.8l-0.2,0.1
				l-0.5-0.2l-1.8,0.1l-0.3-0.4l-0.3,0.4h-0.3l-0.4-0.2l-0.5,0.2H159l-0.4,0.2l-0.7-0.2l-0.2-0.1l-0.7,0.2l-0.5-0.3l-0.5-0.6v-0.3
				l0.2-0.2l-0.2-0.2v-0.5l0.1-1.1l-0.2-0.5L156,72l-0.1-0.2l0.1-0.2l0.2-0.1l-0.3-0.5l0.1-0.2l-0.1-1l0.2-0.5V69l-0.2-0.2l0.3-0.3
				l-0.1-0.5v-1.2l-0.2-0.5l0.1-0.5l0.2-0.1l-0.1-0.5v-1.4l-0.1-0.5l0.3-0.6l-0.3-0.5l0.1-1v-0.5l-0.1-0.2l0.1-0.5l-0.1-0.5v-2
				l-0.2-1v-0.4l0.2-0.4l-0.1-0.5l0.2-0.4l-0.1-0.3V54l-0.1-0.2l0.3-0.3l-0.1-0.5v-0.8L156,52l0.1-0.5L156,51l0.2-0.4l-0.2-0.8v-0.2
				l0.1-0.2l-0.2-0.7l0.1-1.5l-0.1-0.2l0.1-2.1l0.3-0.9l0.2-0.1l3.9-0.2h1.1l0.1,0.1l0.2,0.1h0.3l0.4-0.2l0.6,0.2l0.9-0.2l0.3,0.2
				l0.6-0.2h0.5l1,0.2l1.1-0.2l0.4,0.1h0.5l0.5,0.3l0.2-0.1l0.2-0.3l1.1,0.1h1l0.5-0.1h0.2l0.4,0.3l0.1-0.2l0.2-0.1h0.7l0.3-0.1
				l0.5,0.1l0.9-0.2h1l0.2,0.1h1l0.5-0.1l0.2,0.1h0.6l0.2,0.1l0.2-0.1L180.1,43.5z M158.2,70.5v-0.2H158L158.2,70.5z M158.3,53
				l0.2-0.1v-0.2l-0.1-0.2h-0.2v0.2L158.3,53z M158.5,68.2l-0.3,0.2h0.6l0.1-0.2h-0.2H158.5z M158.4,64.6v-0.2l-0.2-0.1L158.4,64.6z
				 M158.4,51.9h0.2l0.1-0.2l-0.3-0.1V51.9z M159.1,59.8l-0.4-0.3v0.2l0.2,0.1H159.1z M158.7,67l0.2,0.1l0.2-0.1l-0.1-0.2h-0.2
				L158.7,67z M158.8,58.2h0.2l0.2-0.1v-0.2l-0.3-0.1V58L158.8,58.2z M158.9,50.7h0.2l0.1-0.2l-0.3-0.1V50.7z M159.1,71.2l0.2-0.2
				l0.1-0.3l-0.2-0.1L159,71L159.1,71.2z M159.9,65.4v-0.2l-0.1-0.2l-0.4-0.2h-0.3l0.1,0.2l0.4,0.3L159.9,65.4z M159.2,70l0.5,0.2
				l-0.5-0.7V70z M159.3,62.4l0.2-0.1l-0.2-0.1V62.4z M159.5,57.5v-0.2h-0.2L159.5,57.5z M159.4,52h0.2l0.1-0.2l-0.2-0.2L159.4,52z
				 M159.4,56.2l0.2,0.2l0.3-0.1L160,56l-0.2-0.1l-0.2,0.1L159.4,56.2z M159.6,67.8l0.7,0.4l-0.1-0.5l-0.4-0.2L159.6,67.8z
				 M159.7,63.8l0.2-0.1l-0.2-0.1V63.8z M160.1,55.1l0.1-0.5h-0.3l-0.1,0.2l0.1,0.2L160.1,55.1z M160.2,71.6l-0.1-0.2h-0.2l0.1,0.2
				H160.2z M160.2,57.8h0.2v-0.2l-0.2-0.1l-0.2,0.2L160.2,57.8z M160.3,49.2h0.2V49l-0.1-0.1L160.3,49.2z M160.3,61.9h0.2v-0.2h-0.2
				V61.9z M160.3,70.6h0.3v-0.2h-0.2L160.3,70.6z M160.4,69v0.2l0.1,0.2l0.2,0.1l0.1-0.3l-0.1-0.2h-0.2L160.4,69z M160.7,64.7
				l0.1,0.2L161,65l0.1-0.3H160.7z M160.7,73.1h0.4l-0.4-0.2V73.1z M160.8,68.5h0.3v-0.3l-0.2-0.1v0.2L160.8,68.5z M161.1,72.3
				l0.1-0.2v-0.5l-0.1-0.1l-0.2,0.5v0.2L161.1,72.3z M160.9,47.3h0.2l0.1-0.3l-0.2-0.1l-0.2,0.2L160.9,47.3L160.9,47.3z M161.2,55.6
				l-0.2,0.1l0.1,0.1L161.2,55.6z M161.4,54.6l-0.1-0.4l-0.2-0.1v0.3l0.2,0.2H161.4z M161.1,58.4l0.1,0.2h0.2l0.1-0.2h-0.2H161.1z
				 M161.5,66l-0.1-0.2h-0.2V66H161.5z M161.5,71l-0.2,0.1l0.2,0.1V71z M161.4,45.4h0.2l0.1-0.2l-0.3-0.1V45.4z M161.4,57h0.3
				l-0.1-0.3L161.4,57z M161.6,49.7l0.2,0.1l0.1-0.2L161.6,49.7z M162.1,44v-0.2l-0.2-0.1l-0.1,0.2l0.1,0.2L162.1,44z M161.8,49.1
				L162,49l-0.2-0.1V49.1z M161.8,63.9l0.1,0.2h0.2v-0.3L161.8,63.9z M162,69.1l0.1-0.2l-0.2-0.2l-0.1,0.3L162,69.1z M161.8,72.9
				h0.2l0.5-0.1l-0.2-0.5l-0.2-0.1l-0.2,0.4L161.8,72.9z M161.9,70.2h0.2L162,70h-0.2v0.2H161.9z M162.1,46.7l0.2,0.1l0.2-0.1
				l-0.2-0.2L162.1,46.7z M162.4,71.8l0.1-0.6l-0.5-0.1v0.5l0.1,0.2H162.4z M162.3,53.8v-0.3l-0.2,0.1L162.3,53.8z M162.6,55.3
				l-0.1-0.2l-0.2-0.1l-0.1,0.2l0.2,0.2h0.2V55.3z M162.3,66.9h0.5l0.2-0.1l-0.1-0.2l-0.2-0.1l-0.2,0.1L162.3,66.9z M162.3,73.8v0.3
				l0.2,0.1h0.2l0.2-0.2v-0.2l-0.4-0.1L162.3,73.8z M162.4,65.4l0.1,0.3l0.3,0.1v-0.3l-0.1-0.1H162.4z M162.6,56.6h0.4l-0.1-0.2
				h-0.2L162.6,56.6z M162.7,59.4l0.2,0.1L163,59h-0.2v0.2L162.7,59.4z M162.7,69.5l0.1,0.2l0.2,0.1v-0.5L162.7,69.5z M162.8,48h0.2
				l-0.1-0.2h-0.2V48H162.8z M162.9,73.3h0.2l0.1-0.1l-0.3-0.1V73.3z M163,63.5L163,63.5h0.2H163L163,63.5z M163.1,68.3l0.2-0.1V68
				l-0.2-0.1l-0.1,0.2v0.2H163.1z M163.2,68.8h0.2l-0.2-0.2V68.8z M163.3,62.3h0.2l-0.2-0.2V62.3z M163.7,71.2v-0.5l-0.2,0.1
				l-0.1,0.2l0.1,0.2C163.5,71.2,163.7,71.2,163.7,71.2z M163.3,72.2h0.2l0.1-0.2h-0.2v0.2H163.3z M163.7,66.4v-0.2l-0.1-0.2
				l-0.1,0.2v0.2H163.7z M164.1,65.3l-0.3-0.4l-0.2,0.1l0.3,0.3H164.1z M163.8,60.3l0.2,0.1l0.1-0.3l-0.2,0.1L163.8,60.3z
				 M163.9,69.1l0.4,0.1l-0.2-0.2L163.9,69.1z M163.9,73.9l0.2-0.1l-0.2-0.1V73.9z M164.5,58.8l-0.2-0.2H164v0.3l0.2,0.1h0.2
				L164.5,58.8z M164.3,63.4l0.2-0.1l0.1-0.2h-0.2L164.3,63.4z M164.4,71.9l0.5-0.1l-0.1-0.4l-0.2,0.1l-0.1,0.2L164.4,71.9
				L164.4,71.9z M164.5,70.3l0.5,0.2l-0.1-0.2h-0.2H164.5z M165.1,45.9l-0.1-0.2l-0.5-0.2v0.2l0.1,0.2h0.2H165.1z M164.6,61.7
				l0.3,0.1l0.1-0.4l-0.1-0.2l-0.3,0.2V61.7z M165,73.1h0.3l0.1-0.2l-0.2-0.2H165l-0.1,0.2L165,73.1z M165.3,59.5H165l0.1,0.2
				L165.3,59.5z M165.1,70l0.1-0.2H165L165.1,70z M165.2,74.3v-0.2L165,74v0.2L165.2,74.3z M165.3,48.3l-0.1-0.1v0.2L165.3,48.3z
				 M165.6,46.3l0.1,0.2h0.2l-0.1-0.3L165.6,46.3z M165.6,58.8h0.1v-0.2h-0.1V58.8z M165.6,69.9l0.2,0.1l0.2-0.1l0.2-0.2h-0.5
				L165.6,69.9z M166.2,61.5v-0.6l-0.2-0.1l-0.1,0.2v0.3L166.2,61.5z M166.2,72.5v0.2l0.2,0.1l0.1-0.3l-0.2-0.2L166.2,72.5z
				 M166.2,73.9l0.6-0.1l-0.1-0.2l-0.1-0.1l-0.2-0.1l-0.1,0.2L166.2,73.9L166.2,73.9z M167,75l-0.2-0.1L167,75L167,75z M167.2,60.7
				l0.2-0.3l-0.4-0.2l-0.1,0.2v0.2L167.2,60.7z M167.7,72.4l0.2-0.1l-0.2-0.1V72.4z M167.8,58.5L167.8,58.5l0.2,0.2l0.1-0.3
				L167.8,58.5z M168.2,74.7h0.1l0.1-0.2h-0.2L168.2,74.7L168.2,74.7z M168.4,72.8l0.1,0.3l0.4-0.2l-0.2-0.1L168.4,72.8z
				 M168.8,47.4h0.2l-0.1-0.2L168.8,47.4L168.8,47.4z M169.5,61h0.2v-0.2l-0.2,0.1V61z M169.5,71l0.5,0.1l0.1-0.2l-0.5-0.1L169.5,71
				z M169.6,59.6h0.2v-0.2l-0.2,0.1V59.6z M170.2,71.5L170.2,71.5h0.2H170.2L170.2,71.5z M170.4,70.5h0.2l0.1-0.1l-0.2-0.1v0.2
				H170.4z M170.7,74v-0.4h-0.3l0.1,0.2L170.7,74z M170.8,60.6l0.3-0.2v-0.2h-0.3l-0.1,0.2L170.8,60.6z M170.9,48.2h0.2v-0.1
				L170.9,48.2L170.9,48.2z M171.5,58.9l-0.2-0.2H171V59l0.2,0.1h0.2L171.5,58.9z M171.5,71.9l-0.1-0.2h-0.2l0.1,0.2H171.5z
				 M171.6,61.8l0.2-0.1l0.1-0.2l-0.2-0.2l-0.2,0.1l-0.1,0.2L171.6,61.8z M172.8,71.4l-0.2-0.4h-0.4v0.2l0.4,0.2L172.8,71.4z
				 M174,73.5v-0.2l-0.1-0.1v0.2L174,73.5z M174.2,44.4v-0.3H174v0.2L174.2,44.4z M176.4,48.7v-0.2h-0.2v0.2H176.4z M176.4,68.4h0.2
				v-0.2l-0.2-0.1V68.4z M177.1,73.9v-0.2l-0.1-0.1l-0.1,0.2L177.1,73.9z"/>
			<path class="st2" d="M217.4,68.1l0.4,1.4v3.9l-0.1,2l-0.4-0.1l-0.1,0.2l0.1,0.2l-0.4,0.3l-0.5,0.1h-1.5l-0.5,0.1l-0.5-0.3
				l-0.8,0.2h-0.5l-0.2-0.1l-0.2,0.1h-0.5l-0.2-0.1l-1.5,0.1l-0.9-0.1l-1.5,0.1l-1.9-0.1l-0.5,0.1l-0.5-0.1l-1.3,0.1l-0.2-0.1
				l-0.5,0.1l-0.6-0.2l-0.7,0.2L201,76l-0.2-0.2L200,76h-0.4l-0.2-0.2l-0.1,0.2l-0.5,0.1l-0.6-0.1h-0.5l-0.3-0.1l-0.2-0.2l-0.2,0.1
				h-0.3l-0.2-0.2l-0.4,0.3l-0.1-0.1l-1.6,0.1l-0.3-0.2l-0.3,0.3l-0.2-0.1h-1.2l-0.2-0.1l-0.5,0.1h-1l-0.4-0.7l-0.5-1.5L190,73v-0.7
				l0.2-0.4l-0.1-0.2l-0.1-1h0.2l-0.1-0.8l0.2-0.5l0.5-0.8l1.2-1.5l0.5-0.2l0.3-0.7l1-1.1l0.2-0.5l0.5-0.3l0.1-0.5l0.2-0.1l0.6-0.7
				l0.2-0.1l0.1-0.3l0.5-0.5v-0.3l0.4-0.3l0.5-0.8L198,60l0.6-0.9l0.2-0.1v-0.3l0.8-0.9l0.1-0.2l0.3-0.1v-0.2l0.2-0.1l0.4-0.7
				l0.3-0.4l0.2-0.1l0.2-0.5l0.3-0.4l0.4-0.2v-0.2l0.5-0.5v-0.3l1.1-1.1l0.1-0.5l-0.1-0.2l-0.7-0.6l-0.8,0.2l-0.5-0.1l-0.2-0.1
				l-1.2,0.2h-2l-0.4-0.2l-1.8,0.2h-2.1l-0.3-0.2l-0.7,0.2h-1.5l-0.5,0.1l-0.5-0.5l-0.2-0.4l-0.1-0.5l0.1-1.2v-1.1l0.1-0.5l-0.2-0.2
				v-0.2l0.1-1.1l-0.1-0.2l0.2-0.5v-1.1l0.1-0.2l0.3-0.3l0.5-0.1h0.3l0.4-0.2l1.6,0.2l0.2-0.2l0.4,0.2l0.2-0.2h0.2l0.2,0.2l0.5-0.2
				h1.7l0.5-0.2l0.4,0.3l0.5-0.1h0.6v0.3l0.5,0.1l0.2-0.4l0.2-0.1l0.3,0.2l-0.2,0.3h0.5l1.1,0.3l0.1-0.2l-0.1-0.2v-0.2h0.6l0.2,0.1
				l0.2,0.3l0.2,0.1l0.1-0.2l-0.3-0.3h0.7l0.1-0.1l0.1,0.2V44h0.2l0.2-0.3l0.7-0.1h1.5l0.5,0.2l1.2-0.3l0.5,0.2h0.3v0.2l0.5-0.2h0.2
				v0.2l-0.2,0.2v0.2l0.2-0.1l0.2-0.5h0.2l0.2,0.4l0.3-0.5l0.2,0.1h0.7l0.2,0.2l0.4-0.2h0.3v0.2l-0.1,0.2h0.2l0.6-0.5l2.3,0.1
				l0.5,0.1l0.3-0.1l0.2-0.2l0.5,0.2l0.4,0.3l0.2,0.4l0.1,0.5v0.5h-0.3v0.2l0.2,0.2h0.2V46l-0.3,0.4l0.1,0.2l0.1,0.5v1l-0.1,1v0.5
				l-0.4,0.3l-0.8,1.3h-0.2l-0.7,0.4l0.2,0.5l-0.2,0.1h-0.2l-0.1,0.5l-0.5,0.2l-0.3,0.7l-0.6,0.7l-0.5,0.8h-0.3l-0.2,0.1v0.5
				l-0.3,0.2l-0.2,0.1l-0.1,0.4l-1,0.9l-0.3,0.7l-0.3,0.4l-0.8,0.7l-0.3,0.4V60l-0.2,0.1l-0.2,0.5h-0.3l-0.2,0.2l-0.2,0.5l-0.2,0.1
				h-0.2l0.1,0.2v0.2h-0.3l-0.2-0.2l-0.2,0.2l-0.4,1.3H206l-0.2,0.2v0.3l-1,1l-0.5,0.2l-0.1,0.5l-0.5,0.5l-0.2,0.5l-0.2-0.1h-0.4
				l-0.4,0.3l-0.4-0.2l-0.5,0.3l0.1,0.4l-0.1,0.1l0.2,0.1h0.2l0.2-0.2l0.2,0.1l0.2,0.4v0.2l0.5,0.1l0.4-0.2l1.7,0.1l0.1,0.3l0.5-0.2
				l0.6,0.2l0.1-0.2l0.7-0.2l0.2,0.1l0.3-0.2h1.2l0.3,0.2l1.5-0.1l0.4,0.1l0.2,0.1l0.5-0.2l0.7,0.2l0.7-0.2l0.7,0.2l0.8-0.2l0.5,0.1
				h1.4L217.4,68.1z M192.6,71.1v-0.3h-0.2l-0.1,0.4l0.1,0.1L192.6,71.1z M192.7,70.1h-0.2v0.1L192.7,70.1L192.7,70.1z M193.4,75.6
				l-0.1-0.2l-0.2,0.2H193.4z M193.6,71.8l-0.2-0.1v0.1H193.6z M193.9,70.3l-0.2-0.1l-0.1,0.3l0.2,0.1L193.9,70.3z M194.2,72.4h0.2
				l0.2-0.2l-0.2-0.1h-0.3L194.2,72.4z M194.4,71.2h0.2l-0.1-0.2l-0.2-0.1L194.4,71.2z M194.6,67.3l0.2,0.2v-0.3L194.6,67.3z
				 M195,73.8l-0.2-0.1v0.1H195z M195.2,70h-0.3l0.1,0.2L195.2,70z M195.4,73.4l0.2-0.2l0.2-0.7h-0.3l-0.2,1L195.4,73.4z
				 M195.4,71.9h0.2l0.1-0.2l-0.2-0.1h-0.2L195.4,71.9z M195.8,74.6l0.3,0.1l0.2-0.2l-0.3-0.2h-0.2V74.6z M195.8,66.1h0.3V66
				l-0.2-0.1L195.8,66.1z M196.2,49.4v-0.2H196v0.3L196.2,49.4z M195.9,68.3l0.1,0.5l0.3,0.2l-0.1-0.7H195.9z M195.9,70.7
				L195.9,70.7l0.2,0.1L195.9,70.7z M196,70l0.2,0.1v-0.3L196,70z M196.7,73.2l-0.2-0.1h-0.3v0.2l0.1,0.2l0.2,0.1L196.7,73.2z
				 M196.5,71.2l0.1,0.2l0.2-0.1v-0.2L196.5,71.2z M196.9,72.5l0.1-0.2V72h-0.2L196.9,72.5l-0.2,0.2L196.9,72.5z M196.9,50h-0.2
				l0.2,0.2V50z M196.9,67.8v-0.2l-0.2-0.1l-0.1,0.4L196.9,67.8z M196.8,46.4l0.2-0.2h-0.2V46.4z M196.9,66.4v0.3l0.1,0.2l0.3-0.3
				v-0.3l-0.3-0.1L196.9,66.4z M197.1,49l0.3,0.1v-0.4H197L197.1,49z M197.1,65.6h0.2l0.1-0.2l-0.2-0.1H197L197.1,65.6z M197.5,69.6
				l0.1-0.2v-0.3h-0.1v0.2l-0.2,0.1v0.2L197.5,69.6z M197.7,50.5v-0.2h-0.2v0.3l0.2,0.2V50.5z M197.8,68.3l-0.1-0.1v0.2l0.1,0.1
				V68.3z M197.8,45.6l-0.2,0.1v0.2l0.2,0.1h0.2l0.1-0.4l-0.2-0.1L197.8,45.6z M197.7,63.1l0.2,0.2v-0.4L197.7,63.1z M198.1,71.9
				v-0.2l-0.2-0.1v0.5L198.1,71.9z M198.3,49.7H198l-0.1,0.1l0.3,0.2L198.3,49.7z M198.1,64.8V65l0.2-0.1v-0.3H198L198.1,64.8z
				 M198.7,66.1l-0.4-0.3l-0.2,0.5h0.6L198.7,66.1z M198.3,45.2h0.2V45l-0.2-0.1V45.2z M198.3,73.5h0.2l0.1-0.2l-0.3-0.1V73.5z
				 M198.6,48.1l-0.3,0.1v0.2l0.2,0.1v-0.4H198.6z M198.6,69.7h-0.2v0.2h0.2V69.7z M198.8,47.3l-0.2,0.1l0.2,0.2h0.2L198.8,47.3z
				 M198.8,68.8h-0.2l0.1,0.2h0.2L198.8,68.8z M198.9,67.9v-0.2h-0.1v0.2H198.9z M198.9,46.6h0.2l0.1-0.2l-0.4-0.1L198.9,46.6z
				 M199.4,45.3l-0.2-0.1H199l0.5,0.2v0.1L199.4,45.3z M199,62.6l-0.1,0.5l0.4,0.1l-0.1-0.5l-0.2-0.2L199,62.6z M199.4,70.2
				l-0.5-0.2v0.4l0.5,0.1V70.2z M199.2,71.5l0.2-0.5l-0.1-0.2H199l-0.1,0.2v0.5H199.2z M199.4,49.2l-0.1-0.2l-0.2-0.1l-0.1,0.2
				l0.1,0.2L199.4,49.2z M199.8,69.5l0.1-0.3h-0.2l-0.2,0.2l0.1,0.2L199.8,69.5z M199.6,73.7l-0.2-0.1l0.1,0.3L199.6,73.7z
				 M199.9,47.9l0.1-0.2l-0.1-0.2l-0.2-0.1l-0.1,0.5H199.9z M200.3,67.3l-0.2-0.4l-0.4-0.2l-0.1,0.2l0.2,0.4H200.3z M199.9,46.6
				l0.1-0.1h-0.3v0.2L199.9,46.6z M199.7,46.9l0.2-0.1l-0.2-0.1V46.9z M200.3,49.4l-0.2-0.1v0.2l0.1,0.1L200.3,49.4z M200.5,69.8
				v-0.5h-0.3l0.1,0.5H200.5L200.5,69.8z M200.3,74.5h-0.2v0.1L200.3,74.5L200.3,74.5z M200.5,44.7l-0.2-0.1l-0.1,0.2l0.2,0.1
				L200.5,44.7z M200.8,65l-0.2-0.1l-0.2,0.2l0.2,0.2h0.2V65z M200.4,61h0.1v-0.2h-0.1V61z M200.7,66.3l0.1-0.3h-0.3v0.2L200.7,66.3
				z M200.7,48.6h-0.2v0.1L200.7,48.6L200.7,48.6z M200.7,63.6l-0.1-0.1l0.1,0.3V63.6z M201,46l-0.2-0.1l-0.1,0.2l0.2,0.1L201,46z
				 M201.2,66.6l0.1-0.5l-0.2,0.1l-0.1,0.2v0.2L201.2,66.6z M201.6,48.9l-0.1-0.2l-0.2-0.1l-0.2,0.1L201,49l0.4,0.2L201.6,48.9z
				 M201.2,67.7l-0.2-0.1v0.2L201.2,67.7z M201.2,58.9l0.2,0.1l-0.2-0.2V58.9z M201.7,69.2v-0.3l-0.3,0.1l0.1,0.2L201.7,69.2
				L201.7,69.2z M201.5,60.3v0.2l0.3,0.1l0.1-0.1l0.1-0.2H201.5L201.5,60.3z M201.7,64.7l0.3-0.2l-0.2-0.1h-0.2l-0.1,0.2L201.7,64.7
				z M202,48h-0.2l-0.2,0.1l0.2,0.2h0.3L202,48z M201.9,63.1l-0.2,0.2l0.3,0.1L201.9,63.1z M202.2,47.1l-0.1-0.2l-0.2-0.1l-0.1,0.2
				v0.4h0.3L202.2,47.1z M202,73.1l0.2-0.1l-0.1-0.2l-0.2,0.1L202,73.1z M202.5,49.8v-0.2h-0.2v0.3L202.5,49.8z M202.4,74.5h-0.1
				v0.1L202.4,74.5L202.4,74.5z M202.8,48.5l-0.2,0.2h0.3L202.8,48.5z M202.8,59.4l-0.1,0.2h0.2l0.1-0.2H202.8z M202.7,60.9h0.2
				v-0.2h-0.2V60.9z M202.9,68.5h-0.2v0.2h0.2V68.5z M203.2,62.6H203l0.1,0.2l0.2,0.1l0.2-0.2v-0.3L203.2,62.6z M203.6,46.4
				l-0.2-0.1l-0.2,0.1v0.3l0.2,0.1l0.4-0.1L203.6,46.4z M203.2,64l-0.1-0.1v0.2l0.1,0.1V64z M203.3,73.8l-0.2-0.1L203.3,73.8
				l0.1,0.1L203.3,73.8z M203.4,49.3h0.3l0.2-0.1l-0.2-0.2l-0.2-0.1h-0.2l-0.1,0.2L203.4,49.3z M203.6,48l0.2,0.1v-0.2l-0.1-0.2
				L203.6,48z M203.7,57.8l0.2-0.1l-0.1-0.1h-0.1L203.7,57.8L203.7,57.8z M203.9,65.2l-0.1,0.1L203.9,65.2h0.3H203.9z M204.1,59.2
				l0.4,0.2v-0.5H204L204.1,59.2z M204.4,50.6l-0.2-0.2v0.3L204.4,50.6z M204.4,60.5l-0.1-0.2h-0.1v0.3L204.4,60.5z M204.6,58.3
				l0.2,0.1v-0.2h-0.2V58.3z M204.9,48.8l-0.1,0.2l0.5,0.1l-0.1-0.4H205L204.9,48.8z M205.1,51.5h0.2l-0.1-0.2h-0.3L205.1,51.5z
				 M205,57.2l0.2,0.2l0.1-0.2l-0.2-0.2L205,57.2z M205,47.5l0.1,0.5l0.2,0.1l0.1-0.2v-0.5l-0.2-0.1L205,47.5z M205.8,60.2h-0.4V60
				l-0.2,0.1l-0.1,0.2l0.4,0.2h0.2L205.8,60.2z M205.5,46.6l-0.1,0.2l0.3-0.1L205.5,46.6z M205.6,45.5h0.2l0.1-0.2l-0.2-0.1v0.3
				H205.6z M205.6,54.2l0.2-0.1v-0.2h-0.2V54.2z M205.8,71.7l-0.2-0.1L205.8,71.7L205.8,71.7z M205.7,52.5l0.1,0.2l0.2-0.1l0.1-0.2
				l-0.2-0.2L205.7,52.5z M205.9,49.6l0.1-0.2l-0.2,0.1L205.9,49.6L205.9,49.6L205.9,49.6z M205.9,70h-0.1v0.1L205.9,70L205.9,70z
				 M205.9,59.2h0.2L206,59l-0.2-0.1L205.9,59.2z M206,61.5l-0.2-0.1v0.2L206,61.5z M206.2,48.1l-0.2,0.1l-0.1,0.2h0.5l0.2-0.1v-0.2
				H206.2z M206.1,62.8h-0.2v0.3h0.2V62.8z M206.5,57.1v-0.2l-0.3-0.3l-0.2,0.3l0.2,0.4l0.2,0.1L206.5,57.1z M206.6,55.7h-0.3
				l0.1,0.3h0.2V55.7z M206.5,49.5l0.1,0.2h0.3v-0.2l-0.2-0.1L206.5,49.5z M206.8,51.2l0.2-0.1v-0.2l-0.2-0.1l-0.2,0.2l-0.1,0.2
				L206.8,51.2z M206.6,68v-0.2l0.3,0.1L206.6,68z M207,45.1v0.3h0.3l0.1-0.2v-0.3l-0.3-0.1L207,45.1z M207.1,52.1l0.1,0.2l0.2,0.1
				l0.1-0.2l-0.1-0.2l-0.2-0.1L207.1,52.1z M207.4,53.4l-0.2-0.2v0.2l0.2,0.2V53.4z M207.6,47.9v-0.3l-0.2-0.2l-0.2,0.4l0.1,0.2
				l0.2,0.1L207.6,47.9z M207.2,56.5l0.2,0.1l-0.1-0.3L207.2,56.5z M207.5,50.5l0.1,0.2h0.2l0.1-0.2l-0.1-0.2l-0.2-0.1L207.5,50.5z
				 M207.6,46.4l0.2,0.1v-0.3l-0.2-0.1V46.4z M208,49.2l0.2-0.2h-0.4L208,49.2z M207.9,57.9l0.1-0.1L207.9,57.9L207.9,57.9z
				 M207.9,59l0.1,0.2h0.2l-0.1-0.3l-0.2-0.1V59z M208,45.8l0.2-0.1l-0.2-0.1V45.8z M208.5,53.1l-0.1-0.1h-0.2v0.2l0.2,0.2h0.2
				l0.2-0.2L208.5,53.1z M209,55.6h-0.5v0.2l0.1,0.4l0.5-0.2l0.1-0.2L209,55.6z M209.5,49.7h-0.7v0.4l0.2,0.1l0.1-0.3h0.4V49.7z
				 M208.8,51.2l0.2-0.1l-0.2-0.2V51.2z M209.4,56.9h-0.2l-0.1,0.2h0.2v-0.2H209.4z M209.5,53.9v-0.3h-0.2l-0.1,0.2l0.1,0.2
				L209.5,53.9z M209.5,51.1v0.2l0.1,0.2l0.2,0.1l0.1-0.5l-0.1-0.2h-0.2L209.5,51.1z M209.9,52.5l-0.2-0.1l-0.1,0.2l0.1,0.2h0.2
				V52.5z M210,55.6h0.2l0.1-0.2h-0.4l-0.2,0.1L210,55.6z M210.3,53.9l-0.2-0.1L210,54l0.2,0.2h0.2L210.3,53.9z M210.1,46.9L210,47
				l0.1,0.1h0.2l0.1-0.2L210.1,46.9z M210.4,49.3l-0.1,0.2l0.1,0.3l0.3-0.3l0.1-0.5h-0.3L210.4,49.3z M210.8,52.5l0.2-0.1l0.2-0.5
				H211l-0.5,0.2l0.2,0.6L210.8,52.5z M211,50.8h-0.2l0.1,0.3l0.3-0.2L211,50.8z M211.5,55v-0.3h-0.6V55l0.1,0.2h0.3L211.5,55z
				 M211.5,46l-0.3,0.3l0.1,0.2l0.2-0.1l0.2-0.5L211.5,46z M211.2,53.4v0.2l0.2,0.1l0.1-0.2l-0.1-0.2l-0.1-0.1L211.2,53.4z
				 M211.5,50.1l0.1,0.1l0.2,0.1l0.1-0.4l-0.4-0.1L211.5,50.1z M211.9,48.6h-0.2l-0.1,0.2l0.2,0.5l0.2-0.1l0.1-0.2v-0.3L211.9,48.6z
				 M212.1,51.7l0.2-0.2l0.1-0.3h-0.2l-0.2,0.2l-0.1,0.3H212.1z M212,48.3h0.2l0.1-0.2h-0.4L212,48.3z M212.4,70.5h0.2l0.1-0.2h-0.4
				L212.4,70.5z M212.4,50.7l-0.1,0.1l0.2,0.1l0.1-0.2L212.4,50.7z M213.2,48.1h-0.5l-0.1,0.2l0.1,0.2h0.3l0.2-0.1l0.1-0.2
				L213.2,48.1z M213.4,50.9l0.1-0.2l-0.4,0.2l-0.1,0.2l0.2,0.3l0.4-0.2l0.1-0.2h-0.2l-0.2,0.1L213.4,50.9z M213.1,47.3l0.1,0.2
				l0.2,0.1v-0.3l-0.3-0.3V47.3z M213.9,49.1l0.2,0.1l-0.2-0.2V49.1z M214.1,47.8l0.1,0.2l0.2,0.1v-0.3l-0.1-0.2l-0.3-0.1
				L214.1,47.8z M214.4,43.9h0.2l0.1-0.2h-0.3V43.9z"/>
			<path class="st2" d="M247.5,46.8l0.4,0.2v0.3l-0.1,0.2l0.6,0.7l0.2,0.4v0.6l0.4,0.3V50l0.7,1.4v0.7l0.5,0.5l0.1,0.5l-0.1,0.2
				l0.1,0.1h0.2l0.5,1.5v0.4l0.9,1.7l-0.1,0.6l1,1.4l-0.1,0.2l-0.2,0.1l0.5,0.5l0.2,0.5v0.3l0.2,0.2l0.3,1L254,62l0.2,0.9l-0.2,0.4
				h0.2l1.1,2.1l0.5,1.5l1.1,2.5v0.3l0.5,0.8l0.4,1l0.2,0.8l0.5,0.5v0.5l0.2,0.2l-0.1,0.3l0.5,1l0.1,0.7L259,76h-0.4l-0.2-0.1
				l-0.2,0.3h-0.3l-0.2-0.1l-0.2,0.2l-0.7,0.2l-1-0.1l-0.2-0.1V76l-0.2,0.1l-0.3,0.3l-0.5-0.1l-1,0.2l-0.2-0.1l-0.2-0.2l-0.5,0.2
				l-0.2-0.1H252l-0.2-0.2l-0.1,0.2l-0.2,0.1h-0.6l-0.8-1l-0.1-0.3l-0.5-0.6l0.1-0.4L249,73v-0.3l-0.3-0.6l-0.3-0.3l-0.4-0.2
				l-0.5-0.1l-1.6-0.1l-0.7-0.1l-0.5,0.1h-1l-1.6-0.2l-0.5,0.2l-0.7-0.3l-0.4,0.2l-1,0.1l-0.5-0.1l-0.4-0.2l-0.2,0.1l-0.1,0.2
				l-0.3-0.2l-0.2-0.2l-0.4,0.4l-0.2-0.1h-0.5l-0.5,0.2l-0.8,0.6v0.2l-0.3,0.6l0.1,0.2l-0.5,0.7l0.1,0.4l-0.4,0.7v0.2l-0.5,0.2
				l-0.2,0.2l0.1,0.1v0.2h-0.3l-0.9,0.4l-0.2-0.1l-0.9-0.1l-0.5,0.1l-0.2-0.1l-0.2,0.1l-1.3-0.1l-0.2,0.1l-0.1-0.2h-0.2l-0.5,0.2
				H228l-0.1-0.2l-0.5,0.2h-0.5l-1-0.1h-0.2l-0.1-0.2l0.1-0.2h-0.4l-0.1-0.2l0.1-0.5l0.1,0.2l0.1-0.5l0.3-0.6v-0.6h0.2l0.3,0.3
				l0.1-0.2l-0.2-0.5l0.5-0.6l-0.1-0.5L227,71v-0.3l0.3-0.2l0.1-0.2v-0.7l0.1-0.2l0.2-0.2l0.3,0.2l-0.2-0.7l0.1-0.3h0.5v-0.2h-0.1
				v-0.6l0.2-0.4l0.5-0.7V66l0.2-0.5l0.2-0.4l0.4-0.4l-0.2-0.5l0.5-0.5v-0.2l0.1-0.5l0.2-0.2l0.1,0.2v0.3l0.2-0.2v-0.2l-0.2-0.5
				l-0.2-0.2l0.3-0.4l0.3-0.7l0.2-0.1l-0.2-0.5l0.5-0.7l-0.1-0.3l0.1-0.4l0.3-0.4l0.1-0.5l0.2-0.4l0.3-0.9l0.4-0.6l0.2-0.1V56
				l-0.1-0.2l0.3-0.5l0.6-1.9l0.7-1.7l0.4-1.2l0.4-0.2v-0.5l1.3-3.3l0.5-0.2l-0.2-0.1l0.1-0.5l0.4-0.9l0.6-0.7l0.6-0.5h0.2v0.2h0.2
				l0.4-0.3h0.5l1,0.2l0.2-0.3l2.9,0.1l0.9-0.1l0.7,0.1l0.2,0.2l0.5,0.1l0.3,0.4l0.3,0.1v0.5l0.4,0.9l0.2,0.4v0.4L247.5,46.8z
				 M230.4,72l0.2-0.1l0.1-0.2l-0.3-0.1v0.2V72z M230.6,70.5l0.1,0.2l0.2,0.2h0.2v-0.5h-0.2L230.6,70.5z M230.7,66.6L230.7,66.6
				l0.3,0.1v-0.1H230.7z M231,73.6l0.1-0.3l-0.2,0.1L231,73.6z M231.3,68.4l0.2-0.1v-0.2h-0.2V68.4z M231.6,67.6h0.2l0.1-0.1
				l-0.2-0.2v0.3H231.6z M231.7,71.1h0.2l0.1-0.2h-0.2v0.2H231.7z M232.1,65.5l0.2-0.1v-0.2l-0.2-0.1V65.5z M232.2,73l0.2,0.1
				L232.2,73L232.2,73z M232.4,68.6v0.2h0.3v-0.2H232.4z M232.9,68.3l-0.1-0.5l-0.2-0.1v0.2l0.1,0.2L232.9,68.3z M232.8,62.5h0.2
				v-0.2l0.2-0.1l-0.1-0.3l-0.3,0.1l0.1,0.1l-0.1,0.2L232.8,62.5z M233,67v-0.2l-0.2-0.1v0.2L233,67z M233.2,65.9h0.2l-0.1-0.2
				L233.2,65.9L233.2,65.9z M233.3,65.1h0.2v-0.3h-0.2V65.1z M233.5,63.7l0.2,0.1h0.2l0.2-0.2l-0.3-0.3l-0.1,0.2L233.5,63.7z
				 M234,59.2V59l-0.1-0.1v0.2L234,59.2z M234,66.4l0.3,0.1v-0.2h-0.2L234,66.4z M234,62.7h0.3l0.1-0.5l-0.4-0.1L234,62.7L234,62.7z
				 M235,63.3V63l-0.4-0.2V63l0.2,0.1L235,63.3z M234.6,64.3l0.2-0.1l-0.2-0.1V64.3z M235,65.8l0.2-0.1l0.1-0.2l-0.3-0.2l-0.1,0.2
				L235,65.8z M235,67.1h0.3v-0.2l-0.2-0.1L235,67.1z M235.2,62.3h0.2l0.1-0.2h-0.2v0.2H235.2z M235.5,60.9l0.2-0.2h-0.3L235.5,60.9
				z M235.4,69.7h0.2v-0.2h-0.2V69.7z M235.8,55.2h0.2l0.1-0.2l-0.3-0.1V55.2z M235.8,60.3h0.2v-0.1L235.8,60.3L235.8,60.3z
				 M236,62.5v0.2h0.2v-0.2H236z M236,67.6h0.2v-0.1L236,67.6L236,67.6z M236.2,57.9v0.3h0.2l0.2-0.4h-0.2L236.2,57.9z M236.5,65.1
				l-0.1-0.2L236.5,65.1L236.5,65.1z M236.5,66.3l0.1-0.3h-0.2L236.5,66.3z M237,63.3h0.4l-0.1-0.2l-0.2-0.1L237,63.3z M237.2,54.6
				l0.2-0.1v-0.2l-0.2-0.1V54.6z M237.8,49.3v-0.2l-0.1-0.2h-0.2l0.1,0.3L237.8,49.3z M237.7,65.8l0.1-0.2l-0.1-0.2h-0.2v0.3
				L237.7,65.8z M237.5,64.8l0.2-0.1l0.1-0.3h-0.2l-0.1,0.1V64.8z M237.8,68.3l0.1,0.2l0.2,0.1l0.1-0.2v-0.2H238L237.8,68.3z
				 M237.9,67.2h0.1V67h-0.1V67.2z M238.3,53.8v0.3l0.2,0.1l0.1-0.2v-0.3h-0.2L238.3,53.8z M239.1,65.4v-0.2h-0.2L239.1,65.4z
				 M239.1,66.6v0.2l0.1,0.1l0.2,0.1l0.2-0.1v-0.2l-0.2-0.2h-0.2L239.1,66.6z M242,55.8l-0.1,0.2l-0.7,0.6l0.2,0.5l-0.5,0.9
				l-0.6,1.7V60l-0.5,0.7v0.7l-0.4,0.8l-0.1,0.8l0.3,0.3l0.5,0.2h1.5l0.9,0.1l1.3-0.1l0.5,0.1l0.3-0.1l0.4-0.2l0.1-0.4l-0.2-1.5
				l-0.2-0.1l-0.2-0.5l-0.1-1l-0.2-0.1l-0.1-0.2l0.1-0.4h-0.3l-0.2-0.2l-0.2-1l-0.1-0.2v-0.2l-0.5-0.9v-0.2L243,56h-0.2l-0.5-0.3
				L242,55.8z M239.4,68.3l0.1-0.5l-0.2-0.1l-0.1,0.2v0.2L239.4,68.3z M239.5,49.1l0.2-0.1l-0.2-0.1V49.1z M240.8,50.6v-0.2
				l-0.3-0.2l-0.2,0.2l0.1,0.2l0.2,0.1L240.8,50.6z M240.4,66.1l0.1,0.2l0.4,0.2v-0.2l-0.3-0.3L240.4,66.1z M240.4,67.8h0.3l0.2-0.2
				v-0.3l-0.2-0.1l-0.2,0.4L240.4,67.8z M241.1,45.4l-0.2-0.1l0.1,0.2L241.1,45.4z M240.9,69.2h0.3l-0.1-0.2l-0.2-0.1V69.2z
				 M241.4,65.6v-0.2l-0.2-0.1v0.2L241.4,65.6z M241.3,51v0.2h0.2L241.3,51L241.3,51z M241.7,65.8l0.1,0.2l0.2,0.1l0.1-0.3h-0.2
				L241.7,65.8z M241.7,67.2h0.2V67h-0.2V67.2z M242,52.4h0.2v-0.2H242V52.4z M242.4,69.6l-0.1-0.1h-0.2v0.2l0.2,0.1L242.4,69.6z
				 M242.5,48l-0.1-0.2h-0.3l0.1,0.2H242.5z M242.4,46.7l0.1,0.2h0.2l0.1-0.2l-0.1-0.1L242.4,46.7L242.4,46.7z M243,50.6l-0.2,0.1
				l0.1,0.1L243,50.6z M243,69.5h0.2v-0.2H243V69.5z M243.2,66.7l0.2-0.2l-0.2-0.2l-0.1,0.2L243.2,66.7z M243.4,49.7v-0.3l-0.2,0.1
				v0.2H243.4z M243.4,67.8V68l0.2,0.1l0.1-0.3h-0.2L243.4,67.8z M243.4,50.7h0.2v-0.2h-0.2V50.7z M244,55.1l0.1-0.3h-0.4l0.1,0.2
				L244,55.1z M244.1,46.4v-0.3l-0.3,0.1L244.1,46.4z M244,48.7h0.3v-0.2l-0.2-0.1L244,48.7z M244.2,66.5l0.2,0.1L244.2,66.5
				L244.2,66.5z M244.4,51.7l0.2,0.2l0.3-0.2l-0.1-0.2l-0.2-0.2l-0.2,0.1V51.7z M245,69l0.1-0.2v-0.2h-0.2L245,69L245,69z
				 M244.9,54.3h0.1l0.1-0.2h-0.2L244.9,54.3L244.9,54.3z M245.4,67.1v-0.3h-0.2V67L245.4,67.1z M245.5,49.8v-0.2l-0.2-0.1
				L245.5,49.8z M245.5,48.7l0.2-0.1v-0.3l-0.2-0.1v0.3V48.7z M245.7,66.1l0.1-0.5l-0.1-0.2h-0.2l-0.1,0.2l0.1,0.2L245.7,66.1z
				 M246.3,52.2l-0.2,0.1h-0.2l-0.1,0.2l0.5-0.1l0.4,0.6h0.2l-0.3-0.7L246.3,52.2z M245.8,50.9l0.5,0.1l-0.1-0.2H246L245.8,50.9z
				 M246.1,55.2V55l-0.2-0.1v0.2L246.1,55.2z M245.9,68.5l0.5-0.1l-0.1-0.3l-0.2-0.2l-0.1,0.2L245.9,68.5z M246.1,59.9l0.2-0.4
				l-0.3-0.1v0.3L246.1,59.9z M246.2,49.1l0.3,0.1v-0.3l-0.2,0.1L246.2,49.1z M246.4,65.3l0.2,0.2h0.3l0.2-0.2L247,65l-0.2-0.1h-0.2
				l-0.2,0.2L246.4,65.3z M246.5,71.1l0.1-0.2l-0.2-0.1L246.5,71.1L246.5,71.1z M246.5,69.8h0.2v-0.2l-0.2-0.1V69.8L246.5,69.8z
				 M246.7,66.6v-0.3l-0.2,0.2L246.7,66.6z M247.1,56.9l0.1-0.3l-0.2-0.5h-0.3l-0.1,0.2v0.2l0.2,0.2L247.1,56.9z M246.7,51.7
				l0.1,0.2h0.5l0.1-0.2h-0.5H246.7z M246.7,64.1l0.5-0.1l-0.1-0.2l-0.4,0.1V64.1z M246.9,68l0.2,0.1h0.2l0.2-0.1v-0.2l-0.1-0.2
				l-0.4-0.1l-0.1,0.2L246.9,68L246.9,68z M247.2,50.6v-0.2H247L247.2,50.6z M246.9,59v0.2h0.2l0.2-0.1v-0.3h-0.2L246.9,59z
				 M247.1,55.8l0.3,0.1l-0.1-0.3L247.1,55.8z M247.9,62.3v-0.2l-0.1-0.5h-0.2l-0.1,0.2l0.2,0.4L247.9,62.3z M247.6,58.5h0.2v-0.2
				h-0.2V58.5z M247.6,69.4l0.2,0.1l0.2-0.1l-0.1-0.2l0.1-0.3l-0.2-0.1l-0.2,0.1l-0.1,0.2v0.3H247.6z M247.9,64.6l0.2,0.1l0.2,0.2
				l0.2-0.6l-0.2-0.2l-0.3,0.2L247.9,64.6z M248.3,57.2H248v0.2h0.2L248.3,57.2z M248,63.4l0.2-0.1v-0.2L248,63l-0.1,0.2L248,63.4z
				 M248.2,58.6v0.2l0.1,0.2h0.3l0.1-0.5l-0.2-0.2l-0.1,0.2L248.2,58.6z M248.3,60.2l0.2-0.1v-0.2l-0.1-0.1l-0.1,0.2L248.3,60.2z
				 M248.3,67.3l0.2-0.1l-0.1-0.2L248.3,67.3z M248.9,66.5v-0.2l-0.6-0.5V66l0.3,0.4L248.9,66.5z M248.9,61.8l0.2-0.1l0.1-0.2
				l-0.3-0.2v0.2V61.8z M248.9,65.3h0.2v-0.1L248.9,65.3L248.9,65.3z M249.2,68.7l-0.2-0.1L249.2,68.7L249.2,68.7z M248.9,69.9
				l0.2-0.1l0.1-0.2l-0.2-0.1v0.2L248.9,69.9z M249.2,60.7h0.2v-0.1L249.2,60.7L249.2,60.7z M249.4,62.8h0.1v-0.2h-0.1V62.8z
				 M249.5,64.3l0.2-0.4h-0.2l-0.1,0.2L249.5,64.3z M249.9,67.1L250,67v-0.2l-0.4-0.1v0.2l0.1,0.2H249.9z M249.9,65.7l0.1-0.4h-0.2
				l-0.1,0.3L249.9,65.7z M249.8,58.2h0.1V58h-0.1V58.2z M249.9,60.9l0.1,0.2h0.3v-0.5l-0.3,0.1L249.9,60.9z M250.3,68.4l0.1-0.2
				l-0.1-0.3h-0.2v0.4L250.3,68.4z M250.4,63.4l0.1,0.2l0.2,0.1l0.2-0.1v-0.2l-0.3-0.2L250.4,63.4z M250.5,71.9l0.2-0.2v-0.2
				l-0.2-0.1v0.2V71.9z M250.7,70.7v-0.2h-0.2v0.2H250.7z M250.6,66.7h0.2l0.1-0.2h-0.3V66.7z M251,64.9l0.2,0.1L251,64.9L251,64.9z
				 M251.3,60.6h0.1l-0.1-0.2V60.6z M251.3,67.3l0.1,0.2h0.2l-0.1-0.2H251.3L251.3,67.3z M251.6,68.9l-0.2,0.1l0.2,0.1V68.9z
				 M251.7,65.6l0.2,0.2l0.5,0.1l0.2-0.1l0.1-0.3l-0.5-0.1l-0.2,0.1L251.7,65.6z M252.1,66.8l-0.3-0.1l0.1,0.2L252.1,66.8z
				 M251.8,71.8l0.2-0.1l-0.2-0.1V71.8z M251.9,70.4h0.1v-0.2h-0.1V70.4z M251.9,71.4l0.2-0.1l-0.2-0.1V71.4z M252.3,72.8V73h0.2
				v-0.3L252.3,72.8z M252.5,68.3l0.1,0.2l0.2,0.1l0.3-0.4h-0.2L252.5,68.3z M252.5,68.9h0.2l-0.2-0.2V68.9z M253.1,71v0.3l0.2,0.1
				l0.1-0.2v-0.3h-0.2L253.1,71z M253.5,73.6l0.2,0.1l0.1-0.2l-0.2-0.1L253.5,73.6z M254.2,68.3l0.1-0.4v-0.2h-0.4v0.5L254.2,68.3z
				 M254.2,70.5l0.1,0.3h0.2l0.2-0.2l-0.1-0.2h-0.2L254.2,70.5z M254.3,69.5h0.3l0.1-0.2l-0.1-0.2h-0.2l-0.1,0.2V69.5z"/>
			<path class="st2" d="M285.3,44.8h0.5l0.4,0.2l1.2,0.9l0.2,0.1l-0.1,0.5l0.5-0.1l0.2,0.4l-0.1,0.2l0.2,0.2l0.2,0.1v0.2l1,0.7
				l-0.2,0.5l0.6,0.5v0.3l0.2,0.5l-0.1,0.2l0.5,0.2l-0.2,0.6l0.2,0.3l0.2,0.5v1.1l-0.4,0.9l-0.2,0.1h-0.5l-0.1,0.2l-0.7-0.2h-0.2
				l-0.2,0.1l-0.9-0.2l-0.9,0.2l-1.2-0.4l-0.2,0.2l-1,0.3l-0.3-0.3h-0.5l-0.6-0.3l-0.2-0.4l-0.1-0.5v-0.2H282l-0.3-0.7v-0.3
				l-0.5-0.1l-0.2-0.1l-0.3-0.4l-0.6-0.1l-0.2-0.1l-0.3-0.3v-0.2h-0.3l-0.2-0.1l-0.4,0.2l-0.5,0.1h-1.9l-0.6,0.4h-0.3l-0.7,0.6
				l-0.5,0.7v0.8l0.4,0.3v0.2l0.5,0.2l0.8,0.7l1,0.2l1.9,0.8h0.3l0.5,0.1l0.6,0.4h0.5l0.4,0.2l1,0.3l0.6,0.4h0.3l0.2,0.1l0.3,0.3
				l0.2,0.1h0.3l-0.2,0.5l0.3-0.1l0.2-0.2l0.4,0.2l0.1,0.2l0.4-0.1l0.4,0.3l1,0.5l0.6,0.5l0.2,0.5l0.5-0.1l0.1,0.2l0.4,0.4v0.2h0.2
				l0.2-0.1l0.6,0.7l0.4,0.3l-0.1,0.6l0.5,0.3l0.2,0.5v0.2l0.4,0.2l0.1,0.2l-0.3,0.4l0.1,0.2l0.2,0.1h0.3v0.4l-0.2,0.1l0.2,0.2v0.7
				l0.2,0.2l-0.2,0.4l0.3,0.1v0.3l-0.2,0.7v0.4l0.2,0.4l-0.2,0.3l-0.1,1.3l-0.1,0.2l-0.2,0.1l-0.1-0.3h-0.2l-0.2,0.3l0.2,0.2h0.3
				l-0.3,1l-0.5,0.8l-0.2-0.1h-0.2l-0.3,0.3v0.2l0.1,0.2l-0.2,0.4l-0.7,0.7l-0.3,0.4l-0.4-0.1l-0.1,0.2l-0.4,0.2l-0.1,0.2h-0.2
				l-0.2-0.1l-0.1,0.5l-0.2,0.1l-1.5,0.3l-0.2,0.1l-0.1,0.2l-0.7-0.1l-0.1,0.5h-0.3l-0.2-0.1l-0.5,0.4l-3.1,0.3h-1l-0.2,0.2h-0.3
				l-0.5-0.2l-0.5,0.1h-0.5l-1.5-0.3l-0.7,0.1l-0.3-0.3l-0.5,0.1l-1-0.3h-0.3l-0.1-0.2l-0.4-0.2l-0.5,0.1l-0.5-0.3l-0.2,0.1
				l-0.3-0.3l-1-0.4l-0.4-0.2l-0.1-0.2h-0.4l-0.5-0.5h-0.3l-0.2-0.4l-0.8-0.6l-0.3-0.4l-0.5-0.9l-0.4-0.4v-0.2l-0.6-1v-0.3l0.1-0.2
				l-0.4-0.7l-0.1-0.5l0.1-1l0.2-0.5l0.3-0.3l0.4-0.2h0.2l0.8,0.1l0.2,0.1l0.2-0.1l0.8-0.1l0.5,0.1l0.2,0.1l0.3-0.2h0.2l0.2,0.1v0.2
				l0.1,0.2l0.2-0.1l0.3-0.4h0.5l0.5,0.2l0.2-0.1h0.8l0.1,0.2l0.5,0.2l0.1,0.4l0.8,0.6l0.6,0.8l0.5,0.1l0.9,0.4l0.7,0.2l0.3,0.2
				l0.2-0.2h0.2l0.2,0.2l0.2-0.1h0.5l0.7,0.2l0.3,0.3l-0.1-0.5h0.3l0.3,0.2l0.3-0.3l0.2,0.3l0.2-0.1l-0.2-0.4l0.5-0.2l1.2-0.8
				l0.1-0.8l-0.5-0.8l-0.7-0.6l-1.1-0.6v-0.3l-0.3,0.1l-1-0.3h-0.5l-0.4-0.3l-1.4-0.5l-0.3-0.3h-0.5l-0.2-0.1l-0.3-0.3l-0.1-0.2
				l-0.4,0.2h-0.5l-0.5-0.2l-0.5-0.5V62l-0.5,0.3l-0.2-0.1l-0.2-0.5l-0.2,0.2l-0.4-0.2l-0.2-0.2l-0.5-0.1l-0.5-0.5h-0.3l-0.1-0.3
				l-0.7-0.2l-0.7-0.6l-0.4-0.6l-0.8-0.6l-1.4-2l0.1-0.3L265,56l-0.2-0.4l-0.2-0.5l0.1-0.8l-0.4-0.5l0.1-0.5l-0.1-1.3l0.2-0.2
				l0.1-1.5l0.3-0.5l0.3-1L267,47l0.5-0.3l0.3-0.5l0.5-0.2l0.1-0.2l0.6-0.7h0.4l0.2-0.1l0.5-0.5l1.4-0.5h0.3l0.2-0.4l0.2,0.1
				l0.2-0.1l0.4-0.3l1.2-0.1l1.6-0.3l0.4,0.2l0.7-0.3h0.5l0.2,0.1l0.1,0.2l0.3-0.2l0.4-0.1l2,0.2h0.5l0.2,0.1l0.1,0.2l0.5-0.1
				l0.3,0.2l0.2-0.1l0.7,0.2h0.6l0.4,0.3l1.2,0.4l0.2,0.1v0.5H285.3z M269.4,52.5l0.3,0.3l0.1-0.2l-0.3-0.3L269.4,52.5z M270.2,58
				l0.2,0.1l0.1-0.2h-0.2L270.2,58z M271.2,55.3l0.1-0.2l-0.2-0.1L271.2,55.3z M271.7,57.6l-0.3-0.1l0.1,0.2L271.7,57.6z
				 M271.9,59.3h0.2v-0.2h-0.2V59.3z M272.9,58.9l0.2-0.1l0.1-0.2h-0.4L272.9,58.9z M273.8,73.3l0.4-0.1l-0.1-0.2l-0.3-0.2l-0.1,0.3
				L273.8,73.3z M274.4,46.9l0.1-0.3l-0.1-0.2h-0.3l-0.1,0.2v0.2l0.2,0.2L274.4,46.9z M274.1,48h0.2l0.1-0.2l-0.1-0.2h-0.2V48z
				 M274.2,57.9v0.3l0.4,0.3l0.1-0.4v-0.2h-0.2L274.2,57.9z M274.3,49.2l0.2,0.4l0.2,0.1l0.1-0.4v-0.2h-0.2L274.3,49.2z M274.6,60.9
				l0.2,0.1l0.1-0.1l-0.2-0.1L274.6,60.9z M275.2,72.6h0.1v-0.2h-0.1V72.6z M275.5,47.4v-0.2l-0.1-0.1L275.5,47.4z M275.7,73.7
				l-0.2,0.1l0.1,0.1L275.7,73.7z M275.8,59v-0.2l-0.1-0.1l-0.1,0.2L275.8,59z M275.7,57.6l0.2-0.2l-0.1-0.2l-0.2,0.2L275.7,57.6z
				 M276.1,60.8h0.2v-0.2l-0.1-0.1L276.1,60.8L276.1,60.8z M276.2,61.8h0.2v-0.2h-0.2V61.8z M276.6,71.8l-0.1-0.2h-0.3l0.1,0.2
				H276.6z M276.6,45.9l0.1-0.2l-0.2-0.2l-0.1,0.2L276.6,45.9z M276.7,47.5l0.1-0.2v-0.4l-0.3-0.1v0.5L276.7,47.5z M277.2,58.6
				l-0.1-0.5l-0.1-0.2l-0.1,0.2l0.1,0.2L277.2,58.6z M277.1,57.3h-0.2l0.1,0.1L277.1,57.3z M277.2,44.1h0.2v-0.2l-0.1-0.1
				L277.2,44.1L277.2,44.1z M277.3,61.2h0.2l-0.1-0.2L277.3,61.2L277.3,61.2z M277.5,46.5l0.3,0.2l0.1-0.3h-0.2L277.5,46.5z
				 M277.8,71.4h0.2v-0.1L277.8,71.4L277.8,71.4z M278.2,57.7h0.2v-0.2h-0.2V57.7z M278.5,48.2l0.1-0.3l-0.3-0.1v0.3L278.5,48.2z
				 M278.3,60.9h0.2l0.3-0.3l0.1-0.2l-0.5,0.3L278.3,60.9z M278.8,59.7l0.1-0.5l-0.4-0.1l-0.1,0.2l0.1,0.2L278.8,59.7z M278.8,71.9
				h0.2v-0.1L278.8,71.9L278.8,71.9z M279.6,60.4l0.2-0.1V60l-0.2,0.2V60.4z M279.6,48.9h0.2v-0.2l-0.2-0.1V48.9z M280,59.6l0.2-0.5
				v-0.2l-0.2-0.2l-0.1,0.2v0.5L280,59.6z M279.9,61.5v0.2l0.3,0.2h0.3v-0.2l0.1-0.4l-0.5,0.1L279.9,61.5z M280.7,61l0.1-0.2
				l-0.4-0.2l0.1,0.2L280.7,61z M281,47.4l0.2-0.2l-0.2-0.4l-0.2-0.1l-0.1,0.2l0.2,0.4L281,47.4z M280.6,48.6h0.2H280.6L280.6,48.6z
				 M281.2,49.5h0.2l0.1-0.2l-0.2-0.1L281.2,49.5z M281.8,61.5l0.1-0.2l-0.1-0.2l-0.4-0.3l-0.1,0.2v0.2l0.1,0.2l0.2,0.1H281.8z
				 M281.5,62.7v-0.2l-0.2,0.1L281.5,62.7z M281.5,64.1l0.2,0.1l0.1-0.2l-0.2-0.2L281.5,64.1z M281.7,48h0.1H281.7L281.7,48
				L281.7,48z M282.2,46.5l0.2-0.1l-0.2-0.1V46.5z M282.7,60.6h-0.2l0.1,0.1L282.7,60.6z M282.7,60.5h0.3l0.2-0.1l-0.2-0.2l-0.2-0.1
				v0.2L282.7,60.5L282.7,60.5z M282.8,71.7l0.1,0.2h0.2l0.5-0.1l-0.1-0.3l-0.2,0.1H283L282.8,71.7z M282.9,59.1h0.2l0.1-0.2H283
				v0.2H282.9z M283,63.1l0.1,0.4l0.2,0.1h0.2v-0.2l-0.1-0.4h-0.3L283,63.1z M283.7,66.4l0.1-0.2l-0.1-0.2l-0.2-0.1v0.2l0.1,0.2
				L283.7,66.4z M283.5,73l0.2-0.2h-0.1L283.5,73z M283.6,59.9l0.4,0.2v-0.4h-0.2L283.6,59.9z M283.6,61.2l0.1,0.2h0.3v-0.3h-0.2
				L283.6,61.2z M283.9,65v-0.3h-0.2v0.2L283.9,65z M284.2,67.5v-0.2l-0.2-0.1l-0.1,0.2L284.2,67.5z M284.1,68l0.3,0.1v-0.2
				L284.1,68z M284.8,62.7l-0.3-0.2h-0.2l-0.1,0.2l0.1,0.2l0.4,0.1L284.8,62.7z M284.3,64.2h0.2V64h-0.2V64.2z M284.3,67h0.3
				l0.2-0.1v-0.2h-0.3l-0.2,0.1V67z M285.1,61.9l-0.1-0.2l-0.2-0.2V61l-0.2-0.1l-0.1,0.2l0.2,0.5l0.2,0.2L285.1,61.9z M285.2,65.7
				v-0.2l-0.1-0.1h-0.2v0.2l0.1,0.1H285.2z M285.7,63.4h-0.4l0.1,0.2h0.2L285.7,63.4z M285.5,51.1l0.2-0.4l-0.3-0.1v0.3L285.5,51.1z
				 M285.6,72.3l-0.1-0.3h-0.2L285.6,72.3z M285.4,62.2l0.4,0.5v-0.5L286,62l-0.2-0.1l-0.3,0.1L285.4,62.2z M285.4,71.2h0.3l0.3-0.3
				l-0.2-0.1h-0.2l-0.2,0.2L285.4,71.2L285.4,71.2z M285.5,69.6l0.3,0.1v-0.3h-0.2L285.5,69.6z M286,70.1h0.2l-0.1-0.2L286,70.1
				L286,70.1z M286.2,65.1v-0.3l-0.1-0.2l-0.1,0.2V65L286.2,65.1z M286.3,61.5l-0.1-0.2l-0.3-0.1l0.1,0.3H286.3z M286.5,67.9
				l0.1-0.2v-0.2h-0.2v0.2L286.5,67.9z M286.7,66.4v-0.3l-0.2,0.1v0.2L286.7,66.4z M286.5,70.2v0.3l0.2,0.1v-0.2l-0.1-0.2
				L286.5,70.2z M286.7,61.9l0.5,0.1l0.1-0.2l-0.2-0.1h-0.3L286.7,61.9z M286.7,65.8h0.4v-0.2l-0.2-0.1L286.7,65.8z M287.1,66.9
				v-0.2h-0.2v0.2H287.1z M287.7,64.9l-0.2-0.8l-0.3,0.1l-0.1,0.2v0.2l0.2,0.2l0.2,0.1L287.7,64.9L287.7,64.9z M288,50v-0.2h-0.2V50
				H288z M287.7,63.6l0.2-0.1l-0.2-0.1V63.6z M287.7,73.8h0.2l0.1-0.2l-0.2-0.1L287.7,73.8z M288.1,66v-0.2l-0.2,0.1L288.1,66z
				 M287.9,70h0.5v-0.2l-0.2-0.1l-0.2,0.1L287.9,70z M289,61.2h-0.3H289L289,61.2z M289,66.8l0.3,0.2l0.1-0.2h-0.2H289z M289.2,69.5
				l0.2,0.1l0.1-0.1l-0.2-0.1L289.2,69.5z M289.8,63.2h0.2V63h-0.2V63.2z M291.2,68.1v-0.2l-0.2-0.2V68L291.2,68.1z"/>
		</g>
	</g>
</g>
</svg>
