<?xml version="1.0" encoding="utf-8"?>
<!-- Generator: Adobe Illustrator 16.0.0, SVG Export Plug-In . SVG Version: 6.00 Build 0)  -->
<!DOCTYPE svg PUBLIC "-//W3C//DTD SVG 1.1//EN" "http://www.w3.org/Graphics/SVG/1.1/DTD/svg11.dtd" [
	<!ENTITY ns_flows "http://ns.adobe.com/Flows/1.0/">
	<!ENTITY ns_extend "http://ns.adobe.com/Extensibility/1.0/">
	<!ENTITY ns_ai "http://ns.adobe.com/AdobeIllustrator/10.0/">
	<!ENTITY ns_graphs "http://ns.adobe.com/Graphs/1.0/">
]>
<svg version="1.1" id="Capa_1" xmlns:x="&ns_extend;" xmlns:i="&ns_ai;" xmlns:graph="&ns_graphs;"
	 xmlns="http://www.w3.org/2000/svg" xmlns:xlink="http://www.w3.org/1999/xlink" xmlns:a="http://ns.adobe.com/AdobeSVGViewerExtensions/3.0/"
	 x="0px" y="0px" width="184.252px" height="184.252px" viewBox="0 0 184.252 184.252" enable-background="new 0 0 184.252 184.252"
	 xml:space="preserve">
<path fill="#22211F" d="M82.259,95.554c-10.29,0-21.33-1.236-32.271-4.625c-14.76-4.572-24.573-10.552-29.166-17.775
	c-0.233-0.368-0.454-0.738-0.661-1.112l-0.298,0.352c-0.347-0.294-8.516-7.285-9.88-14.204c-0.53-2.686,0.087-5.364,1.784-7.745
	c2.668-3.742,7.679-6.37,13.748-7.209c2.28-0.177,8.403-0.731,9.736-1.199c31.73-11.146,56.474-10.924,71.644-8.772
	c15.947,2.261,24.984,7.078,25.628,7.43c0.957,0.38,4.328,1.932,7.927,4.331c4.95,3.301,8.459,6.874,10.425,10.62
	c2.342,4.462,2.681,9.018,1.007,13.54c-3.067,8.285-12.13,14.406-19.589,17.372C131.044,87.053,109.235,95.554,82.259,95.554
	 M36.441,42.794l0.001,0.004c-0.146,0.06-14.686,6.165-16.778,14.153c-1.538,5.869-0.853,10.974,2.094,15.606
	c4.447,6.996,14.056,12.82,28.558,17.313c39.256,12.158,79.857-3.664,81.567-4.343c7.237-2.878,16.018-8.783,18.958-16.727
	c1.56-4.215,1.242-8.468-0.949-12.639c-4.726-9.005-17.679-14.398-17.808-14.448l-0.07-0.034c-0.089-0.05-9.052-5.027-25.341-7.327
	C91.768,32.25,67.53,32.026,36.441,42.794 M31.982,43.716c-2.817,0.345-6.134,0.604-6.349,0.62
	c-5.734,0.795-10.472,3.256-12.963,6.752c-1.516,2.126-2.069,4.507-1.6,6.887c0.983,4.985,5.951,10.222,8.289,12.456
	c-1.845-4.169-2.093-8.7-0.768-13.761C20.107,50.883,27.318,46.204,31.982,43.716"/>
<path fill="#22211F" d="M17.599,65.153c-0.228-0.22-5.578-5.446-4.483-10.591c1.127-5.286,8.452-8.868,13.307-9.422
	c3.469-0.396,4.012-0.495,4.096-0.515l0.13,0.529l0.013-0.001v-0.562l0.577,0.528c0.033,0.583,0.033,0.583-4.691,1.122
	c-4.409,0.503-11.343,3.838-12.348,8.552c-0.967,4.54,4.117,9.513,4.169,9.562L17.599,65.153z"/>
<path fill="#22211F" d="M141.964,90.715c-0.534,0-1.063-0.123-1.519-0.385c-0.658-0.377-1.136-1.026-1.31-1.779
	c-0.166-0.717-0.035-1.462,0.356-2.041c0.686-1.008,2.097-1.405,3.782-1.057l0.095,0.029c0.042,0.017,0.417,0.173,0.731,0.418
	c1.221,0.955,1.422,2.315,0.523,3.55C144.036,90.26,142.99,90.715,141.964,90.715 M142.103,86.44c-0.606,0-1.315,0.137-1.692,0.693
	c-0.22,0.324-0.291,0.75-0.194,1.168c0.105,0.455,0.39,0.844,0.78,1.068c0.841,0.482,2.168,0.204,2.732-0.571
	c0.548-0.754,0.442-1.435-0.312-2.025c-0.137-0.107-0.323-0.2-0.421-0.245C142.801,86.491,142.471,86.44,142.103,86.44"/>
<path fill="#22211F" d="M170.146,78.648l-1.061-0.325c0.339-1.102,0.012-2.272-0.449-3.69c-0.665-2.038-1.419-4.35-3.111-5.949
	c-1.246-1.179-2.925-1.918-4.549-2.633c-2.822-1.243-5.8-2.381-8.468-1.485l-0.354-1.051c3.044-1.022,6.247,0.191,9.269,1.522
	c1.63,0.718,3.478,1.532,4.862,2.841c1.898,1.795,2.698,4.248,3.404,6.412C170.101,75.552,170.612,77.123,170.146,78.648"/>
<path fill="#22211F" d="M135.843,95.851c-1.257,0-2.207-0.271-2.877-0.821c-0.712-0.583-1.094-1.462-1.134-2.612
	c-0.116-3.275,3.413-8.292,6.86-8.633c3.041-0.301,6.136-0.189,9.13-0.08c2.816,0.103,5.728,0.208,8.561-0.035
	c5.308-0.457,11.722-2.729,13.809-7.732c1.673-4.008-0.026-9.08-4.132-12.334c-3.408-2.702-8.367-4.281-14.338-4.565l0.054-1.107
	c6.202,0.296,11.381,1.957,14.973,4.805c0.857,0.679,1.617,1.432,2.272,2.237l0.38-0.431c4.605,4.046,6.294,10.706,4.104,16.198
	c-2.182,5.469-8.135,9.564-14.479,9.957c-1.645,0.101-3.31-0.022-4.918-0.142c-2.288-0.17-4.451-0.332-6.585,0.095
	c-1.355,0.271-2.967,1.353-4.524,2.397c-1.721,1.154-3.502,2.348-5.153,2.621C137.106,95.788,136.44,95.851,135.843,95.851
	 M143.094,84.698c-1.438,0-2.876,0.048-4.293,0.188c-2.83,0.28-5.957,4.771-5.861,7.492c0.028,0.83,0.268,1.416,0.729,1.793
	c0.717,0.588,2.06,0.721,3.996,0.402c1.414-0.234,3.093-1.361,4.717-2.449c1.648-1.105,3.353-2.248,4.924-2.562
	c2.282-0.457,4.622-0.282,6.885-0.114c1.572,0.117,3.196,0.237,4.768,0.141c5.931-0.368,11.489-4.177,13.518-9.262
	c1.649-4.135,0.907-8.994-1.739-12.674c1.375,2.846,1.613,5.99,0.479,8.71c-2.277,5.46-9.105,7.924-14.736,8.409
	c-2.898,0.25-5.846,0.143-8.696,0.039C146.238,84.755,144.666,84.698,143.094,84.698"/>
<path fill="#22211F" d="M144.906,83.822l-1.066-0.302c0.71-2.51,1.55-5.022,2.496-7.467l1.033,0.4
	C146.436,78.865,145.607,81.344,144.906,83.822"/>
<path fill="#22211F" d="M84.044,152.151c-3.764,0-7.67-0.205-11.68-0.651c-12.973-1.444-21.572-5.735-26.501-9.08
	c-5.452-3.698-8.163-7.343-8.563-8.438c-0.221-0.604-0.321-1.432-0.504-2.936c-0.354-2.91-1.013-8.326-3.394-19.195
	c-3.53-16.113-11.235-36.211-11.312-36.413l1.035-0.398c0.077,0.202,7.812,20.38,11.359,36.574
	c2.392,10.92,3.056,16.369,3.412,19.297c0.167,1.376,0.268,2.205,0.445,2.689c0.649,1.776,10.391,14.152,34.145,16.797
	c23.861,2.66,43.887-3.301,52.398-9.961c6.462-4.658,6.647-10.123,6.647-10.729c0-2.315,5.352-27.265,8.381-36.396l1.053,0.348
	c-3.077,9.273-8.324,34.133-8.324,36.048c0,3-1.857,7.843-7.091,11.614C118.323,146.978,102.966,152.151,84.044,152.151"/>
<path fill="#22211F" d="M84.932,91.537c-17.007,0-33.004-2.883-45.045-8.118c-12.187-5.3-18.9-12.402-18.9-19.998
	c0-7.597,6.713-14.699,18.9-19.999c12.041-5.235,28.038-8.118,45.045-8.118c17.007,0,33.004,2.883,45.044,8.118
	c12.188,5.3,18.9,12.402,18.9,19.999c0,7.596-6.713,14.698-18.9,19.998C117.936,88.654,101.938,91.537,84.932,91.537 M84.932,36.412
	c-34.648,0-62.836,12.116-62.836,27.009c0,14.892,28.188,27.008,62.836,27.008c34.647,0,62.836-12.116,62.836-27.008
	C147.768,48.528,119.579,36.412,84.932,36.412"/>
<path fill="#22211F" d="M43.764,87.062h-1.108c0-5.343,5.826-8.978,14.574-12.793c11.283-4.922,26.977-5.753,44.193-2.339
	c19.436,3.853,23.594,13.364,23.761,13.767l-1.023,0.425l0.512-0.212l-0.511,0.214c-0.039-0.093-4.16-9.382-22.953-13.107
	c-16.996-3.368-32.456-2.563-43.535,2.269C47.664,79.649,43.764,82.953,43.764,87.062"/>
<path fill="#22211F" d="M88.704,88.105c-0.1,0.136-0.256,0.262-0.28,0.411c-0.025,0.148,0.036,0.414,0.138,0.462
	c0.458,0.215,0.932,0.422,1.422,0.535c0.498,0.115,1.022,0.117,1.546,0.062c-0.269-0.02-0.537-0.039-0.806-0.059
	c0.004-0.047,0.009-0.094,0.013-0.14c0.575,0.053,1.15,0.105,1.727,0.16v0.649c-1.35,0.066-2.667-0.048-3.913-0.629
	c-1.052-0.491-1.188-1.331-0.262-2.039c1.226-0.939,2.615-1.367,4.175-1.097v0.648c-1.399,0.011-2.787,0.067-4.039,0.95
	C88.554,88.059,88.629,88.082,88.704,88.105"/>
<path fill="#22211F" d="M115,84.091c0.007,1.469-0.721,2.049-1.864,1.494c-2.059-0.996-3.738-2.399-4.207-4.813
	c-0.229-1.18,0.427-1.782,1.563-1.372c1.992,0.717,3.406,2.107,4.342,3.988C114.963,83.65,114.973,83.97,115,84.091 M111.258,80.594
	c-0.044,0.04-0.088,0.08-0.132,0.12c0.959,0.886,1.919,1.771,2.662,2.459c-0.201-0.254-0.554-0.78-0.987-1.227
	C112.325,81.458,111.775,81.042,111.258,80.594 M113.651,84.777c0.053-0.055,0.105-0.11,0.157-0.165
	c-0.635-0.579-1.271-1.157-1.906-1.735c-0.063,0.074-0.128,0.147-0.191,0.222C112.357,83.657,113.005,84.218,113.651,84.777
	 M111.936,82.74c0.056-0.062,0.112-0.124,0.168-0.186c-0.401-0.341-0.803-0.682-1.204-1.023c-0.039,0.044-0.078,0.088-0.117,0.132
	C111.168,82.022,111.552,82.381,111.936,82.74"/>
<path fill="#22211F" d="M100.463,84.75c-0.313,1.488-1.298,2.859-2.928,3.743c-0.427,0.232-0.921,0.359-1.398,0.476
	c-0.677,0.167-1.029-0.107-0.859-0.823c0.25-1.054,0.586-2.11,1.054-3.084c0.316-0.657,0.896-1.2,1.407-1.746
	c0.436-0.464,0.967-0.84,1.662-0.585C100.12,82.996,100.47,83.578,100.463,84.75 M97.962,86.596l0.12,0.083
	c0.532-0.583,1.064-1.166,1.596-1.749c-0.04-0.038-0.079-0.075-0.12-0.112c-0.235,0.215-0.471,0.43-0.705,0.645
	c-0.021-0.022-0.04-0.047-0.061-0.071c0.205-0.312,0.411-0.623,0.616-0.935c-0.032-0.017-0.064-0.034-0.097-0.051
	c-0.517,0.446-1.032,0.891-1.55,1.337c-0.035-0.04-0.072-0.08-0.109-0.12c0.211-0.33,0.422-0.66,0.633-0.99
	c-0.858,0.74-1.717,1.475-1.946,2.775c0.6-0.375,1.159-0.726,1.714-1.073C98.023,86.422,97.992,86.509,97.962,86.596"/>
<path fill="#22211F" d="M105.606,86.204c-1.083-0.152-2.09-0.334-3.002-0.889c-0.11-0.067-0.22-0.137-0.318-0.22
	c-0.84-0.722-0.843-1.221,0.018-1.897c0.998-0.784,2.122-1.137,3.388-0.851c0.899,0.203,1.8,0.41,2.681,0.678
	c0.624,0.191,1.029,0.643,1.01,1.342c-0.019,0.661-0.47,1.007-1.039,1.167C107.438,85.787,106.52,85.984,105.606,86.204
	 M104.226,84.86c1.503,0.465,2.922,0.19,4.328-0.477c-0.27-0.077-0.539-0.155-0.917-0.264c0.255-0.081,0.417-0.132,0.579-0.183
	l0.012-0.13c-0.688-0.16-1.375-0.32-2.031-0.473c0.257-0.021,0.562-0.046,0.865-0.072c-0.001,0.012-0.003,0.025-0.005,0.037h-3.326
	c-0.002,0.073-0.005,0.146-0.008,0.22h2.273c0.001,0.074,0.001,0.148,0.001,0.224h-1.252h-1.183
	c0.004,0.078,0.009,0.156,0.014,0.233h1.998c-0.001,0.064-0.002,0.129-0.003,0.192h-2.557c-0.003,0.067-0.006,0.134-0.01,0.201
	c1.069,0.152,2.14,0.305,3.209,0.457c0,0.012,0.003,0.023,0.004,0.034H104.226z"/>
<path fill="#22211F" d="M93.655,79.639c0.193,0.518,0.387,1.034,0.58,1.551c0.031-0.006,0.063-0.012,0.093-0.019
	c-0.064-0.956-0.132-1.913-0.191-2.87c-0.008-0.12-0.024-0.264,0.03-0.358c0.303-0.533,0.188-0.92-0.278-1.326
	c-0.418-0.364-0.731-0.85-1.144-1.236c0.178,0.749,1.132,1.168,0.818,2.116c-0.59-0.55-0.501-1.517-1.331-1.862
	c-0.019-0.008,0.104-0.485,0.143-0.482c0.413,0.028,0.896-0.003,1.213,0.206c0.389,0.257,0.759,0.68,0.926,1.113
	c0.581,1.503,0.853,3.076,0.617,4.692c-0.179,1.222-0.808,1.464-1.768,0.683c-0.385-0.313-0.77-0.666-1.024-1.097
	c-0.253-0.428-0.372-0.982-0.553-1.451c-0.348-0.895-0.471-1.877-0.355-2.83c0.035-0.291,0.112-0.612,0.359-0.77
	c0.028,0.219-0.062,0.434-0.127,0.644c-0.245,0.783-0.16,1.619,0.059,2.397c0.114,0.403,0.254,0.822,0.444,1.197
	c0.071,0.141,0.595,0.808,0.55,0.886c0.017-0.029,0.034-0.06,0.051-0.089c-0.242-0.989-0.485-1.977-0.727-2.966
	c0.048-0.01,0.096-0.021,0.145-0.031c0.414,0.849,0.829,1.698,1.329,2.72c0.025-0.387,0.037-0.582,0.05-0.778L93.655,79.639z"/>
<path fill="#22211F" d="M82.208,70.651c0.403,0.799,0.292,1.719-0.172,2.53c-0.439,0.768-0.922,1.511-1.396,2.258
	c-0.09,0.141-0.208,0.294-0.351,0.365c-0.353,0.177-0.826,0.519-1.07,0.405c-0.304-0.141-0.551-0.655-0.604-1.039
	c-0.12-0.862-0.093-1.756,0.124-2.602c0.206-0.804,0.626-1.712,1.331-2.194c0.167-0.114,0.342-0.226,0.526-0.309
	c0.19-0.087,0.4-0.141,0.609-0.125c0.024,0.002,0.048,0.005,0.068,0.018s0.034,0.035,0.042,0.058
	c0.037,0.104-0.021,0.223-0.105,0.294s-0.193,0.107-0.297,0.149c-0.249,0.1-0.491,0.343-0.617,0.588
	c-0.153,0.298-0.184,0.643-0.235,0.969c-0.126,0.795-0.378,1.57-0.577,2.354c0.038,0.013,0.075,0.026,0.112,0.039
	c0.14-0.167,0.278-0.333,0.419-0.499c0.02,0.016,0.04,0.031,0.06,0.047c-0.151,0.45-0.302,0.899-0.454,1.349l0.088,0.038
	c0.528-0.722,1.058-1.445,1.61-2.201c-0.071,0.288-0.135,0.548-0.199,0.809c0.061,0.017,0.123,0.035,0.186,0.053
	c0.19-0.694,0.432-1.38,0.556-2.086c0.047-0.272,0.014-0.549-0.021-0.821c-0.028-0.234,0.006-0.58-0.15-0.771
	c-0.101-0.123-0.26-0.283-0.394-0.369c0.271-0.022,0.457,0.042,0.632,0.26C82.041,70.358,82.133,70.502,82.208,70.651
	 M79.697,71.878c-0.052-0.015-0.105-0.031-0.157-0.046c-0.309,0.772-0.938,1.45-0.602,2.41L79.697,71.878z"/>
<path fill="#22211F" d="M90.793,85.771c0.006,1.288-0.633,1.796-1.635,1.31c-1.804-0.873-3.276-2.103-3.688-4.218
	c-0.201-1.034,0.374-1.563,1.371-1.203c1.746,0.628,2.985,1.847,3.805,3.496C90.761,85.384,90.769,85.666,90.793,85.771
	 M87.513,82.707c-0.039,0.035-0.077,0.07-0.116,0.105c0.841,0.776,1.682,1.553,2.333,2.155c-0.175-0.222-0.484-0.683-0.864-1.074
	C88.448,83.463,87.967,83.099,87.513,82.707 M89.61,86.374c0.046-0.048,0.092-0.097,0.139-0.145
	c-0.558-0.507-1.114-1.014-1.672-1.521c-0.056,0.064-0.111,0.129-0.168,0.193C88.477,85.392,89.044,85.882,89.61,86.374
	 M88.106,84.587c0.049-0.054,0.098-0.109,0.147-0.163c-0.353-0.299-0.703-0.598-1.056-0.896c-0.033,0.039-0.067,0.077-0.102,0.116
	C87.433,83.958,87.77,84.272,88.106,84.587"/>
<path fill="#22211F" d="M82.765,81.322c-0.447,0.78-1.012,0.863-1.446,0.217c-0.782-1.16-1.239-2.42-0.745-3.842
	c0.241-0.695,0.773-0.813,1.25-0.245c0.833,0.993,1.154,2.164,1.07,3.447C82.882,81.077,82.788,81.25,82.765,81.322 M81.861,78.319
	c-0.036,0.007-0.071,0.015-0.107,0.022c0.235,0.764,0.47,1.529,0.652,2.121c-0.028-0.196-0.054-0.583-0.146-0.953
	C82.16,79.104,81.997,78.715,81.861,78.319 M81.84,81.271l0.134-0.04c-0.157-0.502-0.315-1.003-0.474-1.505
	c-0.057,0.02-0.113,0.039-0.17,0.059C81.5,80.279,81.67,80.774,81.84,81.271 M81.56,79.664c0.049-0.016,0.097-0.031,0.146-0.047
	c-0.107-0.304-0.215-0.608-0.322-0.912c-0.034,0.011-0.068,0.023-0.103,0.034C81.373,79.046,81.466,79.355,81.56,79.664"/>
<path fill="#22211F" d="M78.05,86.349c-0.275,1.305-1.139,2.506-2.567,3.281c-0.374,0.203-0.807,0.314-1.226,0.418
	c-0.593,0.145-0.902-0.095-0.754-0.722c0.221-0.924,0.515-1.85,0.924-2.704c0.277-0.576,0.785-1.051,1.234-1.53
	c0.382-0.407,0.847-0.736,1.456-0.513C77.749,84.811,78.056,85.322,78.05,86.349 M75.857,87.968
	c0.035,0.024,0.069,0.048,0.104,0.073c0.467-0.512,0.934-1.023,1.399-1.534c-0.035-0.032-0.07-0.065-0.105-0.098l-0.619,0.566
	c-0.017-0.021-0.034-0.042-0.053-0.062c0.181-0.274,0.361-0.547,0.541-0.82c-0.028-0.015-0.057-0.03-0.085-0.045l-1.357,1.172
	c-0.032-0.035-0.064-0.07-0.098-0.105c0.186-0.289,0.37-0.579,0.555-0.868c-0.752,0.648-1.505,1.293-1.705,2.433
	c0.525-0.329,1.016-0.636,1.503-0.941C75.91,87.815,75.884,87.892,75.857,87.968"/>
<path fill="#22211F" d="M82.559,87.625c-0.95-0.134-1.833-0.293-2.632-0.78c-0.096-0.058-0.193-0.12-0.279-0.193
	c-0.736-0.633-0.739-1.071,0.015-1.663c0.875-0.687,1.86-0.997,2.971-0.746c0.788,0.178,1.578,0.359,2.35,0.595
	c0.548,0.167,0.902,0.563,0.885,1.176c-0.016,0.579-0.411,0.883-0.911,1.023C84.165,87.259,83.358,87.431,82.559,87.625
	 M81.348,86.446c1.317,0.408,2.562,0.166,3.794-0.418c-0.236-0.068-0.472-0.136-0.804-0.232c0.224-0.07,0.365-0.115,0.508-0.16
	l0.011-0.114c-0.603-0.142-1.206-0.281-1.781-0.415c0.226-0.019,0.492-0.04,0.759-0.063c-0.001,0.01-0.003,0.021-0.005,0.031h-2.916
	c-0.002,0.065-0.004,0.129-0.007,0.193H82.9c0,0.065,0,0.131,0.001,0.196h-1.098h-1.037c0.004,0.068,0.008,0.136,0.012,0.204h1.752
	c-0.001,0.057-0.002,0.113-0.003,0.17h-2.241c-0.003,0.059-0.006,0.117-0.008,0.175c0.938,0.134,1.874,0.268,2.812,0.401
	c0.002,0.01,0.003,0.021,0.004,0.03H81.348z"/>
<path fill="#22211F" d="M78.023,77.647c-0.024,0.166-0.035,0.473-0.117,0.761c-0.214,0.756-1.16,1.044-1.725,0.495
	c-1.401-1.363-2.004-3.036-1.802-4.988c0.007-0.074,0.031-0.148,0.054-0.22c0.345-1.108,0.856-1.285,1.815-0.64
	c1.204,0.81,1.534,2.05,1.684,3.38C77.973,76.793,77.987,77.153,78.023,77.647 M76.211,74.064c0.212,0.747,0.398,1.405,0.585,2.063
	c-0.035,0.011-0.07,0.021-0.104,0.032c-0.246-0.677-0.491-1.354-0.737-2.032c-0.032,0.012-0.064,0.023-0.096,0.036
	c0.178,0.585,0.354,1.169,0.532,1.754c-0.044,0.016-0.087,0.033-0.13,0.05c-0.168-0.371-0.35-0.736-0.497-1.115
	c-0.146-0.375-0.256-0.764-0.382-1.146c-0.018,0.006-0.036,0.012-0.054,0.018c0.101,0.732,0.202,1.463,0.304,2.195
	c-0.021,0.006-0.042,0.011-0.063,0.016c-0.105-0.229-0.21-0.458-0.363-0.79c0.135,1.393,0.805,2.383,1.559,3.328
	c0.05-0.016,0.099-0.032,0.146-0.048c-0.031-0.33-0.063-0.66-0.107-1.112c0.156,0.321,0.257,0.526,0.382,0.783
	C77.42,76.677,77.137,75.427,76.211,74.064"/>
<path fill="#22211F" d="M94.11,80.844c0.1,1.377-0.589,2.618-1.529,3.749c-0.433,0.518-0.688,0.561-1.1,0.052
	c-0.404-0.499-0.79-1.082-0.956-1.689c-0.347-1.271-0.264-2.552,0.395-3.739c0.437-0.789,1.135-1.118,1.879-0.922
	c0.812,0.214,1.275,0.813,1.311,1.703C94.118,80.224,94.11,80.451,94.11,80.844 M93.061,82.926c-0.097,0.277-0.195,0.553-0.292,0.83
	c0.948-0.963,1.294-3.302,0.655-4.063c0,0.465,0.045,0.905-0.011,1.331c-0.084,0.644-0.238,1.277-0.362,1.915v-3.325
	c0.021,0,0.044,0.001,0.065,0.001c-0.061,0.419-0.123,0.839-0.185,1.258c-0.037,0-0.073-0.001-0.11-0.001l-0.227-1.878
	c-0.025,0.004-0.05,0.008-0.076,0.012v1.355c-0.022,0.001-0.045,0.002-0.068,0.002c-0.026-0.312-0.054-0.624-0.082-0.936
	c-0.056-0.005-0.111-0.009-0.168-0.014c-0.148,0.388-0.298,0.776-0.446,1.166c-0.022-0.009-0.045-0.017-0.068-0.024
	c0.031-0.219,0.063-0.437,0.094-0.656c-0.229,0.334-0.406,0.687-0.519,1.059c-0.084,0.283-0.199,0.638-0.102,0.879
	c0.262,0.637,0.434,1.272,0.445,1.962c0.005,0.226,0.104,0.449,0.16,0.674c0.02-0.008,0.041-0.017,0.063-0.026
	c0.122-1.175,0.246-2.351,0.369-3.527c0.053,0.006,0.104,0.012,0.154,0.019c0.001,1.193-0.534,2.361-0.241,3.569
	c0.056,0.011,0.111,0.023,0.166,0.034c0.213-0.689,0.427-1.378,0.625-2.024C92.94,82.619,93.001,82.773,93.061,82.926
	 M91.121,83.538c-0.729-1.274-0.184-2.473,0.172-3.681C90.485,81.089,90.409,82.365,91.121,83.538"/>
<path fill="#22211F" d="M68.121,76.229c0.099,1.377-0.589,2.618-1.53,3.749c-0.432,0.519-0.688,0.562-1.099,0.052
	c-0.404-0.499-0.79-1.082-0.956-1.69c-0.347-1.27-0.264-2.552,0.394-3.739c0.437-0.789,1.135-1.118,1.879-0.922
	c0.813,0.214,1.276,0.813,1.311,1.703C68.129,75.609,68.121,75.836,68.121,76.229 M67.071,78.311
	c-0.097,0.277-0.195,0.553-0.292,0.83c0.948-0.963,1.294-3.302,0.655-4.062c0,0.465,0.045,0.905-0.011,1.331
	c-0.084,0.643-0.238,1.277-0.362,1.915V75c0.022,0,0.044,0,0.066,0.001l-0.185,1.258c-0.037,0-0.073-0.001-0.11-0.001l-0.227-1.878
	c-0.025,0.004-0.05,0.008-0.076,0.012v1.355c-0.023,0.001-0.045,0.002-0.068,0.002c-0.027-0.313-0.054-0.624-0.082-0.937
	c-0.056-0.005-0.112-0.009-0.168-0.014c-0.149,0.388-0.298,0.777-0.447,1.166c-0.022-0.009-0.045-0.017-0.068-0.024
	c0.031-0.219,0.063-0.437,0.094-0.656c-0.23,0.334-0.407,0.686-0.519,1.058c-0.084,0.283-0.199,0.638-0.101,0.879
	c0.261,0.637,0.433,1.273,0.445,1.962c0.005,0.226,0.104,0.449,0.16,0.674c0.02-0.008,0.041-0.017,0.062-0.025
	c0.123-1.176,0.247-2.353,0.37-3.527c0.052,0.006,0.103,0.012,0.154,0.019c0.001,1.193-0.534,2.361-0.241,3.569
	c0.055,0.011,0.111,0.023,0.166,0.034c0.213-0.689,0.426-1.378,0.625-2.024C66.951,78.004,67.011,78.158,67.071,78.311
	 M65.131,78.923c-0.728-1.274-0.183-2.473,0.172-3.681C64.496,76.474,64.42,77.75,65.131,78.923"/>
<path fill="#22211F" d="M89.73,77.145c-1.242-0.128-2.371-0.455-3.387-1.137c-0.773-0.52-0.798-1.231-0.009-1.715
	c0.925-0.565,1.946-0.795,3.034-0.605c0.61,0.106,1.226,0.2,1.824,0.353c0.642,0.164,0.888,0.674,0.921,1.286
	c0.034,0.611-0.162,1.161-0.759,1.398C90.84,76.929,90.273,77.01,89.73,77.145 M87.57,74.287c0.362-0.115,0.725-0.229,1.086-0.344
	c-0.011-0.04-0.021-0.08-0.033-0.12c-0.571,0.14-1.143,0.28-1.714,0.421c0.007,0.028,0.015,0.057,0.021,0.086
	c0.218-0.018,0.436-0.036,0.652-0.053l2.291,0.383c-0.001,0.021-0.002,0.042-0.003,0.063h-2.502
	c0.001,0.029,0.002,0.058,0.003,0.086c0.081,0.022,0.163,0.045,0.33,0.091c-1.371,0.204-1.371,0.204-1.313,0.562
	c0.938,0.562,1.786,1.255,2.919,0.944c-0.074,0.024-0.149,0.048-0.33,0.106c0.912,0.042,1.617-0.078,2.202-0.726
	c0.289-0.322,0.416-0.531,0.042-0.787c-0.584-0.398-1.211-0.687-1.952-0.667C88.703,74.347,88.137,74.304,87.57,74.287"/>
<path fill="#22211F" d="M78.8,83.327c-0.227-0.027-0.57-0.038-0.899-0.113c-1.036-0.237-1.453-0.789-1.365-1.758
	c0.073-0.796,0.714-1.315,1.679-1.38c0.336-0.023,0.67-0.084,1.004-0.137c1.129-0.181,2.185,0.049,3.138,0.65
	c0.691,0.436,0.68,1.133,0.011,1.617C81.339,82.95,80.167,83.267,78.8,83.327 M80.761,80.66c-0.001-0.021-0.003-0.042-0.004-0.063
	c-0.562,0-1.143-0.09-1.681,0.024c-0.592,0.126-1.167,0.397-1.706,0.686c-0.353,0.189-0.29,0.491-0.004,0.784
	c0.605,0.618,1.354,0.708,2.229,0.684c-0.145-0.064-0.218-0.098-0.32-0.144c0.418,0,0.836,0.095,1.182-0.022
	c0.537-0.183,1.028-0.503,1.53-0.781c0.127-0.071,0.218-0.205,0.326-0.31c-0.19-0.115-0.368-0.287-0.574-0.332
	c-0.229-0.05-0.481,0.015-0.724,0.03c0.001-0.028,0.001-0.055,0.002-0.083c0.103-0.026,0.204-0.052,0.359-0.092
	c-0.487-0.049-0.916-0.119-1.345-0.129c-0.425-0.009-0.853,0.042-1.278,0.066c-0.001-0.034-0.002-0.068-0.003-0.102
	C79.421,80.804,80.091,80.732,80.761,80.66 M77.742,82.863c0,0.039-0.001,0.078-0.001,0.116c0.703,0.04,1.406,0.078,2.108,0.117
	c0.003-0.034,0.005-0.068,0.006-0.102C79.151,82.95,78.446,82.907,77.742,82.863"/>
<path fill="#22211F" d="M84.228,75.844c1.093,0.508,1.987,1.206,2.461,2.31c0.396,0.925-0.273,1.818-1.353,1.945
	c-0.689,0.081-1.253-0.219-1.822-0.519c-0.256-0.134-0.498-0.296-0.706-0.531c0.597,0.172,1.194,0.344,1.65,0.474
	c0.313-0.104,0.524-0.241,0.723-0.225c0.301,0.025,0.592,0.156,0.887,0.243c0.023-0.047,0.045-0.093,0.067-0.139
	c-0.269-0.246-0.539-0.493-0.922-0.842c0.246,0.065,0.341,0.09,0.433,0.114c0.186-0.431-0.025-0.7-0.35-0.961
	c-0.792-0.637-1.653-1.141-2.637-1.394c-0.297-0.077-0.588-0.584-0.95-0.03c0.041,0.054,0.104,0.138,0.217,0.285
	c-0.183-0.043-0.285-0.066-0.388-0.091c-0.006,0.039-0.027,0.084-0.014,0.101c0.07,0.089,0.145,0.176,0.227,0.253
	c0.452,0.427,0.447,0.461-0.14,0.668c0.216,0.241,0.418,0.469,0.687,0.772c-0.87-0.278-1.196-0.897-1.391-1.595
	c-0.221-0.79,0.504-1.511,1.312-1.34c0.018,0.004,0.05-0.006,0.054,0.002c0.424,0.825,1.418,0.638,2.028,1.138
	c0.231,0.19,0.504,0.328,0.854,0.403C84.854,76.549,84.556,76.212,84.228,75.844"/>
<path fill="#22211F" d="M72.082,81.87c0.169,0.453,0.339,0.906,0.508,1.36c0.027-0.006,0.054-0.011,0.081-0.016
	c-0.056-0.839-0.114-1.678-0.168-2.517c-0.006-0.105-0.02-0.231,0.027-0.315c0.265-0.467,0.165-0.806-0.244-1.162
	c-0.367-0.319-0.642-0.745-1.003-1.083c0.155,0.656,0.992,1.024,0.718,1.855c-0.517-0.483-0.439-1.33-1.167-1.633
	c-0.016-0.007,0.091-0.425,0.125-0.423c0.362,0.025,0.786-0.003,1.063,0.18c0.342,0.226,0.665,0.597,0.813,0.976
	c0.51,1.318,0.748,2.696,0.541,4.113c-0.157,1.071-0.707,1.284-1.549,0.599c-0.338-0.274-0.675-0.584-0.899-0.962
	c-0.222-0.375-0.325-0.86-0.484-1.271c-0.304-0.785-0.412-1.646-0.312-2.481c0.031-0.255,0.099-0.536,0.315-0.674
	c0.024,0.192-0.054,0.38-0.111,0.564c-0.215,0.687-0.141,1.419,0.052,2.101c0.101,0.353,0.224,0.721,0.39,1.05
	c0.063,0.123,0.521,0.708,0.481,0.776c0.015-0.026,0.03-0.052,0.045-0.078c-0.213-0.866-0.425-1.733-0.638-2.6l0.127-0.027
	c0.364,0.744,0.728,1.488,1.165,2.385c0.021-0.34,0.033-0.511,0.044-0.683C72.028,81.892,72.055,81.88,72.082,81.87"/>
<path fill="#22211F" d="M75.594,73.434c0.007,1.469-0.72,2.049-1.864,1.494c-2.058-0.996-3.738-2.399-4.207-4.812
	c-0.229-1.18,0.427-1.782,1.564-1.372c1.992,0.717,3.405,2.107,4.341,3.988C75.557,72.993,75.566,73.313,75.594,73.434
	 M71.852,69.937c-0.044,0.04-0.088,0.08-0.132,0.12c0.959,0.886,1.919,1.772,2.662,2.459c-0.201-0.254-0.553-0.78-0.986-1.226
	C72.92,70.8,72.37,70.384,71.852,69.937 M74.245,74.12c0.053-0.055,0.105-0.11,0.157-0.165c-0.635-0.579-1.271-1.157-1.905-1.736
	c-0.064,0.074-0.129,0.148-0.192,0.222C72.952,73,73.599,73.561,74.245,74.12 M72.529,72.083c0.057-0.062,0.112-0.124,0.168-0.186
	c-0.401-0.341-0.803-0.683-1.204-1.023c-0.038,0.044-0.077,0.088-0.116,0.132C71.762,71.365,72.146,71.724,72.529,72.083"/>
<path fill="#22211F" d="M66.2,75.546c-1.083-0.152-2.09-0.334-3.002-0.889c-0.11-0.067-0.22-0.137-0.318-0.22
	c-0.84-0.722-0.843-1.221,0.017-1.896c0.998-0.784,2.122-1.137,3.388-0.852c0.899,0.203,1.8,0.41,2.681,0.678
	c0.624,0.191,1.029,0.643,1.009,1.342c-0.018,0.661-0.469,1.007-1.039,1.167C68.032,75.129,67.113,75.326,66.2,75.546
	 M64.819,74.202c1.503,0.465,2.922,0.19,4.328-0.477c-0.269-0.077-0.539-0.155-0.917-0.264c0.255-0.081,0.417-0.132,0.579-0.183
	l0.012-0.13c-0.687-0.16-1.375-0.319-2.031-0.473c0.257-0.021,0.561-0.046,0.865-0.072c-0.001,0.012-0.003,0.025-0.005,0.037h-3.326
	c-0.002,0.073-0.005,0.146-0.008,0.22h2.274c0.001,0.074,0.001,0.149,0.001,0.224h-1.252h-1.183
	c0.004,0.078,0.009,0.156,0.014,0.233h1.998c-0.001,0.065-0.002,0.129-0.003,0.193h-2.557c-0.003,0.067-0.006,0.134-0.009,0.201
	c1.069,0.152,2.139,0.305,3.208,0.457c0.001,0.012,0.003,0.022,0.004,0.034H64.819z"/>
<path fill="#22211F" d="M75.563,85.301c0.112,1.571-0.671,2.986-1.746,4.276c-0.492,0.591-0.784,0.641-1.253,0.06
	c-0.461-0.57-0.901-1.234-1.091-1.928c-0.396-1.449-0.301-2.912,0.449-4.267c0.499-0.899,1.295-1.274,2.144-1.051
	c0.926,0.244,1.455,0.928,1.496,1.942C75.572,84.593,75.563,84.853,75.563,85.301 M74.366,87.676
	c-0.112,0.315-0.223,0.631-0.334,0.946c1.082-1.098,1.476-3.766,0.747-4.633c0,0.53,0.051,1.031-0.012,1.519
	c-0.097,0.733-0.272,1.456-0.414,2.184v-3.793c0.025,0,0.051,0,0.075,0c-0.069,0.479-0.141,0.957-0.211,1.437
	c-0.042-0.001-0.084-0.001-0.126-0.002c-0.086-0.713-0.172-1.429-0.258-2.143c-0.029,0.005-0.058,0.009-0.087,0.014v1.546
	c-0.026,0.001-0.052,0.002-0.078,0.003c-0.031-0.357-0.062-0.713-0.093-1.069c-0.064-0.005-0.128-0.01-0.192-0.016
	c-0.17,0.442-0.34,0.887-0.51,1.33c-0.025-0.009-0.051-0.018-0.077-0.027c0.035-0.25,0.071-0.499,0.107-0.748
	c-0.263,0.38-0.465,0.783-0.592,1.207c-0.097,0.323-0.228,0.727-0.115,1.002c0.297,0.727,0.493,1.452,0.508,2.238
	c0.004,0.258,0.118,0.513,0.181,0.77c0.024-0.01,0.049-0.02,0.071-0.03c0.142-1.341,0.282-2.683,0.423-4.024
	c0.059,0.007,0.117,0.014,0.175,0.022c0.003,1.361-0.608,2.694-0.274,4.071c0.063,0.013,0.127,0.026,0.189,0.039
	c0.243-0.786,0.485-1.572,0.713-2.308C74.229,87.326,74.297,87.501,74.366,87.676 M72.152,88.374
	c-0.831-1.454-0.209-2.821,0.196-4.199C71.428,85.58,71.341,87.036,72.152,88.374"/>
<path fill="#22211F" d="M70.944,78.708c-0.293-0.081-0.538-0.149-0.912-0.252c0.163,0.191,0.244,0.285,0.343,0.402
	c-0.233-0.035-0.435-0.064-0.637-0.095c-0.01,0.034-0.021,0.068-0.032,0.102c0.446,0.195,0.892,0.39,1.338,0.586
	c-0.003,0.023-0.005,0.046-0.008,0.07c-0.172-0.019-0.345-0.037-0.518-0.056c-0.088,0.497,0.201,0.725,0.625,0.907
	c1.316,0.564,2.729,0.52,4.11,0.679c0.09,0.01,0.232-0.15,0.29-0.261c0.024-0.046-0.091-0.196-0.173-0.259
	c-0.093-0.072-0.221-0.1-0.314-0.219l0.773,0.105l0.03-0.084c-0.297-0.159-0.593-0.317-0.931-0.498
	c0.144-0.166,0.262-0.303,0.395-0.456c-0.211-0.185-0.394-0.343-0.618-0.54c0.729-0.043,1.681,0.823,1.882,1.629
	c0.11,0.445-0.274,0.999-0.891,1.268c-0.112,0.048-0.25,0.102-0.363,0.08c-1.179-0.22-2.355-0.454-3.528-0.683
	c0.06,0.44,0.06,0.44,1.268,0.81c-1.066,0.218-3.328-0.96-3.729-1.796c-0.272-0.569-0.213-1.265,0.233-1.747
	c0.579-0.624,1.284-0.927,2.149-0.777c0.54,0.094,1.081,0.179,1.617,0.41c-0.517,0.041-1.044,0.165-1.548,0.102
	C71.281,78.071,71.119,78.336,70.944,78.708"/>
<path fill="#22211F" d="M61.786,76.169c0.428,0.133,0.885,0.209,1.28,0.408c1.453,0.733,2.533,1.854,3.22,3.331
	c0.448,0.962,0.049,1.693-1.006,1.678c-1.366-0.021-2.624-0.438-3.615-1.463c-0.268-0.276-0.547-0.55-0.858-0.771
	c-0.656-0.469-0.922-1.083-0.714-1.771C60.359,76.696,60.938,76.233,61.786,76.169 M64.271,80.965
	c0.193-0.095,0.385-0.188,0.578-0.284c0.145-0.001,0.291,0.006,0.436-0.004c0.202-0.014,0.404-0.041,0.607-0.062
	c-0.043-0.165-0.068-0.336-0.131-0.492c-0.072-0.177-0.198-0.334-0.263-0.513c-0.202-0.563-0.437-1.065-1.143-1.137
	c-0.117-0.011-0.226-0.231-0.313-0.37c-0.541-0.874-2.113-1.297-2.973-0.771c-0.117,0.071-0.218,0.281-0.213,0.423
	c0.028,0.816,1.425,2.213,2.268,2.3c0.04,0.138,0.081,0.277,0.121,0.416c-0.118,0.015-0.237,0.031-0.356,0.046
	c-0.013,0.055-0.027,0.11-0.04,0.165c0.569,0.195,1.139,0.39,1.709,0.585c0.014-0.042,0.027-0.084,0.041-0.126
	C64.49,81.083,64.379,81.025,64.271,80.965"/>
<path fill="#22211F" d="M63.124,80.055c-0.035-0.074-0.071-0.148-0.095-0.199c0.556,0.165,1.123,0.323,1.679,0.511
	c0.074,0.026,0.096,0.206,0.141,0.314c-0.192,0.095-0.385,0.19-0.578,0.284c-0.342-0.164-0.683-0.329-1.025-0.494
	C63.205,80.333,63.165,80.194,63.124,80.055"/>
<path fill="#22211F" d="M91.525,78.643c-0.1,0.137-0.255,0.263-0.28,0.411s0.036,0.413,0.138,0.461
	c0.458,0.216,0.933,0.422,1.423,0.536c0.497,0.115,1.021,0.117,1.545,0.063c-0.269-0.021-0.536-0.039-0.806-0.06
	c0.004-0.047,0.009-0.094,0.014-0.141c0.574,0.054,1.149,0.107,1.726,0.161v0.648c-1.349,0.066-2.667-0.048-3.913-0.629
	c-1.052-0.491-1.188-1.331-0.262-2.04c1.226-0.938,2.616-1.366,4.175-1.096v0.649c-1.399,0.011-2.787,0.067-4.039,0.95
	C91.375,78.597,91.45,78.621,91.525,78.643"/>
<path fill="#22211F" d="M117.821,74.629c0.007,1.468-0.72,2.049-1.864,1.494c-2.058-0.996-3.738-2.399-4.207-4.812
	c-0.229-1.18,0.427-1.782,1.564-1.372c1.991,0.716,3.405,2.107,4.341,3.988C117.784,74.188,117.794,74.508,117.821,74.629
	 M114.079,71.132c-0.044,0.04-0.088,0.08-0.132,0.119c0.959,0.887,1.919,1.773,2.662,2.459c-0.201-0.253-0.554-0.779-0.987-1.225
	C115.147,71.997,114.597,71.581,114.079,71.132 M116.474,75.315c0.052-0.055,0.104-0.11,0.156-0.165
	c-0.635-0.579-1.271-1.157-1.905-1.736l-0.192,0.221C115.179,74.196,115.826,74.755,116.474,75.315 M114.757,73.278
	c0.057-0.062,0.112-0.124,0.168-0.186c-0.401-0.341-0.803-0.682-1.203-1.023c-0.039,0.044-0.078,0.088-0.117,0.132
	C113.989,72.561,114.373,72.919,114.757,73.278"/>
<path fill="#22211F" d="M103.284,75.288c-0.313,1.488-1.298,2.859-2.928,3.743c-0.427,0.232-0.921,0.359-1.397,0.476
	c-0.678,0.167-1.03-0.108-0.86-0.823c0.25-1.055,0.586-2.111,1.054-3.085c0.316-0.656,0.896-1.199,1.407-1.745
	c0.436-0.464,0.967-0.84,1.662-0.585C102.941,73.533,103.292,74.116,103.284,75.288 M100.783,77.135
	c0.04,0.028,0.08,0.055,0.12,0.083c0.532-0.583,1.064-1.166,1.596-1.75c-0.039-0.037-0.079-0.074-0.119-0.111
	c-0.236,0.215-0.472,0.43-0.706,0.645c-0.021-0.024-0.04-0.047-0.061-0.071c0.205-0.313,0.411-0.623,0.616-0.936
	c-0.032-0.017-0.064-0.034-0.097-0.051l-1.549,1.337c-0.036-0.04-0.073-0.08-0.11-0.12l0.633-0.991
	c-0.857,0.74-1.717,1.475-1.946,2.776c0.6-0.375,1.159-0.726,1.714-1.073C100.845,76.961,100.813,77.048,100.783,77.135"/>
<path fill="#22211F" d="M108.428,76.742c-1.083-0.152-2.09-0.334-3.002-0.889c-0.11-0.067-0.22-0.137-0.318-0.22
	c-0.84-0.722-0.843-1.222,0.018-1.897c0.998-0.784,2.122-1.137,3.388-0.851c0.899,0.203,1.8,0.409,2.682,0.678
	c0.623,0.191,1.028,0.643,1.009,1.342c-0.019,0.661-0.47,1.007-1.039,1.167C110.26,76.325,109.341,76.522,108.428,76.742
	 M107.047,75.398c1.503,0.465,2.922,0.189,4.328-0.477c-0.27-0.078-0.539-0.155-0.917-0.265c0.255-0.081,0.417-0.132,0.579-0.183
	c0.004-0.044,0.008-0.087,0.012-0.131c-0.687-0.16-1.375-0.32-2.031-0.472c0.257-0.021,0.562-0.046,0.865-0.072
	c-0.001,0.012-0.003,0.024-0.005,0.037h-3.326c-0.003,0.073-0.005,0.146-0.008,0.219h2.273c0.002,0.075,0.002,0.15,0.002,0.225
	h-1.253h-1.183c0.004,0.078,0.009,0.155,0.014,0.233h1.998c-0.001,0.064-0.002,0.129-0.003,0.193h-2.557
	c-0.003,0.067-0.006,0.134-0.009,0.201c1.068,0.152,2.138,0.305,3.208,0.457c0.001,0.011,0.003,0.023,0.004,0.034H107.047z"/>
<path fill="#22211F" d="M96.478,70.178c0.192,0.517,0.386,1.034,0.579,1.551c0.031-0.006,0.062-0.012,0.093-0.019
	c-0.064-0.956-0.131-1.913-0.191-2.87c-0.008-0.12-0.023-0.264,0.03-0.359c0.303-0.533,0.188-0.92-0.278-1.326
	c-0.418-0.364-0.73-0.85-1.144-1.236c0.178,0.749,1.131,1.168,0.818,2.116c-0.59-0.55-0.501-1.517-1.331-1.862
	c-0.019-0.008,0.104-0.486,0.143-0.483c0.413,0.029,0.896-0.003,1.213,0.206c0.389,0.257,0.759,0.68,0.926,1.113
	c0.581,1.503,0.854,3.075,0.617,4.691c-0.179,1.223-0.807,1.465-1.768,0.684c-0.385-0.313-0.77-0.666-1.024-1.097
	c-0.253-0.428-0.372-0.981-0.553-1.451c-0.348-0.896-0.471-1.877-0.355-2.83c0.035-0.291,0.112-0.612,0.359-0.77
	c0.028,0.219-0.062,0.433-0.127,0.644c-0.245,0.783-0.16,1.619,0.059,2.397c0.114,0.403,0.254,0.822,0.444,1.197
	c0.072,0.141,0.595,0.808,0.55,0.886c0.017-0.03,0.034-0.059,0.051-0.089c-0.242-0.989-0.484-1.977-0.727-2.966
	c0.048-0.01,0.096-0.021,0.145-0.031c0.414,0.849,0.829,1.698,1.329,2.72c0.025-0.387,0.037-0.582,0.05-0.778L96.478,70.178z"/>
<path fill="#22211F" d="M85.029,61.189c0.403,0.799,0.292,1.719-0.172,2.53c-0.438,0.768-0.922,1.511-1.396,2.258
	c-0.09,0.142-0.207,0.294-0.351,0.365c-0.353,0.176-0.826,0.519-1.069,0.405c-0.305-0.141-0.552-0.655-0.605-1.039
	c-0.12-0.862-0.093-1.756,0.124-2.601c0.206-0.804,0.626-1.712,1.331-2.194c0.167-0.114,0.342-0.226,0.526-0.309
	c0.19-0.087,0.4-0.142,0.609-0.125c0.024,0.001,0.048,0.005,0.068,0.017c0.021,0.014,0.034,0.036,0.042,0.059
	c0.038,0.104-0.021,0.223-0.105,0.294c-0.085,0.071-0.193,0.107-0.297,0.148c-0.249,0.101-0.491,0.344-0.617,0.588
	c-0.153,0.299-0.184,0.644-0.235,0.97c-0.125,0.795-0.378,1.57-0.576,2.354c0.037,0.013,0.074,0.025,0.112,0.038
	c0.139-0.166,0.277-0.332,0.418-0.498c0.02,0.016,0.04,0.031,0.061,0.047c-0.152,0.45-0.303,0.898-0.455,1.349
	c0.03,0.013,0.06,0.025,0.088,0.038c0.528-0.723,1.058-1.445,1.61-2.201c-0.071,0.288-0.135,0.548-0.199,0.809
	c0.062,0.018,0.123,0.036,0.186,0.053c0.19-0.693,0.432-1.379,0.556-2.085c0.047-0.272,0.014-0.55-0.021-0.821
	c-0.028-0.234,0.006-0.58-0.149-0.771c-0.102-0.123-0.26-0.283-0.395-0.369c0.271-0.022,0.457,0.042,0.633,0.26
	C84.862,60.895,84.954,61.041,85.029,61.189 M82.519,62.417c-0.052-0.015-0.105-0.031-0.157-0.046
	c-0.309,0.771-0.938,1.45-0.602,2.41C82.013,63.993,82.266,63.205,82.519,62.417"/>
<path fill="#22211F" d="M93.614,76.31c0.006,1.287-0.631,1.796-1.634,1.31c-1.805-0.873-3.277-2.103-3.688-4.218
	c-0.201-1.035,0.374-1.562,1.371-1.203c1.746,0.628,2.986,1.847,3.805,3.496C93.582,75.923,93.59,76.204,93.614,76.31
	 M90.334,73.245c-0.039,0.035-0.077,0.07-0.116,0.105c0.842,0.775,1.683,1.553,2.333,2.155c-0.175-0.222-0.483-0.683-0.863-1.074
	C91.271,74.002,90.788,73.637,90.334,73.245 M92.432,76.912c0.047-0.048,0.093-0.097,0.139-0.145
	c-0.558-0.507-1.114-1.015-1.671-1.522c-0.057,0.065-0.112,0.13-0.168,0.194C91.298,75.93,91.865,76.421,92.432,76.912
	 M90.928,75.125l0.147-0.163c-0.353-0.299-0.703-0.598-1.055-0.897c-0.034,0.039-0.068,0.077-0.103,0.116
	C90.254,74.497,90.591,74.811,90.928,75.125"/>
<path fill="#22211F" d="M85.587,71.86c-0.448,0.78-1.013,0.863-1.447,0.217c-0.782-1.16-1.239-2.42-0.745-3.842
	c0.241-0.695,0.774-0.812,1.25-0.245c0.833,0.993,1.154,2.164,1.07,3.447C85.703,71.615,85.609,71.788,85.587,71.86 M84.683,68.857
	l-0.107,0.022c0.235,0.764,0.471,1.529,0.652,2.121c-0.028-0.196-0.053-0.583-0.145-0.953
	C84.981,69.643,84.818,69.253,84.683,68.857 M84.661,71.809l0.135-0.04c-0.158-0.502-0.316-1.003-0.475-1.505
	c-0.057,0.021-0.113,0.039-0.17,0.059C84.321,70.818,84.491,71.313,84.661,71.809 M84.381,70.202
	c0.049-0.016,0.097-0.031,0.146-0.047c-0.106-0.304-0.215-0.608-0.322-0.912c-0.033,0.011-0.068,0.023-0.103,0.034
	C84.194,69.585,84.287,69.894,84.381,70.202"/>
<path fill="#22211F" d="M80.872,76.887c-0.276,1.305-1.14,2.506-2.568,3.281c-0.374,0.203-0.807,0.315-1.225,0.418
	c-0.594,0.145-0.903-0.095-0.754-0.722c0.22-0.925,0.514-1.851,0.924-2.704c0.276-0.576,0.785-1.052,1.233-1.53
	c0.382-0.407,0.848-0.737,1.456-0.513C80.57,75.349,80.878,75.86,80.872,76.887 M78.679,78.506c0.035,0.024,0.07,0.048,0.105,0.073
	c0.467-0.512,0.933-1.023,1.398-1.534c-0.035-0.032-0.07-0.065-0.104-0.098c-0.206,0.188-0.413,0.377-0.619,0.565
	c-0.018-0.021-0.035-0.042-0.054-0.063c0.182-0.273,0.361-0.546,0.541-0.819c-0.027-0.015-0.057-0.03-0.085-0.045l-1.357,1.172
	c-0.032-0.035-0.064-0.07-0.098-0.104c0.186-0.289,0.37-0.579,0.556-0.868c-0.752,0.647-1.505,1.292-1.706,2.433
	c0.525-0.329,1.016-0.636,1.503-0.94C78.731,78.354,78.706,78.43,78.679,78.506"/>
<path fill="#22211F" d="M85.38,78.163c-0.95-0.134-1.833-0.293-2.632-0.78c-0.096-0.058-0.193-0.12-0.279-0.193
	c-0.735-0.633-0.738-1.071,0.016-1.663c0.875-0.687,1.859-0.997,2.97-0.746c0.788,0.178,1.578,0.359,2.35,0.595
	c0.549,0.167,0.902,0.564,0.886,1.176c-0.017,0.579-0.411,0.883-0.911,1.023C86.986,77.797,86.18,77.969,85.38,78.163
	 M84.169,76.984c1.317,0.408,2.563,0.166,3.794-0.418c-0.235-0.068-0.473-0.136-0.804-0.232c0.224-0.07,0.366-0.115,0.508-0.16
	l0.01-0.114c-0.602-0.141-1.205-0.281-1.779-0.414c0.225-0.02,0.491-0.041,0.758-0.063c-0.001,0.01-0.003,0.021-0.004,0.032h-2.916
	c-0.002,0.064-0.004,0.128-0.008,0.192h1.994c0,0.065,0,0.132,0.001,0.196h-1.098h-1.037l0.012,0.204h1.753
	c-0.002,0.057-0.003,0.113-0.004,0.17h-2.24c-0.003,0.059-0.006,0.117-0.009,0.175c0.938,0.134,1.874,0.268,2.812,0.401
	c0.002,0.01,0.003,0.021,0.004,0.03H84.169z"/>
<path fill="#22211F" d="M80.845,68.185c-0.024,0.166-0.035,0.473-0.117,0.761c-0.214,0.756-1.16,1.044-1.725,0.496
	c-1.401-1.364-2.004-3.037-1.802-4.989c0.007-0.074,0.031-0.148,0.055-0.22c0.344-1.108,0.855-1.285,1.814-0.64
	c1.204,0.81,1.534,2.05,1.685,3.38C80.794,67.331,80.809,67.691,80.845,68.185 M79.032,64.602c0.212,0.747,0.398,1.406,0.585,2.063
	c-0.035,0.011-0.069,0.021-0.104,0.033c-0.245-0.678-0.49-1.355-0.736-2.033c-0.032,0.012-0.063,0.023-0.096,0.036
	c0.178,0.585,0.354,1.169,0.533,1.754l-0.131,0.05c-0.168-0.371-0.35-0.736-0.496-1.115c-0.146-0.375-0.257-0.764-0.383-1.146
	c-0.018,0.006-0.035,0.012-0.054,0.018c0.101,0.732,0.202,1.464,0.304,2.195c-0.021,0.006-0.042,0.011-0.063,0.016
	c-0.105-0.229-0.21-0.458-0.363-0.79c0.135,1.393,0.805,2.383,1.56,3.328c0.049-0.016,0.098-0.032,0.146-0.048
	c-0.031-0.33-0.063-0.66-0.107-1.112c0.156,0.321,0.257,0.526,0.382,0.784C80.241,67.216,79.958,65.966,79.032,64.602"/>
<path fill="#22211F" d="M96.933,71.382c0.099,1.377-0.59,2.618-1.53,3.749c-0.433,0.519-0.688,0.562-1.1,0.052
	c-0.403-0.499-0.79-1.082-0.956-1.69c-0.347-1.27-0.264-2.552,0.395-3.739c0.437-0.79,1.135-1.118,1.879-0.922
	c0.813,0.214,1.275,0.813,1.311,1.703C96.94,70.762,96.933,70.99,96.933,71.382 M95.882,73.464l-0.292,0.829
	c0.948-0.962,1.294-3.301,0.655-4.061c0,0.464,0.045,0.904-0.011,1.331c-0.084,0.643-0.238,1.277-0.362,1.915v-3.325l0.066,0.001
	l-0.186,1.258c-0.037-0.001-0.072-0.001-0.109-0.001c-0.076-0.626-0.151-1.252-0.228-1.878c-0.024,0.004-0.05,0.008-0.076,0.012
	v1.355c-0.022,0.001-0.045,0.001-0.067,0.002c-0.027-0.313-0.055-0.624-0.082-0.937c-0.057-0.005-0.112-0.01-0.168-0.014
	c-0.149,0.388-0.298,0.777-0.447,1.165c-0.023-0.008-0.045-0.016-0.068-0.024c0.031-0.218,0.063-0.437,0.095-0.655
	c-0.23,0.334-0.407,0.686-0.52,1.058c-0.084,0.283-0.199,0.638-0.101,0.878c0.261,0.638,0.433,1.274,0.444,1.963
	c0.005,0.225,0.104,0.449,0.16,0.674l0.063-0.025l0.37-3.528c0.052,0.007,0.103,0.013,0.153,0.019
	c0.001,1.194-0.534,2.362-0.241,3.57c0.056,0.011,0.111,0.022,0.166,0.034c0.214-0.689,0.427-1.378,0.625-2.024
	C95.762,73.158,95.822,73.312,95.882,73.464 M93.942,74.077c-0.729-1.274-0.184-2.473,0.172-3.681
	C93.308,71.627,93.231,72.904,93.942,74.077"/>
<path fill="#22211F" d="M70.942,66.768c0.099,1.377-0.589,2.617-1.53,3.749c-0.432,0.518-0.688,0.561-1.099,0.052
	c-0.404-0.499-0.79-1.082-0.956-1.69c-0.347-1.27-0.264-2.552,0.394-3.739c0.437-0.79,1.135-1.118,1.879-0.922
	c0.812,0.214,1.276,0.813,1.311,1.703C70.95,66.147,70.942,66.375,70.942,66.768 M69.893,68.85
	c-0.097,0.277-0.195,0.553-0.292,0.829c0.947-0.962,1.294-3.301,0.654-4.061c0,0.464,0.046,0.904-0.011,1.331
	c-0.084,0.643-0.238,1.277-0.362,1.915v-3.325l0.066,0.001l-0.185,1.258c-0.037-0.001-0.073-0.001-0.11-0.001
	c-0.076-0.626-0.151-1.252-0.227-1.878c-0.025,0.004-0.05,0.008-0.076,0.012v1.355c-0.023,0.001-0.045,0.001-0.068,0.002
	c-0.027-0.312-0.054-0.624-0.082-0.936c-0.056-0.005-0.112-0.01-0.168-0.014c-0.149,0.388-0.298,0.777-0.447,1.165
	c-0.022-0.008-0.045-0.016-0.068-0.024c0.031-0.218,0.063-0.437,0.094-0.655c-0.23,0.334-0.407,0.686-0.519,1.058
	c-0.084,0.283-0.199,0.637-0.101,0.878c0.261,0.638,0.433,1.274,0.445,1.963c0.005,0.225,0.104,0.449,0.16,0.674
	c0.02-0.008,0.041-0.017,0.062-0.026c0.123-1.176,0.247-2.352,0.37-3.528c0.052,0.007,0.103,0.013,0.154,0.02
	c0.001,1.194-0.534,2.362-0.241,3.57c0.055,0.011,0.111,0.022,0.166,0.034c0.213-0.688,0.426-1.378,0.625-2.023
	C69.772,68.542,69.833,68.697,69.893,68.85 M67.952,69.461c-0.728-1.274-0.183-2.473,0.172-3.681
	C67.317,67.012,67.241,68.289,67.952,69.461"/>
<path fill="#22211F" d="M92.552,67.683c-1.242-0.128-2.371-0.455-3.387-1.138c-0.773-0.52-0.798-1.23-0.008-1.714
	c0.924-0.566,1.945-0.795,3.033-0.606c0.61,0.106,1.226,0.2,1.824,0.353c0.642,0.164,0.889,0.674,0.921,1.286
	c0.034,0.611-0.161,1.161-0.759,1.398C93.661,67.467,93.095,67.548,92.552,67.683 M90.392,64.825
	c0.362-0.115,0.725-0.229,1.086-0.344l-0.032-0.12c-0.572,0.14-1.144,0.28-1.714,0.42c0.007,0.029,0.014,0.059,0.021,0.086
	c0.218-0.017,0.436-0.035,0.653-0.052c0.764,0.127,1.526,0.255,2.291,0.383c-0.001,0.021-0.002,0.042-0.003,0.063H90.19
	c0.002,0.029,0.003,0.057,0.004,0.086c0.081,0.023,0.162,0.045,0.33,0.091c-1.371,0.204-1.371,0.204-1.314,0.562
	c0.938,0.561,1.786,1.255,2.919,0.944c-0.074,0.024-0.149,0.048-0.33,0.106c0.912,0.042,1.617-0.078,2.202-0.728
	c0.289-0.321,0.416-0.53,0.042-0.786c-0.584-0.399-1.211-0.687-1.952-0.667C91.525,64.884,90.958,64.842,90.392,64.825"/>
<path fill="#22211F" d="M81.622,73.866c-0.228-0.027-0.571-0.038-0.9-0.113c-1.036-0.237-1.453-0.789-1.365-1.758
	c0.072-0.796,0.714-1.315,1.679-1.38c0.337-0.023,0.671-0.084,1.005-0.137c1.129-0.181,2.184,0.049,3.137,0.65
	c0.691,0.436,0.68,1.133,0.011,1.617C84.16,73.489,82.988,73.805,81.622,73.866 M83.583,71.199
	c-0.002-0.021-0.004-0.042-0.005-0.063c-0.562,0-1.143-0.09-1.681,0.024c-0.592,0.126-1.167,0.396-1.706,0.686
	c-0.352,0.188-0.29,0.491-0.004,0.784c0.606,0.618,1.354,0.708,2.23,0.684c-0.146-0.065-0.219-0.099-0.321-0.145
	c0.418,0,0.836,0.096,1.182-0.022c0.537-0.182,1.028-0.502,1.53-0.781c0.127-0.07,0.218-0.204,0.326-0.31
	c-0.19-0.116-0.368-0.287-0.574-0.332c-0.228-0.05-0.481,0.015-0.723,0.029c0.001-0.027,0.001-0.055,0.002-0.082
	c0.102-0.026,0.204-0.052,0.358-0.092c-0.486-0.049-0.916-0.119-1.345-0.129c-0.425-0.01-0.852,0.042-1.278,0.066l-0.003-0.102
	C82.242,71.342,82.913,71.271,83.583,71.199 M80.563,73.401c0,0.039-0.001,0.078-0.001,0.116c0.703,0.039,1.406,0.078,2.109,0.117
	c0.002-0.034,0.004-0.068,0.005-0.102C81.973,73.489,81.268,73.445,80.563,73.401"/>
<path fill="#22211F" d="M59.742,85.393c-0.227-0.027-0.571-0.038-0.9-0.113c-1.036-0.237-1.453-0.789-1.365-1.758
	c0.072-0.796,0.714-1.315,1.679-1.38c0.336-0.023,0.67-0.084,1.004-0.137c1.129-0.182,2.184,0.049,3.137,0.649
	c0.692,0.437,0.68,1.133,0.011,1.617C62.281,85.016,61.108,85.333,59.742,85.393 M61.703,82.726
	c-0.001-0.021-0.003-0.042-0.004-0.063c-0.562,0-1.143-0.09-1.681,0.024c-0.592,0.126-1.167,0.397-1.706,0.686
	c-0.352,0.189-0.29,0.491-0.004,0.784c0.606,0.618,1.354,0.708,2.23,0.685c-0.145-0.065-0.218-0.098-0.321-0.145
	c0.418,0,0.836,0.095,1.182-0.022c0.537-0.182,1.028-0.502,1.53-0.78c0.127-0.071,0.218-0.205,0.326-0.31
	c-0.19-0.115-0.368-0.287-0.574-0.332c-0.228-0.05-0.481,0.015-0.723,0.029c0.001-0.027,0.001-0.055,0.002-0.083
	c0.102-0.025,0.204-0.052,0.359-0.092c-0.487-0.049-0.916-0.119-1.345-0.129c-0.425-0.01-0.852,0.042-1.278,0.066
	c-0.001-0.034-0.002-0.068-0.003-0.103C60.363,82.87,61.033,82.798,61.703,82.726 M58.684,84.929c0,0.039-0.001,0.078-0.001,0.116
	c0.703,0.039,1.406,0.078,2.109,0.117c0.002-0.034,0.004-0.068,0.005-0.102C60.093,85.016,59.388,84.973,58.684,84.929"/>
<path fill="#22211F" d="M87.049,66.382c1.094,0.508,1.987,1.206,2.462,2.31c0.396,0.925-0.274,1.818-1.354,1.945
	c-0.689,0.081-1.253-0.219-1.822-0.519c-0.256-0.134-0.498-0.296-0.706-0.53c0.598,0.171,1.194,0.343,1.65,0.474
	c0.313-0.105,0.524-0.242,0.723-0.226c0.302,0.025,0.593,0.156,0.888,0.243c0.022-0.047,0.045-0.093,0.066-0.139
	c-0.269-0.246-0.539-0.493-0.922-0.842c0.246,0.065,0.341,0.09,0.433,0.114c0.186-0.431-0.025-0.7-0.35-0.961
	c-0.792-0.637-1.653-1.141-2.637-1.394c-0.296-0.076-0.587-0.584-0.95-0.03c0.041,0.054,0.105,0.138,0.217,0.285
	c-0.183-0.043-0.285-0.066-0.388-0.091c-0.006,0.039-0.027,0.084-0.013,0.101c0.069,0.089,0.144,0.176,0.226,0.253
	c0.452,0.427,0.448,0.461-0.139,0.668c0.215,0.241,0.418,0.47,0.686,0.772c-0.87-0.278-1.196-0.896-1.391-1.595
	c-0.221-0.789,0.504-1.51,1.312-1.34c0.019,0.004,0.05-0.006,0.055,0.002c0.424,0.826,1.418,0.638,2.027,1.139
	c0.231,0.189,0.504,0.327,0.854,0.402C87.676,67.087,87.376,66.75,87.049,66.382"/>
<path fill="#22211F" d="M74.903,72.408c0.169,0.453,0.339,0.906,0.508,1.359c0.027-0.005,0.055-0.01,0.081-0.017
	c-0.056-0.838-0.113-1.677-0.168-2.516c-0.006-0.105-0.02-0.231,0.027-0.315c0.265-0.467,0.165-0.806-0.244-1.162
	c-0.367-0.319-0.641-0.745-1.003-1.083c0.156,0.656,0.992,1.024,0.718,1.855c-0.517-0.483-0.438-1.33-1.167-1.633
	c-0.016-0.007,0.091-0.426,0.125-0.423c0.362,0.024,0.786-0.003,1.063,0.18c0.341,0.226,0.665,0.596,0.812,0.976
	c0.51,1.318,0.748,2.696,0.541,4.113c-0.157,1.071-0.707,1.283-1.549,0.599c-0.338-0.275-0.675-0.584-0.899-0.962
	c-0.222-0.375-0.324-0.86-0.484-1.272c-0.304-0.785-0.411-1.645-0.312-2.481c0.031-0.255,0.1-0.536,0.315-0.675
	c0.024,0.192-0.053,0.381-0.111,0.565c-0.215,0.687-0.141,1.419,0.052,2.101c0.101,0.354,0.224,0.721,0.39,1.05
	c0.063,0.123,0.521,0.708,0.481,0.776c0.016-0.026,0.03-0.052,0.045-0.078c-0.213-0.867-0.425-1.733-0.638-2.6
	c0.043-0.009,0.085-0.019,0.127-0.027c0.364,0.744,0.729,1.488,1.165,2.384c0.022-0.339,0.033-0.51,0.044-0.682
	C74.85,72.43,74.876,72.419,74.903,72.408"/>
<path fill="#22211F" d="M78.415,63.972c0.007,1.469-0.72,2.049-1.864,1.494c-2.058-0.996-3.737-2.399-4.207-4.812
	c-0.229-1.179,0.428-1.781,1.564-1.372c1.992,0.717,3.406,2.107,4.341,3.988C78.378,63.531,78.388,63.851,78.415,63.972
	 M74.673,60.475c-0.044,0.04-0.088,0.08-0.132,0.12c0.959,0.886,1.919,1.772,2.662,2.459c-0.201-0.254-0.553-0.78-0.987-1.226
	C75.741,61.338,75.191,60.922,74.673,60.475 M77.067,64.659c0.052-0.056,0.104-0.111,0.157-0.166
	c-0.636-0.579-1.271-1.157-1.906-1.736l-0.192,0.222C75.773,63.539,76.42,64.099,77.067,64.659 M75.352,62.621l0.168-0.186
	c-0.402-0.341-0.804-0.683-1.204-1.023c-0.039,0.044-0.078,0.088-0.117,0.132C74.583,61.903,74.967,62.262,75.352,62.621"/>
<path fill="#22211F" d="M69.022,66.084c-1.083-0.152-2.09-0.334-3.002-0.889c-0.11-0.067-0.22-0.137-0.318-0.22
	c-0.84-0.722-0.843-1.222,0.017-1.897c0.998-0.784,2.122-1.137,3.388-0.851c0.899,0.203,1.8,0.409,2.681,0.678
	c0.624,0.191,1.028,0.643,1.009,1.342c-0.019,0.661-0.469,1.007-1.039,1.167C70.854,65.667,69.935,65.865,69.022,66.084
	 M67.641,64.741c1.503,0.465,2.922,0.189,4.328-0.477C71.7,64.186,71.43,64.109,71.052,64c0.255-0.081,0.417-0.132,0.579-0.183
	l0.012-0.131c-0.687-0.16-1.375-0.32-2.031-0.472c0.257-0.021,0.561-0.046,0.865-0.072c-0.001,0.012-0.003,0.025-0.005,0.037h-3.326
	c-0.003,0.073-0.005,0.146-0.008,0.219h2.274c0.001,0.075,0.001,0.149,0.001,0.225h-1.252h-1.183
	c0.004,0.078,0.009,0.155,0.014,0.233h1.998c-0.001,0.063-0.002,0.129-0.003,0.192H66.43c-0.003,0.067-0.006,0.134-0.009,0.201
	c1.069,0.152,2.138,0.304,3.208,0.457c0.001,0.011,0.003,0.023,0.004,0.034H67.641z"/>
<path fill="#22211F" d="M64.891,79.102c0.403,0.799,0.292,1.719-0.172,2.53c-0.439,0.768-0.922,1.511-1.396,2.258
	c-0.089,0.141-0.207,0.294-0.35,0.365c-0.353,0.176-0.826,0.519-1.07,0.405c-0.304-0.141-0.551-0.655-0.605-1.039
	c-0.12-0.862-0.093-1.756,0.124-2.602c0.206-0.804,0.626-1.712,1.331-2.194c0.167-0.114,0.342-0.226,0.526-0.309
	c0.191-0.087,0.401-0.142,0.61-0.125c0.024,0.001,0.048,0.005,0.068,0.017c0.021,0.014,0.034,0.036,0.042,0.059
	c0.037,0.104-0.02,0.223-0.105,0.294s-0.194,0.107-0.297,0.148c-0.249,0.101-0.491,0.344-0.617,0.588
	c-0.154,0.299-0.184,0.644-0.236,0.97c-0.126,0.795-0.378,1.57-0.576,2.354c0.037,0.013,0.074,0.026,0.112,0.038
	c0.139-0.166,0.278-0.332,0.418-0.498c0.02,0.016,0.04,0.031,0.061,0.047c-0.152,0.45-0.303,0.899-0.455,1.349
	c0.03,0.013,0.059,0.025,0.088,0.038c0.528-0.722,1.057-1.445,1.61-2.201c-0.071,0.288-0.135,0.548-0.199,0.808
	c0.061,0.018,0.123,0.036,0.185,0.053c0.191-0.693,0.432-1.379,0.556-2.085c0.047-0.272,0.014-0.549-0.02-0.821
	c-0.029-0.234,0.005-0.58-0.15-0.771c-0.101-0.123-0.26-0.283-0.394-0.369c0.271-0.022,0.457,0.042,0.632,0.26
	C64.724,78.808,64.815,78.953,64.891,79.102 M62.379,80.329c-0.052-0.015-0.105-0.031-0.157-0.046
	c-0.309,0.772-0.938,1.45-0.602,2.41C61.874,81.905,62.126,81.117,62.379,80.329"/>
<path fill="#22211F" d="M60.705,86.098c-0.024,0.166-0.035,0.473-0.117,0.761c-0.214,0.756-1.16,1.044-1.724,0.496
	c-1.402-1.364-2.004-3.037-1.802-4.989c0.007-0.074,0.031-0.147,0.054-0.22c0.344-1.109,0.856-1.285,1.815-0.64
	c1.204,0.81,1.534,2.05,1.684,3.38C60.655,85.244,60.669,85.604,60.705,86.098 M58.894,82.515c0.212,0.747,0.397,1.406,0.585,2.063
	c-0.035,0.011-0.07,0.022-0.104,0.033c-0.246-0.678-0.491-1.354-0.737-2.033c-0.032,0.012-0.064,0.024-0.096,0.036
	c0.178,0.585,0.355,1.169,0.533,1.754l-0.13,0.05c-0.168-0.371-0.35-0.736-0.497-1.115c-0.146-0.375-0.256-0.764-0.382-1.146
	c-0.018,0.006-0.036,0.012-0.054,0.019c0.101,0.731,0.202,1.464,0.304,2.195l-0.063,0.016c-0.105-0.229-0.21-0.458-0.363-0.79
	c0.135,1.393,0.805,2.383,1.559,3.328c0.049-0.017,0.098-0.032,0.146-0.048c-0.031-0.33-0.063-0.66-0.107-1.112
	c0.156,0.321,0.256,0.526,0.381,0.784C60.103,85.129,59.819,83.879,58.894,82.515"/>
<path fill="#22211F" d="M66.91,84.295c1.093,0.508,1.987,1.206,2.461,2.31c0.396,0.925-0.274,1.818-1.353,1.945
	c-0.689,0.081-1.253-0.219-1.822-0.519c-0.256-0.134-0.498-0.296-0.706-0.53c0.597,0.171,1.194,0.343,1.65,0.474
	c0.314-0.104,0.525-0.242,0.723-0.226c0.301,0.024,0.592,0.156,0.887,0.243c0.023-0.047,0.045-0.093,0.067-0.139
	c-0.269-0.246-0.539-0.493-0.922-0.842c0.246,0.065,0.341,0.09,0.433,0.114c0.185-0.431-0.026-0.7-0.35-0.961
	c-0.792-0.637-1.653-1.142-2.637-1.395c-0.296-0.076-0.587-0.584-0.95-0.03c0.041,0.054,0.105,0.138,0.217,0.285
	c-0.183-0.043-0.285-0.066-0.388-0.091c-0.006,0.039-0.026,0.084-0.013,0.102c0.07,0.089,0.144,0.176,0.226,0.253
	c0.452,0.427,0.448,0.461-0.139,0.668c0.215,0.241,0.418,0.47,0.687,0.771c-0.871-0.278-1.197-0.896-1.392-1.595
	c-0.22-0.789,0.504-1.51,1.312-1.34c0.018,0.004,0.05-0.006,0.054,0.002c0.424,0.826,1.418,0.638,2.028,1.139
	c0.231,0.189,0.504,0.327,0.854,0.402C67.537,85,67.238,84.664,66.91,84.295"/>
<path fill="#22211F" d="M58.276,81.885c0.007,1.468-0.72,2.049-1.864,1.494c-2.058-0.996-3.738-2.399-4.207-4.812
	c-0.229-1.18,0.427-1.782,1.564-1.372c1.991,0.716,3.406,2.107,4.341,3.988C58.239,81.444,58.249,81.764,58.276,81.885
	 M54.534,78.388c-0.044,0.04-0.088,0.08-0.132,0.119c0.959,0.887,1.919,1.773,2.662,2.459c-0.201-0.253-0.553-0.779-0.987-1.225
	C55.602,79.251,55.052,78.835,54.534,78.388 M56.928,82.571l0.157-0.165c-0.635-0.579-1.271-1.157-1.906-1.736
	c-0.064,0.074-0.128,0.148-0.192,0.221C55.634,81.451,56.281,82.011,56.928,82.571 M55.212,80.534
	c0.056-0.062,0.112-0.124,0.167-0.186c-0.401-0.341-0.802-0.683-1.203-1.023c-0.039,0.044-0.078,0.088-0.117,0.132
	C54.444,79.816,54.828,80.175,55.212,80.534"/>
<path fill="#22211F" d="M48.883,83.998c-1.083-0.152-2.09-0.334-3.002-0.889c-0.11-0.067-0.22-0.137-0.318-0.22
	c-0.84-0.722-0.843-1.222,0.017-1.896c0.998-0.784,2.122-1.137,3.388-0.852c0.899,0.203,1.8,0.409,2.681,0.678
	c0.624,0.191,1.029,0.643,1.009,1.342c-0.018,0.661-0.469,1.007-1.039,1.167C50.714,83.581,49.795,83.777,48.883,83.998
	 M47.501,82.653c1.503,0.465,2.923,0.189,4.328-0.477c-0.269-0.078-0.539-0.155-0.917-0.264c0.255-0.081,0.417-0.132,0.579-0.183
	l0.012-0.13c-0.687-0.161-1.375-0.321-2.031-0.473c0.257-0.021,0.561-0.046,0.865-0.072c-0.001,0.012-0.003,0.025-0.005,0.037
	h-3.326c-0.002,0.073-0.005,0.146-0.008,0.219h2.274c0.001,0.075,0.001,0.15,0.001,0.225h-1.252h-1.183
	c0.004,0.078,0.009,0.155,0.014,0.233h1.999c-0.002,0.064-0.003,0.129-0.004,0.193h-2.557c-0.003,0.067-0.006,0.134-0.009,0.201
	c1.069,0.152,2.139,0.304,3.208,0.457c0.001,0.011,0.003,0.022,0.004,0.034H47.501z"/>
<path fill="#22211F" d="M78.385,75.839c0.112,1.571-0.672,2.986-1.746,4.276c-0.492,0.591-0.784,0.641-1.253,0.06
	c-0.461-0.57-0.901-1.234-1.091-1.928c-0.396-1.448-0.301-2.912,0.449-4.266c0.499-0.9,1.296-1.275,2.144-1.052
	c0.926,0.244,1.455,0.928,1.495,1.942C78.394,75.131,78.385,75.391,78.385,75.839 M77.188,78.214
	c-0.112,0.315-0.223,0.631-0.334,0.946c1.082-1.098,1.476-3.766,0.747-4.633c0,0.53,0.051,1.032-0.012,1.519
	c-0.097,0.733-0.272,1.456-0.414,2.184v-3.793l0.076,0.001c-0.07,0.479-0.142,0.956-0.211,1.436
	c-0.043-0.001-0.084-0.001-0.127-0.001c-0.086-0.714-0.172-1.43-0.258-2.143c-0.028,0.004-0.058,0.008-0.087,0.013v1.546
	c-0.025,0.001-0.052,0.002-0.078,0.003c-0.03-0.356-0.062-0.713-0.093-1.068c-0.063-0.006-0.128-0.011-0.191-0.017
	c-0.171,0.443-0.341,0.887-0.511,1.33c-0.025-0.009-0.051-0.018-0.077-0.027l0.107-0.748c-0.263,0.38-0.465,0.783-0.592,1.207
	c-0.097,0.323-0.228,0.727-0.115,1.002c0.297,0.727,0.493,1.452,0.508,2.239c0.004,0.257,0.118,0.512,0.182,0.769
	c0.023-0.01,0.048-0.02,0.07-0.03c0.142-1.341,0.282-2.683,0.423-4.024c0.059,0.007,0.117,0.014,0.176,0.022
	c0.002,1.361-0.609,2.694-0.275,4.071c0.063,0.013,0.127,0.026,0.19,0.039c0.242-0.786,0.484-1.572,0.713-2.308
	C77.05,77.864,77.118,78.04,77.188,78.214 M74.974,78.912c-0.831-1.454-0.209-2.821,0.197-4.199
	C74.249,76.119,74.162,77.574,74.974,78.912"/>
<path fill="#22211F" d="M73.766,69.246c-0.292-0.081-0.538-0.149-0.911-0.252c0.163,0.191,0.243,0.285,0.343,0.403
	c-0.233-0.036-0.435-0.065-0.637-0.096c-0.01,0.034-0.021,0.068-0.032,0.102c0.446,0.195,0.892,0.391,1.338,0.586
	c-0.003,0.023-0.005,0.047-0.008,0.07c-0.172-0.019-0.344-0.037-0.517-0.056c-0.089,0.497,0.2,0.725,0.624,0.907
	c1.316,0.564,2.729,0.521,4.11,0.679c0.09,0.011,0.232-0.149,0.29-0.261c0.024-0.046-0.091-0.196-0.173-0.259
	c-0.093-0.072-0.22-0.1-0.314-0.219c0.259,0.035,0.516,0.07,0.773,0.106c0.01-0.029,0.021-0.058,0.03-0.085
	c-0.296-0.158-0.592-0.317-0.931-0.498c0.144-0.165,0.263-0.303,0.395-0.456c-0.211-0.185-0.394-0.343-0.618-0.54
	c0.729-0.043,1.681,0.823,1.882,1.629c0.11,0.445-0.273,0.999-0.891,1.268c-0.112,0.049-0.25,0.102-0.363,0.08
	c-1.179-0.22-2.354-0.453-3.529-0.683c0.061,0.44,0.061,0.44,1.269,0.81c-1.066,0.218-3.328-0.96-3.729-1.796
	c-0.271-0.568-0.214-1.265,0.233-1.746c0.579-0.625,1.284-0.928,2.15-0.778c0.539,0.094,1.08,0.179,1.616,0.41
	c-0.517,0.042-1.044,0.165-1.548,0.103C74.103,68.609,73.94,68.875,73.766,69.246"/>
<path fill="#22211F" d="M64.607,66.708c0.428,0.133,0.885,0.209,1.28,0.408c1.453,0.733,2.533,1.854,3.22,3.331
	c0.448,0.962,0.049,1.694-1.006,1.678c-1.366-0.021-2.624-0.438-3.615-1.463c-0.268-0.276-0.547-0.55-0.858-0.771
	c-0.656-0.468-0.922-1.083-0.714-1.771C63.181,67.234,63.76,66.771,64.607,66.708 M67.092,71.503
	c0.193-0.094,0.385-0.188,0.578-0.284c0.145,0,0.291,0.006,0.436-0.004c0.202-0.014,0.404-0.041,0.607-0.062
	c-0.042-0.164-0.068-0.335-0.131-0.491c-0.072-0.178-0.198-0.335-0.263-0.514c-0.202-0.563-0.438-1.065-1.143-1.136
	c-0.117-0.012-0.226-0.232-0.313-0.371c-0.541-0.874-2.113-1.297-2.973-0.771c-0.117,0.071-0.218,0.281-0.213,0.423
	c0.028,0.816,1.425,2.213,2.268,2.3c0.04,0.138,0.081,0.277,0.121,0.416c-0.118,0.015-0.237,0.031-0.355,0.046
	c-0.014,0.055-0.028,0.11-0.041,0.166c0.569,0.195,1.139,0.389,1.709,0.584c0.014-0.042,0.028-0.084,0.041-0.126
	C67.311,71.621,67.201,71.563,67.092,71.503"/>
<path fill="#22211F" d="M65.945,70.593c-0.035-0.074-0.071-0.148-0.095-0.199c0.556,0.165,1.123,0.323,1.679,0.513
	c0.074,0.024,0.096,0.205,0.141,0.313c-0.192,0.094-0.385,0.189-0.578,0.283c-0.342-0.164-0.683-0.329-1.025-0.494
	C66.026,70.871,65.986,70.732,65.945,70.593"/>
<path fill="#22211F" d="M61.295,76.795c2.921-1.759,6.515-1.864,9.925-1.851c4.775,0.02,9.55,0.173,14.322,0.327
	c0.912,0.029,1.877,0.075,2.638,0.577c1.479,0.978,1.527,3.166,2.673,4.519c0.794,0.938,2.021,1.368,3.203,1.703
	c1.182,0.334,2.421,0.633,3.375,1.405c0.955,0.772,1.525,2.187,0.927,3.259c-0.537,0.96-1.811,1.291-2.892,1.086
	c-1.08-0.206-2.026-0.829-2.972-1.39c-0.67-0.397-1.421-0.783-2.189-0.656c-0.768,0.128-1.424,1.031-1.02,1.696
	c1.53,0.2,2.771,1.701,2.68,3.241c-6.565,1.132-13.239-0.768-19.896-1.016c-1.56-0.057-3.14-0.027-4.649-0.421
	c-3.236-0.844-3.575-3.706-5.727-5.757C59.524,81.451,58.038,78.756,61.295,76.795"/>
<g>
</g>
<g>
</g>
<g>
</g>
<g>
</g>
<g>
</g>
<g>
</g>
</svg>
