<?xml version="1.0" encoding="utf-8"?>
<!-- Generator: Adobe Illustrator 16.0.0, SVG Export Plug-In . SVG Version: 6.00 Build 0)  -->
<!DOCTYPE svg PUBLIC "-//W3C//DTD SVG 1.1//EN" "http://www.w3.org/Graphics/SVG/1.1/DTD/svg11.dtd" [
	<!ENTITY ns_flows "http://ns.adobe.com/Flows/1.0/">
	<!ENTITY ns_extend "http://ns.adobe.com/Extensibility/1.0/">
	<!ENTITY ns_ai "http://ns.adobe.com/AdobeIllustrator/10.0/">
	<!ENTITY ns_graphs "http://ns.adobe.com/Graphs/1.0/">
]>
<svg version="1.1" id="Capa_1" xmlns:x="&ns_extend;" xmlns:i="&ns_ai;" xmlns:graph="&ns_graphs;"
	 xmlns="http://www.w3.org/2000/svg" xmlns:xlink="http://www.w3.org/1999/xlink" xmlns:a="http://ns.adobe.com/AdobeSVGViewerExtensions/3.0/"
	 x="0px" y="0px" width="184.251px" height="184.252px" viewBox="0 0 184.251 184.252" enable-background="new 0 0 184.251 184.252"
	 xml:space="preserve">
<path fill="#22211F" d="M107.751,149.76l-2.895-0.002v-0.555l-0.545-0.082c0.076-0.809-0.122-19.713-0.153-21.502
	c-0.043-2.48-0.076-7.086-0.115-12.42c-0.063-8.643-0.135-18.44-0.27-22.467l1.106-0.035c0.136,4.039,0.207,13.844,0.271,22.494
	c0.039,5.33,0.072,9.934,0.114,12.408c0.017,0.865,0.075,6.164,0.12,11.438c0.052,6,0.073,8.516,0.038,9.613h1.254
	c0.417-13.445,0.606-42.684,0.595-55.52l1.107-0.001c0.012,13.017-0.182,42.894-0.611,56.093L107.751,149.76z"/>
<path fill="#22211F" d="M131.941,117.688l-1.105-0.065c0.283-4.842-2.348-9.729-6.545-12.162c-1.117-0.647-2.378-1.158-3.598-1.652
	c-2.354-0.954-4.787-1.939-6.436-3.973c-2.125-2.623-2.309-6.139-2.319-9.815l-0.016-5.92l1.108-0.004l0.016,5.921
	c0.009,3.471,0.175,6.779,2.072,9.12c1.468,1.812,3.665,2.7,5.99,3.644c1.256,0.508,2.554,1.035,3.737,1.721
	C129.397,107.139,132.249,112.438,131.941,117.688"/>
<path fill="#22211F" d="M81.835,112.314l-1.057-0.332c0.727-2.321,2.54-4.332,5.544-6.145c0.811-0.49,1.655-0.943,2.473-1.382
	c1.501-0.806,3.055-1.64,4.386-2.704c5.404-4.322,6.532-11.751,5.787-17.262l1.099-0.147c0.787,5.811-0.427,13.666-6.193,18.276
	c-1.41,1.128-3.009,1.985-4.555,2.813c-0.804,0.432-1.636,0.879-2.422,1.354C84.133,108.454,82.479,110.262,81.835,112.314"/>
<path fill="#22211F" d="M107.698,93.161h-0.017c-1.11-0.002-2.231-0.088-3.332-0.253c-0.559-0.085-1.199-0.208-1.73-0.607
	c-0.837-0.631-1.08-1.675-1.207-2.613c-0.274-2.014-0.29-4.106-0.307-6.131c-0.032-4.066-0.063-7.907-1.992-11.197
	c-1.451-2.474-3.855-4.296-6.179-6.059c-0.347-0.263-0.693-0.526-1.035-0.79c-0.281-0.216-0.567-0.433-0.855-0.652
	c-2.477-1.877-5.286-4.006-6.095-7.15c-0.416-1.614-0.501-4.586-0.547-6.182c-0.01-0.308-0.017-0.556-0.024-0.718l1.107-0.053
	c0.008,0.168,0.015,0.423,0.024,0.74c0.041,1.441,0.128,4.442,0.514,5.937c0.712,2.771,3.242,4.688,5.69,6.543
	c0.29,0.221,0.579,0.439,0.861,0.657c0.341,0.263,0.684,0.524,1.028,0.785c2.411,1.827,4.903,3.718,6.466,6.382
	c2.08,3.545,2.112,7.715,2.145,11.748c0.015,1.989,0.032,4.047,0.296,5.991c0.098,0.712,0.265,1.491,0.776,1.876
	c0.323,0.244,0.784,0.33,1.229,0.396c1.046,0.158,2.113,0.239,3.17,0.242c0.268-0.003,0.551-0.009,0.696-0.123
	c0.113-0.087,0.199-0.282,0.277-0.473c1.218-2.978,1.498-6.304,1.769-9.523c0.071-0.835,0.141-1.669,0.227-2.497
	c0.387-3.747,1.239-8.463,4.432-11.706c0.918-0.934,1.986-1.691,3.019-2.424c0.618-0.439,1.258-0.892,1.846-1.372
	c3.725-3.035,6.045-7.714,6.207-12.517l1.106,0.038c-0.172,5.118-2.644,10.104-6.612,13.339c-0.617,0.502-1.272,0.967-1.904,1.416
	c-1.039,0.737-2.021,1.433-2.871,2.297c-2.95,2.998-3.751,7.476-4.119,11.042c-0.085,0.822-0.155,1.649-0.225,2.477
	c-0.277,3.301-0.565,6.716-1.848,9.85c-0.129,0.314-0.294,0.673-0.622,0.927C108.642,93.131,108.138,93.161,107.698,93.161"/>
<path fill="#22211F" d="M103.726,28.215l-0.669-5.2c-0.102-0.796-0.208-1.61-0.391-2.382c-0.749-3.153-2.865-6.129-6.467-9.097
	l0.705-0.854c3.796,3.126,6.032,6.297,6.84,9.695c0.196,0.828,0.306,1.672,0.412,2.488l0.67,5.208L103.726,28.215z"/>
<path fill="#22211F" d="M103.009,33.413c-0.166,0-0.323-0.015-0.468-0.028c-0.112-0.011-0.227-0.022-0.338-0.023l0.018-1.109
	c0.14,0.002,0.283,0.015,0.426,0.029c0.26,0.025,0.506,0.048,0.655-0.027c0.188-0.093,0.288-0.413,0.224-0.713
	c-0.083-0.388-0.364-0.755-0.636-1.11c-0.937-1.222-2.776-2.165-4.557-3.077c-1.889-0.968-3.843-1.968-4.93-3.389
	c-1.072-1.4-2.181-2.848-3.065-4.434c-0.942-1.693-1.617-3.534-2.153-5.113l1.05-0.356c0.519,1.531,1.172,3.314,2.072,4.929
	c0.845,1.517,1.929,2.932,2.977,4.3c0.935,1.222,2.776,2.165,4.555,3.077c1.89,0.968,3.844,1.968,4.932,3.39
	c0.313,0.41,0.704,0.92,0.84,1.55c0.149,0.69-0.083,1.578-0.815,1.94C103.532,33.377,103.262,33.413,103.009,33.413"/>
<path fill="#22211F" d="M109.874,57.666l-0.009-16.144c-0.001-2.072-0.002-4.215-0.555-6.219c-0.843-3.055-3.016-5.521-5.669-6.434
	l0.36-1.048c2.995,1.03,5.438,3.784,6.376,7.188c0.593,2.148,0.594,4.367,0.595,6.512l0.01,16.144L109.874,57.666z"/>
<path fill="#22211F" d="M106.24,79.562c-1.324,0-6.214-0.355-7.189-2.378c-0.25-0.519-0.352-1.363,0.579-2.441
	c1.575-1.822,5.84-1.487,8.389-1.286c0.265,0.02,0.505,0.039,0.712,0.053c0.703,0.046,1.335,0.102,1.963,0.322
	c1.428,0.499,2.522,1.841,2.723,3.342c0.023,0.172,0.093,0.696-0.25,1.091c-0.259,0.301-0.627,0.377-0.847,0.421
	c-1.91,0.392-3.888,0.794-5.892,0.874C106.376,79.561,106.315,79.562,106.24,79.562 M104.829,74.408
	c-1.789,0-3.628,0.212-4.36,1.059c-0.651,0.754-0.477,1.117-0.42,1.236c0.589,1.222,4.689,1.811,6.335,1.749
	c1.914-0.077,3.847-0.471,5.714-0.854c0.053-0.011,0.188-0.038,0.233-0.064c-0.005-0.004,0.006-0.067-0.013-0.215
	c-0.146-1.096-0.947-2.078-1.991-2.442c-0.496-0.174-1.05-0.221-1.67-0.262c-0.211-0.014-0.455-0.033-0.726-0.055
	C107.131,74.498,105.991,74.408,104.829,74.408"/>
<path fill="#22211F" d="M109.773,85.637c-0.253,0-0.503-0.004-0.752-0.008c-3.343-0.057-7.132-0.121-10.421-1.711
	c-0.204-0.099-0.437-0.222-0.624-0.436c-0.289-0.33-0.506-0.883-0.125-1.745c0-0.058,0.005-0.117,0.015-0.177
	c0.05-0.307,0.211-0.543,0.372-0.725c-0.001-0.013-0.002-0.027-0.003-0.042c-0.02-0.213-0.046-0.507,0.081-0.829
	c0.106-0.272,0.171-0.629,0.03-0.814c-0.037-0.049-0.104-0.107-0.175-0.168c-0.113-0.098-0.254-0.221-0.37-0.389
	c-0.494-0.721-0.217-1.668,0.759-2.598l0.764,0.803c-0.424,0.404-0.776,0.922-0.607,1.168c0.035,0.051,0.105,0.113,0.182,0.179
	c0.105,0.091,0.225,0.195,0.331,0.335c0.277,0.365,0.366,0.857,0.263,1.396c0.299-0.154,0.613-0.275,0.941-0.359l0.277,1.072
	c-0.521,0.135-1,0.391-1.401,0.745c-0.032,0.12-0.085,0.245-0.17,0.369c-0.038,0.056-0.074,0.112-0.107,0.166
	c0.087,0.093,0.253,0.208,0.493,0.306c2.17,0.887,4.662,0.868,6.869,0.857c1.031-0.006,2.063-0.014,3.093-0.024
	c0.578-0.005,1.175-0.009,1.683-0.21c0.384-0.152,0.789-0.495,0.829-0.916c0.024-0.265,0.096-1.015-0.009-1.204
	c0.027,0.049,0.109,0.093,0.174,0.096l-0.155-1.094c0.045-0.007,0.089-0.012,0.133-0.013c0.729-0.047,1.502,0.262,2.062,0.849
	c0.588,0.614,0.864,1.438,0.741,2.203c-0.252,1.562-1.777,2.442-3.008,2.721C111.212,85.603,110.487,85.637,109.773,85.637
	 M102.409,84.002c2.203,0.443,4.511,0.483,6.63,0.519c0.889,0.017,1.805,0.03,2.652-0.162c0.964-0.218,2.005-0.865,2.159-1.816
	c0.068-0.425-0.1-0.896-0.448-1.261c-0.078-0.082-0.162-0.155-0.25-0.218c0.004,0.283-0.019,0.59-0.049,0.904
	c-0.076,0.8-0.674,1.523-1.526,1.86c-0.698,0.276-1.433,0.283-2.079,0.289c-1.032,0.01-2.065,0.018-3.098,0.023
	C105.135,84.148,103.772,84.157,102.409,84.002"/>
<path fill="#22211F" d="M103.108,55.34l-1.075-0.27c0.679-2.714,1.316-5.478,1.891-8.215c1.058-5.025,1.982-10.784-0.444-15.516
	c-1.018-1.979-0.498-2.863,0.117-3.257l0.597,0.935c-0.462,0.295,0.091,1.465,0.271,1.816c2.594,5.054,1.641,11.038,0.544,16.251
	C104.43,49.835,103.791,52.613,103.108,55.34"/>
<path fill="#22211F" d="M65.255,58.316c-0.143,0-0.284-0.006-0.429-0.017c-1.482-0.123-2.799-0.904-4.019-1.694
	c-3.553-2.298-7.74-5.535-8.592-10.22l1.091-0.198c0.774,4.266,4.737,7.311,8.103,9.488c1.148,0.742,2.28,1.417,3.508,1.519
	c1.643,0.139,3.232-0.774,4.719-1.716c4.422-2.804,8.679-5.951,12.653-9.356c0.471-0.402,0.937-0.809,1.404-1.215
	c0.988-0.861,2.011-1.752,3.053-2.591c0.729-0.584,1.544-1.263,2.412-1.984c5.75-4.781,10.349-8.403,12.897-8.015l-0.169,1.096
	c-2.23-0.345-8.13,4.538-12.02,7.771c-0.873,0.726-1.693,1.408-2.426,1.996c-1.026,0.826-2.04,1.709-3.021,2.563
	c-0.47,0.408-0.938,0.817-1.41,1.221c-4.016,3.439-8.316,6.618-12.781,9.45C68.704,57.381,67.069,58.316,65.255,58.316"/>
<path fill="#22211F" d="M110.236,57.951c-1.6,0-3.138-0.552-4.504-1.042l-16.241-5.831c-3.054-1.096-3.596-2.582-3.513-3.636
	l0.024-0.301l0.267-0.143c5.376-2.884,12.076-6.478,19.071-6.039l-0.068,1.106c-6.573-0.406-12.979,2.961-18.181,5.75
	c0.145,1.055,1.559,1.784,2.773,2.22l16.242,5.83c1.411,0.507,2.872,1.024,4.352,0.973c1.96-0.076,3.789-1.177,5.403-2.148
	l7.193-4.329c0.622-0.373,2.032-1.346,1.706-2.292c-0.181-0.529-0.849-0.844-1.461-1.097c-4.146-1.716-8.465-3.1-12.836-4.112
	l0.25-1.081c4.431,1.028,8.808,2.43,13.01,4.169c0.897,0.371,1.771,0.842,2.086,1.762c0.419,1.222-0.355,2.501-2.183,3.601
	l-7.193,4.328c-1.644,0.989-3.688,2.219-5.933,2.307C110.413,57.949,110.324,57.951,110.236,57.951"/>
<path fill="#22211F" d="M113.997,82.488c-0.084-0.995-0.195-1.868-0.704-2.455l-0.07-0.079c-0.148-0.164-0.353-0.39-0.424-0.716
	c-0.069-0.316,0.018-0.602,0.081-0.809l0.038-0.129c0.111-0.431-0.046-0.938-0.383-1.228l0.724-0.838
	c0.656,0.565,0.949,1.508,0.731,2.346c-0.016,0.058-0.033,0.115-0.051,0.173c-0.023,0.078-0.064,0.21-0.058,0.25
	c0.011,0.039,0.105,0.144,0.163,0.207l0.087,0.098c0.785,0.908,0.892,2.167,0.969,3.087L113.997,82.488z"/>
<path fill="#22211F" d="M124.632,105.58l-0.426-2.941c-0.142-0.977-0.287-1.986-0.737-2.836c-0.462-0.874-1.251-1.574-1.954-2.164
	c-0.334-0.279-0.664-0.546-1.027-0.727c-0.805-0.402-1.819-0.391-2.72-0.385c-0.705,0.006-1.434,0.012-2.084,0.211
	c-0.655,0.199-1.15,0.59-1.358,1.07l-1.017-0.441c0.337-0.777,1.084-1.394,2.05-1.688c0.805-0.247,1.652-0.254,2.399-0.261
	c0.971-0.01,2.181-0.02,3.225,0.502c0.471,0.234,0.873,0.559,1.245,0.869c0.783,0.656,1.665,1.445,2.221,2.494
	c0.539,1.021,0.706,2.176,0.854,3.197l0.425,2.939L124.632,105.58z"/>
<path fill="#22211F" d="M127.505,108.189c-0.137-0.922-0.234-1.872-0.328-2.791c-0.304-2.959-0.618-6.018-2.259-8.4
	c-1.562-2.268-4.354-3.811-7.472-4.129c-0.273-0.029-0.549-0.048-0.824-0.068c-0.768-0.055-1.562-0.111-2.336-0.346
	c-1.03-0.313-2.241-1.106-2.552-2.397l1.078-0.258c0.2,0.835,1.059,1.371,1.794,1.594c0.657,0.199,1.355,0.249,2.094,0.301
	c0.287,0.02,0.574,0.041,0.859,0.07c3.438,0.352,6.528,2.073,8.271,4.604c1.802,2.615,2.131,5.818,2.447,8.916
	c0.094,0.907,0.19,1.846,0.322,2.744L127.505,108.189z"/>
<path fill="#22211F" d="M111,60.965c-1.306,0-2.599-0.449-3.749-0.895c-2.337-0.908-4.191-1.493-5.985-2.06
	c-2.366-0.746-4.601-1.451-7.646-2.796c-0.989-0.438-1.929-0.83-2.813-1.2c-2.74-1.144-4.905-2.048-6.552-3.405
	c-0.518-0.427-1.112-1.253-1.196-1.945c-0.122-1.002,0.544-1.899,1.98-2.666c3.017-1.612,5.407-2.579,8.435-3.803l1.022-0.415
	c1.171-0.475,2.382-0.966,3.68-1.178c1.018-0.168,2.048-0.154,3.045-0.144c1.274,0.015,2.478,0.03,3.621-0.305l0.311,1.063
	c-1.302,0.38-2.645,0.367-3.945,0.35c-0.991-0.011-1.931-0.024-2.852,0.128c-1.175,0.192-2.328,0.661-3.442,1.113l-1.024,0.414
	c-2.996,1.212-5.363,2.169-8.328,3.753c-0.681,0.364-1.479,0.93-1.402,1.555c0.04,0.321,0.429,0.916,0.802,1.224
	c1.521,1.252,3.617,2.128,6.273,3.238c0.891,0.372,1.837,0.767,2.834,1.207c2.99,1.322,5.196,2.018,7.532,2.754
	c1.81,0.572,3.682,1.162,6.053,2.082c1.402,0.545,2.888,1.048,4.273,0.716c0.742-0.178,1.443-0.601,2.12-1.01l11.733-7.083
	c1.421-0.859,2.061-1.675,1.897-2.427c-0.155-0.718-1-1.163-1.891-1.536c-4.949-2.072-10.016-4.063-15.06-5.914l0.382-1.04
	c5.06,1.856,10.142,3.853,15.106,5.933c0.729,0.305,2.245,0.94,2.546,2.322c0.272,1.266-0.537,2.48-2.409,3.611l-11.732,7.083
	c-0.715,0.431-1.525,0.92-2.435,1.139C111.792,60.924,111.395,60.965,111,60.965"/>
<polygon fill="#22211F" points="80.498,165.043 80.498,111.695 81.606,111.695 81.606,163.926 81.741,163.926 81.749,165.033 "/>
<rect x="130.927" y="116.959" fill="#22211F" width="1.108" height="46.422"/>
<path fill="#22211F" d="M88.714,173.57c-1.439,0-2.931-0.551-4.529-1.666c-1.562-1.092-2.828-2.777-3.568-4.745
	c-0.432-1.151-0.546-2.083-0.357-2.933l1.082,0.24c-0.14,0.631-0.041,1.362,0.313,2.303c0.661,1.76,1.785,3.261,3.166,4.226
	c1.749,1.222,3.248,1.664,4.72,1.39l0.101-0.008h33.943c2.06,0,3.507-1.59,4.93-3.361c1.378-1.715,2.16-3.873,2.203-6.072
	l1.108,0.021c-0.047,2.443-0.916,4.84-2.447,6.746c-1.535,1.909-3.246,3.773-5.794,3.773H89.692
	C89.368,173.541,89.042,173.57,88.714,173.57"/>
<g>
</g>
<g>
</g>
<g>
</g>
<g>
</g>
<g>
</g>
<g>
</g>
</svg>
