<?xml version="1.0" encoding="utf-8"?>
<!-- Generator: Adobe Illustrator 16.0.0, SVG Export Plug-In . SVG Version: 6.00 Build 0)  -->
<!DOCTYPE svg PUBLIC "-//W3C//DTD SVG 1.1//EN" "http://www.w3.org/Graphics/SVG/1.1/DTD/svg11.dtd" [
	<!ENTITY ns_flows "http://ns.adobe.com/Flows/1.0/">
	<!ENTITY ns_extend "http://ns.adobe.com/Extensibility/1.0/">
	<!ENTITY ns_ai "http://ns.adobe.com/AdobeIllustrator/10.0/">
	<!ENTITY ns_graphs "http://ns.adobe.com/Graphs/1.0/">
]>
<svg version="1.1" id="Capa_1" xmlns:x="&ns_extend;" xmlns:i="&ns_ai;" xmlns:graph="&ns_graphs;"
	 xmlns="http://www.w3.org/2000/svg" xmlns:xlink="http://www.w3.org/1999/xlink" xmlns:a="http://ns.adobe.com/AdobeSVGViewerExtensions/3.0/"
	 x="0px" y="0px" width="184.252px" height="184.251px" viewBox="0 0 184.252 184.251" enable-background="new 0 0 184.252 184.251"
	 xml:space="preserve">
<path fill="#22211F" d="M44.699,108.523c-5.625-3.832-7.553-13.174-7.495-20.009c0.13-15.143,3.19-30.182,6.15-44.726
	c1.078-5.3,2.27-11.022,3.423-16.557c1.15-5.526,2.341-11.241,3.418-16.531l1.085,0.221c-1.077,5.294-2.267,11.01-3.418,16.538
	c-1.153,5.533-2.344,11.254-3.423,16.551C41.49,58.5,38.441,73.486,38.313,88.522c-0.056,6.563,1.746,15.499,7.011,19.084
	L44.699,108.523z"/>
<path fill="#22211F" d="M60.734,91.192l-1.107-0.056c1.358-26.631,3.159-53.604,5.353-80.172l1.105,0.092
	C63.893,37.613,62.091,64.574,60.734,91.192"/>
<path fill="#22211F" d="M47.471,76.311l-1.1-0.135l1.65-13.384c0.658-5.347,1.339-10.877,2.415-16.277
	c0.214-1.074,0.444-2.146,0.674-3.218c0.459-2.134,0.933-4.341,1.264-6.528c0.445-2.941,0.655-5.992,0.858-8.94
	c0.382-5.542,0.777-11.273,2.746-16.583l1.039,0.385c-1.913,5.16-2.302,10.81-2.678,16.274c-0.206,2.972-0.417,6.045-0.87,9.031
	c-0.335,2.221-0.813,4.444-1.275,6.596c-0.229,1.065-0.458,2.133-0.671,3.202c-1.068,5.359-1.746,10.868-2.402,16.195L47.471,76.311
	z"/>
<path fill="#22211F" d="M75.113,103.375l-1.106-0.073c0.821-12.457,1.669-25.337,0.847-37.993l-0.077-1.142
	c-0.138-1.993-0.279-4.054-0.198-6.099c0.058-1.429,0.225-2.863,0.387-4.25c0.09-0.771,0.18-1.542,0.251-2.314
	c0.287-3.076,0.286-6.233,0.284-9.287l-0.016-30.668l1.109-0.001l0.015,30.669c0.002,3.079,0.004,6.262-0.288,9.39
	c-0.073,0.781-0.164,1.56-0.254,2.339c-0.16,1.367-0.325,2.78-0.38,4.167c-0.079,1.983,0.06,4.014,0.196,5.979l0.077,1.146
	C76.787,77.964,75.936,90.882,75.113,103.375"/>
<path fill="#22211F" d="M90.191,106.542c-0.775-4.496-0.712-9.119-0.65-13.59c0.052-3.787,0.106-7.703-0.355-11.497
	c-0.189-1.557-0.47-3.135-0.741-4.662c-0.294-1.651-0.598-3.358-0.79-5.06c-0.334-2.953-0.341-5.962-0.348-8.871
	c-0.004-1.525-0.008-3.102-0.059-4.647c-0.083-2.502-0.294-5.046-0.498-7.507c-0.169-2.043-0.345-4.157-0.446-6.244
	c-0.175-3.585-0.142-7.246-0.111-10.787c0.067-7.422,0.136-15.097-1.726-22.34l1.074-0.276c1.898,7.384,1.828,15.132,1.761,22.625
	c-0.032,3.526-0.065,7.17,0.109,10.725c0.101,2.068,0.275,4.172,0.444,6.206c0.205,2.474,0.417,5.033,0.5,7.562
	c0.052,1.563,0.056,3.148,0.06,4.682c0.007,2.879,0.014,5.856,0.341,8.748c0.189,1.668,0.489,3.357,0.78,4.991
	c0.275,1.541,0.558,3.135,0.751,4.723c0.469,3.867,0.415,7.821,0.362,11.646c-0.061,4.42-0.124,8.992,0.634,13.387L90.191,106.542z"
	/>
<path fill="#22211F" d="M107.856,88.071c-1.377-4.377-1.825-9.005-2.259-13.48c-0.199-2.056-0.405-4.181-0.698-6.247
	c-0.44-3.11-1.103-6.246-1.743-9.279c-0.699-3.309-1.422-6.731-1.865-10.152c-0.344-2.646-0.526-5.343-0.703-7.952
	c-0.182-2.678-0.37-5.445-0.731-8.14c-0.331-2.476-0.819-4.977-1.292-7.396l-2.908-14.876l1.088-0.213l2.904,14.86
	c0.479,2.452,0.971,4.97,1.307,7.478c0.365,2.73,0.556,5.517,0.738,8.211c0.176,2.593,0.358,5.274,0.697,7.885
	c0.438,3.377,1.156,6.778,1.85,10.066c0.645,3.051,1.311,6.205,1.758,9.352c0.295,2.091,0.502,4.229,0.703,6.296
	c0.428,4.418,0.871,8.987,2.213,13.254L107.856,88.071z"/>
<path fill="#22211F" d="M120.355,69.457c-4.496-19.309-8.938-38.93-13.204-58.316l1.082-0.238
	c4.266,19.383,8.707,38.999,13.2,58.304L120.355,69.457z"/>
<path fill="#22211F" d="M116.534,111.849l-0.625-0.916c3.981-2.713,8.756-8.051,11.108-12.418c1.168-2.17,2.576-5.061,3.094-8.179
	c0.359-2.167,0.289-4.424,0.223-6.606l-0.244-7.869c-0.09-2.93-0.186-5.955-0.475-8.908c-0.53-5.423-1.742-10.839-2.914-16.075
	l-5.688-25.424c-1.125-5.029-2.288-10.229-4.856-14.775l0.966-0.546c2.647,4.689,3.83,9.971,4.972,15.079l5.688,25.423
	c1.181,5.27,2.399,10.719,2.938,16.21c0.293,2.99,0.389,6.034,0.479,8.977l0.244,7.873c0.069,2.236,0.141,4.548-0.236,6.822
	c-0.544,3.279-2.002,6.278-3.212,8.524C125.527,103.617,120.709,109.002,116.534,111.849"/>
<path fill="#22211F" d="M44.348,108.285c-3.971-1.985-10.29-7.096-13.369-11.541c-3.129-4.516-3.949-9.005-2.658-14.557
	c1.251-5.383,5.748-11.289,10.694-14.043l0.539,0.968c-4.697,2.615-8.967,8.22-10.154,13.326c-1.23,5.292-0.485,9.381,2.49,13.675
	c2.983,4.305,9.106,9.256,12.954,11.18L44.348,108.285z"/>
<path fill="#22211F" d="M118.143,111.327l-0.516-0.979c2.74-1.443,6.566-3.926,9.941-6.113c1.669-1.082,3.245-2.104,4.551-2.911
	c1.764-1.089,3.465-2.183,4.893-3.573c3.992-3.888,5.605-10.151,4.111-15.957c-1.359-5.282-5.748-10.659-11.18-13.697l0.542-0.968
	c5.683,3.18,10.278,8.828,11.711,14.389c1.591,6.184-0.14,12.868-4.411,17.026c-1.509,1.471-3.266,2.6-5.084,3.723
	c-1.296,0.802-2.865,1.82-4.529,2.898C124.776,107.366,120.928,109.861,118.143,111.327"/>
<path fill="#22211F" d="M82.96,116.533c-9.565,0-19.829-1.26-30-4.709c-23.018-7.811-32.835-19.527-29.177-34.828
	c2.071-8.661,15.62-14.892,16.196-15.154l0.458,1.01C40.3,62.914,26.806,69.12,24.861,77.254
	c-1.432,5.985-0.794,11.192,1.949,15.917c4.129,7.113,13.047,13.035,26.506,17.602c10.052,3.41,20.204,4.656,29.661,4.656
	c24.826,0.002,44.897-8.572,46.046-9.072c6.503-2.832,14.49-8.647,17.406-16.475c1.668-4.479,1.437-9.001-0.69-13.441
	c-4.392-9.163-16.409-14.641-16.528-14.693l0.437-1.018c0.122,0.052,12.528,5.71,17.091,15.232c2.263,4.722,2.508,9.535,0.73,14.307
	c-3.037,8.153-11.291,14.181-18.002,17.104C128.305,107.878,108.036,116.533,82.96,116.533"/>
<path fill="#22211F" d="M24.961,92.955c-0.322-0.299-7.908-7.411-9.174-14.439c-0.522-2.903,0.158-5.774,1.968-8.304
	c2.549-3.561,7.1-6.073,12.488-6.889c0.308-0.046,7.52-1.113,9.18-1.251l0.092,1.104c-1.625,0.136-9.033,1.232-9.108,1.243
	c-5.092,0.771-9.375,3.119-11.751,6.438c-1.631,2.279-2.246,4.86-1.777,7.463c1.2,6.668,8.76,13.751,8.836,13.823L24.961,92.955z"/>
<path fill="#22211F" d="M22.858,85.587c-0.212-0.223-5.172-5.53-4.159-10.738c1.045-5.376,7.867-9.022,12.389-9.588
	c3.201-0.4,3.713-0.5,3.794-0.521l0.138,0.526l0.016-0.002v-0.561l0.575,0.524c0.037,0.581,0.037,0.581-4.385,1.134
	c-4.083,0.51-10.507,3.902-11.44,8.699c-0.903,4.646,3.829,9.716,3.877,9.766L22.858,85.587z"/>
<path fill="#22211F" d="M138.422,111.613c-0.51,0-1.017-0.129-1.453-0.404c-1.254-0.787-1.67-2.582-0.891-3.842
	c0.646-1.041,1.98-1.449,3.576-1.088l0.102,0.033c0.04,0.018,0.395,0.18,0.69,0.434c1.139,0.975,1.321,2.307,0.489,3.563
	C140.38,111.143,139.393,111.613,138.422,111.613 M138.555,107.261c-0.549,0-1.191,0.137-1.533,0.689
	c-0.455,0.733-0.193,1.86,0.537,2.319c0.764,0.479,1.934,0.206,2.453-0.575c0.516-0.777,0.416-1.506-0.287-2.109
	c-0.121-0.102-0.283-0.193-0.373-0.238C139.174,107.31,138.881,107.261,138.555,107.261"/>
<path fill="#22211F" d="M164.637,99.326l-1.066-0.298c0.342-1.228-0.08-2.647-0.421-3.788c-0.618-2.076-1.317-4.431-2.892-6.061
	c-1.154-1.195-2.709-1.946-4.215-2.671c-2.605-1.258-5.354-2.412-7.803-1.509l-0.384-1.04c2.857-1.052,5.849,0.19,8.669,1.551
	c1.518,0.732,3.238,1.561,4.529,2.899c1.761,1.825,2.503,4.317,3.158,6.515C164.593,96.201,165.065,97.791,164.637,99.326"/>
<path fill="#22211F" d="M132.729,116.835c-1.118,0-1.978-0.252-2.604-0.758c-0.729-0.59-1.119-1.508-1.158-2.729
	c-0.106-3.325,3.187-8.422,6.403-8.771c2.83-0.307,5.709-0.192,8.492-0.082c2.613,0.104,5.316,0.211,7.94-0.035
	c4.913-0.465,10.853-2.771,12.791-7.857c1.56-4.098-0.019-9.275-3.838-12.592c-3.158-2.742-7.749-4.344-13.279-4.632l0.058-1.107
	c5.778,0.302,10.603,1.998,13.947,4.902c0.783,0.681,1.479,1.434,2.081,2.237l0.384-0.399c4.271,4.11,5.838,10.868,3.81,16.437
	c-2.027,5.569-7.572,9.74-13.485,10.141c-1.533,0.104-3.083-0.021-4.58-0.145c-2.121-0.174-4.123-0.336-6.093,0.096
	c-1.245,0.273-2.735,1.369-4.178,2.428c-1.604,1.178-3.263,2.396-4.812,2.678C133.914,116.773,133.289,116.835,132.729,116.835
	 M139.471,105.488c-1.334,0-2.667,0.049-3.98,0.191c-2.615,0.283-5.504,4.861-5.414,7.633c0.028,0.898,0.272,1.521,0.746,1.904
	c0.666,0.537,1.873,0.652,3.588,0.34c1.297-0.236,2.852-1.377,4.354-2.48c1.535-1.129,3.123-2.295,4.597-2.617
	c2.131-0.467,4.312-0.291,6.42-0.119c1.457,0.119,2.963,0.244,4.414,0.145c5.49-0.373,10.637-4.244,12.521-9.414
	c1.494-4.105,0.885-8.906-1.415-12.62c1.169,2.811,1.345,5.881,0.33,8.547c-2.119,5.561-8.479,8.07-13.723,8.566
	c-2.697,0.254-5.44,0.145-8.09,0.039C142.386,105.546,140.928,105.488,139.471,105.488"/>
<path fill="#22211F" d="M141.192,104.591l-1.073-0.277c0.661-2.555,1.439-5.109,2.316-7.592l1.047,0.368
	C142.615,99.543,141.846,102.068,141.192,104.591"/>
<path fill="#22211F" d="M84.62,174.117c-3.5,0-7.13-0.208-10.859-0.663c-12.065-1.472-20.063-5.843-24.647-9.249
	c-5.166-3.84-7.638-7.635-7.953-8.582c-0.204-0.609-0.298-1.451-0.467-2.979c-0.329-2.961-0.942-8.473-3.153-19.533
	c-3.279-16.395-10.437-36.848-10.509-37.053l1.046-0.367c0.072,0.205,7.255,20.73,10.549,37.203
	c2.222,11.107,2.838,16.65,3.168,19.629c0.156,1.404,0.25,2.25,0.417,2.748c0.602,1.808,9.642,14.395,31.683,17.082
	c22.138,2.699,40.72-3.354,48.617-10.123c6.006-4.742,6.178-10.319,6.178-10.939c0-2.295,5.068-28.055,7.783-37.014l1.061,0.322
	c-2.859,9.437-7.734,34.742-7.734,36.691c0,3.044-1.725,7.959-6.584,11.797C116.495,168.847,102.213,174.117,84.62,174.117"/>
<g>
</g>
<g>
</g>
<g>
</g>
<g>
</g>
<g>
</g>
<g>
</g>
</svg>
