<?xml version="1.0" encoding="utf-8"?>
<!-- Generator: Adobe Illustrator 16.0.0, SVG Export Plug-In . SVG Version: 6.00 Build 0)  -->
<!DOCTYPE svg PUBLIC "-//W3C//DTD SVG 1.1//EN" "http://www.w3.org/Graphics/SVG/1.1/DTD/svg11.dtd" [
	<!ENTITY ns_flows "http://ns.adobe.com/Flows/1.0/">
	<!ENTITY ns_extend "http://ns.adobe.com/Extensibility/1.0/">
	<!ENTITY ns_ai "http://ns.adobe.com/AdobeIllustrator/10.0/">
	<!ENTITY ns_graphs "http://ns.adobe.com/Graphs/1.0/">
]>
<svg version="1.1" id="Capa_1" xmlns:x="&ns_extend;" xmlns:i="&ns_ai;" xmlns:graph="&ns_graphs;"
	 xmlns="http://www.w3.org/2000/svg" xmlns:xlink="http://www.w3.org/1999/xlink" xmlns:a="http://ns.adobe.com/AdobeSVGViewerExtensions/3.0/"
	 x="0px" y="0px" width="184.252px" height="184.252px" viewBox="0 0 184.252 184.252" enable-background="new 0 0 184.252 184.252"
	 xml:space="preserve">
<path fill="#FFFFFF" d="M83.568,54.705c0-0.819-0.128-1.817,0.02-2.773c1.564-10.185,3.213-20.357,4.752-30.548
	c0.604-3.995-0.036-5.211-3.659-6.728c-1.514-0.634-3.265-0.82-4.925-0.917c-0.555-0.033-1.357,0.729-1.704,1.328
	c-0.526,0.908-0.921,1.962-1.084,3c-1.847,11.762-3.674,23.527-5.422,35.304c-0.428,2.887-1.399,5.322-3.249,7.705
	c-2.025,2.607-3.584,5.71-4.731,8.824c-0.901,2.45-0.81,5.254-1.263,7.883c-0.804,4.681,0.941,7.107,5.622,7.156
	c2.624,0.027,2.731,1.324,2.397,3.275c-0.359,2.099-0.514,4.242-0.99,6.312c-1.103,4.786-0.078,10.042-3.196,14.396
	c-0.384,0.537-0.518,1.354-0.522,2.043c-0.074,10.511-0.206,21.023-0.106,31.531c0.046,4.791,2.283,7.315,7.104,7.69
	c3.316,0.259,6.707-0.446,10.084-0.724c0.181,2.986,0.491,6.551,0.587,10.119c0.081,3.082,1.773,4.944,4.245,6.336
	c3.854,2.168,7.854,1.851,11.88,0.609c5.251-1.617,6.777-3.684,6.778-9.066c0-1.693,0-3.387,0-4.682
	c3.157,0.438,6.188,1.16,9.229,1.213c5.436,0.092,8.576-3.277,8.576-8.688c0.001-9.441,0.016-18.883-0.021-28.324
	c-0.005-1.141-0.156-2.324-0.488-3.412c-0.636-2.089-1.81-4.07-2.124-6.191c-0.897-6.078-1.469-12.205-2.186-18.312
	c-0.274-2.333-0.173-4.185,2.638-5.223c3.494-1.289,4.917-4.474,4.798-7.96c-0.13-3.804-0.664-7.632-1.442-11.363
	c-0.573-2.745-2.236-5.284-2.673-8.033c-0.715-4.493-0.89-9.077-1.181-13.631c-0.589-9.207-0.993-18.427-1.719-27.623
	c-0.205-2.597-1.05-5.21-2.024-7.647c-0.42-1.047-1.804-2.087-2.948-2.4c-5.488-1.5-9.872,2.936-9.03,8.486
	c1.107,7.302,1.765,14.671,2.625,22.01c0.662,5.659,1.294,11.323,2.021,16.974c0.438,3.407-0.17,6.499-2.352,9.467
	c-1.482-1.828-2.754-3.693-4.33-5.249c-1.293-1.276-2.89-2.988-4.453-3.1c-4.063-0.293-8.618-1.523-11.432,2.86
	C86.216,55.949,84.962,55.36,83.568,54.705"/>
<path fill="#FFFFFF" d="M122.045,172.948c4.101-0.555,6.336-2.459,5.618-5.106c-0.996-3.672-4.35-5.838-8.147-5.259
	c-2.332,0.355-3.628,2.029-4.168,4.014c-0.284,1.049,0.137,2.916,0.92,3.5C117.96,171.36,120.092,172.032,122.045,172.948"/>
<path fill="#FFFFFF" d="M91.084,169.192c-0.92,0.344-2.704,0.506-3.633,1.484c-1.246,1.313-2.249,3.189-2.524,4.955
	c-0.143,0.911,1.298,2.59,2.396,3.076c3.265,1.445,6.307,0.348,8.87-1.878c0.706-0.612,1.303-1.831,1.257-2.737
	C97.321,171.516,94.266,169.094,91.084,169.192"/>
<path fill="#FFFFFF" d="M62.018,170.245c3.181,0.004,6.882-2.514,6.937-4.721c0.072-2.916-2.334-4.986-5.606-5.156
	c-4.863-0.254-6.469,2.932-6.862,5.914C56.162,168.739,58.478,170.241,62.018,170.245"/>
<path fill="#22211F" d="M83.567,54.705c1.394,0.655,2.647,1.244,4.103,1.928c2.813-4.383,7.368-3.152,11.433-2.86
	c1.563,0.112,3.16,1.825,4.452,3.102c1.576,1.556,2.848,3.42,4.331,5.248c2.181-2.968,2.79-6.06,2.351-9.466
	c-0.727-5.651-1.359-11.315-2.021-16.974c-0.859-7.339-1.519-14.708-2.625-22.01c-0.842-5.55,3.543-9.986,9.03-8.485
	c1.146,0.313,2.528,1.353,2.947,2.399c0.976,2.437,1.821,5.051,2.026,7.646c0.725,9.196,1.13,18.417,1.718,27.624
	c0.292,4.553,0.466,9.138,1.18,13.63c0.438,2.749,2.101,5.288,2.673,8.033c0.778,3.731,1.313,7.56,1.443,11.363
	c0.119,3.486-1.304,6.671-4.798,7.96c-2.812,1.038-2.912,2.89-2.638,5.223c0.718,6.107,1.288,12.234,2.187,18.314
	c0.313,2.119,1.487,4.1,2.124,6.189c0.331,1.088,0.482,2.271,0.487,3.412c0.038,9.441,0.021,18.883,0.021,28.324
	c0,5.41-3.139,8.779-8.576,8.687c-3.042-0.052-6.072-0.774-9.228-1.212c0,1.295,0,2.988,0,4.682
	c-0.001,5.383-1.529,7.448-6.78,9.067c-4.025,1.239-8.025,1.558-11.878-0.61c-2.473-1.392-4.164-3.254-4.247-6.334
	c-0.095-3.57-0.405-7.135-0.587-10.121c-3.375,0.276-6.766,0.982-10.082,0.725c-4.823-0.375-7.06-2.9-7.104-7.691
	c-0.101-10.509,0.031-21.02,0.105-31.531c0.005-0.688,0.139-1.506,0.522-2.043c2.427-5.685,2.949-9.397,4.052-14.185
	c0.477-2.069-0.226-4.425,0.135-6.524c0.333-1.951,0.227-3.248-2.398-3.275c-4.68-0.048-6.425-2.475-5.62-7.155
	c0.452-2.63,0.36-5.434,1.263-7.884c1.146-3.114,2.706-6.216,4.73-8.824c1.851-2.383,2.82-4.818,3.25-7.705
	c1.746-11.777,3.573-23.542,5.42-35.304c0.164-1.037,0.559-2.092,1.086-3c0.347-0.597,1.147-1.361,1.703-1.328
	c1.66,0.097,3.411,0.284,4.925,0.917c3.623,1.517,4.263,2.733,3.659,6.728c-1.538,10.19-3.187,20.363-4.753,30.548
	C83.44,52.888,83.567,53.886,83.567,54.705 M90.559,61.235l-0.063-0.054c1.193,1.771,2.388,3.542,3.48,5.164
	c1.577-0.819,3.253-1.688,5.271-2.736c2.851,4.797,5.546,9.335,8.129,13.683c0.571-3.001-0.423-7.407-2.279-9.728
	c-1.17-1.462-2.271-2.979-3.457-4.428c-2.034-2.485-3.94-5.118-6.263-7.303c-0.838-0.789-2.9-0.959-4.071-0.521
	c-1.188,0.444-2.381,1.862-2.754,3.101C88.347,59.091,89.833,60.278,90.559,61.235 M90.387,88.498
	c-0.849,7.588-1.667,15.18-2.566,22.764c-0.238,2.008-0.595,4.021-1.127,5.969c-0.761,2.787-2.434,5.503-2.491,8.273
	c-0.227,11.131,0,22.273,0.102,33.41c0.03,3.412,2.104,5.393,5.058,6.564c4.175,1.654,8.284,0.889,12.113-0.979
	c2.314-1.131,3.612-3.107,3.565-6.084c-0.168-10.599-0.124-21.201-0.032-31.802c0.028-3.39-0.327-6.552-2.331-9.431
	c-0.576-0.825-0.799-1.991-0.91-3.031c-0.94-8.753-1.816-17.514-2.688-26.041C95.188,89.988,92.813,89.613,90.387,88.498
	 M117.911,86.272c-2.226,1.148-4.054,2.278-6.021,3.06c-2.239,0.889-2.715,2.552-3.057,4.699
	c-1.019,6.421,0.528,14.673-3.231,20.619c-0.345,0.544-0.347,1.397-0.29,2.088c0.315,3.804,0.734,6.194,0.826,10
	c0.168,7.003,0.177,14.017-0.022,21.019c-0.071,2.483,1.075,3.904,3.047,4.352c2.485,0.563,5.189,0.939,7.669,0.557
	c3.443-0.533,6.197-2.828,6.033-7.181c-0.297-7.894-0.084-15.808-0.083-23.712c0.001-4.273,0.571-8.655-2.419-12.352
	c-0.202-0.25-0.226-0.672-0.261-1.021C119.376,101.137,118.661,93.874,117.911,86.272 M71.547,87.396
	c-0.481,3.318-0.992,6.868-1.514,10.417c-0.426,2.896-0.22,6.107-1.45,8.611c-1.823,3.709-2.322,7.436-2.315,11.381
	c0.012,7.547,0.229,15.102,0.023,22.644c-0.166,6.073,2.25,7.931,7.374,8.946c1.636,0.322,3.512-0.229,5.213-0.643
	c3.989-0.965,3.974-1.029,3.976-4.963c0-1.078-0.02-2.158,0.003-3.236c0.163-7.854-0.565-15.783,2.033-23.43
	c0.135-0.398,0.049-0.893-0.018-1.33c-0.517-3.4-0.81-5.931-2.671-9.916c-0.346-0.432-0.343-1.178-0.416-1.789
	c-0.574-4.804-1.127-9.611-1.707-14.589C76.563,91.988,72.438,88.113,71.547,87.396 M118.659,56.141
	c-0.102-0.013-0.204-0.026-0.307-0.039c-0.159-3.033-0.241-6.073-0.491-9.099c-0.659-7.999-1.354-15.996-2.108-23.987
	c-0.477-5.052-1.019-10.102-1.728-15.126c-0.084-0.591-1.499-1.529-2.151-1.421c-4.894,0.808-5.799,2.606-5.079,7.56
	c1.075,7.394,1.768,14.844,2.631,22.27c0.493,4.242,0.989,8.485,1.511,12.724c0.614,5,1.159,9.967-2.278,14.342
	c-0.464,0.592-0.841,1.477-0.804,2.202c0.265,5.14,0.438,10.3,1.067,15.4c0.405,3.279,1.822,4.104,4.929,3.968
	c2.88-0.125,4.218-1.351,4.555-4.527c0.148-1.402,0.03-2.877-0.233-4.269c-0.88-4.644-2.027-9.249-0.797-14.019
	C117.885,60.147,118.236,58.135,118.659,56.141 M68.331,83.792c0.316-0.383,1.35-1.067,1.479-1.894
	c0.538-3.432,1.07-6.906,1.096-10.368c0.156-1.418,2.313-4.93,4.031-7.918c1.392-2.419,1.896-6.609,2.422-9.305
	c1.1-5.659,1.591-11.435,2.422-17.15c0.97-6.677,2.082-13.334,2.986-20.02c0.09-0.667-0.748-1.994-1.308-2.085
	c-0.796-0.129-1.825,0.472-2.57,1.016c-0.419,0.306-0.565,1.105-0.665,1.71c-1.667,10.167-3.389,20.327-4.922,30.514
	c-0.834,5.532-0.766,11.291-5.759,15.285c-0.894,0.715-1.485,2.065-1.772,3.232c-1.016,4.123-1.94,8.275-2.693,12.453
	C62.625,81.778,64.725,83.752,68.331,83.792 M84.074,15.945c-2.068,14.387-4.122,28.672-6.26,43.545
	c0.982-1.173,1.566-2.305,2.496-2.881c1.469-0.91,1.879-2,2.083-3.687c0.637-5.279,1.646-10.512,2.42-15.776
	c0.839-5.71,1.567-11.437,2.36-17.155C87.467,17.881,86.637,16.552,84.074,15.945 M119.479,58.743
	c-1.669,4.736-1.927,9.571-0.727,14.427c0.909,3.675,1.512,7.289-0.329,11.005c3.88-1.28,7.113-3.403,6.904-7.412
	c-0.284-5.448-1.542-10.849-2.464-16.257C122.537,58.593,121.23,58.152,119.479,58.743 M87.16,108.114
	c1.652-16.501,0.621-22.055,0.621-22.055c-0.786,0.889-1.548,1.749-2.357,2.664c-1.606-1.469-3.099-2.834-4.591-4.199
	c-0.258,0.139-0.516,0.275-0.773,0.413c0.969,5.125,1.727,10.193,2.551,15.33c0.171,1.068,0.363,2.137,0.696,3.166
	c0.485,1.511,1.269,2.922,1.638,4.465c0.407,1.703,0.274,3.451,0.364,5.184c0.118,2.283,1.081,1.93,1.309-0.109 M103.229,115.775
	c4.529-7.581,3.708-16.255,4.916-24.852c-4.242,1.694-5.913-1.041-8.058-3.826C101.148,96.79,102.21,106.481,103.229,115.775
	 M77.18,85.559c0.372,0.152,0.744,0.304,1.117,0.456c0.246-0.288,0.683-0.558,0.713-0.867c0.232-2.42,1.51-2.058,2.905-1.079
	c1.214,0.851,2.327,1.846,4.159,3.319c0.583-2.45,1.064-4.471,1.55-6.515c-1.032-0.177-1.782-0.306-2.613-0.448
	c0.188-1.946-1.128-4.293,2.379-4.53c-0.251-1.642,0.002-3.939-0.788-4.384c-2.027-1.141-1.162-2.495-1.004-3.854
	c0.133-1.146,0.42-2.274,0.639-3.41c-0.15-0.037-0.3-0.075-0.45-0.112C82.917,71.277,80.049,78.418,77.18,85.559 M77.758,62.77
	c1.363,0.457,2.492,0.742,3.529,1.226c0.475,0.221,1.139,0.893,1.079,1.256c-0.281,1.709-0.656,3.426-1.233,5.056
	c-1.002,2.822-2.177,5.581-3.278,8.367l0.666,0.247c1.59-3.854,3.248-7.683,4.746-11.572c0.925-2.402,1.423-5.077,5.065-5.118
	c-0.947-0.502-1.775-0.315-2.461-0.549c-0.881-0.3-2.08-0.762-2.363-1.467c-0.459-1.149-0.006-2.331,1.66-2.335
	c0.355,0,0.71-0.101,1.289-0.19c-2.274-1.835-4.076-2.043-5.554,0.062c-3.007,4.283-5.571,8.879-8.272,13.373
	c-0.312,0.516-0.338,1.203-0.687,2.552C74.105,69.622,75.883,66.286,77.758,62.77 M96.666,54.914
	c3.307,4.225,6.438,8.226,9.488,12.127c1.943-3.451-0.069-5.536-2.142-7.753C102.044,57.184,100.735,54.215,96.666,54.914
	 M102.188,85.042c-0.213,2.861,1.582,5.634,3.715,5.117c3.046-0.739,5.929-2.145,8.882-3.267l-0.338-1.104
	c-2.137,0.268-4.42,0.148-6.38,0.886C104.22,88.12,104.293,88.317,102.188,85.042 M92.224,75.938
	c0.977,0.188,1.972,0.376,3.006,0.574c0.098,0.993,0.184,1.866,0.274,2.793c0.978,0.225,1.877,0.432,2.779,0.639
	c0.086-0.365,0.206-0.566,0.151-0.688c-0.985-2.18-2.126-4.302-2.951-6.54c-0.638-1.727-1.572-2.184-3.26-1.483V75.938z
	 M117.922,17.434c0.492-0.267,0.423-0.851,0.432-2.007c0.01-1.265-0.08-2.542-0.36-3.779c-0.437-1.92-0.492-4.847-2.955-4.375
	c0.938,3.18,0.268,6.726,1.146,9.979c0.027,0.103,0.06,0.212,0.141,0.282c0.103,0.091,0.253,0.094,0.39,0.092
	C117.303,17.618,117.68,17.563,117.922,17.434 M76.238,88.7c1.006-3.638-1.04-6.428-4.278-6.334
	c-0.437,0.013-1.163,0.439-1.22,0.767c-0.088,0.505,0.12,1.283,0.495,1.608C72.783,86.083,74.441,87.298,76.238,88.7 M89.735,82.597
	c3.344,1.525,6.95,1.09,8.629-1.038C95.108,79.961,91.595,80.384,89.735,82.597 M94.375,78.124
	c-0.139-0.226-0.276-0.449-0.415-0.674c-2.319,0-4.642-0.04-6.959,0.039c-0.38,0.013-0.743,0.546-1.113,0.839
	c0.377,0.376,0.736,1.055,1.134,1.078c1.97,0.114,3.957,0.144,5.923-0.005C93.45,79.363,93.899,78.57,94.375,78.124 M117.813,27.613
	c0.195-0.043,1.119-0.238,1.236-0.344c0.803-0.72,0.114-2.709-0.005-3.596c-0.151-1.137-0.305-2.275-0.457-3.413
	c-0.204-1.522-1.899-1.462-1.899-0.272c0,0.125,0.159,4.504,0.25,6.25C116.976,26.962,117.032,27.787,117.813,27.613
	 M119.682,39.804c-0.366,0.082-0.732,0.164-1.099,0.245c0.264,2.988-0.736,6.224,1.464,8.832l0.763-0.129
	C120.434,45.769,120.058,42.787,119.682,39.804 M118.001,28.986c-0.29,0.139-0.476,0.391-0.407,0.796
	c0.451,2.684,0.068,5.328,0.84,7.986c0.04,0.138,0.089,0.286,0.205,0.37c0.093,0.066,0.212,0.08,0.324,0.092
	c0.291,0.032,0.543,0.078,0.827,0.023c0.015-0.674-0.657-9.372-0.561-9.35C118.848,28.814,118.35,28.819,118.001,28.986
	 M119.939,57.378c0.271-0.05,0.543-0.099,0.813-0.148c1.048-4.049,0.604-6.096-1.829-7.034
	C119.279,52.705,119.609,55.042,119.939,57.378 M88.478,76.464c1.021-0.338,2.234-0.467,2.3-0.811
	c0.237-1.268,0.094-2.608,0.094-4.139c-0.938,0.068-1.662,0.121-2.394,0.174V76.464z M89.677,86.16
	c3.884,2.012,7.158,1.755,9.976-0.882c-1.888,0.432-3.367,0.938-4.879,1.07C93.233,86.483,91.66,86.251,89.677,86.16"/>
<path fill="#22211F" d="M122.046,172.948c-1.953-0.914-4.085-1.588-5.778-2.852c-0.784-0.584-1.204-2.451-0.919-3.501
	c0.539-1.983,1.836-3.657,4.167-4.013c3.797-0.58,7.152,1.586,8.148,5.258C128.382,170.489,126.146,172.395,122.046,172.948
	 M120.809,163.081c-2.246,0.158-2.871,1.033-3.411,2.476c0.894,0.972,1.66,2.55,2.712,2.771c1.545,0.326,3.313-0.242,4.936-0.637
	c0.237-0.057,0.504-1.652,0.235-1.859C124.016,164.86,122.568,164.125,120.809,163.081"/>
<path fill="#22211F" d="M91.084,169.192c3.182-0.098,6.238,2.324,6.366,4.9c0.046,0.906-0.551,2.125-1.257,2.738
	c-2.563,2.225-5.605,3.322-8.869,1.877c-1.101-0.486-2.54-2.166-2.397-3.076c0.275-1.766,1.278-3.643,2.525-4.955
	C88.379,169.699,90.165,169.536,91.084,169.192 M89.723,175.772c1.272-0.291,2.014-0.252,2.444-0.6
	c1.087-0.879,3.042-2.252,2.85-2.854c-0.594-1.861-2.496-2.387-4.407-1.809c-1.646,0.496-3.961,0.738-3.641,3.07
	C87.096,174.506,88.948,175.194,89.723,175.772"/>
<path fill="#22211F" d="M62.018,170.245c-3.54-0.004-5.855-1.506-5.531-3.963c0.392-2.981,1.999-6.168,6.861-5.914
	c3.273,0.17,5.68,2.24,5.606,5.156C68.899,167.731,65.198,170.249,62.018,170.245 M61.732,167.03
	c1.848-0.982,3.334-1.65,4.647-2.564c0.294-0.204,0.138-1.803-0.073-1.864c-1.541-0.452-3.244-1.133-4.709-0.831
	c-1.181,0.242-2.099,1.758-3.134,2.709C58.563,166.614,60.188,167.364,61.732,167.03"/>
<path fill="#FFFFFF" d="M84.074,15.944c2.563,0.607,3.393,1.937,3.1,4.046c-0.793,5.718-1.521,11.445-2.36,17.155
	c-0.773,5.265-1.783,10.497-2.42,15.776c-0.204,1.687-0.956,2.316-2.083,3.688c-0.694,0.844-1.514,1.707-2.496,2.88
	C79.952,44.617,82.006,30.332,84.074,15.944"/>
<path fill="#FFFFFF" d="M119.483,58.743c1.746-0.592,3.055-0.151,3.38,1.763c0.922,5.407,2.182,10.809,2.466,16.256
	c0.208,4.01-3.025,6.132-6.905,7.412c1.841-3.716,1.238-7.33,0.329-11.005C117.553,68.314,117.81,63.479,119.483,58.743"/>
<path fill="#FFFFFF" d="M103.229,115.776c-1.018-9.295-2.08-18.988-3.142-28.679c2.145,2.785,3.815,5.519,8.058,3.826
	C106.936,99.52,107.757,108.194,103.229,115.776"/>
<path fill="#FFFFFF" d="M90.559,61.234c-0.725-0.957-2.213-2.144-2.009-2.821c0.373-1.238,1.566-2.656,2.754-3.101
	c1.172-0.438,3.235-0.268,4.073,0.521c2.321,2.185,4.227,4.818,6.262,7.303c1.186,1.449,2.287,2.966,3.456,4.428
	c1.857,2.32,2.852,6.727,2.28,9.728c-2.582-4.348-5.278-8.886-8.129-13.684c-2.018,1.048-3.694,1.918-5.271,2.736
	c-1.094-1.622-2.287-3.393-3.482-5.165c0.781-0.065,1.777,0.139,2.288-0.267c0.555-0.441,0.95-1.488,0.858-2.198
	c-0.067-0.511-1.048-1.263-1.617-1.26c-0.707,0.004-1.878,0.562-2.006,1.085C89.82,59.347,90.342,60.328,90.559,61.234"/>
<path fill="#FFFFFF" d="M77.179,85.559c2.869-7.141,5.738-14.283,8.608-21.424c0.149,0.037,0.3,0.075,0.45,0.112
	c-0.22,1.136-0.508,2.264-0.641,3.41c-0.158,1.358-1.021,2.713,1.004,3.853c0.79,0.445,0.538,2.742,0.789,4.384
	c-3.508,0.236-2.191,2.585-2.379,4.53c0.83,0.143,1.581,0.271,2.614,0.448c-0.487,2.045-0.968,4.065-1.551,6.516
	c-1.831-1.474-2.945-2.469-4.159-3.32c-1.396-0.979-2.673-1.341-2.906,1.079c-0.029,0.309-0.465,0.579-0.713,0.867
	C77.924,85.862,77.551,85.711,77.179,85.559"/>
<path fill="#FFFFFF" d="M77.758,62.77c-1.874,3.516-3.653,6.852-5.814,10.906c0.351-1.348,0.376-2.035,0.687-2.552
	c2.702-4.493,5.266-9.09,8.274-13.373c1.477-2.103,3.278-1.896,5.553-0.061c-0.579,0.089-0.934,0.19-1.288,0.191
	c-1.666,0.003-2.121,1.185-1.66,2.334c0.282,0.705,1.481,1.168,2.362,1.467c0.685,0.234,1.513,0.047,2.462,0.55
	c-3.645,0.04-4.142,2.715-5.066,5.117c-1.499,3.89-3.156,7.718-4.746,11.573l-0.666-0.248c1.103-2.785,2.277-5.545,3.277-8.366
	c0.578-1.631,0.953-3.348,1.233-5.057c0.061-0.363-0.604-1.035-1.077-1.256C80.251,63.512,79.122,63.227,77.758,62.77"/>
<path fill="#FFFFFF" d="M96.667,54.913c4.067-0.698,5.378,2.271,7.346,4.375c2.072,2.216,4.085,4.301,2.142,7.752
	C103.104,63.141,99.973,59.14,96.667,54.913"/>
<path fill="#FFFFFF" d="M102.188,85.042c2.105,3.276,2.032,3.078,5.878,1.632c1.961-0.738,4.244-0.619,6.381-0.887l0.338,1.106
	c-2.953,1.121-5.837,2.527-8.882,3.266C103.77,90.676,101.975,87.902,102.188,85.042"/>
<path fill="#FFFFFF" d="M92.223,75.939v-4.705c1.689-0.701,2.622-0.244,3.26,1.482c0.826,2.238,1.967,4.359,2.952,6.54
	c0.056,0.121-0.065,0.322-0.151,0.688c-0.902-0.208-1.803-0.415-2.779-0.64c-0.091-0.926-0.177-1.799-0.273-2.793
	C94.195,76.315,93.201,76.126,92.223,75.939"/>
<path fill="#FFFFFF" d="M76.239,88.699c-1.798-1.401-3.455-2.617-5.003-3.958c-0.375-0.326-0.584-1.104-0.496-1.608
	c0.057-0.329,0.782-0.755,1.22-0.769C75.198,82.271,77.245,85.062,76.239,88.699"/>
<path fill="#FFFFFF" d="M89.735,82.597c1.859-2.213,5.373-2.636,8.629-1.039C96.685,83.688,93.079,84.121,89.735,82.597"/>
<path fill="#FFFFFF" d="M94.375,78.124c-0.475,0.446-0.924,1.239-1.431,1.277c-1.966,0.149-3.952,0.119-5.923,0.005
	c-0.397-0.023-0.757-0.701-1.134-1.078c0.37-0.292,0.733-0.826,1.113-0.839c2.318-0.078,4.639-0.039,6.959-0.039
	C94.099,77.675,94.237,77.898,94.375,78.124"/>
<path fill="#FFFFFF" d="M88.478,76.464v-4.776c0.731-0.053,1.455-0.105,2.394-0.174c0,1.531,0.144,2.871-0.094,4.139
	C90.713,75.997,89.498,76.126,88.478,76.464"/>
<path fill="#FFFFFF" d="M89.677,86.16c1.983,0.091,3.557,0.323,5.097,0.188c1.512-0.132,2.991-0.638,4.879-1.07
	C96.835,87.915,93.561,88.172,89.677,86.16"/>
<path fill="#FFFFFF" d="M89.723,175.772c-0.774-0.578-2.627-1.266-2.754-2.191c-0.32-2.332,1.995-2.574,3.641-3.07
	c1.911-0.578,3.813-0.053,4.407,1.809c0.192,0.602-1.763,1.975-2.85,2.854C91.736,175.52,90.995,175.481,89.723,175.772"/>
<path fill="#22211F" d="M114.951,80.188c-0.132,1.017-1.063,1.976-2.272,1.965c-1.31-0.012-1.714-1.534-1.576-2.549
	c0.188-1.382,1.749-1.958,2.92-1.243C114.778,78.821,115.038,79.518,114.951,80.188"/>
<path fill="#22211F" d="M114.773,70.808c-0.023,0.145-0.069,0.284-0.138,0.415c-1.421,2.697-5.703,0.166-3.957-2.073
	c0.323-0.415,0.887-0.558,1.412-0.582c0.743-0.033,1.526,0.139,2.082,0.636C114.615,69.6,114.867,70.234,114.773,70.808"/>
<path fill="#22211F" d="M67.38,73.326c-0.464-0.004-0.916-0.279-1.198-0.657c-1.068-1.434-0.15-3.15,1.595-3.318
	c0.852-0.082,1.306,0.969,1.225,1.616c-0.06,0.483-0.123,0.974-0.329,1.415c-0.206,0.44-0.583,0.829-1.06,0.923
	C67.535,73.32,67.457,73.327,67.38,73.326"/>
<path fill="#22211F" d="M90.563,60.613c-0.217-0.907-0.742-1.266-0.546-2.073c0.127-0.524,1.299-1.082,2.005-1.085
	c0.57-0.003,1.551,0.748,1.617,1.26c0.092,0.71-0.303,1.757-0.857,2.198c-0.511,0.406-0.438,0.135-1.219,0.2L90.563,60.613z"/>
<g>
</g>
<g>
</g>
<g>
</g>
<g>
</g>
<g>
</g>
<g>
</g>
</svg>
