<?xml version="1.0" encoding="utf-8"?>
<!-- Generator: Adobe Illustrator 16.0.0, SVG Export Plug-In . SVG Version: 6.00 Build 0)  -->
<!DOCTYPE svg PUBLIC "-//W3C//DTD SVG 1.1//EN" "http://www.w3.org/Graphics/SVG/1.1/DTD/svg11.dtd" [
	<!ENTITY ns_flows "http://ns.adobe.com/Flows/1.0/">
	<!ENTITY ns_extend "http://ns.adobe.com/Extensibility/1.0/">
	<!ENTITY ns_ai "http://ns.adobe.com/AdobeIllustrator/10.0/">
	<!ENTITY ns_graphs "http://ns.adobe.com/Graphs/1.0/">
]>
<svg version="1.1" id="Capa_1" xmlns:x="&ns_extend;" xmlns:i="&ns_ai;" xmlns:graph="&ns_graphs;"
	 xmlns="http://www.w3.org/2000/svg" xmlns:xlink="http://www.w3.org/1999/xlink" xmlns:a="http://ns.adobe.com/AdobeSVGViewerExtensions/3.0/"
	 x="0px" y="0px" width="70.773px" height="74.333px" viewBox="0 0 70.773 74.333" enable-background="new 0 0 70.773 74.333"
	 xml:space="preserve">
<path fill="#FFFFFF" d="M42.555,14.126c-0.146-1.813-0.693-3.383-1.878-4.681C39.421,8.068,37.867,7.23,36,7.122
	c-1.322-0.076-2.651-0.014-4.085-0.014c0-1.081,0.024-2.063-0.008-3.043c-0.019-0.575-0.064-1.164-0.205-1.72
	C31.37,1.04,30.367,0.407,29.176,0H13.352c-2.204,0.941-2.741,1.763-2.741,4.203c-0.001,0.918,0,1.835,0,2.866
	c-1.051,0-2.058,0.016-3.064-0.004C6.114,7.037,4.766,7.322,3.53,8.071c-2.163,1.312-3.289,3.26-3.517,5.754
	c-0.02,0.217-0.01,0.436-0.01,0.653c0,4.02,0.002,8.04,0.002,12.059l0.109-0.044l-0.092,0.235l-0.017-0.017
	C0.003,40.126,0,53.541,0.008,66.955c0.002,3.022,1.331,5.313,4.064,6.645c0.842,0.41,1.843,0.691,2.772,0.697
	c9.605,0.049,19.21,0.041,28.815,0.024c3.484-0.007,6.439-2.866,6.847-6.549c0.016-0.142,0.033-0.284,0.059-0.49h2.086l-0.062-0.106
	h0.327v0.106h13.051l-0.049-0.106l-0.047-0.327l0.234,0.187l0.062,0.247h12.606V14.126H42.555z M1.752,23.127l0.234,0.14
	l0.093,0.374l-0.046,0.234l-0.235-0.14l-0.046-0.281V23.127z M2.033,26.822v0.373l-0.328-0.046l-0.046-0.327H2.033z M1.705,45.531
	l0.141-0.141l0.093,0.328h-0.28L1.705,45.531z M2.033,62.042H1.846v-0.142h0.187V62.042z M1.939,31.593l-0.093-0.187l0.281,0.093
	L1.939,31.593z M6.149,19.151l0.233,0.093v0.234l-0.233,0.094V19.151z M6.149,21.208v-0.233l0.14,0.187l0.141,1.263l-0.235-0.141
	l-0.094-0.233L6.149,21.208z M6.149,24.483l0.281-0.094l-0.048,0.374l-0.14,0.234l-0.187-0.186L6.149,24.483z M6.242,25.699
	l-0.047-0.234l0.141-0.281l0.14,0.187v0.235L6.242,25.699z M6.43,30.096l-0.235-0.234l-0.046-0.281l0.093-0.327l0.14,0.139
	L6.43,30.096z M6.336,35.615v0.281H6.149l-0.094-0.281H6.336z M6.382,58.066L6.149,58.16v-0.515l0.233,0.094V58.066z M6.43,61.012
	v0.28l-0.188-0.187l-0.047-0.28l0.047-0.234L6.43,61.012z M4.09,19.852l0.141,0.188l0.047,0.327H3.997l-0.046-0.281L4.09,19.852z
	 M4.09,27.43v-0.188l0.188,0.281L4.09,27.43z M4.184,31.685l0.094,0.235l-0.094,0.093V31.685z M4.325,33.463l0.046,0.281
	l-0.093-0.188l-0.281-0.093l0.093-0.327L4.325,33.463z M4.231,27.944l-0.047-0.233l0.235,0.046l-0.048,0.374L4.231,27.944z
	 M4.184,21.63v-0.235l0.141,0.094l0.046,0.234L4.184,21.63z M4.044,55.073l-0.047-0.28l0.234,0.092l0.047,0.281L4.044,55.073z
	 M4.184,40.058l0.094-0.28l0.093,0.187v0.328L4.184,40.058z M4.231,60.216l-0.047-0.232l0.235,0.188L4.231,60.216z M4.184,58.207
	L4.09,58.018h0.281l0.048,0.235L4.184,58.207z M4.419,56.708l-0.141,0.188L4.09,56.664l0.094-0.563l0.187-0.188l0.094,0.234
	L4.419,56.708z M4.325,36.317l-0.328,0.374l0.141-1.076l-0.141-0.749l0.281-0.094l0.187,0.889L4.325,36.317z M4.465,18.262
	l-0.281,0.094L4.09,18.075l0.188-0.233l0.187,0.187V18.262z M6.009,51.237l0.046-0.233l0.187,0.14l-0.047,0.235l-0.28,0.045
	L6.009,51.237z M6.149,66.626v-0.328l0.093,0.233L6.149,66.626z M6.43,64.24l-0.188-0.094v-0.279l0.094-0.189l0.187,0.281
	L6.43,64.24z M6.476,32.668l-0.14-0.374l0.094-0.187l0.14,0.234L6.476,32.668z M6.43,23.36l-0.188-0.093l-0.093-0.234v-0.281
	l0.281,0.047l0.187,0.141L6.43,23.36z M19.994,26.12v-0.141l0.14,0.235L19.994,26.12z M20.134,28.131v0.234L19.9,28.458v-0.421
	L20.134,28.131z M20.04,18.636l-0.093-0.28l0.047-0.562v-0.281l0.281,0.749l-0.048,0.515L20.04,18.636z M20.227,21.069l-0.233,0.139
	v-0.327L20.227,21.069z M19.9,16.391v-0.375l0.187,0.141l0.047,0.234H19.9z M19.9,12.509l0.187,0.141l-0.093,0.28l-0.187-0.141
	L19.9,12.509z M19.853,32.013l0.047-0.328l0.14,0.141l0.047,0.375L19.853,32.013z M20.134,32.809l-0.047,0.608l-0.093,0.233
	l-0.141-0.233v-0.281l0.047-0.327H20.134z M18.404,16.438v0.28l-0.235,0.094v-0.327l0.094-0.188L18.404,16.438z M17.935,14.193
	l-0.046,0.561l-0.281-0.42l0.094-0.843l0.046-0.327l0.421,0.514L17.935,14.193z M17.983,50.395l-0.235-0.047l-0.046-0.28
	l0.094-0.281l0.046-0.234l0.141,0.281l-0.094,0.28L17.983,50.395z M17.889,50.769v0.421l-0.187-0.187L17.889,50.769z M17.889,44.548
	l-0.187-0.141l-0.047-0.232V43.94l0.234,0.095l0.094,0.233L17.889,44.548z M17.842,18.449l0.047-0.281l0.14,0.14l0.046,0.235
	L17.842,18.449z M18.075,19.291l-0.186-0.094V18.87l0.14,0.14L18.075,19.291z M17.983,19.852l-0.094,0.327l-0.141-0.139v-0.281
	L17.983,19.852z M17.748,16.532l-0.14-0.187v-0.281l0.047-0.375l0.141,0.235L17.748,16.532z M17.796,21.162l0.139,0.233
	l-0.093,1.732l0.233,1.122l-0.046,0.514l-0.14,0.234l-0.187-0.186l0.14-0.936l-0.094,0.093l-0.187-2.666v-0.28L17.796,21.162z
	 M18.075,36.317l-0.14-0.141l0.048-0.186L18.075,36.317z M17.889,28.879l-0.234-0.233l0.093-0.281v-0.608l0.094-0.327l0.141,0.187
	v1.029L17.889,28.879z M17.748,29.674h-0.187v-0.327h0.187V29.674z M17.748,33.369l0.187,0.235l-0.187,0.467l-0.093-0.186
	l-0.094-0.235L17.748,33.369z M17.842,42.302l0.093,0.234l-0.093,0.608l-0.234-0.515l-0.047-0.328H17.842z M17.889,37.86
	l-0.047-0.328h0.233v0.328H17.889z M18.123,41.602l-0.048,0.187l-0.092-0.373L18.123,41.602z M17.983,5.914h-0.235l0.094-0.234
	h0.141V5.914z M17.748,3.763l0.141,0.093l-0.047,0.187L17.655,3.95L17.748,3.763z M17.655,12.369l0.234-0.233v0.466l-0.187,0.141
	l-0.235-0.093L17.655,12.369z M15.597,46.419l0.047-0.328l0.141,0.188L15.597,46.419z M15.737,53.341l-0.093,0.234l-0.14-0.141
	v-0.654l0.093-0.234L15.737,53.341z M15.597,43.567l-0.141-0.235v-0.935l0.048-0.28l0.093,0.28l-0.093,0.327l0.233,0.563
	L15.597,43.567z M15.644,39.684l0.187-0.14v0.42L15.644,39.684z M15.456,37.766l0.048-0.234l0.14,0.14v0.235l-0.234,0.046
	L15.456,37.766z M15.363,30.891l0.141-0.187l0.14,0.234l-0.047,0.561l-0.187-0.28L15.363,30.891z M15.504,29.347l0.093-0.187
	l0.234-0.188L15.504,29.347z M15.504,14.754v-0.281l0.187,0.094l0.094,0.281l-0.141,0.233l-0.188-0.093L15.504,14.754z
	 M15.831,18.449l-0.187-0.093l-0.047-0.234l0.047-0.28l0.141,0.233L15.831,18.449z M15.504,17.327l0.187,0.186l-0.047,0.235
	l-0.234-0.141L15.504,17.327z M15.456,19.057l0.048-0.28l0.187,0.28l-0.094,0.328l-0.187-0.094L15.456,19.057z M15.55,22.705
	l0.047-0.28l0.14,0.421l0.048,0.514l-0.141,0.608l-0.188-0.093L15.41,23.36L15.55,22.705z M15.597,26.307v-0.234l0.14,0.141
	l-0.093,0.608l-0.094-0.187l-0.046,0.187l-0.094-0.515H15.597z M15.597,27.43l-0.093,0.327l-0.188-0.234L15.597,27.43z
	 M13.539,16.11l0.047-0.14l0.14,0.234l-0.233,0.187L13.539,16.11z M13.399,37.205l0.14-0.562l0.047-0.233l0.28,0.515L13.399,37.205z
	 M13.493,54.558h0.233l-0.047,0.234l-0.186,0.092V54.558z M12.977,43.239l0.235,0.187l-0.048,0.328l-0.373-0.094l0.046-0.279
	L12.977,43.239z M12.884,42.63v-0.28l0.141,0.142l0.046,0.232L12.884,42.63z M13.071,34.258l0.328-0.094l-0.141,0.515L13.071,34.258
	z M13.352,30.984l-0.094,0.328l-0.187-0.093v-0.235H13.352z M13.071,29.581v-0.327l0.093-0.282l0.094,0.188v0.327L13.071,29.581z
	 M13.352,25.933v-0.327l0.327,0.186L13.586,26.4L13.352,25.933z M13.399,27.336v-0.421h0.28l0.093,0.421H13.399z M13.399,23.033
	l0.187,0.14l0.093,0.562l-0.14,0.187l-0.14,1.028l-0.281-0.42l0.046-0.655l0.188-0.608L13.399,23.033z M13.258,20.179v0.188h-0.281
	v-0.281h0.187L13.258,20.179z M12.884,8.439h0.187v0.187h-0.187V8.439z M12.837,42.023l0.234-0.094l-0.094,0.373l-0.233-0.092
	L12.837,42.023z M10.639,22.846l0.14,0.187l-0.046,0.234l-0.14-0.188L10.639,22.846z M10.639,27.009l0.094-0.281l0.187,0.14v0.843
	l-0.187-0.141v0.374h-0.188l-0.093-0.421L10.639,27.009z M10.593,30.003l-0.048-0.329l0.188,0.094l0.093,0.608l-0.187,0.187
	l0.046-0.327L10.593,30.003z M10.733,28.552l-0.188-0.233l0.094-0.282l0.094,0.188V28.552z M10.733,30.704l0.139,0.234l-0.046,0.187
	l-0.093-0.141V30.704z M10.639,28.879l0.094,0.375l-0.188-0.188l-0.139-0.187H10.639z M10.499,35.942l0.046-0.327l0.188,0.281
	l-0.094,0.28L10.499,35.942z M10.545,40.853l0.188-0.188l0.093,0.188l-0.047,0.234l-0.234,0.094V40.853z M8.487,24.576l-0.094-0.187
	v-0.327h0.281L8.487,24.576z M8.674,26.493l-0.093,0.562l-0.188,0.047l0.094-0.467V26.4L8.674,26.493z M8.581,20.367l-0.188-0.188
	l0.094-0.28l0.187,0.187L8.581,20.367z M8.393,17.42l0.188,0.14l-0.188,0.094V17.42z M8.393,17.935l0.235,0.187v0.327l-0.235,0.187
	l-0.046-0.468L8.393,17.935z M8.301,27.944l0.092-0.327l0.094,0.187v0.561L8.16,28.037L8.301,27.944z M8.581,39.591l-0.047,0.232
	l-0.141,0.141l-0.046-0.233L8.581,39.591z M8.581,44.455H8.394V44.08h0.187V44.455z M8.581,58.861l-0.14-0.188l0.046-0.233
	l0.187,0.187L8.581,58.861z M8.674,56.382l-0.233-0.141l-0.048-0.234l0.094-0.561l0.094-0.188l0.093,0.188V56.382z M8.487,54.698
	h0.141l0.046,0.281L8.487,54.698z M8.815,47.869l-0.234,0.094v-0.422h0.28L8.815,47.869z M8.909,35.288l-0.094-0.235l0.046-0.374
	l0.141,0.281L8.909,35.288z M9.095,25.512H8.909v-0.141h0.186V25.512z M10.499,66.438l-0.093-0.233l0.327,0.094L10.499,66.438z
	 M10.545,65.923v-0.654l0.375-0.094v-0.188l0.093,0.889L10.545,65.923z M10.872,39.591l-0.233,0.093l-0.046-0.187l0.046-0.235
	l0.374,0.094L10.872,39.591z M10.826,32.06l-0.187,0.561l-0.14-0.514v-0.374l0.514,0.187L10.826,32.06z M11.013,24.249l-0.141-0.281
	l0.048-0.327l0.187,0.281L11.013,24.249z M11.434,29.955l-0.093-0.093l0.139-0.094l0.141,0.187H11.434z M12.791,45.063l0.093-0.281
	l0.28,0.095l-0.187,0.514l-0.233-0.094L12.791,45.063z M12.931,46.933l0.233-0.094l-0.093,0.469l-0.187-0.141L12.931,46.933z
	 M12.977,58.626l0.281,0.328l-0.233,0.047L12.977,58.626z M13.305,61.901l0.094-0.187l0.14,0.093l-0.14,0.187l0.187,0.188
	l-0.093,0.327l-0.141-0.094l0.047,0.748l-0.141-0.14l-0.094-0.515L13.305,61.901z M13.352,64.146l0.187,0.188l0.047,0.654h-0.234
	l0.093-0.515L13.352,64.146z M13.726,65.737l-0.233,0.14h-0.235l0.094-0.233l0.141-0.235l0.373,0.094L13.726,65.737z M13.913,53.763
	l-0.187-0.141l-0.047-0.373h0.234V53.763z M13.913,15.269l-0.234-0.375v-0.327h0.234V15.269z M15.504,40.199l0.093,0.608
	l-0.141-0.142h-0.233L15.504,40.199z M15.41,60.498l0.094-0.188l0.093-0.232l0.047,0.28L15.41,60.498z M15.737,60.919v0.279
	l-0.233,0.188v-0.328l0.14-0.187L15.737,60.919z M15.41,66.205l0.187-0.281l0.047,0.187L15.41,66.205z M15.644,65.408l-0.047-0.232
	l-0.093,0.232l-0.188-0.326h0.328V65.408z M15.644,62.509l-0.188-0.188v-0.561l0.141-0.233l0.188,0.187L15.644,62.509z
	 M15.831,57.925l-0.14-0.233l-0.047,0.187l-0.234,0.14l0.046-0.326l0.048-0.282h0.233l0.094,0.188V57.925z M15.831,57.037
	l-0.281-0.515l0.047-0.842l0.234,1.077V57.037z M16.018,44.876l-0.327-0.469l-0.047-0.326h0.374V44.876z M17.655,14.801l0.093,0.234
	v0.56l-0.327-0.093L17.655,14.801z M17.702,52.032l0.046-0.327l0.187,0.188l0.234,0.046l-0.234,1.03l0.048,0.281l-0.235,0.279v0.516
	l-0.281,0.093L17.702,52.032z M17.748,58.44h0.141v0.187h-0.141V58.44z M17.561,54.884l0.094-0.326l0.093,0.188L17.561,54.884z
	 M17.561,59.563h0.281l0.093,1.076l-0.046,0.467l-0.187-0.187l-0.141-0.469l0.047-0.561L17.561,59.563z M17.655,61.574l0.093-0.281
	l0.235,0.89v0.562l-0.328-0.234l0.093-0.28L17.655,61.574z M17.748,66.485l0.094-0.28l0.141,0.422L17.748,66.485z M17.983,63.539
	l-0.281-0.141l-0.047-0.281l0.141-0.234l0.279,0.048L17.983,63.539z M17.983,58.018l-0.094-0.187l0.046-0.842l-0.046-0.281
	l0.14,0.188l0.046,0.563l0.281,0.045L17.983,58.018z M18.45,55.259l-0.281,0.047v-0.281l0.094-0.232l0.234,0.092L18.45,55.259z
	 M19.9,35.802l0.234,0.14v0.327L19.9,36.41l-0.093-0.327L19.9,35.802z M20.134,54.884H19.9v-0.326l0.187,0.094L20.134,54.884z
	 M20.087,42.63H19.9v-0.187h0.187V42.63z M20.087,40.292H19.9v-0.234h0.234L20.087,40.292z M19.994,39.356v-0.373l0.14,0.373H19.994
	z M19.9,51.003l0.187,0.187l-0.093,0.233l-0.141-0.094L19.9,51.003z M20.087,59.142H19.9v-0.188h0.187V59.142z M19.9,69.992v-0.232
	l0.187,0.326L19.9,69.992z M20.087,68.262H19.9v-0.14h0.187V68.262z M20.087,60.779l0.047-0.375l0.141,0.235L20.087,60.779z
	 M20.275,57.271l-0.188,0.139l-0.093-0.279l0.046-0.562l-0.046-0.28l0.14,0.187l0.187,0.562L20.275,57.271z M20.275,31.125
	L19.9,31.593v-0.329l0.234-0.42l0.093-0.233l0.094,0.187L20.275,31.125z M19.9,29.768l0.094-0.187l0.14-0.14l0.187,0.233
	L19.9,29.768z M20.087,22.238v-0.327h0.328L20.087,22.238z M20.742,27.336l-0.234-0.094v-0.233l0.094-0.281l0.187,0.14
	L20.742,27.336z M35.195,14.053l0.187,0.233l-0.187,0.187V14.053z M35.242,15.408l0.186,0.281h-0.233L35.242,15.408z M35.654,21.338
	v0.234l-0.233,0.093v-0.42L35.654,21.338z M35.148,17.7l0.094-0.187l-0.047,0.235l0.233,0.281l-0.186,0.514l-0.141-0.187
	l-0.046-0.327L35.148,17.7z M33.737,20.122v0.234l-0.281,0.093l-0.093-0.28l0.187-0.234L33.737,20.122z M32.996,14.801l0.094-0.188
	l0.094-0.233l0.28,0.374L32.996,14.801z M32.95,12.93l0.234,0.186H32.95V12.93z M30.938,19.151v0.234l-0.14-0.047L30.938,19.151z
	 M29.068,18.777l0.233,0.28l-0.327,0.608l-0.093-0.28l0.14-0.234L29.068,18.777z M28.881,17.327l-0.235-0.094v-0.234l0.141-0.187
	l0.187,0.187L28.881,17.327z M28.6,15.269h0.187v0.14H28.6V15.269z M28.6,16.016h0.281l-0.141,0.188l0.047,0.281l-0.187-0.14V16.016
	z M26.729,49.6l-0.094,0.28l-0.14-0.187l-0.047-0.233L26.729,49.6z M26.448,34.96h0.187v0.328h-0.187V34.96z M26.635,23.968v-0.233
	l0.187,0.14L26.635,23.968z M26.635,50.582l-0.187,0.094v-0.187L26.635,50.582z M26.589,59.328v-0.232l0.046-0.328l0.187,0.701
	L26.589,59.328z M26.729,60.498h-0.188l-0.093-0.094l0.187-0.094L26.729,60.498z M26.729,56.944l-0.188-0.142l0.094-0.375
	l0.187,0.236L26.729,56.944z M26.635,54.979l-0.094-0.187l0.094-0.234l0.141,0.094l0.046,0.232L26.635,54.979z M26.776,25.839
	l0.046-0.233l0.141,0.14v0.327l-0.093,0.234L26.776,25.839z M26.682,20.928L26.635,20.6l0.187,0.141l0.048,0.281L26.682,20.928z
	 M26.541,18.215l0.094-0.28l0.187,0.187l-0.093,0.234L26.541,18.215z M26.541,16.016l0.235,0.094l0.046,0.281l-0.281,0.047
	l-0.093-0.187L26.541,16.016z M26.729,21.817v0.327l-0.234-0.093l-0.047-0.234H26.729z M24.905,32.341l-0.094,0.28l-0.233,0.094
	l0.093-0.234L24.905,32.341z M24.484,37.439l-0.187-0.188l-0.094-0.935V35.99l0.187,0.093l0.047,0.28l0.141,0.141l-0.188,0.421
	L24.484,37.439z M24.484,48.852v0.233l-0.187-0.188l0.093-0.327L24.484,48.852z M24.39,43.145v-0.28l0.094-0.141h0.094l-0.048,0.281
	L24.39,43.145z M24.297,30.003l0.093-0.329l0.094,0.188L24.297,30.003z M24.484,34.445l-0.281,0.048v-0.235L24.484,34.445z
	 M24.249,23.922l0.048-0.281l0.187,0.234l-0.094,0.281L24.249,23.922z M24.39,29.16l0.094-0.327l0.094,0.514L24.39,29.16z
	 M24.484,21.911h-0.187v-0.187h0.187V21.911z M24.484,22.846v0.281l-0.094,0.14l-0.234-0.188l-0.046-0.374L24.484,22.846z
	 M24.297,37.813l0.093,0.28l-0.28,0.141v-0.421H24.297z M24.297,53.576l-0.094,0.094v-0.328L24.297,53.576z M24.203,55.587
	l0.187,0.326l-0.187,0.047V55.587z M24.297,40.573l0.14,0.187l0.047,0.562l-0.187-0.14V40.573z M24.484,33.556l0.046-0.466
	l0.048-0.235l0.327,0.982L24.484,33.556z M24.578,21.116l-0.329-0.141l-0.139-0.281l0.233-0.094h0.281l-0.094,0.328L24.578,21.116z
	 M24.249,10.03l0.048-0.28l0.187,0.139l0.046,0.609l-0.14,0.187l-0.141-0.327V10.03z M24.297,15.175l0.093,0.187l-0.187,0.14
	L24.297,15.175z M22.473,29.721l-0.094,0.234l-0.141-0.187l0.094-0.187L22.473,29.721z M22.332,32.247l-0.233-0.14l-0.048-0.374
	l0.235,0.093l0.093,0.234L22.332,32.247z M22.379,33.276l-0.141,0.28l-0.046-0.28l0.14-0.327L22.379,33.276z M22.051,22.238
	l0.187,0.14l-0.093,0.235L22.051,22.238z M22.051,9.983l0.094-0.094l0.093,0.188l-0.187,0.094V9.983z M22.145,12.556l-0.14,0.094
	l-0.047-0.235L22.145,12.556z M22.051,33.837l0.187,0.094l0.094,0.233h-0.374L22.051,33.837z M22.286,44.782v0.281l-0.141,0.093
	v-0.467L22.286,44.782z M22.051,46.091l0.281,0.095l-0.188,0.327l-0.14-0.188L22.051,46.091z M22.379,70.927l-0.234,0.048
	l0.093-0.468l0.141,0.141V70.927z M22.051,60.873l0.187,0.14l-0.093,0.094L22.051,60.873z M22.379,55.587l-0.093-0.375l-0.235-0.047
	l0.094-0.326v-0.281l0.234,0.094V55.587z M22.332,43.239v-0.421l0.187,0.232L22.332,43.239z M24.249,18.215l0.048-0.28l0.093,0.28
	l-0.047,0.328l-0.327,0.093L24.249,18.215z M24.062,56.944l0.094-0.28l0.234-0.142l-0.047,0.608l-0.233,0.093L24.062,56.944z
	 M24.249,62.556l-0.046-0.281v-0.281l0.234,0.049l0.047,0.607L24.249,62.556z M24.39,60.779l-0.187-0.188l0.094-0.327l0.187,0.094
	L24.39,60.779z M24.578,59.796l-0.375-0.233v-0.281l0.281-0.094l0.14,0.28L24.578,59.796z M24.578,42.443l-0.235-0.141v-0.279
	l0.141-0.234l0.14,0.141L24.578,42.443z M24.811,66.438l-0.093-0.233h0.28l0.094,0.28L24.811,66.438z M26.308,32.621l0.046-0.28
	l0.141,0.421l0.046,0.561l-0.233-0.421V32.621z M26.448,63.351l0.093-0.234l0.094,0.234H26.448z M26.635,62.229l0.235-0.093v0.279
	l-0.235,0.094V62.229z M26.87,64.8l-0.141-0.327l0.093-0.327l0.141,0.141L26.87,64.8z M26.87,26.868l-0.048-0.233l0.187,0.093
	l0.047,0.281L26.87,26.868z M27.149,26.587L27.056,26.4v-0.28l0.187,0.187L27.149,26.587z M28.401,21.298h6.988v2.565l0.032-0.561
	v-0.233l0.14,0.187l0.053,0.477l0.142,0.142l0.094,0.514l-0.18-0.153l0.032,0.283l-0.235-0.141l-0.078-0.194v2.503l0.032-0.111
	l0.281-0.093l-0.048,0.374l-0.139,0.234l-0.126-0.125v1.295H29.03l-0.149,1.601l-0.141-0.094l-0.14-0.889l0.132-0.618h-0.331V21.298
	z M35.522,49.787l-0.094,0.281l-0.233,0.141v-1.17l0.14-0.279l0.187,0.186v0.234l-0.187,0.467L35.522,49.787z M35.382,52.828
	l-0.187,0.187v-0.375L35.382,52.828z M35.428,47.027v-0.232l0.187,0.139L35.428,47.027z M35.335,42.492v-0.375l0.141,0.186
	l0.046,0.328L35.335,42.492z M35.515,62.685l0.187,0.421v0.281l-0.187-0.188l-0.048-0.279L35.515,62.685z M35.421,60.253v-0.515
	l0.233,0.095v0.326L35.421,60.253z M35.428,39.684l0.094-0.328l0.141,0.188L35.428,39.684z M35.608,37.99h-0.187l-0.094-0.281h0.281
	V37.99z M35.242,33.042v-0.327l0.234,0.187l-0.048,0.327L35.242,33.042z M35.467,31.955l-0.046-0.28l0.094-0.328l0.139,0.14
	l0.048,0.703L35.467,31.955z M35.515,27.792l-0.048-0.233l0.141-0.281l0.14,0.187v0.234L35.515,27.792z M33.604,40.105l-0.14,0.375
	l-0.28-0.516l0.093-0.373h0.281l-0.047,0.326L33.604,40.105z M33.371,43.988l-0.094,0.28l-0.187-0.233l0.094-0.281L33.371,43.988z
	 M33.184,44.97l0.28,0.186h-0.28V44.97z M33.456,42.152l0.094-0.279l0.093,0.186v0.328L33.456,42.152z M33.597,38.41l-0.328,0.375
	l0.141-1.076l-0.141-0.749l0.281-0.094l0.187,0.889L33.597,38.41z M33.504,30.038l-0.048-0.234l0.235,0.047l-0.048,0.374
	L33.504,30.038z M33.55,34.014l-0.094,0.093v-0.328L33.55,34.014z M33.363,29.524v-0.188l0.187,0.281L33.363,29.524z M33.597,35.556
	l0.046,0.282L33.55,35.65l-0.281-0.094l0.094-0.326L33.597,35.556z M33.698,50.489h0.187v0.187h-0.187V50.489z M31.219,28.739
	l0.032,0.177h0.054v0.298l0.007,0.04h-0.007v0.035l-0.328-0.047l-0.046-0.326h0.024l-0.017-0.083h-0.186v-0.187h0.186v0.187
	L31.219,28.739z M30.892,29.815l-0.048-0.234v-0.234h0.281v0.515L30.892,29.815z M31.125,30.984h-0.187v-0.186h0.187V30.984z
	 M31.032,34.352l-0.094,0.514l-0.234-0.187l0.048-0.234L31.032,34.352z M30.752,38.796v-0.235l0.092-0.233l0.188,0.188l-0.094,0.42
	L30.752,38.796z M30.938,42.302l0.141,0.189l-0.141,0.232l-0.094-0.188L30.938,42.302z M30.752,48.992v-0.232l0.186,0.139v0.234
	l-0.234,0.047L30.752,48.992z M30.931,47.811l0.046-0.187l0.141-0.141l0.094,0.327H30.931z M30.938,41.087l0.187-0.188l0.094,0.327
	L30.938,41.087z M31.125,40.058l-0.093,0.141l-0.094-0.234l0.187-0.187l0.187,0.28H31.125z M31.212,33.687l-0.094-0.188l0.176,0.059
	l-0.121-1.124l0.046-0.327l0.234,0.14l-0.047,0.608l0.094,0.562l-0.14,0.747l-0.057-0.523L31.212,33.687z M28.974,30.563
	l0.187,0.421l-0.093,0.235l-0.281,0.093L28.6,30.798l0.046-0.328l0.047-0.281l0.188,0.187v0.328L28.974,30.563z M29.201,31.955
	H29.06V31.58h0.141V31.955z M29.208,34.445h-0.14v-0.187h0.14V34.445z M28.693,46.513l0.234,0.14l0.047,0.328l-0.093,0.233
	l-0.188-0.141L28.6,46.794L28.693,46.513z M28.927,35.661l-0.187-0.14l-0.047-0.327h0.375l0.046,0.421L28.927,35.661z
	 M29.247,42.526l-0.094,0.233l-0.093-0.373L29.247,42.526z M29.153,28.681l0.234-0.094l-0.093,0.235L29.153,28.681z M28.974,69.992
	l-0.187-0.186v-0.328l0.187,0.188V69.992z M28.6,68.169v-0.422l0.187,0.141l0.046,0.234L28.6,68.169z M28.974,67.28l-0.141,0.234
	L28.6,67.607l0.187-0.842l0.187-0.28V67.28z M28.974,66.11L28.6,65.876l0.093-0.188h0.281V66.11z M28.6,64.753l0.233,0.188
	l0.094,0.373l-0.046,0.281l-0.235-0.515L28.6,64.753z M31.125,68.262h-0.187v-0.233l0.281,0.094L31.125,68.262z M30.844,66.11
	v-0.608l0.281,0.095l-0.046,0.374L30.844,66.11z M31.305,64.136h-0.187v-0.141h0.187V64.136z M31.219,62.65l-0.234-0.141
	l-0.047-0.373l0.235,0.093l0.139,0.187L31.219,62.65z M33.184,61.434h0.28l-0.093,0.28L33.184,61.434z M33.504,62.311l-0.048-0.233
	l0.235,0.187L33.504,62.311z M33.456,60.3l-0.093-0.188h0.28l0.048,0.234L33.456,60.3z M31.546,60.08l-0.093,0.23h-0.234
	l0.093-0.188l0.224-0.043h-3.135v-6.931h4.627l0.015-0.088l0.141-0.14l0.28,0.093v0.135h1.853l0.01-0.052l0.188,0.14l-0.048,0.234
	l-0.092,0.016v0.497l0.24-0.033l-0.139,0.233l-0.101,0.032v2.193l0.053,0.159l-0.053,0.134v3.377H31.546z M35.421,68.72v-0.329
	l0.094,0.235L35.421,68.72z M35.702,66.333l-0.187-0.092v-0.283l0.093-0.187l0.187,0.28L35.702,66.333z M35.748,34.762l-0.14-0.374
	l0.094-0.187l0.14,0.233L35.748,34.762z M35.702,25.454l-0.187-0.093l-0.094-0.234v-0.281l0.281,0.046l0.187,0.141L35.702,25.454z
	 M69.191,19.234l0.139,0.233l-0.233,0.375l-0.046-0.281L69.191,19.234z M69.238,23.911l0.045,0.327l-0.187-0.141v-0.373
	L69.238,23.911z M69.097,25.828h-0.093l-0.047-0.187L69.097,25.828z M69.004,29.617l0.188,0.187l0.092,0.655l-0.187,0.187
	l0.047-0.234l-0.187-0.468L69.004,29.617z M69.097,31.768l0.187-0.234l0.095,0.234l-0.095,0.281l-0.326,0.047L69.097,31.768z
	 M69.004,33.077l0.188,0.094l0.092,0.562l-0.092,0.187l-0.141-0.187l0.046-0.327L69.004,33.077z M68.957,37.662l0.421,0.047
	l-0.095,0.375l-0.187,0.233l-0.14-0.14V37.662z M66.945,29.476l0.047,0.515l-0.141,0.328l-0.188-0.187v-0.935l0.049-0.281
	L66.945,29.476z M66.759,25.127l-0.095-0.281l0.095-0.562v-0.187l0.187,0.187v0.329L66.759,25.127z M66.898,30.786l-0.047,0.187
	l-0.093-0.14L66.898,30.786z M66.898,52.302l-0.047-0.234l0.188,0.327L66.898,52.302z M66.945,55.25l-0.094,0.607l-0.188-0.188
	l-0.045-0.326L66.945,55.25z M66.713,45.846l0.232-0.093v0.281L66.713,45.846z M66.759,40.936l0.187,0.047l0.094,0.187h-0.28V40.936
	z M66.713,14.415h0.14v0.187h-0.14V14.415z M66.806,16.286l-0.047-0.14h0.14l0.094,0.702l-0.141,0.281l-0.232,0.046l-0.047-0.374
	L66.806,16.286z M66.619,22.18l0.187,0.187l0.046,0.233l-0.139,0.188l-0.141-0.234L66.619,22.18z M64.467,16.146l0.188,0.234
	l-0.188,0.187V16.146z M64.514,17.502l0.186,0.281h-0.232L64.514,17.502z M64.421,19.794l0.093-0.187l-0.047,0.235l0.232,0.28
	l-0.186,0.515l-0.141-0.188l-0.047-0.327L64.421,19.794z M64.794,51.88l-0.095,0.281l-0.232,0.141v-1.17l0.141-0.28l0.187,0.187
	v0.234l-0.187,0.467L64.794,51.88z M64.654,54.921l-0.188,0.187v-0.375L64.654,54.921z M64.514,35.136v-0.327l0.234,0.187
	l-0.049,0.327L64.514,35.136z M64.607,44.21l0.141,0.187l0.046,0.327l-0.187-0.141V44.21z M62.222,15.024l0.233,0.186h-0.233V15.024
	z M62.736,16.848l-0.468,0.046l0.093-0.187l0.094-0.234L62.736,16.848z M57.871,17.363h0.188v0.14h-0.188V17.363z M57.871,18.11
	h0.281l-0.141,0.188l0.047,0.28l-0.188-0.14V18.11z M58.246,19.093l-0.094,0.328l-0.234-0.094v-0.234l0.141-0.187L58.246,19.093z
	 M56.001,51.694l-0.095,0.28l-0.14-0.188l-0.047-0.232L56.001,51.694z M55.72,37.052h0.187v0.328H55.72V37.052z M55.906,26.062
	v-0.234l0.188,0.141L55.906,26.062z M55.906,52.675L55.72,52.77v-0.188L55.906,52.675z M55.861,61.421v-0.233l0.045-0.327
	l0.188,0.702L55.861,61.421z M56.001,62.591h-0.187l-0.095-0.094l0.187-0.094L56.001,62.591z M56.001,59.037l-0.187-0.14
	l0.092-0.375l0.188,0.235L56.001,59.037z M55.906,57.073l-0.092-0.187l0.092-0.234l0.142,0.094l0.046,0.233L55.906,57.073z
	 M56.048,27.933l0.046-0.234l0.141,0.141v0.327l-0.093,0.234L56.048,27.933z M55.955,23.022l-0.049-0.328l0.188,0.141l0.048,0.281
	L55.955,23.022z M55.814,20.308l0.092-0.279l0.188,0.187l-0.093,0.233L55.814,20.308z M55.814,18.11l0.233,0.094l0.046,0.281
	l-0.279,0.047l-0.095-0.187L55.814,18.11z M56.001,23.911v0.327l-0.234-0.094l-0.047-0.233H56.001z M55.822,26.12v0.187
	l-0.188-0.093L55.822,26.12z M53.85,23.209l-0.328-0.14l-0.14-0.281l0.233-0.094h0.281l-0.094,0.328L53.85,23.209z M53.756,39.532
	l-0.188-0.187l-0.094-0.936v-0.326l0.188,0.094l0.047,0.279l0.141,0.141l-0.188,0.421L53.756,39.532z M53.756,50.946v0.233
	l-0.188-0.188l0.094-0.326L53.756,50.946z M53.662,45.239v-0.28l0.094-0.141h0.094l-0.047,0.281L53.662,45.239z M53.756,24.94v0.28
	l-0.094,0.141l-0.234-0.188l-0.046-0.374L53.756,24.94z M53.568,23.817h0.188v0.187h-0.188V23.817z M53.756,25.969l-0.094,0.28
	l-0.141-0.234l0.047-0.28L53.756,25.969z M53.568,39.907l0.094,0.281l-0.28,0.14v-0.421H53.568z M53.568,55.669l-0.094,0.094v-0.328
	L53.568,55.669z M53.475,57.68l0.188,0.327l-0.188,0.048V57.68z M53.568,42.667l0.141,0.186l0.047,0.563l-0.188-0.141V42.667z
	 M53.475,36.586v-0.234l0.281,0.187L53.475,36.586z M53.568,32.096l0.094-0.328l0.094,0.187L53.568,32.096z M53.662,31.254
	l0.094-0.327l0.094,0.514L53.662,31.254z M53.568,17.269l0.094,0.187l-0.188,0.14L53.568,17.269z M51.744,31.815l-0.092,0.234
	l-0.142-0.187l0.093-0.187L51.744,31.815z M51.604,34.341l-0.232-0.14l-0.049-0.375l0.235,0.094l0.095,0.234L51.604,34.341z
	 M51.652,35.369l-0.142,0.281l-0.047-0.281l0.14-0.327L51.652,35.369z M51.417,24.706l-0.095-0.374l0.188,0.139L51.417,24.706z
	 M51.417,14.65l-0.14,0.093l-0.047-0.234L51.417,14.65z M50.816,24.997v0.281l-0.233-0.047l-0.048-0.234H50.816z M49.547,20.356
	L49.5,20.87l-0.188-0.14l-0.093-0.281l0.047-0.561v-0.281L49.547,20.356z M49.172,18.485V18.11l0.188,0.141l0.047,0.234H49.172z
	 M49.172,14.602l0.188,0.141l-0.094,0.281l-0.188-0.141L49.172,14.602z M47.676,18.532v0.28l-0.234,0.094v-0.328l0.094-0.187
	L47.676,18.532z M47.208,16.286l-0.048,0.562l-0.279-0.42l0.093-0.843l0.046-0.327l0.422,0.514L47.208,16.286z M47.347,20.637
	l-0.233-0.094l0.047-0.281l0.141,0.14L47.347,20.637z M46.927,14.463l0.233-0.234v0.467l-0.187,0.141l-0.233-0.094L46.927,14.463z
	 M46.927,16.894l0.093,0.235v0.561l-0.326-0.094L46.927,16.894z M47.068,18.018l-0.049,0.608l-0.139-0.188v-0.281l0.046-0.374
	L47.068,18.018z M46.467,19.385l-0.141,0.374l-0.092-0.234L46.467,19.385z M44.916,19.935l0.141,0.234l0.046,0.374l-0.187-0.094
	l-0.047-0.233L44.916,19.935z M44.682,19.7l0.094-0.279l0.188,0.186l-0.047,0.235L44.682,19.7z M44.775,16.848v-0.281l0.188,0.094
	l0.094,0.281l-0.141,0.233l-0.188-0.094L44.775,16.848z M44.314,15.877v0.233l-0.093-0.327L44.314,15.877z M44.314,17.56
	l0.094-0.233l0.188,0.467l-0.094,0.468l-0.233-0.14l-0.047-0.235L44.314,17.56z M44.129,19.852l0.046-0.608l0.047-0.28l0.468,0.421
	l-0.281,0.701v0.327l-0.42-0.327L44.129,19.852z M42.951,16.661h0.233v0.702l-0.233-0.375V16.661z M42.811,18.204l0.047-0.14
	l0.141,0.234l-0.233,0.187L42.811,18.204z M42.529,22.273v0.188h-0.28V22.18h0.188L42.529,22.273z M42.811,38.738l0.047-0.234
	l0.28,0.515l-0.467,0.28L42.811,38.738z M42.671,29.43v-0.421h0.28l0.094,0.421H42.671z M42.529,36.773l-0.187-0.421l0.328-0.094
	L42.529,36.773z M42.156,49.262l0.047-0.235l0.233-0.093l-0.094,0.468L42.156,49.262z M42.164,56.335l-0.094,0.281l-0.14-0.142
	l0.046-0.28L42.164,56.335z M42.249,47.484l-0.233-0.093l0.047-0.234l0.094-0.28l0.28,0.094L42.249,47.484z M41.837,29.347h0.14
	l-0.046,0.656l-0.142-0.188l0.094-0.281L41.837,29.347z M42.07,39.591l-0.14,0.093v-0.14l0.046-0.094L42.07,39.591z M41.977,43.707
	l0.094-0.233h0.28L42.21,43.8l-0.279,0.14L41.977,43.707z M42.023,21.349l0.047-0.327l0.094,0.28l-0.094,1.217l-0.094-0.468
	L42.023,21.349z M41.977,19.385v-0.328l0.094-0.28l0.14,0.233l-0.046,0.562L41.977,19.385z M42.258,30.47l-0.094,0.234l-0.047-0.141
	l0.047-0.281L42.258,30.47z M42.343,44.023l-0.094,0.374l-0.233-0.095l0.094-0.186L42.343,44.023z M41.977,44.455h0.18v-0.011
	l0.011,0.011h0.091l-0.014,0.077l0.053,0.052l0.046,0.234l-0.147-0.074l-0.219,0.133V44.455z M42.063,45.753l0.047-0.28l0.14-0.142
	l0.235,0.188l-0.048,0.327L42.063,45.753z M42.529,33.406l-0.187-0.094v-0.235h0.281L42.529,33.406z M42.529,31.581l-0.187,0.094
	v-0.328l0.094-0.28l0.093,0.187V31.581z M42.07,17.327l0.094,0.327l-0.094,0.281l-0.094-0.141l0.047-0.281l-0.047-0.28h0.281
	L42.07,17.327z M41.931,13.866l0.046,0.28h-0.234L41.931,13.866z M41.977,23.828l-0.046-0.234V23.22L41.977,23.828z M41.789,26.822
	l0.048-0.235l0.187,0.141l0.094,0.561l-0.141,0.234l-0.14-0.14l-0.095-0.281L41.789,26.822z M41.837,50.863l0.094-0.188l0.093,0.281
	l-0.281,0.14L41.837,50.863z M40.199,18.262l0.094,0.187v0.281l-0.375-0.094v-0.28l0.094,0.187L40.199,18.262z M40.005,25.361
	l-0.14-0.188l0.045-0.233l0.141,0.187L40.005,25.361z M40.246,26.493l-0.141,1.124l-0.188-0.468V26.26l0.094-0.187L40.246,26.493z
	 M39.824,22.003V21.63l0.142,0.187l0.046,0.327L39.824,22.003z M39.918,17.14l0.141,0.233l-0.234,0.375l-0.045-0.281L39.918,17.14z
	 M39.824,23.735h-0.092l-0.048-0.187L39.824,23.735z M39.732,27.523l0.186,0.188l0.094,0.654l-0.188,0.187l0.047-0.233l-0.187-0.469
	L39.732,27.523z M39.767,29.81l-0.043-0.193l0.187-0.514l0.095-0.281l0.187,0.14v0.842l-0.104-0.078l-0.076,0.229l-0.007,0.001
	v0.082h-0.187l-0.013-0.053l-0.121,0.018L39.767,29.81z M40.005,30.319v0.327l-0.187-0.234l0.092-0.28L40.005,30.319z M39.91,30.973
	l0.095,0.374l-0.05-0.049l0.057,0.341l-0.09,0.181l0.083,0.042l0.093,0.608l-0.188,0.187l0.047-0.327l-0.092-0.234l-0.047-0.328
	l0.09,0.046l-0.129-0.175l0.045-0.327l-0.064-0.229l-0.082-0.11H39.91z M40.145,33.031l-0.047,0.188l-0.093-0.142v-0.279
	L40.145,33.031z M40.012,58.347l-0.141-0.235v-0.233l-0.047-0.326l0.281,0.093L40.012,58.347z M40.105,64.567V64.8l-0.188-0.047
	l-0.186-0.092L40.105,64.567z M39.824,56.289l-0.092-0.233l0.047-0.281l0.139-0.187l0.141,0.187l0.047,0.327L39.824,56.289z
	 M39.685,49.085v-0.233l0.14,0.327L39.685,49.085z M40.059,43.144l-0.008,0.037l-0.232,0.094v-0.328l0.049-0.05l-0.135-0.405v-0.375
	h0.279l0.141,0.795l-0.047,0.327L40.059,43.144z M39.824,36.223l-0.14-0.14v-0.515l0.421,0.047l-0.094,0.375L39.824,36.223z
	 M40.005,37.99l-0.095,0.279l-0.139-0.232l0.047-0.328L40.005,37.99z M37.806,41.917l-0.14,0.141l-0.047-0.234l0.233-0.14
	L37.806,41.917z M37.853,46.548h-0.187v-0.375h0.187V46.548z M37.674,43.66v0.28l-0.234-0.187L37.674,43.66z M37.572,30.038
	l0.094-0.327l0.093,0.187v0.561l-0.327-0.327L37.572,30.038z M37.486,28.739l0.14-0.047l-0.046,0.187L37.486,28.739z M37.486,38.841
	l0.188,0.048l0.093,0.187h-0.28V38.841z M37.666,29.197l0.093-0.469v-0.234l0.187,0.093l-0.093,0.562L37.666,29.197z M37.759,26.67
	l-0.093-0.187v-0.327h0.279L37.759,26.67z M37.674,27.383l0.046,0.515l-0.14,0.327l-0.188-0.188v-0.935l0.047-0.28L37.674,27.383z
	 M37.674,53.155l-0.094,0.608l-0.188-0.188l-0.046-0.326L37.674,53.155z M37.626,50.208l-0.046-0.234l0.187,0.328L37.626,50.208z
	 M37.674,47.634l0.188-0.094l0.094,0.188v0.328l-0.188-0.142L37.674,47.634z M37.814,40.573l-0.234,0.14l0.094-0.28l0.281-0.14
	L37.814,40.573z M37.853,22.461l-0.179-0.179v0.237l-0.188,0.514l-0.094-0.281l0.094-0.561v-0.188l0.188,0.188v0.057l0.085-0.256
	l0.187,0.188L37.853,22.461z M37.9,20.543l-0.234,0.187l-0.047-0.468l0.047-0.233l0.234,0.187V20.543z M37.666,19.748v-0.235
	l0.187,0.141L37.666,19.748z M37.439,12.322h0.141v0.187h-0.141V12.322z M37.533,14.193l-0.047-0.14h0.14l0.094,0.701l-0.14,0.281
	l-0.233,0.046l-0.048-0.374L37.533,14.193z M37.347,20.086l0.187,0.187l0.047,0.234l-0.141,0.187l-0.141-0.234L37.347,20.086z
	 M37.299,24.576l0.048-0.327l0.093,0.094l0.047,0.654l-0.233-0.14L37.299,24.576z M37.439,60.826v-0.842l0.28,0.655l-0.14,0.653
	L37.439,60.826z M37.853,60.955l-0.14-0.187l0.046-0.233l0.187,0.186L37.853,60.955z M37.945,58.476l-0.232-0.141l-0.037-0.181
	l-0.002,0.005l-0.327-0.094l0.187-0.188l0.174-0.024l0.052-0.313l0.094-0.188l0.093,0.188V58.476z M37.759,56.792H37.9l0.045,0.28
	L37.759,56.792z M38.087,49.964l-0.234,0.093v-0.423h0.281L38.087,49.964z M38.181,37.382l-0.094-0.235l0.047-0.374l0.142,0.279
	L38.181,37.382z M38.367,27.606h-0.187v-0.141h0.187V27.606z M39.771,68.532l-0.094-0.233l0.327,0.093L39.771,68.532z
	 M39.818,68.018v-0.655l0.373-0.094v-0.188l0.094,0.889L39.818,68.018z M40.145,41.684l-0.234,0.094l-0.045-0.187l0.045-0.235
	l0.375,0.095L40.145,41.684z M40.098,34.154l-0.188,0.561l-0.139-0.514v-0.375l0.514,0.188L40.098,34.154z M40.285,26.343
	l-0.141-0.281l0.047-0.327l0.188,0.28L40.285,26.343z M40.705,32.049l-0.092-0.094l0.14-0.093l0.141,0.187H40.705z M41.742,52.453
	h0.234v0.375l-0.234-0.047V52.453z M42.117,62.182l-0.187,0.14v-0.515l0.187,0.141V62.182z M42.164,60.591l-0.188-0.188v-0.326
	l0.233,0.187L42.164,60.591z M42.164,58.018l-0.141-0.14l0.047-0.326l0.14,0.232L42.164,58.018z M42.249,60.72l0.28,0.328
	l-0.232,0.047L42.249,60.72z M42.624,67.082l0.093-0.515l-0.093-0.325l0.187,0.186l0.047,0.654H42.624z M42.765,64.602l-0.141-0.093
	l0.047,0.748l-0.142-0.139l-0.093-0.517l0.142-0.608l0.093-0.187l0.14,0.094l-0.14,0.187l0.187,0.188L42.765,64.602z M44.682,62.591
	l0.094-0.188l0.094-0.232l0.047,0.279L44.682,62.591z M45.009,63.012v0.28l-0.233,0.188v-0.327l0.141-0.187L45.009,63.012z
	 M44.916,64.602l-0.188-0.187v-0.561l0.142-0.234l0.188,0.187L44.916,64.602z M46.833,61.657h0.28l0.095,1.075l-0.048,0.467
	l-0.187-0.187l-0.141-0.468l0.048-0.561L46.833,61.657z M47.02,60.535h0.141v0.187H47.02V60.535z M46.927,63.667l0.093-0.28
	l0.235,0.889v0.562l-0.328-0.235l0.093-0.279L46.927,63.667z M47.255,65.632l-0.281-0.141l-0.047-0.281l0.142-0.233l0.278,0.047
	L47.255,65.632z M49.359,62.873l0.047-0.375l0.141,0.234L49.359,62.873z M49.172,61.048h0.188v0.188h-0.188V61.048z M49.547,59.365
	l-0.046,0.034v0.688h-2.228l-0.019,0.025l-0.013-0.025h-2.519l-0.042,0.025l0.004-0.025h-2.139v-6.912h4.507l-0.08-0.078
	l0.187-0.234v0.313h2l0.012-0.078l0.08,0.078h0.249v5.679l0.092,0.276L49.547,59.365z M44.408,34.493l0.142,0.373l-0.235,0.235
	l0.188,1.122l-0.188,0.281l0.094,0.187l-0.14,0.093l-0.28-0.047l0.141-0.514l0.046-1.637L44.408,34.493z M44.222,33.229l0.233,0.047
	l-0.141,0.187L44.222,33.229z M44.877,42.07l0.14,0.232l-0.327-0.092L44.877,42.07z M44.682,40.046l0.046-0.187l0.048-0.233
	l0.141,0.14v0.235L44.682,40.046z M44.916,41.778l0.187-0.141v0.421L44.916,41.778z M44.869,33.593l-0.188-0.281l-0.047-0.327
	l0.141-0.187l0.141,0.233L44.869,33.593z M44.775,42.292l0.094,0.608l-0.142-0.142h-0.233L44.775,42.292z M44.728,44.492
	l0.048-0.281l0.094,0.281l-0.094,0.326l0.233,0.563l-0.14,0.279l-0.142-0.234V44.492z M44.916,48.186l0.141,0.187l-0.188,0.141
	L44.916,48.186z M44.963,46.501l-0.047-0.326h0.373v0.795L44.963,46.501z M44.775,31.441l0.094-0.187l0.233-0.187L44.775,31.441z
	 M44.775,29.851l-0.187-0.234l0.28-0.093L44.775,29.851z M44.596,36.925l-0.094,0.187h-0.188v-0.281L44.596,36.925z M44.175,45.203
	l0.094,0.188l-0.047,0.607l-0.142-0.187v-0.28L44.175,45.203z M44.08,40.432v-0.327l0.142,0.188v0.28L44.08,40.432z M44.175,39.262
	l-0.046-0.327l0.046-0.28l0.233,0.187v0.609L44.175,39.262z M44.314,39.778l0.141,0.187l-0.047,0.516l-0.094-0.188V39.778z
	 M46.467,28.879l0.094,0.235l0.094,0.046l0.045,0.047l-0.373,0.467l-0.092-0.281L46.467,28.879z M46.234,28.833l0.092-0.468
	l0.234,0.468H46.234z M46.654,32.809l-0.141-0.047l-0.141-0.608l-0.047-0.328h0.141l0.141,0.281L46.654,32.809z M46.561,35.474
	l-0.326,0.422l-0.095-0.187l0.095-0.235H46.561z M46.654,42.912h-0.233v-0.188L46.654,42.912z M46.326,51.05l-0.092,0.234
	L46.14,50.91L46.326,51.05z M46.326,52.125H46.14v-0.326h0.187V52.125z M47.255,52.489l-0.235-0.048l-0.046-0.279l0.095-0.281
	l0.045-0.233l0.142,0.28l-0.095,0.281L47.255,52.489z M47.16,46.642l-0.187-0.141l-0.047-0.233v-0.233l0.233,0.092l0.095,0.235
	L47.16,46.642z M47.395,43.696l-0.048,0.187l-0.092-0.373L47.395,43.696z M47.16,39.953l-0.047-0.326h0.233v0.326H47.16z
	 M47.208,38.269l0.047-0.186l0.092,0.326L47.208,38.269z M47.255,30.74l-0.095,0.233l-0.233-0.233l0.093-0.281v-0.608l0.094-0.327
	l0.142,0.187V30.74z M47.02,31.768h-0.187v-0.327h0.187V31.768z M47.02,35.463l0.188,0.235l-0.188,0.467l-0.093-0.187l-0.094-0.234
	L47.02,35.463z M47.113,44.397l0.095,0.233l-0.095,0.608l-0.232-0.515l-0.048-0.327H47.113z M48.664,46.933v-0.232l0.188,0.139
	L48.664,46.933z M48.898,47.634v0.281l-0.14-0.14l-0.046-0.235L48.898,47.634z M48.664,38.14l-0.187-0.233l0.095-0.28l0.092,0.187
	V38.14z M49.172,42.386v-0.234h0.234l-0.047,0.234H49.172z M49.359,44.724h-0.187v-0.188h0.187V44.724z M49.266,41.451v-0.373
	l0.141,0.373H49.266z M49.172,38.503l-0.094-0.326l0.094-0.281l0.234,0.141v0.326L49.172,38.503z M49.359,35.511l-0.094,0.233
	l-0.141-0.233V35.23l0.047-0.327h0.234L49.359,35.511z M49.125,34.107l0.047-0.328l0.14,0.141l0.048,0.375L49.125,34.107z
	 M49.133,34.866l-0.047,0.328l-0.188-0.187v-0.328L49.133,34.866z M49.547,33.219l-0.375,0.468v-0.329l0.234-0.42l0.094-0.234
	l0.093,0.187L49.547,33.219z M49.172,31.862l0.094-0.187l0.141-0.141l0.187,0.234L49.172,31.862z M49.172,30.552v-0.42l0.234,0.093
	v0.234L49.172,30.552z M49.48,24.212v4.075h-0.087l0.013,0.02l-0.03-0.02h-4.388l0.021,0.02l-0.093,0.609l-0.094-0.188l-0.047,0.188
	l-0.094-0.515h0.188v-0.114H42.89l-0.032,0.207l-0.103-0.207h-0.179v-1.385l-0.187-0.278l0.047-0.655l0.14-0.454v-4.213h1.691
	l-0.046-0.14l0.093-0.187l0.188,0.047v0.28h0.197l0.028-0.151l0.048-0.281l0.188,0.281l-0.043,0.151h1.29l-0.07-0.094l0.095-0.233
	l0.232,0.094l-0.021,0.233h0.736l-0.021-0.011v-0.327l0.141,0.14l0.033,0.198h2.146v1.844l0.02,0.016l-0.02,0.012v0.831h0.206
	L49.48,24.212z M50.014,29.43l-0.234-0.094v-0.233l0.095-0.281l0.187,0.14L50.014,29.43z M50.91,41.181h-0.375l0.141-0.188
	L50.91,40.9V41.181z M50.63,37.72h0.187v0.14H50.63V37.72z M50.816,32.434l-0.141-0.14l-0.046-0.328l0.094-0.233l0.093,0.28
	l0.234-0.187L50.816,32.434z M50.816,27.43l0.141,0.561l-0.141,0.328l-0.233-0.282l-0.048-0.233l0.188-0.982l-0.094-0.235
	l0.327,0.094l0.281,0.561l-0.095,0.188H50.816z M51.322,35.931l0.188,0.094l0.093,0.233H51.23L51.322,35.931z M51.558,46.876v0.28
	l-0.141,0.093v-0.468L51.558,46.876z M51.322,48.186l0.281,0.094l-0.187,0.327l-0.14-0.188L51.322,48.186z M51.417,63.199
	l-0.095-0.232l0.188,0.14L51.417,63.199z M51.652,57.68l-0.095-0.374l-0.235-0.047l0.095-0.326v-0.281l0.235,0.094V57.68z
	 M51.604,45.332v-0.42l0.188,0.233L51.604,45.332z M53.109,45.11l-0.142-0.14h0.235L53.109,45.11z M53.521,20.308l0.047-0.279
	l0.094,0.279l-0.047,0.329l-0.328,0.093L53.521,20.308z M53.334,59.037l0.094-0.279l0.234-0.141l-0.047,0.606l-0.233,0.094
	L53.334,59.037z M53.521,64.65l-0.047-0.281v-0.281l0.234,0.049l0.047,0.607L53.521,64.65z M53.662,62.873l-0.188-0.188l0.094-0.327
	l0.188,0.093L53.662,62.873z M53.85,61.89l-0.375-0.233v-0.28l0.281-0.095l0.141,0.281L53.85,61.89z M53.85,44.537l-0.234-0.14
	v-0.28l0.141-0.234l0.141,0.141L53.85,44.537z M53.756,35.65l0.047-0.467l0.047-0.234l0.327,0.982L53.756,35.65z M54.083,34.715
	l-0.233,0.094l0.094-0.235l0.233-0.14L54.083,34.715z M55.58,34.715l0.046-0.281l0.141,0.421l0.048,0.562l-0.234-0.421V34.715z
	 M55.72,65.445l0.095-0.234l0.092,0.234H55.72z M55.906,64.323l0.235-0.094v0.28l-0.235,0.093V64.323z M56.142,66.894l-0.141-0.327
	l0.093-0.325l0.141,0.139L56.142,66.894z M56.142,28.962l-0.048-0.234l0.188,0.094l0.047,0.281L56.142,28.962z M56.421,28.681
	l-0.093-0.187v-0.28l0.187,0.187L56.421,28.681z M58.152,61.843h-0.187v-0.187h0.187V61.843z M60.023,60.628l0.28,0.42l-0.187-0.047
	L60.023,60.628z M60.49,64.744l-0.232-0.142l-0.048-0.373l0.235,0.094l0.14,0.187L60.49,64.744z M60.726,62.404H60.49l0.095-0.188
	l0.233-0.045L60.726,62.404z M62.643,63.807l-0.188-0.279h0.281L62.643,63.807z M63.677,60.097h-5.274l-0.156,0.156l-0.063-0.156
	h-1.455v-6.944h6.948V60.097z M58.012,29.57l-0.046-0.935l-0.095-0.234l0.328,0.421l0.141,1.122l-0.188,2.011l-0.141-0.093
	l-0.141-0.889l0.141-0.654l0.141-0.187L58.012,29.57z M57.918,32.563l0.048-0.281l0.187,0.188v0.328l0.094-0.141l0.188,0.42
	l-0.094,0.235l-0.281,0.094l-0.188-0.515L57.918,32.563z M58.34,36.352h0.141v0.187H58.34V36.352z M58.386,37.708l-0.187,0.047
	l-0.188-0.141l-0.046-0.326h0.374L58.386,37.708z M57.966,48.607l0.233,0.139l0.047,0.328l-0.094,0.234l-0.187-0.141l-0.095-0.28
	L57.966,48.607z M60.21,30.74v0.187l0.28-0.094l0.095,0.514h-0.188l-0.139-0.187l-0.048-0.233h-0.187V30.74H60.21z M60.023,29.711
	l0.094-0.562l0.187,0.421l-0.094,0.234L60.023,29.711z M60.771,35.511l-0.14,0.747l-0.187-1.73l0.045-0.327l0.235,0.14l-0.048,0.608
	L60.771,35.511z M60.21,44.397l0.141,0.187l-0.141,0.234l-0.093-0.188L60.21,44.397z M60.023,40.889v-0.234l0.094-0.233l0.187,0.188
	l-0.094,0.42L60.023,40.889z M60.21,43.181l0.187-0.188l0.094,0.327L60.21,43.181z M60.396,42.152l-0.093,0.141l-0.094-0.234
	l0.187-0.186l0.188,0.279H60.396z M60.21,32.891h0.187v0.186H60.21V32.891z M60.164,31.909l-0.047-0.234v-0.234h0.279v0.514
	L60.164,31.909z M60.304,36.446L60.21,36.96l-0.233-0.187l0.047-0.234L60.304,36.446z M60.023,51.085v-0.233l0.187,0.14v0.233
	l-0.233,0.048L60.023,51.085z M62.876,42.199l-0.14,0.375l-0.281-0.516l0.094-0.374h0.281l-0.047,0.328L62.876,42.199z
	 M62.643,46.082l-0.094,0.28l-0.188-0.235l0.094-0.28L62.643,46.082z M62.736,47.25h-0.281v-0.186L62.736,47.25z M62.97,52.582
	h0.187v0.188H62.97V52.582z M63.693,28.254h-7.025v-1.258c0-1.716,0.004-3.432-0.004-5.149c0-0.345,0.014-0.607,0.484-0.604
	c0.381,0.004,0.762,0.002,1.143,0.004l0.002-0.002l0.047-0.375l0.234,0.281l-0.053,0.096c0.562,0.003,1.122,0.004,1.684,0.005
	l0.005-0.007v0.007c1.083,0.002,2.165,0.006,3.248,0.009c0.067,0,0.135,0.04,0.235,0.071V28.254z M64.514,59.13l-0.188-0.187
	l0.188-0.562v-0.281l0.186,0.563L64.514,59.13z M64.748,56.278l-0.281,0.093l0.093-0.281l0.328-0.045L64.748,56.278z M64.699,49.121
	v-0.233l0.188,0.14L64.699,49.121z M64.699,41.778l0.095-0.327l0.141,0.187L64.699,41.778z M64.794,26.203l-0.095-0.281v-0.281
	l0.33,0.328l0.092,0.514L64.794,26.203z M66.572,26.67l0.047-0.327l0.094,0.093l0.046,0.655l-0.233-0.141L66.572,26.67z
	 M66.852,63.387l-0.139-0.468v-0.842l0.279,0.654L66.852,63.387z M66.945,60.253l-0.326-0.094l0.187-0.188l0.327-0.047
	L66.945,60.253z M67.227,50.151l-0.188-0.142l-0.094-0.28l0.188-0.095l0.094,0.188V50.151z M67.086,42.667l-0.234,0.14l0.094-0.281
	l0.281-0.14L67.086,42.667z M68.957,50.946l0.14,0.327l-0.14-0.094V50.946z M69.378,66.894l-0.187-0.046l-0.188-0.093l0.374-0.094
	V66.894z M69.283,60.441l-0.14-0.234v-0.234l-0.047-0.327l0.281,0.094L69.283,60.441z M69.097,58.382l-0.093-0.233l0.047-0.28
	l0.141-0.188l0.139,0.188l0.048,0.326L69.097,58.382z M69.378,45.332l-0.095-0.187h-0.092l-0.188-0.562V44.21h0.279l0.142,0.795
	L69.378,45.332z M69.378,29.711l-0.187-0.469v-0.888l0.092-0.187l0.235,0.42L69.378,29.711z M69.564,20.824l-0.373-0.094v-0.281
	l0.092,0.188l0.188-0.281l0.094,0.187V20.824z"/>
<g>
</g>
<g>
</g>
<g>
</g>
<g>
</g>
<g>
</g>
<g>
</g>
</svg>
