<?xml version="1.0" encoding="utf-8"?>
<!-- Generator: Adobe Illustrator 20.1.0, SVG Export Plug-In . SVG Version: 6.00 Build 0)  -->
<svg version="1.1" xmlns="http://www.w3.org/2000/svg" xmlns:xlink="http://www.w3.org/1999/xlink" x="0px" y="0px"
	 viewBox="0 0 195 192" style="enable-background:new 0 0 195 192;" xml:space="preserve">
<style type="text/css">
	.st0{clip-path:url(#SVGID_4_);fill:#040607;}
	.st1{fill:#FFFFFF;}
	.st2{clip-path:url(#SVGID_14_);}
	.st3{fill-rule:evenodd;clip-rule:evenodd;fill:#FFFFFF;}
	.st4{clip-path:url(#SVGID_16_);}
	.st5{clip-path:url(#SVGID_18_);}
	.st6{clip-path:url(#SVGID_20_);}
	.st7{clip-path:url(#SVGID_22_);}
	.st8{fill-rule:evenodd;clip-rule:evenodd;fill:#89C8C9;}
	.st9{fill:#89C8C9;}
	.st10{clip-path:url(#SVGID_24_);}
	.st11{clip-path:url(#SVGID_26_);fill:#FFDE37;}
	.st12{clip-path:url(#SVGID_26_);}
	.st13{fill-rule:evenodd;clip-rule:evenodd;fill:#FFDE37;}
	.st14{fill:#FFDE37;}
	.st15{clip-path:url(#SVGID_28_);}
	.st16{fill-rule:evenodd;clip-rule:evenodd;fill:#40342D;}
	.st17{fill:#40342D;}
	.st18{fill-rule:evenodd;clip-rule:evenodd;fill:#DEC937;}
	.st19{fill:#F9F6F7;}
	.st20{fill:#49392F;}
	.st21{fill-rule:evenodd;clip-rule:evenodd;fill:#F9F6F7;}
	.st22{fill:#333332;}
	.st23{fill:none;stroke:#40342D;stroke-miterlimit:10;}
</style>
<g id="Capa_1">
</g>
<g id="Capa_2">
	<g>
		<path class="st1" d="M45.9,23.1h6.5c0,0.1,0,0.2,0,0.3s0,0.2,0,0.4c0,2.1-0.6,3.9-1.8,5.2s-2.8,2-4.7,2c-2.2,0-4-0.7-5.5-2.1
			s-2.2-3.2-2.2-5.4c0-2.2,0.7-3.9,2.2-5.4c1.4-1.4,3.3-2.1,5.5-2.1c1.2,0,2.2,0.2,3.2,0.7s1.8,1.2,2.6,2.2l-2.1,1.5
			c-0.5-0.6-1.1-1.1-1.6-1.4s-1.2-0.4-2-0.4c-1.4,0-2.5,0.4-3.4,1.3s-1.3,2.1-1.3,3.5c0,1.4,0.4,2.6,1.3,3.5s2,1.3,3.3,1.3
			c1,0,1.8-0.2,2.4-0.7s0.9-1.1,0.9-1.9v-0.2h-3.4V23.1z"/>
		<path class="st1" d="M53.2,30.7l5.4-14.3h3.5l5.5,14.3h-3.5l-1.2-3h-5.5l-1,3H53.2z M62.3,25.2l-1.6-4.6c0-0.1-0.1-0.4-0.2-0.7
			s-0.1-0.7-0.2-1.2c-0.1,0.5-0.2,0.9-0.2,1.2s-0.1,0.6-0.2,0.7l-1.5,4.6H62.3z"/>
		<path class="st1" d="M69.1,30.7V16.4h3.1v11.7h4.9v2.6H69.1z"/>
		<path class="st1" d="M79,30.7V16.4h8.4V19H82v2.9h5.4v2.6H82v3.6h5.4v2.6H79z"/>
		<path class="st1" d="M100.7,30.7h-3.5L93.5,24v6.7h-3.1V16.4h4.4c1.7,0,3,0.3,3.9,1s1.3,1.7,1.3,3c0,1-0.3,1.8-0.9,2.5
			s-1.4,1.1-2.3,1.2L100.7,30.7z M93.5,22.5h0.5c1.2,0,2.1-0.1,2.5-0.4s0.6-0.7,0.6-1.4c0-0.7-0.2-1.2-0.6-1.5s-1.2-0.4-2.4-0.4
			h-0.5V22.5z"/>
		<path class="st1" d="M107,11.4l-3.1,3.6h-1.4l1.9-3.6H107z M102.6,30.7V16.4h3.1v14.3H102.6z"/>
		<path class="st1" d="M107.2,30.7l5.4-14.3h3.5l5.5,14.3h-3.5l-1.2-3h-5.5l-1,3H107.2z M116.3,25.2l-1.6-4.6c0-0.1-0.1-0.4-0.2-0.7
			s-0.1-0.7-0.2-1.2c-0.1,0.5-0.2,0.9-0.2,1.2s-0.1,0.6-0.2,0.7l-1.5,4.6H116.3z"/>
		<path class="st1" d="M129.3,30.7V16.4h3.9c1.5,0,2.7,0.1,3.6,0.3c0.9,0.2,1.7,0.6,2.3,1.1c0.9,0.6,1.5,1.5,2,2.4s0.7,2.1,0.7,3.3
			c0,1.3-0.2,2.4-0.7,3.4s-1.1,1.8-2,2.4c-0.7,0.5-1.4,0.8-2.2,1s-2,0.3-3.5,0.3h-1.1H129.3z M132.4,28.1h1.7c1.6,0,2.8-0.4,3.5-1.1
			s1.1-1.9,1.1-3.5c0-1.6-0.4-2.7-1.1-3.5s-1.9-1.1-3.5-1.1h-1.7V28.1z"/>
		<path class="st1" d="M144.4,30.7V16.4h8.4V19h-5.4v2.9h5.4v2.6h-5.4v3.6h5.4v2.6H144.4z"/>
		<path class="st1" d="M32.2,49.6L32.1,50l0.2,0.2l0,0.6l0.1,0.2l-0.2,0.5l0,0.2h-0.3L32,52l-0.2,0.2l0.4,0.5l-0.3,0.2l-0.3,0.3
			L31,53.4l-0.1-0.4l-0.2-0.2l-0.8,0.5l-0.3,0l-0.4-0.3l-0.7,0.1l-0.4,0.2l-0.2,0l-0.3-0.3l-0.2,0.4l-0.8,0.1L25,53.4h-0.5L24,53.6
			h-0.8l-1-0.4l-0.7,0.4L21,53.4l-1,0.1l-2.1,0l-1,0.2l-0.2,0.2l-0.2,0.5l0,1.6l-0.1,1L16.4,57l0.1,0.2l0,0.4l-0.1,0.5l0.2,0.3
			l0.4,0.2l-0.7,0.7l0.2-0.1H17l0.2,0.2l0.1,0.3l0.2,0l0.4-0.4l0.2,0.2l0.1,0.2l1-0.2l0.4-0.3l0.1-0.2h0.2l-0.3,0.6l0.2,0l0.2,0.2
			l0.5-0.4l0.2,0l0.1,0.3l0.3,0l0.2-0.1l0.3-0.5l0.2,0.1l0.3,0l0.1,0.2l0.4-0.1l0-0.3l0.3,0.1l0.2,0.3l0.1-0.4l1.8,0l0.5,0.1
			l0.4,0.2l0.2-0.1l1.5-0.1l0.2-0.1l0.2,0.2l0.1,0.2l0.1-0.1l0-0.2l0.2,0.2h0.2l0.2-0.2l0.7,0.7l0.2,0.2l-0.1,0.9l0.1,1l0.2,0.4
			l-0.1,0.2l0.1,0.8l-0.1,0.2v2l-0.2,0.4l-0.7,0.7l-0.5,0.2L28,66.7l-0.2-0.2l-1.2,0.2l-1.1,0l-1-0.3l-0.2,0.2l-0.5,0.1l-1.1,0
			l-0.5,0.1l-0.4-0.2l-1,0.2h-0.6l-0.5-0.1l-0.5,0.1l-2.1,0L16.9,67l-0.3,0.4l0,0.5l0.1,1.1l0,0.5l-0.2,0.5l0.2,0.5l-0.2,0.5
			l0.2,0.7l-0.2,2l0,1l0.1,0.5l-0.2,0.4l0.2,0.5v0.5l-0.1,0.5l-0.2,0.5L15,77.8l-0.3,0l-0.2-0.2l-0.2,0.1l-0.8,0L13,77.9h-0.8
			l-0.4-0.1l-0.7,0l-0.2-0.1l-0.6,0.1l-0.2-0.2l-0.2,0.1l-0.5,0.1l-0.2-0.1v-0.5l-0.2,0.2l-0.1,0.2l-0.3-0.1L8.2,77v-0.8l-0.1-0.3
			l0.1-0.2l0.1-0.1l-0.1-0.2l-0.1-0.1l0.1-0.5l-0.1-0.5L8,73.8l0.2-0.3l-0.1-0.2v-0.7l0.1-0.8L8,70.8l0.2-0.4l-0.1-0.7L8,69.3
			l0.1-0.9v-1l-0.2-1l0.1-0.2l0.1-0.6l0.1-0.2L8,65l0.2-0.2l-0.1-0.7l0.2-0.2l-0.2-0.2L8,63.4l0.2-0.2l0-0.7L8.3,62l-0.2-0.4
			l0.1-0.8l0-0.5l0.1-0.2l0.2-0.1l-0.3-0.4l0.2-0.5L8,58.7l0.1-1.6L8,56.7l0.3-0.9l-0.1,0L8,55.9v-0.2l0.2-0.2L8,53.8l0.1-0.2
			l0.1-0.5l-0.1-0.7L8,52.3L8,52.1l0-0.5l0.1-0.4L8,48.3l0.1-1.9l0.2-0.9l1.1-0.4h0.5l0.5,0.2l0.5-0.1l1.4-0.1l0.6,0.3l0.3-0.1
			l0.2-0.2l0.2,0.2l1.6-0.1h2.6l0.4-0.1l0.7,0.2l1.5-0.2l0.5,0.2l0.7-0.2l2,0.2l0.2-0.2l0.5,0.1l1.9-0.1l0.4,0.5l0.1-0.3l1-0.2
			l0.5,0l1,0.2l0.4,0.2l0.5-0.2l0.4,0l1.2,0.6l0.2,0v0.5l0.3,0l0-0.5l0.2-0.1l0,0.5l0.1,0.2l0,0.5l0.1,0.5L32.2,48l0.1,0.2L32.2,49
			l0.2,0.5L32.2,49.6z M8.9,65.2H8.7v0.2h0.1V65.2z M9.7,63H9.5v0.2h0.2V63z M9.9,58.5H9.7v0.2h0.1V58.5z M10.2,67.2L10,67.1l0,0.2
			l0.2,0.1V67.2z M10.2,51.1L10,51.2l0.2,0.2h0.3v-0.3H10.2z M10.1,52.1L10,52.3v0.2l0.2-0.1l-0.1-0.5L10.1,52.1z M10,60.7v0.4
			l0.2-0.1l0.1-0.2L10,60.7z M10.2,59.9l0.2,0.2l0.2-0.2l-0.3-0.2L10.2,59.9z M10.4,64l0.1-0.2v-0.5l-0.2-0.2l-0.2,0.4l0,0.5
			L10.4,64z M10.3,56.3l0,0.2l0.1,0l0.1-0.1L10.3,56.3z M10.5,55.5l0.1-0.1l0-0.2l-0.2,0l-0.1,0.1L10.5,55.5z M10.6,62.4l-0.2,0.1
			l-0.1,0.2l0.2,0.1l0.2,0l0.1-0.2l-0.1-0.2L10.6,62.4z M10.9,54l-0.2,0l-0.1,0.2l0.2,0.1h0.3L10.9,54z M10.8,58.2l0.2-0.2l0-0.2
			l-0.1-0.2L10.6,58l0,0.2H10.8z M10.7,61.4l0.2,0l0-0.2l-0.2,0l-0.1,0.2L10.7,61.4z M10.6,66.5l0.1,0.2l0.2,0l0.1-0.2l-0.1-0.3
			h-0.3V66.5z M11.1,67.9l-0.2-0.2L10.9,68L11.1,67.9z M10.9,52.9l0.1,0.2l0.3,0l-0.1-0.5h-0.2L10.9,52.9z M10.9,56.8L11,57l0.3-0.1
			l-0.1-0.2L11,56.6L10.9,56.8z M11.2,59.5l0.2,0.1l0.2,0l0.1-0.3l-0.2-0.1l-0.2,0l-0.2,0.1L11.2,59.5z M11.4,60.3l-0.1-0.2
			l-0.1,0.2l0.2,0.1L11.4,60.3z M11.2,51.9l0.1,0.2l0.3-0.1v-0.2l-0.2-0.2L11.2,51.9z M11.3,71.6h-0.1v0.2h0.1V71.6z M11.4,50.9h0.2
			l-0.2-0.2V50.9z M11.7,54.7l0.1-0.2l0-0.3l-0.3,0.2l0,0.2H11.7z M11.9,63.1l0.1-0.2l-0.1-0.2l-0.2-0.1l-0.1,0.2l0,0.2l0.1,0.2
			l0.2,0.1L11.9,63.1z M12,53.4l-0.1-0.2l-0.2-0.1l-0.1,0.4l0.3,0.1l0.2,0L12,53.4z M12,61.9L11.8,62v0.2l0.2,0l0.1-0.1l0-0.2
			L12,61.9z M12.1,65l0.2,0l0.2-0.1l-0.1-0.3L12,64.4L11.8,65L12.1,65z M12.2,57.7l0.1-0.2l0.1-0.5l-0.2-0.1l-0.3,0.5l0,0.3
			L12.2,57.7z M12.1,65.5h-0.2l0.1,0.2L12.1,65.5z M12.4,77.5l-0.1-0.2l-0.2,0l0.1,0.2L12.4,77.5z M12.2,47.5l0.1,0l-0.2-0.2
			L12.2,47.5z M12.3,56.2l-0.1,0.1l0.2,0l0.2-0.1L12.3,56.2z M12.3,60.9l-0.1,0.2l0.2,0l0-0.2H12.3z M12.7,62.9L12.5,63l-0.2,0.3
			h0.3L12.7,62.9z M12.4,67.6h-0.1l0,0.2h0.1V67.6z M12.8,50.2l0-0.2l-0.2-0.2l-0.2-0.1l-0.1,0.2l0,0.2l0.2,0.2l0.3,0V50.2z
			 M12.7,51.1l0-0.2l-0.3,0l0.1,0.2L12.7,51.1z M12.9,58.8l-0.2-0.2l-0.2,0l0,0.2l0.2,0.2l0.3,0L12.9,58.8z M12.5,59.9l0.1,0.3
			l0.2-0.4l-0.2-0.2L12.5,59.9z M13,54.2l0.1-0.3h-0.4v0.3L13,54.2z M12.7,61.4l0.1,0.2l0.2,0.1l0.2,0l-0.2-0.5l-0.2-0.1L12.7,61.4z
			 M13,62.7l0-0.3l-0.2-0.1l-0.1,0.2v0.3L13,62.7z M12.9,68.9l-0.2-0.1v0.2L12.9,68.9z M13.1,52.7L13,52.6l-0.2-0.1v0.3l0.1,0.1
			l0.2,0L13.1,52.7z M13,73.9h-0.2v0.2H13V73.9z M13.3,57.1l0.2-0.1l0.1-0.2l-0.1-0.2l-0.2,0.1L13.1,57L13.3,57.1z M13.3,64.3
			l0.2,0.1l0.2-0.1l0-0.2l-0.1-0.1l-0.2,0l-0.1,0.2L13.3,64.3z M13.4,65.3V65L13.2,65v0.4L13.4,65.3z M13.3,47.8l0.2-0.1l-0.2-0.2
			L13.3,47.8z M13.9,59.4l-0.1-0.2l-0.2-0.1l-0.1,0.2l0.1,0.2l0.2,0.1l0.2,0L13.9,59.4z M13.7,49.7l0.2,0.1v-0.5l-0.3,0.1L13.7,49.7
			z M13.6,58.1v0.3l0.3,0.1l0.2,0l-0.1-0.3l-0.3-0.4L13.6,58.1z M13.9,70.6l-0.1-0.2l-0.1,0.3l0.1,0.2L13.9,70.6z M13.8,66.8l0,0.2
			h0.1L13.8,66.8z M14,69.4l-0.2,0.1l-0.1,0.2l0.1,0.1l0.2-0.1l0.2-0.3H14z M14,65.8l0.2,0v-0.2h-0.2L14,65.8z M14,53.7h0.2L14,53.6
			V53.7z M14.2,72.4l0.1-0.2l0,0L14,72.5L14.2,72.4z M14.3,62.3l0.1-0.2l-0.2-0.5l-0.1,0.5l0,0.2L14.3,62.3z M14.2,52.3l-0.1,0.1
			l0.4,0.1v-0.3L14.2,52.3z M14.3,48.8l0.1-0.1h-0.2L14.3,48.8z M14.4,56.2h-0.1l0,0.3l0.3-0.5L14.4,56.2z M14.3,64.6l0,0.2h0.3
			l0.2-0.1l-0.1-0.2l-0.2-0.1l-0.2,0L14.3,64.6z M14.3,47.6l0.2,0.1l0.2-0.1l-0.2-0.2L14.3,47.6z M14.5,60.8l-0.2-0.1l0,0.3l0.2,0.1
			L14.5,60.8z M14.6,63.8l0.2-0.1l-0.1-0.2l-0.2,0.1l-0.1,0.2L14.6,63.8z M14.7,71.1l0.1-0.1v-0.2l-0.3,0.1l0,0.2L14.7,71.1z
			 M14.8,55h-0.2v0.2h0.2L14.8,55z M14.9,50.2l-0.2,0.1l0.1,0.2h0.3l0.2-0.2l-0.1-0.2L14.9,50.2z M14.7,62.5l0.2,0.2h0.2L15,62.4
			l-0.2-0.2L14.7,62.5z M15.1,67.6l0-0.2l-0.2-0.1l-0.1,0.2v0.2l0.2,0.1L15.1,67.6z M15.1,59.1l0.1-0.2l0-0.2l-0.2-0.1L14.8,59
			l0,0.2l0.2,0.1L15.1,59.1z M15.2,66.5l0.1-0.2l-0.2,0l-0.1-0.1l-0.1,0.2l0.1,0.3L15.2,66.5z M15.2,61.8h-0.2V62h0.2L15.2,61.8z
			 M15,49l0.1,0.2l0.2,0l-0.1-0.4L15,48.7L15,49z M15.9,52.1l-0.1-0.2l-0.5-0.3l-0.2,0l0.2,0.5h0.2l0.3,0.4L15.9,52.1z M15.1,52.7
			l0,0.5l0.4,0.1l0.1-0.5l-0.1-0.2l-0.2-0.1L15.1,52.7z M15.2,65l-0.1,0.2h0.3L15.2,65z M15.4,60.7l0.3-0.1l0-0.3L15.3,60l-0.1,0.2
			l0,0.5L15.4,60.7z M15.5,61.5l-0.1-0.2l-0.2,0l-0.1,0.2l0.1,0.2l0.2,0.1V61.5z M15.7,47.9l-0.1,0.2l0.2,0.2l0.1-0.1l0.1-0.3
			L15.7,47.9z M15.8,63.3l0.5,0v-0.3l-0.2-0.3h-0.3l-0.2,0.3l0.1,0.2L15.8,63.3z M16,58.7L15.7,59l0.2,0.1l0.4-0.2l0-0.2L16,58.7z
			 M16.5,49.7l-0.1-0.2L16,49.6l-0.1,0.2l0.3,0.3h0.3V49.7z M16.1,65.8l0.1-0.1l-0.3-0.1v0.2L16.1,65.8z M16.5,48.7l-0.2-0.5
			l-0.2-0.1v0.6l0.1,0.2l0.2,0V48.7z M16.5,64l-0.1,0.2v0.3l0.1,0.2l0.2-0.7L16.5,64z M16.5,61h0.2l0.1-0.2l-0.2-0.1L16.5,61z
			 M16.9,51.3h-0.2l0,0.2l0.2,0V51.3z M16.9,46.7l0.2-0.1l-0.2-0.1L16.9,46.7z M17,62.4l-0.1,0.2l0.2,0.2l0.3,0l0.1-0.2l-0.1-0.2
			l-0.1-0.1L17,62.4z M17.6,49.3l0.2,0l0-0.3l-0.2-0.1L17.3,49l-0.1,0.2L17.6,49.3z M17.5,61.4l-0.2,0l0.1,0.2l0.2,0.1L17.5,61.4z
			 M17.9,52.1l0-0.2L17.7,52l-0.1,0.2L17.9,52.1z M17.6,65.4v0.2h0.2v-0.2H17.6z M18.3,50.9l-0.1-0.2l-0.4-0.3l-0.2,0.2v0.2l0.1,0.2
			l0.5,0.2L18.3,50.9z M17.7,60.7l0.2,0.1v-0.2L17.7,60.7z M18.7,59.4l-0.2,0.2l-0.2-0.2l-0.3,0L17.9,59l0.3,0l0.1,0.2l0.5,0
			L18.7,59.4z M18.2,61.8L18.1,62v0.2l0.2,0.2l0.3-0.4l-0.1-0.3L18.2,61.8z M18.3,63.5l0.2,0.1v-0.3L18.3,63.5z M18.5,48.6l0,0.2
			l0.1,0.2h0.2l0.2-0.2l-0.2-0.2L18.5,48.6z M18.5,64.6l0.1,0.2h0.2v-0.2l-0.1-0.1L18.5,64.6z M18.9,51.7l0.2-0.1l0.1-0.2L19,51.2
			l-0.2,0.1l0,0.2L18.9,51.7z M18.8,47.3h0.1v-0.2h-0.1V47.3z M19.4,50.3l-0.1-0.2l-0.2,0.1L19.4,50.3z M19.2,62.8l0.2,0.1l0.3,0
			l0-0.2l-0.1-0.1l-0.2,0L19.2,62.8z M19.6,48.3l0.2,0.2h0.2l0.2-0.2L20,48.2L19.5,48L19.6,48.3z M19.9,64l-0.2,0l-0.1,0.2H20
			L19.9,64z M20.5,50l0.2-0.1l-0.2-0.1L20.5,50z M20.6,62.2v0.2l0.2-0.1l0-0.2L20.7,62L20.6,62.2z M20.8,61.1L21,61l-0.1-0.1l-0.1,0
			V61.1z M20.9,52.3l0.2,0L21,52.1L20.9,52.3z M21.3,47.4L21,47.5l0,0.3l0.2,0l0.3-0.1v-0.3L21.3,47.4z M21.8,50.4V50l-0.3,0
			l-0.4,0.3l0.2,0.2l0.3,0L21.8,50.4z M22,49.1l0-0.2l-0.2-0.2L21.6,49l0,0.2l0.2,0.2L22,49.1z M22.3,48.3h-0.1v0.2h0.1V48.3z
			 M22.4,47.2L22.2,47l0,0.4l0.2,0L22.4,47.2z M22.3,63.3l0,0.2l0.2,0l0.1-0.2l-0.2-0.2L22.3,63.3z M22.8,50l0.5-0.1l0-0.5l-0.5,0.1
			l-0.1,0.1V50L22.8,50z M22.8,47.2l0.2,0.1L22.8,47V47.2z M23.2,52.7l0-0.2l-0.2,0l-0.1,0.2L23.2,52.7z M23.6,51.3l0-0.2l-0.2-0.2
			l-0.3,0v0.2l0.2,0.4l0.2,0L23.6,51.3z M24,49.5l0.2-0.1l0.1-0.2l0-0.3l-0.2,0l-0.1,0.2l-0.3,0.3L24,49.5z M24,47.8V48l0.2,0.2
			l0.2,0.1l0.1-0.2l0-0.2l-0.1-0.2l-0.2-0.1L24,47.8z M24.6,52l0-0.2h-0.2L24.3,52l0.1,0.2l0.3-0.1L24.6,52z M24.7,50.8l0.2-0.4
			l-0.2-0.1l-0.2,0.1l-0.1,0.2l0,0.2L24.7,50.8z M24.7,63.8h0.1l0.1-0.2h-0.2L24.7,63.8z M24.9,51.2L24.8,51v0.2L24.9,51.2z
			 M25.4,48.9l0.5,0l-0.1-0.2l-0.2-0.1h-0.2l-0.2,0.1l-0.1,0.2L25.4,48.9z M25.2,47.5l0.2,0.1v-0.2l-0.2-0.2V47.5z M26.7,48.4
			l0.2-0.1l0.1-0.2L26.8,48l-0.3,0.1l-0.1,0.2L26.7,48.4z M26.9,46.7l-0.2,0v0.2l0.1,0.2l0.2,0.1l0.2-0.2v-0.3L26.9,46.7z M27,51.1
			l0.2,0.1l0.2,0l0-0.3l-0.2-0.1L27,50.8L27,51.1z M27.5,49.9l0-0.5l-0.2-0.2l-0.2,0l0.1,0.7l0.2,0.1L27.5,49.9z M28.2,47.8l0.1-0.2
			l-0.5,0.1l0.2,0.2L28.2,47.8z M28.8,49.4l-0.2-0.1v0.2h0.2L28.8,49.4z M31.4,45.6l-0.5-0.1v-0.3l0.2,0l0.4,0.2L31.4,45.6z
			 M31.6,52.6h-0.2v0.2h0.2L31.6,52.6z M31.8,48.8h-0.1V49h0.1V48.8z"/>
		<path class="st1" d="M63.9,46.2h0.5l2.2,1.4l0.2,0.3l0.1,0.2l0.2,0l0.7,0.4l0.5,0.5l0.2,0.5v0.2l0.1,0.2h0.5l-0.1,0.2l0.2,0.2
			l0,0.2l1,0.5l0.3,0.4l-0.1,0.2h-0.2l0.1,0.3l0.2,0.1l0.1,0.3L71,52l0.1,0.3l0.3,0.4l0.4,0.2l0.1,0.3l0.4,0.6v0.5l0.3,0.3l0.2,0.5
			v0.2l-0.1,0.2l0.2,0.1l0.3,0.4l0.2,0.5l0,0.5l0.4,0.6l0.1,0.5l0,1.1l0.3,0.5l-0.2,4l-0.4,1.5l0,0.5l-1,1.8l-0.1,1l-0.9,1.7
			l-0.5,0.4L71,71.2L70.2,72l0,0.4l-0.4,0.3l-0.1,0.2l-1.5,1.2l-2,1.5l-0.7,0.3l-0.3,0.4l-0.8,0.5l-0.2,0.2l-1.1,0.2l-1.6,0.7
			l-0.2-0.3l-0.3,0l-0.5,0.5l-0.2-0.2L59,78.2l-1,0l-0.2-0.1l-0.4,0.3l-0.5-0.1l-1,0.1l-0.4,0l-0.4-0.3l-0.6,0.2L54.2,78L54,77.9
			L53.8,78l-0.5,0l-0.7-0.2l-0.2-0.1H52l-0.6-0.4L51,77.5l-1.1-0.7l-0.2,0l-0.2,0.1L49,76.5l-0.7-0.4h-0.2l-0.3-0.4l-1-0.4l-0.1-0.2
			l0.1-0.2l-0.5-0.1l-0.4-0.2L45.3,74L45,73.4h-0.4L44.3,73l-1-0.7l-0.5-0.9l-0.7-0.7v-0.3l-0.6-0.8L41.4,69l-0.3-0.3l-0.2-0.5
			l-0.4-1.5l-0.3-0.3l0-0.2l0.2-0.1l0-0.2l-0.3-0.1l-0.5-1.5l-0.2-0.2l0.2-0.5l-0.2-0.6l0.1-1.6l0-0.5l-0.2-0.5l0.2-0.9v-0.8
			l0.3-0.3l-0.2-0.5l0.2-1l0.4-1l0.2-0.2l0.1-0.6l0.2-0.5l0.3-0.3l0-0.6l0.3-0.4l0.1-0.5l1-1.4l0.1,0.2l0.1-0.5l0.5-0.2v-0.3h0.5
			l-0.1-0.2l-0.2-0.1l0.3-0.3l0.3,0l0.2-0.6l0.6-0.1l0.2,0.1v-0.2L45,49.2l0.1-0.2l0.3-0.2l0.5-0.1l0-0.2l0.3-0.4l0.9-0.5l0.1-0.4
			l0.5,0l0.4-0.3l0.9-0.5l2-0.7l0.9-0.5l0.2,0l0.3,0.1l0.8-0.2h0.5l0.2-0.1l0.5-0.1l0.4-0.2l0.3,0.2l2.1-0.2l0.5,0.1l0.2,0l0.2-0.1
			l0.7,0.2l0.5,0l0.2,0.2l1,0.3l0.2-0.1l1.3,0.1l0.1,0.2l0.5,0.2l0.5,0.1l0.4,0.2L63.9,46.2z M40,59.4l0-0.2h0V59.4z M40.6,66.6
			l0.3-0.2l-0.2,0L40.6,66.6z M41.4,63.1l0.1,0.2l0.2-0.1l0.1-0.2h-0.2L41.4,63.1z M42,62.2L41.7,62v0.2L42,62.2z M42.1,65.2h0.3
			v-0.3l-0.2-0.1L42.1,65V65.2z M43.1,62.6l-0.2,0.1l0.1,0.1L43.1,62.6z M43.5,64.6l0-0.3l-0.2-0.1l0,0.2l0.1,0.2L43.5,64.6z
			 M43.3,65.7l0.1-0.2l-0.1-0.5L43.2,65l0,0.5L43.3,65.7z M43.5,68.2l0.3,0.2l0-0.3l-0.2-0.2L43.5,68.2z M43.7,63.3h0.1v-0.1h-0.1
			V63.3z M44.4,56.6h0.2l0.1-0.2l-0.2-0.1V56.6z M44.7,60.2l0-0.3h-0.2l0,0.2L44.7,60.2z M44.4,64.1l0.2,0l0.2-0.1l0.1-0.2l-0.2,0
			l-0.1,0.1L44.4,64.1z M44.9,66.8l0.2,0.1l0.2-0.1v-0.2l-0.2-0.1L45,66.6L44.9,66.8z M45.1,58.9l0-0.2l-0.2,0L45.1,58.9z
			 M45.1,69.4h0.2v-0.2h-0.2V69.4z M45.4,70.5l0.1-0.3h-0.3v0.2L45.4,70.5z M45.5,52.1l0.2-0.4l-0.2,0.1L45.4,52L45.5,52.1z
			 M45.6,53.4l0.1-0.3l-0.2,0.1L45.6,53.4z M45.7,52.8l-0.2-0.1v0.2L45.7,52.8z M45.6,63.6l0.2-0.1l0-0.3l-0.2,0l0,0.2L45.6,63.6z
			 M45.9,64.4l0-0.3l-0.2-0.1l-0.1,0.2l0.1,0.2L45.9,64.4z M45.9,54.8L45.9,54.8l-0.1-0.2L45.9,54.8z M45.9,57.5l0.4,0.1v-0.4
			l-0.2-0.1l0,0.2L45.9,57.5z M46.2,53.7l0,0.2l0.2,0l0-0.2H46.2L46.2,53.7z M46.2,58.7l0.2,0.1l0.1-0.2l-0.2,0L46.2,58.7z
			 M46.3,70.1l0.2-0.1l0.1-0.2l-0.2-0.1l0,0.2L46.3,70.1z M46.9,60l-0.1-0.2l-0.3,0l0.1,0.3L46.9,60z M46.9,64.3h0.2v-0.2h-0.2V64.3
			z M47.2,71.7l0-0.4l-0.2,0l-0.1,0.2l0.1,0.2L47.2,71.7z M47.2,72.8l0-0.3l-0.2-0.1l0,0.3L47.2,72.8z M47.3,57h0.3l0.2-0.2
			l-0.1-0.2l-0.2-0.1l-0.1,0.3L47.3,57z M47.9,73l-0.1-0.2L47.6,73L47.9,73z M48,68.2l0-0.2l-0.1-0.1l0,0.2L48,68.2z M56.7,52.4
			l-0.3,0.3l-0.2,0.1l-0.8-0.1l-0.2,0.1L54.8,53l-0.5,0l-0.1,0.3l-2,0.8l-0.3,0.4l-0.3,0.1l-0.2,0.3L51,55.1l-1,1.1l-0.2,0.1
			l-0.1,0.5l-0.4,0.4l-0.8,1.3v0.5l-0.2,0.7l-0.1,0.2l0.1,0.5L47.9,61l0.1,0.5V62l0.2,0.7l-0.1,0.2l0.4,1l0.1,0.8l1.1,1.7l1.6,1.9
			h0.3l0.2,0.1l0.3,0.4l0.5,0.1l1.2,0.7l1.2,0.3l0.2,0.2l0.2-0.1l0.2,0l0.5,0.3l0.1-0.2l0.2-0.1l0.7,0.2l0.2-0.2l0.2,0l0.2,0.1
			l0.9,0.1l0.2-0.3l0.2-0.2l0.5,0.2l0.8-0.6l0-0.2H61l0.2-0.5l0.4-0.3l0.9-0.5H63l0.3-1l0.3-0.4l0.4-0.2l0.2-0.4l0.1-0.5l0.2,0.1
			l0.2,0l-0.2-0.2l0-0.2l0.2-0.5l0.3-0.4h0.3l-0.2-0.6l0.2-0.2l-0.1-0.5l0.1-2l0-1l-0.2-0.6V59l-0.4-1l-0.5-0.9l0.2-0.2l0.1-0.3
			l-0.3,0.1L64.2,57l-0.1-0.2l0.2-0.2l-0.5-0.2l-0.3-0.3l-0.2-0.5l0-0.2l-0.5-0.2l0-0.3l-0.5-0.1L62,54.6l-0.1-0.2l0.1-0.2l-0.5,0
			l0-0.3L61,53.4v0.5l-1.4-0.6l-0.4-0.3l0-0.5l-0.3,0l-0.4,0.3l-0.5-0.2l-0.4-0.3l0,0.4l-0.1,0.1l-0.2-0.1L57,52.5L56.7,52.4z
			 M48,55l0.2-0.1v-0.2H48V55z M48.1,72.2l0.2,0.1h0.3l-0.1-0.5l-0.2-0.1L48.1,72L48.1,72.2z M48.6,71.2L48.5,71l-0.2-0.1l-0.1,0.2
			l0.2,0.2L48.6,71.2z M48.8,48.7h0.2v-0.2h-0.2V48.7z M49.3,69.3v-0.5h-0.2l0.1,0.5L49.3,69.3z M49.3,71.8l0.2,0.1l0.2-0.1l0-0.2
			l-0.3,0L49.3,71.8z M49.8,72.9l0,0.3l0.1,0.2l0.3-0.1v-0.5L49.8,72.9z M49.8,74.3l0.3,0.1l0-0.2L49.9,74L49.8,74.3z M50.4,49.9
			l0.3,0.2l0-0.2l-0.2-0.1L50.4,49.9z M50.5,71.1l0.1,0.2H51l0.1-0.2l-0.2-0.1h-0.3L50.5,71.1z M51.4,72.6v-0.2l-0.3,0L51,72.5
			l0.1,0.1L51.4,72.6z M51.5,75.5H52l-0.1-0.2l-0.2-0.1L51.5,75.5z M52.1,48.8h0.3l-0.2-0.2L52.1,48.8z M52.5,72.1v-0.3l-0.2,0.1V72
			L52.5,72.1z M53.1,75.2l0.2-0.5L53,74.4l-0.1,0.2v0.6L53.1,75.2z M53.3,74l0.2-0.2h-0.2L53.3,74z M54.1,49.7l0.2,0l0.1-0.2
			l-0.2-0.1L54.1,49.7z M54.1,74.6l0.2,0.1l0.3-0.1l-0.1-0.5L54.3,74l-0.2,0.4L54.1,74.6z M54.4,75.5l-0.1-0.3h-0.3v0.3l0.2,0.1
			L54.4,75.5z M54.6,46.5h0.1l-0.1-0.2L54.6,46.5L54.6,46.5z M55,72.6l0.1-0.2l-0.2-0.2l-0.2,0.2L55,72.6z M55,50.3l0.3,0.1
			l-0.1-0.2L55,50.3z M55.1,49.2l0.4,0.2l0.2-0.1L55.6,49L55.4,49L55.2,49L55.1,49.2z M55.2,75l0.2,0.2l0.2-0.1l-0.2-0.2L55.2,75z
			 M55.3,74.1l0.4,0l0-0.2l-0.1-0.3l-0.2-0.1l-0.2,0.3V74.1z M55.7,48.2l0-0.5l-0.2,0l-0.1,0.2l0.1,0.2L55.7,48.2z M56.1,47.3
			L56.1,47h-0.2l0.1,0.2L56.1,47.3z M55.8,50.2l0.1,0.2l0.1,0.5l0.2,0.1l-0.1-0.3v-0.5l0.2-0.4l-0.3,0L55.9,50L55.8,50.2z
			 M56.3,48.7l0.2,0.1l0.3-0.3v-0.2l-0.5,0.1L56.3,48.7z M56.8,73.4v-0.3L56.6,73l0,0.2L56.8,73.4z M56.7,76.2l0.2,0l0.3-0.3
			l0.1-0.2h-0.5L56.8,76L56.7,76.2z M57.3,50.2l0.2-0.3l-0.2-0.1L57.1,50L57.3,50.2z M57.4,50.7h0.2v-0.2h-0.2V50.7z M57.5,49.5
			l0.2,0l0-0.2l-0.2,0L57.5,49.5z M58.1,72.7l0-0.2l-0.2-0.1h-0.2l0.1,0.2L58.1,72.7z M57.7,48.2l0.4,0.2L58,47.8l-0.2-0.1l-0.1,0.2
			V48.2z M57.8,73.1h0.3v-0.2L58,72.8l-0.1,0.2L57.8,73.1z M58.2,50.9h0.5l-0.4-0.4v0.2L58.2,50.9z M58.2,72.1h0.1v-0.2h-0.1V72.1z
			 M58.8,74.8v-0.2l-0.2,0L58.8,74.8z M58.9,49.1l0.1-0.3h-0.3V49L58.9,49.1z M58.7,73.5l0.1,0.2l0.2,0.1l0.2-0.5l-0.2,0l-0.1,0.2
			L58.7,73.5z M59,72.4h0.5v-0.5l-0.2,0L59,72.1L59,72.4z M59.3,47.8l0.2,0.1l0.1-0.2l-0.2,0L59.3,47.8z M59.4,71.6l0.2-0.1
			l-0.2-0.2V71.6z M60,48.4L60,48.4L60,48.2L60,48.4z M60,71.8h0.3l0.2,0.1l0.1-0.5l-0.2-0.1l-0.3,0.2L60,71.8z M60.3,73.1l0.1-0.2
			l-0.1-0.2l-0.2-0.1L60,72.9l0.1,0.2L60.3,73.1z M60.3,52.2h0.2L60.4,52L60.3,52.2L60.3,52.2z M60.5,51.2l0.2-0.2l0-0.3l-0.2,0.1
			l-0.1,0.2L60.5,51.2z M60.4,75.6l0.1,0.2h0.2v-0.2L60.4,75.6z M60.6,74.5l0.5-0.1l-0.1-0.2h-0.2L60.6,74.5z M61,72.3l0.1,0.2h0.5
			v-0.2l-0.4-0.1L61,72.3z M61.5,52.6l-0.1-0.2l-0.3-0.1l0.1,0.2L61.5,52.6z M61.2,71.2l0.5,0.3l0.1-0.4v-0.3l-0.2-0.1l-0.2,0.1
			L61.2,71L61.2,71.2z M61.7,77.5l0.1-0.3l-0.3-0.1v0.3L61.7,77.5z M61.7,75.2H62l0.1-0.1h-0.2L61.7,75.2z M62,73.9h0.2l0.2-0.1
			l0-0.2l-0.2,0L62,73.6L62,73.9z M62.2,49.4l0.1-0.2V49h-0.2L62,49.2L62.2,49.4z M62,72.5h0.2v-0.2H62V72.5z M62.2,51.7l0,0.2
			l0.2,0.2l0.2,0.1l-0.1-0.6l-0.2,0H62.2z M62.9,51v0.1l0.2,0.1l0.1-0.2l-0.1-0.1L62.9,51L62.9,51z M62.9,70.9l0.2,0l0.1-0.1l0-0.4
			h-0.3V70.9z M63,50l0.3,0.2l0.2-0.1l-0.1-0.2l-0.2,0L63,50z M63.5,73.8l0.2-0.2l-0.1-0.5L63.4,73l-0.3,0v0.5l0.2,0.2L63.5,73.8z
			 M63.3,49l0.3,0l0.1-0.2l-0.1-0.1l-0.2,0.1L63.3,49z M63.7,52.6l-0.3,0l0.2,0.1L63.7,52.6z M63.9,51.7l0.1-0.2l-0.3-0.1l0,0.2
			L63.9,51.7z M64.3,69.8l-0.3,0L63.9,70l0.1,0.2l0.2,0.1l0.2-0.1l0-0.3L64.3,69.8z M64.1,50.1l0.1-0.1l0-0.2L64,49.8L64.1,50.1z
			 M64.1,50.4v0.2l0.2,0.1l0.1-0.1v-0.2H64.1L64.1,50.4z M64.2,49.3l0,0.2h0.2l0.1-0.1v-0.2l-0.1-0.1L64.2,49.3L64.2,49.3z
			 M64.8,68.2H65l0.1-0.2l-0.2-0.1L64.8,68.2z M65.2,70.9l0-0.2l-0.2-0.1l0,0.2L65.2,70.9z M65.2,50.9L65,51l0.1,0.1L65.2,50.9z
			 M65.6,69.5L65,69.4l0,0.2l0.2,0.1l0.3-0.1L65.6,69.5z M65.5,55l-0.1-0.2l-0.2,0l0,0.3L65.5,55z M65.5,72.1l-0.2,0l0.1,0.2
			L65.5,72.1z M65.5,53.7l0.2-0.1l-0.1-0.2L65.5,53.7z M65.9,68.7l-0.1-0.2l-0.3,0l0,0.3H65.9z M65.6,52.7h0.2v-0.2h-0.2L65.6,52.7z
			 M66.2,51.8l0-0.2L66,51.3l-0.2,0l0.2,0.4L66.2,51.8z M65.8,72l0.1,0.2H66l0.1-0.2L66,71.9L65.8,72L65.8,72z M66.1,66.2l0.1,0.3
			l0.2-0.1l0.1-0.2l-0.2,0L66.1,66.2z M66.2,50.2l0,0.2l0.2,0l0.2-0.1l-0.1-0.2l-0.2,0L66.2,50.2z M66.2,68.8l0.3,0.5l0.2,0.1
			l0.1-0.2l0-0.5l-0.5,0.1L66.2,68.8z M66.8,53.4l0.1-0.2v-0.3l-0.5-0.1l0.2,0.5L66.8,53.4z M66.4,54.3l0.2,0.1l0.2,0l-0.1-0.2
			L66.4,54.3z M66.6,51.4L67,52l0,0.2l0.2-0.1v-0.6l-0.4-0.2L66.6,51.4z M66.8,64.4h0.2l0.1-0.2l-0.2-0.1V64.4z M67.3,58.7l0-0.3
			L67,58.3l0,0.3L67.3,58.7z M67.1,49h0.2l0.1-0.2l-0.3-0.1V49z M67.2,54.2l0,0.2l0.3,0.2l0.1-0.2l-0.1-0.2l-0.2-0.1L67.2,54.2z
			 M67.2,65.7l0.1,0.2v0.3l0.5-0.2l0.1-0.2l-0.1-0.2h-0.4L67.2,65.7z M67.6,53.8h0.2l0.1-0.2h-0.3V53.8z M67.6,57.4h0.2l-0.1-0.2
			l-0.1-0.1V57.4z M67.8,65l0-0.2l-0.2-0.1l0,0.2L67.8,65z M68.1,52.9v-0.3l-0.4-0.1l0,0.2l0.2,0.1L68.1,52.9z M68,68.7h0.2v-0.1H68
			V68.7z M68.2,55.4h0.2l0.1-0.2l-0.3,0V55.4z M68.4,57.7l0.1,0.3l0.2-0.1l0.1-0.2l-0.2-0.2L68.4,57.7z M68.7,53.5H69l-0.1-0.2h-0.2
			L68.7,53.5z M68.8,65.5l0.2-0.1l0.1-0.2l0-0.2L68.8,65l-0.1,0.2L68.8,65.5z M68.8,57.1l0.2,0.1l0.1-0.2v-0.3L69,56.5l-0.3-0.1
			l0.1,0.5V57.1z M69.5,68.3l0-0.3l-0.2-0.4L69,67.8v0.3l0.2,0.2L69.5,68.3z M69.2,63.3l0.2,0.1l0.2-0.2l-0.3-0.1L69.2,63.3z
			 M69.2,56l0.2,0l0.1-0.2l-0.2,0L69.2,56z M69.4,54.8l0.3-0.1l-0.1-0.2l-0.2-0.1l-0.1,0.2L69.4,54.8z M69.6,52.2l-0.1-0.2l-0.2,0
			l0.1,0.2L69.6,52.2z M69.8,50.4l-0.2-0.1l-0.1-0.1l0.2,0L69.8,50.4z M69.8,67.2L69.8,67h-0.3l0.1,0.2L69.8,67.2z M69.5,62.1
			l0.2,0.2l0.1-0.4l-0.3-0.1V62.1z M69.8,66.1h0.2V66h-0.2V66.1z M70.1,65.3l0.2-0.1l0.1-0.2v-0.3l-0.5-0.2l-0.1,0.2L70,65
			L70.1,65.3z M70.1,56.7l0.2-0.1l-0.1-0.2L70.1,56.7z M70.5,67.6l0-0.3l-0.2-0.1l-0.1,0.2l0.1,0.2H70.5z M70.6,59h0.1l-0.1-0.2
			L70.6,59L70.6,59z M71.1,56.9l0.1,0.2l0.2-0.2H71.1z M71.3,64.3l0.3,0.2l-0.1-0.5L71.3,64l-0.1,0.2L71.3,64.3z M71.7,58.7l0.2-0.1
			l0.1-0.3l-0.2-0.1l-0.1,0.2V58.7z M71.9,61.1h0.2l0.1-0.2l-0.2-0.1V61.1z"/>
		<path class="st1" d="M109.1,48.9l0,0.5l0.1,0.7l-0.1,0.2l-0.2,0.1l0.1,0.2v0.2l-0.2,0.8l0.3,0.2l-0.2,0.5h-0.2l0,0.2l0.1,0.5
			l-0.5,0.2l-0.9,0.1l-0.4,0.2l-0.4-0.1l-1,0.1l-0.5-0.1l-0.2-0.1l-0.5,0.2h-1.1l-0.4-0.2l-0.1-0.2l-0.4,0.2l-0.8,0.1l-0.5-0.2
			l-0.4,0.2l-0.5,0l-0.2-0.1l-0.3,0.3l-0.5,0.2h-0.2l-0.1,0.2L99,54.4l-0.1,1.9l-0.1,0.5l0.3,0.5L99,57.5l-0.4,0.3l0,0.2L99,58
			l0.1,0.2l0,0.3l-0.2,0.2l0.1,0.2v0.5l-0.2,0.9l0.3,0.2l-0.1,0.8v0.5l0.1,0.5l-0.3,0.1l0.3,1.3L99,64.2l-0.1,0.2l0.3,0.5l-0.1,0.2
			l0,1.2l-0.2,0.2l0.3,0.7l-0.2,0.4l0.1,0.8l0,1l0.1,0.9L98.9,71l0.1,1l-0.3,0.4l0.1,0.2L99,73l0,1l-0.2,0.5l-0.1,0.5l-0.2,0.2
			l0.3,0.1l0.1,0.2l-0.2,1l0.2,0.1l-0.2,0.3l0,0.2l-0.2,0.1l-0.2,0.4l-0.8,0.1l-0.5-0.2l-0.2,0.1l-1,0l-0.2,0.1l-0.1-0.2l-0.2,0.1
			l-0.4,0l-0.5,0.2h-0.2l-0.4-0.2l-0.2,0l-0.1,0.1L93,77.8l-1.5-0.1L91,77.5l-0.1-0.2l-0.2-1L90.4,76l0.1-0.9l0-0.5l0.3-0.1
			l-0.3-0.3l0-0.3l0.4-0.2l-0.3-0.7l0.1-0.8l-0.1-0.2l0.2-0.4l-0.1-0.2l-0.2-2l0.4-0.1l-0.3-0.4l0.1-0.4L90.4,68l0.2-0.8l0-0.5
			l0.4-0.1l-0.3-0.3l-0.1-0.5l0.2,0.1l0.2,0.2h0.2L91,65.6l-0.2,0L90.6,65l0-1.1l0.1-0.5L90.5,63l0.2-0.3l0.2-0.2l-0.2-0.4l-0.1-1.2
			l0.2-0.1l0.2-0.4v-0.3L90.7,60l-0.1-0.5l-0.2-0.2l0.2-0.2l0-0.8l0.2,0l-0.1-0.7l0.2-0.1l0.2,0.2l0.1-0.2l0-0.3h0.4l0-0.2L91.6,57
			l-0.2,0.1L91.1,57l-0.2-0.4l0-0.4l-0.4-0.4l0-0.5l0.2-0.6l-0.2-0.4v-0.3l-0.9-0.6l-0.3,0.4h-0.1L89,53.2L88.7,53l-0.2,0.4
			l-0.2-0.3l-0.2,0.1v0.2L87,53.4l-0.5,0l-0.5,0.2l-1.4-0.2l-0.1-0.2L84.5,53l-0.4,0.5l-0.2-0.1l-0.9,0l-0.7,0.3l-0.2-0.2l-1.4-0.3
			l0-0.3l0.4-0.3l-0.2-0.2l-0.5,0.2l0-0.2l-0.1-0.8l0.2-0.2l-0.1-0.2l-0.1-0.5l0.2-0.7l-0.2-0.4l0-0.5l0.2-0.1l0-0.5l0.5-0.2
			l-0.2-0.2h-0.5l0.1-0.5l0-0.5l-0.1-0.2l0.3-0.6l-0.1-0.2l0.2-0.1H81l-0.1-0.5l0.4-0.2l0.5,0l0.4,0.2l0.9-0.2h2l0.2,0.1l0.1,0.2
			l1.7-0.2l0.2,0.1l0.5,0.1l0.5,0l0.5-0.2l0.1-0.1l0.8,0.2h1l0.5-0.2l0.1,0.5l0.2-0.1l0-0.2l0.2-0.1l0.8,0.1l0.5-0.1v0.2l0.1,0.2
			l0.2-0.1l0.2-0.4l0.5,0.1l0.8-0.1l-0.1,0.4h0.5l0.1-0.1l0-0.2l0.5,0.2l0.5-0.2h2.3l0.5,0.1l0.2,0.1l0.4-0.2h2.7l1,0.1l0.2-0.1
			l0.5,0.1l0.5-0.2l1,0.1l1,0l0.4,0.3l0.4-0.3l1.2,0.3l0.4,0.2l0.3,0.6v1.1l-0.1,0.5l-0.1,0.2l0.3,0.5L109.1,48.9z M83.6,49v-0.2
			l-0.2-0.1l-0.1,0.2l0.2,0.4L83.6,49z M84.7,48.5l-0.2,0l0,0.2l0.2,0.1V48.5z M85.1,51.3l0.2-0.2l-0.3-0.3l-0.2,0.4L85.1,51.3z
			 M85.5,49.8h-0.2l-0.1,0.7h0.4V49.8z M85.5,49.2l0.2,0l0.1-0.2h-0.3L85.5,49.2z M86,48v-0.2l-0.2-0.2l-0.1,0.5l0.2,0.2L86,48z
			 M86.4,48.5h0.2v-0.2h-0.2V48.5z M86.7,49.6l-0.2,0v0.2h0.2L86.7,49.6z M87,47.5h0.2v-0.5L87,47l-0.2,0.2l0,0.2L87,47.5z
			 M87.7,49.9h-0.4l-0.1,0.2l0.4-0.1l0.2,0.2V49.9z M87.8,48.1l0.2,0.1l0.2-0.1L87.9,48l-0.2,0L87.8,48.1z M88,48.8h-0.2l0,0.2
			l0.2,0V48.8z M88.2,51.7l0.1-0.2l-0.2-0.1v0.5L88.2,51.7z M89.2,48.6v-0.4L89,48.1l-0.2,0.2l0.1,0.3L89.2,48.6z M89.1,47.5
			l0.2,0.1l-0.1-0.2L89,47.3L89.1,47.5z M89.6,46.2l-0.2-0.1l-0.2,0.1l0.5,0.2L89.6,46.2z M89.6,51.2l0-0.3l-0.2-0.2l-0.2-0.1
			l0.1,0.7l0.1,0.2L89.6,51.2z M90.1,49.1l0.1-0.2l-0.2-0.1l-0.2,0v0.2H90.1z M90.4,48.2l0.1-0.2l-0.1-0.3l-0.2,0.1l-0.1,0.5
			l0.1,0.1L90.4,48.2z M90.2,47l0.2,0l0.1-0.2h-0.4L90.2,47z M90.8,69.7l-0.2-0.2v0.2H90.8z M91,70.4l-0.2-0.1v0.2l0.2,0.1L91,70.4z
			 M91.5,52.3l-0.3,0l-0.2,0.2l0.4,0.1L91.5,52.3z M91.8,47.4l0-0.2L91.7,47l-0.3-0.1l-0.1,0.4l0.1,0.2l0.2,0.1L91.8,47.4z M92.1,54
			l0-0.3l-0.3,0.1L91.6,54H92.1z M91.8,49.8l0,0.3l0.2,0.1l0.1-0.2l0-0.3L91.8,49.8z M91.9,56.5l0.2,0.2l0.3,0l0-0.2l-0.2-0.2
			l-0.2,0L91.9,56.5z M92.1,47.8l0,0.2l0.3,0.1l0.2-0.2l0-0.2l-0.3-0.1L92.1,47.8z M92.3,49.1V49h-0.2v0.1H92.3z M92.1,52.6v0.2h0.2
			l0.1-0.2l-0.1-0.1L92.1,52.6z M92.6,72.5l0.2-0.1l-0.1-0.2l-0.4,0.1l-0.1,0.1l0.2,0.2L92.6,72.5z M92.5,50.6l0.3,0l0.2-0.2
			l-0.4-0.2l-0.2,0.1L92.5,50.6z M92.7,55.6l0.1-0.2v-0.2l-0.2-0.1l-0.1,0.5L92.7,55.6z M92.6,64.3l0.2,0.2v-0.2L92.6,64.3z
			 M92.8,68.3h0.3l0-0.2l-0.2-0.1h-0.2v0.3L92.8,68.3z M92.6,47l0.2,0.2l0.2,0l-0.2-0.3L92.6,47z M92.8,52.9l-0.2,0.2l0.2,0.2
			l0.2-0.2L92.8,52.9z M92.8,62l0.2,0l-0.2-0.2L92.8,62z M93.2,58.5v-0.3H93l-0.1,0.2l0.1,0.2L93.2,58.5z M93.1,66.6H93l0.1,0.2
			l0.3-0.2L93.1,66.6z M93.3,70.8l0.3-0.3l-0.2-0.1h-0.2L93,70.5l0.1,0.3H93.3z M93,49.4l0,0.2h0.3l0-0.3l-0.2-0.2L93,49.4z
			 M93.3,56l0.2,0.1l0.2-0.1l0.1-0.2l-0.2-0.1l-0.5,0.1L93.3,56z M93.6,51.9l-0.1-0.2l-0.2,0l0,0.2l0.1,0.5l0.2,0.1l0.3-0.5
			L93.6,51.9z M93.3,48.7l0.2,0l0.1-0.2h-0.3V48.7z M93.9,51.1l-0.3,0l0,0.2l0.2,0l0.2-0.1L93.9,51.1z M94.2,54.9v-0.2l0.1-0.2
			l-0.2-0.1l-0.3,0l0.1,0.5l0.2,0.2L94.2,54.9z M93.7,64.8l0.2,0.1l0.1-0.2l-0.2-0.1L93.7,64.8z M94.1,71.8l-0.2-0.1l-0.1,0.2
			l0.2,0.1L94.1,71.8z M94.2,67.4L94,67.3l-0.1,0.1H94.2z M94.1,50.2l0.1-0.1L94.1,50V50.2z M94.4,53.8l-0.2-0.1l0,0.2l0.2,0.1
			L94.4,53.8z M94.4,57.9l-0.2-0.1V58L94.4,57.9z M94.5,75l-0.2-0.1V75H94.5z M94.5,48l-0.2,0.1l0.3,0.2l0.1-0.1l0-0.2H94.5z
			 M94.5,46.8l0.1,0.2l0.1-0.3L94.5,46.8z M94.7,68.9l0.1-0.1l-0.2,0l-0.1,0.2L94.7,68.9z M94.9,51.1l-0.2,0v0.2h0.2L94.9,51.1z
			 M95,55.4l-0.4,0l0.1,0.2l0.5,0.1l0.1-0.2L95,55.4z M94.6,69.4h0.2l-0.1-0.2L94.6,69V69.4z M94.7,64.2l0.2-0.2h-0.2L94.7,64.2z
			 M95,73l0.2-0.1l0-0.2L95,72.6L94.8,73H95z M95,46.9l0.1,0.2l0.1-0.3L95,46.9z M95.2,53.9L95,54l0.1,0.5l0.2,0.2l0.2-0.6
			L95.2,53.9z M95.3,58.3l0.2-0.2L95.2,58L95,58L95,58.2L95.3,58.3z M95.4,49.6l-0.2-0.1L95,49.6l0.4,0.1l0.2-0.1v-0.1L95.4,49.6z
			 M95.2,62.2v-0.2H95v0.2H95.2z M95.3,74.2h-0.2v0.2h0.2V74.2z M95.3,53.3v0.2l0.2,0.1l0.2-0.2l-0.1-0.2L95.3,53.3z M95.8,56.9
			l-0.1-0.2l-0.2-0.1l0.1,0.5l0.2,0.1L95.8,56.9z M95.7,61l-0.2-0.1v0.2L95.7,61z M95.9,47.4l-0.2,0.1v0.2h0.4l0.1-0.2L95.9,47.4z
			 M95.9,55l0.2,0l0-0.2h-0.2L95.9,55z M96.2,67.9l0.2,0.1v-0.2l-0.1-0.2l-0.2,0L96,67.7L96.2,67.9z M96.2,50.2l-0.1,0.2l0.2,0
			l0.1-0.1L96.2,50.2z M96.3,58.9v-0.2h-0.2v0.2H96.3z M96.3,62.8h0.2l0.1-0.2h-0.2V62.8z M96.3,71.4L96.3,71.4l0.2,0.1L96.3,71.4z
			 M96.8,49l-0.2,0l-0.2,0.1l0.4,0.1V49z M96.5,53.7l0,0.2l0.2-0.1l0-0.3h-0.2L96.5,53.7z M96.8,73.7l-0.1-0.2l-0.2-0.1v0.3l0.1,0.2
			l0.2,0.1V73.7z M96.6,65l0.3,0.1v-0.2L96.6,65z M96.7,61.6l0.2,0.1v-0.2L96.7,61.6z M97,51.7l-0.1-0.1l-0.2,0.1L97,51.7z M97,48
			l-0.1,0.2l0,0.2l0.2,0l0.1-0.4L97,48z M96.9,55.8l0.2,0l0.1-0.2l-0.2-0.1l-0.3,0L96.9,55.8z M96.9,69.2L97,69h-0.2L96.9,69.2z
			 M97.1,64.5l0.2-0.2L97,64.3l-0.2,0.2L97.1,64.5z M97.1,47.1l0.1-0.2L97,47L97.1,47.1z M97.1,54.5l0.2,0l-0.1-0.2L97,54.3
			L97.1,54.5z M97.4,50.4l-0.1-0.2h-0.2l0.1,0.4l0.2,0V50.4z M97.3,45.8l0.1,0.2l0.2,0.1l0.1-0.2l-0.1-0.2l-0.2-0.1L97.3,45.8z
			 M97.9,48.5h-0.2l-0.1,0.2H98L97.9,48.5z M98.1,51L98,50.8L97.8,51l0.1,0.2l0.2,0.1L98.1,51z M98.4,50.3l0.2,0.1l0-0.3L98.5,50
			L98.4,50.3z M98.9,56L98.5,56l0.1,0.2l0.2,0.1L98.9,56z M98.9,49.4l0.2-0.2l-0.2-0.1l-0.2,0.2L98.9,49.4z M99.2,50.5H99v0.1h0.1
			V50.5z M99.8,49.5l-0.2-0.1v0.2l0.2,0.1L99.8,49.5z M100.1,47.5l0.2,0.1h0.5l0.1-0.2l-0.2-0.1l-0.3,0l-0.2,0.1V47.5z M100.3,50
			l0.2,0.2l0.3,0.1l0-0.4l-0.3-0.2L100.3,50z M101.5,48.1L101,48l-0.2,0.2l0.3,0.3l0.2,0L101.5,48.1z M101.3,49.3l0-0.3l-0.2-0.1
			l-0.1,0.2l0.1,0.2L101.3,49.3z M102.5,48.5h0.1l0.1-0.2h-0.2V48.5z M102.7,50.5l0.2,0l0.1-0.2l-0.2-0.1h-0.2l-0.1,0.2L102.7,50.5z
			 M103.5,47.8l-0.2,0.3h0.4L103.5,47.8z M103.5,47.4h0.1v-0.2h-0.1V47.4z M103.8,50l0.1,0.2l0.3,0l0-0.2l-0.2-0.2l-0.2,0V50z
			 M105.3,50.3l-0.2-0.1l0,0.2l0.1,0.2l0.2,0L105.3,50.3z M105.4,49.8l-0.2,0.1l0.1,0.1h0.2L105.4,49.8z M106,48.5v-0.2h-0.2
			l-0.1,0.2l0.2,0.1L106,48.5z M108.3,51.1l-0.2-0.2V51L108.3,51.1z"/>
		<path class="st1" d="M139.8,46.2h0.5l2.2,1.4l0.2,0.3l0.1,0.2l0.2,0l0.7,0.4l0.5,0.5l0.2,0.5v0.2l0.1,0.2h0.5l-0.1,0.2l0.2,0.2
			l0,0.2l1,0.5l0.3,0.4l-0.1,0.2h-0.2l0.1,0.3l0.2,0.1l0.1,0.3L147,52l0.1,0.3l0.3,0.4l0.4,0.2l0.1,0.3l0.4,0.6v0.5l0.3,0.3l0.2,0.5
			v0.2l-0.1,0.2l0.2,0.1l0.3,0.4l0.2,0.5l0,0.5l0.4,0.6l0.1,0.5l0,1.1l0.3,0.5l-0.2,4l-0.4,1.5l0,0.5l-1,1.8l-0.1,1l-0.9,1.7
			l-0.5,0.4l-0.2,0.5l-0.8,0.8l0,0.4l-0.4,0.3l-0.1,0.2l-1.5,1.2l-2,1.5l-0.7,0.3l-0.3,0.4l-0.8,0.5l-0.2,0.2l-1.1,0.2l-1.6,0.7
			l-0.2-0.3l-0.3,0l-0.5,0.5l-0.2-0.2l-1.4,0.3l-1,0l-0.2-0.1l-0.4,0.3l-0.5-0.1l-1,0.1l-0.4,0l-0.4-0.3l-0.6,0.2l-0.3-0.3l-0.2-0.1
			l-0.2,0.1l-0.5,0l-0.7-0.2l-0.2-0.1h-0.5l-0.6-0.4l-0.4,0.2l-1.1-0.7l-0.2,0l-0.2,0.1l-0.4-0.3l-0.7-0.4h-0.2l-0.3-0.4l-1-0.4
			l-0.1-0.2l0.1-0.2l-0.5-0.1l-0.4-0.2l-0.6-0.7l-0.4-0.6h-0.4l-0.3-0.4l-1-0.7l-0.5-0.9l-0.7-0.7v-0.3l-0.6-0.8l-0.1-0.5l-0.3-0.3
			l-0.2-0.5l-0.4-1.5l-0.3-0.3l0-0.2l0.2-0.1l0-0.2l-0.3-0.1l-0.5-1.5l-0.2-0.2l0.2-0.5l-0.2-0.6l0.1-1.6l0-0.5l-0.2-0.5l0.2-0.9
			v-0.8l0.3-0.3l-0.2-0.5l0.2-1l0.4-1l0.2-0.2l0.1-0.6l0.2-0.5l0.3-0.3l0-0.6l0.3-0.4l0.1-0.5l1-1.4l0.1,0.2l0.1-0.5l0.5-0.2v-0.3
			h0.5l-0.1-0.2l-0.2-0.1l0.3-0.3l0.3,0l0.2-0.6l0.6-0.1l0.2,0.1v-0.2l-0.2-0.2l0.1-0.2l0.3-0.2l0.5-0.1l0-0.2l0.3-0.4l0.9-0.5
			l0.1-0.4l0.5,0l0.4-0.3l0.9-0.5l2-0.7l0.9-0.5l0.2,0l0.3,0.1l0.8-0.2h0.5l0.2-0.1l0.5-0.1l0.4-0.2l0.3,0.2l2.1-0.2l0.5,0.1l0.2,0
			l0.2-0.1l0.7,0.2l0.5,0l0.2,0.2l1,0.3l0.2-0.1l1.3,0.1l0.1,0.2l0.5,0.2l0.5,0.1l0.4,0.2L139.8,46.2z M115.9,59.4l0-0.2h0V59.4z
			 M116.6,66.6l0.3-0.2l-0.2,0L116.6,66.6z M117.4,63.1l0.1,0.2l0.2-0.1l0.1-0.2h-0.2L117.4,63.1z M117.9,62.2l-0.3-0.2v0.2
			L117.9,62.2z M118.1,65.2h0.3v-0.3l-0.2-0.1l-0.1,0.2V65.2z M119.1,62.6l-0.2,0.1l0.1,0.1L119.1,62.6z M119.5,64.6l0-0.3l-0.2-0.1
			l0,0.2l0.1,0.2L119.5,64.6z M119.3,65.7l0.1-0.2l-0.1-0.5l-0.2-0.1l0,0.5L119.3,65.7z M119.5,68.2l0.3,0.2l0-0.3l-0.2-0.2
			L119.5,68.2z M119.7,63.3h0.1v-0.1h-0.1V63.3z M120.4,56.6h0.2l0.1-0.2l-0.2-0.1V56.6z M120.6,60.2l0-0.3h-0.2l0,0.2L120.6,60.2z
			 M120.4,64.1l0.2,0l0.2-0.1l0.1-0.2l-0.2,0l-0.1,0.1L120.4,64.1z M120.8,66.8l0.2,0.1l0.2-0.1v-0.2l-0.2-0.1l-0.2,0.1L120.8,66.8z
			 M121,58.9l0-0.2l-0.2,0L121,58.9z M121.1,69.4h0.2v-0.2h-0.2V69.4z M121.4,70.5l0.1-0.3h-0.3v0.2L121.4,70.5z M121.5,52.1
			l0.2-0.4l-0.2,0.1l-0.1,0.2L121.5,52.1z M121.5,53.4l0.1-0.3l-0.2,0.1L121.5,53.4z M121.6,52.8l-0.2-0.1v0.2L121.6,52.8z
			 M121.5,63.6l0.2-0.1l0-0.3l-0.2,0l0,0.2L121.5,63.6z M121.9,64.4l0-0.3l-0.2-0.1l-0.1,0.2l0.1,0.2L121.9,64.4z M121.8,54.8
			L121.8,54.8l-0.1-0.2L121.8,54.8z M121.9,57.5l0.4,0.1v-0.4l-0.2-0.1l0,0.2L121.9,57.5z M122.2,53.7l0,0.2l0.2,0l0-0.2H122.2
			L122.2,53.7z M122.2,58.7l0.2,0.1l0.1-0.2l-0.2,0L122.2,58.7z M122.3,70.1l0.2-0.1l0.1-0.2l-0.2-0.1l0,0.2L122.3,70.1z M122.8,60
			l-0.1-0.2l-0.3,0l0.1,0.3L122.8,60z M122.8,64.3h0.2v-0.2h-0.2V64.3z M123.2,71.7l0-0.4l-0.2,0l-0.1,0.2l0.1,0.2L123.2,71.7z
			 M123.2,72.8l0-0.3l-0.2-0.1l0,0.3L123.2,72.8z M123.2,57h0.3l0.2-0.2l-0.1-0.2l-0.2-0.1l-0.1,0.3L123.2,57z M123.8,73l-0.1-0.2
			l-0.1,0.2L123.8,73z M124,68.2l0-0.2l-0.1-0.1l0,0.2L124,68.2z M132.7,52.4l-0.3,0.3l-0.2,0.1l-0.8-0.1l-0.2,0.1l-0.5,0.1l-0.5,0
			l-0.1,0.3l-2,0.8l-0.3,0.4l-0.3,0.1l-0.2,0.3l-0.4,0.3l-1,1.1l-0.2,0.1l-0.1,0.5l-0.4,0.4l-0.8,1.3v0.5l-0.2,0.7l-0.1,0.2l0.1,0.5
			l-0.3,0.4l0.1,0.5V62l0.2,0.7l-0.1,0.2l0.4,1l0.1,0.8l1.1,1.7l1.6,1.9h0.3l0.2,0.1l0.3,0.4l0.5,0.1l1.2,0.7L131,70l0.2,0.2
			l0.2-0.1l0.2,0l0.5,0.3l0.1-0.2l0.2-0.1l0.7,0.2l0.2-0.2l0.2,0l0.2,0.1l0.9,0.1L135,70l0.2-0.2l0.5,0.2l0.8-0.6l0-0.2h0.5l0.2-0.5
			l0.4-0.3l0.9-0.5h0.5l0.3-1l0.3-0.4l0.4-0.2l0.2-0.4l0.1-0.5l0.2,0.1l0.2,0l-0.2-0.2l0-0.2l0.2-0.5l0.3-0.4h0.3l-0.2-0.6l0.2-0.2
			l-0.1-0.5l0.1-2l0-1l-0.2-0.6V59l-0.4-1l-0.5-0.9l0.2-0.2l0.1-0.3l-0.3,0.1l-0.1,0.2l-0.1-0.2l0.2-0.2l-0.5-0.2l-0.3-0.3l-0.2-0.5
			l0-0.2l-0.5-0.2l0-0.3l-0.5-0.1l-0.2-0.1l-0.1-0.2l0.1-0.2l-0.5,0l0-0.3l-0.4-0.5v0.5l-1.4-0.6l-0.4-0.3l0-0.5l-0.3,0l-0.4,0.3
			l-0.5-0.2l-0.4-0.3l0,0.4l-0.1,0.1l-0.2-0.1l-0.3-0.4L132.7,52.4z M124,55l0.2-0.1v-0.2H124V55z M124.1,72.2l0.2,0.1h0.3l-0.1-0.5
			l-0.2-0.1l-0.1,0.3L124.1,72.2z M124.5,71.2l-0.1-0.2l-0.2-0.1l-0.1,0.2l0.2,0.2L124.5,71.2z M124.7,48.7h0.2v-0.2h-0.2V48.7z
			 M125.3,69.3v-0.5h-0.2l0.1,0.5L125.3,69.3z M125.2,71.8l0.2,0.1l0.2-0.1l0-0.2l-0.3,0L125.2,71.8z M125.7,72.9l0,0.3l0.1,0.2
			l0.3-0.1v-0.5L125.7,72.9z M125.7,74.3l0.3,0.1l0-0.2l-0.1-0.1L125.7,74.3z M126.4,49.9l0.3,0.2l0-0.2l-0.2-0.1L126.4,49.9z
			 M126.4,71.1l0.1,0.2h0.4l0.1-0.2l-0.2-0.1h-0.3L126.4,71.1z M127.4,72.6v-0.2l-0.3,0l-0.1,0.2l0.1,0.1L127.4,72.6z M127.5,75.5
			h0.5l-0.1-0.2l-0.2-0.1L127.5,75.5z M128.1,48.8h0.3l-0.2-0.2L128.1,48.8z M128.5,72.1v-0.3l-0.2,0.1V72L128.5,72.1z M129.1,75.2
			l0.2-0.5l-0.2-0.4l-0.1,0.2v0.6L129.1,75.2z M129.3,74l0.2-0.2h-0.2L129.3,74z M130,49.7l0.2,0l0.1-0.2l-0.2-0.1L130,49.7z
			 M130,74.6l0.2,0.1l0.3-0.1l-0.1-0.5l-0.2-0.1l-0.2,0.4L130,74.6z M130.4,75.5l-0.1-0.3H130v0.3l0.2,0.1L130.4,75.5z M130.6,46.5
			h0.1l-0.1-0.2L130.6,46.5L130.6,46.5z M131,72.6l0.1-0.2l-0.2-0.2l-0.2,0.2L131,72.6z M131,50.3l0.3,0.1l-0.1-0.2L131,50.3z
			 M131,49.2l0.4,0.2l0.2-0.1l-0.1-0.3l-0.2-0.1l-0.2,0.1L131,49.2z M131.2,75l0.2,0.2l0.2-0.1l-0.2-0.2L131.2,75z M131.3,74.1
			l0.4,0l0-0.2l-0.1-0.3l-0.2-0.1l-0.2,0.3V74.1z M131.7,48.2l0-0.5l-0.2,0l-0.1,0.2l0.1,0.2L131.7,48.2z M132.1,47.3L132,47h-0.2
			l0.1,0.2L132.1,47.3z M131.8,50.2l0.1,0.2l0.1,0.5l0.2,0.1l-0.1-0.3v-0.5l0.2-0.4l-0.3,0l-0.2,0.1L131.8,50.2z M132.2,48.7
			l0.2,0.1l0.3-0.3v-0.2l-0.5,0.1L132.2,48.7z M132.8,73.4v-0.3l-0.2-0.1l0,0.2L132.8,73.4z M132.7,76.2l0.2,0l0.3-0.3l0.1-0.2h-0.5
			l-0.1,0.2L132.7,76.2z M133.2,50.2l0.2-0.3l-0.2-0.1l-0.1,0.2L133.2,50.2z M133.3,50.7h0.2v-0.2h-0.2V50.7z M133.5,49.5l0.2,0
			l0-0.2l-0.2,0L133.5,49.5z M134.1,72.7l0-0.2l-0.2-0.1h-0.2l0.1,0.2L134.1,72.7z M133.7,48.2l0.4,0.2l-0.1-0.6l-0.2-0.1l-0.1,0.2
			V48.2z M133.8,73.1h0.3v-0.2l-0.2-0.1l-0.1,0.2L133.8,73.1z M134.2,50.9h0.5l-0.4-0.4v0.2L134.2,50.9z M134.2,72.1h0.1v-0.2h-0.1
			V72.1z M134.8,74.8v-0.2l-0.2,0L134.8,74.8z M134.9,49.1l0.1-0.3h-0.3V49L134.9,49.1z M134.7,73.5l0.1,0.2l0.2,0.1l0.2-0.5l-0.2,0
			l-0.1,0.2L134.7,73.5z M134.9,72.4h0.5v-0.5l-0.2,0l-0.2,0.1L134.9,72.4z M135.2,47.8l0.2,0.1l0.1-0.2l-0.2,0L135.2,47.8z
			 M135.4,71.6l0.2-0.1l-0.2-0.2V71.6z M136,48.4L136,48.4l-0.1-0.2L136,48.4z M136,71.8h0.3l0.2,0.1l0.1-0.5l-0.2-0.1l-0.3,0.2
			L136,71.8z M136.3,73.1l0.1-0.2l-0.1-0.2l-0.2-0.1l-0.1,0.2l0.1,0.2L136.3,73.1z M136.3,52.2h0.2l-0.1-0.2L136.3,52.2L136.3,52.2z
			 M136.5,51.2l0.2-0.2l0-0.3l-0.2,0.1l-0.1,0.2L136.5,51.2z M136.4,75.6l0.1,0.2h0.2v-0.2L136.4,75.6z M136.6,74.5l0.5-0.1
			l-0.1-0.2h-0.2L136.6,74.5z M137,72.3l0.1,0.2h0.5v-0.2l-0.4-0.1L137,72.3z M137.5,52.6l-0.1-0.2l-0.3-0.1l0.1,0.2L137.5,52.6z
			 M137.2,71.2l0.5,0.3l0.1-0.4v-0.3l-0.2-0.1l-0.2,0.1l-0.1,0.2L137.2,71.2z M137.6,77.5l0.1-0.3l-0.3-0.1v0.3L137.6,77.5z
			 M137.7,75.2h0.2l0.1-0.1h-0.2L137.7,75.2z M137.9,73.9h0.2l0.2-0.1l0-0.2l-0.2,0l-0.2,0.1L137.9,73.9z M138.2,49.4l0.1-0.2V49
			h-0.2l-0.1,0.3L138.2,49.4z M138,72.5h0.2v-0.2H138V72.5z M138.2,51.7l0,0.2l0.2,0.2l0.2,0.1l-0.1-0.6l-0.2,0H138.2z M138.8,51
			v0.1l0.2,0.1l0.1-0.2l-0.1-0.1L138.8,51L138.8,51z M138.8,70.9l0.2,0l0.1-0.1l0-0.4h-0.3V70.9z M139,50l0.3,0.2l0.2-0.1l-0.1-0.2
			l-0.2,0L139,50z M139.5,73.8l0.2-0.2l-0.1-0.5l-0.2-0.2l-0.3,0v0.5l0.2,0.2L139.5,73.8z M139.3,49l0.3,0l0.1-0.2l-0.1-0.1
			l-0.2,0.1L139.3,49z M139.6,52.6l-0.3,0l0.2,0.1L139.6,52.6z M139.8,51.7l0.1-0.2l-0.3-0.1l0,0.2L139.8,51.7z M140.3,69.8l-0.3,0
			l-0.1,0.2l0.1,0.2l0.2,0.1l0.2-0.1l0-0.3L140.3,69.8z M140.1,50.1l0.1-0.1l0-0.2l-0.2-0.1L140.1,50.1z M140.1,50.4v0.2l0.2,0.1
			l0.1-0.1v-0.2H140.1L140.1,50.4z M140.2,49.3l0,0.2h0.2l0.1-0.1v-0.2l-0.1-0.1L140.2,49.3L140.2,49.3z M140.8,68.2h0.2l0.1-0.2
			l-0.2-0.1L140.8,68.2z M141.2,70.9l0-0.2l-0.2-0.1l0,0.2L141.2,70.9z M141.2,50.9L141,51l0.1,0.1L141.2,50.9z M141.6,69.5
			l-0.6-0.1l0,0.2l0.2,0.1l0.3-0.1L141.6,69.5z M141.5,55l-0.1-0.2l-0.2,0l0,0.3L141.5,55z M141.5,72.1l-0.2,0l0.1,0.2L141.5,72.1z
			 M141.5,53.7l0.2-0.1l-0.1-0.2L141.5,53.7z M141.9,68.7l-0.1-0.2l-0.3,0l0,0.3H141.9z M141.6,52.7h0.2v-0.2h-0.2L141.6,52.7z
			 M142.2,51.8l0-0.2l-0.2-0.2l-0.2,0l0.2,0.4L142.2,51.8z M141.7,72l0.1,0.2h0.2l0.1-0.2l-0.1-0.1L141.7,72L141.7,72z M142.1,66.2
			l0.1,0.3l0.2-0.1l0.1-0.2l-0.2,0L142.1,66.2z M142.2,50.2l0,0.2l0.2,0l0.2-0.1l-0.1-0.2l-0.2,0L142.2,50.2z M142.2,68.8l0.3,0.5
			l0.2,0.1l0.1-0.2l0-0.5l-0.5,0.1L142.2,68.8z M142.8,53.4l0.1-0.2v-0.3l-0.5-0.1l0.2,0.5L142.8,53.4z M142.4,54.3l0.2,0.1l0.2,0
			l-0.1-0.2L142.4,54.3z M142.6,51.4l0.3,0.6l0,0.2l0.2-0.1v-0.6l-0.4-0.2L142.6,51.4z M142.7,64.4h0.2l0.1-0.2l-0.2-0.1V64.4z
			 M143.3,58.7l0-0.3l-0.2-0.1l0,0.3L143.3,58.7z M143.1,49h0.2l0.1-0.2l-0.3-0.1V49z M143.2,54.2l0,0.2l0.3,0.2l0.1-0.2l-0.1-0.2
			l-0.2-0.1L143.2,54.2z M143.2,65.7l0.1,0.2v0.3l0.5-0.2l0.1-0.2l-0.1-0.2h-0.4L143.2,65.7z M143.6,53.8h0.2l0.1-0.2h-0.3V53.8z
			 M143.6,57.4h0.2l-0.1-0.2l-0.1-0.1V57.4z M143.8,65l0-0.2l-0.2-0.1l0,0.2L143.8,65z M144.1,52.9v-0.3l-0.4-0.1l0,0.2l0.2,0.1
			L144.1,52.9z M144,68.7h0.2v-0.1H144V68.7z M144.2,55.4h0.2l0.1-0.2l-0.3,0V55.4z M144.4,57.7l0.1,0.3l0.2-0.1l0.1-0.2l-0.2-0.2
			L144.4,57.7z M144.6,53.5h0.3l-0.1-0.2h-0.2L144.6,53.5z M144.7,65.5l0.2-0.1l0.1-0.2l0-0.2l-0.2,0.1l-0.1,0.2L144.7,65.5z
			 M144.8,57.1l0.2,0.1l0.1-0.2v-0.3l-0.1-0.2l-0.3-0.1l0.1,0.5V57.1z M145.4,68.3l0-0.3l-0.2-0.4l-0.2,0.2v0.3l0.2,0.2L145.4,68.3z
			 M145.1,63.3l0.2,0.1l0.2-0.2l-0.3-0.1L145.1,63.3z M145.2,56l0.2,0l0.1-0.2l-0.2,0L145.2,56z M145.4,54.8l0.3-0.1l-0.1-0.2
			l-0.2-0.1l-0.1,0.2L145.4,54.8z M145.6,52.2l-0.1-0.2l-0.2,0l0.1,0.2L145.6,52.2z M145.7,50.4l-0.2-0.1l-0.1-0.1l0.2,0L145.7,50.4
			z M145.8,67.2l-0.1-0.2h-0.3l0.1,0.2L145.8,67.2z M145.5,62.1l0.2,0.2l0.1-0.4l-0.3-0.1V62.1z M145.7,66.1h0.2V66h-0.2V66.1z
			 M146.1,65.3l0.2-0.1l0.1-0.2v-0.3l-0.5-0.2l-0.1,0.2L146,65L146.1,65.3z M146.1,56.7l0.2-0.1l-0.1-0.2L146.1,56.7z M146.5,67.6
			l0-0.3l-0.2-0.1l-0.1,0.2l0.1,0.2H146.5z M146.6,59h0.1l-0.1-0.2L146.6,59L146.6,59z M147.1,56.9l0.1,0.2l0.2-0.2H147.1z
			 M147.3,64.3l0.3,0.2l-0.1-0.5l-0.2-0.1l-0.1,0.2L147.3,64.3z M147.6,58.7l0.2-0.1l0.1-0.3l-0.2-0.1l-0.1,0.2V58.7z M147.9,61.1
			h0.2l0.1-0.2l-0.2-0.1V61.1z"/>
		<path class="st1" d="M176.4,45.3l0.2,0.3l0.4,0l0.6,0.4l0.5,0.1l0.2,0l0.7,0.6l0.7,0.2l0.3,0.4l1.2,0.9l0.6,0.7l0.2,0.2l0.3,0.5
			l0,0.3l-0.1,0.2l0.7,0.5l0.3,0.4l0.1,0.5l0.3,0.5l-0.2,0.5l0.5,0.5l0.2,1.1l0,0.5l-0.1,0.2l-0.2,0.2l0.2,0.4l-0.2,0.1l-0.4,0.3
			l-1.5,0.2h-0.8l-0.1-0.4l-0.4,0.3l-0.6,0.1l-0.5-0.1l-0.5,0.2l-1.6-0.1l-0.9-0.2l-0.4-0.2l0-0.4l-0.7-0.6l-0.2-0.5l-0.8-0.7
			l-0.3-0.4l-1.5-0.4l-0.6-0.3H171l-1.1,0.1l-1,0.2l-0.4,0.2l-0.7,0.5l-0.6,0.8l0.2,0.5l-0.1,0.2l0.6,0.7l0.4,0.3l0.5,0.2l0.3,0.4
			l0.3,0l0.7,0.2l0.4,0.3l0.6,0l0.7,0.3h0.3l0.4,0.2l1.4,0.5l0.4,0.2l0.5,0.1l1.7,0.7l0.2,0l0.5,0.5l0.5,0.1l0.8,0.5l0.4,0.5l0.5,0
			l0.5,0.2l0.8,1l0.3,0.1l0.8,0.6l0.3,0.1l0.2,0.5l0.8,0.8l0.2,0.4l0.1,0.5v0.3l0.5,0.6l0.1,0.5l0.3,0.3l0,0.5l0.2,0.4l-0.2,0.9
			l0.1,0.2l0.2,0.1l-0.1,0.5l0,0.5l-0.1,0.5l-0.2,0.2l0.1,0.2v0.7l-0.3,0.3v0.4l-0.3,1l-0.2,0.2l-0.2,0.1v0.5l-0.3,0.4l-0.3-0.2
			l-0.1,0.2l-0.2,0.1l0.1,0.2l0.2,0.1l-1,0.9l-0.1,0.3l-0.2,0.1l-0.4,0.3l-0.3,0.1l-0.7,0.6l-0.6,0l-0.2,0.4l-0.2,0l-0.6,0.4H178
			l-0.2,0.2l-0.5,0.2l-0.2,0.2l-0.6,0l-0.8,0.3l-0.3,0l-0.7,0.1l-0.3-0.2l-0.2,0.2l-1,0.4l-1-0.1l-1.2,0.1l-0.1-0.2V78l-0.5,0.2
			h-0.2l-0.5-0.2l-0.1,0.4l-1-0.3l-0.3-0.4l-0.2,0.5l-0.2-0.2l-0.5-0.1h-0.8l0.2-0.2l-0.2-0.3h-0.2l-0.2,0.1h-0.2l-0.4-0.2l-1.5-0.2
			l-0.7-0.2l0.1-0.4l-0.4,0.3l-0.2,0l0-0.3l0.2-0.1l-0.1-0.2l-0.8,0l-0.3-0.3l-0.2-0.1h-0.3l-0.2-0.4l-0.5-0.4l-0.3,0l-0.2-0.6
			l-0.4-0.1l-1.2-1.7l-0.5-1l-0.5-2v-0.8l0.6-0.9l0.2-0.1l0.5,0.1l1-0.1h4.9l0.8,0.6l1.7,1.8l0.6,0.5l0.3-0.1l1,0.2l0.5,0.2l0.7,0.1
			l0.2-0.1l0.2,0l0.1,0.1l0.5-0.2l0.5,0.1l0,0.3l0.1,0.1l0.2-0.1V71l0.1,0.2l0.4-0.2l0.1-0.2h0.3l0.6-0.3l0.3,0l0.3-0.3l0.2-0.5
			l0.3-1.2l-0.2-0.3l-0.2-0.1l-0.3,0l-0.1-0.5l-0.5-0.1l-0.6-0.4l-0.4-0.1l-0.3,0l-0.2-0.4h-0.6l-0.5-0.2l-0.4-0.3l-0.1-0.2
			l-0.5,0.1l-0.2-0.1l-0.4-0.3l-0.5,0l-1.3-0.5l-0.8-0.2l-0.7-0.4h-0.5l-0.6-0.5l-0.5-0.1l-0.7-0.5l-0.5-0.1h-0.3l-0.7-0.6l-1.1-0.6
			v-0.3l-0.3-0.3l-0.5,0l-0.2-0.5l-0.7-0.6l0-0.5l-0.4-0.2l0.1-0.4l-0.5-0.1l-0.4-0.6l0-0.5l-0.5-0.8l-0.1-0.5v-0.3l0.4-0.2l-0.3-1
			l0-0.5l0.1-0.2l-0.2-0.4l0-0.6l0.1-0.6l0.3-0.4l0-0.6l0.1-0.5l0.3-0.4l-0.1-0.5l0.2,0l0.2-0.2l0.3-1h0.3l0.2-0.1l0.2-0.5l0.3-0.3
			l0.2,0l0-0.5l0.1-0.2l0.6,0.2l0.3,0l-0.2-0.5L162,47l0.2-0.1l0.1,0.2v0.3l0.2-0.1v-0.6h0.5l0.1-0.1l0-0.2l0.2,0l0.6-0.3h0.6
			l0.6-0.7l1,0.3l-0.1-0.2v-0.2l0.2-0.1l0.8,0l0.1-0.2l0.5,0.2l0.1-0.2l0.3,0.4l0.2-0.2v-0.2l0.1-0.2l0.5-0.1l0.3,0.1l0,0.2l0.2-0.2
			h0.8l-0.1,0.5l0.2-0.1l0.1-0.1v-0.2l-0.2-0.1l0.5-0.2h0.2l0.7,0.3l0.6-0.1l2.4,0.4l0.5,0l0.2,0.1l0.3,0.3l0.2,0L176.4,45.3z
			 M159.9,53l0.3-0.2H160L159.9,53z M160.4,56.9l0.2,0l0-0.3l-0.2,0.1L160.4,56.9z M161.1,54.9l-0.1-0.2l-0.2-0.1l0,0.2L161.1,54.9z
			 M161.2,52.7l0.5,0.2l0.2-0.1l-0.2-0.4l-0.4-0.3l-0.1,0.2v0.2L161.2,52.7z M161.2,53.5l0.3-0.1l-0.2-0.1L161.2,53.5z M161.5,54.1
			l-0.1-0.2l-0.2,0l0,0.2H161.5z M162.1,57.9l0,0.2l0.1,0.2l0.2-0.2l0-0.2l-0.5-0.3l-0.2,0l-0.2,0.1l0.2,0.1l0.2,0L162.1,57.9z
			 M161.6,51.7v0.2l0.2,0.1l0.1-0.1v-0.2H161.6L161.6,51.7z M161.8,51l0.4-0.1l0-0.2l-0.3,0.1L161.8,51z M161.8,55.5h0.3l-0.1-0.2
			l-0.2-0.1V55.5z M161.9,56.7l0.2-0.5l-0.2,0.1l0,0.2L161.9,56.7z M162.3,49.6l0.1-0.2l-0.1-0.2l-0.1,0.2L162.3,49.6z M162.4,59.4
			l0-0.2l-0.2-0.1v0.2L162.4,59.4z M162.4,50.6l0.1-0.2l-0.2-0.2l0,0.2L162.4,50.6z M162.5,52l0.1,0.3l0.2,0.1l0.2,0l-0.1-0.2
			l-0.2-0.2L162.5,52z M162.5,53l0.1,0.2l0.2,0.1L163,53l-0.2-0.1L162.5,53z M162.8,56.3l0.3,0.1l0.1-0.5l-0.2-0.1l-0.2,0.3V56.3z
			 M162.8,57.4l0.2-0.1l-0.2-0.1V57.4z M162.9,54.6v0.2L163,55l0.2,0.1l0.2-0.1l-0.2-0.5h-0.2L162.9,54.6z M163.1,51.4l0.2,0.2
			l0.2-0.3l-0.2,0L163.1,51.4z M163.2,50.4l0.2,0.1l0.3,0l0.1-0.2V50l-0.1-0.2l-0.4,0.2l-0.1,0.2L163.2,50.4z M163.3,57.7l0.5,0.2
			l0-0.3l-0.1-0.2l-0.2-0.1l-0.1,0.2L163.3,57.7z M163.7,59l0-0.4l-0.1-0.2l-0.1,0.2v0.2L163.7,59z M163.4,49l0.3,0.1v-0.2l-0.2-0.1
			L163.4,49z M163.8,73.7h0.2l-0.1-0.2L163.8,73.7L163.8,73.7z M164.1,76.5l-0.2-0.1l0.1,0.2L164.1,76.5z M164.2,51.7l0-0.2
			l-0.2-0.1l0,0.2L164.2,51.7z M164.1,57l0-0.2l-0.2-0.1v0.2L164.1,57z M164.2,52.7v-0.3l-0.2,0v0.2L164.2,52.7z M164.2,72.7h0.1
			l-0.1-0.2L164.2,72.7L164.2,72.7z M164.5,54.4l0.2-0.4l-0.3,0l-0.1,0.2l0.1,0.2L164.5,54.4z M164.3,55.8l0.2,0.1l0.2-0.5l-0.3-0.1
			l-0.1,0.2L164.3,55.8z M164.2,63.1h0.2l-0.2-0.2V63.1z M164.7,50.9l0-0.2l-0.3-0.1l0.1,0.2L164.7,50.9z M164.5,49.7l0.4,0.1l0.2,0
			l-0.1-0.2h-0.3L164.5,49.7z M164.6,58.4l0.2,0.1l0.2-0.2l-0.3-0.2L164.6,58.4z M164.7,61.2l0.2,0.1l0.5-0.2v-0.3l-0.2-0.1
			l-0.4,0.2L164.7,61.2z M165,57.3l0-0.2l-0.2-0.1l0.1,0.2L165,57.3z M165,60l0.2-0.5H165l0,0.3L165,60z M165,52.4l0.4,0.2l0.1-0.3
			l-0.3,0L165,52.4z M165.4,51l0.1-0.2l0-0.2l-0.2-0.1l0,0.4L165.4,51z M165.7,54.6l-0.2,0.2l-0.1,0.2l0.1,0.2l0.2,0l0-0.2
			L165.7,54.6z M165.8,73.8l-0.1-0.2l-0.1,0.2L165.8,73.8z M166.1,54l-0.1-0.2l-0.3,0V54l0.2,0H166.1z M166.1,74.9l-0.1-0.2
			l-0.3-0.1l0.2,0.3L166.1,74.9z M166.3,56.9l0.1-0.3l0-0.3l-0.2-0.1l-0.2,0.4l0.1,0.2L166.3,56.9z M166.1,58.1l0-0.2l-0.2-0.1V58
			L166.1,58.1z M166.3,47.7v-0.3l-0.2,0.2L166.3,47.7z M166.1,60.6l0.5,0.2l-0.1-0.5l-0.1-0.2l-0.2,0.2L166.1,60.6z M166.6,51.6
			l0.1-0.3h-0.2l0,0.2L166.6,51.6z M166.4,59.3l0.2,0.2l0.1-0.2H166.4z M166.6,50.4h0.1v-0.2h-0.1V50.4z M167,62.2v-0.5l-0.2-0.1
			l0.1,0.5L167,62.2z M167,57.5l0.2,0v-0.2l-0.2-0.1L167,57.5z M167.1,48.5h0.2v-0.3l-0.2,0.1V48.5z M167.3,59.9l0.2,0.4l0.5-0.2
			l0.1-0.2l-0.2-0.1l-0.2,0.1L167.3,59.9z M167.6,49.6l0.2,0.4l0.2,0l0-0.3l-0.2-0.2L167.6,49.6z M168,61.2l0.3,0.6l0.2,0l-0.3-0.6
			L168,61.2z M168.3,48l0.3,0l0.2-0.2l0.2,0.2l-0.1-0.2l-0.3-0.1l-0.1,0.2L168.3,48z M168.6,59.5l0.2,0.1l0.5,0v-0.3l-0.2-0.1
			l-0.3,0.1L168.6,59.5z M168.8,50.7h0.2v-0.2h-0.2V50.7z M169.1,58.5l-0.1-0.5h-0.2l0.1,0.3L169.1,58.5z M168.9,49.6l0.4,0v-0.2
			l-0.1-0.1l-0.2,0.1L168.9,49.6z M168.9,63.3v0.2l0.2-0.1L168.9,63.3L168.9,63.3z M169.3,48.6l0.3,0.1v-0.2h-0.2L169.3,48.6z
			 M169.3,61l0,0.2l0.2,0.1l0.2,0l0-0.3l-0.2-0.2L169.3,61z M169.7,62.5l0-0.2l-0.3-0.3l-0.1,0.2l0.1,0.2L169.7,62.5z M169.4,73.3
			l0.2,0.2l0.1-0.2l0-0.2L169.4,73.3z M169.7,72.6l0-0.2l-0.2-0.1v0.2L169.7,72.6z M169.8,47.3h0.2v-0.2h-0.2V47.3z M170,59.1h0.3
			v-0.3l-0.2-0.1l-0.1,0.2V59.1z M170.1,50.3l0.2,0l0-0.2l-0.2-0.1l-0.1,0.2V50.3z M170.7,48.8l0-0.2l-0.4-0.2l0.2,0.4L170.7,48.8z
			 M170.6,71.7l-0.1-0.4l-0.2-0.2l-0.1,0.2l0.1,0.2L170.6,71.7z M171.1,60.8l-0.2-0.4l-0.2-0.1v0.2l0.2,0.2L171.1,60.8z M171,47
			l0.2-0.1l0-0.3l-0.3,0.3L171,47z M171.2,60.2h0.1V60h-0.1V60.2z M171.6,48.6l0.2-0.1l0-0.3l-0.2-0.1l-0.1,0.3L171.6,48.6z
			 M171.6,61.3l0.4,0.1l0.2-0.1V61l-0.2,0l-0.4,0.1L171.6,61.3z M171.6,73.8h0.1v-0.2h-0.1V73.8z M171.9,50.9l0.2-0.1l-0.1-0.2
			L171.9,50.9z M172.1,60.1l0.1-0.3h-0.2V60L172.1,60.1z M172.3,64l0.2-0.4l-0.2-0.1l-0.2,0.4L172.3,64z M172.7,63l-0.2-0.5l0-0.3
			l-0.3,0.1l-0.1,0.2l0.1,0.2l0.2,0.2L172.7,63z M172.6,75.4l-0.1-0.2l-0.2-0.1l0,0.2L172.6,75.4z M172.4,74.4l0.3,0.1l0-0.5
			l-0.1-0.2l-0.1,0.1l0,0.2V74.4z M172.5,49l0.2,0.1h0.4v-0.3h-0.5L172.5,49z M172.8,76.8h0.2l0.1-0.2h-0.2L172.8,76.8z M173.1,60.8
			L173.1,60.8l-0.1-0.2L173.1,60.8z M173.3,63.5h0.2l0.1-0.2h-0.3V63.5z M173.6,62.4l0-0.2l-0.1-0.1l-0.1,0.2L173.6,62.4z
			 M173.8,48.7h0.3l0.1-0.2l-0.2-0.2l-0.2,0.2L173.8,48.7z M173.8,76.2l0.4,0.2l0.2-0.1l0-0.2l-0.5,0L173.8,76.2z M173.8,47.1h0.2
			v-0.2h-0.2L173.8,47.1z M174.1,60.3h0.1v-0.2h-0.1V60.3z M174.3,49.7l0.2,0.5l0.2,0.2l0.1-0.2l-0.1-0.2l-0.2-0.2L174.3,49.7z
			 M174.4,51.3h0.2l0.1-0.2h-0.2V51.3z M175,61.8l0.1-0.2l0-0.2l-0.2-0.2h-0.2l-0.1,0.2l0,0.2l0.1,0.1L175,61.8z M174.5,63l0.2,0
			l0.1-0.2l-0.2-0.1l-0.1,0.2L174.5,63z M174.9,74.2l-0.2,0.1l0.2,0.1L174.9,74.2z M174.8,72.8h0.2v-0.2h-0.2L174.8,72.8z
			 M174.9,65.4l0.2,0.1v-0.2H175L174.9,65.4z M175.5,49.5h0.1v-0.2h-0.1V49.5z M175.8,60.9l0.1,0.2l0.2,0l0.1-0.4h-0.2L175.8,60.9z
			 M176.1,62.5v-0.3l-0.2-0.1l0,0.2L176.1,62.5z M176,72.3l0.4,0.1l0.1-0.2l-0.2-0.2h-0.2L176,72.3z M176.3,59l-0.2,0l0.1,0.2
			L176.3,59z M176.3,52.3l0.2-0.3h-0.2l0,0.2L176.3,52.3z M176.6,67.7l-0.3-0.2l0,0.2l0.2,0.1L176.6,67.7z M176.3,66.3l0.1,0.2
			l0.2,0.1h0.2l0.1-0.2l-0.2-0.2l-0.3-0.1L176.3,66.3z M176.5,50.1l0.1,0.2l0.3,0.1v-0.2l-0.1-0.2L176.5,50.1z M176.8,69.1l0.2,0.4
			l0.2,0.1l0.1-0.3l-0.1-0.3l-0.2-0.2l-0.2,0L176.8,69.1z M176.9,70.6l0.2-0.1l-0.2-0.1V70.6z M177.2,51.5h0.2v-0.2h-0.2L177.2,51.5
			z M177.6,68.4v-0.2l-0.3,0.1L177.6,68.4z M177.5,72.1l0.3,0l0.1-0.2l0-0.3l-0.3,0l-0.1,0.2L177.5,72.1z M177.7,65.8l0.4,0.3
			l0.2,0.1l0.1-0.2l-0.1-0.2l-0.4-0.2L177.7,65.8z M178.1,67.2L178,67l-0.2,0l0.1,0.3L178.1,67.2z M178.4,50l0-0.2l-0.2-0.1h-0.2
			l0,0.3l0.2,0.1L178.4,50z M178,64.6l0.2-0.1l-0.2-0.2V64.6z M178,70h0.3l0.1-0.2l-0.3-0.1L178,70z M178.4,68.9l0.2-0.1l0.1-0.2
			l-0.1-0.3l-0.2-0.2l-0.2,0.5l0,0.2L178.4,68.9z M178.2,73.8h0.2v-0.2h-0.2V73.8z M178.6,72.7l0.1-0.2l-0.3-0.1l0,0.2L178.6,72.7z
			 M178.6,67.6l0.1,0.2l0.2-0.2H178.6z M179.2,71.3h-0.3l0,0.2l0.2,0L179.2,71.3z M179.1,66.7l0.3-0.4l-0.2-0.2l-0.2,0.4L179.1,66.7
			z M179.2,65.6l0.2,0.1l0.1-0.2l-0.2,0L179.2,65.6z M179.6,66.7h0.2l-0.2-0.2V66.7z M179.8,68l-0.2,0.1L179.8,68l0.2-0.2h-0.2
			L179.8,68z M179.8,71.2h0.2l0.3-0.3v-0.2l-0.2-0.1l-0.3,0.4L179.8,71.2z M179.9,69.6l0.2,0.1l0.1-0.2l-0.2,0L179.9,69.6z
			 M180.6,65l0-0.2l-0.1-0.2l-0.2-0.1l-0.1,0.2l0.2,0.4H180.6z M180.5,66.2l0.2-0.2h-0.2l-0.2,0.1L180.5,66.2z M181,68.9l-0.1-0.2
			l-0.3,0l0.1,0.2L181,68.9z M180.7,72.9l0.2-0.4l-0.2-0.1l-0.1,0.4L180.7,72.9z M181,67.7l-0.1-0.3l-0.2-0.2l0,0.5H181z
			 M181.6,70.4l0-0.2l-0.2-0.1l-0.2,0l0,0.3l0.2,0.2L181.6,70.4z M181.2,65.5l0.1,0.2h0.2l0.1-0.2H181.2L181.2,65.5z M182.3,69.7
			l0.5,0.2l-0.1-0.2l-0.2,0L182.3,69.7z"/>
	</g>
	<path class="st1" d="M108,124.2c-0.1-1.8-0.7-3.4-1.9-4.7c-1.3-1.4-2.8-2.2-4.7-2.3c-1.3-0.1-2.7,0-4.1,0c0-1.1,0-2.1,0-3
		c0-0.6-0.1-1.2-0.2-1.7c-0.3-1.3-1.3-1.9-2.5-2.3c-5.3,0-10.5,0-15.8,0c-2.2,0.9-2.7,1.8-2.7,4.2c0,0.9,0,1.8,0,2.9
		c-1.1,0-2.1,0-3.1,0c-1.4,0-2.8,0.3-4,1c-2.2,1.3-3.3,3.3-3.5,5.8c0,0.2,0,0.4,0,0.7c0,4,0,8,0,12.1l0.1,0l-0.1,0.2l0,0
		c0,13.4,0,26.8,0,40.2c0,3,1.3,5.3,4.1,6.6c0.8,0.4,1.8,0.7,2.8,0.7c9.6,0,19.2,0,28.8,0c3.5,0,6.4-2.9,6.8-6.5
		c0-0.1,0-0.3,0.1-0.5c0.7,0,1.4,0,2.1,0l-0.1-0.1h0.3v0.1c4.3,0,8.7,0,13.1,0l0-0.1l0-0.3l0.2,0.2l0.1,0.2c4.2,0,8.4,0,12.6,0
		c0-17.7,0-35.4,0-53.2C126.8,124.2,117.4,124.2,108,124.2z M67.2,133.2l0.2,0.1l0.1,0.4l0,0.2l-0.2-0.1l0-0.3V133.2z M67.5,136.9
		v0.4l-0.3,0l0-0.3H67.5z M67.2,155.6l0.1-0.1l0.1,0.3h-0.3L67.2,155.6z M67.5,172.1h-0.2v-0.1h0.2V172.1z M67.4,141.6l-0.1-0.2
		l0.3,0.1L67.4,141.6z M71.6,129.2l0.2,0.1v0.2l-0.2,0.1V129.2z M71.6,131.2V131l0.1,0.2l0.1,1.3l-0.2-0.1l-0.1-0.2L71.6,131.2z
		 M71.6,134.5l0.3-0.1l0,0.4l-0.1,0.2l-0.2-0.2L71.6,134.5z M71.7,135.7l0-0.2l0.1-0.3l0.1,0.2v0.2L71.7,135.7z M71.9,140.1
		l-0.2-0.2l0-0.3l0.1-0.3l0.1,0.1L71.9,140.1z M71.8,145.7v0.3h-0.2l-0.1-0.3H71.8z M71.8,168.1l-0.2,0.1v-0.5l0.2,0.1V168.1z
		 M71.9,171v0.3l-0.2-0.2l0-0.3l0-0.2L71.9,171z M69.5,129.9l0.1,0.2l0,0.3h-0.3l0-0.3L69.5,129.9z M69.5,137.5v-0.2l0.2,0.3
		L69.5,137.5z M69.6,141.7l0.1,0.2l-0.1,0.1V141.7z M69.8,143.5l0,0.3L69.8,143.5h-0.3l0.1-0.3L69.8,143.5z M69.7,138l0-0.2l0.2,0
		l0,0.4L69.7,138z M69.6,131.7v-0.2l0.1,0.1l0,0.2L69.6,131.7z M69.5,165.1l0-0.3l0.2,0.1l0,0.3L69.5,165.1z M69.6,150.1l0.1-0.3
		l0.1,0.2v0.3L69.6,150.1z M69.7,170.3l0-0.2l0.2,0.2L69.7,170.3z M69.6,168.2l-0.1-0.2h0.3l0,0.2L69.6,168.2z M69.9,166.7l-0.1,0.2
		l-0.2-0.2l0.1-0.6l0.2-0.2l0.1,0.2L69.9,166.7z M69.8,146.4l-0.3,0.4l0.1-1.1l-0.1-0.7l0.3-0.1l0.2,0.9L69.8,146.4z M69.9,128.3
		l-0.3,0.1l-0.1-0.3l0.2-0.2l0.2,0.2V128.3z M71.5,161.3l0-0.2l0.2,0.1l0,0.2l-0.3,0L71.5,161.3z M71.6,176.7v-0.3V176.7L71.6,176.7
		z M71.9,174.3l-0.2-0.1v-0.3l0.1-0.2L72,174L71.9,174.3z M71.9,142.7l-0.1-0.4l0.1-0.2l0.1,0.2L71.9,142.7z M71.9,133.4l-0.2-0.1
		l-0.1-0.2v-0.3l0.3,0l0.2,0.1L71.9,133.4z M85.4,136.2V136l0.1,0.2L85.4,136.2z M85.6,138.2v0.2l-0.2,0.1v-0.4L85.6,138.2z
		 M85.5,128.7l-0.1-0.3l0-0.6v-0.3l0.3,0.7l0,0.5L85.5,128.7z M85.7,131.1l-0.2,0.1v-0.3L85.7,131.1z M85.4,126.4v-0.4l0.2,0.1
		l0,0.2H85.4z M85.4,122.5l0.2,0.1l-0.1,0.3l-0.2-0.1L85.4,122.5z M85.3,142l0-0.3l0.1,0.1l0,0.4L85.3,142z M85.6,142.8l0,0.6
		l-0.1,0.2l-0.1-0.2v-0.3l0-0.3H85.6z M83.9,126.5v0.3l-0.2,0.1v-0.3l0.1-0.2L83.9,126.5z M83.4,124.2l0,0.6l-0.3-0.4l0.1-0.8l0-0.3
		l0.4,0.5L83.4,124.2z M83.4,160.4l-0.2,0l0-0.3l0.1-0.3l0-0.2l0.1,0.3l-0.1,0.3L83.4,160.4z M83.3,160.8v0.4l-0.2-0.2L83.3,160.8z
		 M83.3,154.6l-0.2-0.1l0-0.2V154l0.2,0.1l0.1,0.2L83.3,154.6z M83.3,128.5l0-0.3l0.1,0.1l0,0.2L83.3,128.5z M83.5,129.3l-0.2-0.1
		v-0.3l0.1,0.1L83.5,129.3z M83.4,129.9l-0.1,0.3l-0.1-0.1v-0.3L83.4,129.9z M83.2,126.6l-0.1-0.2v-0.3l0-0.4l0.1,0.2L83.2,126.6z
		 M83.2,131.2l0.1,0.2l-0.1,1.7l0.2,1.1l0,0.5l-0.1,0.2l-0.2-0.2l0.1-0.9l-0.1,0.1l-0.2-2.7v-0.3L83.2,131.2z M83.5,146.4l-0.1-0.1
		l0-0.2L83.5,146.4z M83.3,138.9l-0.2-0.2l0.1-0.3v-0.6l0.1-0.3l0.1,0.2v1L83.3,138.9z M83.2,139.4v0.3H83v-0.3H83.2z M83.2,143.4
		l0.2,0.2l-0.2,0.5l-0.1-0.2l-0.1-0.2L83.2,143.4z M83.3,152.3l0.1,0.2l-0.1,0.6l-0.2-0.5l0-0.3H83.3z M83.3,147.9l0-0.3h0.2v0.3
		H83.3z M83.6,151.6l0,0.2l-0.1-0.4L83.6,151.6z M83.4,115.9h-0.2l0.1-0.2h0.1V115.9z M83.2,113.8l0.1,0.1l0,0.2l-0.2-0.1
		L83.2,113.8z M83.1,122.4l0.2-0.2v0.5l-0.2,0.1l-0.2-0.1L83.1,122.4z M81,156.5l0-0.3l0.1,0.2L81,156.5z M81.2,163.4l-0.1,0.2
		l-0.1-0.1v-0.7l0.1-0.2L81.2,163.4z M81,153.6l-0.1-0.2v-0.9l0-0.3l0.1,0.3l-0.1,0.3l0.2,0.6L81,153.6z M81.1,149.7l0.2-0.1v0.4
		L81.1,149.7z M80.9,147.8l0-0.2l0.1,0.1v0.2l-0.2,0L80.9,147.8z M80.8,140.9l0.1-0.2l0.1,0.2l0,0.6l-0.2-0.3L80.8,140.9z M81,139.4
		l0.1-0.2l0.2-0.2L81,139.4z M81,124.8v-0.3l0.2,0.1l0.1,0.3l-0.1,0.2l-0.2-0.1L81,124.8z M81.3,128.5l-0.2-0.1l0-0.2l0-0.3l0.1,0.2
		L81.3,128.5z M81,127.4l0.2,0.2l0,0.2l-0.2-0.1L81,127.4z M80.9,129.1l0-0.3l0.2,0.3l-0.1,0.3l-0.2-0.1L80.9,129.1z M81,132.7
		l0-0.3l0.1,0.4l0,0.5l-0.1,0.6l-0.2-0.1l0-0.5L81,132.7z M81,136.3v-0.2l0.1,0.1l-0.1,0.6l-0.1-0.2l0,0.2l-0.1-0.5H81z M81,137.5
		l-0.1,0.3l-0.2-0.2L81,137.5z M79,126.1l0-0.1l0.1,0.2l-0.2,0.2L79,126.1z M78.9,147.2l0.1-0.6l0-0.2l0.3,0.5L78.9,147.2z
		 M78.9,164.6h0.2l0,0.2l-0.2,0.1V164.6z M78.4,153.3l0.2,0.2l0,0.3l-0.4-0.1l0-0.3L78.4,153.3z M78.3,152.7v-0.3l0.1,0.1l0,0.2
		L78.3,152.7z M78.5,144.3l0.3-0.1l-0.1,0.5L78.5,144.3z M78.8,141l-0.1,0.3l-0.2-0.1V141H78.8z M78.5,139.6v-0.3l0.1-0.3l0.1,0.2
		v0.3L78.5,139.6z M78.8,136v-0.3l0.3,0.2l-0.1,0.6L78.8,136z M78.9,137.4V137h0.3l0.1,0.4H78.9z M78.9,133.1l0.2,0.1l0.1,0.6
		L79,134l-0.1,1l-0.3-0.4l0-0.7l0.2-0.6L78.9,133.1z M78.7,130.2v0.2h-0.3v-0.3L78.7,130.2L78.7,130.2z M78.3,118.5h0.2v0.2h-0.2
		V118.5z M78.3,152.1l0.2-0.1l-0.1,0.4l-0.2-0.1L78.3,152.1z M76.1,132.9l0.1,0.2l0,0.2l-0.1-0.2L76.1,132.9z M76.1,137l0.1-0.3
		l0.2,0.1v0.8l-0.2-0.1v0.4H76l-0.1-0.4L76.1,137z M76,140l0-0.3l0.2,0.1l0.1,0.6l-0.2,0.2l0-0.3L76,140z M76.2,138.6l-0.2-0.2
		l0.1-0.3l0.1,0.2V138.6z M76.2,140.7l0.1,0.2l0,0.2l-0.1-0.1V140.7z M76.1,138.9l0.1,0.4l-0.2-0.2l-0.1-0.2H76.1z M76,146l0-0.3
		l0.2,0.3l-0.1,0.3L76,146z M76,150.9l0.2-0.2l0.1,0.2l0,0.2l-0.2,0.1V150.9z M73.9,134.6l-0.1-0.2v-0.3h0.3L73.9,134.6z
		 M74.1,136.5l-0.1,0.6l-0.2,0l0.1-0.5v-0.2L74.1,136.5z M74,130.4l-0.2-0.2l0.1-0.3l0.2,0.2L74,130.4z M73.8,127.5l0.2,0.1
		l-0.2,0.1V127.5z M73.8,128l0.2,0.2v0.3l-0.2,0.2l0-0.5L73.8,128z M73.8,138l0.1-0.3l0.1,0.2v0.6l-0.3-0.3L73.8,138z M74,149.6
		l0,0.2l-0.1,0.1l0-0.2L74,149.6z M74,154.1v0.4h-0.2v-0.4H74z M74,168.9l-0.1-0.2l0-0.2l0.2,0.2L74,168.9z M74.1,166.4l-0.2-0.1
		l0-0.2l0.1-0.6l0.1-0.2l0.1,0.2V166.4z M73.9,164.7h0.1l0,0.3L73.9,164.7z M74.3,157.9L74,158v-0.4h0.3L74.3,157.9z M74.4,145.3
		l-0.1-0.2l0-0.4l0.1,0.3L74.4,145.3z M74.5,135.5h-0.2v-0.1h0.2V135.5z M76,176.5l-0.1-0.2l0.3,0.1L76,176.5z M76,176v-0.7l0.4-0.1
		V175l0.1,0.9L76,176z M76.3,149.6l-0.2,0.1l0-0.2l0-0.2l0.4,0.1L76.3,149.6z M76.3,142.1l-0.2,0.6l-0.1-0.5v-0.4l0.5,0.2
		L76.3,142.1z M76.5,134.3l-0.1-0.3l0-0.3l0.2,0.3L76.5,134.3z M76.9,140L76.9,140l0-0.2l0.1,0.2H76.9z M78.2,155.1l0.1-0.3l0.3,0.1
		l-0.2,0.5l-0.2-0.1L78.2,155.1z M78.4,157l0.2-0.1l-0.1,0.5l-0.2-0.1L78.4,157z M78.4,168.7l0.3,0.3l-0.2,0L78.4,168.7z
		 M78.8,171.9l0.1-0.2l0.1,0.1L78.8,171.9l0.3,0.3l-0.1,0.3l-0.1-0.1l0,0.7l-0.1-0.1l-0.1-0.5L78.8,171.9z M78.8,174.2l0.2,0.2
		l0,0.7h-0.2l0.1-0.5L78.8,174.2z M79.2,175.8l-0.2,0.1h-0.2l0.1-0.2l0.1-0.2l0.4,0.1L79.2,175.8z M79.4,163.8l-0.2-0.1l0-0.4h0.2
		V163.8z M79.4,125.3l-0.2-0.4v-0.3h0.2V125.3z M81,150.2l0.1,0.6l-0.1-0.1h-0.2L81,150.2z M80.9,170.5l0.1-0.2l0.1-0.2l0,0.3
		L80.9,170.5z M81.2,171v0.3l-0.2,0.2v-0.3L81.2,171L81.2,171z M80.9,176.2L81,176l0,0.2L80.9,176.2z M81.1,175.4l0-0.2l-0.1,0.2
		l-0.2-0.3h0.3V175.4z M81.1,172.5l-0.2-0.2v-0.6l0.1-0.2l0.2,0.2L81.1,172.5z M81.3,168l-0.1-0.2l0,0.2l-0.2,0.1l0-0.3l0-0.3h0.2
		l0.1,0.2V168z M81.3,167.1l-0.3-0.5l0-0.8l0.2,1.1V167.1z M81.5,154.9l-0.3-0.5l0-0.3h0.4V154.9z M83.1,124.8l0.1,0.2v0.6l-0.3-0.1
		L83.1,124.8z M83.2,162.1l0-0.3l0.2,0.2l0.2,0l-0.2,1l0,0.3l-0.2,0.3v0.5l-0.3,0.1L83.2,162.1z M83.2,168.5h0.1v0.2h-0.1V168.5z
		 M83,164.9l0.1-0.3l0.1,0.2L83,164.9z M83,169.6h0.3l0.1,1.1l0,0.5l-0.2-0.2l-0.1-0.5l0-0.6L83,169.6z M83.1,171.6l0.1-0.3l0.2,0.9
		v0.6l-0.3-0.2l0.1-0.3L83.1,171.6z M83.2,176.5l0.1-0.3l0.1,0.4L83.2,176.5z M83.4,173.6l-0.3-0.1l0-0.3l0.1-0.2l0.3,0L83.4,173.6z
		 M83.4,168.1l-0.1-0.2l0-0.8l0-0.3l0.1,0.2l0,0.6l0.3,0L83.4,168.1z M83.9,165.3l-0.3,0v-0.3l0.1-0.2l0.2,0.1L83.9,165.3z
		 M85.4,145.8l0.2,0.1v0.3l-0.2,0.1l-0.1-0.3L85.4,145.8z M85.6,164.9h-0.2v-0.3l0.2,0.1L85.6,164.9z M85.5,152.7h-0.2v-0.2h0.2
		V152.7z M85.5,150.3h-0.2v-0.2h0.2L85.5,150.3z M85.4,149.4V149l0.1,0.4H85.4z M85.4,161l0.2,0.2l-0.1,0.2l-0.1-0.1L85.4,161z
		 M85.5,169v0.2h-0.2V169H85.5z M85.4,180v-0.2l0.2,0.3L85.4,180z M85.5,178.3h-0.2v-0.1h0.2V178.3z M85.5,170.8l0-0.4l0.1,0.2
		L85.5,170.8z M85.7,167.3l-0.2,0.1l-0.1-0.3l0-0.6l0-0.3l0.1,0.2l0.2,0.6L85.7,167.3z M85.7,141.2l-0.4,0.5v-0.3l0.2-0.4l0.1-0.2
		l0.1,0.2L85.7,141.2z M85.4,139.8l0.1-0.2l0.1-0.1l0.2,0.2L85.4,139.8z M85.5,132.3v-0.3h0.3L85.5,132.3z M86.2,137.4l-0.2-0.1V137
		l0.1-0.3l0.2,0.1L86.2,137.4z M100.6,124.1l0.2,0.2l-0.2,0.2V124.1z M100.7,125.4l0.2,0.3h-0.2L100.7,125.4z M101.1,131.4v0.2
		l-0.2,0.1v-0.4L101.1,131.4z M100.6,127.7l0.1-0.2L100.6,127.7l0.3,0.3l-0.2,0.5l-0.1-0.2l0-0.3L100.6,127.7z M99.2,130.2v0.2
		l-0.3,0.1l-0.1-0.3L99,130L99.2,130.2z M98.4,124.8l0.1-0.2l0.1-0.2l0.3,0.4L98.4,124.8z M98.4,123l0.2,0.2h-0.2V123z M96.4,129.2
		v0.2l-0.1,0L96.4,129.2z M94.5,128.8l0.2,0.3l-0.3,0.6l-0.1-0.3l0.1-0.2L94.5,128.8z M94.3,127.4l-0.2-0.1V127l0.1-0.2l0.2,0.2
		L94.3,127.4z M94.1,125.3h0.2v0.1h-0.2V125.3z M94.1,126.1h0.3l-0.1,0.2l0,0.3l-0.2-0.1V126.1z M92.2,159.6l-0.1,0.3l-0.1-0.2
		l0-0.2L92.2,159.6z M91.9,145.3V145h0.2v0.3H91.9z M92.1,134v-0.2l0.2,0.1L92.1,134z M92.1,160.6l-0.2,0.1v-0.2L92.1,160.6z
		 M92,169.4v-0.2l0-0.3l0.2,0.7L92,169.4z M92.2,170.5H92l-0.1-0.1l0.2-0.1L92.2,170.5z M92.2,167l-0.2-0.1l0.1-0.4l0.2,0.2
		L92.2,167z M92.1,165l-0.1-0.2l0.1-0.2l0.1,0.1l0,0.2L92.1,165z M92.2,135.9l0-0.2l0.1,0.1v0.3l-0.1,0.2L92.2,135.9z M92.1,131
		l0-0.3l0.2,0.1l0,0.3L92.1,131z M92,128.3l0.1-0.3l0.2,0.2l-0.1,0.2L92,128.3z M92,126.1l0.2,0.1l0,0.3l-0.3,0l-0.1-0.2L92,126.1z
		 M92.2,131.9v0.3l-0.2-0.1l0-0.2H92.2z M90.4,142.4l-0.1,0.3l-0.2,0.1l0.1-0.2L90.4,142.4z M89.9,147.5l-0.2-0.2l-0.1-0.9V146
		l0.2,0.1l0,0.3l0.1,0.1l-0.2,0.4L89.9,147.5z M89.9,158.9v0.2l-0.2-0.2l0.1-0.3L89.9,158.9z M89.8,153.2v-0.3l0.1-0.1H90l0,0.3
		L89.8,153.2z M89.7,140l0.1-0.3l0.1,0.2L89.7,140z M89.9,144.5l-0.3,0v-0.2L89.9,144.5z M89.7,134l0-0.3l0.2,0.2l-0.1,0.3L89.7,134
		z M89.8,139.2l0.1-0.3l0.1,0.5L89.8,139.2z M89.9,131.9h-0.2v-0.2h0.2V131.9z M89.9,132.9v0.3l-0.1,0.1l-0.2-0.2l0-0.4L89.9,132.9z
		 M89.7,147.8l0.1,0.3l-0.3,0.1v-0.4H89.7z M89.7,163.6L89.7,163.6l-0.1-0.2L89.7,163.6z M89.7,165.6l0.2,0.3l-0.2,0V165.6z
		 M89.7,150.6l0.1,0.2l0,0.6l-0.2-0.1V150.6z M89.9,143.6l0-0.5l0-0.2l0.3,1L89.9,143.6z M90,131.2l-0.3-0.1l-0.1-0.3l0.2-0.1h0.3
		L90,131L90,131.2z M89.7,120.1l0-0.3l0.2,0.1l0,0.6l-0.1,0.2l-0.1-0.3V120.1z M89.7,125.2l0.1,0.2l-0.2,0.1L89.7,125.2z
		 M87.9,139.8l-0.1,0.2l-0.1-0.2l0.1-0.2L87.9,139.8z M87.8,142.3l-0.2-0.1l0-0.4l0.2,0.1l0.1,0.2L87.8,142.3z M87.8,143.3l-0.1,0.3
		l0-0.3l0.1-0.3L87.8,143.3z M87.5,132.3l0.2,0.1l-0.1,0.2L87.5,132.3z M87.5,120L87.5,120l0.2,0.1l-0.2,0.1V120z M87.6,122.6
		l-0.1,0.1l0-0.2L87.6,122.6z M87.5,143.9l0.2,0.1l0.1,0.2h-0.4L87.5,143.9z M87.7,154.8v0.3l-0.1,0.1v-0.5L87.7,154.8z M87.5,156.1
		l0.3,0.1l-0.2,0.3l-0.1-0.2L87.5,156.1z M87.8,181l-0.2,0l0.1-0.5l0.1,0.1V181z M87.5,170.9l0.2,0.1l-0.1,0.1L87.5,170.9z
		 M87.8,165.6l-0.1-0.4l-0.2,0l0.1-0.3v-0.3l0.2,0.1V165.6z M87.8,153.3v-0.4l0.2,0.2L87.8,153.3z M89.7,128.3l0-0.3l0.1,0.3l0,0.3
		l-0.3,0.1L89.7,128.3z M89.5,167l0.1-0.3l0.2-0.1l0,0.6l-0.2,0.1L89.5,167z M89.7,172.6l0-0.3V172l0.2,0l0,0.6L89.7,172.6z
		 M89.8,170.8l-0.2-0.2l0.1-0.3l0.2,0.1L89.8,170.8z M90,169.8l-0.4-0.2v-0.3l0.3-0.1l0.1,0.3L90,169.8z M90,152.5l-0.2-0.1v-0.3
		l0.1-0.2l0.1,0.1L90,152.5z M90.3,176.5l-0.1-0.2h0.3l0.1,0.3L90.3,176.5z M91.8,142.7l0-0.3l0.1,0.4l0,0.6l-0.2-0.4V142.7z
		 M91.9,173.4l0.1-0.2l0.1,0.2H91.9z M92.1,172.3l0.2-0.1v0.3l-0.2,0.1V172.3z M92.3,174.8l-0.1-0.3l0.1-0.3l0.1,0.1L92.3,174.8z
		 M92.3,136.9l0-0.2l0.2,0.1l0,0.3L92.3,136.9z M92.6,136.6l-0.1-0.2v-0.3l0.2,0.2L92.6,136.6z M93.9,131.3c2.3,0,4.7,0,7,0
		c0,0.9,0,1.7,0,2.6l0-0.6v-0.2l0.1,0.2l0.1,0.5l0.1,0.1l0.1,0.5l-0.2-0.2l0,0.3l-0.2-0.1l-0.1-0.2c0,0.8,0,1.7,0,2.5l0-0.1l0.3-0.1
		l0,0.4l-0.1,0.2l-0.1-0.1c0,0.4,0,0.9,0,1.3c-2.1,0-4.2,0-6.4,0l-0.1,1.6l-0.1-0.1l-0.1-0.9l0.1-0.6c-0.1,0-0.2,0-0.3,0
		C93.9,136,93.9,133.7,93.9,131.3z M101,159.8l-0.1,0.3l-0.2,0.1v-1.2l0.1-0.3l0.2,0.2v0.2l-0.2,0.5L101,159.8z M100.8,162.9
		l-0.2,0.2v-0.4L100.8,162.9z M100.9,157.1v-0.2l0.2,0.1L100.9,157.1z M100.8,152.5v-0.4l0.1,0.2l0,0.3L100.8,152.5z M101,172.7
		l0.2,0.4v0.3l-0.2-0.2l0-0.3L101,172.7z M100.9,170.3v-0.5l0.2,0.1v0.3L100.9,170.3z M100.9,149.7l0.1-0.3l0.1,0.2L100.9,149.7z
		 M101.1,148h-0.2l-0.1-0.3h0.3V148z M100.7,143.1v-0.3l0.2,0.2l0,0.3L100.7,143.1z M100.9,142l0-0.3l0.1-0.3l0.1,0.1l0,0.7
		L100.9,142z M101,137.8l0-0.2l0.1-0.3l0.1,0.2v0.2L101,137.8z M99.1,150.1l-0.1,0.4l-0.3-0.5l0.1-0.4H99l0,0.3L99.1,150.1z
		 M98.8,154l-0.1,0.3l-0.2-0.2l0.1-0.3L98.8,154z M98.6,155l0.3,0.2h-0.3V155z M98.9,152.2l0.1-0.3l0.1,0.2v0.3L98.9,152.2z
		 M99,148.4l-0.3,0.4l0.1-1.1l-0.1-0.7l0.3-0.1l0.2,0.9L99,148.4z M99,140.1l0-0.2l0.2,0l0,0.4L99,140.1z M99,144L99,144l-0.1-0.2
		L99,144z M98.8,139.6v-0.2l0.2,0.3L98.8,139.6z M99,145.6l0,0.3L99,145.6h-0.3l0.1-0.3L99,145.6z M99.2,160.5h0.2v0.2h-0.2V160.5z
		 M96.7,138.8l0,0.2h0.1v0.3l0,0h0v0l-0.3,0l0-0.3h0l0-0.1h-0.2v-0.2h0.2v0.2L96.7,138.8z M96.3,139.9l0-0.2v-0.2h0.3v0.5
		L96.3,139.9z M96.6,140.8v0.2h-0.2v-0.2H96.6z M96.5,144.4l-0.1,0.5l-0.2-0.2l0-0.2L96.5,144.4z M96.2,148.8v-0.2l0.1-0.2l0.2,0.2
		l-0.1,0.4L96.2,148.8z M96.4,152.3l0.1,0.2l-0.1,0.2l-0.1-0.2L96.4,152.3z M96.2,159v-0.2l0.2,0.1v0.2l-0.2,0L96.2,159z
		 M96.4,157.8l0-0.2l0.1-0.1l0.1,0.3H96.4z M96.4,151.1l0.2-0.2l0.1,0.3L96.4,151.1z M96.6,150.1l-0.1,0.1l-0.1-0.2l0.2-0.2l0.2,0.3
		H96.6z M96.7,143.7l-0.1-0.2l0.2,0.1l-0.1-1.1l0-0.3l0.2,0.1l0,0.6l0.1,0.6l-0.1,0.7L96.7,143.7L96.7,143.7z M94.4,140.6l0.2,0.4
		l-0.1,0.2l-0.3,0.1l-0.2-0.5l0-0.3l0-0.3l0.2,0.2v0.3L94.4,140.6z M94.7,142h-0.1v-0.4h0.1V142z M94.7,144.3v0.2h-0.1v-0.2H94.7z
		 M94.1,156.5l0.2,0.1l0,0.3l-0.1,0.2l-0.2-0.1l-0.1-0.3L94.1,156.5z M94.4,145.7l-0.2-0.1l0-0.3h0.4l0,0.4L94.4,145.7z M94.7,152.6
		l-0.1,0.2l-0.1-0.4L94.7,152.6z M94.6,138.7l0.2-0.1l-0.1,0.2L94.6,138.7z M94.4,180l-0.2-0.2v-0.3l0.2,0.2V180z M94.1,178.2v-0.4
		l0.2,0.1l0,0.2L94.1,178.2z M94.4,177.3l-0.1,0.2l-0.2,0.1l0.2-0.8l0.2-0.3V177.3z M94.4,176.1l-0.4-0.2l0.1-0.2h0.3V176.1z
		 M94.1,174.8l0.2,0.2l0.1,0.4l0,0.3l-0.2-0.5L94.1,174.8z M96.6,178.3h-0.2v-0.2l0.3,0.1L96.6,178.3z M96.3,176.1v-0.6l0.3,0.1
		l0,0.4L96.3,176.1z M96.8,174.2h-0.2V174h0.2V174.2z M96.7,172.7l-0.2-0.1l0-0.4l0.2,0.1l0.1,0.2L96.7,172.7z M98.6,171.5h0.3
		l-0.1,0.3L98.6,171.5z M99,172.3l0-0.2l0.2,0.2L99,172.3z M98.9,170.3l-0.1-0.2h0.3l0,0.2L98.9,170.3z M97,170.1l-0.1,0.2h-0.2
		l0.1-0.2L97,170.1c-1,0-2.1,0-3.1,0c0-2.3,0-4.6,0-6.9c1.6,0,3.1,0,4.6,0l0-0.1l0.1-0.1l0.3,0.1v0.1c0.6,0,1.2,0,1.9,0l0-0.1
		l0.2,0.1l0,0.2l-0.1,0c0,0.2,0,0.3,0,0.5l0.2,0l-0.1,0.2l-0.1,0c0,0.7,0,1.5,0,2.2l0.1,0.2l-0.1,0.1c0,1.1,0,2.2,0,3.4
		C99.6,170.1,98.3,170.1,97,170.1z M100.9,178.8v-0.3V178.8L100.9,178.8z M101.2,176.4l-0.2-0.1V176l0.1-0.2l0.2,0.3L101.2,176.4z
		 M101.2,144.8l-0.1-0.4l0.1-0.2l0.1,0.2L101.2,144.8z M101.2,135.5l-0.2-0.1l-0.1-0.2v-0.3l0.3,0l0.2,0.1L101.2,135.5z
		 M134.6,129.3l0.1,0.2l-0.2,0.4l0-0.3L134.6,129.3z M134.7,133.9l0,0.3l-0.2-0.1v-0.4L134.7,133.9z M134.5,135.9L134.5,135.9
		l-0.1-0.2L134.5,135.9z M134.5,139.7l0.2,0.2l0.1,0.7l-0.2,0.2l0-0.2l-0.2-0.5L134.5,139.7z M134.5,141.8l0.2-0.2l0.1,0.2l-0.1,0.3
		l-0.3,0L134.5,141.8z M134.5,143.1l0.2,0.1l0.1,0.6l-0.1,0.2l-0.1-0.2l0-0.3L134.5,143.1z M134.4,147.7l0.4,0l-0.1,0.4l-0.2,0.2
		l-0.1-0.1V147.7z M132.4,139.5l0,0.5l-0.1,0.3l-0.2-0.2v-0.9l0-0.3L132.4,139.5z M132.2,135.2l-0.1-0.3l0.1-0.6v-0.2l0.2,0.2v0.3
		L132.2,135.2z M132.4,140.8l0,0.2l-0.1-0.1L132.4,140.8z M132.4,162.3l0-0.2l0.2,0.3L132.4,162.3z M132.4,165.3l-0.1,0.6l-0.2-0.2
		l0-0.3L132.4,165.3z M132.2,155.9l0.2-0.1v0.3L132.2,155.9z M132.2,151l0.2,0l0.1,0.2h-0.3V151z M132.2,124.5h0.1v0.2h-0.1V124.5z
		 M132.3,126.3l0-0.1h0.1l0.1,0.7l-0.1,0.3l-0.2,0l0-0.4L132.3,126.3z M132.1,132.2l0.2,0.2l0,0.2l-0.1,0.2l-0.1-0.2L132.1,132.2z
		 M129.9,126.2l0.2,0.2l-0.2,0.2V126.2z M130,127.5l0.2,0.3h-0.2L130,127.5z M129.9,129.8l0.1-0.2L129.9,129.8l0.3,0.3l-0.2,0.5
		l-0.1-0.2l0-0.3L129.9,129.8z M130.2,161.9l-0.1,0.3l-0.2,0.1v-1.2l0.1-0.3l0.2,0.2v0.2l-0.2,0.5L130.2,161.9z M130.1,165l-0.2,0.2
		v-0.4L130.1,165z M130,145.2v-0.3l0.2,0.2l0,0.3L130,145.2z M130.1,154.2l0.1,0.2l0,0.3l-0.2-0.1V154.2z M127.7,125.1l0.2,0.2h-0.2
		V125.1z M128.2,126.9l-0.5,0l0.1-0.2l0.1-0.2L128.2,126.9z M123.3,127.4h0.2v0.1h-0.2V127.4z M123.3,128.1h0.3l-0.1,0.2l0,0.3
		l-0.2-0.1V128.1z M123.7,129.1l-0.1,0.3l-0.2-0.1v-0.2l0.1-0.2L123.7,129.1z M121.5,161.7l-0.1,0.3l-0.1-0.2l0-0.2L121.5,161.7z
		 M121.2,147.4v-0.3h0.2v0.3H121.2z M121.4,136.1v-0.2l0.2,0.1L121.4,136.1z M121.4,162.7l-0.2,0.1v-0.2L121.4,162.7z M121.3,171.5
		v-0.2l0-0.3l0.2,0.7L121.3,171.5z M121.5,172.6h-0.2l-0.1-0.1l0.2-0.1L121.5,172.6z M121.5,169.1l-0.2-0.1l0.1-0.4l0.2,0.2
		L121.5,169.1z M121.4,167.1l-0.1-0.2l0.1-0.2l0.1,0.1l0,0.2L121.4,167.1z M121.5,138l0-0.2l0.1,0.1v0.3l-0.1,0.2L121.5,138z
		 M121.4,133.1l0-0.3l0.2,0.1l0,0.3L121.4,133.1z M121.3,130.3l0.1-0.3l0.2,0.2l-0.1,0.2L121.3,130.3z M121.3,128.1l0.2,0.1l0,0.3
		l-0.3,0l-0.1-0.2L121.3,128.1z M121.5,133.9v0.3l-0.2-0.1l0-0.2H121.5z M121.3,136.2v0.2l-0.2-0.1L121.3,136.2z M119.3,133.2
		l-0.3-0.1l-0.1-0.3l0.2-0.1h0.3l-0.1,0.3L119.3,133.2z M119.2,149.6l-0.2-0.2l-0.1-0.9v-0.3l0.2,0.1l0,0.3l0.1,0.1l-0.2,0.4
		L119.2,149.6z M119.2,161v0.2L119,161l0.1-0.3L119.2,161z M119.1,155.3V155l0.1-0.1h0.1l0,0.3L119.1,155.3z M119.2,135v0.3
		l-0.1,0.1l-0.2-0.2l0-0.4L119.2,135z M119,134v-0.2h0.2v0.2H119z M119.2,136l-0.1,0.3l-0.1-0.2l0-0.3L119.2,136z M119,149.9
		l0.1,0.3l-0.3,0.1v-0.4H119z M119,165.7L119,165.7l-0.1-0.2L119,165.7z M118.9,167.7l0.2,0.3l-0.2,0V167.7z M119,152.7l0.1,0.2
		l0,0.6l-0.2-0.1V152.7z M118.9,146.6v-0.2l0.3,0.2L118.9,146.6z M119,142.1l0.1-0.3l0.1,0.2L119,142.1z M119.1,141.3l0.1-0.3
		l0.1,0.5L119.1,141.3z M119,127.3l0.1,0.2l-0.2,0.1L119,127.3z M117.2,141.9l-0.1,0.2l-0.1-0.2l0.1-0.2L117.2,141.9z M117.1,144.4
		l-0.2-0.1l0-0.4l0.2,0.1l0.1,0.2L117.1,144.4z M117.1,145.4l-0.1,0.3l0-0.3l0.1-0.3L117.1,145.4z M116.9,134.7l-0.1-0.4l0.2,0.1
		L116.9,134.7z M116.9,124.7l-0.1,0.1l0-0.2L116.9,124.7z M116.3,135v0.3l-0.2,0l0-0.2H116.3z M115,130.4l0,0.5l-0.2-0.1l-0.1-0.3
		l0-0.6v-0.3L115,130.4z M114.6,128.5v-0.4l0.2,0.1l0,0.2H114.6z M114.6,124.6l0.2,0.1l-0.1,0.3l-0.2-0.1L114.6,124.6z M113.1,128.6
		v0.3l-0.2,0.1v-0.3l0.1-0.2L113.1,128.6z M112.7,126.3l0,0.6l-0.3-0.4l0.1-0.8l0-0.3l0.4,0.5L112.7,126.3z M112.8,130.7l-0.2-0.1
		l0-0.3l0.1,0.1L112.8,130.7z M112.4,124.5l0.2-0.2v0.5l-0.2,0.1l-0.2-0.1L112.4,124.5z M112.4,126.9l0.1,0.2v0.6l-0.3-0.1
		L112.4,126.9z M112.5,128.1l0,0.6l-0.1-0.2v-0.3l0-0.4L112.5,128.1z M111.9,129.4l-0.1,0.4l-0.1-0.2L111.9,129.4z M110.4,130
		l0.1,0.2l0,0.4l-0.2-0.1l0-0.2L110.4,130z M110.1,129.7l0.1-0.3l0.2,0.2l0,0.2L110.1,129.7z M110.2,126.9v-0.3l0.2,0.1l0.1,0.3
		l-0.1,0.2l-0.2-0.1L110.2,126.9z M109.8,125.9v0.2V125.9L109.8,125.9z M109.8,127.6l0.1-0.2l0.2,0.5l-0.1,0.5l-0.2-0.1l0-0.2
		L109.8,127.6z M109.6,129.9l0-0.6l0-0.3l0.5,0.4l-0.3,0.7v0.3l-0.4-0.3L109.6,129.9z M108.4,126.7h0.2v0.7l-0.2-0.4V126.7z
		 M108.3,128.2l0-0.1l0.1,0.2l-0.2,0.2L108.3,128.2z M108,132.3v0.2h-0.3v-0.3L108,132.3L108,132.3z M108.3,148.8l0-0.2l0.3,0.5
		l-0.5,0.3L108.3,148.8z M108.1,139.5V139h0.3l0.1,0.4H108.1z M108,146.8l-0.2-0.4l0.3-0.1L108,146.8z M107.6,159.3l0-0.2l0.2-0.1
		l-0.1,0.5L107.6,159.3z M107.6,166.4l-0.1,0.3l-0.1-0.1l0-0.3L107.6,166.4z M107.7,157.5l-0.2-0.1l0-0.2l0.1-0.3l0.3,0.1
		L107.7,157.5z M107.3,139.4h0.1l0,0.7l-0.1-0.2l0.1-0.3L107.3,139.4z M107.5,149.6l-0.1,0.1v-0.1l0-0.1L107.5,149.6z M107.4,153.7
		l0.1-0.2h0.3l-0.1,0.3l-0.3,0.1L107.4,153.7z M107.5,131.4l0-0.3l0.1,0.3l-0.1,1.2l-0.1-0.5L107.5,131.4z M107.4,129.4v-0.3
		l0.1-0.3l0.1,0.2l0,0.6L107.4,129.4z M107.7,140.5l-0.1,0.2l0-0.1l0-0.3L107.7,140.5z M107.8,154.1l-0.1,0.4l-0.2-0.1l0.1-0.2
		L107.8,154.1z M107.4,154.5h0.2v0l0,0h0.1l0,0.1l0.1,0.1l0,0.2l-0.1-0.1l-0.2,0.1V154.5z M107.5,155.8l0-0.3l0.1-0.1l0.2,0.2l0,0.3
		L107.5,155.8z M108,143.4l-0.2-0.1v-0.2h0.3L108,143.4z M108,141.6l-0.2,0.1v-0.3l0.1-0.3l0.1,0.2V141.6z M107.5,127.4l0.1,0.3
		l-0.1,0.3l-0.1-0.1l0-0.3L107.5,127.4l0.2-0.1L107.5,127.4z M107.4,123.9l0,0.3h-0.2L107.4,123.9z M107.4,133.9l0-0.2v-0.4
		L107.4,133.9z M107.2,136.9l0-0.2l0.2,0.1l0.1,0.6l-0.1,0.2l-0.1-0.1l-0.1-0.3L107.2,136.9z M107.3,160.9l0.1-0.2l0.1,0.3l-0.3,0.1
		L107.3,160.9z M105.7,128.3l0.1,0.2v0.3l-0.4-0.1v-0.3l0.1,0.2L105.7,128.3z M105.5,135.4l-0.1-0.2l0-0.2l0.1,0.2L105.5,135.4z
		 M105.7,136.5l-0.1,1.1l-0.2-0.5v-0.9l0.1-0.2L105.7,136.5z M105.3,132v-0.4l0.1,0.2l0,0.3L105.3,132z M105.4,127.2l0.1,0.2
		l-0.2,0.4l0-0.3L105.4,127.2z M105.3,133.8L105.3,133.8l-0.1-0.2L105.3,133.8z M105.2,137.6l0.2,0.2l0.1,0.7l-0.2,0.2l0-0.2
		l-0.2-0.5L105.2,137.6z M105.2,139.8l0-0.2l0.2-0.5l0.1-0.3l0.2,0.1v0.8l-0.1-0.1l-0.1,0.2l0,0v0.1h-0.2l0-0.1l-0.1,0L105.2,139.8z
		 M105.5,140.4v0.3l-0.2-0.2l0.1-0.3L105.5,140.4z M105.4,141l0.1,0.4l0,0l0.1,0.3l-0.1,0.2l0.1,0l0.1,0.6l-0.2,0.2l0-0.3l-0.1-0.2
		l0-0.3l0.1,0l-0.1-0.2l0-0.3l-0.1-0.2l-0.1-0.1H105.4z M105.6,143.1l0,0.2l-0.1-0.1v-0.3L105.6,143.1z M105.5,168.4l-0.1-0.2v-0.2
		l0-0.3l0.3,0.1L105.5,168.4z M105.6,174.6v0.2l-0.2,0l-0.2-0.1L105.6,174.6z M105.3,166.3l-0.1-0.2l0-0.3l0.1-0.2l0.1,0.2l0,0.3
		L105.3,166.3z M105.1,159.1v-0.2l0.1,0.3L105.1,159.1z M105.5,153.2L105.5,153.2l-0.2,0.1V153l0,0l-0.1-0.4v-0.4h0.3l0.1,0.8
		L105.5,153.2L105.5,153.2z M105.3,146.3l-0.1-0.1v-0.5l0.4,0l-0.1,0.4L105.3,146.3z M105.5,148l-0.1,0.3l-0.1-0.2l0-0.3L105.5,148z
		 M103.3,152l-0.1,0.1l0-0.2l0.2-0.1L103.3,152z M103.3,156.2v0.4h-0.2v-0.4H103.3z M103.1,153.7v0.3l-0.2-0.2L103.1,153.7z
		 M103,140.1l0.1-0.3l0.1,0.2v0.6l-0.3-0.3L103,140.1z M102.9,138.8l0.1,0l0,0.2L102.9,138.8z M102.9,148.9l0.2,0l0.1,0.2h-0.3
		V148.9z M103.1,139.2l0.1-0.5v-0.2l0.2,0.1l-0.1,0.6L103.1,139.2z M103.2,136.7l-0.1-0.2v-0.3h0.3L103.2,136.7z M103.1,137.4l0,0.5
		l-0.1,0.3l-0.2-0.2v-0.9l0-0.3L103.1,137.4z M103.1,163.2l-0.1,0.6l-0.2-0.2l0-0.3L103.1,163.2z M103.1,160.2l0-0.2l0.2,0.3
		L103.1,160.2z M103.1,157.7l0.2-0.1l0.1,0.2v0.3l-0.2-0.1L103.1,157.7z M103.3,150.6l-0.2,0.1l0.1-0.3l0.3-0.1L103.3,150.6z
		 M103.3,132.5l-0.2-0.2v0.2l-0.2,0.5l-0.1-0.3l0.1-0.6V132l0.2,0.2v0.1l0.1-0.3l0.2,0.2L103.3,132.5z M103.4,130.6l-0.2,0.2l0-0.5
		l0-0.2l0.2,0.2V130.6z M103.1,129.8v-0.2l0.2,0.1L103.1,129.8z M102.9,122.4h0.1v0.2h-0.1V122.4z M103,124.2l0-0.1h0.1l0.1,0.7
		l-0.1,0.3l-0.2,0l0-0.4L103,124.2z M102.8,130.1l0.2,0.2l0,0.2l-0.1,0.2l-0.1-0.2L102.8,130.1z M102.8,134.6l0-0.3l0.1,0.1l0,0.7
		l-0.2-0.1L102.8,134.6z M102.9,170.9V170l0.3,0.7l-0.1,0.7L102.9,170.9z M103.3,171l-0.1-0.2l0-0.2l0.2,0.2L103.3,171z
		 M103.4,168.5l-0.2-0.1l0-0.2l0,0l-0.3-0.1l0.2-0.2l0.2,0l0.1-0.3l0.1-0.2l0.1,0.2V168.5z M103.2,166.8h0.1l0,0.3L103.2,166.8z
		 M103.5,160l-0.2,0.1v-0.4h0.3L103.5,160z M103.6,147.4l-0.1-0.2l0-0.4l0.1,0.3L103.6,147.4z M103.8,137.6h-0.2v-0.1h0.2V137.6z
		 M105.2,178.6l-0.1-0.2l0.3,0.1L105.2,178.6z M105.3,178.1v-0.7l0.4-0.1v-0.2l0.1,0.9L105.3,178.1z M105.6,151.7l-0.2,0.1l0-0.2
		l0-0.2l0.4,0.1L105.6,151.7z M105.6,144.2l-0.2,0.6l-0.1-0.5v-0.4l0.5,0.2L105.6,144.2z M105.7,136.4l-0.1-0.3l0-0.3l0.2,0.3
		L105.7,136.4z M106.2,142.1L106.2,142.1l0-0.2l0.1,0.2H106.2z M107.2,162.5h0.2v0.4l-0.2,0V162.5z M107.6,172.2l-0.2,0.1v-0.5
		l0.2,0.1V172.2z M107.6,170.6l-0.2-0.2v-0.3l0.2,0.2L107.6,170.6z M107.6,168.1l-0.1-0.1l0-0.3l0.1,0.2L107.6,168.1z M107.7,170.8
		l0.3,0.3l-0.2,0L107.7,170.8z M108.1,177.1l0.1-0.5l-0.1-0.3l0.2,0.2l0,0.7H108.1z M108.2,174.6l-0.1-0.1l0,0.7l-0.1-0.1l-0.1-0.5
		l0.1-0.6l0.1-0.2l0.1,0.1l-0.1,0.2l0.2,0.2L108.2,174.6z M110.1,172.6l0.1-0.2l0.1-0.2l0,0.3L110.1,172.6z M110.5,173v0.3l-0.2,0.2
		v-0.3L110.5,173L110.5,173z M110.4,174.6l-0.2-0.2v-0.6l0.1-0.2l0.2,0.2L110.4,174.6z M112.3,171.7h0.3l0.1,1.1l0,0.5l-0.2-0.2
		l-0.1-0.5l0-0.6L112.3,171.7z M112.5,170.8v-0.2h0.1v0.2H112.5z M112.4,173.7l0.1-0.3l0.2,0.9v0.6l-0.3-0.2l0.1-0.3L112.4,173.7z
		 M112.7,175.7l-0.3-0.1l0-0.3l0.1-0.2l0.3,0L112.7,175.7z M114.8,172.9l0-0.4l0.1,0.2L114.8,172.9z M114.6,171.3v-0.2h0.2v0.2
		H114.6z M115,169.4L115,169.4c0,0.3,0,0.5,0,0.7c-0.7,0-1.5,0-2.2,0l0,0l0,0c-0.8,0-1.7,0-2.5,0l0,0l0,0c-0.7,0-1.4,0-2.1,0
		c0-2.3,0-4.6,0-6.9c1.5,0,3,0,4.5,0l-0.1-0.1l0.2-0.2v0.3c0.7,0,1.3,0,2,0l0-0.1l0.1,0.1c0.1,0,0.2,0,0.2,0c0,1.9,0,3.8,0,5.7
		l0.1,0.3L115,169.4z M109.9,144.5l0.1,0.4l-0.2,0.2l0.2,1.1l-0.2,0.3l0.1,0.2l-0.1,0.1l-0.3,0l0.1-0.5l0-1.6L109.9,144.5z
		 M109.7,143.3l0.2,0l-0.1,0.2L109.7,143.3z M110.3,152.1l0.1,0.2l-0.3-0.1L110.3,152.1z M110.1,150.1l0-0.2l0-0.2l0.1,0.1v0.2
		L110.1,150.1z M110.4,151.8l0.2-0.1v0.4L110.4,151.8z M110.3,143.6l-0.2-0.3l0-0.3l0.1-0.2l0.1,0.2L110.3,143.6z M110.2,152.3
		l0.1,0.6l-0.1-0.1h-0.2L110.2,152.3z M110.2,154.5l0-0.3l0.1,0.3l-0.1,0.3l0.2,0.6l-0.1,0.3l-0.1-0.2V154.5z M110.4,158.2l0.1,0.2
		l-0.2,0.1L110.4,158.2z M110.4,156.5l0-0.3h0.4v0.8L110.4,156.5z M110.2,141.5l0.1-0.2l0.2-0.2L110.2,141.5z M110.2,139.9l-0.2-0.2
		l0.3-0.1L110.2,139.9z M110,147l-0.1,0.2h-0.2v-0.3L110,147z M109.6,155.2l0.1,0.2l0,0.6l-0.1-0.2v-0.3L109.6,155.2z M109.5,150.5
		v-0.3l0.1,0.2v0.3L109.5,150.5z M109.6,149.3l0-0.3l0-0.3l0.2,0.2v0.6L109.6,149.3z M109.8,149.8l0.1,0.2l0,0.5l-0.1-0.2V149.8z
		 M111.9,138.9l0.1,0.2l0.1,0l0,0l-0.4,0.5l-0.1-0.3L111.9,138.9z M111.7,138.9l0.1-0.5l0.2,0.5H111.7z M112.1,142.8l-0.1,0
		l-0.1-0.6l0-0.3h0.1l0.1,0.3L112.1,142.8z M112,145.5l-0.3,0.4l-0.1-0.2l0.1-0.2H112z M112.1,152.9h-0.2v-0.2L112.1,152.9z
		 M111.8,161.1l-0.1,0.2l-0.1-0.4L111.8,161.1z M111.8,161.8v0.3h-0.2v-0.3H111.8z M112.7,162.5l-0.2,0l0-0.3l0.1-0.3l0-0.2l0.1,0.3
		l-0.1,0.3L112.7,162.5z M112.6,156.7l-0.2-0.1l0-0.2v-0.2l0.2,0.1l0.1,0.2L112.6,156.7z M112.8,153.7l0,0.2l-0.1-0.4L112.8,153.7z
		 M112.6,150l0-0.3h0.2v0.3H112.6z M112.7,148.3l0-0.2l0.1,0.3L112.7,148.3z M112.7,140.8l-0.1,0.2l-0.2-0.2l0.1-0.3v-0.6l0.1-0.3
		l0.1,0.2V140.8z M112.5,141.5v0.3h-0.2v-0.3H112.5z M112.5,145.5l0.2,0.2l-0.2,0.5l-0.1-0.2l-0.1-0.2L112.5,145.5z M112.6,154.4
		l0.1,0.2l-0.1,0.6l-0.2-0.5l0-0.3H112.6z M114.1,157v-0.2l0.2,0.1L114.1,157z M114.4,157.7v0.3l-0.1-0.1l0-0.2L114.4,157.7z
		 M114.1,148.2l-0.2-0.2l0.1-0.3l0.1,0.2V148.2z M114.6,152.4v-0.2h0.2l0,0.2H114.6z M114.8,154.6v0.2h-0.2v-0.2H114.8z
		 M114.7,151.5v-0.4l0.1,0.4H114.7z M114.6,148.5l-0.1-0.3l0.1-0.3l0.2,0.1v0.3L114.6,148.5z M114.8,145.5l-0.1,0.2l-0.1-0.2v-0.3
		l0-0.3h0.2L114.8,145.5z M114.6,144.1l0-0.3l0.1,0.1l0,0.4L114.6,144.1z M114.6,144.9l0,0.3l-0.2-0.2v-0.3L114.6,144.9z M115,143.3
		l-0.4,0.5v-0.3l0.2-0.4l0.1-0.2l0.1,0.2L115,143.3z M114.6,141.9l0.1-0.2l0.1-0.1l0.2,0.2L114.6,141.9z M114.6,140.6v-0.4l0.2,0.1
		v0.2L114.6,140.6z M114.9,134.2c0,1.3,0,2.7,0,4.1c0,0-0.1,0-0.1,0l0,0l0,0c-1.5,0-2.9,0-4.4,0l0,0l-0.1,0.6l-0.1-0.2l0,0.2
		l-0.1-0.5h0.2v-0.1c-0.7,0-1.3,0-2,0l0,0.2l-0.1-0.2c-0.1,0-0.1,0-0.2,0c0-0.5,0-0.9,0-1.4l-0.2-0.3l0-0.7l0.1-0.5
		c0-1.4,0-2.8,0-4.2c0.6,0,1.1,0,1.7,0l0-0.1l0.1-0.2l0.2,0v0.3c0.1,0,0.1,0,0.2,0l0-0.2l0-0.3l0.2,0.3l0,0.2c0.4,0,0.9,0,1.3,0
		l-0.1-0.1l0.1-0.2l0.2,0.1l0,0.2c0.2,0,0.5,0,0.7,0l0,0V131l0.1,0.1l0,0.2c0.7,0,1.4,0,2.1,0c0,0.6,0,1.2,0,1.8l0,0l0,0
		c0,0.3,0,0.6,0,0.8h0.2L114.9,134.2z M115.5,139.5l-0.2-0.1v-0.2l0.1-0.3l0.2,0.1L115.5,139.5z M116.4,151.2H116l0.1-0.2l0.2-0.1
		V151.2z M116.1,147.9v-0.1h0.2v0.1H116.1z M116.3,142.5l-0.1-0.1l0-0.3l0.1-0.2l0.1,0.3l0.2-0.2L116.3,142.5z M116.3,137.5l0.1,0.6
		l-0.1,0.3l-0.2-0.3l0-0.2l0.2-1l-0.1-0.2l0.3,0.1l0.3,0.6l-0.1,0.2H116.3z M116.8,146l0.2,0.1l0.1,0.2h-0.4L116.8,146z M117,156.9
		v0.3l-0.1,0.1v-0.5L117,156.9z M116.8,158.2l0.3,0.1l-0.2,0.3l-0.1-0.2L116.8,158.2z M116.9,173.2l-0.1-0.2L116.9,173.2
		L116.9,173.2z M117.1,167.7l-0.1-0.4l-0.2,0l0.1-0.3v-0.3l0.2,0.1V167.7z M117.1,155.4v-0.4l0.2,0.2L117.1,155.4z M118.6,155.1
		l-0.1-0.1h0.2L118.6,155.1z M119,130.3l0-0.3l0.1,0.3l0,0.3l-0.3,0.1L119,130.3z M118.8,169.1l0.1-0.3l0.2-0.1l0,0.6l-0.2,0.1
		L118.8,169.1z M119,174.7l0-0.3v-0.3l0.2,0l0,0.6L119,174.7z M119.1,172.9l-0.2-0.2l0.1-0.3l0.2,0.1L119.1,172.9z M119.3,171.9
		l-0.4-0.2v-0.3l0.3-0.1l0.1,0.3L119.3,171.9z M119.3,154.6l-0.2-0.1v-0.3l0.1-0.2l0.1,0.1L119.3,154.6z M119.2,145.7l0-0.5l0-0.2
		l0.3,1L119.2,145.7z M119.5,144.8l-0.2,0.1l0.1-0.2l0.2-0.1L119.5,144.8z M121,144.8l0-0.3l0.1,0.4l0,0.6L121,145V144.8z
		 M121.2,175.5l0.1-0.2l0.1,0.2H121.2z M121.4,174.4l0.2-0.1v0.3l-0.2,0.1V174.4z M121.6,176.9l-0.1-0.3l0.1-0.3l0.1,0.1
		L121.6,176.9z M121.6,139l0-0.2l0.2,0.1l0,0.3L121.6,139z M121.9,138.7l-0.1-0.2v-0.3l0.2,0.2L121.9,138.7z M123.6,171.9h-0.2v-0.2
		h0.2V171.9z M125.5,170.7l0.3,0.4l-0.2,0L125.5,170.7z M125.9,174.8l-0.2-0.1l0-0.4l0.2,0.1l0.1,0.2L125.9,174.8z M126.2,172.4
		h-0.2l0.1-0.2l0.2,0L126.2,172.4z M128.1,173.8l-0.2-0.3h0.3L128.1,173.8z M129.1,170.1c-1.8,0-3.5,0-5.3,0l-0.2,0.2l-0.1-0.2
		c-0.5,0-1,0-1.5,0c0-2.3,0-4.6,0-6.9c2.3,0,4.6,0,6.9,0C129.1,165.5,129.1,167.8,129.1,170.1z M123.5,139.6l0-0.9l-0.1-0.2l0.3,0.4
		l0.1,1.1l-0.2,2l-0.1-0.1l-0.1-0.9l0.1-0.7l0.1-0.2L123.5,139.6z M123.4,142.6l0-0.3l0.2,0.2v0.3l0.1-0.1l0.2,0.4l-0.1,0.2
		l-0.3,0.1l-0.2-0.5L123.4,142.6z M123.8,146.6v-0.2h0.1v0.2H123.8z M123.8,147.7l-0.2,0l-0.2-0.1l0-0.3h0.4L123.8,147.7z
		 M123.4,158.6l0.2,0.1l0,0.3l-0.1,0.2l-0.2-0.1l-0.1-0.3L123.4,158.6z M125.7,140.8v0.2l0.3-0.1l0.1,0.5h-0.2l-0.1-0.2l0-0.2h-0.2
		v-0.2H125.7z M125.5,139.7l0.1-0.6l0.2,0.4l-0.1,0.2L125.5,139.7z M126.2,145.5l-0.1,0.7l-0.2-1.7l0-0.3l0.2,0.1l0,0.6L126.2,145.5
		z M125.7,154.4l0.1,0.2l-0.1,0.2l-0.1-0.2L125.7,154.4z M125.5,150.9v-0.2l0.1-0.2l0.2,0.2l-0.1,0.4L125.5,150.9z M125.7,153.2
		l0.2-0.2l0.1,0.3L125.7,153.2z M125.8,152.2l-0.1,0.1l-0.1-0.2l0.2-0.2l0.2,0.3H125.8z M125.7,142.9h0.2v0.2h-0.2V142.9z
		 M125.6,141.9l0-0.2v-0.2h0.3v0.5L125.6,141.9z M125.8,146.5l-0.1,0.5l-0.2-0.2l0-0.2L125.8,146.5z M125.5,161.1v-0.2l0.2,0.1v0.2
		l-0.2,0L125.5,161.1z M128.3,152.2l-0.1,0.4l-0.3-0.5l0.1-0.4h0.3l0,0.3L128.3,152.2z M128.1,156.1l-0.1,0.3l-0.2-0.2l0.1-0.3
		L128.1,156.1z M128.2,157.3h-0.3v-0.2L128.2,157.3z M128.4,162.8v-0.2h0.2v0.2H128.4z M129.1,138.3c-2.3,0-4.6,0-7,0
		c0-0.4,0-0.8,0-1.3c0-1.7,0-3.4,0-5.1c0-0.3,0-0.6,0.5-0.6c0.4,0,0.8,0,1.1,0l0,0l0-0.4l0.2,0.3l-0.1,0.1c0.6,0,1.1,0,1.7,0l0,0v0
		c1.1,0,2.2,0,3.2,0c0.1,0,0.1,0,0.2,0.1C129.1,133.7,129.1,135.9,129.1,138.3z M130,169.2l-0.2-0.2l0.2-0.6v-0.3l0.2,0.6L130,169.2
		z M130.2,166.3l-0.3,0.1l0.1-0.3l0.3,0L130.2,166.3z M130.2,159.2v-0.2l0.2,0.1L130.2,159.2z M130.2,151.8l0.1-0.3l0.1,0.2
		L130.2,151.8z M130.2,136.2l-0.1-0.3v-0.3l0.3,0.3l0.1,0.5L130.2,136.2z M132,136.7l0-0.3l0.1,0.1l0,0.7L132,137L132,136.7z
		 M132.3,173.4l-0.1-0.5v-0.8l0.3,0.7L132.3,173.4z M132.4,170.3l-0.3-0.1l0.2-0.2l0.3,0L132.4,170.3z M132.7,160.2l-0.2-0.1
		l-0.1-0.3l0.2-0.1l0.1,0.2V160.2z M132.5,152.7l-0.2,0.1l0.1-0.3l0.3-0.1L132.5,152.7z M134.4,161l0.1,0.3l-0.1-0.1V161z
		 M134.8,176.9l-0.2,0l-0.2-0.1l0.4-0.1V176.9z M134.7,170.5l-0.1-0.2V170l0-0.3l0.3,0.1L134.7,170.5z M134.5,168.4l-0.1-0.2l0-0.3
		l0.1-0.2l0.1,0.2l0,0.3L134.5,168.4z M134.8,155.4l-0.1-0.2h-0.1l-0.2-0.6v-0.4h0.3l0.1,0.8L134.8,155.4z M134.8,139.7l-0.2-0.5
		v-0.9l0.1-0.2l0.2,0.4L134.8,139.7z M135,130.9l-0.4-0.1v-0.3l0.1,0.2l0.2-0.3l0.1,0.2V130.9z"/>
</g>
</svg>
