<?xml version="1.0" encoding="utf-8"?>
<!-- Generator: Adobe Illustrator 20.1.0, SVG Export Plug-In . SVG Version: 6.00 Build 0)  -->
<svg version="1.1" xmlns="http://www.w3.org/2000/svg" xmlns:xlink="http://www.w3.org/1999/xlink" x="0px" y="0px"
	 viewBox="0 0 254.1 84" style="enable-background:new 0 0 254.1 84;" xml:space="preserve">
<style type="text/css">
	.st0{clip-path:url(#SVGID_4_);fill:#040607;}
	.st1{fill:#FFFFFF;}
	.st2{clip-path:url(#SVGID_14_);}
	.st3{fill-rule:evenodd;clip-rule:evenodd;fill:#FFFFFF;}
	.st4{clip-path:url(#SVGID_16_);}
	.st5{clip-path:url(#SVGID_18_);}
	.st6{clip-path:url(#SVGID_20_);}
	.st7{clip-path:url(#SVGID_22_);}
	.st8{fill-rule:evenodd;clip-rule:evenodd;fill:#89C8C9;}
	.st9{fill:#89C8C9;}
	.st10{clip-path:url(#SVGID_24_);}
	.st11{clip-path:url(#SVGID_26_);fill:#FFDE37;}
	.st12{clip-path:url(#SVGID_26_);}
	.st13{fill-rule:evenodd;clip-rule:evenodd;fill:#FFDE37;}
	.st14{fill:#FFDE37;}
	.st15{clip-path:url(#SVGID_28_);}
	.st16{fill-rule:evenodd;clip-rule:evenodd;fill:#40342D;}
	.st17{fill:#40342D;}
	.st18{fill-rule:evenodd;clip-rule:evenodd;fill:#DEC937;}
	.st19{fill:#F9F6F7;}
	.st20{fill:#49392F;}
	.st21{fill-rule:evenodd;clip-rule:evenodd;fill:#F9F6F7;}
	.st22{fill:#333332;}
	.st23{fill:none;stroke:#40342D;stroke-miterlimit:10;}
</style>
<g id="Capa_1">
</g>
<g id="Capa_2">
	<path class="st1" d="M142.4,73l0.3-0.2l0.3,0l0.4,0.1l0.4-0.4l0.2-0.8l-0.2-0.9l0.2-0.3l-0.1-0.2l0-0.6l-0.2-0.3l0.2-0.1l0.1-0.2
		l-0.2-0.4l0.1-0.2l0-0.7l-0.3-0.6l-0.2,0.1l0.1-0.2l-0.1-0.2l-0.2,0.1l-0.4-0.1l-0.4-0.3l-0.5,0.2l-0.4-0.2l-0.6,0.2l-1.8,0
		l-0.4,0.1l-0.4,0.2l-0.1-0.2l-0.2-0.1l-0.5,0l-0.1,0.3l-0.1-0.1l-0.5-0.2l-0.2,0.1l-1.4,0.1l-0.6,0.3l-0.2-0.2l-0.4-0.2l-0.4,0.1
		l-1.4,0.1l-0.4,0.1l-0.3,0.2l-0.2-0.1l-0.8,0l-0.2-0.1l-0.3,0.1l-0.4-0.2l-0.3,0l-0.5,0.3l-0.2-0.3l-0.5,0l-0.6,0.2l-0.7,0
		l-0.4-0.2l-0.3,0.1l-0.8-0.1l-1.8,0.2l-0.2-0.1l-0.1,0l-0.3-0.2l-0.5,0.2l-0.4-0.2l-0.6,0.2l-1.8,0l-0.4,0.1l-0.4,0.2l-0.1-0.2
		l-0.2-0.1l-0.5,0l-0.1,0.3l-0.1-0.1l-0.5-0.2l-0.2,0.1l-1.4,0.1l-0.6,0.3l-0.2-0.2l-0.4-0.2l-0.4,0.1l-1.4,0.1l-0.4,0.1l-0.3,0.2
		l-0.2-0.1l-0.8,0l-0.2-0.1l-0.3,0.1l-0.4-0.2l-0.3,0l-0.5,0.3l-0.2-0.3l-0.5,0l-0.6,0.2l-0.7,0L107,67l-0.3,0.1L106,67l-1.8,0.2
		l-0.2-0.1l-0.4,0l-0.5,0.1l-0.8,0.4l-0.1,0.5l0.1,0.9l-0.1,0.1l0,0.4l0.2,0.6l-0.1,0.2l0.2,0.1l0.1,0.2l-0.3,0l0.1,0.4l0,0.3l0.2,0
		l0.1,0.2l-0.3,0.1l0,0.7l0.1,0.2l0.2,0.1l0,0.5l0.3,0.2l0.7,0.1l0-0.4l0.2,0.2l0,0.3l0.3,0l0.4-0.2l0.4,0.2l0.3,0l-0.1-0.2l0.1-0.1
		l0.3,0.2l0.4,0.1l0.2-0.3l0.3,0.2l0.3,0l0.4-0.3l0.3,0.3l0.3-0.3l0.1,0.2l0.1,0.1l1.6,0l0.2,0.1l0.3-0.2l0.2,0l-0.1-0.1l-0.2-0.1
		l-0.1-0.1l0.5,0.2l-0.1,0.2l0.1,0.1l0.4,0l0.4-0.1l0-0.3L111,73l0.2-0.1l0.1,0.2l0.1,0l0.4-0.2l0.3,0.4l0.3,0l0.1-0.2l0-0.3
		l0.2-0.1l0,0.3l0.2,0.2l0.7,0.1l0.5,0l0.2-0.1l0.1-0.1l-0.3,0.1L114,73l0.2-0.1l0.4,0.1l0.1,0.1l0.1,0.2l0.7-0.1l0.1-0.2l0.2,0.1
		l0.4,0.1l0.4-0.2l0.3-0.3l0.1,0.3l0.2,0.1l0.5-0.4l0.2,0l-0.2,0.4l0.5-0.1l0.9,0l-0.1-0.1l-0.3-0.1l0.1-0.2l0.2-0.1l0.3,0.2
		l1.2,0.3l0.5,0l0.6-0.1l0.9,0l0.5,0.1l0,0l0,0l0.1-0.1l0,0.2l0.3,0l0.4-0.2l0.4,0.2l0.3,0l-0.1-0.2l0.1-0.1l0.3,0.2l0.4,0.1
		l0.2-0.3l0.3,0.2l0.3,0l0.4-0.3l0.3,0.3l0.3-0.3l0.1,0.2l0.1,0.1l1.6,0l0.2,0.1l0.3-0.2l0.2,0l-0.1-0.1l-0.2-0.1l-0.1-0.1l0.5,0.2
		l-0.1,0.2l0.1,0.1l0.4,0l0.4-0.1l0-0.3l0.1-0.1l0.2-0.1l0.1,0.2l0.1,0l0.4-0.2l0.3,0.4l0.3,0l0.1-0.2l0-0.3l0.2-0.1l0,0.3l0.2,0.2
		l0.7,0.1l0.5,0l0.2-0.1l0.1-0.1l-0.3,0.1l0.1-0.2l0.2-0.1l0.4,0.1l0.1,0.1l0.1,0.2l0.7-0.1l0.1-0.2l0.2,0.1l0.4,0.1l0.4-0.2
		l0.3-0.3l0.1,0.3l0.2,0.1l0.5-0.4l0.2,0l-0.2,0.4l0.5-0.1l0.9,0l-0.1-0.1l-0.3-0.1l0.1-0.2l0.2-0.1l0.3,0.2l1.2,0.3l0.5,0L141,73
		L142.4,73z M109.2,67.6l0.1,0.1l-0.1,0.2L109.2,67.6z M116.1,70.1l0.2,0l-0.1,0.5l-0.2,0.1l-0.1-0.2L116.1,70.1z M110.6,70.8
		l-0.2-0.1l0-0.1l0.1-0.1l0.2,0.1L110.6,70.8L110.6,70.8z M133.6,71.2l0,0.2l-0.2,0.1l-0.3-0.3l0-0.2l0.1-0.1l0.2-0.1L133.6,71.2z
		 M136.4,70.6l0.2,0l-0.2,0.2l-0.2,0.1l0-0.2L136.4,70.6z M132.9,71.5l-0.1-0.1l0.1-0.1l0.1,0.1L132.9,71.5z M120.5,69.7l-0.2-0.1
		l0.1-0.2l0.2,0.1L120.5,69.7z M129.1,70l0.1-0.2l0.1,0.2l0,0.2L129.1,70z M127,70.2l0-0.2l0-0.2l0.2,0.1l0.1,0.2L127,70.2z
		 M130.9,70l-0.3-0.2l0.1-0.2l0.2,0.1l0.2,0.4L130.9,70z M131.9,69.5l-0.1-0.2l0.1-0.2l0.2,0.2l0,0.2L131.9,69.5z M125.1,69.8l0,0.2
		L125,70l0-0.2L125.1,69.8z M121.8,70.2l0.1,0.2l-0.2,0l-0.1-0.1L121.8,70.2L121.8,70.2z M117.3,70.8l-0.2,0.2l-0.2,0.1l0-0.2
		l0.2-0.2L117.3,70.8z M120.6,70.7l0.4,0.1l0,0.2l-0.2,0l-0.1-0.1L120.6,70.7z M116.2,71.4l-0.1,0.3l-0.2-0.1l0-0.2l0.1-0.1
		L116.2,71.4z M127.5,71.2l0.1,0.1l-0.1,0.1L127.5,71.2z M125.9,71.5l-0.1-0.1l0.2-0.1L125.9,71.5z M124.8,71.7l0.2,0l-0.1,0.2
		l-0.1,0l-0.1-0.1L124.8,71.7z M128.7,71.5l0.2,0l-0.1,0.2l-0.2,0.1l-0.1-0.2L128.7,71.5z M129.5,71.5l0.1-0.1l0.1-0.1l0.2,0
		l-0.1,0.2l-0.2,0.1L129.5,71.5z M131,71l-0.3,0l-0.1-0.2l0.1-0.3l0.3,0L131,71z M125.1,71l-0.2-0.2l0.1-0.2l0.2,0l0,0.3L125.1,71z
		 M129.7,70.5l0-0.1l0.1-0.1l0.2,0.1l0,0.1l-0.1,0.1L129.7,70.5z M132.8,70l0-0.2l0.1,0l0.2,0L133,70l-0.1,0.1L132.8,70z
		 M133.7,69.5l-0.1-0.2l0.3-0.1l0.1-0.2l0.2,0.1l0.1,0.2l0,0.2l-0.2,0.1L133.7,69.5z M135,69.2l-0.1-0.1l0.1-0.2l0.3,0l0,0.3
		l-0.1,0.1L135,69.2z M136.8,68.7l0.2,0.1l0,0.1l-0.2,0.1L136.8,68.7z M138.5,68.7l0.1-0.2l0.2,0l0.1,0.3l-0.2,0L138.5,68.7z
		 M139.8,68.4l0.1-0.1l0.1,0.2L139.8,68.4z M118.3,69.2l0.1,0.2l0,0.2l-0.1,0.2l-0.1-0.1l-0.2-0.3l0.1-0.1L118.3,69.2z M117.5,69.3
		l0-0.3l0.2,0.1l0,0.1L117.5,69.3z M116,69.3l-0.1,0.1l-0.2,0l-0.1-0.1l0.1-0.2l0.3,0L116,69.3z M114.9,69.4l0.1,0.2l0,0.2l-0.2,0.1
		l-0.4-0.2l-0.1-0.2l0.3-0.1l0.1-0.2L114.9,69.4z M117,69.7l0.2,0l0.2,0.4l0,0.2L117,70l-0.1-0.2L117,69.7z M117.8,70.4l0.5,0
		l-0.1,0.2l-0.3,0L117.8,70.4z M114.3,71.4l0,0.2l-0.2,0.1l-0.3-0.3l0-0.2l0.1-0.1l0.2-0.1L114.3,71.4z M113.5,71.8l-0.1-0.1
		l0.1-0.1l0.1,0.1L113.5,71.8z M113.2,71.6l0.1,0.2l-0.2,0l0,0.2l-0.5-0.2l0.1-0.2l0.2,0L113.2,71.6z M131.2,71.8l0,0.3l-0.1-0.1
		L131.2,71.8z M138.2,71.3l0,0.1l-0.1,0l0-0.1L138.2,71.3z M132.1,71.6l0.1-0.2l0.2,0l0.2,0.1l0.1,0.2l-0.2,0l0,0.2L132.1,71.6z
		 M135.5,71.4l-0.2-0.1l0-0.2l0.1-0.1l0.1,0.1L135.5,71.4z M140.3,70.6l0,0.2l-0.2,0l-0.1-0.1l0-0.2L140.3,70.6z M141.5,69.9
		l-0.1,0.3l-0.3-0.1l-0.1-0.1l0.1-0.1l0.2,0L141.5,69.9z M137.6,70.2l-0.1,0.2l-0.3,0l-0.1-0.2L137.6,70.2z M135.4,70.4l-0.1-0.2
		l0.1-0.4l0.2,0l-0.1,0.5L135.4,70.4z M136.8,69.9l0,0.2l-0.4-0.2l-0.1-0.2l0.1-0.1l0.2,0L136.8,69.9z M140,69.3l-0.1,0.1l-0.2-0.1
		l0.1-0.2L140,69.3z M137.8,69.2l0,0.2l-0.1,0.2l-0.1-0.1l-0.2-0.3l0.1-0.1l0.2,0.1L137.8,69.2z M141.9,68.5l-0.1,0.2l-0.1-0.1
		l0.1-0.2L141.9,68.5z M143.1,68l0,0.2l-0.2,0l-0.1-0.1l0-0.2L143.1,68z M134.2,68.5l0.1,0.3l-0.2-0.1l-0.1-0.1l0-0.2L134.2,68.5z
		 M130.6,68.6l-0.2,0.1l0-0.3L130.6,68.6z M138.2,67.5l0,0.1l-0.1,0l0-0.1L138.2,67.5z M139.7,66.8l-0.1,0.2l-0.7,0.2l0-0.3l0.1,0
		L139.7,66.8z M125.8,68l0.1,0.2l-0.2,0l-0.1-0.2L125.8,68z M128.7,67.4l-0.1,0.2l-0.1-0.3L128.7,67.4z M106.3,68.2l0.2,0l0.1,0.2
		l-0.2,0L106.3,68.2z M103.1,68.7l0.1,0l0.1,0.1L103.1,68.7z M119.6,67.2l0.1,0l0.6,0l-0.1,0.2l-0.7,0.2L119.6,67.2z M118.7,67.9
		l0-0.1l0.1,0l0,0.1L118.7,67.9z M111,68.7l0.2,0.2l-0.2,0.1L111,68.7z M114.8,68.9l-0.1-0.1l0-0.2l0.2,0.1L115,69L114.8,68.9z
		 M120.6,68.5l0.1,0.2l-0.3-0.1L120.6,68.5z M119.5,68.7l0.1,0.3l-0.2,0l-0.2-0.1l0.1-0.2L119.5,68.7z M112.8,69.6l0,0.2l-0.2,0
		l-0.1-0.2l0.1-0.2L112.8,69.6z M111.8,70.2l-0.2,0l-0.3-0.2l0.1-0.2l0.2,0.1L111.8,70.2z M105.6,70.2l0-0.2l0.1,0.1l0,0.2
		L105.6,70.2z M107.7,70.3l0-0.2l0.2,0.1l0.1,0.2l-0.3,0.1L107.7,70.3z M109.8,70.3l0.1-0.2l0.1,0.2l0,0.2L109.8,70.3z M113.4,70.1
		l0.1,0l0.2,0l-0.1,0.2l-0.1,0.1l-0.1-0.1L113.4,70.1z M105.6,71.1l0.1-0.2l0.2,0l0,0.3l-0.1,0.1L105.6,71.1z M111.4,70.8l0.3,0
		l0,0.5l-0.3,0l-0.1-0.2L111.4,70.8z M108.3,71.5l-0.1,0.1l0-0.2L108.3,71.5z M106.5,71.7l0.2-0.1l-0.1,0.2L106.5,71.7z M110.6,71.4
		l-0.1,0.2l-0.2,0.1l-0.2,0l0.1-0.1l0.1-0.1L110.6,71.4z M105.5,72.2L105.5,72.2l0-0.2l0.2,0l-0.1,0.2L105.5,72.2z M109.2,72
		l0.1-0.2l0.2,0l-0.1,0.2l-0.2,0.1L109.2,72z M111.7,72.1l0.2-0.1l0,0.3L111.7,72.1z M118.7,71.7l0-0.1l0.1,0l0,0.1L118.7,71.7z
		 M113.8,72.6l-0.1-0.1l0.1-0.1l0.2,0.1l0,0.2L113.8,72.6z M117.3,72.3l0.1-0.2l0.2-0.1l0,0.2l-0.1,0.1L117.3,72.3z M113.4,73
		l0.1,0.2l-0.6,0l-0.1-0.3l0.2-0.1L113.4,73z M133.2,72.4l-0.1-0.1l0.1-0.1l0.2,0.1l0,0.2L133.2,72.4z M136.7,72.1l0.1-0.2l0.2-0.1
		l0,0.2l-0.1,0.1L136.7,72.1z M132.8,72.8l0.1,0.2l-0.6,0l-0.1-0.3l0.2-0.1L132.8,72.8z"/>
	<g>
		<path class="st1" d="M19.9,19.4l0.1,0.2l0.3,0l0.5,0.3l0.4,0.1l0.2,0l0.6,0.5l0.6,0.2l0.3,0.3l1,0.7l0.5,0.6l0.2,0.1l0.2,0.4
			l0,0.2l-0.1,0.1l0.6,0.5l0.3,0.3l0.1,0.4l0.3,0.4l-0.1,0.4l0.4,0.5l0.1,0.9l0,0.4l-0.1,0.1l-0.2,0.1l0.1,0.3L26,27.7L25.7,28
			l-1.2,0.1h-0.7l-0.1-0.3l-0.3,0.2l-0.5,0.1l-0.4-0.1l-0.4,0.2l-1.3-0.1L20.1,28l-0.3-0.1l0-0.3L19.1,27L19,26.6L18.3,26l-0.3-0.3
			l-1.2-0.3L16.3,25h-0.9l-0.9,0.1l-0.8,0.2l-0.3,0.1l-0.6,0.5l-0.5,0.7l0.1,0.4l-0.1,0.2l0.5,0.6l0.3,0.2l0.4,0.2l0.3,0.3l0.2,0
			l0.6,0.2l0.3,0.2l0.5,0l0.6,0.2h0.2l0.3,0.2l1.2,0.4l0.3,0.2l0.4,0.1l1.5,0.6l0.2,0l0.4,0.4l0.4,0.1l0.7,0.4l0.3,0.4l0.5,0
			l0.4,0.2l0.7,0.8l0.2,0.1l0.7,0.5l0.2,0.1l0.1,0.4l0.7,0.7l0.2,0.3l0.1,0.4v0.3l0.5,0.5l0.1,0.4l0.2,0.3l0,0.4l0.2,0.3l-0.2,0.8
			l0.1,0.1l0.1,0.1L26.7,39l0,0.5l-0.1,0.4l-0.1,0.2l0.1,0.1v0.6l-0.3,0.3v0.3L26,42.2l-0.1,0.2l-0.2,0.1v0.4l-0.2,0.3l-0.3-0.1
			l-0.1,0.2l-0.2,0.1l0.1,0.1l0.2,0.1l-0.8,0.7l-0.1,0.2l-0.2,0.1l-0.3,0.2L23.5,45l-0.6,0.5l-0.5,0l-0.2,0.3l-0.2,0l-0.5,0.3h-0.3
			l-0.2,0.1l-0.4,0.1l-0.2,0.2l-0.5,0l-0.7,0.3l-0.2,0l-0.6,0.1l-0.2-0.2l-0.1,0.1l-0.8,0.3L16.5,47l-1,0.1L15.4,47v-0.2L15,46.9
			h-0.2l-0.4-0.1l-0.1,0.3l-0.8-0.3l-0.2-0.3l-0.1,0.4L13,46.7l-0.4-0.1h-0.7l0.2-0.1L12,46.3h-0.2l-0.1,0.1h-0.2l-0.3-0.2L9.9,46
			l-0.6-0.2l0.1-0.3L9,45.7l-0.2,0l0-0.2L9,45.4l-0.1-0.2l-0.7,0L8,45l-0.2-0.1H7.6l-0.2-0.3L7,44.2l-0.2,0l-0.2-0.5l-0.3-0.1
			l-1-1.4l-0.4-0.8l-0.4-1.7v-0.7l0.5-0.7l0.2-0.1l0.4,0.1l0.9-0.1h4.1l0.7,0.5l1.4,1.5l0.5,0.4l0.2-0.1l0.9,0.1l0.4,0.2l0.6,0.1
			l0.2-0.1l0.2,0l0.1,0.1l0.4-0.1l0.4,0.1l0,0.2l0.1,0.1l0.1-0.1v-0.2l0.1,0.2l0.3-0.2l0.1-0.2h0.3l0.5-0.2l0.3,0l0.3-0.3l0.2-0.4
			l0.3-1l-0.1-0.2l-0.1-0.1l-0.2,0L18.4,38L18,37.9l-0.5-0.3l-0.3-0.1l-0.2,0l-0.2-0.3h-0.5L15.8,37l-0.3-0.2l-0.1-0.2L15,36.7
			l-0.2-0.1l-0.3-0.2l-0.4,0L13,35.9l-0.7-0.2l-0.6-0.3h-0.4L10.8,35l-0.4-0.1l-0.6-0.5l-0.4-0.1H9.1l-0.6-0.5l-0.9-0.5v-0.2
			l-0.2-0.2l-0.4,0l-0.2-0.4l-0.6-0.5l0-0.4l-0.3-0.1L6,31.1L5.6,31l-0.3-0.5l0-0.4l-0.4-0.7L4.7,29v-0.3L5,28.6l-0.3-0.9l0-0.4
			l0.1-0.2l-0.2-0.3l0-0.5l0.1-0.5L5,25.6l0-0.5l0.1-0.4l0.2-0.3L5.2,24l0.2,0l0.1-0.1L5.8,23h0.2l0.1-0.1l0.2-0.4l0.3-0.3l0.2,0
			l0-0.4l0.1-0.1l0.5,0.1l0.2,0l-0.2-0.4l0.5-0.4l0.2-0.1l0.1,0.1v0.2l0.2-0.1v-0.5h0.5l0.1-0.1l0-0.2l0.2,0l0.5-0.3h0.5l0.5-0.6
			l0.8,0.3l-0.1-0.1v-0.2l0.2-0.1l0.7,0l0.1-0.1l0.4,0.2l0.1-0.2l0.2,0.3l0.2-0.1V19l0.1-0.1l0.5-0.1l0.3,0.1l0,0.2l0.1-0.1H15
			l-0.1,0.4l0.2-0.1l0.1-0.1V19L15,18.9l0.4-0.2h0.2l0.6,0.2l0.5-0.1l2,0.3l0.4,0l0.2,0.1l0.3,0.2l0.2,0L19.9,19.4z M6.1,25.8
			l0.3-0.1H6.2L6.1,25.8z M6.6,29.1l0.2,0l0-0.2l-0.2,0.1L6.6,29.1z M7.1,27.4L7,27.3l-0.1-0.1l0,0.2L7.1,27.4z M7.2,25.6l0.4,0.1
			l0.2-0.1l-0.2-0.3l-0.3-0.2l-0.1,0.1v0.1L7.2,25.6z M7.2,26.3l0.2-0.1l-0.1-0.1L7.2,26.3z M7.5,26.8l-0.1-0.1l-0.2,0l0,0.2H7.5z
			 M8,29.9l0,0.2l0.1,0.2l0.2-0.1l0-0.1l-0.4-0.2l-0.2,0l-0.1,0.1l0.2,0.1l0.1,0L8,29.9z M7.6,24.7v0.1l0.2,0.1l0.1-0.1v-0.1H7.6
			L7.6,24.7z M7.7,24.2L8,24.1l0-0.2L7.8,24L7.7,24.2z M7.7,28H8l-0.1-0.2l-0.2-0.1V28z M7.8,29l0.1-0.4l-0.2,0.1l0,0.2L7.8,29z
			 M8.1,23l0.1-0.2l-0.1-0.1L8,22.9L8.1,23z M8.2,31.2l0-0.1L8,31v0.2L8.2,31.2z M8.2,23.8l0.1-0.2l-0.1-0.1l0,0.2L8.2,23.8z
			 M8.3,25l0.1,0.2l0.2,0.1l0.2,0l-0.1-0.2L8.5,25L8.3,25z M8.3,25.8L8.4,26l0.2,0.1l0.1-0.3l-0.2-0.1L8.3,25.8z M8.6,28.6l0.3,0.1
			l0.1-0.5l-0.2-0.1l-0.2,0.2V28.6z M8.6,29.5l0.1-0.1l-0.1-0.1V29.5z M8.6,27.2v0.2l0.1,0.2l0.2,0.1l0.2-0.1l-0.1-0.4H8.8L8.6,27.2
			z M8.8,24.5L9,24.6l0.1-0.3l-0.2,0L8.8,24.5z M8.9,23.7L9,23.8l0.2,0l0.1-0.1v-0.3l-0.1-0.2L9,23.3l-0.1,0.2L8.9,23.7z M9,29.8
			l0.4,0.1l0-0.2l-0.1-0.2l-0.2-0.1L9,29.6L9,29.8z M9.3,30.8l0-0.3l-0.1-0.1L9,30.6v0.2L9.3,30.8z M9.1,22.5l0.2,0.1v-0.2l-0.1-0.1
			L9.1,22.5z M9.4,43.2h0.1L9.5,43L9.4,43.2L9.4,43.2z M9.7,45.5l-0.2-0.1l0.1,0.1L9.7,45.5z M9.7,24.8l0-0.2l-0.2-0.1l0,0.2
			L9.7,24.8z M9.7,29.2l0-0.2l-0.2-0.1v0.2L9.7,29.2z M9.7,25.6v-0.2l-0.2,0v0.2L9.7,25.6z M9.7,42.3h0.1l-0.1-0.1L9.7,42.3
			L9.7,42.3z M10,27.1l0.1-0.3l-0.3,0l-0.1,0.1L9.8,27L10,27.1z M9.8,28.2l0.2,0.1l0.1-0.4l-0.3-0.1L9.7,28L9.8,28.2z M9.7,34.3h0.2
			l-0.2-0.1V34.3z M10.1,24.1l0-0.2l-0.2-0.1L9.9,24L10.1,24.1z M10,23.1l0.3,0.1l0.2,0L10.4,23h-0.3L10,23.1z M10,30.4l0.2,0.1
			l0.1-0.1l-0.2-0.2L10,30.4z M10.1,32.7l0.2,0.1l0.4-0.1v-0.2l-0.2-0.1l-0.3,0.2L10.1,32.7z M10.4,29.5l0-0.2l-0.2-0.1l0.1,0.2
			L10.4,29.5z M10.4,31.7l0.1-0.4h-0.2l0,0.3L10.4,31.7z M10.4,25.3l0.3,0.1l0.1-0.3l-0.2,0L10.4,25.3z M10.7,24.2l0.1-0.1l0-0.2
			l-0.2-0.1l0,0.3L10.7,24.2z M11,27.2l-0.2,0.1l-0.1,0.2l0.1,0.1l0.2,0l0-0.2L11,27.2z M11.1,43.2L10.9,43l-0.1,0.2L11.1,43.2z
			 M11.3,26.7l-0.1-0.2l-0.3,0v0.2l0.2,0H11.3z M11.3,44.1l-0.1-0.2L11,43.9l0.1,0.2L11.3,44.1z M11.4,29.1l0.1-0.2l0-0.2l-0.1-0.1
			l-0.1,0.3l0.1,0.2L11.4,29.1z M11.3,30.1l0-0.2l-0.2-0.1V30L11.3,30.1z M11.4,21.4v-0.2l-0.2,0.1L11.4,21.4z M11.3,32.2l0.4,0.1
			l-0.1-0.4l-0.1-0.2L11.4,32L11.3,32.2z M11.7,24.7l0.1-0.2h-0.2l0,0.2L11.7,24.7z M11.6,31.1l0.1,0.2l0.1-0.2H11.6z M11.7,23.7
			h0.1v-0.1h-0.1V23.7z M12,33.6v-0.4l-0.2-0.1l0.1,0.4L12,33.6z M12,29.6l0.2,0v-0.2l-0.1-0.1L12,29.6z M12.2,22.1h0.2v-0.3
			l-0.2,0.1V22.1z M12.3,31.7l0.1,0.3l0.4-0.2l0.1-0.2l-0.2-0.1l-0.2,0.1L12.3,31.7z M12.5,23l0.2,0.3l0.2,0l0-0.3L12.8,23L12.5,23z
			 M12.9,32.7l0.2,0.5l0.2,0l-0.3-0.5L12.9,32.7z M13.2,21.7l0.2,0l0.1-0.1l0.1,0.2l-0.1-0.2l-0.2-0.1l-0.1,0.2L13.2,21.7z
			 M13.4,31.3l0.2,0.1l0.5,0v-0.2l-0.2-0.1l-0.3,0.1L13.4,31.3z M13.5,24h0.1v-0.1h-0.1V24z M13.8,30.5l-0.1-0.4h-0.2l0.1,0.2
			L13.8,30.5z M13.6,23l0.3,0v-0.2l-0.1-0.1l-0.2,0.1L13.6,23z M13.7,34.5v0.1l0.1-0.1L13.7,34.5L13.7,34.5z M14,22.2l0.3,0.1v-0.2
			h-0.2L14,22.2z M14,32.5l0,0.2l0.1,0.1l0.2,0l0-0.2l-0.1-0.1L14,32.5z M14.3,33.8l0-0.2l-0.2-0.3L14,33.5l0.1,0.2L14.3,33.8z
			 M14.1,42.8l0.2,0.2l0.1-0.1l0-0.2L14.1,42.8z M14.3,42.3l0-0.2L14.2,42v0.2L14.3,42.3z M14.4,21.1h0.1V21h-0.1V21.1z M14.6,30.9
			h0.2v-0.2l-0.2-0.1l-0.1,0.1V30.9z M14.7,23.6l0.2,0l0-0.2l-0.2-0.1l-0.1,0.1V23.6z M15.1,22.4l0-0.2L14.8,22l0.2,0.3L15.1,22.4z
			 M15.1,41.5L15,41.2l-0.1-0.1l-0.1,0.2l0.1,0.2L15.1,41.5z M15.5,32.4L15.3,32L15.1,32v0.2l0.2,0.1L15.5,32.4z M15.4,20.8l0.1-0.1
			l0-0.3l-0.3,0.2L15.4,20.8z M15.6,31.8h0.1v-0.1h-0.1V31.8z M15.9,22.2l0.2-0.1l0-0.2l-0.1-0.1L15.9,22L15.9,22.2z M15.9,32.8
			l0.3,0.1l0.2-0.1v-0.3l-0.2,0l-0.3,0.1L15.9,32.8z M15.9,43.2H16v-0.1h-0.1V43.2z M16.1,24.1l0.2-0.1l-0.1-0.2L16.1,24.1z
			 M16.3,31.8l0.1-0.2h-0.2v0.2L16.3,31.8z M16.5,35l0.1-0.3l-0.1-0.1l-0.1,0.3L16.5,35z M16.8,34.2l-0.1-0.4l0-0.2l-0.2,0.1
			l-0.1,0.2l0.1,0.2l0.2,0.2L16.8,34.2z M16.7,44.6l-0.1-0.2l-0.1-0.1l0,0.2L16.7,44.6z M16.6,43.8l0.2,0.1l0-0.5l-0.1-0.2l-0.1,0.1
			l0,0.2V43.8z M16.6,22.5l0.2,0.1h0.3v-0.2h-0.4L16.6,22.5z M16.9,45.7h0.1l0.1-0.2H17L16.9,45.7z M17.2,32.4L17.2,32.4l-0.1-0.2
			L17.2,32.4z M17.3,34.6h0.2l0.1-0.2h-0.3V34.6z M17.6,33.7l0-0.2l-0.1-0.1l-0.1,0.2L17.6,33.7z M17.7,22.2H18l0.1-0.2l-0.1-0.2
			L17.8,22L17.7,22.2z M17.7,45.3l0.3,0.1l0.1-0.1l0-0.2l-0.4,0L17.7,45.3z M17.8,21H18v-0.2h-0.1L17.8,21z M18,32h0.1v-0.1H18V32z
			 M18.2,23.1l0.2,0.4l0.1,0.1l0.1-0.2l-0.1-0.2l-0.2-0.2L18.2,23.1z M18.2,24.4h0.1l0.1-0.2h-0.2V24.4z M18.7,33.2l0.1-0.2l0-0.2
			l-0.1-0.1h-0.2l-0.1,0.2l0,0.2l0.1,0.1L18.7,33.2z M18.4,34.2l0.2,0l0.1-0.2l-0.1-0.1L18.4,34L18.4,34.2z M18.7,43.6l-0.2,0.1
			l0.1,0.1L18.7,43.6z M18.6,42.4h0.2v-0.2h-0.1L18.6,42.4z M18.7,36.2l0.2,0.1v-0.2h-0.1L18.7,36.2z M19.2,23h0.1v-0.1h-0.1V23z
			 M19.4,32.4l0.1,0.2l0.2,0l0.1-0.3h-0.2L19.4,32.4z M19.6,33.8v-0.2l-0.1-0.1l0,0.2L19.6,33.8z M19.6,42l0.3,0.1l0.1-0.1l-0.2-0.1
			h-0.2L19.6,42z M19.8,30.9l-0.2,0l0.1,0.1L19.8,30.9z M19.8,25.3L20,25h-0.1l0,0.1L19.8,25.3z M20.1,38.2L19.8,38l0,0.2l0.1,0.1
			L20.1,38.2z M19.8,37l0.1,0.2l0.2,0.1h0.2l0.1-0.1l-0.1-0.2L20,36.8L19.8,37z M20,23.4l0.1,0.2l0.2,0.1v-0.2l-0.1-0.1L20,23.4z
			 M20.3,39.3l0.2,0.3l0.2,0.1l0.1-0.2l-0.1-0.2l-0.1-0.1l-0.2,0L20.3,39.3z M20.3,40.6l0.1-0.1l-0.1-0.1V40.6z M20.6,24.6h0.2v-0.2
			h-0.1L20.6,24.6z M20.9,38.8v-0.2l-0.3,0.1L20.9,38.8z M20.8,41.8l0.2,0l0.1-0.2l0-0.2l-0.2,0l-0.1,0.2L20.8,41.8z M21,36.5
			l0.3,0.3l0.2,0.1l0.1-0.2l-0.1-0.2l-0.3-0.1L21,36.5z M21.3,37.7l-0.1-0.2l-0.2,0l0.1,0.2L21.3,37.7z M21.6,23.3l0-0.2l-0.1-0.1
			h-0.2l0,0.2l0.2,0.1L21.6,23.3z M21.2,35.5l0.2-0.1l-0.2-0.1V35.5z M21.2,40.1h0.2l0.1-0.2l-0.2-0.1L21.2,40.1z M21.6,39.2
			l0.1-0.1l0.1-0.2l-0.1-0.2l-0.2-0.1l-0.2,0.4l0,0.2L21.6,39.2z M21.4,43.2h0.1v-0.1h-0.1V43.2z M21.8,42.3l0.1-0.2l-0.3-0.1l0,0.2
			L21.8,42.3z M21.8,38l0.1,0.2L22,38H21.8z M22.2,41.1H22l0,0.2l0.2,0L22.2,41.1z M22.1,37.3l0.2-0.3l-0.1-0.1L22,37.1L22.1,37.3z
			 M22.2,36.4l0.2,0.1l0.1-0.1l-0.2,0L22.2,36.4z M22.6,37.3h0.2l-0.2-0.1V37.3z M22.8,38.4l-0.1,0.1L22.8,38.4l0.1-0.2h-0.2
			L22.8,38.4z M22.8,41.1H23l0.2-0.2v-0.2L23,40.5l-0.2,0.3L22.8,41.1z M22.8,39.7l0.1,0.1l0.1-0.1l-0.1,0L22.8,39.7z M23.4,35.9
			l0-0.2l-0.1-0.2l-0.2-0.1l-0.1,0.2l0.1,0.3H23.4z M23.4,36.9l0.1-0.2h-0.2l-0.1,0.1L23.4,36.9z M23.7,39.2L23.7,39l-0.2,0l0.1,0.1
			L23.7,39.2z M23.5,42.5l0.1-0.3L23.5,42l-0.1,0.3L23.5,42.5z M23.7,38.1l-0.1-0.2l-0.1-0.1l0,0.4H23.7z M24.3,40.4l0-0.2l-0.1-0.1
			l-0.2,0l0,0.2l0.1,0.1L24.3,40.4z M23.9,36.3l0.1,0.2h0.1l0.1-0.2H23.9L23.9,36.3z M24.8,39.8l0.4,0.1l-0.1-0.2l-0.2,0L24.8,39.8z
			"/>
		<path class="st1" d="M55.3,22.3l0.2,0.3l0,0.4l-0.1,1l0.2,0.5l-0.3,1.1l-0.3,0.4l-0.7,0.1l-0.4-0.1l-0.1,0.1l-0.4,0.1l-1.2-0.1
			l-0.6,0.1l-0.6-0.1h-0.8l-0.5-0.1l-0.2,0.1l-0.1,0.1L49,26.2l-0.9,0.1L47.9,26l-0.1,0.2l-1.6,0l-1.4,0.1l-0.2-0.1L44.2,26l-1,0.2
			L43,26.3l-0.1-0.4l-0.5,0.4L42,26.5l-0.3,0.4L41.6,27v0.6l-0.1,0.3l0.1,0.2l0,0.4l0.1,0.2l-0.1,0.1l0,0.2l0.5,0.9l0.2,0.2l0.4,0.1
			l0.4-0.2h0.8l0.1-0.1L44,30l0.9-0.1l0.2,0.2l0.2-0.1l0.6,0l0.2-0.1l0.4,0.2l0.2-0.1l0.1,0.2l0.2,0l0.1-0.1l0.8,0l0.8,0.2l0.2-0.1
			l0.1-0.1l1.3,0.1l0.3,0.1l0.6-0.2l1.4,0.2l0.4,0.4l0,0.2l0.1,1.3l-0.1,0.3l-0.2,0.3l0.1,0.2l0.2,0.3v0.2l-0.2,0l-0.2-0.1l-0.2,0
			l0.2,0.3V34l0.1-0.1l0.1,0.1l0.1,1.1l-0.3,0.2l0.1,0.2L52.7,36l-0.3,0.3l-0.2,0l-0.2-0.1l0.1-0.1L52.2,36l-0.3,0.4l-0.2,0
			l-0.3-0.2v0.2l-0.9,0l-0.8-0.1l-0.4,0.1l-0.8,0l0.1-0.4l-0.2,0.1l-0.2,0.4l-0.5-0.1l-0.2,0.1l-0.2-0.1l-0.1-0.2l-0.1,0.2l-0.9,0.1
			l-0.1-0.4L45.7,36l-0.1,0.2l0.1,0.2L44,36.4l-0.8,0l-0.4-0.1l-0.4,0.2l-0.7,0.8v1.6l0.1,0.4l0.3,0.5l0.8,0.1l0.3,0.1l0.4-0.1h1.1
			l0.2-0.1l0.2,0.1l0.3,0.2l0.1-0.1l0.1-0.2h0.2l0.2,0.1l0.4-0.1h0.9l0.6,0.2l0.2,0l0.1-0.1l0.2,0l0,0.2l0.1,0.1l0.4,0.1l0-0.2
			l-0.1-0.2l0.2-0.1l0.2,0l0.4,0.2l0.1,0.2l0.2-0.1l0.1-0.2l0.4,0.1l0.8-0.2l0.4,0v0.2l0.2,0.2l0.1-0.3l0.6,0.2l0.3-0.2l0.5-0.1
			l0.5,0.2h0.2l0.2-0.1l0.9,0.2l0.2,0.6l0.1,0.1L55.3,41l0.1,0.6l0.1,0.1l0.2,0.1l-0.1,0.4l-0.1,1.3l-0.1,0.2l0.2,0.4l0,0.2
			l-0.2,0.3l0.2,0l-0.1,0.6l-0.1,0v0.2l0.1,0.2l-0.1,0.2l-0.7,0.4l-0.1,0.1l-0.2,0l-0.7,0.1l-0.9-0.1l-0.4,0.1l-0.3-0.1l-0.2,0.1
			l-0.7,0l-0.2,0.1l-0.1,0.2l-0.9-0.4l-0.1,0.1l-0.1,0.2l-0.5,0l-0.3-0.2l-0.2,0.1h-0.2l-0.6-0.2l-0.2,0l0-0.2l-0.1-0.1l-0.1,0.2
			l0.1,0.2l-0.4,0l-1.2-0.1l-0.4,0L45,46.6l-0.2-0.1l-0.3-0.2l-0.1,0.1L44,46.6l-0.4-0.1l-0.6,0l-0.2-0.1l-0.2,0.1l-0.9,0.1
			l-0.1,0.1l-0.5-0.2l-0.2,0.1L40,46.5l-0.2,0.1l-0.3-0.3l-0.3,0.3l-0.8-0.1l-0.6,0.1l-0.6-0.1l-0.3,0.1l-0.2,0.1l-0.4-0.1L36,46.4
			l-0.6,0.1L35,46.4l-0.3-0.3l-0.2-0.3l0.1-0.2l0.2-0.1l-0.1-0.2l-0.1,0l-0.1-0.1l0.2-0.1l0-0.4l-0.2-0.8l0-0.3l0.1-0.2l-0.2-0.4
			l0.1-0.3l-0.1-1.2l0.2-0.9v-0.4l-0.1-0.2l0.1-0.2l-0.2-0.4l0.1-0.2l-0.1-0.2l-0.1-0.4l0.1-0.4v-0.2l0.5-0.1l-0.5-0.1l0-0.4
			l0.1-0.2l0.1-0.1l-0.2-0.3l0.1-0.2l0.3-0.2l-0.4-0.2v-0.2l0.2-0.5l-0.2-0.3l0-0.4l0.1-0.8l-0.1-0.3v-2l0.1-0.3l-0.2-1.3l0.1-0.3
			v-0.6l0.2-0.2l-0.2-0.8l0-0.2l0.2-0.1l0.2,0.1l-0.1-0.4L34.6,27l0-0.4l-0.1-0.4l0.1-0.4l-0.1-0.6l0.1-0.1l-0.1-0.3l0-0.5l0.1-0.3
			l-0.1-0.6l0.1-1.2L34.5,22l0.1-0.3v-0.9l0.2-0.9l0.2-0.3l0.2-0.1l3.1-0.1l0.4,0.2l0.1-0.1l0.2-0.1l0.5,0.1l0.1,0.1l1.1-0.2
			l0.3,0.1l0,0.1H41l0.1-0.2l0.2-0.1l0.5,0.1l0.4,0.2l0.1-0.3h2.6l0.6,0.1l0.2-0.2l0.4,0.1l0.8-0.1l0.4,0l0.2,0.1l0.8-0.2l1.7,0
			l1.2-0.1l0.4,0.1l0.7-0.1l0.5,0.1l0.6,0.2l0.2-0.1h0.8l1,0.4l0.2,0.8l0.1,1.2l-0.2,0.3L55.3,22.3z M35,38.6l0-0.2l-0.1,0.1
			L35,38.6z M35,44.5h0.1v-0.1H35V44.5z M35.4,39.7l0-0.2l-0.1-0.1l-0.2,0l0.2,0.3L35.4,39.7z M35.4,25.6l0.1,0.1l-0.1-0.2V25.6z
			 M35.9,41.8l0-0.2l-0.2-0.1l-0.1,0.2l0.1,0.1L35.9,41.8z M35.8,26.8l0,0.3L36,27l0.1-0.2l-0.2-0.1L35.8,26.8z M35.8,28.2l0.3-0.1
			L35.8,28V28.2z M35.9,23.3h0.2v-0.2h-0.2V23.3z M35.9,30.6l0.2-0.1l0.1-0.2l0-0.2L36.1,30l-0.2,0.3L35.9,30.6z M35.9,44l0.3,0.1
			l0-0.3l-0.1-0.1l-0.1,0.1L35.9,44z M36,37l0.2-0.1l0.1-0.2l0-0.3L36,36.5l-0.1,0.1l0,0.2L36,37z M36.1,26.4l0.2,0l0.1-0.1
			l-0.2-0.1L36.1,26.4z M36.1,29.7l0.2-0.1v-0.1l-0.2-0.1V29.7z M36.1,33l0.3,0l0.1-0.4l-0.2,0l-0.2,0.2L36.1,33z M36.1,40.1h0.2
			v-0.2h-0.1L36.1,40.1z M36.5,39.2l0.1-0.3l-0.1-0.1l-0.2,0l-0.1,0.2l0.1,0.2L36.5,39.2z M36.2,35.1h0.1V35h-0.1V35.1z M36.5,25.4
			l-0.2,0.1l0.1,0.1L36.5,25.4z M36.6,24.7l0-0.1l-0.1,0L36.6,24.7z M36.6,35.2l0.2-0.1l0-0.2l-0.1-0.1L36.5,35L36.6,35.2z
			 M36.7,41.6H37l-0.2-0.5l0.1-0.2l-0.2-0.1L36.6,41l0,0.5L36.7,41.6z M36.6,37.5l0.3,0.1l0.2-0.1v-0.3l-0.2,0l-0.1,0.1L36.6,37.5z
			 M36.6,27.6l0.1,0.2l0.4,0.1L37,27.6l-0.2-0.1L36.6,27.6z M36.9,31v-0.1h-0.2L36.9,31z M36.8,26.7l0.3-0.2l0.1-0.2l-0.1-0.1
			l-0.3,0l-0.1,0.3L36.8,26.7z M36.8,36.3l0.3,0.1l0-0.2l-0.1-0.1L36.8,36.3z M36.9,22.8h0.2v-0.2L37,22.6L36.9,22.8z M37,20.5
			l0.2,0.1L37,20.3L37,20.5z M37,39.7l0.3,0.2l0.2,0l0.1-0.2v-0.2l-0.1-0.1l-0.3,0L37,39.5L37,39.7z M37.3,43.8l-0.1-0.5L37,43.2
			v0.3l0.1,0.1L37.3,43.8z M37,30.1h0.3l-0.1-0.2L37,29.7V30.1z M37.4,22v-0.5h-0.2l0,0.2l0.1,0.2L37.4,22z M37.2,29.1l0.2,0.1h0.2
			l0.1-0.1l-0.2-0.2v-0.2h-0.2l0,0.2L37.2,29.1z M37.2,32.6L37.2,32.6l0.4-0.2v-0.2h-0.2l-0.1,0.1L37.2,32.6z M37.3,42.9l0.2-0.1
			l-0.1-0.2l-0.2-0.1l-0.1,0.1L37.3,42.9z M37.3,24.9l0.1,0.4l0.1,0.1l0.2,0l0.1-0.5l-0.2-0.1h-0.2L37.3,24.9z M37.3,26.2h0.2
			l-0.1-0.2L37.3,26.2z M37.8,31l-0.2-0.1l-0.1,0.1l-0.1,0.2v0.2l0.1,0.2l0.2,0.1l0.1-0.4L37.8,31z M37.4,34.9l0.2,0.1l0.1-0.3
			l-0.2,0.1L37.4,34.9z M37.5,42l0.5,0.1l-0.2-0.3l-0.2-0.1l0,0.1L37.5,42z M37.7,24.1L37.6,24L37.7,24.1z M37.7,38v-0.1h-0.2
			L37.7,38z M37.6,27.4l0.2,0.1l0.4-0.5l-0.2,0L37.8,27l-0.1,0.2L37.6,27.4z M37.8,33.7l0.1-0.2l-0.2-0.1l-0.1,0.2L37.8,33.7z
			 M37.7,41.4l0.2-0.1l-0.1-0.4l0-0.2l-0.2-0.1l-0.1,0.2l0.1,0.3V41.4z M37.7,20.3l0.2-0.1v-0.2h-0.2V20.3z M38.3,37.2L38.2,37
			l-0.3-0.2l0.1,0.2l0.2,0.1L38.3,37.2z M37.9,34H38v-0.1h-0.1V34z M37.9,43.2l0.3,0.2l0.1-0.1v-0.4l-0.1-0.2l-0.2,0L37.9,43V43.2z
			 M38.3,23.5l-0.1-0.2L38,23.2l0,0.2l0.1,0.1H38.3z M38,40.4l0.2,0.1l0.1-0.2V40l-0.2,0l-0.1,0.2L38,40.4z M38.3,22.4l-0.1-0.1
			l-0.2,0L38,22.4l0,0.1L38.3,22.4z M38.1,31.8l0.1,0.1l0.2,0l0.1-0.2l-0.3,0L38.1,31.8z M38.1,29.3l0,0.2l0.1,0.1l0.1-0.1l-0.1-0.2
			L38.1,29.3z M38.4,28.5l0.1-0.3l-0.2-0.1l-0.1,0.1v0.2L38.4,28.5z M38.7,24.9l0.3-0.3l-0.3-0.2h-0.2l-0.1,0.1v0.3l0.2,0.1H38.7z
			 M38.7,31.3l0.1-0.3v-0.4l-0.2-0.1l-0.1,0l-0.1,0.1v0.2l0.2,0.4L38.7,31.3z M38.4,35.5l0.2-0.1l0-0.2h-0.2l-0.1,0.2L38.4,35.5z
			 M38.8,41.5l-0.2-0.1l-0.3,0l0.1,0.2h0.2L38.8,41.5z M38.4,21.7h0.2v-0.2h-0.2V21.7z M38.6,34.2l0.1,0.4l0.2-0.1l0.1-0.2l0-0.2
			h-0.2L38.6,34.2z M39.1,27.2l0.1-0.1l-0.1-0.2L39,26.7h-0.3l0.3,0.3L39.1,27.2z M38.6,32.9l0,0.2l0.1,0.1v0.2l0.2-0.1l0.1-0.2V33
			L39,32.8h-0.2L38.6,32.9z M38.6,40.5l0.2,0l0.1-0.1l0-0.2l-0.2,0l-0.1,0.1V40.5z M38.9,23.6l0.1-0.2l-0.2-0.1v0.2L38.9,23.6z
			 M38.7,19.7l0.3,0l-0.2-0.2L38.7,19.7z M39,23.1l0.1-0.2l-0.2-0.1L39,23.1z M38.9,42.5l0.2,0.4l0.2,0.1l0.1-0.1v-0.4l-0.2-0.1H39
			L38.9,42.5z M39,25.9l0.2-0.1v-0.1L39,25.6V25.9z M39.1,29.3l0.3-0.3l0-0.2l-0.2-0.1L39,29L39.1,29.3z M39.3,36.7l0.1-0.1v-0.2
			l-0.1-0.1H39l0.1,0.2L39.3,36.7z M39.1,22.2l0.2-0.1l0-0.2l-0.2-0.1l0,0.2V22.2z M39.3,32.6v-0.3l-0.2,0.1v0.1L39.3,32.6z
			 M39.1,39l0.4-0.1l0.1-0.2l-0.2-0.1l-0.2,0.1l-0.1,0.1L39.1,39z M39.5,31.4l-0.1,0.1l-0.1-0.1h-0.2l0.1,0.2l0.2,0l0.2-0.1
			L39.5,31.4z M39.3,35.4l-0.2-0.1l0.1,0.1L39.3,35.4z M39.1,35.9h0.2l-0.1-0.1l-0.1-0.1V35.9z M39.2,44.7l0,0.2l0.1,0.1l0.2,0
			l0.1-0.3l-0.1-0.1l-0.2,0L39.2,44.7z M39.6,28.4l0-0.5l-0.1-0.1l-0.1,0.1v0.2l0.1,0.2L39.6,28.4z M39.5,30.5l0.2-0.1l0.2-0.4
			l-0.2-0.1L39.6,30l-0.2,0.3L39.5,30.5z M39.6,35v-0.2l-0.2-0.1v0.2L39.6,35z M39.6,41.4l0.1-0.2L40,41l-0.5,0l0,0.2L39.6,41.4z
			 M40,33.9l0-0.4l-0.2,0l-0.1,0.1l0.1,0.3H40z M39.7,23.1l0.1-0.1l-0.1-0.1l0,0.1L39.7,23.1z M39.9,24.5l0.1-0.2l-0.1-0.2L39.7,24
			l-0.1,0.1v0.2l0.1,0.1L39.9,24.5z M39.8,32.8l0.2-0.1l0.1-0.1l0.1-0.2l-0.3-0.1l-0.1,0.3V32.8z M40,44.3v-0.2l-0.2,0.1L40,44.3z
			 M40.2,23.7l-0.1-0.2l-0.2-0.1l0,0.2H40.2z M39.9,26.7l0.3-0.1v-0.2l-0.1-0.1l-0.2,0l-0.1,0.3L39.9,26.7z M39.9,36.3l0.2-0.1
			l0-0.2L40,36l-0.1,0.1L39.9,36.3z M39.9,35.1h0.2L40,34.8L40,34.9L39.9,35.1z M40,43.4l0.2-0.1l0.1-0.2l-0.2,0L40,43.2L40,43.4z
			 M40,42.4l0.3,0.1l0.1-0.2v-0.2L40.2,42l-0.1,0.2L40,42.4z M40.1,35.4l0.2-0.1l0.1-0.2h-0.2L40.1,35.4z M40.2,31.1h0.2l0.1-0.1
			l-0.1-0.2l-0.3,0.1L40.2,31.1z M40.2,21.7h0.1l0-0.1l-0.2-0.1V21.7z M40.5,23.9l0.1-0.1l0.1-0.2h-0.5l0,0.2L40.5,23.9z M40.4,27.7
			h0.1l0.1-0.1l-0.2-0.1V27.7z M40.5,34.4l0.1-0.2h-0.2l0,0.2L40.5,34.4z M40.4,44.3l0,0.2l0.1,0.1l0.1,0l0.1-0.1l0-0.3h-0.2
			L40.4,44.3z M40.8,30l0-0.2l-0.1-0.2l-0.2-0.1h-0.1l0.1,0.4L40.8,30z M40.5,21l-0.1-0.2l0,0.1L40.5,21z M40.5,33.4l0.2,0l0.2-0.1
			l-0.1-0.2L40.5,33L40.5,33.4z M40.8,32.2h0.3v-0.3l-0.2-0.1l-0.2,0.1L40.7,32L40.8,32.2z M40.8,26.2l0.3,0.1l0.1-0.1v-0.2
			l-0.3-0.1L40.8,26L40.8,26.2z M40.9,35.6l0.1,0.2l0.2,0.1l0.1-0.3l-0.2,0L40.9,35.6z M40.9,22.4l0.2-0.1l0.1-0.2l-0.2-0.1L41,22.2
			L40.9,22.4z M41.1,43v-0.2L41,42.9L41.1,43z M41.1,34.2l0.2,0.3v0.2l0.2-0.1l0-0.2l-0.1-0.2l-0.1-0.1L41.1,34.2z M41.1,41.7
			l0.1,0.2h0.2l-0.1-0.2L41.1,41.7z M41.1,25.5h0.2l-0.2-0.1V25.5z M41.4,31.5l-0.2-0.1l0.1,0.2L41.4,31.5z M41.3,21.3l0.2,0
			l0.1-0.2l-0.2,0L41.3,21.3z M41.3,44.1l0.5,0.1l0.1-0.4l-0.1-0.1l-0.3,0.2L41.3,44.1z M41.4,24.3l0.1,0.2l0.1-0.2H41.4z
			 M41.5,33.8h0.2l0-0.1l-0.1-0.1V33.8z M42.1,32v-0.2h-0.2l0,0.2L42.1,32z M42.1,21.9v-0.1H42L42.1,21.9z M42.1,33.8l0.3,0.2
			l0.1,0.2l0.1-0.2v-0.3l-0.3-0.1L42.1,33.8z M42.3,25l-0.1-0.3l0,0.2L42.3,25z M42.5,44.6l0.1,0.1h0.2l0.1-0.2L42.5,44.6z
			 M42.8,25.1l0.1,0.2l0.2,0l0.1-0.1L43,24.9L42.8,25.1z M43,45.9v-0.2l-0.1-0.1v0.2L43,45.9z M43.3,31.3l0-0.1H43l0.1,0.2
			L43.3,31.3z M43.2,33.6l0.2,0.3l0.2,0l0.1-0.3l-0.3-0.2l-0.2,0.1L43.2,33.6z M43.6,22.6l0.2,0l0.1-0.1h-0.2L43.6,22.6z M43.8,32.1
			l0.3-0.2l0-0.2l-0.2,0.2L43.8,32.1z M44.1,34.3l0.3,0.1l0-0.2l-0.1-0.1L44.1,34.3z M44.3,33l0.2,0.4l0.2-0.1l0.1-0.2L44.5,33
			L44.3,33z M44.3,44l0.1-0.1l-0.1-0.1V44z M44.8,32.7v-0.2l-0.2,0.1L44.8,32.7z M44.7,31.6l0.1-0.1l-0.1-0.1V31.6z M45,42.8
			L45,42.7h-0.2l0,0.2l0.1,0L45,42.8z M45.1,24.3h0.3l-0.1-0.2L45.2,24L45.1,24.3z M45.2,33.8l0.1,0.2l0.2,0.1l0.1-0.1v-0.1
			l-0.1-0.1L45.2,33.8z M45.2,32.8l0.2,0.1h0.2l-0.1-0.1v-0.2l-0.2-0.1l-0.1,0.1L45.2,32.8z M45.5,43.6h0.2v-0.2l-0.2,0L45.5,43.6z
			 M46.1,35.4l0.1-0.2l-0.3-0.3l0,0.5L46.1,35.4z M45.9,45.7l0.1,0.1l-0.1-0.2V45.7z M46.3,33.5l0.2,0.1l0.1-0.1l0.1-0.2l-0.1,0
			l-0.2,0.1L46.3,33.5z M46.7,32.6l0-0.2l-0.1-0.1v0.2L46.7,32.6z M46.8,34.5l0.2,0.1v-0.2l-0.2,0L46.8,34.5z M47.5,32.9h0.1
			l-0.1-0.2L47.5,32.9z M47.9,32l-0.2-0.2l0,0.2L47.9,32z M47.7,35.2l0.2,0.1l0.1-0.2h-0.2L47.7,35.2z M48,42.6l0.1-0.2l-0.2-0.1
			l0,0.2L48,42.6z M48.2,34.3l0.1-0.2l0-0.2l-0.2-0.1L48,34l0.1,0.2L48.2,34.3z M48.2,43.6v0.2l0.2,0l0.1-0.2l-0.2-0.1L48.2,43.6z
			 M48.7,23.3l-0.1-0.2L48.3,23l0.1,0.2l0.2,0.1L48.7,23.3z M48.6,32.6l0.2,0l0.1-0.1l-0.2-0.1L48.6,32.6z M48.9,46l-0.1-0.1h-0.2
			l0.1,0.2L48.9,46z M49.1,31.2l0.1-0.1L49.1,31V31.2z M49.6,45.7h0.2l0.1-0.1l-0.3,0V45.7z M49.7,21.1h0.1V21h-0.1V21.1z
			 M49.7,34.3l0.1,0l-0.1-0.2V34.3z M49.9,41.6h0.2l-0.2-0.1V41.6z M50.3,33.4l0.1-0.3h-0.2v0.2L50.3,33.4z M50.5,43l0-0.2l-0.2-0.1
			l0,0.2L50.5,43z M50.4,45l0.1,0.2h0.2V45h-0.2L50.4,45z M51.1,40.2l0.1-0.1l0-0.2L51,40.1L51.1,40.2z M51.2,34l0.1-0.2h-0.2
			L51.2,34z M51.2,33.1h0.1V33h-0.1V33.1z M51.5,44.7l0.1,0.1l0.1-0.1l0-0.2h-0.2L51.5,44.7z M51.7,40.7l0-0.1l-0.1,0L51.7,40.7z
			 M52.3,45.3h0.1v-0.1h-0.1V45.3z M52.9,43.4H53l-0.2-0.1V43.4z M53,42.5l0.1-0.1L53,42.3V42.5z M53,40.1h0.1l0.1-0.1L53,39.9V40.1
			z M53.3,45.7l0-0.2l-0.1-0.1v0.2L53.3,45.7z M53.7,43.8l0.2-0.3l-0.2,0l-0.1,0.1L53.7,43.8z M54.1,43h0.1l-0.1-0.1L54.1,43
			L54.1,43z M55,42.6h0.1v-0.1H55V42.6z"/>
		<path class="st1" d="M87,29.6l0.1,0.6l-0.1,0.4l-0.2,0.3l0.1,0.4l-0.3,1.2l-0.1,0.1l0.1,0.4l-0.4,0.9l-0.4,0.7l-0.1,0.1l-0.2,0
			l0,0.2l0.2,0.1l-0.4,0.5l-0.2,0.1l0,0.2l-0.3,0.5l-0.9,0.8l-0.5,0l0.1,0.2l-1,0.8l-0.2,0.1l0.1,0.2L82,38.7l0.3,0.4l0,0.2l0.6,0.6
			l0.1,0.4l0.4,0.2l0.2,0.5l0.3,0.3v0.4l0.2,0.1l0.3,0.3l0.4,0.7l0.3,0.3l0.2,0.1l0.1,0.7l0.2,0.1l0.3,0.3l0.3,0.2l0.1,0.5l0.6,0.8
			l0.1,0.2l-0.4,0.7l-0.8,0.1l-0.4,0.1l-0.6-0.1h-2.6l-1.2-0.1l-0.4,0.2l-1.2-0.2L79,46.3L79,46.2V46l-0.3-0.1l-0.3-0.5l-0.2-0.4
			l-0.5-0.6l-0.2-0.4l-0.2,0l0-0.2L77,43.4l-0.3-0.2l0-0.2L76,42l-0.3-0.2l-0.1-0.2l0.1,0l0-0.2l0.1-0.2l-0.3-0.1L75.3,41l-0.1-0.2
			l0.1-0.1l-0.1-0.2l-0.7-0.2l-0.2-0.3l0.3-0.2l-0.2-0.3l-0.2,0.1l-0.1-0.3l-0.2,0.4l-0.5-0.2H73l-0.2,0.1l-0.2-0.1l-0.1-0.2
			l-0.1,0.2l-0.2,0.1l-0.8-0.3l-0.1,0.1l0,0.2L71,39.5l-0.2,0.3l-0.3,1l0.3,0.3l-0.1,0.2v0.5l0.1,0.2l-0.1,0.2V43l-0.1,0.1l-0.2,0.1
			l0.2,0.2l0.1,0.2l-0.2,0.1l0.2,0.4l0,0.6l-0.1,1.2L70,46l0.1,0.4l-0.2,0.1L69,46.6l0.3-0.4l-0.2-0.1l-0.3,0l-0.2,0.1l0.1,0.3
			l-0.8-0.1l-0.8,0l-0.4,0.1l-0.1-0.3l-0.6,0.2h-0.8L65,46.6l-0.1-0.3l-0.3,0.3l-0.2,0l-0.3-0.2L63.7,46l-0.2-0.6v-0.5l0.1-0.4
			l0.2-0.3L63.6,44l-0.1-0.3l-0.1-0.2l0.3-0.4l-0.1-0.2l-0.2-0.2l0.1-0.7l0.1-0.9l-0.1-0.1l-0.1-0.6l0.2-0.3L63.6,40l-0.1-0.4l0-0.4
			l0.2-0.8l-0.1-0.2l-0.2-0.1l0.2-0.8l0.1-0.1l-0.1-0.3l-0.1-0.9l0.1-0.4l0.2-0.3l0.1-0.1l-0.1-0.2l-0.2-0.2l0.1-0.2l0.2-0.1
			l-0.3-0.2l-0.1-0.4l0.1-0.7l0-0.4l-0.1-0.2l0.1-0.9l-0.1-0.1l0.2-0.4v-0.6l0.1-0.4l-0.1-0.2l-0.1-0.4l0.1-0.8l-0.2-0.4l0.1-0.6
			l0-0.4l-0.1-0.1l0.3-1.1l-0.3-0.6l0.3-0.2V25l-0.3-0.6l0.2-0.4l0.1-0.8l0-0.2l-0.2-0.2l0.1-0.6l-0.1-0.8l0-0.2l0.2-0.3l-0.2-0.3
			l0-0.2l0.2-0.4v-0.2l0.6-0.2l0.4-0.1l0.4,0l0.4,0.2l0.3-0.2l0.5-0.1l0.2,0.1l0.2-0.1h0.2l0.3,0.2l0.6-0.2l0.4,0.1l0.1,0.1l0.4-0.2
			l0.5,0l1.7,0.1l0.4-0.1l0.1,0.1l0.2,0l0.1,0.1l0.3-0.2l0.2,0l0.2,0.1h0.2l0.2-0.1l0.2,0.1l0.1,0.2l0.6-0.2l0.2,0.1l0.4-0.1h1.3
			l0.4-0.1l0.2,0.1l0.1,0.2l0.8-0.2h0.5l0.4,0.1l0.3,0.2l0.2-0.2l0.7,0.2v0.5l0.4-0.5l0.3,0.3l0.4,0.1l0.8,0.1l0.2,0.1l0.2,0.4
			l0.3-0.1L83,21l0.1,0.2l0.5,0.1l-0.1,0.4l0.2,0l0.4,0.2l0.2,0.3l0.3,0.3l0.2,0.1l0,0.2l0.2,0.3l0.4,0.6l0.1,0.4l0.1,0.1l0.3,0.2
			l0.2,1.3l0.1,0.4l0.2,0.3v0.2l0.2,0.8l0,0.5l0.1,0.2l0.1,0.7L87,29.2l-0.1,0.2L87,29.6z M64.7,25.8l0.1,0.2h0.2l0-0.3l-0.2,0V25.8
			z M64.9,36.3h-0.2v0.2h0.1L64.9,36.3z M64.7,38.3l0.3,0.2l0-0.2l-0.3-0.2L64.7,38.3z M64.7,23h0.2v-0.2h-0.1L64.7,23z M65,35.2
			v-0.1h-0.1v0.1H65z M65.2,32L64.9,32l0,0.2l0.2,0L65.2,32z M65,33.1l0.1,0.1l0.1-0.2l-0.1-0.1l-0.1,0.1L65,33.1z M65.5,26.5
			l-0.1,0.1l0.1,0.1h0.1L65.5,26.5z M65.6,23.4l0-0.2l-0.1-0.1l-0.1,0.2H65.6z M65.9,25.3l-0.1,0.1l-0.1,0.2l0.2,0l0.1-0.2
			L65.9,25.3z M65.7,28.8l0.2,0l0.1-0.1l0-0.2l-0.3-0.1V28.8z M66.1,32.5L66,32.3l-0.2-0.1l-0.1,0.2l0.1,0.2l0.2,0.1L66.1,32.5z
			 M65.7,22.6l0.1-0.1l-0.1-0.1V22.6z M65.9,24.8l0.2,0.1l0.1-0.1L66,24.6l-0.2,0.1L65.9,24.8z M65.9,39.6h-0.1v0.1h0.1V39.6z
			 M65.8,42.1l0.1,0l-0.1-0.1L65.8,42.1z M66.2,31.8l-0.1-0.1v0.2L66.2,31.8z M66.4,27.6l0-0.2h-0.2v0.3l0.2,0L66.4,27.6z
			 M66.5,37.2l0.2-0.1l-0.1-0.3l-0.1-0.1l-0.2,0l-0.1,0.6l0.1,0.1L66.5,37.2z M66.3,19.9l0.1,0.2l0.1,0L66.3,19.9z M66.5,22.5
			l-0.1,0.2l0.1,0.2l0.2,0.1v-0.3l-0.1-0.2H66.5z M66.5,22.1l0.1-0.1l-0.1-0.1V22.1z M66.7,33l-0.1-0.1v0.2L66.7,33z M66.8,28
			l-0.2,0l0.1,0.2l0.2,0L66.8,28z M67.1,39.2l-0.2-0.1l-0.2,0l0,0.2h0.4L67.1,39.2z M67,41.6l0-0.2l-0.2,0l-0.1,0.1l0.3,0.3l0.2,0
			L67,41.6z M66.9,42.5h-0.2l0.1,0.1l0.2,0L66.9,42.5z M66.9,31.9v0.2H67l0-0.1L66.9,31.9z M67,25.1l0,0.2l0.2-0.1L67,24.9L67,25.1z
			 M67.2,34.1L67,34.2l-0.1,0.1l0.2,0.1l0.2,0l0.1-0.2l0-0.1L67.2,34.1z M67.3,37.6l-0.2-0.1l-0.2,0l0.1,0.2l0.2,0.1L67.3,37.6z
			 M67,24.3h0.2v-0.1H67V24.3z M67.2,26.3l0.1,0.1l0.2,0v-0.2L67.2,26.3z M67.4,40.7h-0.1v0.1h0.1V40.7z M67.4,25.6L67.4,25.6
			l0.2,0.1l0.1-0.1l-0.1-0.2l-0.2,0V25.6z M67.4,40l0.2,0.1l0.1-0.2l-0.2-0.1L67.4,40z M67.4,21.7l0.2,0l0.1-0.2l-0.1-0.2h-0.2V21.7
			z M67.8,29.6v-0.2h-0.2l-0.1,0.4l0.1,0.2L67.8,29.6z M67.7,22.4v-0.2l-0.1-0.1l-0.1,0.3L67.7,22.4z M67.7,42.2l0.1-0.1h-0.2
			L67.7,42.2z M68,39l-0.1-0.4l-0.1-0.2l-0.2,0.3l0.1,0.3l0.2,0.1L68,39z M67.6,35.9v0.2h0.2v-0.2H67.6z M67.9,25.1L67.8,25l0.1,0.2
			L67.9,25.1z M67.9,24.6l0.2,0.1v-0.2L67.9,24.6z M68.1,38.1L67.9,38l0,0.2l0.2,0.1L68.1,38.1z M68.1,41.1H68v0.1h0.1V41.1z
			 M68.3,34l0.2,0.1l0.1-0.2l-0.2-0.1l-0.2,0.1L68.3,34z M68.2,32.7l0.1,0.3l0.1-0.3H68.2z M68.5,39.6l0.2,0l-0.1-0.2l-0.2-0.1
			l-0.1,0.1L68.5,39.6z M68.5,32.3l0.2,0l-0.1-0.2l-0.2,0L68.5,32.3z M68.6,36.2l-0.2,0l0.1,0.2l0.2-0.1L68.6,36.2z M68.8,42.2
			l-0.1-0.1L68.5,42l0,0.2l0.1,0.2l0.2,0.1V42.2z M68.7,35.8l0.1-0.2l0-0.2l-0.2,0.1l-0.1,0.4L68.7,35.8z M68.5,22.1l0.1,0.2
			l0.2-0.1v-0.2l-0.1-0.1L68.5,22.1z M68.9,38.6l0.1-0.2l-0.2-0.1l-0.1,0.1l0,0.2L68.9,38.6z M69.1,27.2h-0.2l0,0.2l0.1,0V27.2z
			 M69.4,39.9l0.1-0.2l0-0.2l-0.2,0l-0.1,0.2l0.1,0.2L69.4,39.9z M69.2,25.7l0.2,0l0.1-0.1l-0.1-0.1h-0.2L69.2,25.7z M69.2,33.5h0.1
			v-0.2h-0.1V33.5z M69.6,25.2l-0.1-0.1v0.2L69.6,25.2z M69.5,21.9l0.2,0l0-0.2l-0.3-0.1V21.9z M69.7,20.6l-0.1,0.2l0,0.2l0.2,0
			l0.1-0.1v-0.2L69.7,20.6z M69.8,34l0.2,0.1l-0.1-0.2l-0.2-0.1L69.8,34z M69.9,26.9l-0.1-0.1V27l0.1,0.1V26.9z M69.9,36.4l0.2,0.1
			l0.2,0l-0.1-0.2l-0.2-0.1l-0.2,0L69.9,36.4z M70.3,38.5l0.1-0.2l-0.2-0.1L70,38.4l0.1,0.2L70.3,38.5z M70.6,35.4l0.1-0.1l0.1-0.2
			h-0.5l0,0.3L70.6,35.4z M70.4,24.2l0.3,0l-0.2-0.3l-0.1-0.2V24.2z M70.6,37.7h-0.1v0.1h0.1V37.7z M75.2,32.9l0.2,0.1l0.7-0.1
			l0.4,0.1l0.1-0.1l0.4-0.2h0.5l0.2,0.1l1.1-0.6l0.6-0.6l0.2-0.4l0.3-0.3v-0.3l0.1-0.2l0.2-0.3L80,28l-1.3-1.5l-0.2-0.1l-0.7-0.4
			L77.5,26l-0.1-0.2l0-0.3h-0.2v0.4l-0.5-0.2l-0.3,0.2l-0.4-0.1l-0.8,0.1l-0.4-0.1l-0.5,0.2l-0.2-0.1l-0.5,0l-0.2,0.1l-0.4-0.3
			l-0.3,0.2l-0.2-0.1L72,25.8l-0.9,0l-0.5,0.8V29l0.1,0.4l-0.1,0.6v2.5l0.8,0.4l0.7-0.1l0.4,0.1l0,0.2l0.1,0.2l0.3-0.3l0.1,0.1
			l0.1-0.2l0.2-0.1h0.5l0.2-0.1l0.3,0.2l0.4,0l0.2-0.2L75.2,32.9z M70.7,34.4l0,0.2l0.2,0l0-0.2l-0.1-0.1L70.7,34.4z M70.7,21.3h0.2
			l0.1-0.2l-0.2-0.1L70.7,21.3z M71,37.7h-0.1v0.1H71V37.7z M71.3,36.5h-0.2v0.2l0.2,0V36.5z M71.4,24.6l0.1,0.1l-0.1-0.2L71.4,24.6
			z M72.1,37.4l0.1-0.1l-0.1-0.2l-0.2,0l-0.1,0.2l0,0.2l0.1,0.1L72.1,37.4z M71.9,23l0,0.2l0.2,0l0.1-0.1L72,22.8L71.9,23z
			 M72.3,36.7l0.1-0.3l-0.1-0.2l-0.2-0.1l-0.1,0.1l0,0.4H72.3z M72.2,35.5l0.2,0l0.1-0.1l-0.2-0.1V35.5z M73.2,21.6l-0.2,0l0.1,0.2
			l0.2,0.1l0.1-0.3L73.2,21.6z M73.6,23.7l-0.2,0l0.1,0.4l0.3-0.1v-0.2l-0.1-0.1L73.6,23.7z M73.4,35.2h0.2l0-0.2l-0.2,0l-0.1,0.1
			L73.4,35.2z M73.6,25.3l-0.1,0.2h0.2v-0.2H73.6z M73.8,37.9h-0.1V38h0.1V37.9z M73.8,23.1l0.1,0.1L73.8,23V23.1z M74.3,36.5
			l0.1-0.1l0-0.2h-0.6l0.2,0.4L74.3,36.5z M74.1,22.2l0.1,0.2l0.1-0.3l-0.2-0.1V22.2z M74.4,23.6l0.1,0.1l0.2,0l0.1-0.1l0-0.2
			l-0.2-0.1l-0.2,0.1L74.4,23.6z M74.4,24.3h0.2l-0.1-0.2L74.4,24.3z M74.8,37.7l0-0.2l-0.1-0.2l-0.1,0.1l0.1,0.4l0.1,0.1L74.8,37.7
			z M75.1,36.9v-0.1H75v0.1H75.1z M75.2,39.1l-0.1,0v0.2h0.2L75.2,39.1z M75.3,20.6l-0.1,0.2l0.2,0l0.1-0.2L75.3,20.6z M75.3,35.5
			l0.2-0.2l0.1-0.2l-0.1-0.2l-0.2-0.1l-0.2,0.8L75.3,35.5z M75.6,38.1h-0.2v0.2h0.2V38.1z M75.9,22.9L75.5,23l0.1,0.4l0.2,0l0.2-0.3
			L75.9,22.9z M75.9,37.2L76,37l-0.1-0.2v-0.4l-0.1-0.2h-0.2v0.2l0.1,0.2l-0.2,0.8l0.2,0.1L75.9,37.2z M75.7,37.5l-0.2,0.1l0.2,0.1
			V37.5z M75.6,20.3h0.1v-0.1h-0.1V20.3z M76.1,21.7l0.2,0v-0.3l-0.2,0.1L76.1,21.7z M76.6,34.5h-0.2l0,0.2l0.1,0L76.6,34.5z
			 M76.6,22.6v0.2h0.2l0.1-0.4h-0.2L76.6,22.6z M77,40.1l0.1-0.2l-0.2-0.1L76.7,40l0.1,0.2L77,40.1z M76.8,36.8V37L77,37v-0.3
			L76.8,36.8z M77,36l0.1-0.2h-0.2l0,0.2L77,36z M76.9,38.2l0.1,0.1l0.2,0.1l0.2-0.1L77.2,38L77,38L76.9,38.2z M77.1,24.6L77,24.8
			l0.1,0.1l0.2,0l0.1-0.2L77.1,24.6z M77.2,39.2l0-0.2l-0.1-0.1L77,39.1l0,0.2L77.2,39.2z M77.3,23.9v0.2l0.2,0v-0.3H77.3z
			 M77.9,35.3l-0.2,0l-0.1-0.1l0.1-0.2l-0.1-0.1l-0.2,0.6l0.2,0.1l0.4,0L77.9,35.3z M77.5,41.2l-0.2,0.1l0.2,0.1V41.2z M77.7,40.5
			l-0.1-0.1l-0.2,0l0.1,0.4l0.2,0.1L77.7,40.5z M77.6,23.4l0.5-0.4l-0.6,0.1L77.6,23.4z M77.6,22.1l-0.1,0.2l0.1,0.2l0.2,0.1
			l0.1-0.1v-0.2l-0.1-0.2L77.6,22.1z M77.6,34.1l0,0.1l0.1,0.1L77.6,34.1z M77.7,36.2l0.2,0.3l0.1-0.4l-0.2-0.1L77.7,36.2z
			 M78.1,39.5l-0.2-0.1l-0.1,0.1l0.1,0.1l0.2,0L78.1,39.5z M77.9,41.7h-0.1v0.1h0.1V41.7z M78,24.5h0.2l0.1-0.1l0-0.1l-0.2-0.1
			l-0.2,0.1L78,24.5z M78,35.7l0.2,0.1l-0.1-0.2l-0.2-0.1L78,35.7z M78.4,23.3l-0.1-0.1l-0.2,0.1l0.1,0.2l0.3,0.1L78.4,23.3z
			 M78.4,38.6l0-0.2l-0.2,0l-0.1,0.2l0.1,0.2L78.4,38.6z M78.6,40.8h-0.1L78.4,41h0.3L78.6,40.8z M78.6,34l-0.1-0.1L78.4,34l0.2,0.1
			L78.6,34z M78.6,36.9l0.1,0.1l0.2,0l0.1-0.3l-0.5,0l-0.1,0.1L78.6,36.9z M78.7,21.8l0.2,0.1l0.1-0.1l0-0.1h-0.3L78.7,21.8z
			 M79,35.8l-0.2,0.3l0,0.2l0.2,0l0.2-0.3v-0.2H79z M78.9,43.1h-0.1v0.1h0.1V43.1z M78.9,35.1l0.1,0.2l0.2,0.1l0.1-0.4l-0.4-0.1
			V35.1z M79.1,42.5h-0.2l0.2,0.2V42.5z M79.1,23.8L79,24l0.1,0.1l0.2,0.1l0.3-0.4l-0.2-0.1L79.1,23.8z M79.1,41.4l0.1,0l-0.1-0.2
			L79,41.3L79.1,41.4z M79.3,38.5l-0.2-0.1l-0.1,0.2l0.2,0.1L79.3,38.5z M79.3,37.3l0.2,0.1h0.2v-0.2l-0.2-0.1h-0.2L79.3,37.3z
			 M79.3,34.2v0.2h0.1v-0.2H79.3z M79.4,23.4l0.1,0l0-0.2L79.4,23.4z M79.5,33.3v0.1h0.2L79.5,33.3z M79.7,22.4l-0.1,0.1l0.1,0.2
			l0.2-0.1l0.1-0.2L79.7,22.4z M79.8,42.8l0-0.2l-0.3,0.1l0.1,0.2L79.8,42.8z M79.7,21.2l0.2,0V21h-0.2L79.7,21.2z M79.9,42l0.1-0.1
			l-0.2-0.1l-0.2,0l0.1,0.3H79.9z M80.1,38.7l-0.1-0.1l-0.1,0l0.1,0.2L80.1,38.7z M79.9,34.8l0.2,0l0.1-0.1L80,34.6l-0.2,0
			L79.9,34.8z M80,35.5l0.1,0.1l0.1-0.4H80V35.5z M80,23.5l0.1,0.4h0.2l0.2-0.3l-0.1-0.1l-0.3-0.1L80,23.5z M80.3,37.7l0-0.1
			l-0.2-0.1v0.2H80.3z M80.6,36.9l-0.1-0.1l-0.2,0l0,0.2l0.2,0.1L80.6,36.9z M80.4,23.1l0.2,0l0-0.2h-0.3L80.4,23.1z M80.8,39.3
			v-0.4l-0.4,0.1l0,0.2l0.1,0.1l0.2,0.1L80.8,39.3z M80.7,40.1l-0.1-0.3h-0.2v0.3l0.1,0.1l0.2,0V40.1z M80.7,25.6l-0.2,0.2l0.3,0.2
			l0.2-0.3v-0.2L80.7,25.6z M80.7,32.9h0.1l-0.1-0.1L80.7,32.9L80.7,32.9z M81,34.1L81,33.9l-0.2,0l0.1,0.2l0.1,0.1l0.2,0L81,34.1z
			 M81,38.2l-0.1-0.1l-0.1,0l0.1,0.2l0.2,0.1L81,38.2z M81.2,41.5l0-0.3l-0.3,0.1v0.2l0.3,0.2L81.2,41.5z M81.2,22.9L81,23l-0.1,0.2
			l0.3,0.2l0.2,0.1V23L81.2,22.9z M81.1,35.1v-0.1H81v0.1H81.1z M81.4,36.2l-0.2-0.1l-0.1,0.2l0.1,0.2h0.2l0.1-0.2L81.4,36.2z
			 M81.3,24.3l0-0.2L81.2,24l0,0.3L81.3,24.3z M81.4,37.1h-0.3l0,0.2l0.2,0L81.4,37.1z M81.2,29.3v0.1l0.1,0.1L81.2,29.3z
			 M81.7,25.2l-0.2,0.1l-0.1,0.2l0.2,0.2l0.2,0l0.1-0.4L81.7,25.2z M81.7,35.4v-0.2l-0.2,0.1L81.7,35.4z M81.8,32.1h-0.3l0,0.2
			l0.2,0L81.8,32.1z M81.8,42.4l0.1-0.2l0-0.2L81.8,42l-0.2,0.4L81.8,42.4z M82,27.9l0.2-0.1l0.1-0.2L82,27.3l-0.2,0l0.1,0.4
			l-0.2,0.2L82,27.9z M81.9,26.4v0.2l0.2,0.1l0.1-0.2l0-0.2L82,26.2L81.9,26.4z M82.2,30.1l0.1-0.1v-0.2l-0.2,0.1l-0.1,0.2
			L82.2,30.1z M82.1,22.8V23l0.2-0.1l0-0.2l-0.2-0.1L82.1,22.8z M82.4,28.7v-0.2h-0.2v0.3L82.4,28.7z M82.5,25.1h0.2l0.1-0.1l0-0.3
			l-0.4,0l-0.1,0.1v0.2L82.5,25.1z M82.5,35.9v-0.2l-0.2,0.1l0.1,0.2L82.5,35.9z M82.7,31.1l-0.1,0.2h0.2L82.7,31.1z M82.7,27.3
			l0.1,0.2l0.2,0.1l0.2-0.5l-0.1-0.2l-0.2,0L82.8,27l-0.1,0.2L82.7,27.3z M82.8,28.1L82.7,28v0.2h0.2L82.8,28.1z M83.1,33.3l0.1-0.1
			V33H83l-0.1,0.2L83.1,33.3z M83,26.1l0,0.1l0.2-0.1V26L83,25.9L83,26.1z M83.5,29.6l0.1-0.1l0-0.2l-0.3,0v0.4L83.5,29.6z
			 M83.8,31.6l-0.1-0.1l-0.2,0l-0.1,0.3l0.5,0.1V31.6z M83.7,24.5l-0.2,0.1h0.3l0-0.2l-0.1-0.1L83.7,24.5z M84.2,26.6L84,26.5
			l-0.4,0.1l-0.1,0.2l0.2,0.1l0.4,0L84.2,26.6z M83.6,30.3l0,0.2l0.1,0.2l0.3,0.3l0-0.2l-0.2-0.5H83.6z M84.1,34.1l0.2,0l-0.1-0.4
			L84,33.6L83.9,34L84.1,34.1z M84,32.7l0,0.2l0.2-0.1L84,32.6L84,32.7z M84,25.7v0.2h0.2l0-0.3L84,25.6L84,25.7z M84.3,30l-0.1,0
			v0.2h0.2L84.3,30z M84.5,28l0.1,0.1l0.2,0L84.6,28l0-0.2l-0.2-0.1L84.3,28L84.5,28z M84.6,29.1v-0.3h-0.2L84.3,29l0.1,0.2
			L84.6,29.1z M84.8,26.3l0.2,0l-0.2-0.1L84.8,26.3z M84.9,30.2l-0.1-0.1l-0.1,0.2l0.1,0.1L84.9,30.2z M85.7,28.6l-0.1-0.1l-0.1,0.2
			l0.2,0.1L85.7,28.6z"/>
		<path class="st1" d="M97.4,19.6l0.2-0.1l0.2-0.2l0.3,0l0.4,0.1l0.8,0.5l0.2,0.5l-0.1,0.2l0.5,0.5l0.1,0.2l-0.1,0.4l0.3,0.3l0,0.2
			l0.3,0.5l0,0.5l0.2,0.3l0.1,0.4l0.4,0.8l-0.1,0.1l0,0.2l0.2,0.3l0.7,1.4v0.2l-0.1,0.1l0.1,0.1l0.4,0.9l0,0.2l-0.2,0.1l0.3,0.3
			l0,0.2l0.3,0.3l0.1,0.5l0.4,1l0,0.2l-0.3,0.4l0.1,0.2l0.4,0.2l0,0.2l0.3,0.3v0.2l-0.1,0.1h-0.2l-0.2,0.1l0.1,0.4l0.7,0.2l0.1,0.4
			l0.1,0.1V34l-0.1,0.1v0.2l0.2,0.1l0.2,0l0.1,0.2v0.2l-0.1,0.2l0.3,0.3l0.4,0.8l0.1,0.1l0.2,0l0.5-0.2l0.2,0.1l0.2-0.1l0.3-0.5
			l-0.1-0.1l-0.2,0.1l0-0.2l-0.1-0.4l0.1-0.2l0.3-0.3l0.1-0.2l0-0.2l0.2-0.5v-0.2l0.2-0.1l0.2-0.3l0.1-0.5h0.6v-0.2h-0.4l0-0.2
			l0.3-0.3l0-0.4l0.7-1.1l-0.1-0.3l0.2-0.6l0-0.2l0.6-0.7l-0.1-0.4l0.5-1.6l0.4-0.7v-0.3l0.1-0.4l0.3-0.5v-0.6l0.1-0.1l0.4-0.7
			l0.1-0.1v-0.5l0.1-0.4l0.3-0.5l0.1-0.5l0.3-0.8l0.2-0.3l0.2,0l0.3,0.1l-0.2-0.4l0.1-0.1l0.2-0.1l0.2,0.1l0.8-0.2l1.3,0l0.6-0.1
			l0.8,0.1h2.1l0.7,0.2l0.3,0.2l0,0.2l-0.1,0.4l-0.2,0.3l0.1,0.5l-0.2,0.4l-0.3,0.8l-0.3,0.5l0.1,0.3l-0.5,0.7l-0.5,1.6l-0.3,0.7
			l-0.2,0.3v0.4l-0.1,0.4l-0.5,0.8l-0.2,0.9l-0.7,1.2l-0.1,0.4l-0.5,1.2l-0.3,0.5l0,0.4l-0.2,0.8l-0.7,1.4l-0.1,0.4l-0.4,0.3
			l0.2,0.3l-0.1,0.4l-0.4,0.7l-0.1,0.2l-0.3,0.2l-0.1,0.7l-0.3,0.1v0.8l-0.2,0.3l-0.2,0.1l0,0.2l-0.1,0.2l-0.4,0.5l0.1,0.3l0,0.2
			l-0.3,0.3l-0.2,0.3l0,0.2l-0.2,0.4l-0.2,0.1v0.2l0.1,0.1l0,0.2l-0.5,0.6l0,0.2l-0.2,0.1l0.1,0.4l0,0.4l-0.3,0.8l-0.4,0.7h-0.2
			l-0.4,0.4l-0.4-0.1l-0.2-0.1l-0.3,0.2l-1.3-0.1l-0.4,0.1l-1.5-0.2l0.2,0.1l-0.3,0.1h-0.9l-0.2,0.1l-1.1-0.4l-0.3-0.2l-0.1-0.3
			l-0.2-0.3l0-0.2l-0.5-0.8l-0.1-0.1l0-0.5l-0.1-0.1l0.1-0.3l-0.4-0.5l-0.1-0.6l0.1-0.2l-0.1-0.2l-0.5-0.7l-0.1-0.4l0.1-0.4
			l-0.3-0.2l-0.2-0.4l0.2-0.4L99.2,39l0.2-0.3l-0.1-0.2l-0.4,0.1v-0.3l0.1-0.1l0-0.2l-0.2-0.1l-0.4-0.6l-0.2-0.1l0-0.2l-0.2-0.4
			l0.2-0.4L98,35.9v-0.3L97.6,35l-0.3-0.8l-0.4-0.7l0-0.2l-0.4-0.7l0-0.2l0.2-0.1l-0.1-0.3l-0.2,0v-0.2l-0.1-0.3L96,31l-0.3-0.8
			l-0.3-0.4v-0.5l-0.1-0.2L95,28.8l0-0.5l-0.1-0.4l-0.4-0.7l-0.1-0.4l-0.2-0.4l0-0.4l0.1-0.2L94,25.6l-0.2-0.1l-0.1-0.4l-0.2-0.3
			l-0.1-0.4l0.1-0.3l-0.1-0.2L93,23.7l-0.7-1.5l-0.1-0.4l0-0.5L92,21.1l-0.2-0.4l-0.1-0.4l0.1-0.7l0.8-0.2l0.6,0l0.4,0.2l0.4-0.1
			l0.4,0.1l0.2,0.1l0.2-0.1l0.3-0.2l0.2-0.1l0.5,0.1l0.4-0.1l0.1,0.1l0.2-0.1l0.7,0.1L97.4,19.6z M92.6,21.5l0-0.2l-0.2,0l0.1,0.2
			L92.6,21.5z M95.7,22.1l0.2-0.1l-0.1-0.2l-0.1,0.1L95.7,22.1z M95.8,29.8v-0.1h-0.2L95.8,29.8z M96,23.8l0.1,0.1l0.1-0.1l0-0.2
			L96,23.6L96,23.8z M96,24.5l0.1,0.1l0.1-0.1l-0.2,0L96,24.5z M96.7,24.8l-0.1-0.2l-0.2-0.1l0.1,0.2L96.7,24.8z M96.9,28.1l0-0.2
			l-0.2,0l0.1,0.2L96.9,28.1z M97,30.5l0.2,0l0.1-0.2l-0.1-0.1L97,30.3L97,30.5z M97.2,23.1h0.2v-0.2h-0.2V23.1z M97.4,25.3h0.2
			v-0.2h-0.2L97.4,25.3z M97.5,27.7l0.4-0.2l0.1-0.2l-0.2-0.1l-0.3,0.2L97.5,27.7z M97.9,29.7l0.2,0.2h0.2l-0.1-0.4l-0.2-0.1l0,0.2
			L97.9,29.7z M98.3,25.9l0.2,0l0.1-0.1l-0.2-0.1V25.9z M98.6,33.3h0.2V33L98.6,33V33.3z M98.6,34.4l0.2,0.1l0.1-0.1l0-0.2l-0.1-0.1
			l-0.1,0.2L98.6,34.4z M99,27.2L98.8,27l0,0.2L99,27.2z M98.9,25.9l0.2-0.1l0-0.2l-0.2,0.1V25.9z M99.2,35.7l0-0.2l-0.2-0.1
			l0.1,0.2L99.2,35.7z M99.9,34.1l0.1-0.1l-0.1-0.4h-0.2l0,0.2l0.1,0.2L99.9,34.1z M99.9,26.6v-0.2l-0.2,0.1L99.9,26.6z M100.1,36.4
			l0.1-0.1l0-0.2l-0.2,0.1V36.4z M100.6,30.2l0-0.2l-0.2-0.1v0.2L100.6,30.2z M100.6,33.4l0,0.2l0.3,0.1l0.1-0.2l-0.1-0.2l-0.2,0
			L100.6,33.4z M100.7,39.8l0.2,0l0-0.2l-0.2-0.1l-0.1,0.1V39.8z M100.8,41h0.2l-0.1-0.2L100.8,41z M100.8,35.8L101,36l0.2,0.1
			l0.2-0.1l0.1-0.2l-0.4-0.1l-0.2,0L100.8,35.8z M101,40.1h0.1v-0.1H101V40.1z M101.5,35l-0.2-0.6l-0.1-0.1l-0.1,0.1l0,0.2l0.1,0.2
			l0.2,0.1H101.5z M101.2,38l0.1,0.1h0.2l0.1-0.1l0-0.2l-0.2-0.1l-0.2,0.1L101.2,38z M101.6,37.1h0.1l-0.1-0.1L101.6,37.1
			L101.6,37.1z M101.6,33l0.1,0.2h0.2L102,33l-0.2-0.1L101.6,33z M101.8,36.2v0.1l0.1,0.1h0.1l0.1-0.1v-0.1l-0.1-0.1L101.8,36.2
			L101.8,36.2z M102,35.4l0.4-0.1l-0.1-0.3l-0.3,0.2L102,35.4z M102.4,34.3l0.1-0.3l-0.2,0l-0.1,0.1l0,0.2L102.4,34.3z M102.5,37.7
			l0.2-0.5l-0.2,0.1l-0.1,0.2L102.5,37.7z M102.4,36.4l0.1,0.2l0.2,0.1l0.1-0.5l-0.2-0.1l-0.1,0.2L102.4,36.4z M102.7,40.2L103,40
			l-0.1-0.4l-0.2-0.1l-0.1,0.5L102.7,40.2z M102.9,40.9l-0.1-0.1l-0.2,0.1L102.9,40.9z M103,35.9l0-0.1l-0.1-0.1l0,0.2L103,35.9z
			 M102.9,39h0.2v-0.2h-0.2V39z M103,42.3l0.3-0.1v-0.3l-0.2,0l-0.1,0.1L103,42.3z M103.4,41.2l0.1-0.2l-0.1-0.2l-0.1-0.1l-0.1,0.2
			l0,0.2L103.4,41.2z M103.7,37.1l-0.3-0.1h-0.2l0.1,0.2l0.2,0.1l0.2,0L103.7,37.1z M103.3,31.2l0.2,0.1l-0.1,0.2l-0.1-0.1V31.2z
			 M103.3,44.4h0.5v-0.2l-0.4,0.1L103.3,44.4z M103.4,33.8l0,0.2l0.1,0l0.2-0.1l0-0.2l-0.1-0.1L103.4,33.8z M103.7,43.5l0.1-0.4
			l-0.2-0.1l-0.1,0.1l0,0.2L103.7,43.5z M103.8,40.6l0.1,0l0-0.1l-0.1-0.1L103.8,40.6z M103.8,39.7l0.3,0.1v-0.4l-0.3,0.2
			L103.8,39.7z M104.1,42.8h0.1v-0.1h-0.1V42.8z M104.1,41.8l0.4-0.1l-0.1-0.2h-0.2l-0.1-0.1V41.8z M104.5,40.9l0.1-0.2l0-0.2
			l-0.2-0.1l-0.1,0.2l0.1,0.2L104.5,40.9z M104.3,44.2l0.6-0.2l-0.1-0.4l-0.1,0l-0.3,0.2l-0.1,0.2V44.2z M104.6,36.6l0.1,0.2
			l0.2-0.1l-0.1-0.2L104.6,36.6z M105,43.1l0-0.2l-0.3-0.3l-0.1,0.2l0.2,0.3L105,43.1z M104.8,39.3h0.4l0.2-0.3l0-0.2l-0.4-0.1
			l-0.3,0.2l0,0.2L104.8,39.3z M105,42.1v0.1l0.2,0.1l0.1-0.1v-0.1H105L105,42.1z M105.7,41.2l-0.1-0.1h-0.4l0,0.2l0.2,0.1l0.2-0.1
			L105.7,41.2z M105.6,42.4l0.2,0.1l0.2,0v-0.2l-0.1-0.1l-0.2,0L105.6,42.4z M105.7,43.2l0.1,0.2l0.2-0.1l0.1-0.2l-0.2,0L105.7,43.2
			z M105.8,38.7l0.2,0.1l0.2-0.1l0.1-0.2l-0.1-0.1H106l-0.2,0.1L105.8,38.7z M106.2,37.5v-0.3l-0.1-0.1l-0.1,0.2l0,0.1L106.2,37.5z
			 M106.1,39.8h0.2l-0.2-0.1V39.8z M106.4,45.1l0.1-0.2l0-0.2l-0.1-0.2l-0.2,0l0.2,0.5L106.4,45.1z M106.2,37.9l0.2-0.1l-0.2-0.2
			L106.2,37.9z M106.3,40.9l0.1,0.1l0.3,0v-0.2l-0.1-0.1l-0.2,0.1L106.3,40.9z M106.6,44l0.1-0.2l-0.2-0.1l0,0.2L106.6,44z
			 M106.7,42.9L107,43l-0.2-0.3L106.7,42.9z M107.1,42.3h0.1V42h-0.1V42.3z M107.1,43.9l0.1,0.2l0.2-0.1v-0.2L107.1,43.9z
			 M107.4,38.3V38h-0.2l0.1,0.1L107.4,38.3z M107.6,39h-0.2l0.1,0.5l0.3,0.2l-0.1-0.2l0-0.2L107.6,39z M107.8,36.6h0.1v-0.1h-0.1
			V36.6z M107.9,38.7h0.1v-0.1h-0.1V38.7z M108.2,37h0.2l0.1-0.1l-0.2-0.1L108.2,37z M108.4,38l0.1-0.2l-0.1-0.2l-0.2-0.1v0.2
			l0.1,0.1L108.4,38z M108.5,39.8l0,0.2l-0.1,0.2l0.2,0.1l0.1-0.6h-0.2L108.5,39.8z M108.5,38.9l0.3,0.3v-0.5l-0.2,0L108.5,38.9z
			 M108.8,35.2l0.1,0l0-0.2l-0.2,0.1V35.2z M108.9,37.1l0.1,0.4l0.2,0.1l0.1-0.2l0.2-0.3l-0.2-0.1l-0.2,0L108.9,37.1z M108.9,40.9
			l0.2-0.1H109L108.9,40.9z M109.4,39.6l0.2,0.1l0.2-0.1l0.1-0.2l-0.1-0.2h-0.2l-0.1,0.1L109.4,39.6z M109.6,40.7l0.1-0.2l-0.2-0.1
			l0,0.2L109.6,40.7z M109.7,36.6l-0.1-0.2l-0.1,0.1L109.7,36.6z M109.7,32.5l0.1-0.2l-0.1-0.1v0.2L109.7,32.5z M109.9,35l0.1-0.1
			v-0.2l-0.2-0.1l0,0.3L109.9,35z M110.2,34l0.1-0.1l-0.1-0.4H110l-0.1,0.2l0.1,0.2L110.2,34z M110,36.7l0.1,0.2l0.2,0.1l0.2,0
			l0.1-0.1l-0.1-0.1l-0.2,0L110,36.7z M110.5,35.9v-0.1l-0.2,0L110.5,35.9z M110.6,31.9l0.2-0.1l-0.1-0.2l0,0.1L110.6,31.9z
			 M111,34.3l-0.2-0.1l0.1,0.2L111,34.3z M111.1,36.5l0.2,0.1l0.2-0.1l0.1-0.2l-0.1-0.1l-0.2,0l-0.1,0.1L111.1,36.5z M111.2,34.4
			h0.1v-0.1h-0.1V34.4z M112.2,30.7l-0.2,0.1l0.1,0.1L112.2,30.7z M112.6,28.8l-0.2-0.1l-0.1,0.1l0.1,0.1L112.6,28.8z M113.2,24.7
			h0.1l0.1-0.2h-0.2V24.7z M113.5,31.8l0.1-0.2l-0.1-0.1l-0.1,0.2L113.5,31.8z M113.5,34.4v-0.2h-0.2l0,0.1L113.5,34.4z M113.9,30.6
			l-0.2-0.1l0.1,0.1L113.9,30.6z M114.7,26.6h0.2l-0.2-0.2V26.6z M115.2,26.1v-0.2H115l0,0.1L115.2,26.1z M116.4,24.5l0.1,0.1
			l0.1-0.1l-0.1,0L116.4,24.5z"/>
		<path class="st1" d="M134.2,42.2l-0.1,0.1l0,0.2l0.2,0l-0.1,0.7l-0.1,0.2l0.2,0.2l-0.1,0.4l0.1,1.6l-0.2,0.1l-0.2,0.3l-0.2,0v0.2
			l0.1,0.1l-0.7,0.2l-0.1,0.1l-0.4-0.2l-0.2,0.1l0-0.2l-0.2,0.1l-0.6,0l-0.2,0.1l-0.1-0.1l-0.2,0l-0.2,0.1l0,0.2l-0.4-0.1l-0.5,0
			l-1.5-0.2l-0.1,0.1l0,0.2l-0.2,0l-0.2-0.1l-0.2-0.3l-0.2-0.1l0.3-0.2h-0.2l-0.1-0.1l-0.2-0.4V45l-0.3-0.2l0.2-0.6L127,44l0.3-0.2
			l-0.1-0.2l-0.2-0.1v-1l0.1-0.7l-0.2-0.6v-0.2l0.1-0.2l-0.1-2.2l0.1-0.3l-0.1-0.7l0.2-0.6l-0.1-0.4l0-0.4l0.1-0.2l-0.1,0l-0.1-0.2
			l0.1-0.4v-0.5l-0.1-0.4l0.1-0.1l0.2-0.1l-0.1-0.2v-0.5l0.1-0.2l-0.1-0.1l-0.1,0l0.2-0.3l0-0.2l-0.2-0.3l0.1-0.5l0.2-0.4l-0.1-0.3
			v-0.8l0.2-0.4l-0.3-0.3l0-0.2l0.2-0.1h0.7l-0.1-0.2l-0.4,0l0.1-0.8l-0.3-0.2l0.1-0.2l0.2-0.1l-0.3-0.5v-0.5l0.1-0.5l-0.1-0.4
			l0.1-0.4l0.2-0.3l-0.2-0.3l0-0.6l-0.1-0.4l0.1-0.2l0.2-0.1l-0.1-0.2L127,23l0.1-0.4l0.1-0.2l-0.1-0.2l-0.1-0.1l0.2-0.6l-0.1-0.4
			l-0.1-0.2l0.3,0l-0.2-0.4l0.1-0.4l0.5-0.7l1.9-0.1l1.6,0.1l0.1,0.2l0.2,0l-0.1-0.4h1.5l0.4,0.1l0.3,0.1l0,0.3l0.1,0.1h0.2l0.2,0.3
			l0.1,0.4l0,0.4l-0.1,0.4l0.1,0.5l0.1,1.3l-0.1,0.8l0,0.5l0.1,0.2l-0.1,0.3l0.1,0.2l-0.1,0.4l0.1,1.1L134,27l0.1,1.4l0,1.6
			l-0.1,0.5l-0.2,0.3l0.1,0.4l0,0.8l-0.4-0.2l-0.3-0.4l-0.1,0.2l0,0.7l0.3,0.2v0.4l-0.2-0.1l0.1,0.2v0.5h0.2l0.1,0.1l-0.3,0.3v0.2
			h0.2l0.3-0.2l0,0.3l-0.3,0.5l-0.5-0.4l-0.4-0.1l-0.2,0.1l0.6,0.2l0.2-0.1v0.5l-0.2,0.4l0.7,0.6l0.1,1.6l0.1,0.3l0,1.3l-0.1,0.8
			l0.1,0.9v0.4l-0.2,0.3l0.2,0.4L134.2,42.2z M127.3,26h-0.2l0.1,0.2L127.3,26z M127.4,32.3l-0.1-0.2l-0.1,0.2H127.4z M127.6,19.9
			l-0.2,0l0.1,0.2h0.2L127.6,19.9z M127.7,38.4h-0.1l-0.1,0.1L127.7,38.4z M128.3,24.5l0.2,0.2l0.1-0.2l0-0.2l-0.2-0.1L128.3,24.5z
			 M128.3,30.6l0.1,0.2l0.1,0.1l0.2-0.1l-0.1-0.4l-0.2-0.1L128.3,30.6z M128.3,31.6l0.2,0.3l0-0.3l-0.2-0.1L128.3,31.6z M128.5,33.9
			l-0.2,0l0.1,0.2l0.2-0.1L128.5,33.9z M128.8,27l0.1-0.2l0-0.2l-0.2-0.1l-0.1,0.2l0.1,0.2L128.8,27z M128.8,32.8l-0.1-0.1l-0.2,0
			l-0.1,0.2l0.1,0.2l0.3-0.1L128.8,32.8z M128.8,25.9L129,26l-0.3-0.3L128.8,25.9z M128.9,29.4l0.1-0.1l0-0.2l-0.2-0.1l-0.1,0.4
			H128.9z M129,42.3l-0.1-0.1l-0.1,0.1l0.1,0.1L129,42.3z M129.2,35l-0.2-0.1v0.2l0.1,0.1L129.2,35z M129,25.3l0-0.1H129L129,25.3z
			 M129.2,31.3l0.1-0.2l-0.2,0.1l0,0.2L129.2,31.3z M129.2,37.3v0.2l0.2-0.1l0.1-0.2l-0.2-0.1L129.2,37.3z M129.3,30.1v0.2l0.1,0.2
			l0.2-0.3l0-0.2l-0.2-0.1L129.3,30.1z M129.4,23.1l0.2,0.1V23l-0.2-0.1L129.4,23.1z M129.4,24.1h0.2v-0.2h-0.1L129.4,24.1z
			 M129.6,44.4h-0.2l0,0.2l0.1,0.1L129.6,44.4z M129.9,32.4v-0.2l-0.4,0.1l-0.1,0.2l0.2,0.1l0.2,0L129.9,32.4z M129.8,25.1h-0.2
			l0,0.2l0.2,0V25.1z M129.7,26.1l-0.1,0.1l0.2,0l0.1-0.2L129.7,26.1z M129.8,33.5l0-0.2l-0.1-0.1l-0.1,0.2H129.8z M129.8,35.8
			l-0.1-0.1v0.2L129.8,35.8z M129.9,34.9l0.1,0.2l0.2,0l0-0.2l-0.1-0.3h-0.2l-0.1,0.1L129.9,34.9z M129.9,21.6l0.2,0l0-0.2l-0.2,0
			L129.9,21.6z M130.1,37.1l0.2,0.1l0.2-0.1l-0.1-0.2l-0.2-0.1l-0.2,0.1L130.1,37.1z M130.3,38l-0.1-0.1v0.2L130.3,38z M130.3,29.8
			h0.3l-0.1-0.2h-0.1L130.3,29.8z M130.4,26.9l0,0.1l0.2-0.1l0-0.2l-0.3-0.1L130.4,26.9z M130.9,33l-0.1-0.1l-0.2,0.1l-0.1,0.2
			l0.1,0.1l0.3-0.1V33z M130.9,32.1l-0.1-0.3l-0.2-0.1l-0.1,0.1l0,0.2l0.1,0.2l0.2,0.1V32.1z M130.7,44l-0.1-0.1L130.7,44L130.7,44z
			 M131,25.8l-0.4-0.1l0.1,0.2l0.2,0.1L131,25.8z M130.8,39.3h-0.2l0.2,0.2V39.3z M130.8,25.1h0.2l-0.2-0.1V25.1z M131.1,35.3H131
			v0.2h0.1L131.1,35.3z M131.4,34.4l0.1-0.2l-0.2,0l0,0.2L131.4,34.4z M131.5,23.2l-0.2,0.1l0,0.2h0.2l0.1-0.1l0.1-0.2L131.5,23.2z
			 M131.3,27.5l0.1,0.1l0.1-0.1l-0.1-0.2h-0.2L131.3,27.5z M131.4,33.7l0.2-0.1l0-0.2h-0.1l-0.1,0.1L131.4,33.7L131.4,33.7z
			 M131.3,36.5l0,0.3l0.2-0.1l0.1-0.2l-0.1-0.1L131.3,36.5z M131.7,43.7l0.1-0.3l-0.2-0.1l-0.1,0.1l-0.1,0.2l0,0.2l0.2,0.1
			L131.7,43.7z M131.5,29.3l-0.1,0.2l0.1,0.2l0.2-0.1l0-0.2l-0.1-0.2L131.5,29.3z M131.8,39l0.2-0.3l-0.2-0.1l-0.3,0l-0.1,0.4
			l0.2,0.1L131.8,39z M131.7,31.7l0.2,0.1l0.2-0.1l-0.1-0.2l-0.3-0.2l-0.1,0.1l-0.1,0.2L131.7,31.7z M131.7,35.9l0.2,0.1v-0.1H131.7
			z M131.9,24.8L132,25l0-0.2l-0.2-0.1L131.9,24.8z M132.3,33.9l-0.2-0.1l-0.2,0.2l0.4,0.1L132.3,33.9z M132.4,41l-0.1-0.2l-0.3-0.1
			l-0.1,0.1v0.3l0.2,0.1h0.3L132.4,41z M132.1,27.6l-0.1,0.1l-0.1,0.2h0.2l0.1-0.1l0-0.2L132.1,27.6z M132,34.7l-0.1,0.1L132,35h0.2
			l0-0.2l-0.1-0.1L132,34.7z M132.5,33l-0.1,0.1l0.2,0.1L132.5,33z M132.5,36l0.2-0.1l-0.3-0.1L132.5,36z M132.4,29.2l0.2,0.1
			l0.1-0.1l0-0.2l-0.2-0.1L132.4,29.2z M132.8,38.4l-0.1-0.1l-0.1,0.2l0.1,0.1L132.8,38.4z M133.1,31.2l-0.2-0.3l-0.2-0.1l-0.1,0.2
			l0.1,0.2l0.2,0.4l0.2-0.2L133.1,31.2z M133.2,33.4l-0.3-0.1l-0.1,0.2l0,0.3l0.2,0l0.1-0.2l0.3-0.2L133.2,33.4z M133.1,34.6
			l-0.1,0.1l0,0.1l0.1-0.1L133.1,34.6z"/>
		<path class="st1" d="M168.7,39.7l-0.1,0.2l-0.2,0.1v0.3l-0.1,0.4H168l0,0.2l-0.1,0.2l-0.2,0.1l-0.1,0.4l-0.2,0.3l-0.5,0.2v0.3
			l-0.1,0.2l-0.2,0.1l-0.2,0l-0.1,0.4l-0.2,0.3l-0.3,0.2l-0.9,0.3l-0.1,0.4l-0.2,0.1l-0.3,0.3l-0.3,0.2l-0.2,0l-0.3,0.2l-1.2,0.5
			l-0.3,0.3h-0.3l-0.7,0.4l-0.6,0.1l-0.9,0l-0.3,0.3l-0.3-0.1l-0.2,0.1l-0.4,0.1l-0.2-0.2l-0.2,0.1l-0.4,0l-0.1,0.2l-0.2-0.1
			l-0.8,0.2l-0.5-0.1l-0.4,0.2l-0.2-0.2l-0.2,0l-0.2,0.1l-0.4,0l-0.7-0.2l-0.4,0l-0.1-0.3l-0.2,0.2l-1.1-0.2V46h-0.2l-0.3,0.2
			l-0.2-0.1l-0.1-0.2l-0.5,0.1l-0.1-0.1l0-0.4l-0.1,0.1l0,0.2l-0.8-0.2l-1.7-1.1l-0.4-0.1l-0.1-0.3l-0.6-0.3l-1.2-1.2l-0.3-0.2v-0.3
			l-0.3,0l-0.2-0.5l-0.5-0.4l-0.2-0.3l-0.6-1.1l-0.3-0.3v-0.3l-0.1-0.2l0-0.2l-0.2-0.1l-0.2-0.3l0-0.3l-0.3-0.7v-0.2l-0.3-0.2l0-0.9
			l-0.4-1.6l0.2-0.3l-0.2-0.6l0-0.4l0.1-0.2l-0.1-0.4l0-0.8l0.1-0.8l0.1-0.1l0.1-0.4l0-0.9l0.2-0.6l0-0.2l0.1-0.1h0.2l-0.1-0.3
			l0.1-0.3l0.4-0.7l0-0.2h0.2l0.2-0.1l0.1-0.1v-0.4l-0.1-0.2l0.2-0.5l0.2-0.3l0.2,0v-0.4l0.2-0.1l0.3-0.3h0.2v-0.5l0.3-0.1l0.1-0.2
			l0.5-0.4l0.2-0.3l0.4,0.1l0-0.2l-0.1-0.1l0-0.2l0.7-0.3l0.2-0.4l0.4,0.1l0.1-0.4l0.8-0.2v-0.4l0.1-0.2l0.2,0.1l0.3,0.1l0.2-0.4
			l0.2-0.1l0.4-0.4l1.4-0.5l0.4-0.1l0.3-0.3l0.8-0.1l0.5-0.1l0.1-0.2l0.9-0.2l0.2,0.1l0.2,0.1l1-0.2l0.3-0.2l0.8,0.1l0.2,0.1
			l0.4-0.2l0.4,0.1l0.3,0.2h1.2l0.8,0.2l0.3,0.2l0.2,0.2l0.3-0.2l0.2,0l2,0.8l0.3,0.4l0.4-0.1l0.1,0.2l1.1,0.7l0.1,0.2l0.6,0.3
			l0.6,0.5l1.6,1.8l-0.1,0.2l0.1,0.1h0.4l0.3,0.7l0.3,0.8l0,0.3l-0.3,0.3l-0.2,0.1l-0.3,0.3l-0.3,0.2l-1.4,0.6l-0.3,0.2l-0.4-0.1
			l-0.2,0.3l-0.2,0.1l-0.1-0.1l-0.3,0.2l-0.2,0l-0.2-0.1l0-0.2l-0.2,0.1V29l-0.6,0l-0.2,0.1l-0.9-0.3l-0.2-0.1l0.2-0.2l-0.1-0.2
			l-0.3-0.2l-0.4,0l-0.4-0.4l-1-0.7l0.2-0.1l0.1-0.2h-0.3l-0.4-0.1l-0.3,0v-0.2l0.3-0.3l-0.2-0.1l-0.9,0.1l0,0.1l-0.3-0.1v-0.1
			l-0.6-0.1l-2.3-0.1l-0.4,0.2l-0.5,0l-0.8,0.2l-0.2,0l-0.7,0.5l-0.6,0.3l-0.7,0.5l-0.2,0.3h-0.2l-0.7,0.4l0.1,0.4l-0.3,0.2
			l-0.6,1.1l-0.4,0.5l0.1,0.6l-0.3,0.3l0,0.4l-0.1,0.9l0.1,0.4l-0.1,0.2l0,0.9l-0.1,0.2l-0.1,0.1l0.1,0.2l0.3,0.2l-0.1,0.2l0.1,0.2
			l0.3,0.3l-0.1,0.2l0.1,0.6l0.1,0.1h0.2l0.3,0.8l0.9,1.4l0.2,0l0.6,0.4l0.4,0.2l0.3,0.3l1.4,0.7h0.3l0.6,0.2h2.3l0.8-0.2l0.3,0.1
			l0.7-0.4l0.4-0.1l0.7-0.3h0.4v-0.4l0.5,0l0.7-0.9l0.5-0.7h0.7v-0.4l0.6-0.1l0.1,0.2l0.5,0.2l0.3,0.2l0.1,0.2l0.8-0.2l0.4,0.3h0.2
			l-0.1,0.2l0.3,0.3l0.2-0.4l0.3,0.1v0.3l0.1,0.2l0.5-0.1l0.4,0.3l0.2-0.1l0.1,0.1l-0.1,0.2l0.2,0l0.2-0.1l0.4,0.3l0.2,0.3
			L168.7,39.7z M143.2,32v-0.1h-0.1V32H143.2z M143.5,35h-0.1l-0.1,0.2h0.1L143.5,35z M143.7,29l0.1,0.2l0.1,0L143.7,29z
			 M143.8,31.4l0.2,0.1l0.2,0l0.1-0.2l-0.4-0.1l-0.1,0.1L143.8,31.4z M144.4,34.6l0-0.1l-0.1-0.1l-0.1,0.1L144.4,34.6z M144.9,36
			l-0.1-0.3l-0.3-0.2l-0.1,0.2l0.2,0.4l0.2,0.1L144.9,36z M144.8,37l-0.2-0.3l-0.1,0.4L144.8,37z M144.7,28.8h0.1l0-0.1l-0.1-0.1
			L144.7,28.8z M144.7,29.5l0,0.2l0.2-0.1l0-0.2h-0.2L144.7,29.5z M144.8,34.8V35h0.2v-0.2H144.8z M145.2,38.5l0-0.4L145,38
			l-0.1,0.4l0.1,0.2l0.1,0.1L145.2,38.5z M145.5,27.2l0.2-0.1l0-0.3l-0.1-0.1l-0.3,0.2l-0.1,0.2H145.5z M145.4,34h-0.2v0.2l0.2,0V34
			z M145.7,40.3l-0.2,0l0.1,0.1l0.2,0L145.7,40.3z M145.6,25.8l-0.1,0.1l0,0.2l0.2-0.1l0.1-0.2H145.6z M145.7,29.5l0.2-0.1l0-0.2
			l-0.2,0l-0.1,0.2L145.7,29.5z M145.6,30.1h-0.1v0.1h0.1V30.1z M145.8,39.4l-0.3-0.2v0.2l0.3,0.2L145.8,39.4z M145.7,32.4l0.1-0.2
			l-0.2,0.1L145.7,32.4z M145.8,36.3l-0.1-0.1v0.2L145.8,36.3z M145.8,28.3l0,0.2l0.2,0.1l-0.1-0.4l-0.3,0.1L145.8,28.3z
			 M146.4,30.5l-0.1-0.3h-0.3v0.2l0.1,0.1l0.3,0.2V30.5z M146,31.2l-0.1,0.2l0.1,0.2l0.2-0.1v-0.3L146,31.2z M146.3,37.9l-0.2-0.1
			v0.2l0.1,0.1L146.3,37.9z M146.2,27.6l-0.1,0.1l0.1,0.1l0.1-0.1L146.2,27.6z M146.4,26.5l-0.2,0.1l0.1,0.2l0.2,0.1l0-0.2
			L146.4,26.5z M146.4,25.5v0.2l0.1,0.1l0.2,0v-0.5l-0.2-0.1L146.4,25.5z M147,35l0-0.1l-0.3-0.1l-0.2,0.1l0.1,0.2l0.2,0.1l0.2,0
			L147,35z M146.7,36.7l-0.2,0l0.1,0.2L146.7,36.7z M146.6,40.5l-0.1-0.1v0.3h0.2L146.6,40.5z M146.7,27.7l0.1,0.1l0-0.1l0.1,0.1
			v-0.3l-0.3-0.1V27.7z M146.7,28.8l0.1-0.1l-0.1-0.1V28.8z M147,42l-0.2,0l-0.1,0.1L147,42z M146.9,24.9l-0.1,0.1l0.2,0L146.9,24.9
			z M146.8,31.9l0,0.2l0.2,0v-0.2L146.8,31.9z M147,28l0,0.1l0.1,0.1l0.1-0.1L147,28z M147.4,30.1l-0.1-0.2l-0.2-0.1V30l0.3,0.3
			L147.4,30.1z M147.2,27.2l0.1,0.1l0.1-0.2l-0.1-0.1L147.2,27.2z M147.3,36.8l-0.1,0.3l0.1,0.1l0.2,0.1l0.2-1l-0.4-0.2v0.2l0.1,0.1
			v0.2L147.3,36.8z M147.6,26l-0.3,0.2l0,0.2l0.2,0l0.2-0.1l0.1-0.2L147.6,26z M147.6,40.5l0-0.2l-0.1-0.1l-0.1,0.2l0,0.2
			L147.6,40.5z M147.5,25.1l0.1,0.3l0.2,0.1l0.1-0.2l-0.1-0.3l-0.1-0.1L147.5,25.1z M147.6,39.5l0-0.2l-0.2,0.1l0,0.2L147.6,39.5z
			 M147.7,38.3l-0.2-0.1l0,0.2l0.2,0.1L147.7,38.3z M148.3,27.5l-0.1-0.2l-0.1-0.1l-0.2-0.1l0,0.2l0.1,0.2l0.1,0.1l0.2,0.1
			L148.3,27.5z M147.9,24.7l0.2,0v-0.2h-0.2L147.9,24.7z M147.9,28l-0.1,0.2l0.1,0.2l0.1-0.4l-0.1-0.2L147.9,28z M148.1,41.3h-0.2
			l0,0.2l0.2,0.1V41.3z M148.2,23.3l0.1,0.4l0.2-0.1v-0.2l-0.1-0.2l-0.2-0.1V23.3z M148.3,25.9l0.2,0.1l0.2,0l0-0.2l-0.4,0
			L148.3,25.9z M148.4,39l-0.1-0.1v0.2h0.2L148.4,39z M148.5,24.7l0,0.2l0.2,0.1l0.1-0.3l-0.2-0.1L148.5,24.7z M149.2,27.1l-0.1-0.2
			l-0.1-0.1l-0.3,0l0.1,0.4l0.3,0.1L149.2,27.1z M149,24.2l0.2,0l0.1-0.2l-0.2-0.1L149,24.2z M149.2,23l-0.1,0.2l0.2,0l0.2-0.1
			l0.1-0.2l-0.1-0.1l-0.2,0L149.2,23z M149.4,43.5l0.1-0.2h-0.3l0.1,0.2L149.4,43.5z M149.5,25.7l0.1-0.4l-0.2-0.1l-0.2,0.1v0.3
			l0.1,0.2L149.5,25.7z M149.8,27.7l0.1-0.1l-0.2-0.1l-0.2,0.1L149.8,27.7z M149.7,24.5l0.1,0.1l0-0.2h-0.2V24.5z M150,40.8
			l-0.2-0.1l0,0.2l0.2,0.1L150,40.8z M149.8,26.5l0.1,0.1l0.1-0.1H149.8z M150.4,25.1l0.1,0.2l0.2-0.2l-0.2-0.1L150.4,25.1z
			 M150.6,23.7l0,0.2l0.2,0.1l0.1-0.2l-0.1-0.2l-0.1-0.1L150.6,23.7z M151.1,26.6h0.1v-0.1h-0.1V26.6z M151.6,42.7v-0.2l-0.1-0.1
			l-0.1,0.1l0,0.2l0.2,0.1L151.6,42.7z M151.7,46.3l-0.1,0.1v-0.2L151.7,46.3z M151.8,41.7h-0.1v0.1h0.1V41.7z M151.8,23.7l0.1,0.1
			l-0.1-0.2V23.7z M152,22.6l0.2,0.1l0-0.2l-0.2-0.1L152,22.6z M152.4,21.7l0.2,0l0.1-0.2l-0.3,0.1L152.4,21.7z M152.8,24h-0.2
			l0.1,0.2l0.1,0l0.1-0.2L152.8,24z M152.9,23l-0.1,0.2l0.2,0l0.1-0.2L152.9,23z M153.2,22.4l0.1-0.1l-0.1-0.1l-0.1,0.1V22.4z
			 M154,43.9l-0.1-0.1l-0.2,0.3l0.1,0.1L154,43.9z M153.9,22.2l-0.1,0.2l0.1,0.1h0.2v-0.2l-0.2-0.2L153.9,22.2z M154.2,21.9l0.2,0.1
			v-0.2l-0.2-0.1L154.2,21.9z M154.7,43.7l0.2-0.1l0.1-0.1l-0.1-0.1h-0.2l-0.1,0.1v0.2L154.7,43.7z M155,22.2l0.2-0.1l-0.2-0.1V22.2
			z M155.3,44.6L155.3,44.6h-0.2v0.1l0.1,0.1l0.2-0.1V44.6z M156.1,42.3l-0.1-0.2l-0.1,0.1L156.1,42.3z M156,21.7l0.2-0.1v-0.2H156
			V21.7z M156.2,23.8V24l0.2,0l0.1-0.1L156.2,23.8z M157.2,42.4H157v0.2h0.1L157.2,42.4z M157.7,23l0.2,0l-0.1-0.2L157.7,23z
			 M158,21.7l-0.1,0.1l0.3,0.1v-0.1L158,21.7z M159.3,22.5l0.2,0.1l0.1-0.2l-0.2-0.1V22.5z M160.1,41.6l0.1-0.1l-0.3-0.1v0.3
			L160.1,41.6z M161.5,21.8h0.1v-0.1h-0.1V21.8z M161.9,24.2h0.1v-0.3h-0.1V24.2z M162,23.3l0.2,0v-0.2H162L162,23.3z M162.4,26.3
			v0.2l0.2-0.2H162.4z M162.6,28.4l-0.1-0.1l-0.1,0.2l0,0.1l0-0.1l0.2,0L162.6,28.4z M162.8,41.8l0.1-0.2l-0.1-0.1h-0.2l-0.1,0.2
			l0.1,0.2L162.8,41.8z M162.6,42.7h-0.1v0.1h0.1V42.7z M162.9,23.7l0.1-0.1l0.1-0.1h-0.2V23.7z M163,37.1h0.1l-0.1-0.1L163,37.1
			L163,37.1z M163.3,43.3l-0.1-0.2l-0.1,0.1L163.3,43.3z M163.5,44.4l-0.1,0.1l0.1,0.1h0.1L163.5,44.4z M166.7,42.1h-0.1l-0.1,0.2
			h0.1L166.7,42.1z"/>
		<path class="st1" d="M183.3,42.2l-0.1,0.1l0,0.2l0.2,0l-0.1,0.7l-0.1,0.2l0.2,0.2l-0.1,0.4l0.1,1.6l-0.2,0.1l-0.2,0.3l-0.2,0v0.2
			l0.1,0.1l-0.7,0.2l-0.1,0.1l-0.4-0.2l-0.2,0.1l0-0.2l-0.2,0.1l-0.6,0l-0.2,0.1l-0.1-0.1l-0.2,0l-0.2,0.1l0,0.2l-0.4-0.1l-0.5,0
			l-1.5-0.2l-0.1,0.1l0,0.2l-0.2,0l-0.2-0.1l-0.2-0.3l-0.2-0.1l0.3-0.2h-0.2l-0.1-0.1l-0.2-0.4V45l-0.3-0.2l0.2-0.6l-0.1-0.2
			l0.3-0.2l-0.1-0.2l-0.2-0.1v-1l0.1-0.7l-0.2-0.6v-0.2l0.1-0.2l-0.1-2.2l0.1-0.3l-0.1-0.7l0.2-0.6l-0.1-0.4l0-0.4l0.1-0.2l-0.1,0
			l-0.1-0.2l0.1-0.4v-0.5l-0.1-0.4l0.1-0.1l0.2-0.1l-0.1-0.2v-0.5l0.1-0.2l-0.1-0.1l-0.1,0l0.2-0.3l0-0.2l-0.2-0.3l0.1-0.5l0.2-0.4
			l-0.1-0.3v-0.8l0.2-0.4l-0.3-0.3l0-0.2l0.2-0.1h0.7l-0.1-0.2l-0.4,0l0.1-0.8l-0.3-0.2l0.1-0.2l0.2-0.1l-0.3-0.5v-0.5l0.1-0.5
			l-0.1-0.4l0.1-0.4l0.2-0.3l-0.2-0.3l0-0.6l-0.1-0.4l0.1-0.2l0.2-0.1l-0.1-0.2l-0.1-0.4l0.1-0.4l0.1-0.2l-0.1-0.2l-0.1-0.1l0.2-0.6
			l-0.1-0.4L176,21l0.3,0l-0.2-0.4l0.1-0.4l0.5-0.7l1.9-0.1l1.6,0.1l0.1,0.2l0.2,0l-0.1-0.4h1.5l0.4,0.1l0.3,0.1l0,0.3l0.1,0.1h0.2
			l0.2,0.3l0.1,0.4l0,0.4l-0.1,0.4l0.1,0.5l0.1,1.3l-0.1,0.8l0,0.5l0.1,0.2l-0.1,0.3l0.1,0.2l-0.1,0.4l0.1,1.1l-0.2,0.4l0.1,1.4
			l0,1.6l-0.1,0.5l-0.2,0.3l0.1,0.4l0,0.8l-0.4-0.2l-0.3-0.4l-0.1,0.2l0,0.7l0.3,0.2v0.4l-0.2-0.1l0.1,0.2v0.5h0.2l0.1,0.1l-0.3,0.3
			v0.2h0.2l0.3-0.2l0,0.3l-0.3,0.5l-0.5-0.4l-0.4-0.1l-0.2,0.1l0.6,0.2l0.2-0.1v0.5l-0.2,0.4l0.7,0.6l0.1,1.6l0.1,0.3l0,1.3
			l-0.1,0.8l0.1,0.9v0.4l-0.2,0.3l0.2,0.4L183.3,42.2z M176.4,26h-0.2l0.1,0.2L176.4,26z M176.6,32.3l-0.1-0.2l-0.1,0.2H176.6z
			 M176.7,19.9l-0.2,0l0.1,0.2h0.2L176.7,19.9z M176.8,38.4h-0.1l-0.1,0.1L176.8,38.4z M177.4,24.5l0.2,0.2l0.1-0.2l0-0.2l-0.2-0.1
			L177.4,24.5z M177.4,30.6l0.1,0.2l0.1,0.1l0.2-0.1l-0.1-0.4l-0.2-0.1L177.4,30.6z M177.4,31.6l0.2,0.3l0-0.3l-0.2-0.1L177.4,31.6z
			 M177.7,33.9l-0.2,0l0.1,0.2l0.2-0.1L177.7,33.9z M177.9,27l0.1-0.2l0-0.2l-0.2-0.1l-0.1,0.2l0.1,0.2L177.9,27z M177.9,32.8
			l-0.1-0.1l-0.2,0l-0.1,0.2l0.1,0.2L178,33L177.9,32.8z M177.9,25.9l0.2,0.1l-0.3-0.3L177.9,25.9z M178,29.4l0.1-0.1l0-0.2
			l-0.2-0.1l-0.1,0.4H178z M178.1,42.3l-0.1-0.1l-0.1,0.1l0.1,0.1L178.1,42.3z M178.3,35L178,35v0.2l0.1,0.1L178.3,35z M178.1,25.3
			l0-0.1h-0.1L178.1,25.3z M178.4,31.3l0.1-0.2l-0.2,0.1l0,0.2L178.4,31.3z M178.4,37.3v0.2l0.2-0.1l0.1-0.2l-0.2-0.1L178.4,37.3z
			 M178.4,30.1v0.2l0.1,0.2l0.2-0.3l0-0.2l-0.2-0.1L178.4,30.1z M178.5,23.1l0.2,0.1V23l-0.2-0.1L178.5,23.1z M178.5,24.1h0.2v-0.2
			h-0.1L178.5,24.1z M178.7,44.4h-0.2l0,0.2l0.1,0.1L178.7,44.4z M179,32.4v-0.2l-0.4,0.1l-0.1,0.2l0.2,0.1l0.2,0L179,32.4z
			 M178.9,25.1h-0.2l0,0.2l0.2,0V25.1z M178.8,26.1l-0.1,0.1l0.2,0L179,26L178.8,26.1z M178.9,33.5l0-0.2l-0.1-0.1l-0.1,0.2H178.9z
			 M178.9,35.8l-0.1-0.1v0.2L178.9,35.8z M179,34.9l0.1,0.2l0.2,0l0-0.2l-0.1-0.3H179l-0.1,0.1L179,34.9z M179,21.6l0.2,0l0-0.2
			l-0.2,0L179,21.6z M179.3,37.1l0.2,0.1l0.2-0.1l-0.1-0.2l-0.2-0.1l-0.2,0.1L179.3,37.1z M179.4,38l-0.1-0.1v0.2L179.4,38z
			 M179.4,29.8h0.3l-0.1-0.2h-0.1L179.4,29.8z M179.5,26.9l0,0.1l0.2-0.1l0-0.2l-0.3-0.1L179.5,26.9z M180,33l-0.1-0.1l-0.2,0.1
			l-0.1,0.2l0.1,0.1l0.3-0.1V33z M180,32.1l-0.1-0.3l-0.2-0.1l-0.1,0.1l0,0.2l0.1,0.2l0.2,0.1V32.1z M179.8,44l-0.1-0.1L179.8,44
			L179.8,44z M180.1,25.8l-0.4-0.1l0.1,0.2l0.2,0.1L180.1,25.8z M179.9,39.3h-0.2l0.2,0.2V39.3z M179.9,25.1h0.2l-0.2-0.1V25.1z
			 M180.3,35.3h-0.2v0.2h0.1L180.3,35.3z M180.5,34.4l0.1-0.2l-0.2,0l0,0.2L180.5,34.4z M180.6,23.2l-0.2,0.1l0,0.2h0.2l0.1-0.1
			l0.1-0.2L180.6,23.2z M180.4,27.5l0.1,0.1l0.1-0.1l-0.1-0.2h-0.2L180.4,27.5z M180.5,33.7l0.2-0.1l0-0.2h-0.1l-0.1,0.1L180.5,33.7
			L180.5,33.7z M180.4,36.5l0,0.3l0.2-0.1l0.1-0.2l-0.1-0.1L180.4,36.5z M180.8,43.7l0.1-0.3l-0.2-0.1l-0.1,0.1l-0.1,0.2l0,0.2
			l0.2,0.1L180.8,43.7z M180.6,29.3l-0.1,0.2l0.1,0.2l0.2-0.1l0-0.2l-0.1-0.2L180.6,29.3z M181,39l0.2-0.3l-0.2-0.1l-0.3,0l-0.1,0.4
			l0.2,0.1L181,39z M180.8,31.7l0.2,0.1l0.2-0.1l-0.1-0.2l-0.3-0.2l-0.1,0.1l-0.1,0.2L180.8,31.7z M180.8,35.9L181,36v-0.1H180.8z
			 M181,24.8l0.2,0.1l0-0.2l-0.2-0.1L181,24.8z M181.4,33.9l-0.2-0.1L181,34l0.4,0.1L181.4,33.9z M181.5,41l-0.1-0.2l-0.3-0.1
			l-0.1,0.1v0.3l0.2,0.1h0.3L181.5,41z M181.2,27.6l-0.1,0.1l-0.1,0.2h0.2l0.1-0.1l0-0.2L181.2,27.6z M181.1,34.7l-0.1,0.1l0.1,0.1
			h0.2l0-0.2l-0.1-0.1L181.1,34.7z M181.6,33l-0.1,0.1l0.2,0.1L181.6,33z M181.6,36l0.2-0.1l-0.3-0.1L181.6,36z M181.5,29.2l0.2,0.1
			l0.1-0.1l0-0.2l-0.2-0.1L181.5,29.2z M181.9,38.4l-0.1-0.1l-0.1,0.2l0.1,0.1L181.9,38.4z M182.2,31.2l-0.2-0.3l-0.2-0.1l-0.1,0.2
			l0.1,0.2l0.2,0.4l0.2-0.2L182.2,31.2z M182.3,33.4l-0.3-0.1l-0.1,0.2l0,0.3l0.2,0l0.1-0.2l0.3-0.2L182.3,33.4z M182.2,34.6
			l-0.1,0.1l0,0.1l0.1-0.1L182.2,34.6z"/>
		<path class="st1" d="M211.1,20.2h0.4l1.9,1.1l0.2,0.3l0.1,0.2l0.2,0l0.6,0.3l0.4,0.4l0.1,0.4v0.2l0.1,0.1h0.4l-0.1,0.2l0.1,0.1
			l0,0.1l0.8,0.4l0.3,0.3l-0.1,0.1h-0.2l0.1,0.2l0.1,0.1l0.1,0.2l0.4-0.1l0.1,0.2l0.2,0.3l0.3,0.1l0.1,0.2l0.3,0.5v0.5l0.3,0.2
			l0.2,0.4v0.2l-0.1,0.2l0.2,0.1l0.2,0.3l0.2,0.5l0,0.4l0.3,0.5l0.1,0.5l0,0.9l0.3,0.4l-0.1,3.4l-0.3,1.2l0,0.5l-0.8,1.5l-0.1,0.8
			l-0.8,1.4l-0.4,0.3l-0.1,0.4l-0.7,0.7l0,0.3l-0.3,0.2l-0.1,0.2l-1.2,1l-1.7,1.2l-0.6,0.2l-0.2,0.3l-0.7,0.4l-0.1,0.1l-0.9,0.2
			l-1.4,0.6l-0.1-0.2l-0.2,0l-0.4,0.4l-0.1-0.1l-1.2,0.3l-0.8,0l-0.2-0.1l-0.3,0.3l-0.4-0.1l-0.8,0.1l-0.3,0l-0.3-0.2l-0.5,0.2
			l-0.3-0.2l-0.2-0.1l-0.1,0.1l-0.4,0l-0.6-0.2l-0.1-0.1h-0.4l-0.5-0.3l-0.3,0.1l-0.9-0.6l-0.2,0l-0.2,0.1l-0.3-0.3l-0.6-0.3h-0.2
			l-0.2-0.3l-0.8-0.3l-0.1-0.2l0.1-0.1l-0.5-0.1l-0.3-0.2l-0.5-0.6l-0.3-0.5H195l-0.2-0.3l-0.8-0.6l-0.4-0.8l-0.6-0.6v-0.2l-0.5-0.7
			l-0.1-0.4l-0.2-0.3l-0.2-0.4l-0.3-1.2l-0.2-0.2l0-0.2l0.2-0.1l0-0.2l-0.2-0.1l-0.4-1.2l-0.1-0.1l0.1-0.4l-0.2-0.5l0.1-1.3l0-0.4
			l-0.1-0.4l0.2-0.8v-0.7l0.2-0.2l-0.1-0.4l0.2-0.9l0.3-0.8l0.1-0.1l0.1-0.5l0.2-0.4l0.3-0.3l0-0.5l0.3-0.3l0.1-0.5l0.8-1.1l0.1,0.1
			l0.1-0.4l0.4-0.2v-0.2h0.4l-0.1-0.1l-0.2-0.1l0.3-0.3l0.2,0l0.2-0.5l0.5-0.1l0.2,0.1v-0.2l-0.1-0.2l0.1-0.2l0.3-0.2l0.4-0.1l0-0.2
			l0.3-0.3l0.7-0.4l0.1-0.3l0.4,0l0.3-0.3l0.7-0.4l1.7-0.6l0.8-0.4l0.2,0l0.2,0.1l0.7-0.2h0.4l0.1-0.1l0.4-0.1l0.3-0.1l0.3,0.2
			l1.7-0.1l0.4,0.1l0.2,0l0.1-0.1L207,19l0.4,0l0.2,0.1l0.8,0.3l0.2-0.1l1.1,0.1l0.1,0.2l0.4,0.2l0.5,0.1L211,20L211.1,20.2z
			 M191.1,31.2l0-0.1h0V31.2z M191.7,37.2l0.2-0.1l-0.2,0L191.7,37.2z M192.4,34.3l0.1,0.2l0.2-0.1l0.1-0.2h-0.2L192.4,34.3z
			 M192.8,33.5l-0.2-0.2v0.2L192.8,33.5z M192.9,36h0.2v-0.2l-0.2-0.1l-0.1,0.1V36z M193.8,33.9l-0.2,0.1l0.1,0.1L193.8,33.9z
			 M194.1,35.5l0-0.3l-0.2-0.1l0,0.2l0.1,0.1L194.1,35.5z M194,36.5l0.1-0.1L194,36l-0.1-0.1l0,0.4L194,36.5z M194.1,38.6l0.2,0.1
			l0-0.2l-0.1-0.1L194.1,38.6z M194.3,34.4h0.1v-0.1h-0.1V34.4z M194.9,28.9h0.1l0.1-0.1l-0.2-0.1V28.9z M195.1,31.9l0-0.2h-0.2
			l0,0.2L195.1,31.9z M194.9,35.1l0.2,0l0.1-0.1l0.1-0.2l-0.2,0l-0.1,0.1L194.9,35.1z M195.2,37.4l0.2,0.1l0.2-0.1v-0.2l-0.2-0.1
			l-0.1,0.1L195.2,37.4z M195.4,30.8l0-0.2l-0.1,0L195.4,30.8z M195.4,39.6h0.2v-0.2h-0.2V39.6z M195.7,40.5l0.1-0.3h-0.2v0.2
			L195.7,40.5z M195.8,25.1l0.1-0.3l-0.2,0.1l-0.1,0.2L195.8,25.1z M195.8,26.2l0.1-0.2l-0.2,0.1L195.8,26.2z M195.9,25.7l-0.1-0.1
			v0.1L195.9,25.7z M195.8,34.7l0.2-0.1l0-0.3l-0.2,0l0,0.2L195.8,34.7z M196.1,35.4l0-0.2l-0.1-0.1l-0.1,0.2l0.1,0.2L196.1,35.4z
			 M196.1,27.3L196.1,27.3l-0.1-0.2L196.1,27.3z M196.1,29.7l0.3,0.1v-0.3l-0.2-0.1l0,0.2L196.1,29.7z M196.3,26.4l0,0.2l0.2,0
			l0-0.2H196.3L196.3,26.4z M196.3,30.7l0.1,0.1l0.1-0.1l-0.1,0L196.3,30.7z M196.4,40.2l0.2-0.1l0.1-0.2l-0.2-0.1l0,0.1L196.4,40.2
			z M196.9,31.7l-0.1-0.2l-0.2,0l0.1,0.2L196.9,31.7z M196.9,35.3h0.2v-0.2h-0.2V35.3z M197.2,41.5l0-0.3l-0.2,0l-0.1,0.2l0.1,0.1
			L197.2,41.5z M197.2,42.4l0-0.2l-0.2-0.1l0,0.2L197.2,42.4z M197.2,29.2h0.2l0.1-0.1l-0.1-0.2l-0.1-0.1l-0.1,0.2L197.2,29.2z
			 M197.7,42.6l-0.1-0.2l-0.1,0.2L197.7,42.6z M197.9,38.5l0-0.1l-0.1-0.1l0,0.1L197.9,38.5z M205.1,25.4l-0.2,0.3l-0.2,0.1
			l-0.7-0.1l-0.1,0.1l-0.4,0.1l-0.4,0L203,26l-1.7,0.7l-0.3,0.3l-0.2,0.1l-0.1,0.2l-0.3,0.2l-0.9,0.9l-0.2,0.1l-0.1,0.5l-0.3,0.3
			l-0.7,1.1v0.5l-0.1,0.6l-0.1,0.2l0.1,0.4l-0.3,0.3l0.1,0.4v0.4l0.2,0.6l-0.1,0.2l0.3,0.8l0.1,0.7l0.9,1.5l1.3,1.6h0.3l0.2,0.1
			l0.3,0.3l0.4,0.1l1,0.6l1,0.2l0.2,0.1l0.2-0.1l0.2,0l0.4,0.2l0.1-0.1l0.2-0.1l0.6,0.1l0.2-0.1l0.2,0l0.2,0.1l0.7,0.1l0.1-0.2
			l0.2-0.1l0.4,0.2l0.7-0.5l0-0.1h0.4l0.2-0.4l0.3-0.2l0.7-0.4h0.4l0.3-0.8l0.2-0.3l0.3-0.2l0.2-0.3l0.1-0.5l0.2,0.1l0.2,0l-0.1-0.2
			l0-0.2l0.1-0.4l0.2-0.3h0.2l-0.1-0.5l0.2-0.2l-0.1-0.4l0.1-1.7l0-0.8l-0.2-0.5v-0.4l-0.3-0.8l-0.4-0.7l0.1-0.2l0.1-0.3l-0.2,0.1
			l-0.1,0.2l-0.1-0.2l0.1-0.2l-0.4-0.1l-0.3-0.2l-0.2-0.4l0-0.2l-0.4-0.2l0-0.2l-0.4-0.1l-0.2-0.1l-0.1-0.1l0.1-0.2l-0.4,0l0-0.2
			l-0.3-0.4v0.4l-1.2-0.5l-0.3-0.2l0-0.4l-0.2,0l-0.3,0.3l-0.4-0.1l-0.3-0.2l0,0.3l-0.1,0.1l-0.2-0.1l-0.2-0.3L205.1,25.4z
			 M197.9,27.5l0.2-0.1v-0.1h-0.2V27.5z M197.9,41.9l0.1,0.1h0.2l-0.1-0.4l-0.2-0.1l-0.1,0.2L197.9,41.9z M198.3,41.1l-0.1-0.2
			l-0.2-0.1l-0.1,0.2l0.1,0.1L198.3,41.1z M198.5,22.2h0.1v-0.1h-0.1V22.2z M198.9,39.5V39h-0.2l0.1,0.4L198.9,39.5z M198.9,41.6
			l0.1,0.1l0.1-0.1l0-0.2l-0.2,0L198.9,41.6z M199.3,42.5l0,0.2l0.1,0.2l0.3-0.1v-0.4L199.3,42.5z M199.3,43.7l0.3,0.1l0-0.2
			l-0.1-0.1L199.3,43.7z M199.8,23.2l0.3,0.1l0-0.2l-0.1-0.1L199.8,23.2z M199.9,41l0.1,0.1h0.3l0.1-0.1l-0.1-0.1h-0.2L199.9,41z
			 M200.7,42.2v-0.2l-0.2,0l-0.1,0.1l0.1,0.1L200.7,42.2z M200.8,44.7h0.4l-0.1-0.2l-0.2-0.1L200.8,44.7z M201.3,22.3h0.2l-0.1-0.2
			L201.3,22.3z M201.6,41.8v-0.3l-0.2,0.1v0.1L201.6,41.8z M202.1,44.4l0.1-0.4l-0.2-0.3l-0.1,0.1v0.5L202.1,44.4z M202.3,43.4
			l0.2-0.1h-0.1L202.3,43.4z M202.9,23.1l0.2,0l0.1-0.1l-0.2-0.1L202.9,23.1z M202.9,43.9l0.2,0.1l0.2-0.1l-0.1-0.4l-0.2-0.1
			l-0.1,0.3L202.9,43.9z M203.2,44.6l-0.1-0.3h-0.2v0.2l0.1,0.1L203.2,44.6z M203.4,20.4h0.1l-0.1-0.1L203.4,20.4L203.4,20.4z
			 M203.7,42.2l0.1-0.2l-0.1-0.1l-0.1,0.2L203.7,42.2z M203.7,23.6l0.2,0.1l-0.1-0.2L203.7,23.6z M203.8,22.7l0.3,0.2l0.2-0.1
			l-0.1-0.2l-0.1-0.1l-0.2,0.1L203.8,22.7z M203.9,44.2l0.1,0.2l0.2-0.1l-0.2-0.1L203.9,44.2z M203.9,43.5l0.3,0l0-0.2l-0.1-0.2
			l-0.2-0.1l-0.1,0.3V43.5z M204.3,21.9l0-0.4l-0.1,0l-0.1,0.2l0.1,0.2L204.3,21.9z M204.7,21.1l-0.1-0.2h-0.2l0.1,0.2L204.7,21.1z
			 M204.4,23.5l0.1,0.2l0.1,0.5l0.2,0.1l-0.1-0.3v-0.4l0.2-0.3l-0.2,0l-0.2,0.1L204.4,23.5z M204.8,22.3l0.2,0.1l0.3-0.2V22
			l-0.4,0.1L204.8,22.3z M205.2,42.9v-0.2l-0.2-0.1l0,0.2L205.2,42.9z M205.1,45.3l0.2,0l0.3-0.2l0.1-0.2h-0.4l-0.1,0.2L205.1,45.3z
			 M205.6,23.5l0.1-0.3l-0.2-0.1l-0.1,0.2L205.6,23.5z M205.7,23.9h0.2v-0.2h-0.2V23.9z M205.8,22.9l0.2,0l0-0.2l-0.2,0L205.8,22.9z
			 M206.3,42.3l0-0.2l-0.1-0.1h-0.2l0.1,0.2L206.3,42.3z M206,21.9l0.3,0.2l-0.1-0.5l-0.2-0.1l-0.1,0.2V21.9z M206,42.7h0.3v-0.2
			l-0.1-0.1l-0.1,0.1L206,42.7z M206.4,24.1h0.4l-0.3-0.3V24L206.4,24.1z M206.4,41.8h0.1v-0.1h-0.1V41.8z M206.9,44.1V44l-0.2,0
			L206.9,44.1z M207,22.6l0.1-0.3h-0.2v0.2L207,22.6z M206.8,43l0.1,0.2l0.2,0.1l0.2-0.5l-0.2,0l-0.1,0.1L206.8,43z M207,42.1h0.4
			v-0.4l-0.2,0l-0.1,0.1L207,42.1z M207.3,21.5l0.1,0.1l0.1-0.1l-0.1,0L207.3,21.5z M207.4,41.4l0.2-0.1l-0.2-0.1V41.4z M207.9,22
			L207.9,22l-0.1-0.2L207.9,22z M207.9,41.5h0.2l0.2,0.1l0.1-0.4l-0.2-0.1l-0.3,0.2L207.9,41.5z M208.2,42.7l0.1-0.1l-0.1-0.2
			l-0.2-0.1l-0.1,0.2l0.1,0.1L208.2,42.7z M208.2,25.2h0.1l-0.1-0.1L208.2,25.2L208.2,25.2z M208.3,24.4l0.1-0.1l0-0.2l-0.2,0.1
			l-0.1,0.1L208.3,24.4z M208.2,44.7l0.1,0.1h0.2v-0.2L208.2,44.7z M208.4,43.9l0.4-0.1l-0.1-0.2h-0.2L208.4,43.9z M208.8,42
			l0.1,0.2h0.4V42l-0.3-0.1L208.8,42z M209.1,25.6l-0.1-0.2l-0.2-0.1l0.1,0.2L209.1,25.6z M208.9,41.1l0.4,0.3l0.1-0.3v-0.2
			l-0.2-0.1l-0.2,0.1l-0.1,0.1L208.9,41.1z M209.3,46.4l0.1-0.3l-0.2-0.1v0.2L209.3,46.4z M209.3,44.4h0.2l0.1-0.1h-0.2L209.3,44.4z
			 M209.5,43.3h0.2l0.1-0.1l0-0.2l-0.2,0l-0.2,0.1L209.5,43.3z M209.7,22.9l0.1-0.1v-0.2h-0.2l-0.1,0.2L209.7,22.9z M209.6,42.1h0.1
			V42h-0.1V42.1z M209.7,24.8l0,0.2l0.1,0.2l0.2,0.1l-0.1-0.5l-0.2,0H209.7z M210.3,24.2v0.1l0.2,0.1l0.1-0.2l-0.1-0.1L210.3,24.2
			L210.3,24.2z M210.3,40.8l0.2,0l0.1-0.1l0-0.3h-0.3V40.8z M210.4,23.3l0.2,0.1l0.1-0.1l-0.1-0.2l-0.2,0L210.4,23.3z M210.8,43.2
			l0.2-0.1l-0.1-0.4l-0.2-0.1l-0.2,0v0.4l0.1,0.2L210.8,43.2z M210.7,22.5l0.3,0l0.1-0.2l-0.1-0.1l-0.2,0.1L210.7,22.5z M210.9,25.6
			l-0.3,0l0.2,0.1L210.9,25.6z M211.1,24.8l0.1-0.2l-0.2-0.1l0,0.2L211.1,24.8z M211.5,39.9l-0.2,0l-0.1,0.1l0.1,0.2l0.2,0.1
			l0.2-0.1l0-0.2L211.5,39.9z M211.3,23.4l0.1-0.1l0-0.1l-0.1-0.1L211.3,23.4z M211.3,23.7v0.1l0.2,0.1l0.1-0.1v-0.1H211.3
			L211.3,23.7z M211.4,22.8l0,0.2h0.1l0.1-0.1v-0.1l-0.1-0.1L211.4,22.8L211.4,22.8z M211.9,38.6h0.2l0.1-0.2l-0.2-0.1L211.9,38.6z
			 M212.2,40.8l0-0.1l-0.2-0.1l0,0.2L212.2,40.8z M212.3,24.1l-0.2,0.1l0.1,0.1L212.3,24.1z M212.6,39.6l-0.5-0.1l0,0.2l0.2,0.1
			l0.2-0.1L212.6,39.6z M212.5,27.5l-0.1-0.2l-0.2,0l0,0.2L212.5,27.5z M212.5,41.9l-0.2,0l0.1,0.1L212.5,41.9z M212.5,26.4l0.2-0.1
			l-0.1-0.2L212.5,26.4z M212.8,39l-0.1-0.2l-0.2,0l0,0.2H212.8z M212.6,25.6h0.2v-0.2h-0.1L212.6,25.6z M213.1,24.8l0-0.2l-0.2-0.2
			l-0.2,0l0.1,0.3L213.1,24.8z M212.7,41.7l0.1,0.2h0.1l0.1-0.2l-0.1-0.1L212.7,41.7L212.7,41.7z M213,36.9l0.1,0.3l0.2-0.1l0.1-0.2
			l-0.2,0L213,36.9z M213.1,23.5l0,0.2l0.2,0l0.1-0.1l-0.1-0.1l-0.2,0L213.1,23.5z M213.1,39l0.2,0.4l0.2,0.1l0.1-0.1l0-0.4
			l-0.4,0.1L213.1,39z M213.6,26.2l0.1-0.1v-0.2l-0.5-0.1l0.2,0.4L213.6,26.2z M213.2,26.9l0.2,0.1l0.1,0l-0.1-0.2L213.2,26.9z
			 M213.4,24.5l0.3,0.5l0,0.2l0.2-0.1v-0.5l-0.3-0.2L213.4,24.5z M213.5,35.4h0.1l0.1-0.1l-0.2-0.1V35.4z M214,30.6l0-0.2l-0.2-0.1
			l0,0.2L214,30.6z M213.8,22.5h0.2l0.1-0.1l-0.2-0.1V22.5z M213.9,26.8l0,0.2l0.3,0.2l0.1-0.2l-0.1-0.2l-0.1-0.1L213.9,26.8z
			 M213.9,36.5l0.1,0.1v0.2l0.4-0.2l0.1-0.2l-0.1-0.2H214L213.9,36.5z M214.3,26.6h0.2l0.1-0.2h-0.2V26.6z M214.3,29.5h0.2l-0.1-0.2
			l-0.1-0.1V29.5z M214.4,35.9l0-0.2l-0.2-0.1l0,0.2L214.4,35.9z M214.6,25.7v-0.2l-0.3-0.1l0,0.2l0.1,0.1L214.6,25.7z M214.6,39
			h0.1v-0.1h-0.1V39z M214.7,27.9h0.2l0.1-0.1l-0.3,0V27.9z M214.9,29.8l0.1,0.3l0.2-0.1l0.1-0.1l-0.2-0.1L214.9,29.8z M215.1,26.3
			h0.3l-0.1-0.2h-0.1L215.1,26.3z M215.2,36.3l0.2-0.1l0.1-0.2l0-0.2l-0.2,0.1l-0.1,0.2L215.2,36.3z M215.3,29.3l0.2,0.1l0.1-0.2
			v-0.2l-0.1-0.2l-0.2-0.1l0.1,0.4V29.3z M215.8,38.7l0-0.2l-0.2-0.3l-0.1,0.2v0.2l0.1,0.1L215.8,38.7z M215.5,34.4l0.2,0.1l0.2-0.1
			l-0.2-0.1L215.5,34.4z M215.6,28.4l0.2,0l0.1-0.2l-0.2,0L215.6,28.4z M215.7,27.4l0.2-0.1l-0.1-0.1l-0.2-0.1l-0.1,0.2L215.7,27.4z
			 M215.9,25.2l-0.1-0.1l-0.2,0l0.1,0.1L215.9,25.2z M216,23.7l-0.2-0.1l-0.1-0.1l0.2,0L216,23.7z M216.1,37.7l-0.1-0.2h-0.2
			l0.1,0.2L216.1,37.7z M215.9,33.4l0.2,0.1l0.1-0.3l-0.2-0.1V33.4z M216,36.8h0.1v-0.1H216V36.8z M216.3,36.1l0.2-0.1l0.1-0.2v-0.3
			l-0.5-0.2l-0.1,0.2l0.2,0.3L216.3,36.1z M216.3,28.9l0.2-0.1l-0.1-0.2L216.3,28.9z M216.7,38.1l0-0.2l-0.2-0.1l-0.1,0.2l0.1,0.1
			H216.7z M216.8,30.9h0.1l-0.1-0.1L216.8,30.9L216.8,30.9z M217.1,29.1l0.1,0.2l0.1-0.2H217.1z M217.3,35.3l0.3,0.1l-0.1-0.4
			l-0.2-0.1l-0.1,0.2L217.3,35.3z M217.6,30.6l0.2-0.1l0.1-0.2l-0.2-0.1l-0.1,0.2V30.6z M217.8,32.6h0.1l0.1-0.1l-0.2-0.1V32.6z"/>
		<path class="st1" d="M241.6,19.4l0.1,0.2l0.3,0l0.5,0.3l0.4,0.1l0.2,0l0.6,0.5l0.6,0.2l0.3,0.3l1,0.7l0.5,0.6l0.2,0.1l0.2,0.4
			l0,0.2l-0.1,0.1l0.6,0.5l0.3,0.3l0.1,0.4l0.3,0.4l-0.1,0.4l0.4,0.5l0.1,0.9l0,0.4l-0.1,0.1l-0.2,0.1l0.1,0.3l-0.2,0.1l-0.3,0.3
			l-1.2,0.1h-0.7l-0.1-0.3l-0.3,0.2l-0.5,0.1l-0.4-0.1l-0.4,0.2l-1.3-0.1l-0.8-0.2l-0.3-0.1l0-0.3l-0.6-0.5l-0.1-0.4l-0.7-0.6
			l-0.3-0.3l-1.2-0.3l-0.5-0.3h-0.9l-0.9,0.1l-0.8,0.2l-0.3,0.1l-0.6,0.5l-0.5,0.7l0.1,0.4l-0.1,0.2l0.5,0.6l0.3,0.2l0.4,0.2
			l0.3,0.3l0.2,0l0.6,0.2l0.3,0.2l0.5,0l0.6,0.2h0.2l0.3,0.2l1.2,0.4l0.3,0.2l0.4,0.1l1.5,0.6l0.2,0l0.4,0.4l0.4,0.1l0.7,0.4
			l0.3,0.4l0.5,0l0.4,0.2l0.7,0.8l0.2,0.1l0.7,0.5l0.2,0.1l0.1,0.4l0.7,0.7l0.2,0.3l0.1,0.4v0.3l0.5,0.5l0.1,0.4l0.2,0.3l0,0.4
			l0.2,0.3l-0.2,0.8l0.1,0.1l0.1,0.1l-0.1,0.4l0,0.5l-0.1,0.4l-0.1,0.2l0.1,0.1v0.6l-0.3,0.3v0.3l-0.3,0.8l-0.1,0.2l-0.2,0.1v0.4
			l-0.2,0.3l-0.3-0.1l-0.1,0.2l-0.2,0.1l0.1,0.1l0.2,0.1l-0.8,0.7l-0.1,0.2l-0.2,0.1l-0.3,0.2l-0.2,0.1l-0.6,0.5l-0.5,0l-0.2,0.3
			l-0.2,0l-0.5,0.3H243l-0.2,0.1l-0.4,0.1l-0.2,0.2l-0.5,0l-0.7,0.3l-0.2,0l-0.6,0.1l-0.2-0.2l-0.1,0.1l-0.8,0.3l-0.8-0.1l-1,0.1
			l-0.1-0.1v-0.2l-0.4,0.1h-0.2l-0.4-0.1l-0.1,0.3l-0.8-0.3l-0.2-0.3l-0.1,0.4l-0.1-0.1l-0.4-0.1h-0.7l0.2-0.1l-0.1-0.2h-0.2
			l-0.1,0.1h-0.2l-0.3-0.2l-1.2-0.2l-0.6-0.2l0.1-0.3l-0.3,0.2l-0.2,0l0-0.2l0.1-0.1l-0.1-0.2l-0.7,0l-0.3-0.2l-0.2-0.1h-0.2
			l-0.2-0.3l-0.4-0.3l-0.2,0l-0.2-0.5l-0.3-0.1l-1-1.4l-0.4-0.8l-0.4-1.7v-0.7l0.5-0.7l0.2-0.1l0.4,0.1l0.9-0.1h4.1l0.7,0.5l1.4,1.5
			l0.5,0.4l0.2-0.1l0.9,0.1l0.4,0.2l0.6,0.1l0.2-0.1l0.2,0l0.1,0.1l0.4-0.1l0.4,0.1l0,0.2l0.1,0.1l0.1-0.1v-0.2l0.1,0.2l0.3-0.2
			l0.1-0.2h0.3l0.5-0.2l0.3,0l0.3-0.3l0.2-0.4l0.3-1l-0.1-0.2l-0.1-0.1l-0.2,0l-0.1-0.5l-0.5-0.1l-0.5-0.3l-0.3-0.1l-0.2,0l-0.2-0.3
			h-0.5l-0.4-0.1l-0.3-0.2l-0.1-0.2l-0.4,0.1l-0.2-0.1l-0.3-0.2l-0.4,0l-1.1-0.4l-0.7-0.2l-0.6-0.3h-0.4l-0.5-0.4l-0.4-0.1l-0.6-0.5
			l-0.4-0.1h-0.3l-0.6-0.5l-0.9-0.5v-0.2l-0.2-0.2l-0.4,0l-0.2-0.4l-0.6-0.5l0-0.4l-0.3-0.1l0.1-0.3l-0.4-0.1l-0.3-0.5l0-0.4
			l-0.4-0.7l-0.1-0.4v-0.3l0.3-0.1l-0.3-0.9l0-0.4l0.1-0.2l-0.2-0.3l0-0.5l0.1-0.5l0.2-0.3l0-0.5l0.1-0.4l0.2-0.3L227,24l0.2,0
			l0.1-0.1l0.3-0.8h0.2l0.1-0.1l0.2-0.4l0.3-0.3l0.2,0l0-0.4l0.1-0.1l0.5,0.1l0.2,0l-0.2-0.4l0.5-0.4l0.2-0.1l0.1,0.1v0.2l0.2-0.1
			v-0.5h0.5l0.1-0.1l0-0.2l0.2,0l0.5-0.3h0.5l0.5-0.6l0.8,0.3l-0.1-0.1v-0.2l0.2-0.1l0.7,0l0.1-0.1l0.4,0.2l0.1-0.2l0.2,0.3l0.2-0.1
			V19l0.1-0.1l0.5-0.1l0.3,0.1l0,0.2L236,19h0.7l-0.1,0.4l0.2-0.1l0.1-0.1V19l-0.2-0.1l0.4-0.2h0.2l0.6,0.2l0.5-0.1l2,0.3l0.4,0
			l0.2,0.1l0.3,0.2l0.2,0L241.6,19.4z M227.9,25.8l0.3-0.1H228L227.9,25.8z M228.3,29.1l0.2,0l0-0.2l-0.2,0.1L228.3,29.1z
			 M228.9,27.4l-0.1-0.1l-0.1-0.1l0,0.2L228.9,27.4z M228.9,25.6l0.4,0.1l0.2-0.1l-0.2-0.3l-0.3-0.2l-0.1,0.1v0.1L228.9,25.6z
			 M228.9,26.3l0.2-0.1l-0.1-0.1L228.9,26.3z M229.2,26.8l-0.1-0.1l-0.2,0l0,0.2H229.2z M229.8,29.9l0,0.2l0.1,0.2l0.2-0.1l0-0.1
			l-0.4-0.2l-0.2,0l-0.1,0.1l0.2,0.1l0.1,0L229.8,29.9z M229.3,24.7v0.1l0.2,0.1l0.1-0.1v-0.1H229.3L229.3,24.7z M229.5,24.2
			l0.3-0.1l0-0.2l-0.2,0.1L229.5,24.2z M229.5,28h0.3l-0.1-0.2l-0.2-0.1V28z M229.5,29l0.1-0.4l-0.2,0.1l0,0.2L229.5,29z M229.9,23
			l0.1-0.2l-0.1-0.1l-0.1,0.2L229.9,23z M229.9,31.2l0-0.1l-0.1-0.1v0.2L229.9,31.2z M229.9,23.8l0.1-0.2l-0.1-0.1l0,0.2L229.9,23.8
			z M230.1,25l0.1,0.2l0.2,0.1l0.2,0l-0.1-0.2l-0.2-0.1L230.1,25z M230.1,25.8l0.1,0.2l0.2,0.1l0.1-0.3l-0.2-0.1L230.1,25.8z
			 M230.3,28.6l0.3,0.1l0.1-0.5l-0.2-0.1l-0.2,0.2V28.6z M230.3,29.5l0.1-0.1l-0.1-0.1V29.5z M230.4,27.2v0.2l0.1,0.2l0.2,0.1
			l0.2-0.1l-0.1-0.4h-0.2L230.4,27.2z M230.6,24.5l0.2,0.1l0.1-0.3l-0.2,0L230.6,24.5z M230.7,23.7l0.1,0.1l0.2,0l0.1-0.1v-0.3
			l-0.1-0.2l-0.3,0.1l-0.1,0.2L230.7,23.7z M230.8,29.8l0.4,0.1l0-0.2l-0.1-0.2l-0.2-0.1l-0.1,0.2L230.8,29.8z M231,30.8l0-0.3
			l-0.1-0.1l-0.1,0.2v0.2L231,30.8z M230.8,22.5l0.2,0.1v-0.2l-0.1-0.1L230.8,22.5z M231.1,43.2h0.1l-0.1-0.1L231.1,43.2L231.1,43.2
			z M231.4,45.5l-0.2-0.1l0.1,0.1L231.4,45.5z M231.5,24.8l0-0.2l-0.2-0.1l0,0.2L231.5,24.8z M231.4,29.2l0-0.2l-0.2-0.1v0.2
			L231.4,29.2z M231.5,25.6v-0.2l-0.2,0v0.2L231.5,25.6z M231.5,42.3h0.1l-0.1-0.1L231.5,42.3L231.5,42.3z M231.7,27.1l0.1-0.3
			l-0.3,0l-0.1,0.1l0.1,0.2L231.7,27.1z M231.5,28.2l0.2,0.1l0.1-0.4l-0.3-0.1l-0.1,0.2L231.5,28.2z M231.5,34.3h0.2l-0.2-0.1V34.3z
			 M231.9,24.1l0-0.2l-0.2-0.1l0.1,0.2L231.9,24.1z M231.7,23.1l0.3,0.1l0.2,0l-0.1-0.2h-0.3L231.7,23.1z M231.8,30.4l0.2,0.1
			l0.1-0.1l-0.2-0.2L231.8,30.4z M231.9,32.7l0.2,0.1l0.4-0.1v-0.2l-0.2-0.1l-0.3,0.2L231.9,32.7z M232.1,29.5l0-0.2l-0.2-0.1
			l0.1,0.2L232.1,29.5z M232.2,31.7l0.1-0.4h-0.2l0,0.3L232.2,31.7z M232.2,25.3l0.3,0.1l0.1-0.3l-0.2,0L232.2,25.3z M232.5,24.2
			l0.1-0.1l0-0.2l-0.2-0.1l0,0.3L232.5,24.2z M232.7,27.2l-0.2,0.1l-0.1,0.2l0.1,0.1l0.2,0l0-0.2L232.7,27.2z M232.8,43.2l-0.1-0.2
			l-0.1,0.2L232.8,43.2z M233.1,26.7l-0.1-0.2l-0.3,0v0.2l0.2,0H233.1z M233.1,44.1l-0.1-0.2l-0.2-0.1l0.1,0.2L233.1,44.1z
			 M233.2,29.1l0.1-0.2l0-0.2l-0.1-0.1l-0.1,0.3L233,29L233.2,29.1z M233.1,30.1l0-0.2l-0.2-0.1V30L233.1,30.1z M233.2,21.4v-0.2
			l-0.2,0.1L233.2,21.4z M233.1,32.2l0.4,0.1l-0.1-0.4l-0.1-0.2l-0.1,0.2L233.1,32.2z M233.5,24.7l0.1-0.2h-0.2l0,0.2L233.5,24.7z
			 M233.3,31.1l0.1,0.2l0.1-0.2H233.3z M233.5,23.7h0.1v-0.1h-0.1V23.7z M233.8,33.6v-0.4l-0.2-0.1l0.1,0.4L233.8,33.6z M233.8,29.6
			l0.2,0v-0.2l-0.1-0.1L233.8,29.6z M233.9,22.1h0.2v-0.3l-0.2,0.1V22.1z M234.1,31.7l0.1,0.3l0.4-0.2l0.1-0.2l-0.2-0.1l-0.2,0.1
			L234.1,31.7z M234.3,23l0.2,0.3l0.2,0l0-0.3l-0.1-0.1L234.3,23z M234.7,32.7l0.2,0.5l0.2,0l-0.3-0.5L234.7,32.7z M234.9,21.7
			l0.2,0l0.1-0.1l0.1,0.2l-0.1-0.2l-0.2-0.1l-0.1,0.2L234.9,21.7z M235.1,31.3l0.2,0.1l0.5,0v-0.2l-0.2-0.1l-0.3,0.1L235.1,31.3z
			 M235.3,24h0.1v-0.1h-0.1V24z M235.6,30.5l-0.1-0.4h-0.2l0.1,0.2L235.6,30.5z M235.4,23l0.3,0v-0.2l-0.1-0.1l-0.2,0.1L235.4,23z
			 M235.4,34.5v0.1l0.1-0.1L235.4,34.5L235.4,34.5z M235.8,22.2l0.3,0.1v-0.2h-0.2L235.8,22.2z M235.8,32.5l0,0.2l0.1,0.1l0.2,0
			l0-0.2l-0.1-0.1L235.8,32.5z M236,33.8l0-0.2l-0.2-0.3l-0.1,0.2l0.1,0.2L236,33.8z M235.8,42.8L236,43l0.1-0.1l0-0.2L235.8,42.8z
			 M236.1,42.3l0-0.2L236,42v0.2L236.1,42.3z M236.1,21.1h0.1V21h-0.1V21.1z M236.3,30.9h0.2v-0.2l-0.2-0.1l-0.1,0.1V30.9z
			 M236.4,23.6l0.2,0l0-0.2l-0.2-0.1l-0.1,0.1V23.6z M236.9,22.4l0-0.2l-0.3-0.2l0.2,0.3L236.9,22.4z M236.9,41.5l-0.1-0.3l-0.1-0.1
			l-0.1,0.2l0.1,0.2L236.9,41.5z M237.2,32.4L237,32l-0.2-0.1v0.2l0.2,0.1L237.2,32.4z M237.2,20.8l0.1-0.1l0-0.3l-0.3,0.2
			L237.2,20.8z M237.3,31.8h0.1v-0.1h-0.1V31.8z M237.7,22.2l0.2-0.1l0-0.2l-0.1-0.1l-0.1,0.2L237.7,22.2z M237.6,32.8l0.3,0.1
			l0.2-0.1v-0.3l-0.2,0l-0.3,0.1L237.6,32.8z M237.7,43.2h0.1v-0.1h-0.1V43.2z M237.9,24.1L238,24l-0.1-0.2L237.9,24.1z M238.1,31.8
			l0.1-0.2h-0.2v0.2L238.1,31.8z M238.2,35l0.1-0.3l-0.1-0.1l-0.1,0.3L238.2,35z M238.6,34.2l-0.1-0.4l0-0.2l-0.2,0.1l-0.1,0.2
			l0.1,0.2l0.2,0.2L238.6,34.2z M238.5,44.6l-0.1-0.2l-0.1-0.1l0,0.2L238.5,44.6z M238.3,43.8l0.2,0.1l0-0.5l-0.1-0.2l-0.1,0.1
			l0,0.2V43.8z M238.4,22.5l0.2,0.1h0.3v-0.2h-0.4L238.4,22.5z M238.7,45.7h0.1l0.1-0.2h-0.1L238.7,45.7z M238.9,32.4L238.9,32.4
			l-0.1-0.2L238.9,32.4z M239.1,34.6h0.2l0.1-0.2h-0.3V34.6z M239.4,33.7l0-0.2l-0.1-0.1l-0.1,0.2L239.4,33.7z M239.5,22.2h0.3
			l0.1-0.2l-0.1-0.2l-0.1,0.2L239.5,22.2z M239.5,45.3l0.3,0.1l0.1-0.1l0-0.2l-0.4,0L239.5,45.3z M239.5,21h0.2v-0.2h-0.1L239.5,21z
			 M239.7,32h0.1v-0.1h-0.1V32z M239.9,23.1l0.2,0.4l0.1,0.1l0.1-0.2l-0.1-0.2l-0.2-0.2L239.9,23.1z M240,24.4h0.1l0.1-0.2H240V24.4
			z M240.5,33.2l0.1-0.2l0-0.2l-0.1-0.1h-0.2l-0.1,0.2l0,0.2l0.1,0.1L240.5,33.2z M240.1,34.2l0.2,0l0.1-0.2l-0.1-0.1l-0.1,0.1
			L240.1,34.2z M240.4,43.6l-0.2,0.1l0.1,0.1L240.4,43.6z M240.4,42.4h0.2v-0.2h-0.1L240.4,42.4z M240.4,36.2l0.2,0.1v-0.2h-0.1
			L240.4,36.2z M241,23h0.1v-0.1H241V23z M241.2,32.4l0.1,0.2l0.2,0l0.1-0.3h-0.2L241.2,32.4z M241.4,33.8v-0.2l-0.1-0.1l0,0.2
			L241.4,33.8z M241.3,42l0.3,0.1l0.1-0.1l-0.2-0.1h-0.2L241.3,42z M241.6,30.9l-0.2,0l0.1,0.1L241.6,30.9z M241.6,25.3l0.1-0.2
			h-0.1l0,0.1L241.6,25.3z M241.9,38.2l-0.3-0.2l0,0.2l0.1,0.1L241.9,38.2z M241.6,37l0.1,0.2l0.2,0.1h0.2l0.1-0.1l-0.1-0.2
			l-0.2-0.1L241.6,37z M241.7,23.4l0.1,0.2l0.2,0.1v-0.2l-0.1-0.1L241.7,23.4z M242,39.3l0.2,0.3l0.2,0.1l0.1-0.2l-0.1-0.2l-0.1-0.1
			l-0.2,0L242,39.3z M242.1,40.6l0.1-0.1l-0.1-0.1V40.6z M242.3,24.6h0.2v-0.2h-0.1L242.3,24.6z M242.7,38.8v-0.2l-0.3,0.1
			L242.7,38.8z M242.5,41.8l0.2,0l0.1-0.2l0-0.2l-0.2,0l-0.1,0.2L242.5,41.8z M242.7,36.5l0.3,0.3l0.2,0.1l0.1-0.2l-0.1-0.2
			l-0.3-0.1L242.7,36.5z M243.1,37.7l-0.1-0.2l-0.2,0l0.1,0.2L243.1,37.7z M243.3,23.3l0-0.2l-0.1-0.1h-0.2l0,0.2l0.2,0.1
			L243.3,23.3z M243,35.5l0.2-0.1l-0.2-0.1V35.5z M243,40.1h0.2l0.1-0.2l-0.2-0.1L243,40.1z M243.4,39.2l0.1-0.1l0.1-0.2l-0.1-0.2
			l-0.2-0.1l-0.2,0.4l0,0.2L243.4,39.2z M243.2,43.2h0.1v-0.1h-0.1V43.2z M243.5,42.3l0.1-0.2l-0.3-0.1l0,0.2L243.5,42.3z M243.5,38
			l0.1,0.2l0.1-0.2H243.5z M244,41.1h-0.2l0,0.2l0.2,0L244,41.1z M243.9,37.3l0.2-0.3l-0.1-0.1l-0.2,0.3L243.9,37.3z M244,36.4
			l0.2,0.1l0.1-0.1l-0.2,0L244,36.4z M244.3,37.3h0.2l-0.2-0.1V37.3z M244.5,38.4l-0.1,0.1L244.5,38.4l0.1-0.2h-0.2L244.5,38.4z
			 M244.5,41.1h0.2l0.2-0.2v-0.2l-0.2-0.1l-0.2,0.3L244.5,41.1z M244.6,39.7l0.1,0.1l0.1-0.1l-0.1,0L244.6,39.7z M245.2,35.9l0-0.2
			l-0.1-0.2l-0.2-0.1l-0.1,0.2l0.1,0.3H245.2z M245.1,36.9l0.1-0.2H245l-0.1,0.1L245.1,36.9z M245.5,39.2l-0.1-0.1l-0.2,0l0.1,0.1
			L245.5,39.2z M245.3,42.5l0.1-0.3l-0.1-0.1l-0.1,0.3L245.3,42.5z M245.5,38.1l-0.1-0.2l-0.1-0.1l0,0.4H245.5z M246,40.4l0-0.2
			l-0.1-0.1l-0.2,0l0,0.2l0.1,0.1L246,40.4z M245.7,36.3l0.1,0.2h0.1l0.1-0.2H245.7L245.7,36.3z M246.6,39.8l0.4,0.1l-0.1-0.2
			l-0.2,0L246.6,39.8z"/>
	</g>
</g>
</svg>
