<?xml version="1.0" encoding="utf-8"?>
<!-- Generator: Adobe Illustrator 16.0.0, SVG Export Plug-In . SVG Version: 6.00 Build 0)  -->
<!DOCTYPE svg PUBLIC "-//W3C//DTD SVG 1.1//EN" "http://www.w3.org/Graphics/SVG/1.1/DTD/svg11.dtd" [
	<!ENTITY ns_flows "http://ns.adobe.com/Flows/1.0/">
	<!ENTITY ns_extend "http://ns.adobe.com/Extensibility/1.0/">
	<!ENTITY ns_ai "http://ns.adobe.com/AdobeIllustrator/10.0/">
	<!ENTITY ns_graphs "http://ns.adobe.com/Graphs/1.0/">
]>
<svg version="1.1" id="Capa_1" xmlns:x="&ns_extend;" xmlns:i="&ns_ai;" xmlns:graph="&ns_graphs;"
	 xmlns="http://www.w3.org/2000/svg" xmlns:xlink="http://www.w3.org/1999/xlink" xmlns:a="http://ns.adobe.com/AdobeSVGViewerExtensions/3.0/"
	 x="0px" y="0px" width="42.52px" height="42.52px" viewBox="0 0 42.52 42.52" enable-background="new 0 0 42.52 42.52"
	 xml:space="preserve">
<path fill="#3C352B" d="M28.837,12.099V7.821c0-0.317-0.255-0.572-0.57-0.573l-3.635-0.005c-4.084,0-6.724,2.708-6.724,6.897v3.183
	h-3.656c-0.314,0-0.57,0.255-0.57,0.569v4.61c0,0.316,0.256,0.572,0.57,0.572h0.474l-0.037-0.051h0.207l0.013,0.051h3v11.629
	c0,0.314,0.256,0.572,0.571,0.572h0.688V35.01l0.042-0.25l0.083,0.25l-0.076,0.266h1.886l-0.026-0.059l-0.042-0.291h0.249
	l0.083,0.207l-0.021,0.143h1.904c0.315,0,0.572-0.258,0.572-0.572V23.075h3.325l0.026-0.092l0.017,0.092h0.905
	c0.316,0,0.571-0.256,0.571-0.572l0.002-4.61c0-0.149-0.062-0.295-0.168-0.403c-0.107-0.107-0.252-0.166-0.404-0.166h-2.939
	l-0.058,0.144l-0.036-0.144h-1.241v-2.697c0-1.296,0.309-1.954,1.996-1.954l2.449-0.002C28.583,12.67,28.837,12.414,28.837,12.099
	 M14.896,17.674l0.124,0.166l-0.041,0.207l-0.124-0.166L14.896,17.674z M14.979,22.733l-0.166-0.207l0.083-0.248l0.083,0.166V22.733
	z M15.145,21.987l-0.166-0.125v0.332h-0.166l-0.083-0.373l0.166-0.456l0.083-0.249l0.166,0.124V21.987z M15.228,18.918l-0.125-0.249
	l0.042-0.29l0.166,0.249L15.228,18.918z M17.135,18.586l0.166-0.539l0.042-0.207l0.166,0.124l0.082,0.498l-0.124,0.166l-0.124,0.912
	l-0.249-0.373L17.135,18.586z M17.301,20.121l0.29,0.165l-0.082,0.539l-0.208-0.414V20.121z M17.343,21.655v-0.373h0.248
	l0.083,0.373H17.343z M19.209,10.499V10.25l0.166,0.083l0.083,0.249l-0.125,0.207l-0.166-0.083L19.209,10.499z M19.209,12.78
	l0.166,0.165l-0.042,0.208l-0.207-0.125L19.209,12.78z M19.167,14.314l0.042-0.25l0.166,0.25l-0.083,0.289l-0.166-0.082
	L19.167,14.314z M19.25,17.549l0.042-0.248l0.124,0.373l0.042,0.456l-0.125,0.539l-0.166-0.083l-0.041-0.456L19.25,17.549z
	 M19.292,20.743v-0.208l0.124,0.125l-0.083,0.539l-0.083-0.166l-0.041,0.166l-0.083-0.456H19.292z M19.292,21.739l-0.083,0.289
	l-0.166-0.207L19.292,21.739z M19.292,25.346l-0.166-0.248l-0.042-0.289l0.125-0.168l0.124,0.207L19.292,25.346z M19.333,30.821
	v0.207l-0.207,0.041l0.041-0.166l0.042-0.207L19.333,30.821z M19.167,33.473H18.96l0.249-0.412l0.083,0.537L19.167,33.473z
	 M19.5,32.852l-0.166-0.248l0.166-0.125V32.852z M19.209,23.438l0.083-0.166l0.207-0.166L19.209,23.438z M19.333,13.691
	l-0.041-0.206l0.041-0.249l0.125,0.207l0.041,0.332L19.333,13.691z M27.089,18.835l-0.125-0.207l0.042-0.249l0.166,0.207
	L27.089,18.835z M27.172,17.674v0.249l-0.083,0.124l-0.208-0.166l-0.041-0.332L27.172,17.674z M23.191,20.577v-0.125l0.124,0.208
	L23.191,20.577z M23.315,22.36v0.207l-0.207,0.084v-0.373L23.315,22.36z M23.232,13.941l-0.083-0.25l0.042-0.497v-0.249l0.249,0.664
	l-0.042,0.455L23.232,13.941z M23.398,16.098l-0.207,0.124v-0.29L23.398,16.098z M23.108,11.95v-0.332l0.166,0.125l0.041,0.207
	H23.108z M23.108,8.508l0.166,0.125l-0.083,0.249l-0.165-0.125L23.108,8.508z M23.108,25.512l0.124,0.125l0.042,0.332l-0.208-0.166
	L23.108,25.512z M21.117,22.817l0.083-0.25v-0.539l0.083-0.289l0.125,0.166v0.912l-0.083,0.207L21.117,22.817z M21.2,23.729h-0.166
	v-0.291H21.2V23.729z M21.49,29.618l-0.124-0.125l0.042-0.164L21.49,29.618z M21.449,19.374l-0.124,0.207l-0.166-0.165l0.124-0.83
	L21.2,18.669l-0.166-2.364v-0.248l0.208,0.124l0.124,0.207l-0.083,1.535l0.207,0.995L21.449,19.374z M21.2,12.075l-0.124-0.166
	V11.66l0.041-0.332l0.125,0.208L21.2,12.075z M21.408,15.02l-0.083,0.289L21.2,15.186v-0.25L21.408,15.02z M21.325,14.438v-0.289
	l0.124,0.123l0.041,0.25L21.325,14.438z M21.283,13.775l0.042-0.25l0.124,0.125l0.041,0.207L21.283,13.775z M21.366,10.001
	l-0.041,0.498l-0.249-0.373l0.083-0.747l0.041-0.29l0.373,0.456L21.366,10.001z M21.117,8.384l0.208-0.207v0.414l-0.166,0.125
	l-0.208-0.083L21.117,8.384z M20.91,11.162l0.207-0.622l0.083,0.208v0.497L20.91,11.162z M21.2,27.627l-0.083-0.166l-0.083-0.207
	l0.166-0.25l0.166,0.209L21.2,27.627z M21.325,30.987l-0.042-0.291h0.207v0.291H21.325z M21.49,34.471l-0.082-0.332l0.124,0.166
	L21.49,34.471z M21.781,12.24l-0.208,0.083v-0.29l0.083-0.166l0.125,0.125V12.24z M23.274,35.217h-0.166v-0.166h0.166V35.217z
	 M23.274,33.143h-0.166v-0.207h0.207L23.274,33.143z M23.191,32.313v-0.33l0.124,0.33H23.191z M23.315,29.577l-0.207,0.125
	l-0.082-0.291l0.082-0.248l0.207,0.123V29.577z M23.274,27.047l-0.083,0.207l-0.125-0.207v-0.25l0.042-0.289h0.207L23.274,27.047z
	 M23.44,25.014l-0.332,0.416v-0.291l0.207-0.373l0.083-0.207l0.083,0.166L23.44,25.014z M23.108,23.811l0.083-0.166l0.124-0.123
	l0.166,0.207L23.108,23.811z M23.274,17.135v-0.29h0.29L23.274,17.135z M23.896,21.24l-0.042,0.415l-0.207-0.082v-0.208l0.083-0.249
	L23.896,21.24z M24.974,8.633l-0.042-0.208l0.166,0.125L24.974,8.633z M26.923,11.162l0.083-0.29l0.083,0.166L26.923,11.162z"/>
<g>
</g>
<g>
</g>
<g>
</g>
<g>
</g>
<g>
</g>
<g>
</g>
</svg>
