<?xml version="1.0" encoding="utf-8"?>
<!-- Generator: Adobe Illustrator 16.0.0, SVG Export Plug-In . SVG Version: 6.00 Build 0)  -->
<!DOCTYPE svg PUBLIC "-//W3C//DTD SVG 1.1//EN" "http://www.w3.org/Graphics/SVG/1.1/DTD/svg11.dtd" [
	<!ENTITY ns_flows "http://ns.adobe.com/Flows/1.0/">
	<!ENTITY ns_extend "http://ns.adobe.com/Extensibility/1.0/">
	<!ENTITY ns_ai "http://ns.adobe.com/AdobeIllustrator/10.0/">
	<!ENTITY ns_graphs "http://ns.adobe.com/Graphs/1.0/">
]>
<svg version="1.1" id="Capa_1" xmlns:x="&ns_extend;" xmlns:i="&ns_ai;" xmlns:graph="&ns_graphs;"
	 xmlns="http://www.w3.org/2000/svg" xmlns:xlink="http://www.w3.org/1999/xlink" xmlns:a="http://ns.adobe.com/AdobeSVGViewerExtensions/3.0/"
	 x="0px" y="0px" width="42.52px" height="42.52px" viewBox="0 0 42.52 42.52" enable-background="new 0 0 42.52 42.52"
	 xml:space="preserve">
<path fill-rule="evenodd" clip-rule="evenodd" fill="#3C352B" d="M35.395,33.008v-0.166l-0.041-0.234l0.09,0.023v-0.975l-0.09,0.049
	l-0.082-0.168l0.041-0.199l0.123-0.135l0.008,0.008v-0.93l-0.074-0.148l0.074-0.184v-3.016l-0.156-0.117v-0.209l0.006-0.014
	l-0.064-0.035v-0.166l0.082,0.154l0.059-0.146l0.074,0.074v-3.15l-0.198-0.158l0.042-0.207l0.156-0.053v-0.66h-0.008l-0.164-0.4
	v-0.268h0.172v-2.72l-0.032-0.006l-0.042-0.208v-0.207h0.074v-0.456h-0.156v-0.166h0.156v-0.539l-0.09,0.091l-0.125-0.1v-0.369
	l0.061,0.006l-0.002-0.001l0.082-0.498l0.074,0.165v-2.356l-0.008,0.013l-0.123-0.134l0.041-0.234l-0.082-0.234l0.164,0.066
	l0.008,0.034v-0.827l-0.215,0.025l0.125-0.234l0.09-0.09v-0.785l-0.09,0.073l0.041-0.167l-0.166-0.334l0.043-0.234l0.13,0.105
	c-0.208-1.918-1.739-3.209-3.604-3.209h-2.113L29.568,8.33l0.08,0.237l-0.042,0.291l-0.29,0.083l0.207-0.374l0.035-0.214
	l-0.011,0.025l-0.068-0.33h-3.691l0.21,0.561l-0.042,0.456L25.79,8.941l-0.083-0.249l0.042-0.498V8.049h-3.836l-0.021,0.104
	l-0.172-0.104l-0.052,0.063l-0.097-0.063h-5.7l0.198,0.764l-0.041,0.368l-0.124,0.167l-0.166-0.133l0.124-0.67l-0.083,0.067
	l-0.05-0.563h-0.223L15.462,8.07V8.049h-1.439l0.014,0.13l-0.125,0.434l-0.166-0.067l-0.041-0.366l0.035-0.13h-1.651l0.081,0.396
	l-0.124,0.134l-0.124,0.735l-0.249-0.301l0.034-0.391l-0.059-0.18l0.166-0.207l0.013,0.014l0.053-0.139l0.016-0.063h-1.209
	c-2.005,0-3.646,1.483-3.646,3.645v21.112c0,2.162,1.641,3.646,3.646,3.646h1.096l-0.068-0.303l0.125-0.434l0.083-0.135l0.124,0.066
	l-0.124,0.135l0.166,0.133l-0.083,0.234l-0.125-0.066l0.029,0.369h3.886l0.026-0.035l0.248,0.033v0.002h7.753l0.019-0.096
	l0.048,0.096h7.619l-0.036-0.18l0.249,0.125l-0.019,0.055h0.096c1.929,0,3.505-1.381,3.623-3.408L35.395,33.008z M33.628,11.596
	h0.166v0.166h-0.166V11.596z M33.405,27.36l-0.041-0.166l0.166,0.234L33.405,27.36z M33.447,29.467l-0.083,0.434l-0.166-0.133
	l-0.041-0.234L33.447,29.467z M33.447,25.522l0.166-0.066l0.083,0.135v0.232l-0.166-0.1L33.447,25.522z M33.447,22.883l-0.207-0.135
	l0.207-0.066V22.883z M33.364,20.576l0.083-0.201l0.249-0.1l-0.125,0.201L33.364,20.576z M33.545,20.181l-0.166-0.456l0.041-0.291
	l0.004-0.026h-0.144v-0.168l0.166,0.034l0.001,0.001l0.015-0.09l0.166,0.166v0.291l0.083-0.125l0.166,0.373l-0.083,0.208
	L33.545,20.181z M33.503,16.779l-0.041-0.829l-0.083-0.207l0.29,0.373l0.125,0.995l-0.166,1.783l-0.125-0.083l-0.124-0.788
	l0.124-0.58l0.125-0.166L33.503,16.779z M33.364,12.121l-0.083-0.1l0.124-0.034L33.364,12.121z M33.545,13.918L33.711,14v0.29
	l-0.208-0.124L33.545,13.918z M33.488,11.42l-0.124,0.233l-0.166-0.133v-0.668l0.042-0.201l0.207,0.4L33.488,11.42z M31.455,8.312
	L31.6,8.429l0.037-0.109l0.166,0.166l-0.046,0.113l0.071,0.314l-0.291-0.2l-0.083-0.2V8.312z M31.845,11.057l-0.166-0.083
	l-0.042-0.291l0.166,0.125L31.845,11.057z M29.606,10.683h0.248l-0.082,0.291l0.042,0.166l-0.291-0.125l-0.124-0.249L29.606,10.683z
	 M27.722,8.545l-0.083,0.636l-0.124-0.735l-0.042-0.2L27.722,8.545z M26.453,12.482c0-0.594,0.42-1.075,0.972-1.216l-0.116-0.047
	l0.082-0.401l0.166,0.3l-0.066,0.134c0.081-0.016,0.155-0.048,0.242-0.048h3.21c0.703,0,1.277,0.575,1.277,1.278v3.061
	c0,0.261-0.097,0.488-0.23,0.689l0.021,0.133l-0.074-0.056c-0.233,0.304-0.584,0.513-0.994,0.513h-3.21
	c-0.704,0-1.279-0.575-1.279-1.279V12.482z M31.663,19.74l-0.208,0.102l0.083-0.235L31.663,19.74z M29.648,18.272l0.083-0.29
	l0.083,0.456L29.648,18.272z M29.731,18.895l-0.166,0.125l0.083-0.291L29.731,18.895z M29.547,23.116l-0.166-0.166l0.083-0.201
	l0.1,0.1l0.167,0.111l-0.127,0.021L29.547,23.116z M29.713,23.75h-0.249v-0.133L29.713,23.75z M27.473,19.307l-0.165-0.101v-0.167
	l0.082-0.167l0.166,0.134L27.473,19.307z M27.639,19.908l0.166,0.2h-0.166l-0.083,0.101l-0.083-0.168L27.639,19.908z M27.39,21.879
	l0.083-0.166l0.125,0.134l-0.125,0.167L27.39,21.879z M27.473,26.424v0.168l-0.207,0.033l0.042-0.135v-0.166L27.473,26.424z
	 M27.573,22.42l0.166,0.082l0.083,0.207H27.49L27.573,22.42z M27.739,22.17l-0.041-0.248l0.124-0.291l0.042,0.291L27.739,22.17z
	 M27.822,21.01l-0.132-0.079l-0.217-0.086l0.123-0.101l-0.023-0.19l0.208,0.083l0.083,0.207L27.822,21.01z M27.739,18.812
	l0.083-0.166l0.125,0.125l-0.083,0.207L27.739,18.812z M26.205,16.365l0.083-0.249l0.166,0.124l-0.042,0.415l-0.207-0.083V16.365z
	 M26.122,11.845l-0.29,0.29v-0.29H26.122z M25.816,16.633l0.041,0.302l-0.166,0.032l-0.166-0.1l-0.041-0.234H25.816z M25.749,15.577
	v-0.125l0.124,0.208L25.749,15.577z M25.666,17.277l0.207,0.083v0.207l-0.207,0.083V17.277z M25.816,15.965h0.124v0.134h-0.124
	V15.965z M25.567,8.813l0.166,0.066v0.234l-0.208-0.1L25.567,8.813z M25.525,11.118l-0.041-0.668l-0.083-0.167l0.29,0.301
	l0.058,0.375v-0.027l0.207,0.166l-0.169,0.102l0.029,0.188l-0.166,1.437l-0.125-0.067l-0.124-0.635l0.124-0.468l0.125-0.133
	L25.525,11.118z M25.442,13.258l0.042-0.2l0.166,0.133v0.235l0.083-0.102l0.166,0.301l-0.083,0.168l-0.249,0.066l-0.166-0.367
	L25.442,13.258z M23.965,10.02l-0.016,0.057v0.04l-0.027,0.054l-0.04,0.14l-0.125-0.124V9.937l0.026,0.011l0.041-0.165l0.125,0.101
	v0.131L23.965,10.02z M23.991,10.584l0.041,0.201l-0.165-0.101l-0.042-0.167L23.991,10.584z M23.882,9.438v-0.29l0.124,0.124
	l0.041,0.249L23.882,9.438z M24.032,10.149l0.166,0.134l-0.083,0.2l-0.083-0.133V10.149z M23.882,8.526l0.124,0.124l0.041,0.208
	L23.84,8.775L23.882,8.526z M23.659,8.445l0.166,0.1l-0.166,0.067V8.445z M23.591,11.057l0.208,0.124l0.124,0.207l-0.083,1.534
	l0.207,0.996l-0.041,0.457l-0.124,0.206l-0.166-0.166l0.124-0.829l-0.083,0.082l-0.166-2.363V11.057z M23.659,16.7h-0.166v-0.233
	h0.166V16.7z M23.368,14.795l0.042-0.2l0.125,0.301l0.041,0.401l-0.208-0.302V14.795z M21.584,12.924l0.083-0.234l0.082,0.132
	l0.059-0.272l0.018-0.101l-0.158-0.127l0.083-0.233l0.078,0.343l0.021-0.13l0.124,0.373l0.042,0.455l-0.125,0.539l-0.166-0.082
	l-0.041-0.457l0.065-0.305L21.584,12.924z M21.792,15.129l0.042-0.168l0.29,0.703l-0.373-0.201L21.792,15.129z M22.041,14.795
	l-0.207,0.067l0.083-0.168l0.207-0.1L22.041,14.795z M21.891,8.236l0.125,0.207l0.041,0.332l-0.166-0.083L21.85,8.485L21.891,8.236z
	 M21.933,9.314l-0.083,0.29l-0.166-0.083l0.041-0.207l0.042-0.249L21.933,9.314z M21.584,8.379l0.166,0.166l-0.083,0.201
	l-0.125-0.167L21.584,8.379z M21.501,15.965l0.247,0.132l-0.064-0.354h0.166v-0.208l0.124,0.125l-0.083,0.539l-0.083-0.166
	l-0.041,0.166l-0.019-0.101l-0.247,0.034V15.965z M19.759,15.463l-0.041-0.2l0.124-0.234l0.018,0.093l0.289,0.165l-0.082,0.539
	l-0.208-0.414v-0.106L19.759,15.463z M19.901,16.282h0.248l0.084,0.373h-0.332V16.282z M19.967,12.724l-0.06,0.121l0.159,0.118
	l0.082,0.498l-0.124,0.166l-0.124,0.913l-0.042-0.063l-0.017,0.05l-0.207-0.1l-0.042-0.268l0.068,0.022l-0.01-0.017l0.041-0.58
	l0.166-0.539l0.036-0.178l-0.011,0.021l-0.125-0.135l0.083-0.134L19.967,12.724z M19.527,10.227h0.166l0.083,0.083v0.166h-0.249
	V10.227z M19.593,15.664l0.166,0.066l0.083,0.167H19.51L19.593,15.664z M18.225,10.785l0.083-0.201l0.166,0.101l-0.042,0.335
	l-0.207-0.067V10.785z M17.77,10.049l0.123,0.168l-0.123-0.067V10.049z M17.686,11.521l0.207,0.065v0.168l-0.207,0.066V11.521z
	 M17.77,12.622l0.123-0.1l0.166,0.167l-0.373,0.066L17.77,12.622z M17.703,13.379l0.143,0.215l0.048-0.069l0.083-0.166l0.083,0.134
	l-0.041,0.234l-0.332,0.334v-0.235l0.03-0.044l-0.056-0.113L17.703,13.379z M17.686,14.127l0.125,0.101l0.041,0.267l-0.207-0.134
	L17.686,14.127z M17.645,15.162l0.041-0.232h0.207l-0.041,0.434L17.77,15.53l-0.125-0.167V15.162z M17.893,17.168v0.233
	l-0.207,0.101l-0.082-0.233l0.082-0.201L17.893,17.168z M17.454,12.674l0.124,0.166l-0.041,0.207l-0.124-0.166L17.454,12.674z
	 M17.454,16.365l0.083-0.249l0.166,0.124v0.747l-0.166-0.125v0.332h-0.166l-0.083-0.373L17.454,16.365z M17.537,17.443v0.29
	l-0.166-0.207l0.083-0.249L17.537,17.443z M17.247,18.023h0.207l0.013,0.053c1.01-0.878,2.34-1.416,3.804-1.416
	c0.893,0,1.734,0.205,2.487,0.56v-0.191l0.083-0.29l0.125,0.166v0.412c0.675,0.352,1.268,0.832,1.745,1.406l0.038-0.077l0.124-0.124
	l0.166,0.207l-0.276,0.062c0.756,0.938,1.211,2.115,1.211,3.398c0,2.792-2.14,5.095-4.916,5.468v0.195l-0.118-0.176
	c-0.221,0.023-0.443,0.041-0.669,0.041c-3.15,0-5.705-2.477-5.705-5.529c0-1.584,0.691-3.008,1.793-4.017L17.247,18.023z
	 M25.749,27.313v-0.33l0.124,0.33H25.749z M25.873,27.936l-0.041,0.207h-0.166v-0.207H25.873z M24.089,29.305l-0.042,0.166
	l-0.082-0.332L24.089,29.305z M23.659,27.627l-0.166,0.066v-0.133L23.659,27.627z M21.518,28.475l0.249-0.414L21.85,28.6
	l-0.125-0.125H21.518z M21.584,29.768l-0.083,0.066V29.6L21.584,29.768z M19.527,29.926l-0.207-0.082l0.083-0.166l0.207-0.084
	L19.527,29.926z M19.61,30.299l-0.166-0.082v-0.25l0.125,0.125L19.61,30.299z M17.454,27.604l-0.041-0.166l0.041-0.207l0.332,0.082
	l-0.125,0.209L17.454,27.604z M17.62,28.641l-0.042,0.207l-0.207,0.084v-0.291l0.166-0.166L17.62,28.641z M17.686,27.928
	l0.166,0.135l-0.082,0.166l-0.125-0.066L17.686,27.928z M15.987,27.495l-0.208-0.033l-0.041-0.201l0.083-0.199l0.041-0.168
	l0.125,0.199l-0.083,0.201L15.987,27.495z M15.904,27.762v0.301l-0.166-0.135L15.904,27.762z M15.628,27.522l-0.041,0.207
	l-0.125,0.123l-0.041-0.207L15.628,27.522z M15.945,17.334l0.042-0.133l0.082,0.234L15.945,17.334z M16.069,18.305v0.232h-0.165
	l-0.042-0.232H16.069z M15.779,15.83l-0.083-0.133l-0.083-0.167l0.166-0.201l0.166,0.168L15.779,15.83z M15.779,12.689h-0.166
	v-0.234h0.166V12.689z M15.711,13.752l-0.166,0.455l-0.083-0.166v-0.289H15.711z M15.545,16.033v-0.208l0.166,0.083l-0.083,0.498
	l-0.166,0.042L15.545,16.033z M16.084,15.038h-0.165v-0.125h0.165V15.038z M15.779,11.754v-0.435l0.083-0.233l0.125,0.134v0.734
	l-0.083,0.167l-0.208-0.167L15.779,11.754z M15.628,10.476l-0.166-0.166l0.083-0.249l0.166,0.166L15.628,10.476z M15.462,8.319
	l0.208,0.166v0.29l-0.208,0.166l-0.041-0.415L15.462,8.319z M15.38,17.194l0.082-0.29l0.083,0.166v0.497l-0.29-0.29L15.38,17.194z
	 M13.788,13.426l0.124,0.166l-0.041,0.401l-0.166-0.2l-0.042-0.233L13.788,13.426z M13.555,13.047l-0.083-0.207v-0.25l0.249,0.041
	l0.166,0.125l-0.166,0.373L13.555,13.047z M14.078,19.74v0.301l-0.166-0.199L14.078,19.74z M13.705,18.604l0.041-0.134l0.042-0.166
	l0.124,0.099v0.168L13.705,18.604z M13.762,15.121l-0.207,0.082l-0.042-0.207l0.125-0.249l0.124,0.166V15.121z M13.555,18.355
	l0.124,0.124l0.042,0.623l-0.208-0.208l-0.041-0.249L13.555,18.355z M13.788,20.209l0.083,0.435l-0.125-0.101h-0.207L13.788,20.209z
	 M13.721,20.886l0.124,0.206l-0.083,0.291l-0.124-0.331L13.721,20.886z M13.746,21.779l0.042-0.2l0.083,0.2l-0.083,0.234
	l0.207,0.401l-0.124,0.201l-0.125-0.168V21.779z M13.912,24.42l0.125,0.133l-0.166,0.1L13.912,24.42z M13.954,23.217l-0.042-0.234
	h0.332v0.568L13.954,23.217z M14.078,12.188l-0.29,0.268l0.083-0.134L14.078,12.188z M13.622,11.152l0.249-0.066l-0.083,0.233
	L13.622,11.152z M13.871,10.283v-0.167l0.124,0.101l-0.083,0.435l-0.083-0.134l-0.041,0.134l-0.083-0.368H13.871z M13.472,9.397
	l0.207,0.083v0.207l-0.207,0.083V9.397z M13.472,11.222v-0.207l0.124,0.166l0.125,1.12l-0.208-0.125l-0.083-0.207L13.472,11.222z
	 M13.472,14.125l0.249-0.084l-0.042,0.334l-0.124,0.206l-0.166-0.166L13.472,14.125z M13.638,23.997v0.248h-0.166l-0.083-0.248
	H13.638z M11.879,13.625l-0.083,0.234l-0.166-0.066v-0.168H11.879z M11.63,12.622v-0.233l0.083-0.201l0.083,0.134v0.234
	L11.63,12.622z M11.921,15.897l-0.125,0.368l-0.166-0.301L11.921,15.897z M11.648,16.572l0.166,0.249l-0.166-0.083V16.572z
	 M11.939,17.028l-0.042,0.332l-0.124-0.166l-0.042-0.207L11.939,17.028z M12.045,17.668l0.042-0.166l0.248,0.367l-0.414,0.201
	L12.045,17.668z M12.252,11.02h-0.331v-0.301h0.248L12.252,11.02z M11.879,9.782l0.29,0.133l-0.082,0.436l-0.208-0.334V9.782z
	 M11.897,11.679l-0.166-0.083v-0.208l0.125,0.083L11.897,11.679z M11.648,10.02l0.125,0.166l0.041,0.29h-0.249l-0.041-0.249
	L11.648,10.02z M9.723,8.379l0.166,0.2L9.806,8.813l-0.125-0.2L9.723,8.379z M9.806,14.293L9.64,14.395l-0.166,0.4L9.35,14.428
	V14.16L9.806,14.293z M9.557,13.625v-0.199l0.124,0.166L9.64,13.727L9.557,13.625z M9.823,16.199v0.331l-0.291-0.041l-0.041-0.29
	H9.823z M9.615,13.461L9.579,13.24l-0.104,0.084l0.041-0.234l-0.082-0.166l-0.042-0.234l0.166,0.066l0.034,0.178l0.189,0.113
	l0.083,0.332l-0.041,0.207L9.615,13.461z M9.557,11.888l-0.166-0.167l0.083-0.2l0.083,0.133V11.888z M9.474,10.785l0.083-0.201
	l0.166,0.101v0.602l-0.166-0.101v0.268H9.391l-0.083-0.301L9.474,10.785z M7.941,9.614h0.165v0.101H7.941V9.614z M7.832,18.563
	h0.125v0.332H7.832V18.563z M7.65,25.456h0.249L7.858,25.69L7.65,25.756V25.456z M7.484,22.983H7.65v0.268H7.484V22.983z
	 M7.567,10.518v-0.167l0.166,0.065L7.65,10.818l-0.166,0.034L7.567,10.518z M7.402,11.453l0.082-0.233l0.083,0.134v0.4l-0.29-0.233
	L7.402,11.453z M7.65,19.774l-0.041,0.167l-0.125,0.1l-0.041-0.166L7.65,19.774z M7.65,33.543l-0.124-0.135l0.041-0.166l0.166,0.133
	L7.65,33.543z M7.733,31.772l-0.207-0.1l-0.042-0.168l0.083-0.4l0.083-0.133l0.083,0.133V31.772z M7.567,30.569h0.125l0.041,0.201
	L7.567,30.569z M7.915,28.475l-0.083-0.332l0.166,0.125L7.915,28.475z M7.941,16.7l-0.083-0.168l0.041-0.267l0.125,0.199L7.941,16.7
	z M8.04,16.116l-0.125-0.125l0.207-0.083L8.04,16.116z M9.474,12.121l0.083,0.268l-0.166-0.135l-0.124-0.133H9.474z M9.391,16.935
	l0.166,0.2l-0.083,0.199L9.35,17.168L9.391,16.935z M9.806,19.606l-0.125,0.168l-0.207,0.067l-0.041-0.135l0.041-0.167L9.806,19.606
	z M9.391,20.677l0.166-0.134l0.083,0.134l-0.042,0.168l-0.207,0.066V20.677z M9.491,32.954l0.041-0.166l0.125-0.123l0.083,0.289
	H9.491z M9.74,20.43l-0.083-0.166l0.249,0.083L9.74,20.43z M10.096,12.823l0.124-0.067l0.125,0.135h-0.166L10.096,12.823z
	 M11.589,33.643l-0.042-0.268l0.249,0.234L11.589,33.643z M13.705,34.713l0.083-0.135l0.083-0.166l0.041,0.199L13.705,34.713z
	 M13.995,35.014v0.199l-0.207,0.135v-0.234l0.124-0.135L13.995,35.014z M13.912,36.149l-0.166-0.133v-0.4l0.125-0.168l0.166,0.133
	L13.912,36.149z M15.613,34.68l0.042-0.402l-0.042-0.232h0.249l0.083,0.768l-0.041,0.334l-0.166-0.133l-0.037-0.098l-0.072,0.029
	v-0.223L15.613,34.68z M15.779,33.243h0.125v0.133h-0.125V33.243z M15.987,36.317l-0.291-0.168l0.083-0.199l-0.083-0.469
	l0.083-0.201l0.208,0.635V36.317z M17.852,34.913l0.041-0.268l0.125,0.168L17.852,34.913z M17.686,33.61h0.166v0.133h-0.166V33.61z
	 M19.676,35.147l-0.083-0.168l0.166,0.102L19.676,35.147z M19.444,34.241l0.042-0.209l0.207-0.082l-0.083,0.414L19.444,34.241z
	 M21.542,36.184l-0.041-0.201v-0.201l0.207,0.033l0.042,0.436L21.542,36.184z M21.667,34.913l-0.166-0.133l0.083-0.234l0.166,0.066
	L21.667,34.913z M21.833,34.211l-0.332-0.166v-0.201l0.249-0.068l0.124,0.201L21.833,34.211z M21.85,33.577l0.041-0.291l0.125,0.166
	L21.85,33.577z M23.493,34.645l0.166-0.066l0.083,0.135h-0.166L23.493,34.645z M23.618,33.877v-0.168l0.041-0.232l0.166,0.5
	L23.618,33.877z M23.867,36.083l-0.208,0.066V35.95l0.208-0.066V36.083z M25.65,34.178h-0.166v-0.133h0.166V34.178z M27.308,33.309
	l0.248,0.301l-0.166-0.033L27.308,33.309z M27.532,33.493l0.041-0.207l0.249,0.084l-0.166,0.289L27.532,33.493z M27.722,36.25
	l-0.207-0.102l-0.042-0.266l0.208,0.066l0.124,0.133L27.722,36.25z M27.93,34.579h-0.208l0.083-0.135l0.208-0.031L27.93,34.579z
	 M29.731,35.94l-0.166-0.166l0.058-0.203l-0.158-0.189h0.249l-0.056,0.135l0.073,0.217V35.94z M32.234,32.059
	c0,0.619-0.508,1.127-1.13,1.127H11.327c-0.622,0-1.129-0.508-1.129-1.127v-12h2.606c-0.235,0.771-0.363,1.59-0.363,2.437
	c0,2.666,1.26,5.049,3.233,6.617l0.063-0.451l0.041-0.232l0.166,0.133l0.207,0.033l-0.202,0.717
	c1.013,0.744,2.195,1.275,3.481,1.539l0.096-0.096l0.093,0.074l0.057-0.16v-0.201l0.208,0.066v0.4
	c0.452,0.068,0.912,0.115,1.386,0.115c0.189,0,0.372-0.027,0.56-0.039l-0.104-0.174V30.01l0.042-0.25l0.083,0.25l-0.083,0.289
	l0.207,0.498l-0.105,0.213c0.605-0.043,1.199-0.125,1.766-0.279l-0.059-0.096l0.083-0.166l0.118,0.063l-0.144-0.314l-0.042-0.291
	h0.249l0.083,0.207l-0.083,0.539l-0.052-0.111l0.031,0.125c0.558-0.164,1.092-0.377,1.598-0.639l0.066-0.213l0.069,0.141
	c1.852-0.998,3.276-2.631,4.005-4.586l-0.076-0.771v-0.289l0.166,0.082l0.041,0.248l0.094,0.096
	c0.203-0.721,0.314-1.477,0.314-2.258c0-0.029-0.006-0.057-0.006-0.084l-0.36-0.243l0.041-0.414l0.042-0.207l0.274,0.829
	c-0.005-0.349-0.027-0.694-0.078-1.032l-0.196,0.078l0.083-0.207l0.076-0.047c-0.052-0.306-0.11-0.608-0.192-0.903l-0.067,0.143
	l-0.249-0.368l0.083-0.267h0.249l-0.042,0.233l0.032,0.052h2.447V32.059z M33.115,9.047l0.042-0.234l0.083,0.066l0.041,0.469
	l-0.207-0.101L33.115,9.047z M33.323,32.842l0.29-0.033l-0.166,0.232l-0.29-0.066L33.323,32.842z M33.364,35.28l-0.124-0.332v-0.602
	l0.248,0.467L33.364,35.28z M33.628,34.282l-0.166-0.125l-0.083-0.248l0.083-0.25l0.207,0.125l0.042,0.291L33.628,34.282z
	 M33.669,24.038l-0.166-0.125l-0.041-0.289h0.332l0.041,0.373L33.669,24.038z M33.918,22.959h-0.124v-0.166h0.124V22.959z
	 M33.711,9.854l-0.083-0.249l0.124-0.207l0.042-0.332l0.207,0.249L33.711,9.854z"/>
<g>
</g>
<g>
</g>
<g>
</g>
<g>
</g>
<g>
</g>
<g>
</g>
</svg>
