<?xml version="1.0" encoding="utf-8"?>
<!-- Generator: Adobe Illustrator 20.1.0, SVG Export Plug-In . SVG Version: 6.00 Build 0)  -->
<svg version="1.1" xmlns="http://www.w3.org/2000/svg" xmlns:xlink="http://www.w3.org/1999/xlink" x="0px" y="0px"
	 viewBox="0 0 356 116" style="enable-background:new 0 0 356 116;" xml:space="preserve">
<style type="text/css">
	.st0{clip-path:url(#SVGID_4_);fill:#040607;}
	.st1{fill:#FFFFFF;}
	.st2{clip-path:url(#SVGID_14_);}
	.st3{fill-rule:evenodd;clip-rule:evenodd;fill:#FFFFFF;}
	.st4{clip-path:url(#SVGID_16_);}
	.st5{clip-path:url(#SVGID_18_);}
	.st6{clip-path:url(#SVGID_20_);}
	.st7{clip-path:url(#SVGID_22_);}
	.st8{fill-rule:evenodd;clip-rule:evenodd;fill:#89C8C9;}
	.st9{fill:#89C8C9;}
	.st10{clip-path:url(#SVGID_24_);}
	.st11{clip-path:url(#SVGID_26_);fill:#FFDE37;}
	.st12{clip-path:url(#SVGID_26_);}
	.st13{fill-rule:evenodd;clip-rule:evenodd;fill:#FFDE37;}
	.st14{fill:#FFDE37;}
	.st15{clip-path:url(#SVGID_28_);}
	.st16{fill-rule:evenodd;clip-rule:evenodd;fill:#40342D;}
	.st17{fill:#40342D;}
	.st18{fill-rule:evenodd;clip-rule:evenodd;fill:#DEC937;}
	.st19{fill:#F9F6F7;}
	.st20{fill:#49392F;}
	.st21{fill-rule:evenodd;clip-rule:evenodd;fill:#F9F6F7;}
	.st22{fill:#333332;}
	.st23{fill:none;stroke:#40342D;stroke-miterlimit:10;}
</style>
<g id="Capa_1">
</g>
<g id="Capa_2">
	<path class="st17" d="M194.6,109.5l0.3-0.2l0.3,0l0.4,0.1l0.4-0.4l0.2-0.8l-0.2-0.9l0.2-0.3l-0.1-0.2l0-0.6l-0.2-0.3l0.2-0.1
		l0.1-0.2l-0.2-0.4l0.1-0.2l0-0.7l-0.3-0.6l-0.2,0.1l0.1-0.2l-0.1-0.2l-0.2,0.1l-0.4-0.1l-0.4-0.3l-0.5,0.2l-0.4-0.2l-0.6,0.2
		l-1.8,0l-0.4,0.1l-0.4,0.2l-0.1-0.2l-0.2-0.1l-0.5,0l-0.1,0.3l-0.1-0.1L189,103l-0.2,0.1l-1.4,0.1l-0.6,0.3l-0.2-0.2l-0.4-0.2
		l-0.4,0.1l-1.4,0.1l-0.4,0.1l-0.3,0.2l-0.2-0.1l-0.8,0l-0.2-0.1l-0.3,0.1l-0.4-0.2l-0.3,0l-0.5,0.3l-0.2-0.3l-0.5,0l-0.6,0.2
		l-0.7,0l-0.4-0.2l-0.3,0.1l-0.8-0.1l-1.8,0.2l-0.2-0.1l-0.1,0l-0.3-0.2l-0.5,0.2l-0.4-0.2l-0.6,0.2l-1.8,0l-0.4,0.1l-0.4,0.2
		l-0.1-0.2l-0.2-0.1l-0.5,0l-0.1,0.3l-0.1-0.1l-0.5-0.2l-0.2,0.1l-1.4,0.1l-0.6,0.3l-0.2-0.2l-0.4-0.2l-0.4,0.1l-1.4,0.1l-0.4,0.1
		l-0.3,0.2l-0.2-0.1l-0.8,0l-0.2-0.1l-0.3,0.1l-0.4-0.2l-0.3,0l-0.5,0.3l-0.2-0.3l-0.5,0l-0.6,0.2l-0.7,0l-0.4-0.2l-0.3,0.1
		l-0.8-0.1l-1.8,0.2l-0.2-0.1l-0.4,0l-0.5,0.1l-0.8,0.4l-0.1,0.5l0.1,0.9l-0.1,0.1l0,0.4l0.2,0.6l-0.1,0.2l0.2,0.1l0.1,0.2l-0.3,0
		l0.1,0.4l0,0.3l0.2,0l0.1,0.2l-0.3,0.1l0,0.7l0.1,0.2l0.2,0.1l0,0.5l0.3,0.2l0.7,0.1l0-0.4l0.2,0.2l0,0.3l0.3,0l0.4-0.2l0.4,0.2
		l0.3,0l-0.1-0.2l0.1-0.1l0.3,0.2l0.4,0.1l0.2-0.3l0.3,0.2l0.3,0l0.4-0.3l0.3,0.3l0.3-0.3l0.1,0.2l0.1,0.1l1.6,0l0.2,0.1l0.3-0.2
		l0.2,0l-0.1-0.1l-0.2-0.1l-0.1-0.1l0.5,0.2l-0.1,0.2l0.1,0.1l0.4,0l0.4-0.1l0-0.3l0.1-0.1l0.2-0.1l0.1,0.2l0.1,0l0.4-0.2l0.3,0.4
		l0.3,0l0.1-0.2l0-0.3l0.2-0.1l0,0.3l0.2,0.2l0.7,0.1l0.5,0l0.2-0.1l0.1-0.1l-0.3,0.1l0.1-0.2l0.2-0.1l0.4,0.1l0.1,0.1l0.1,0.2
		l0.7,0l0.1-0.2l0.2,0.1l0.4,0.1l0.4-0.2l0.3-0.3l0.1,0.3l0.2,0.1l0.5-0.4l0.2,0l-0.2,0.4l0.5-0.1l0.9,0l-0.1-0.1l-0.3-0.1l0.1-0.2
		l0.2-0.1l0.3,0.2l1.2,0.3l0.5,0l0.6-0.1l0.9,0l0.5,0.1l0,0l0,0l0.1-0.1l0,0.2l0.3,0l0.4-0.2l0.4,0.2l0.3,0l-0.1-0.2l0.1-0.1
		l0.3,0.2l0.4,0.1l0.2-0.3l0.3,0.2l0.3,0l0.4-0.3l0.3,0.3l0.3-0.3l0.1,0.2l0.1,0.1l1.6,0l0.2,0.1l0.3-0.2l0.2,0l-0.1-0.1l-0.2-0.1
		l-0.1-0.1l0.5,0.2l-0.1,0.2l0.1,0.1l0.4,0l0.4-0.1l0-0.3l0.1-0.1l0.2-0.1l0.1,0.2l0.1,0l0.4-0.2l0.3,0.4l0.3,0l0.1-0.2l0-0.3
		l0.2-0.1l0,0.3l0.2,0.2l0.7,0.1l0.5,0l0.2-0.1l0.1-0.1l-0.3,0.1l0.1-0.2l0.2-0.1l0.4,0.1l0.1,0.1l0.1,0.2l0.7,0l0.1-0.2l0.2,0.1
		l0.4,0.1l0.4-0.2l0.3-0.3l0.1,0.3l0.2,0.1l0.5-0.4l0.2,0l-0.2,0.4l0.5-0.1l0.9,0l-0.1-0.1l-0.3-0.1l0.1-0.2l0.2-0.1l0.3,0.2
		l1.2,0.3l0.5,0l0.6-0.1L194.6,109.5z M161.5,104.1l0.1,0.1l-0.1,0.2L161.5,104.1z M168.4,106.6l0.2,0l-0.1,0.5l-0.2,0.1l-0.1-0.2
		L168.4,106.6z M162.8,107.3l-0.2-0.1l0-0.1l0.1-0.1l0.2,0.1L162.8,107.3L162.8,107.3z M185.9,107.7l0,0.2l-0.2,0.1l-0.3-0.3l0-0.2
		l0.1-0.1l0.2-0.1L185.9,107.7z M188.7,107.1l0.2,0l-0.2,0.2l-0.2,0.1l0-0.2L188.7,107.1z M185.1,108l-0.1-0.1l0.1-0.1l0.1,0.1
		L185.1,108z M172.7,106.2l-0.2-0.1l0.1-0.2l0.2,0.1L172.7,106.2z M181.3,106.5l0.1-0.2l0.1,0.2l0,0.2L181.3,106.5z M179.3,106.7
		l0-0.2l0-0.2l0.2,0.1l0.1,0.2L179.3,106.7z M183.1,106.4l-0.3-0.2l0.1-0.2l0.2,0.1l0.2,0.4L183.1,106.4z M184.2,106l-0.1-0.2
		l0.1-0.2l0.2,0.2l0,0.2L184.2,106z M177.4,106.3l0,0.2l-0.2-0.1l0-0.2L177.4,106.3z M174,106.7l0.1,0.2l-0.2,0l-0.1-0.1L174,106.7
		L174,106.7z M169.6,107.3l-0.2,0.2l-0.2,0.1l0-0.2l0.2-0.2L169.6,107.3z M172.9,107.2l0.4,0.1l0,0.2l-0.2,0l-0.1-0.1L172.9,107.2z
		 M168.4,107.9l-0.1,0.3l-0.2-0.1l0-0.2l0.1-0.1L168.4,107.9z M179.7,107.7l0.1,0.1l-0.1,0.1L179.7,107.7z M178.2,108l-0.1-0.1
		l0.2-0.1L178.2,108z M177.1,108.2l0.2,0l-0.1,0.2l-0.1,0l-0.1-0.1L177.1,108.2z M180.9,108l0.2,0l-0.1,0.2l-0.2,0.1l-0.1-0.2
		L180.9,108z M181.7,108l0.1-0.1l0.1-0.1l0.2,0l-0.1,0.2l-0.2,0.1L181.7,108z M183.2,107.5l-0.3,0l-0.1-0.2l0.1-0.3l0.3,0
		L183.2,107.5z M177.3,107.5l-0.2-0.2l0.1-0.2l0.2,0l0,0.3L177.3,107.5z M182,107l0-0.1l0.1-0.1l0.2,0.1l0,0.1l-0.1,0.1L182,107z
		 M185,106.5l0-0.2l0.1,0l0.2,0l-0.1,0.2l-0.1,0.1L185,106.5z M186,106l-0.1-0.2l0.3-0.1l0.1-0.2l0.2,0.1l0.1,0.2l0,0.2l-0.2,0.1
		L186,106z M187.2,105.7l-0.1-0.1l0.1-0.2l0.3,0l0,0.3l-0.1,0.1L187.2,105.7z M189,105.2l0.2,0.1l0,0.1l-0.2,0.1L189,105.2z
		 M190.7,105.1l0.1-0.2l0.2,0l0.1,0.3l-0.2,0L190.7,105.1z M192,104.8l0.1-0.1l0.1,0.2L192,104.8z M170.5,105.7l0.1,0.2l0,0.2
		l-0.1,0.2l-0.1-0.1l-0.2-0.3l0.1-0.1L170.5,105.7z M169.7,105.7l0-0.3l0.2,0.1l0,0.1L169.7,105.7z M168.2,105.8l-0.1,0.1l-0.2,0
		l-0.1-0.1l0.1-0.2l0.3,0L168.2,105.8z M167.1,105.9l0.1,0.2l0,0.2l-0.2,0.1l-0.4-0.2l-0.1-0.2l0.3-0.1l0.1-0.2L167.1,105.9z
		 M169.3,106.2l0.2,0l0.2,0.4l0,0.2l-0.4-0.2l-0.1-0.2L169.3,106.2z M170,106.9l0.5,0l-0.1,0.2l-0.3,0L170,106.9z M166.5,107.9
		l0,0.2l-0.2,0.1l-0.3-0.3l0-0.2l0.1-0.1l0.2-0.1L166.5,107.9z M165.8,108.3l-0.1-0.1l0.1-0.1l0.1,0.1L165.8,108.3z M165.5,108.1
		l0.1,0.2l-0.2,0l0,0.2l-0.5-0.2l0.1-0.2l0.2,0L165.5,108.1z M183.4,108.3l0,0.3l-0.1-0.1L183.4,108.3z M190.4,107.8l0,0.1l-0.1,0
		l0-0.1L190.4,107.8z M184.3,108l0.1-0.2l0.2,0l0.2,0.1l0.1,0.2l-0.2,0l0,0.2L184.3,108z M187.7,107.9l-0.2-0.1l0-0.2l0.1-0.1
		l0.1,0.1L187.7,107.9z M192.6,107.1l0,0.2l-0.2,0l-0.1-0.1l0-0.2L192.6,107.1z M193.7,106.4l-0.1,0.3l-0.3-0.1l-0.1-0.1l0.1-0.1
		l0.2,0L193.7,106.4z M189.8,106.7l-0.1,0.2l-0.3,0l-0.1-0.2L189.8,106.7z M187.6,106.9l-0.1-0.2l0.1-0.4l0.2,0l-0.1,0.5
		L187.6,106.9z M189,106.3l0,0.2l-0.4-0.2l-0.1-0.2l0.1-0.1l0.2,0L189,106.3z M192.2,105.8l-0.1,0.1l-0.2-0.1l0.1-0.2L192.2,105.8z
		 M190,105.7l0,0.2l-0.1,0.2l-0.1-0.1l-0.2-0.3l0.1-0.1l0.2,0.1L190,105.7z M194.1,105l-0.1,0.2l-0.1-0.1l0.1-0.2L194.1,105z
		 M195.4,104.4l0,0.2l-0.2,0l-0.1-0.1l0-0.2L195.4,104.4z M186.5,105l0.1,0.3l-0.2-0.1l-0.1-0.1l0-0.2L186.5,105z M182.8,105.1
		l-0.2,0.1l0-0.3L182.8,105.1z M190.4,104l0,0.1l-0.1,0l0-0.1L190.4,104z M191.9,103.3l-0.1,0.2l-0.7,0.2l0-0.3l0.1,0L191.9,103.3z
		 M178,104.5l0.1,0.2l-0.2,0l-0.1-0.2L178,104.5z M181,103.9l-0.1,0.2l-0.1-0.3L181,103.9z M158.5,104.7l0.2,0l0.1,0.2l-0.2,0
		L158.5,104.7z M155.3,105.2l0.1,0l0.1,0.1L155.3,105.2z M171.8,103.6l0.1,0l0.6,0l-0.1,0.2l-0.7,0.2L171.8,103.6z M171,104.4l0-0.1
		l0.1,0l0,0.1L171,104.4z M163.2,105.1l0.2,0.2l-0.2,0.1L163.2,105.1z M167.1,105.4l-0.1-0.1l0-0.2l0.2,0.1l0.1,0.3L167.1,105.4z
		 M172.8,105l0.1,0.2l-0.3-0.1L172.8,105z M171.7,105.2l0.1,0.3l-0.2,0l-0.2-0.1l0.1-0.2L171.7,105.2z M165,106.1l0,0.2l-0.2,0
		l-0.1-0.2l0.1-0.2L165,106.1z M164,106.7l-0.2,0l-0.3-0.2l0.1-0.2l0.2,0.1L164,106.7z M157.9,106.7l0-0.2l0.1,0.1l0,0.2
		L157.9,106.7z M159.9,106.8l0-0.2l0.2,0.1l0.1,0.2l-0.3,0.1L159.9,106.8z M162,106.8l0.1-0.2l0.1,0.2l0,0.2L162,106.8z
		 M165.7,106.5l0.1,0l0.2,0l-0.1,0.2l-0.1,0.1l-0.1-0.1L165.7,106.5z M157.8,107.6l0.1-0.2l0.2,0l0,0.3l-0.1,0.1L157.8,107.6z
		 M163.6,107.3l0.3,0l0,0.5l-0.3,0l-0.1-0.2L163.6,107.3z M160.5,108l-0.1,0.1l0-0.2L160.5,108z M158.7,108.1l0.2-0.1l-0.1,0.2
		L158.7,108.1z M162.8,107.9l-0.1,0.2l-0.2,0.1l-0.2,0l0.1-0.1l0.1-0.1L162.8,107.9z M157.7,108.6L157.7,108.6l0-0.2l0.2,0l-0.1,0.2
		L157.7,108.6z M161.4,108.5l0.1-0.2l0.2,0l-0.1,0.2l-0.2,0.1L161.4,108.5z M163.9,108.6l0.2-0.1l0,0.3L163.9,108.6z M171,108.2
		l0-0.1l0.1,0l0,0.1L171,108.2z M166.1,109.1L166,109l0.1-0.1l0.2,0.1l0,0.2L166.1,109.1z M169.6,108.8l0.1-0.2l0.2-0.1l0,0.2
		l-0.1,0.1L169.6,108.8z M165.7,109.5l0.1,0.2l-0.6,0l-0.1-0.3l0.2-0.1L165.7,109.5z M185.4,108.9l-0.1-0.1l0.1-0.1l0.2,0.1l0,0.2
		L185.4,108.9z M188.9,108.6l0.1-0.2l0.2-0.1l0,0.2l-0.1,0.1L188.9,108.6z M185,109.3l0.1,0.2l-0.6,0l-0.1-0.3l0.2-0.1L185,109.3z"
		/>
	<g>
		<path class="st17" d="M91.4,26.4V12.1h3.9c1.5,0,2.7,0.1,3.6,0.3s1.7,0.6,2.3,1.1c0.9,0.6,1.5,1.5,2,2.4s0.7,2.1,0.7,3.3
			c0,1.3-0.2,2.4-0.7,3.4s-1.1,1.8-2,2.4c-0.7,0.5-1.4,0.8-2.2,1s-2,0.3-3.5,0.3h-1.1H91.4z M94.5,23.8h1.7c1.6,0,2.8-0.4,3.5-1.1
			s1.1-1.9,1.1-3.5c0-1.6-0.4-2.7-1.1-3.5s-1.9-1.1-3.5-1.1h-1.7V23.8z"/>
		<path class="st17" d="M121.1,19.3c0,1-0.2,2-0.6,2.9s-0.9,1.7-1.6,2.4c-0.7,0.7-1.6,1.3-2.5,1.6s-1.9,0.6-2.9,0.6
			c-0.9,0-1.7-0.1-2.6-0.4s-1.6-0.7-2.3-1.3c-0.9-0.7-1.6-1.6-2.1-2.6s-0.7-2.1-0.7-3.2c0-1,0.2-2,0.6-2.9s0.9-1.7,1.7-2.4
			c0.7-0.7,1.5-1.2,2.5-1.6s1.9-0.6,2.9-0.6c1,0,2,0.2,2.9,0.6s1.8,0.9,2.5,1.6c0.7,0.7,1.3,1.5,1.7,2.4S121.1,18.3,121.1,19.3z
			 M113.5,24.1c1.3,0,2.4-0.5,3.2-1.4s1.3-2,1.3-3.4c0-1.4-0.4-2.5-1.3-3.4s-1.9-1.4-3.2-1.4c-1.3,0-2.4,0.5-3.2,1.4
			s-1.3,2.1-1.3,3.4c0,1.4,0.4,2.5,1.3,3.4S112.2,24.1,113.5,24.1z"/>
		<path class="st17" d="M123.7,26.4V12.1h3.2l6.3,8.3c0.2,0.2,0.4,0.6,0.6,1s0.4,0.9,0.7,1.5c-0.1-0.4-0.1-0.8-0.2-1.3s0-0.9,0-1.6
			v-8h2.9v14.3h-3l-6.5-8.5c-0.2-0.2-0.4-0.6-0.6-1s-0.4-0.9-0.7-1.5c0.1,0.4,0.1,0.8,0.2,1.2s0,0.9,0,1.6v8.2H123.7z"/>
		<path class="st17" d="M140.4,26.4V12.1h3.9c1.5,0,2.7,0.1,3.6,0.3s1.7,0.6,2.3,1.1c0.9,0.6,1.5,1.5,2,2.4s0.7,2.1,0.7,3.3
			c0,1.3-0.2,2.4-0.7,3.4s-1.1,1.8-2,2.4c-0.7,0.5-1.4,0.8-2.2,1s-2,0.3-3.5,0.3h-1.1H140.4z M143.4,23.8h1.7c1.6,0,2.8-0.4,3.5-1.1
			s1.1-1.9,1.1-3.5c0-1.6-0.4-2.7-1.1-3.5s-1.9-1.1-3.5-1.1h-1.7V23.8z"/>
		<path class="st17" d="M155.4,26.4V12.1h8.4v2.6h-5.4v2.9h5.4v2.6h-5.4v3.6h5.4v2.6H155.4z"/>
		<path class="st17" d="M173,26.4V12.1h8.4v2.6H176v2.9h5.4v2.6H176v3.6h5.4v2.6H173z"/>
		<path class="st17" d="M183.5,24.6l1.7-1.9c0.2,0.5,0.6,0.9,1,1.2s1,0.5,1.6,0.5c0.7,0,1.3-0.2,1.7-0.5s0.6-0.8,0.6-1.4
			c0-0.7-0.7-1.4-2.1-2c-0.4-0.2-0.8-0.4-1.1-0.5c-1.2-0.7-2.1-1.3-2.6-1.9s-0.7-1.4-0.7-2.2c0-1.2,0.5-2.1,1.4-2.9s2.1-1.1,3.6-1.1
			c0.9,0,1.6,0.2,2.2,0.5s1.2,0.8,1.7,1.4l-1.8,1.7c-0.2-0.4-0.5-0.7-0.9-0.9s-0.8-0.3-1.3-0.3c-0.6,0-1.1,0.2-1.5,0.5
			s-0.6,0.7-0.6,1.2c0,0.8,0.7,1.4,2.2,2.1c0.3,0.1,0.5,0.2,0.7,0.3c1.2,0.6,2.1,1.2,2.7,1.9s0.9,1.5,0.9,2.4c0,1.3-0.5,2.4-1.4,3.2
			s-2.1,1.2-3.7,1.2c-1.1,0-2-0.2-2.8-0.6S183.9,25.3,183.5,24.6z"/>
		<path class="st17" d="M200.9,14.7v11.7h-3.1V14.7h-3.5v-2.6h10.1v2.6H200.9z"/>
		<path class="st17" d="M203.7,26.4l5.4-14.3h3.5l5.5,14.3h-3.5l-1.2-3h-5.5l-1,3H203.7z M212.8,21l-1.6-4.6c0-0.1-0.1-0.4-0.2-0.7
			s-0.1-0.7-0.2-1.2c-0.1,0.5-0.2,0.9-0.2,1.2s-0.1,0.6-0.2,0.7l-1.5,4.6H212.8z"/>
		<path class="st17" d="M218.4,26.4l2.2-14.3h3.2l2.8,8.4c0.1,0.2,0.1,0.4,0.2,0.8s0.1,0.7,0.2,1.2c0.1-0.4,0.1-0.8,0.2-1.2
			s0.1-0.6,0.2-0.8l2.8-8.4h3.2l2.2,14.3h-2.9l-1-8.6c-0.1-0.6-0.1-1.1-0.2-1.4s0-0.6,0-0.9c0-0.1,0-0.3,0-0.3s0-0.1,0-0.2
			c-0.1,0.6-0.2,1-0.3,1.5s-0.2,0.7-0.2,0.9l-3,9.1H226l-3-9.1c0-0.1-0.1-0.3-0.2-0.7s-0.2-0.9-0.4-1.7v0.4c0,0.7-0.1,1.5-0.2,2.4
			l0,0l-1,8.6H218.4z"/>
		<path class="st17" d="M252,19.3c0,1-0.2,2-0.6,2.9s-0.9,1.7-1.6,2.4c-0.7,0.7-1.6,1.3-2.5,1.6s-1.9,0.6-2.9,0.6
			c-0.9,0-1.7-0.1-2.6-0.4s-1.6-0.7-2.3-1.3c-0.9-0.7-1.6-1.6-2.1-2.6s-0.7-2.1-0.7-3.2c0-1,0.2-2,0.6-2.9s0.9-1.7,1.7-2.4
			c0.7-0.7,1.5-1.2,2.5-1.6s1.9-0.6,2.9-0.6c1,0,2,0.2,2.9,0.6s1.8,0.9,2.5,1.6c0.7,0.7,1.3,1.5,1.7,2.4S252,18.3,252,19.3z
			 M244.4,24.1c1.3,0,2.4-0.5,3.2-1.4s1.3-2,1.3-3.4c0-1.4-0.4-2.5-1.3-3.4s-1.9-1.4-3.2-1.4c-1.3,0-2.4,0.5-3.2,1.4
			s-1.3,2.1-1.3,3.4c0,1.4,0.4,2.5,1.3,3.4S243.1,24.1,244.4,24.1z"/>
		<path class="st17" d="M253.7,24.6l1.7-1.9c0.2,0.5,0.6,0.9,1,1.2s1,0.5,1.6,0.5c0.7,0,1.3-0.2,1.7-0.5s0.6-0.8,0.6-1.4
			c0-0.7-0.7-1.4-2.1-2c-0.4-0.2-0.8-0.4-1.1-0.5c-1.2-0.7-2.1-1.3-2.6-1.9s-0.7-1.4-0.7-2.2c0-1.2,0.5-2.1,1.4-2.9s2.1-1.1,3.6-1.1
			c0.9,0,1.6,0.2,2.2,0.5s1.2,0.8,1.7,1.4l-1.8,1.7c-0.2-0.4-0.5-0.7-0.9-0.9s-0.8-0.3-1.3-0.3c-0.6,0-1.1,0.2-1.5,0.5
			s-0.6,0.7-0.6,1.2c0,0.8,0.7,1.4,2.2,2.1c0.3,0.1,0.5,0.2,0.7,0.3c1.2,0.6,2.1,1.2,2.7,1.9s0.9,1.5,0.9,2.4c0,1.3-0.5,2.4-1.4,3.2
			s-2.1,1.2-3.7,1.2c-1.1,0-2-0.2-2.8-0.6S254.1,25.3,253.7,24.6z"/>
		<path class="st17" d="M32.3,44.6l0,0.5l0.1,0.7L32.3,46l-0.2,0.1l0.1,0.2v0.2l-0.2,0.8l0.3,0.2l-0.2,0.5h-0.2l0,0.2l0.1,0.5
			l-0.5,0.2L30.6,49l-0.4,0.2l-0.4-0.1l-1,0.1l-0.5-0.1L28.2,49l-0.5,0.2h-1.1l-0.4-0.2l-0.1-0.2L25.8,49L25,49.1l-0.5-0.2l-0.4,0.2
			l-0.5,0L23.4,49l-0.3,0.3l-0.5,0.2h-0.2l-0.1,0.2l-0.1,0.5l-0.1,1.9l-0.1,0.5l0.3,0.5l-0.1,0.2l-0.4,0.3l0,0.2l0.5-0.1l0.1,0.2
			l0,0.3l-0.2,0.2l0.1,0.2v0.5L21.9,56l0.3,0.2L22.1,57v0.5l0.1,0.5l-0.3,0.1l0.3,1.3l-0.1,0.5L22,60.1l0.3,0.5l-0.1,0.2l0,1.2
			L22,62.3l0.3,0.7l-0.2,0.4l0.1,0.8l0,1l0.1,0.9l-0.1,0.7l0.1,1l-0.3,0.4l0.1,0.2l0.1,0.5l0,1L22,70.2l-0.1,0.5l-0.2,0.2l0.3,0.1
			l0.1,0.2l-0.2,1l0.2,0.1L22,72.5l0,0.2l-0.2,0.1l-0.2,0.4l-0.8,0.1l-0.5-0.2L20,73.4l-1,0l-0.2,0.1l-0.1-0.2l-0.2,0.1l-0.4,0
			l-0.5,0.2h-0.2L17,73.5l-0.2,0l-0.1,0.1l-0.5-0.1l-1.5-0.1l-0.5-0.2L14,73l-0.2-1l-0.2-0.4l0.1-0.9l0-0.5l0.3-0.1l-0.3-0.3l0-0.3
			l0.4-0.2l-0.3-0.7l0.1-0.8l-0.1-0.2l0.2-0.4L13.8,67l-0.2-2l0.4-0.1l-0.3-0.4l0.1-0.4l-0.2-0.4l0.2-0.8l0-0.5l0.4-0.1L13.8,62
			l-0.1-0.5l0.2,0.1l0.2,0.2h0.2l-0.2-0.4l-0.2,0l-0.2-0.6l0-1.1l0.1-0.5l-0.1-0.4l0.2-0.3l0.2-0.2l-0.2-0.4l-0.1-1.2l0.2-0.1
			l0.2-0.4v-0.3l-0.2-0.1l-0.1-0.5L13.5,55l0.2-0.2l0-0.8l0.2,0l-0.1-0.7l0.2-0.1l0.2,0.2l0.1-0.2l0-0.3h0.4l0-0.2l-0.1-0.1
			l-0.2,0.1l-0.2-0.2l-0.2-0.4l0-0.4l-0.4-0.4l0-0.5l0.2-0.6l-0.2-0.4v-0.3L12.7,49l-0.3,0.4h-0.1l-0.1-0.5l-0.2-0.2l-0.2,0.4
			l-0.2-0.3l-0.2,0.1v0.2l-1.1-0.1l-0.5,0l-0.5,0.2l-1.4-0.2l-0.1-0.2l-0.2-0.1l-0.4,0.5L7,49.1l-0.9,0l-0.7,0.3l-0.2-0.2l-1.4-0.3
			l0-0.3l0.4-0.3l-0.2-0.2l-0.5,0.2l0-0.2l-0.1-0.8L3.8,47l-0.1-0.2l-0.1-0.5l0.2-0.7l-0.2-0.4l0-0.5l0.2-0.1l0-0.5L4.2,44L4,43.8
			H3.6l0.1-0.5l0-0.5l-0.1-0.2l0.3-0.6l-0.1-0.2l0.2-0.1h0.3l-0.1-0.5L4.5,41L5,41l0.4,0.2l0.9-0.2h2L8.5,41l0.1,0.2l1.7-0.2
			l0.2,0.1l0.5,0.1l0.5,0l0.5-0.2l0.1-0.1l0.8,0.2h1l0.5-0.2l0.1,0.5l0.2-0.1l0-0.2l0.2-0.1l0.8,0.1l0.5-0.1v0.2l0.1,0.2l0.2-0.1
			l0.2-0.4l0.5,0.1l0.8-0.1L18,41.3h0.5l0.1-0.1l0-0.2l0.5,0.2l0.5-0.2h2.3l0.5,0.1l0.2,0.1l0.4-0.2h2.7l1,0.1l0.2-0.1l0.5,0.1
			l0.5-0.2l1,0.1l1,0l0.4,0.3l0.4-0.3l1.2,0.3l0.4,0.2l0.3,0.6v1.1l-0.1,0.5l-0.1,0.2l0.3,0.5L32.3,44.6z M6.8,44.7v-0.2l-0.2-0.1
			l-0.1,0.2l0.2,0.4L6.8,44.7z M7.8,44.2l-0.2,0l0,0.2l0.2,0.1V44.2z M8.2,47l0.2-0.2l-0.3-0.3l-0.2,0.4L8.2,47z M8.6,45.5H8.4
			l-0.1,0.7h0.4V45.5z M8.7,44.9l0.2,0l0.1-0.2H8.6L8.7,44.9z M9.2,43.8v-0.2L9,43.3l-0.1,0.5L9.1,44L9.2,43.8z M9.5,44.3h0.2v-0.2
			H9.5V44.3z M9.9,45.3l-0.2,0v0.2h0.2L9.9,45.3z M10.2,43.2h0.2v-0.5l-0.2,0L10,42.8l0,0.2L10.2,43.2z M10.8,45.6h-0.4l-0.1,0.2
			l0.4-0.1l0.2,0.2V45.6z M11,43.8l0.2,0.1l0.2-0.1l-0.3-0.1l-0.2,0L11,43.8z M11.2,44.5h-0.2l0,0.2l0.2,0V44.5z M11.4,47.4l0.1-0.2
			l-0.2-0.1v0.5L11.4,47.4z M12.4,44.3v-0.4l-0.2-0.1L12,44.1l0.1,0.3L12.4,44.3z M12.3,43.3l0.2,0.1l-0.1-0.2L12.2,43L12.3,43.3z
			 M12.7,41.9l-0.2-0.1l-0.2,0.1l0.5,0.2L12.7,41.9z M12.8,47l0-0.3l-0.2-0.2l-0.2-0.1l0.1,0.7l0.1,0.2L12.8,47z M13.2,44.8l0.1-0.2
			l-0.2-0.1l-0.2,0v0.2H13.2z M13.6,43.9l0.1-0.2l-0.1-0.3l-0.2,0.1l-0.1,0.5l0.1,0.1L13.6,43.9z M13.4,42.8l0.2,0l0.1-0.2h-0.4
			L13.4,42.8z M14,65.5l-0.2-0.2v0.2H14z M14.2,66.1L14,66v0.2l0.2,0.1L14.2,66.1z M14.7,48l-0.3,0l-0.2,0.2l0.4,0.1L14.7,48z
			 M14.9,43.1l0-0.2l-0.1-0.2l-0.3-0.1L14.5,43l0.1,0.2l0.2,0.1L14.9,43.1z M15.2,49.7l0-0.3L15,49.4l-0.2,0.2H15.2z M15,45.5l0,0.3
			l0.2,0.1l0.1-0.2l0-0.3L15,45.5z M15.1,52.2l0.2,0.2l0.3,0l0-0.2L15.4,52l-0.2,0L15.1,52.2z M15.3,43.5l0,0.2l0.3,0.1l0.2-0.2
			l0-0.2l-0.3-0.1L15.3,43.5z M15.4,44.8v-0.1h-0.2v0.1H15.4z M15.3,48.4v0.2h0.2l0.1-0.2l-0.1-0.1L15.3,48.4z M15.8,68.2l0.2-0.1
			l-0.1-0.2L15.5,68l-0.1,0.1l0.2,0.2L15.8,68.2z M15.6,46.3l0.3,0l0.2-0.2L15.7,46l-0.2,0.1L15.6,46.3z M15.9,51.3l0.1-0.2v-0.2
			l-0.2-0.1l-0.1,0.5L15.9,51.3z M15.8,60l0.2,0.2v-0.2L15.8,60z M15.9,64h0.3l0-0.2L16,63.6h-0.2v0.3L15.9,64z M15.8,42.7l0.2,0.2
			l0.2,0l-0.2-0.3L15.8,42.7z M16,48.6l-0.2,0.2l0.2,0.2l0.2-0.2L16,48.6z M16,57.7l0.2,0l-0.2-0.2L16,57.7z M16.3,54.3V54h-0.2
			l-0.1,0.2l0.1,0.2L16.3,54.3z M16.3,62.3h-0.2l0.1,0.2l0.3-0.2L16.3,62.3z M16.5,66.5l0.3-0.3l-0.2-0.1h-0.2l-0.2,0.1l0.1,0.3
			H16.5z M16.2,45.1l0,0.2h0.3l0-0.3l-0.2-0.2L16.2,45.1z M16.5,51.7l0.2,0.1l0.2-0.1l0.1-0.2l-0.2-0.1l-0.5,0.1L16.5,51.7z
			 M16.8,47.7l-0.1-0.2l-0.2,0l0,0.2l0.1,0.5l0.2,0.1l0.3-0.5L16.8,47.7z M16.4,44.5l0.2,0l0.1-0.2h-0.3V44.5z M17.1,46.8l-0.3,0
			l0,0.2l0.2,0l0.2-0.1L17.1,46.8z M17.3,50.6v-0.2l0.1-0.2l-0.2-0.1l-0.3,0l0.1,0.5l0.2,0.2L17.3,50.6z M16.9,60.5l0.2,0.1l0.1-0.2
			L17,60.3L16.9,60.5z M17.2,67.5L17,67.4l-0.1,0.2l0.2,0.1L17.2,67.5z M17.3,63.1L17.2,63l-0.1,0.1H17.3z M17.2,45.9l0.1-0.1
			l-0.1-0.1V45.9z M17.6,49.6l-0.2-0.1l0,0.2l0.2,0.1L17.6,49.6z M17.6,53.6l-0.2-0.1v0.2L17.6,53.6z M17.7,70.7l-0.2-0.1v0.1H17.7z
			 M17.7,43.7l-0.2,0.1l0.3,0.2l0.1-0.1l0-0.2H17.7z M17.7,42.5l0.1,0.2l0.1-0.3L17.7,42.5z M17.9,64.6l0.1-0.1l-0.2,0l-0.1,0.2
			L17.9,64.6z M18,46.8l-0.2,0V47H18L18,46.8z M18.2,51.1l-0.4,0l0.1,0.2l0.5,0.1l0.1-0.2L18.2,51.1z M17.8,65.1H18L18,64.9
			l-0.2-0.1V65.1z M17.9,59.9l0.2-0.2H18L17.9,59.9z M18.1,68.7l0.2-0.1l0-0.2l-0.2-0.1L18,68.7H18.1z M18.1,42.6l0.1,0.2l0.1-0.3
			L18.1,42.6z M18.3,49.6l-0.2,0.1l0.1,0.5l0.2,0.2l0.2-0.6L18.3,49.6z M18.4,54l0.2-0.2l-0.2-0.1l-0.2,0L18.1,54L18.4,54z
			 M18.5,45.3l-0.2-0.1l-0.1,0.1l0.4,0.1l0.2-0.1v-0.1L18.5,45.3z M18.3,57.9v-0.2h-0.1v0.2H18.3z M18.5,69.9h-0.2v0.2h0.2V69.9z
			 M18.5,49v0.2l0.2,0.1l0.2-0.2l-0.1-0.2L18.5,49z M19,52.6l-0.1-0.2l-0.2-0.1l0.1,0.5l0.2,0.1L19,52.6z M18.8,56.7l-0.2-0.1v0.2
			L18.8,56.7z M19.1,43.1l-0.2,0.1v0.2h0.4l0.1-0.2L19.1,43.1z M19,50.7l0.2,0l0-0.2H19L19,50.7z M19.4,63.6l0.2,0.1v-0.2l-0.1-0.2
			l-0.2,0l-0.1,0.1L19.4,63.6z M19.4,46l-0.1,0.2l0.2,0l0.1-0.1L19.4,46z M19.5,54.6v-0.2h-0.2v0.2H19.5z M19.5,58.6h0.2l0.1-0.2
			h-0.2V58.6z M19.5,67.1L19.5,67.1l0.2,0.1L19.5,67.1z M20,44.7l-0.2,0l-0.2,0.1l0.4,0.1V44.7z M19.6,49.4l0,0.2l0.2-0.1l0-0.3
			h-0.2L19.6,49.4z M20,69.4l-0.1-0.2l-0.2-0.1v0.3l0.1,0.2l0.2,0.1V69.4z M19.7,60.8l0.3,0.1v-0.2L19.7,60.8z M19.8,57.4l0.2,0.1
			v-0.2L19.8,57.4z M20.1,47.4L20,47.2l-0.2,0.1L20.1,47.4z M20.1,43.7L20,43.8l0,0.2l0.2,0l0.1-0.4L20.1,43.7z M20,51.5l0.2,0
			l0.1-0.2l-0.2-0.1l-0.3,0L20,51.5z M20.1,64.9l0.1-0.1H20L20.1,64.9z M20.2,60.3l0.2-0.2L20.2,60L20,60.2L20.2,60.3z M20.2,42.8
			l0.1-0.2l-0.2,0.1L20.2,42.8z M20.2,50.2l0.2,0l-0.1-0.2L20.2,50L20.2,50.2z M20.6,46.1l-0.1-0.2h-0.2l0.1,0.4l0.2,0V46.1z
			 M20.5,41.6l0.1,0.2l0.2,0.1l0.1-0.2l-0.1-0.2l-0.2-0.1L20.5,41.6z M21,44.2h-0.2l-0.1,0.2h0.3L21,44.2z M21.3,46.7l-0.2-0.2
			L21,46.7l0.1,0.2l0.2,0.1L21.3,46.7z M21.6,46l0.2,0.1l0-0.3l-0.2-0.1L21.6,46z M22,51.8l-0.4-0.1l0.1,0.2l0.2,0.1L22,51.8z
			 M22,45.1l0.2-0.2l-0.2-0.1L21.8,45L22,45.1z M22.3,46.2h-0.1v0.1h0.1V46.2z M23,45.2l-0.2-0.1v0.2l0.2,0.1L23,45.2z M23.2,43.2
			l0.2,0.1h0.5l0.1-0.2L23.8,43l-0.3,0L23.2,43V43.2z M23.5,45.7l0.2,0.2l0.3,0.1l0-0.4l-0.3-0.2L23.5,45.7z M24.6,43.8l-0.5-0.2
			L24,43.8l0.3,0.3l0.2,0L24.6,43.8z M24.4,45l0-0.3l-0.2-0.1l-0.1,0.2l0.1,0.2L24.4,45z M25.6,44.3h0.1l0.1-0.2h-0.2V44.3z
			 M25.9,46.2l0.2,0l0.1-0.2l-0.2-0.1h-0.2l-0.1,0.2L25.9,46.2z M26.7,43.6l-0.2,0.3h0.4L26.7,43.6z M26.6,43.1h0.1v-0.2h-0.1V43.1z
			 M27,45.7l0.1,0.2l0.3,0l0-0.2l-0.2-0.2l-0.2,0V45.7z M28.5,46l-0.2-0.1l0,0.2l0.1,0.2l0.2,0L28.5,46z M28.5,45.5l-0.2,0.1
			l0.1,0.1h0.2L28.5,45.5z M29.2,44.3V44H29l-0.1,0.2l0.2,0.1L29.2,44.3z M31.4,46.8l-0.2-0.2v0.2L31.4,46.8z"/>
		<path class="st17" d="M68.9,53.2l0.1,0.7l-0.1,0.5l-0.2,0.4l0.2,0.5l-0.4,1.4l-0.2,0.1l0.1,0.5l-0.5,1.1l-0.5,0.8l-0.2,0.1l-0.2,0
			l0,0.2l0.2,0.1l-0.5,0.6l-0.2,0.1l0,0.3l-0.4,0.6l-1.1,1l-0.5,0l0.1,0.2l-1.2,1l-0.2,0.1l0.1,0.3L63,64.1l0.4,0.5l0,0.2l0.7,0.7
			l0.2,0.5l0.5,0.2l0.3,0.6l0.4,0.3v0.5l0.2,0.1l0.3,0.3l0.5,0.8l0.3,0.3l0.2,0.1l0.1,0.8l0.2,0.1l0.3,0.4l0.4,0.3l0.2,0.5l0.7,0.9
			l0.1,0.2l-0.5,0.8l-1,0.1l-0.5,0.2l-0.7-0.1h-3.1l-1.4-0.1l-0.5,0.2l-1.5-0.3l-0.5-0.2L59.4,73v-0.2L59,72.7l-0.4-0.5l-0.2-0.5
			L57.7,71l-0.2-0.5l-0.2,0l0-0.3L57,69.8l-0.4-0.2l0-0.2l-0.7-1.2l-0.4-0.3l-0.2-0.3l0.2,0l0-0.2l0.1-0.2l-0.4-0.2L55,66.8
			l-0.1-0.2l0.2-0.2L55,66.1l-0.8-0.2l-0.2-0.3l0.3-0.3L54,64.9L53.7,65l-0.1-0.4L53.3,65l-0.6-0.2h-0.5L52,64.9l-0.3-0.1l-0.1-0.2
			l-0.2,0.2l-0.3,0.1l-1-0.4L50,64.7l0,0.3l-0.2,0.1l-0.3,0.4l-0.4,1.2l0.3,0.4l-0.1,0.2v0.6l0.1,0.2l-0.2,0.2v0.8l-0.1,0.2
			l-0.2,0.1l0.3,0.2l0.1,0.2l-0.2,0.2l0.2,0.5l0,0.7l-0.1,1.5l-0.5,0.1l0.1,0.5l-0.3,0.1l-1,0.2l0.4-0.5L47.6,73l-0.3,0l-0.2,0.1
			l0.2,0.3l-0.9-0.1l-1,0l-0.5,0.1l-0.1-0.3l-0.7,0.2h-0.9l-0.6,0.1l-0.1-0.4l-0.4,0.3l-0.3,0l-0.4-0.3l-0.3-0.4L40.9,72v-0.5L41,71
			l0.2-0.4L41,70.4L40.9,70l-0.1-0.2l0.4-0.5l-0.1-0.2l-0.3-0.2l0.2-0.8l0.1-1l-0.1-0.2l-0.1-0.7l0.2-0.4l-0.1-0.2l-0.1-0.5l0-0.5
			l0.2-1L41,63.5l-0.2-0.2l0.2-1l0.1-0.2l-0.1-0.4l-0.1-1.1l0.1-0.5l0.2-0.4l0.2-0.1l-0.1-0.2l-0.3-0.2L41,59l0.2-0.1l-0.4-0.3
			l-0.1-0.5l0.1-0.8l0-0.5l-0.1-0.2l0.1-1.1l-0.1-0.2l0.2-0.5V54l0.1-0.5l-0.1-0.2l-0.1-0.5L41,52l-0.2-0.5l0.2-0.7l0-0.5l-0.1-0.2
			l0.3-1.3l-0.3-0.7l0.4-0.2v-0.2L40.7,47l0.2-0.5l0.2-1l0-0.2L40.8,45l0.1-0.7l-0.1-1l0-0.2l0.2-0.4l-0.2-0.4l0-0.2l0.3-0.5v-0.3
			l0.7-0.2l0.5-0.1l0.5,0l0.5,0.2l0.4-0.2l0.5-0.1l0.2,0.2l0.2-0.2H45l0.4,0.2l0.7-0.2l0.5,0.1l0.2,0.2l0.5-0.2l0.5,0l2,0.1l0.5-0.1
			l0.2,0.1l0.3,0l0.2,0.1l0.4-0.2l0.3,0l0.2,0.1h0.3l0.2-0.1l0.2,0.2l0.1,0.2l0.7-0.2l0.2,0.1l0.5-0.2h1.5l0.5-0.1l0.2,0.1l0.1,0.2
			l1-0.3h0.6l0.5,0.1l0.4,0.3l0.3-0.3l0.9,0.3v0.5l0.5-0.5l0.4,0.3l0.5,0.1l1,0.1l0.2,0.1l0.2,0.5l0.4-0.1l1.1,0.5l0.1,0.2l0.5,0.1
			l-0.1,0.5l0.3,0l0.5,0.2l0.3,0.4l0.4,0.3l0.2,0.1l0,0.3l0.2,0.4l0.5,0.7l0.1,0.5l0.1,0.2l0.4,0.2l0.3,1.5l0.2,0.5l0.3,0.4v0.3
			l0.2,1l0,0.6l0.1,0.2l0.1,0.8L69,52.8L68.8,53L68.9,53.2z M42.3,48.6l0.1,0.2h0.2l0-0.4l-0.2,0V48.6z M42.5,61.2h-0.2v0.2h0.2
			L42.5,61.2z M42.3,63.6l0.3,0.2l0-0.2l-0.3-0.2L42.3,63.6z M42.3,45.3h0.2v-0.2h-0.1L42.3,45.3z M42.6,59.9v-0.2h-0.1v0.2H42.6z
			 M42.8,56.1L42.6,56l0,0.2l0.2,0L42.8,56.1z M42.6,57.4l0.2,0.1l0.1-0.2l-0.2-0.2l-0.2,0.1L42.6,57.4z M43.3,49.4l-0.2,0.1
			l0.1,0.1h0.2L43.3,49.4z M43.4,45.8l0-0.2l-0.2-0.1l-0.1,0.3H43.4z M43.8,48.1l-0.2,0.1l-0.1,0.2l0.3,0l0.2-0.2L43.8,48.1z
			 M43.5,52.2l0.2,0l0.1-0.1l0-0.2l-0.4-0.1V52.2z M44,56.7l-0.1-0.2l-0.2-0.1l-0.1,0.2l0.1,0.2l0.2,0.1L44,56.7z M43.5,44.8
			l0.2-0.1l-0.2-0.1V44.8z M43.7,47.5l0.3,0.1l0.2-0.1l-0.4-0.2l-0.2,0.1L43.7,47.5z M43.7,65.2h-0.2v0.2h0.2V65.2z M43.6,68.1
			l0.1,0l-0.2-0.2L43.6,68.1z M44.1,55.8L44,55.7v0.2L44.1,55.8z M44.3,50.9l0-0.2H44V51l0.2,0L44.3,50.9z M44.5,62.3l0.2-0.1
			l-0.1-0.4l-0.2-0.1l-0.2,0l-0.1,0.7l0.2,0.1L44.5,62.3z M44.2,41.6l0.1,0.2l0.1,0L44.2,41.6z M44.4,44.7L44.3,45l0.1,0.2l0.2,0.1
			V45l-0.1-0.2H44.4z M44.4,44.2l0.2-0.1l-0.2-0.1V44.2z M44.7,57.3l-0.2-0.1v0.2L44.7,57.3z M44.8,51.3l-0.2,0l0.1,0.2l0.2,0
			L44.8,51.3z M45.1,64.6l-0.2-0.1l-0.2,0l0,0.2h0.5L45.1,64.6z M45.1,67.5l0-0.2l-0.3,0l-0.1,0.1l0.3,0.3l0.2,0L45.1,67.5z
			 M45,68.7h-0.2l0.1,0.2l0.2,0L45,68.7z M44.9,56v0.2H45l0-0.2L44.9,56z M45,47.8l0,0.2l0.2-0.1l-0.1-0.2L45,47.8z M45.2,58.6
			L45,58.7L45,58.9l0.2,0.1l0.2,0l0.1-0.2l0-0.2L45.2,58.6z M45.4,62.8l-0.2-0.1l-0.2,0l0.1,0.2l0.2,0.1L45.4,62.8z M45,46.9h0.3
			v-0.1H45V46.9z M45.3,49.2l0.1,0.2l0.2,0v-0.3L45.3,49.2z M45.5,66.5h-0.1v0.2h0.1V66.5z M45.5,48.4L45.5,48.4l0.2,0.1l0.1-0.1
			l-0.1-0.2l-0.2,0V48.4z M45.5,65.6l0.2,0.1l0.1-0.2l-0.2-0.1L45.5,65.6z M45.5,43.8l0.2,0l0.1-0.2l-0.1-0.2h-0.2V43.8z M46,53.2
			v-0.3h-0.2l-0.2,0.5l0.2,0.2L46,53.2z M45.9,44.6v-0.2l-0.2-0.1l-0.1,0.4L45.9,44.6z M45.8,68.3l0.1-0.1h-0.2L45.8,68.3z
			 M46.2,64.5L46.1,64L46,63.8l-0.2,0.4l0.1,0.4l0.2,0.1L46.2,64.5z M45.8,60.7v0.2H46v-0.2H45.8z M46.1,47.8L46,47.7L46,48
			L46.1,47.8z M46.1,47.2l0.2,0.1v-0.2L46.1,47.2z M46.4,63.4l-0.2-0.1l0,0.2l0.2,0.2L46.4,63.4z M46.4,67h-0.2v0.2h0.2V67z
			 M46.6,58.4l0.2,0.1l0.1-0.2l-0.2-0.2l-0.2,0.2L46.6,58.4z M46.5,56.9l0.1,0.3l0.1-0.3H46.5z M46.8,65.1l0.2,0L46.9,65l-0.2-0.1
			L46.6,65L46.8,65.1z M46.8,56.4l0.2,0l-0.1-0.2l-0.2,0L46.8,56.4z M46.9,61.1l-0.2,0l0.1,0.3l0.2-0.1L46.9,61.1z M47.2,68.3
			L47,68.1l-0.2-0.1l0,0.2l0.1,0.2l0.3,0.1V68.3z M47,60.6l0.2-0.2l0-0.2l-0.2,0.1l-0.2,0.5L47,60.6z M46.9,44.2l0.1,0.2l0.2-0.1
			v-0.2L47,44L46.9,44.2z M47.3,63.9l0.1-0.2l-0.2-0.1L47,63.7l0,0.3L47.3,63.9z M47.5,50.4h-0.2l0,0.2l0.2,0V50.4z M47.9,65.5
			l0.1-0.2l0-0.2l-0.2,0l-0.1,0.3l0.1,0.2L47.9,65.5z M47.7,48.6l0.2,0l0.1-0.2l-0.1-0.1h-0.2L47.7,48.6z M47.7,57.9h0.2v-0.3h-0.2
			V57.9z M48.2,47.9L48,47.8v0.2L48.2,47.9z M48.1,43.9l0.3,0l0-0.2l-0.3-0.1V43.9z M48.2,42.4l-0.1,0.2l0,0.2l0.2,0l0.1-0.1v-0.3
			L48.2,42.4z M48.4,58.5l0.2,0.1l-0.1-0.2l-0.2-0.1L48.4,58.5z M48.5,50l-0.1-0.1v0.2l0.1,0.1V50z M48.6,61.3l0.2,0.1l0.2,0
			l-0.1-0.3L48.7,61l-0.2,0L48.6,61.3z M49,63.8l0.1-0.2l-0.2-0.1l-0.2,0.2l0.1,0.2L49,63.8z M49.4,60.1l0.2-0.1l0.1-0.2H49l0,0.3
			L49.4,60.1z M49.1,46.8l0.4,0l-0.3-0.4l-0.1-0.2V46.8z M49.4,62.8h-0.2V63h0.2V62.8z M54.9,57.2l0.2,0.1l0.8-0.1l0.5,0.1l0.2-0.2
			l0.5-0.2h0.5l0.2,0.1l1.3-0.7l0.7-0.7l0.2-0.5l0.4-0.3v-0.3l0.1-0.2l0.3-0.4l-0.2-2.5l-1.5-1.8l-0.2-0.1L58,48.8l-0.5,0.1
			l-0.1-0.2l0-0.4h-0.2v0.5l-0.5-0.2l-0.4,0.2l-0.5-0.2l-1,0.1l-0.5-0.1l-0.5,0.2l-0.2-0.1l-0.6,0l-0.2,0.1l-0.5-0.4l-0.3,0.2
			l-0.3-0.1L51,48.7l-1,0l-0.6,0.9v2.8l0.2,0.5l-0.1,0.7v3l1,0.5l0.9-0.1l0.5,0.1l0,0.2l0.1,0.2l0.4-0.4l0.2,0.1l0.1-0.2l0.2-0.1
			h0.6l0.3-0.1l0.4,0.2l0.5,0l0.2-0.2L54.9,57.2z M49.5,58.9l0,0.2l0.2,0l0-0.2l-0.2-0.1L49.5,58.9z M49.5,43.3h0.2l0.1-0.2L49.6,43
			L49.5,43.3z M49.9,62.8h-0.2V63h0.2V62.8z M50.1,61.5h-0.2v0.2l0.2,0V61.5z M50.3,47.2l0.1,0.1l-0.1-0.3L50.3,47.2z M51.2,62.5
			l0.1-0.2l-0.1-0.2l-0.2,0l-0.1,0.2l0,0.2l0.2,0.1L51.2,62.5z M50.9,45.3l0,0.2l0.2,0l0.1-0.2l-0.2-0.3L50.9,45.3z M51.3,61.6
			l0.2-0.3l-0.1-0.2L51.2,61l-0.1,0.1l0,0.5H51.3z M51.3,60.2l0.2,0l0.1-0.2L51.3,60V60.2z M52.5,43.6l-0.2,0l0.1,0.3l0.2,0.2
			l0.1-0.4L52.5,43.6z M52.9,46.1l-0.2,0l0.2,0.5l0.4-0.2v-0.3l-0.1-0.2L52.9,46.1z M52.8,59.9H53l0-0.2l-0.2,0l-0.2,0.1L52.8,59.9z
			 M53,48l-0.1,0.2h0.2V48H53z M53.1,63.1H53v0.1h0.1V63.1z M53.2,45.5l0.2,0.1l-0.2-0.2V45.5z M53.8,61.5l0.2-0.1l0-0.2h-0.7
			l0.3,0.5L53.8,61.5z M53.6,44.3l0.1,0.2l0.2-0.4L53.6,44V44.3z M54,46l0.1,0.1l0.2,0l0.1-0.2l0-0.3l-0.3-0.1l-0.2,0.1L54,46z
			 M53.9,46.9h0.2L54,46.6L53.9,46.9z M54.4,62.9l0-0.2l-0.2-0.2l-0.2,0.1l0.1,0.5l0.1,0.2L54.4,62.9z M54.7,61.9v-0.2h-0.2v0.2
			H54.7z M54.9,64.6l-0.2,0v0.2H55L54.9,64.6z M55,42.4l-0.1,0.3l0.3,0l0.1-0.2L55,42.4z M55,60.3l0.3-0.3l0.1-0.2l-0.1-0.2
			l-0.2-0.2l-0.3,0.9L55,60.3z M55.3,63.4H55v0.2h0.2V63.4z M55.7,45.2l-0.5,0.1l0.2,0.5l0.2,0l0.2-0.4L55.7,45.2z M55.7,62.3
			l0.1-0.2l-0.2-0.3v-0.5l-0.1-0.2h-0.2v0.2l0.1,0.2l-0.2,0.9l0.3,0.1L55.7,62.3z M55.5,62.6l-0.2,0.2l0.2,0.1V62.6z M55.4,42h0.1
			v-0.2h-0.1V42z M55.9,43.8l0.2,0v-0.3l-0.3,0.1L55.9,43.8z M56.6,59.1h-0.3l0,0.2l0.2,0L56.6,59.1z M56.6,44.8v0.3h0.2l0.1-0.5
			h-0.2L56.6,44.8z M57,65.7l0.1-0.2l-0.2-0.1l-0.2,0.2l0.2,0.2L57,65.7z M56.8,61.8V62l0.2,0.1v-0.3L56.8,61.8z M57,60.9l0.1-0.2
			h-0.2l0,0.2L57,60.9z M56.9,63.5l0.2,0.2l0.2,0.1l0.2-0.1l-0.3-0.4l-0.2,0L56.9,63.5z M57.2,47.2L57,47.5l0.2,0.1l0.2,0l0.1-0.2
			L57.2,47.2z M57.2,64.7l0-0.2l-0.2-0.1L57,64.5l0,0.2L57.2,64.7z M57.4,46.4v0.3l0.2,0v-0.3H57.4z M58.1,60l-0.2,0l-0.2-0.2
			l0.1-0.2l-0.2-0.2l-0.2,0.7l0.2,0.1l0.5,0L58.1,60z M57.7,67.1l-0.3,0.1l0.3,0.1V67.1z M57.9,66.2L57.7,66l-0.2,0l0.1,0.5l0.2,0.1
			L57.9,66.2z M57.7,45.8l0.6-0.5l-0.7,0.1L57.7,45.8z M57.8,44.3l-0.1,0.2l0.1,0.2l0.2,0.1l0.1-0.2v-0.3L58,44.2L57.8,44.3z
			 M57.7,58.6l0,0.2l0.1,0.1L57.7,58.6z M57.9,61.1l0.2,0.3l0.1-0.5L58,60.9L57.9,61.1z M58.4,65l-0.2-0.1L58,65.1l0.1,0.2l0.2,0
			L58.4,65z M58.1,67.7H58v0.2h0.1V67.7z M58.2,47.1h0.2l0.2-0.1l0-0.2l-0.2-0.1l-0.3,0.1L58.2,47.1z M58.2,60.5l0.2,0.1l-0.1-0.2
			l-0.3-0.1L58.2,60.5z M58.7,45.6l-0.2-0.2l-0.2,0.1l0.1,0.2l0.4,0.2L58.7,45.6z M58.7,64l0-0.2l-0.2,0L58.4,64l0.2,0.2L58.7,64z
			 M58.9,66.6h-0.2l-0.1,0.2H59L58.9,66.6z M58.9,58.4l-0.1-0.1l-0.1,0.2l0.2,0.2L58.9,58.4z M58.9,61.9l0.2,0.2l0.2,0l0.2-0.4
			l-0.5,0l-0.2,0.1L58.9,61.9z M59.1,43.8l0.2,0.1l0.2-0.1l0-0.2H59L59.1,43.8z M59.4,60.6l-0.2,0.4l0,0.2l0.2,0l0.2-0.4v-0.2H59.4z
			 M59.3,69.3h-0.2v0.2h0.2V69.3z M59.3,59.7l0.1,0.2l0.2,0.1l0.1-0.5l-0.5-0.1V59.7z M59.5,68.6h-0.2l0.2,0.2V68.6z M59.5,46.3
			l-0.1,0.2l0.1,0.2l0.2,0.1l0.3-0.5l-0.2-0.1L59.5,46.3z M59.5,67.3l0.2,0l-0.1-0.2l-0.2,0.1L59.5,67.3z M59.8,63.8l-0.2-0.1
			l-0.1,0.2l0.2,0.2L59.8,63.8z M59.8,62.5l0.2,0.2h0.2v-0.2l-0.3-0.2h-0.2L59.8,62.5z M59.8,58.6v0.3H60v-0.3H59.8z M59.9,45.8
			l0.1,0l0-0.2L59.9,45.8z M60,57.7v0.1h0.2L60,57.7z M60.3,44.5l-0.2,0.2l0.1,0.2l0.2-0.1l0.1-0.2L60.3,44.5z M60.4,69l0-0.2
			l-0.3,0.1l0.1,0.2L60.4,69z M60.2,43.1l0.2,0v-0.2h-0.2L60.2,43.1z M60.5,68.1l0.1-0.2l-0.2-0.2l-0.2,0l0.1,0.4H60.5z M60.7,64.1
			L60.5,64l-0.2,0l0.1,0.2L60.7,64.1z M60.5,59.4l0.2,0l0.1-0.2l-0.2-0.1l-0.2,0L60.5,59.4z M60.6,60.3l0.1,0.2l0.2-0.5h-0.2V60.3z
			 M60.6,45.9l0.1,0.5H61l0.2-0.4l-0.1-0.2l-0.4-0.1L60.6,45.9z M61,62.8l0-0.1l-0.2-0.1v0.2H61z M61.3,61.9l-0.1-0.2l-0.2,0l0,0.3
			l0.2,0.2L61.3,61.9z M61.1,45.5l0.2,0l0-0.2H61L61.1,45.5z M61.5,64.8v-0.5L61,64.4l0,0.3l0.1,0.2l0.2,0.1L61.5,64.8z M61.4,65.7
			l-0.2-0.4H61v0.4l0.2,0.2l0.2,0V65.7z M61.4,48.4l-0.3,0.3l0.3,0.3l0.2-0.3v-0.3L61.4,48.4z M61.4,57.1h0.1l-0.1-0.2L61.4,57.1
			L61.4,57.1z M61.8,58.6l-0.1-0.2l-0.2,0l0.1,0.2l0.2,0.2l0.2,0L61.8,58.6z M61.8,63.5l-0.2-0.1l-0.2,0l0.1,0.2l0.2,0.1L61.8,63.5z
			 M62,67.5l0-0.4l-0.4,0.1v0.2l0.4,0.3L62,67.5z M62.1,45.2l-0.3,0.1l-0.1,0.2l0.4,0.3l0.2,0.1v-0.6L62.1,45.2z M62,59.7v-0.2h-0.2
			v0.2H62z M62.3,61.1L62,61l-0.1,0.2l0.1,0.3h0.3l0.2-0.2L62.3,61.1z M62.2,46.9l0-0.2L62,46.5l0,0.4L62.2,46.9z M62.3,62.2H62
			l0,0.2l0.2,0L62.3,62.2z M62,52.8V53l0.2,0.1L62,52.8z M62.6,47.9L62.3,48l-0.2,0.2l0.3,0.2l0.2,0l0.2-0.5L62.6,47.9z M62.6,60.2
			v-0.2L62.3,60L62.6,60.2z M62.8,56.2h-0.4l0,0.3l0.2,0L62.8,56.2z M62.8,68.5l0.2-0.2l0-0.3l-0.2,0.1l-0.2,0.5L62.8,68.5z
			 M63,51.2l0.2-0.2l0.1-0.2L63,50.5l-0.2,0l0.1,0.5l-0.2,0.2L63,51.2z M62.9,49.4v0.2l0.2,0.1l0.1-0.2l0-0.2L63,49.2L62.9,49.4z
			 M63.3,53.8l0.2-0.1v-0.2l-0.2,0.1l-0.1,0.2L63.3,53.8z M63.2,45v0.2l0.2-0.1l0-0.2l-0.2-0.1L63.2,45z M63.5,52.1v-0.2h-0.2v0.3
			L63.5,52.1z M63.5,47.8h0.2l0.2-0.1l0-0.3l-0.5,0l-0.2,0.2v0.3L63.5,47.8z M63.5,60.7v-0.2l-0.2,0.2l0.1,0.2L63.5,60.7z M63.9,55
			l-0.2,0.2H64L63.9,55z M63.9,50.4l0.1,0.2l0.2,0.1l0.3-0.5L64.3,50l-0.2,0l-0.2,0.1l-0.1,0.2L63.9,50.4z M64,51.3l-0.2-0.1v0.2H64
			L64,51.3z M64.3,57.7l0.2-0.1v-0.2h-0.3l-0.1,0.2L64.3,57.7z M64.2,49l0,0.2l0.2-0.1v-0.2l-0.2-0.1L64.2,49z M64.7,53.2l0.2-0.2
			l0-0.2l-0.4,0v0.5L64.7,53.2z M65.2,55.6L65,55.5l-0.2,0l-0.2,0.4l0.5,0.1V55.6z M65,47.1l-0.2,0.1h0.4l0-0.2l-0.1-0.1L65,47.1z
			 M65.6,49.6l-0.2-0.1L65,49.6l-0.1,0.2l0.3,0.1l0.5,0L65.6,49.6z M64.9,54l0,0.2l0.1,0.2l0.3,0.3l0-0.2L65.2,54H64.9z M65.5,58.5
			l0.2,0L65.6,58l-0.2-0.1l-0.1,0.5L65.5,58.5z M65.4,56.9l0,0.2l0.2-0.2l-0.2-0.2L65.4,56.9z M65.4,48.6v0.2h0.3l0-0.3l-0.2-0.1
			L65.4,48.6z M65.7,53.6l-0.2,0v0.2h0.2L65.7,53.6z M65.9,51.3l0.2,0.2l0.2,0l-0.2-0.2l0-0.3l-0.2-0.1l-0.2,0.5L65.9,51.3z
			 M66.1,52.6v-0.3h-0.2l-0.1,0.2l0.1,0.2L66.1,52.6z M66.3,49.3l0.2,0l-0.3-0.2L66.3,49.3z M66.5,53.9l-0.2-0.2L66.2,54l0.2,0.1
			L66.5,53.9z M67.4,52l-0.2-0.1l-0.1,0.2l0.2,0.1L67.4,52z"/>
		<path class="st17" d="M81.1,41.2l0.2-0.1l0-0.2l1,0.1l2.2-0.1l1,0.1l0.9,0.4l0.2,0.2l0,0.5l0.1,0.2l-0.2,1.4l0.2,1.9L86.5,46v0.7
			l0.1,0.3l-0.2,0.1l-0.1,0.1l-0.1,0.2h0.5l-0.1,0.5l-0.2,0.4l0.2,0.2l-0.1,0.2l0.1,0.7L86.3,50l0.1,0.4l0,2l0.1,1l-0.1,0.2
			l-0.2,0.1l0.3,0.8l-0.1,0.2l0,0.8l-0.2,0.2l0.1,0.2l0.1,0.7l-0.1,0.2L86.3,57l0.3,0.9v0.5l-0.2,0.5l0.3,0.3l-0.1,0.5l0.1,1
			L86.5,61l0.2,0.1l0.1,0.5l0.2,0.1V62l0.2,0.5l0.9,1.6l0.7,0.4l0.1,0.5l2.8,0.9l0.8,0.1l0.1,0.3l0.1-0.2v-0.2l0.3,0.1h0.5l0.2-0.1
			h0.5l0.2,0.1l0.2-0.2l0.5-0.2l0.3,0l0.4-0.1l1.1-0.9l0.3,0l0.2-0.1l0.2,0l0.1-0.5l0.6-0.8l0.4,0.2l0.1-0.2v-0.3l0.2-0.5l0.2-0.2
			h-0.5l0.4-0.9l0.3-1.5l0.1-0.2l-0.2-0.5l0.1-0.2l0.1-0.9l0.2-0.8l-0.2-0.3l0.1-0.3l0.2-0.2l-0.1-0.2l-0.2,0l0-0.5l0.1-0.5l0.4-0.1
			l0-0.2l-0.5-0.4l0.2-0.5l-0.1-0.3l0.1-0.3L99.5,53l0.2-0.2L99.5,52l0.2-0.5l-0.1-0.3l0-1.2l-0.2-0.3l0.2-0.9l0-1.3l0.1-0.1
			l-0.3-0.4l0.2-1v-1.3l-0.2-0.2l0.1-0.2l-0.1-0.7l0-0.2l0.2-0.2l-0.2-0.5l0.4-1.2l0.4-0.3l0.5-0.1l1.5,0l0.5-0.1l0.2-0.1l0.5,0.2
			l1.2-0.1l0.2,0.3l0.5-0.2l0.5,0l0.5-0.2l0.4,0.3l0.5-0.2l0.7,0.7l0.2,0.5l-0.1,0.4v2l-0.1,0.5l0.2,1.4l-0.2,0l-0.2-0.1l0,0.2
			L108,47v1.8l-0.1,0.5l0.2,0.4l-0.2,0.3l0.1,0.2l0,1l-0.3,0.7l0.3,0.1l-0.3,0.5l0.1,0.2l0.3,0.1l-0.5,0.5l0.5,0.3V54l-0.5-0.1
			l0.5,0.9l-0.1,0.2l-0.2,0.1l0.2,0.2l0.3,0.2l-0.1,0.7v1l-0.2,0.5l0.1,0.2L108,58l0,0.5l0.2,0.8l0,0.2l-0.1,0.2l-0.2,0.1l0.1,0.2
			l0,0.7L108,61l-0.2,0.4l-0.4,0.2l0.5,0.2l-0.1,0.5l0,0.6l-0.3,0.2l0,0.2h0.2l-0.8,2.2l-0.3,0.1l0.1,0.4l-0.2,0.3v0.4l-0.5,0.7
			l-0.2,0.5l-0.4,0.2v0.3l-0.5,0.5l0.1,0.3l-0.3,0.3l-0.9,0.5l-0.3,0.3h-0.3V71h-0.5l-0.7,0.7l-0.6,0.3h-0.2l-0.6,0.4l-0.3-0.1
			l-0.3,0.5l-0.3,0l-0.2-0.1L99,73l-0.2,0.1l-0.5,0.1L98,73.1l-0.4,0.5l-0.3-0.1l-0.5,0.3l-0.5,0l-1,0.2l-0.4,0l-0.2-0.1L94.5,74
			L94,74.1L91.9,74l-0.7,0l-1-0.3H89l-0.5-0.2l-0.9-0.2L87.3,73l-0.3,0L86.5,73l-1.6-0.8l-0.2,0l-0.8-0.6l-0.5-0.2l-0.3-0.6
			l-0.5-0.2l-0.7-0.7l-0.4-1l-0.9-0.5l0-0.2l0.2-0.3l-0.2-0.1l-0.3,0.1l-0.5-0.9v-0.5l-0.5-0.6v-0.5L79,65l0.1-0.3V64l-0.3-0.3
			L78.5,63l-0.1-1l-0.2-0.4l0.2-0.1l0-0.5l-0.2-0.3l0-0.2l0.2-0.4l0.4-0.2l-0.2-0.2l-0.4,0.1l-0.2,0.1l0.1-0.3l0-0.5l0.2-0.2
			L78,57.5l0.1-1l0.1-0.2L78,55.8l0.2-0.4L78.1,55l0.1-0.2l0-1l-0.2-1v-0.5l0.2-0.7l-0.1-0.2l0.2-0.4L78,49.4l0.1-0.5l0.1-0.2
			L78,48.4v-0.8l-0.1-0.2l0.1-0.5l0-1l-0.2-1.9l0.2-0.4v-1.5l0.2-0.4l0-0.4l0.1-0.2l0.9-0.2l1,0l0.5-0.2l0.2,0.1l0,0.2L81.1,41.2z
			 M79.4,58.4l0.1-0.2l-0.2-0.2l-0.1,0.2v0.2L79.4,58.4z M79.6,64.4l-0.1-0.1l0.1-0.2h-0.2l0,0.3L79.6,64.4z M79.5,47.5l0.2-0.1
			l-0.2-0.1V47.5z M79.5,48l0.1,0.3l0.2-0.1v-0.3L79.5,48z M79.7,55h0.2l0-0.2l-0.2-0.1V55z M80.2,54l0.2-0.1l0-0.2l-0.2-0.1
			l-0.1,0.2L80.2,54z M80.6,60.1L80.5,60l-0.2,0l0,0.2L80.6,60.1z M80.4,61.2l0.1-0.3h-0.1V61.2z M80.6,52.9h0.1v-0.2h-0.1V52.9z
			 M80.8,55.6l0.2-0.1l-0.3-0.3l-0.1,0.3L80.8,55.6z M80.7,54.2l0,0.2l0.5,0.1l-0.1-0.2L81,54.1L80.7,54.2z M80.7,62.7H81l-0.1-0.2
			l-0.2,0V62.7z M81,58.2h0.3l0-0.3l-0.2-0.2L80.9,58L81,58.2z M81.7,53.2L81.6,53h-0.2l0.1,0.2L81.7,53.2z M82,57.2l-0.6-0.2v0.2
			l0.2,0.2h0.3L82,57.2z M81.5,61.5h0.2v-0.2h-0.2V61.5z M81.5,68.4l0.2,0l0-0.2l-0.2-0.1L81.5,68.4z M82.1,59.9l0-0.3L82,59.4
			l-0.2-0.1l0,0.3l0.2,0.2L82.1,59.9z M82.2,56.2L82.1,56l-0.3,0l0.1,0.2L82.2,56.2z M81.7,64.4h0.2v-0.2h-0.2V64.4z M81.9,51.1h0.2
			L82,50.9L81.9,51.1L81.9,51.1z M81.9,47.7h0.2v-0.1h-0.2V47.7z M82.1,66.5l0.5-0.1l0.1-0.2l-0.3-0.1l-0.1,0.2L82.1,66.5z
			 M82.5,58.9v-0.2l-0.1-0.2l-0.2-0.1l0,0.2l0.1,0.2L82.5,58.9z M82.7,57.8l-0.1-0.2h-0.3l0.1,0.3L82.7,57.8z M82.5,61.3l0.2-0.1
			l0-0.2h-0.2V61.3z M82.7,65.1l-0.1-0.2L82.5,65L82.7,65.1z M82.7,68.6h0.2l-0.2-0.1V68.6z M82.8,55.4l0.1,0.2l0.2,0.1l0.2,0
			l0.1-0.2l-0.1-0.1l-0.3,0L82.8,55.4z M83.1,60.4v-0.2L82.8,60v0.2L83.1,60.4z M82.9,54.3l0.4,0.3l0.1-0.2l0-0.3h-0.3L82.9,54.3z
			 M82.9,59.3h0.2v-0.2h-0.2V59.3z M82.9,68h0.2l0.2-0.2L83,67.6L82.9,68z M83.1,46.7l0.1,0.6l0.2-0.1l0.1-0.2l0-0.2l-0.1-0.1
			L83.1,46.7z M83.2,62.6l0.3-0.1l-0.2,0L83.2,62.6z M83.5,58.2v-0.3l-0.1-0.2l-0.1,0.2V58L83.5,58.2z M83.4,66.7l0.2-0.1l0.1-0.2
			h-0.4v0.2L83.4,66.7z M83.8,57.2V57l-0.3,0l-0.1,0.2l0.1,0.1L83.8,57.2z M83.6,64.5l0.2-0.1l0-0.2l-0.3-0.1l-0.1,0.2L83.6,64.5z
			 M83.8,65.8l0-0.2l-0.2-0.5l-0.1,0.5l0.1,0.2L83.8,65.8z M84.2,52.3l-0.1-0.2L84,52h-0.2l0,0.3l0.2,0.1L84.2,52.3z M84.1,60
			l-0.1-0.2l-0.3,0l0.1,0.2H84.1z M83.9,49.6l0.3,0.1l0-0.2l-0.2-0.1L83.9,49.6z M84.1,63l0.2-0.1l0.2-0.5l-0.2,0l-0.2,0.1L84,62.8
			L84.1,63z M84.1,58.5l0,0.2h0.2v-0.2L84.1,58.5L84.1,58.5z M84.3,67.1L84.1,67l0.1,0.2L84.3,67.1z M84.2,63.5l0.2-0.1l-0.2-0.1
			V63.5z M84.5,57.9l0.2-0.1l0-0.2l-0.1-0.2l-0.2,0.1l-0.1,0.2L84.5,57.9z M84.6,66.4l0.2-0.1l0.1-0.2l-0.1-0.2l-0.2-0.1l-0.1,0.4
			L84.6,66.4z M84.9,61.6l0-0.2l-0.2-0.1l0,0.2L84.9,61.6z M85.3,63.9h-0.4l0,0.2h0.3L85.3,63.9z M85,68.3l0.5-0.2v-0.2l-0.2-0.1
			L85.1,68L85,68.3z M85.6,59.2L85.2,59l0,0.2l0.2,0.1L85.6,59.2z M85.3,50.8l0.2-0.2h-0.2V50.8z M85.3,58.2l0.3,0.2l0.1-0.2
			l-0.2-0.2L85.3,58.2z M86.1,64.5l0.1-0.4h-0.3l0,0.3L86.1,64.5z M86,57.2h0.2v-0.1H86V57.2z M86.7,71.5l0-0.4l-0.2,0l0,0.2
			L86.7,71.5z M87.3,69l0-0.2l-0.2-0.1l-0.2,0l0.1,0.2l0.2,0.2H87.3z M86.8,70.1H87V70h-0.2V70.1z M87.1,65.1h0.2V65h-0.2V65.1z
			 M87.3,67.9h0.2v-0.2h-0.2L87.3,67.9z M88.3,69.8l0.2-0.4v-0.2l-0.2-0.1l-0.2,0.5L88.3,69.8z M88.7,68.6l0-0.2l-0.2-0.2l-0.3-0.1
			l0.2,0.5L88.7,68.6z M88.9,67.1l-0.2-0.2l0,0.2L88.9,67.1z M89.1,71.2l-0.4-0.4l0,0.2l0.3,0.3L89.1,71.2z M89,69.7h0.2v-0.2H89
			V69.7z M89.3,69.3l0.2-0.1l0.1-0.3l-0.2-0.2l0,0.3L89.3,69.3z M90,67.8l-0.4-0.2l-0.2,0.1l0.2,0.2l0.2,0.1L90,67.8z M90,66.9
			l0.1,0.2l0.2,0l-0.1-0.2L90,66.9z M90.6,69.6l0.2-0.1l0.1-0.3l-0.2-0.2l-0.2,0.4L90.6,69.6z M91,68.6l0-0.5l-0.1-0.1l-0.1,0.2
			l0,0.2L91,68.6z M90.9,72.4l0.2-0.1l0-0.2L91,71.9l-0.1,0.2L90.9,72.4z M91.3,71.3l0-0.5l-0.2-0.1l0,0.5L91.3,71.3z M91.7,66
			l0.1,0.2L92,66l-0.2-0.1L91.7,66z M92.1,71.4v0.3l0.2,0.1l0.1-0.2l-0.2-0.2L92.1,71.4z M92.4,70.6l0.2-0.1v-0.3l-0.2-0.1l-0.1,0.2
			L92.4,70.6z M92.5,69.6h0.2v-0.2h-0.2V69.6z M92.8,72.5h0.2l0.1-0.2l-0.2-0.1V72.5z M93.3,70.7l-0.2,0.1l0.1,0.1L93.3,70.7z
			 M93.5,70.1h0.2l0.1-0.2v-0.2l-0.4-0.1l0,0.2L93.5,70.1z M94.1,69.2L94,68.9l-0.5-0.2V69l0.1,0.2l0.2,0L94.1,69.2z M94.3,71.6
			l0-0.2H94l0,0.2H94.3z M94.1,72.5h0.1l0.1-0.2l-0.2-0.1V72.5z M94.2,68.1l0.2-0.1l-0.1-0.2l-0.1,0.2L94.2,68.1z M94.6,70.7
			l0.2-0.1l0-0.3h-0.3V70.7z M95.2,68.8l0.1-0.2l-0.2-0.2l-0.3,0l0,0.2l0.1,0.2L95.2,68.8z M95.6,71.5l0.1-0.2l-0.1-0.1l-0.2,0
			l0.1,0.2L95.6,71.5z M95.5,67.6l0.2-0.1h-0.1L95.5,67.6z M95.8,70.3l0.2-0.1v-0.2l-0.1-0.2l0,0.2L95.8,70.3z M95.9,69.5l0.2-0.1
			l0.2-0.5l-0.1-0.1l0,0.2L96,69.3L95.9,69.5z M96.9,70.9l-0.2-0.5h-0.3l0.1,0.3l0.2,0.2L96.9,70.9z M96.7,71.9l0.1-0.2l-0.1-0.1
			l-0.1,0.2L96.7,71.9z M96.6,67.1l0.2,0l0-0.2l-0.2-0.1v0.2L96.6,67.1z M96.9,65.5l0.2-0.1v-0.2l-0.2-0.1V65.5z M97.1,68.5v0.4
			l0.5-0.1l0-0.4l-0.2,0L97.1,68.5z M97.1,69.6l0.1,0.2l0.3-0.2l-0.2-0.1L97.1,69.6z M97.2,73.4l0.3-0.2h-0.2L97.2,73.4z M97.7,67.6
			l-0.2-0.1l-0.1,0l0.1,0.1L97.7,67.6z M97.7,69.6l-0.1,0.2v0.3l0.1,0.2l0.2,0.1l0.2-0.2v-0.5l-0.2-0.2L97.7,69.6z M98.3,65.5h0.2
			v-0.2h-0.2V65.5z M98.5,68.2l0.2,0l0.2-0.2v-0.2l-0.2-0.2L98.4,68L98.5,68.2z M99,67.2l-0.1-0.4l-0.2-0.1l-0.1,0.2l0.1,0.2
			L99,67.2z M99,69.7h0.2v-0.2H99V69.7z M99.2,70.9l0.1-0.2v-0.2l-0.2-0.1L99,70.7L99.2,70.9z M99.5,65.1l0.1,0v-0.2l-0.1-0.2
			l-0.1,0.2L99.5,65.1z M99.7,67.8l0.2,0l0.1-0.1l0-0.2l-0.1-0.2l-0.2,0.1l-0.2,0.2v0.2L99.7,67.8z M99.7,66.4l0.2,0.2l0.3,0.1
			l0-0.2l-0.1-0.3l-0.3,0L99.7,66.4z M100,70.4l0.2,0l0-0.2l-0.1-0.2l-0.2,0.1L100,70.4z M100.1,69.1l0.2,0.1l0.3,0l-0.4-0.6
			l-0.1,0.2V69.1z M100.4,60.1l0.2,0l0.1-0.1l-0.3-0.1V60.1z M100.4,64.3l0.1,0.3l0.2,0.2l0.3-0.5l-0.2-0.1l-0.2,0L100.4,64.3z
			 M100.7,63.1l0.1,0.2l0.4,0.2l0-0.2l-0.1-0.2l-0.2-0.1L100.7,63.1z M100.8,55.9l0.2-0.1l0.1-0.2l-0.2-0.1l-0.1,0.2V55.9z
			 M101.1,65.7v0.3l0.1,0.1l0.2,0l-0.1-0.5L101.1,65.7z M101.4,61.1h0.5l-0.1-0.5l-0.2,0.1l-0.1,0.1L101.4,61.1z M101.7,68.7l0-0.7
			l0,0.1h-0.2l0,0.5L101.7,68.7z M101.4,50h0.2l0-0.2h-0.2V50z M101.6,71.6l0-0.2l-0.2-0.1v0.2L101.6,71.6z M101.5,48.3h0.2l0.1-0.2
			l-0.4-0.1V48.3z M101.7,62.4l0.1-0.4l-0.2,0.2L101.7,62.4z M101.6,45.2h0.2l-0.2-0.1V45.2z M101.7,52.6l0.3,0v-0.3h-0.4v0.2
			L101.7,52.6z M101.7,63.9l0.2,0.2h0.3l0.2-0.4v-0.2l-0.2-0.2l-0.4,0.3L101.7,63.9z M101.8,48.1l0.2,0l0.1-0.2v-0.2l-0.2,0
			l-0.1,0.1V48.1z M101.9,59h0.2v-0.2H102L101.9,59z M102,55.3h0.2V55H102V55.3z M102,67.7h0.2v-0.2H102V67.7z M102.2,62.7l0.1-0.2
			l0-0.2l-0.2-0.1l0,0.5L102.2,62.7z M102.1,53.9h0.2v-0.2h-0.1L102.1,53.9z M102.4,58l0.1-0.2l0-0.2l-0.3-0.1l-0.1,0.2l0.1,0.2
			L102.4,58z M102.1,46.7l0.2-0.2l0.1-0.3h-0.2l0,0.2V46.7z M102.6,45.9l0.1-0.2l-0.3,0v0.2L102.6,45.9z M102.4,50.6l0.2-0.1
			l0.1-0.4h-0.2v0.3L102.4,50.6z M102.7,56.5l0.2-0.4l-0.2-0.1l-0.1,0.2L102.7,56.5z M103.1,44.1l0.1-0.5l-0.3-0.2l-0.2,0l0.2,0.6
			L103.1,44.1z M102.7,67.8l0.2,0.1v-0.4h-0.2V67.8z M102.9,51.8l0.4,0.1l0.1-0.4l-0.2,0l-0.2,0.1L102.9,51.8z M103.3,50.4l-0.3-0.1
			v0.2l0.2,0L103.3,50.4z M103.2,59.4l0-0.5l-0.2-0.1l0,0.5L103.2,59.4z M103.1,63.3l0.2,0.1l0.3-0.1V63l-0.2-0.3l-0.2,0.3
			L103.1,63.3z M103.1,45.8l0.4,0.3l0.2-0.2l-0.3-0.2l-0.2,0L103.1,45.8z M103.2,67.1l0.2,0.1l0.2,0l-0.1-0.2h-0.2L103.2,67.1z
			 M103.4,54.7l0.5-0.1l-0.2-0.5l-0.2-0.1l-0.1,0.5V54.7z M103.4,64.5l0,0.3l0.2,0.2l0.3,0.1l0-0.2l-0.2-0.4h-0.2L103.4,64.5z
			 M103.5,50.2l0.3-0.1l0.1-0.3l-0.2-0.1l-0.1,0.2V50.2z M103.9,48.7l0.1-0.3h-0.3l0,0.2L103.9,48.7z M104.1,51.6l0.2-0.2l0.1-0.3
			l-0.4-0.1l0,0.2l-0.1,0.1L104.1,51.6z M104,63.8l0.2-0.2h-0.1L104,63.8z M104.3,48.1v-0.3l-0.2,0v0.2L104.3,48.1z M104.1,52.3
			l0.1,0.3l0.2,0l0.2-0.3l-0.5-0.1L104.1,52.3z M104.2,46.8l0.3,0l0.1-0.2l-0.3-0.1L104.2,46.8z M104.3,54h0.5l0-0.2l-0.2,0
			l-0.2,0.1L104.3,54z M104.3,62.6l0.4,0.1l0.1-0.1l-0.5-0.1V62.6z M104.6,49.6l0.4,0l-0.1-0.2l-0.2-0.1l-0.1,0.2L104.6,49.6z
			 M104.6,48.3l0.2,0.2h0.5l0.1-0.2l-0.1-0.2l-0.2,0l-0.2,0.1L104.6,48.3z M104.9,64.1l0.2,0.1l0.1-0.3l-0.2,0L104.9,64.1z
			 M105,55.2h0.2V55h-0.1L105,55.2z M105.1,57.7l0,0.2l0.1,0.3l0.2,0.2h0.2v-0.3l-0.1-0.2l-0.2-0.1H105.1z M105.2,51.2l0.5-0.1
			l0.1-0.2l-0.4,0.2L105.2,51.2z M105.4,49l0.2,0.1l0.5,0l-0.1-0.2h-0.5L105.4,49z M105.7,50.1l0-0.2l-0.2-0.1v0.2L105.7,50.1z
			 M105.6,61l0.2-0.1l0.1-0.2l-0.2,0L105.6,61z M106,55l0.3,0l0.2-0.2v-0.2h-0.2l-0.2,0.1L106,55z M106.2,47.7l0.2-0.3l-0.2-0.1
			l-0.1,0.2L106.2,47.7z M106.3,50.3l0.3,0.2v-0.4h-0.2L106.3,50.3z M107.4,57.3h0.2l0-0.2h-0.2V57.3z"/>
		<path class="st17" d="M148.8,65.2l-0.1,0.2l-0.2,0.1v0.3l-0.2,0.5H148l0,0.3l-0.1,0.2l-0.2,0.1l-0.1,0.5l-0.2,0.4l-0.5,0.2v0.3
			l-0.1,0.2l-0.2,0.1l-0.2,0l-0.1,0.5l-0.3,0.4l-0.4,0.3l-1,0.3l-0.1,0.5l-0.2,0.1l-0.4,0.4l-0.4,0.3l-0.2,0l-0.4,0.3l-1.5,0.5
			l-0.3,0.4h-0.4l-0.8,0.5l-0.7,0.2l-1,0l-0.4,0.4l-0.4-0.1l-0.2,0.1l-0.5,0.1l-0.3-0.2l-0.2,0.1l-0.5,0l-0.1,0.2L135,74l-1,0.2
			l-0.5-0.2l-0.5,0.2l-0.2-0.2l-0.2,0l-0.2,0.1l-0.5,0l-0.9-0.3l-0.5,0l-0.1-0.4l-0.3,0.3l-1.4-0.3v-0.5h-0.3l-0.3,0.2l-0.2-0.1
			l-0.1-0.2l-0.5,0.2l-0.1-0.2l0-0.5l-0.1,0.1l0,0.2l-1-0.3l-2-1.3l-0.5-0.2l-0.2-0.4l-0.7-0.4l-1.5-1.4l-0.4-0.3v-0.3l-0.4,0
			l-0.2-0.6l-0.6-0.5l-0.3-0.4l-0.7-1.3l-0.3-0.4v-0.4l-0.1-0.2l0-0.2l-0.2-0.2l-0.3-0.4l0-0.3l-0.4-0.8v-0.3l-0.4-0.3l0-1l-0.5-1.9
			l0.2-0.4l-0.2-0.7l0-0.5l0.1-0.2l-0.1-0.5l0-0.9l0.2-1l0.1-0.2l0.1-0.5l0-1.1l0.3-0.7l0-0.2l0.2-0.1h0.3l-0.2-0.4l0.1-0.4l0.5-0.9
			l0-0.2h0.3l0.2-0.1l0.1-0.2v-0.5l-0.1-0.2l0.3-0.6l0.3-0.3l0.2,0v-0.5l0.2-0.1l0.3-0.4h0.2v-0.6l0.4-0.1l0.1-0.2l0.6-0.5l0.3-0.4
			l0.5,0.1l0-0.2l-0.1-0.1l0-0.2l0.8-0.3l0.2-0.5l0.5,0.1l0.2-0.5l0.9-0.2v-0.5l0.1-0.2l0.2,0.2l0.3,0.1l0.2-0.5l0.3-0.1l0.5-0.5
			l1.6-0.5l0.5-0.1l0.3-0.3l1-0.1l0.5-0.1l0.2-0.2l1-0.2l0.3,0.1l0.2,0.2l1.2-0.2l0.4-0.2l1,0.1l0.2,0.2l0.5-0.2l0.5,0.1l0.4,0.2
			h1.4l1,0.3l0.4,0.2l0.3,0.3l0.3-0.2l0.3,0l2.4,1l0.3,0.5l0.5-0.1l0.1,0.2l1.3,0.8l0.1,0.2l0.7,0.4l0.7,0.6l1.9,2.2l-0.1,0.2
			l0.1,0.2h0.5l0.4,0.8l0.3,1l0,0.4l-0.3,0.3l-0.3,0.1l-0.3,0.4l-0.4,0.3l-1.6,0.7l-0.4,0.3l-0.5-0.1l-0.3,0.4l-0.2,0.1l-0.2-0.1
			l-0.4,0.2l-0.2,0l-0.2-0.1l0-0.2l-0.2,0.2v0.5l-0.7,0l-0.2,0.2l-1-0.4l-0.2-0.2l0.2-0.3l-0.1-0.2l-0.3-0.2l-0.5,0l-0.5-0.5
			l-1.2-0.9l0.2-0.2l0.1-0.3h-0.3l-0.5-0.1l-0.3,0v-0.2l0.4-0.4l-0.2-0.1l-1,0.2l0,0.1l-0.4-0.1v-0.2l-0.7-0.1l-2.7-0.1l-0.5,0.2
			l-0.5,0l-0.9,0.2l-0.2,0l-0.8,0.6l-0.7,0.3l-0.9,0.5l-0.3,0.4h-0.2l-0.8,0.5l0.1,0.5l-0.4,0.3l-0.7,1.4l-0.5,0.6l0.1,0.7l-0.4,0.3
			l0,0.5l-0.2,1.1l0.2,0.5l-0.1,0.2l0,1l-0.1,0.2l-0.2,0.1l0.2,0.2l0.4,0.2l-0.1,0.3l0.1,0.2l0.3,0.4l-0.1,0.2l0.1,0.7l0.2,0.1h0.2
			l0.4,0.9l1.1,1.6l0.2,0l0.7,0.5l0.5,0.2l0.3,0.4l1.7,0.8h0.3l0.7,0.3h2.7l1-0.3l0.4,0.1l0.8-0.5l0.5-0.2l0.8-0.4h0.5v-0.5l0.5,0
			l0.9-1l0.6-0.8h0.8v-0.5l0.7-0.1l0.1,0.2l0.6,0.3l0.3,0.2l0.1,0.2l1-0.2l0.5,0.4h0.2l-0.1,0.3l0.4,0.3l0.2-0.5l0.3,0.1v0.3
			l0.1,0.2l0.6-0.1l0.5,0.4l0.3-0.1l0.1,0.2l-0.1,0.3l0.2,0l0.3-0.1l0.5,0.4l0.3,0.4L148.8,65.2z M118.4,56v-0.2h-0.1V56H118.4z
			 M118.7,59.6h-0.2l-0.1,0.2h0.2L118.7,59.6z M118.9,52.5l0.1,0.2l0.1,0L118.9,52.5z M119.1,55.3l0.2,0.1l0.2,0l0.1-0.2l-0.5-0.1
			l-0.2,0.1L119.1,55.3z M119.8,59.1l0-0.1l-0.1-0.1l-0.1,0.2L119.8,59.1z M120.4,60.8l-0.1-0.4l-0.4-0.2l-0.1,0.2l0.2,0.5l0.2,0.1
			L120.4,60.8z M120.3,62.1l-0.2-0.4l-0.1,0.5L120.3,62.1z M120.1,52.3h0.2l0-0.1l-0.1-0.1L120.1,52.3z M120.1,53.1l0,0.2l0.2-0.1
			l0-0.3h-0.2L120.1,53.1z M120.3,59.4v0.2h0.2v-0.2H120.3z M120.7,63.8l0-0.5l-0.2-0.1l-0.2,0.5l0.1,0.2l0.2,0.1L120.7,63.8z
			 M121.1,50.4l0.2-0.1l0-0.3l-0.1-0.1l-0.3,0.2l-0.1,0.2H121.1z M120.9,58.5h-0.2v0.2l0.2,0V58.5z M121.3,65.9l-0.3,0l0.1,0.2
			l0.2,0L121.3,65.9z M121.3,48.7l-0.1,0.1l0,0.2l0.2-0.2l0.1-0.2H121.3z M121.3,53l0.2-0.1l0-0.2l-0.3,0l-0.2,0.2L121.3,53z
			 M121.3,53.8h-0.2V54h0.2V53.8z M121.5,65l-0.3-0.2V65l0.4,0.2L121.5,65z M121.4,56.5l0.1-0.2l-0.2,0.1L121.4,56.5z M121.4,61.2
			l-0.2-0.1v0.2L121.4,61.2z M121.5,51.6l0,0.2l0.2,0.1l-0.1-0.5l-0.3,0.1L121.5,51.6z M122.2,54.3l-0.2-0.4h-0.4v0.2l0.1,0.2
			l0.4,0.2V54.3z M121.7,55.2l-0.1,0.2l0.1,0.2l0.2-0.1v-0.3L121.7,55.2z M122,63.1l-0.3-0.2v0.2l0.1,0.1L122,63.1z M121.9,50.8
			l-0.1,0.1L122,51l0.1-0.2L121.9,50.8z M122.1,49.5l-0.2,0.1l0.1,0.2l0.2,0.1l0-0.3L122.1,49.5z M122.1,48.3v0.2l0.1,0.2l0.3,0
			v-0.5l-0.3-0.1L122.1,48.3z M122.9,59.6l0-0.2l-0.4-0.1l-0.2,0.1l0.1,0.2l0.2,0.1l0.3,0L122.9,59.6z M122.5,61.7l-0.3,0l0.1,0.3
			L122.5,61.7z M122.4,66.3l-0.2-0.1v0.3h0.2L122.4,66.3z M122.5,51l0.2,0.1l0-0.1l0.2,0.2v-0.3l-0.4-0.1V51z M122.5,52.3l0.2-0.1
			l-0.2-0.1V52.3z M122.8,68.1l-0.2,0l-0.1,0.2L122.8,68.1z M122.8,47.5l-0.2,0.2l0.3,0L122.8,47.5z M122.7,56l0,0.2l0.2,0v-0.2
			L122.7,56z M122.8,51.3l0,0.2l0.1,0.1l0.1-0.2L122.8,51.3z M123.3,53.8l-0.2-0.2l-0.2-0.1v0.2l0.4,0.3L123.3,53.8z M123.1,50.3
			l0.2,0.2l0.1-0.2l-0.2-0.2L123.1,50.3z M123.3,61.8l-0.2,0.4l0.1,0.2l0.2,0.1l0.2-1.2l-0.5-0.2v0.2l0.1,0.2v0.2L123.3,61.8z
			 M123.6,48.9l-0.3,0.2l0,0.2l0.3,0l0.2-0.1l0.1-0.2L123.6,48.9z M123.6,66.3l0-0.3l-0.2-0.2l-0.1,0.2l0,0.3L123.6,66.3z
			 M123.5,47.8l0.1,0.4l0.2,0.1l0.1-0.2l-0.1-0.4l-0.2-0.1L123.5,47.8z M123.7,65l0-0.2l-0.2,0.1l0,0.2L123.7,65z M123.8,63.6
			l-0.2-0.1l0,0.3l0.2,0.1L123.8,63.6z M124.4,50.6l-0.1-0.2l-0.2-0.2l-0.2-0.1l0,0.2l0.1,0.2l0.2,0.2l0.2,0.1L124.4,50.6z
			 M124,47.3l0.2,0v-0.2h-0.2L124,47.3z M124,51.3l-0.1,0.2l0.1,0.2l0.2-0.5l-0.1-0.2L124,51.3z M124.2,67.2H124l0,0.2l0.2,0.1V67.2
			z M124.4,45.7l0.1,0.5l0.2-0.1v-0.2l-0.1-0.2l-0.2-0.1V45.7z M124.5,48.8l0.2,0.1l0.2,0l0-0.2l-0.5,0L124.5,48.8z M124.6,64.5
			l-0.2-0.1v0.2h0.2L124.6,64.5z M124.7,47.3l0,0.2l0.2,0.2l0.2-0.4l-0.2-0.1L124.7,47.3z M125.5,50.2l-0.1-0.2l-0.2-0.1l-0.3,0
			l0.1,0.5l0.4,0.2L125.5,50.2z M125.2,46.7l0.2,0l0.1-0.2l-0.2-0.1L125.2,46.7z M125.5,45.3l-0.1,0.2l0.2,0l0.2-0.1l0.1-0.2
			l-0.1-0.2l-0.2,0L125.5,45.3z M125.7,69.8l0.1-0.2h-0.4l0.1,0.3L125.7,69.8z M125.9,48.5l0.2-0.5l-0.3-0.1l-0.2,0.1v0.3l0.2,0.2
			L125.9,48.5z M126.2,50.9l0.2-0.1l-0.2-0.1l-0.2,0.1L126.2,50.9z M126.1,47.1l0.2,0.1l0-0.3h-0.2V47.1z M126.5,66.6l-0.2-0.1
			l0,0.3l0.2,0.1L126.5,66.6z M126.3,49.5l0.1,0.1l0.1-0.1H126.3z M126.9,47.8l0.1,0.2l0.2-0.3l-0.3-0.2L126.9,47.8z M127.2,46.1
			l0,0.2l0.2,0.1l0.1-0.2l-0.1-0.2l-0.2-0.2L127.2,46.1z M127.8,49.6h0.1v-0.2h-0.1V49.6z M128.4,68.9v-0.2l-0.1-0.2l-0.2,0.2l0,0.2
			l0.2,0.1L128.4,68.9z M128.5,73.2l-0.2,0.1v-0.2L128.5,73.2z M128.6,67.7h-0.2v0.2h0.2V67.7z M128.7,46.1l0.1,0.1l-0.1-0.3V46.1z
			 M128.9,44.8l0.3,0.1l0-0.2l-0.2-0.1L128.9,44.8z M129.3,43.8l0.2,0l0.1-0.2l-0.4,0.1L129.3,43.8z M129.8,46.5h-0.2l0.1,0.3l0.2,0
			l0.1-0.2L129.8,46.5z M130,45.3l-0.1,0.2l0.2,0l0.1-0.2L130,45.3z M130.3,44.5l0.2-0.1l-0.1-0.2l-0.1,0.1V44.5z M131.2,70.3
			l-0.2-0.1l-0.2,0.3l0.2,0.1L131.2,70.3z M131.1,44.4l-0.1,0.2l0.2,0.1h0.3v-0.2l-0.2-0.3L131.1,44.4z M131.5,43.9l0.2,0.1v-0.2
			l-0.2-0.1L131.5,43.9z M132.1,70.1l0.2-0.1l0.1-0.2l-0.2-0.1H132l-0.2,0.1v0.3L132.1,70.1z M132.5,44.3l0.2-0.1l-0.2-0.2V44.3z
			 M132.9,71.2L132.9,71.2h-0.3v0.2l0.1,0.1l0.2-0.1V71.2z M133.7,68.4l-0.2-0.2l-0.1,0.2L133.7,68.4z M133.7,43.7l0.2-0.1v-0.2
			h-0.2V43.7z M133.9,46.2v0.2l0.2,0l0.1-0.1L133.9,46.2z M135.1,68.5h-0.2v0.2h0.2L135.1,68.5z M135.7,45.3l0.2,0l-0.1-0.2
			L135.7,45.3z M136,43.8l-0.2,0.1l0.4,0.1v-0.2L136,43.8z M137.6,44.7l0.2,0.1l0.1-0.2l-0.3-0.1V44.7z M138.6,67.6l0.1-0.2
			l-0.3-0.2v0.4L138.6,67.6z M140.3,43.8h0.2v-0.1h-0.2V43.8z M140.7,46.7h0.1v-0.3h-0.1V46.7z M140.9,45.7l0.2,0v-0.3h-0.2
			L140.9,45.7z M141.3,49.2v0.2l0.2-0.2H141.3z M141.6,51.8l-0.1-0.1l-0.1,0.2l0,0.2l0-0.1l0.2,0L141.6,51.8z M141.8,67.8l0.1-0.2
			l-0.1-0.2h-0.3l-0.1,0.2l0.1,0.2L141.8,67.8z M141.5,68.9h-0.2v0.2h0.2V68.9z M141.9,46.1l0.2-0.1l0.1-0.2h-0.2V46.1z M142.1,62.2
			h0.1l-0.1-0.2L142.1,62.2L142.1,62.2z M142.5,69.6l-0.1-0.2l-0.2,0.2L142.5,69.6z M142.6,70.9l-0.1,0.1l0.1,0.1h0.2L142.6,70.9z
			 M146.5,68.2h-0.2l-0.1,0.2h0.2L146.5,68.2z"/>
		<path class="st17" d="M165.5,67.7l0.2,0.2l0.5,0l-0.2,0.2l0,0.3l-0.1,0.2l0.2,0.1l0.3-0.1l-0.2,0.5v0.5l0.2,0.8h-0.5l0.3,0.9
			l0,0.5l-0.1,0.9l-0.4,0.2l-0.2,0.4l-0.2,0.1l-1.1,0l-0.5,0.1l-0.5-0.2l-0.5,0.2l-0.9,0.1l-1.4-0.2l-0.5,0l-0.3-0.2l-0.2,0.3
			l-0.5-0.3l-0.3,0.2l-0.4-0.2l-0.5-0.5l0-0.3l-0.1-0.4l-0.3-0.3l0.2-0.5v-1l-0.1-0.6l0.4-0.5l-0.4-0.7l0.5-0.2l-0.4-1.2v-0.3
			l0.2-0.1l0.4-0.8l-0.3,0l-0.1,0.2l-0.1-0.1l0-0.5l0.2-0.4l-0.4-0.4h0.5l-0.3-0.4l-0.1-0.2L158,64l0-1.2l-0.3-0.5l0.2-0.4l0-0.5
			l-0.2-1.7l0.5-0.3l-0.1-0.2l-0.2-0.1l0-0.3l-0.1-1.1l0-0.7l0.2-0.4l-0.2-0.1l-0.2-0.5l0-0.5l0.2-0.4l-0.2-0.9l0-0.5l0.2-0.5
			l0.3-0.5l-0.4,0.1l-0.2-0.2l0.1-0.2l0.3,0l-0.1-0.5l0.2-0.2l0.3-0.1l0-0.2l-0.1-0.2l-0.5-0.2l0.2-0.5v-1l-0.2-0.7l0.2-0.5l0-0.3
			l-0.3-0.4l0.1-0.7l0.2,0.2l0.2-0.1l-0.5-0.3l0.1-0.2l-0.1-0.7L158,46l0.2-0.1l-0.1-0.3l-0.2-0.1l-0.2,0l0.1-0.2l0.2-0.1l0.1-0.2
			l-0.1-0.2h-0.2l-0.2-0.1l0.1-0.2l0.1-0.5L158,44l-0.3-0.9v-0.5l0.2-0.7l0.3-0.6l0.4,0l0.3-0.3l0.3,0l0.1,0.5l0.2-0.1l0.2-0.3
			l0.2-0.1l0.1,0.5h0.3l0.3-0.3l0.2-0.1l0.5,0.2l1-0.2l0.6,0l0.3,0.4l0.3-0.3h0.3l0.1,0.5l0.3,0.1l-0.1-0.2l-0.2-0.3l0.8,0.1
			l0.4,0.2l0.2,0.4l0,0.2l0.3,0.2l0.2-0.1l-0.1-0.2l0.1-0.2l0.2,0.1v0.8l-0.1,0.2l-0.1,0.1l0.1,0.2l0.3,0.3l-0.1,0.4l-0.2,0l0.2,0.4
			v1.5l0.1,0.4l-0.3,0.4l0,0.7l-0.2,0.2l0.2,0.4l0.2,0.9v1.5l0.2,1l0.5-0.2l0.4-0.2h0.2l0.1-0.2v-0.3l0.7-0.4l0-0.3l0.3-0.2l0.1-0.7
			l0.2-0.2l0.5,0.2l0.1-0.2l0-0.3l0.5-0.2l0-0.3l0.2-0.4l0-0.2l0.2-0.1h0.5l0.2-0.5l0.7-0.8l0.4-0.2l-0.1-0.2l0-0.2l0.5-0.2l0.2-0.2
			l0.1-0.5l0.4-0.1l0.2,0.5l0.4-0.2l-0.4-0.4l0.3-0.4l0.5-0.2l0-0.3l1.5-1.5l0.6-0.5l0.2,0.2l1.9-0.4l0.7,0.2l0.2-0.2l0.2,0.1
			l0.5,0.1l0.5-0.1l0.4-0.2l0.2,0.1h1.5l0.4,0.2l0.3-0.3l0.9,0.3l0.2,0l0.1-0.2l0.4,0.4l0.1-0.3l0.6,0.3l-0.1,0.1h-0.2l0.5,0.6
			l0,0.3l-0.6,0.3v0.3l-0.1,0.2l-0.5,0.2l-0.2,0l-0.3,0.8l-0.2,0.2h-0.5l0,0.5l-0.2,0.5l-0.4,0.4l-0.7,0.3v0.5l-0.2,0.1l-0.6,0.7
			l-0.4,0.3l-0.3,0.5l-0.4,0.1l-0.2,0.5l-1.5,1.7h-0.3l-0.2,0.5l-0.5,0.5l-0.1,0.2l-0.5,0.1l-0.2,0.5l-0.6,0.8l-0.7,0.7l-0.4,0.6
			l-0.5,0.3l0.3,0.3v0.8l2,2.6l-0.1,0.2l2.1,2.8l-0.1,0.2l-0.2,0l1.9,1.8v0.3l0.1,0.2l0.3,0.3l-0.1,0.3l0.2,0.2l0.3,0l1.8,2.4
			l0.3,0.7l0.3,0.1l1.2,1.7l0.5,0.9l0.2,0.2l0.3,0.1l0.1,0.5l0.5,0.7l0,0.3l-0.3,0.1l0.1,0.3l0.4,0.2v0.2l-0.5,0.5l-1.5-0.1
			l-0.2,0.1h-0.2l-0.3,0.2l-2,0l-0.7-0.1l-0.3,0.2l-0.5-0.1l-0.3,0.1l-1.9-0.2l-0.7,0l-0.3-0.3l-0.4-0.2l-0.3-0.4v-0.3h-0.5
			l-0.2-0.5l-0.4-0.3V71l-0.1-0.2l-0.3,0l0.1-0.3l-0.3-0.6h-0.2l-0.2-0.1l-0.3-0.4l-0.2-0.8l-0.8-0.5l-0.2-0.4v-0.5l-0.2-0.2
			l-0.5-0.1l-1-1.6l-0.2-0.5l-0.8-0.6l-1.2-1.6l-0.4-0.3l-0.7-0.3l-0.4,0.3l-0.7,0.7l-0.4,0.3l0,0.2l-0.2,0.5l-0.2,0.2l0.1,1.1
			l-0.5,0.2l0.3,0.4l0.1,0.2l-0.1,0.5l0.1,1.5l-0.2-0.2l-0.2,0L165.5,67.7z M157.9,55.7h0.1v-0.1h-0.1V55.7z M158.3,43.3l-0.2-0.1
			l0.1,0.2L158.3,43.3z M158.3,48.2l-0.3,0l0.1,0.2L158.3,48.2z M158.2,70.1l0-0.2l-0.2-0.1l0.1,0.2L158.2,70.1z M158.2,46.2
			l0.2,0.1l0.5-0.2l0-0.2l-0.5,0.1L158.2,46.2z M158.6,55.2h0.2V55h-0.2V55.2z M159.1,52.8h0.2l-0.2-0.1V52.8z M159.2,47.9l0.1,0.2
			l0.2,0l0.1-0.2l-0.2,0L159.2,47.9z M159.2,51.2l0,0.2l0.2,0.1h0.2l0-0.3l-0.2-0.1L159.2,51.2z M159.9,55.7l-0.1-0.2l-0.5-0.2
			l0,0.2l0.1,0.2l0.2,0L159.9,55.7z M159.2,64.1l1.1,0.5l-0.1-0.2l-0.5-0.3l-0.2,0L159.2,64.1z M159.5,69l0.2-0.1l0.1-0.2l-0.2-0.1
			l-0.1,0.2L159.5,69z M159.5,46.9l0.4,0.1l0-0.2l-0.1-0.2l-0.3,0l-0.1,0.2V46.9z M159.6,49.2l0.2,0.4l0.2,0.1l0-0.2l-0.1-0.2
			l-0.2-0.1L159.6,49.2z M159.7,58.2l0.1,0.2l0.2,0l0.2-0.2l-0.3,0L159.7,58.2z M160,63.1l0.1-0.2l-0.3-0.3V63L160,63.1z M160,46
			l0.2-0.1v-0.2l-0.2-0.1V46z M160.2,53.6h0.2l0-0.3l-0.3-0.1l0,0.2L160.2,53.6z M160.2,57.7l0.2-0.1l0-0.3l-0.1-0.2l-0.2-0.1
			l-0.1,0.2l0.1,0.2V57.7z M160.2,65.9h0.3v-0.2l-0.2,0L160.2,65.9z M160.2,48.4l0.2,0.1l0.2-0.1l-0.1-0.2l-0.2-0.1L160.2,48.4z
			 M160.3,43.6h0.2l0.1-0.2h-0.3V43.6z M160.5,68.4l0.5,0.1l-0.2-0.4l-0.4-0.2l0,0.3L160.5,68.4z M160.4,52.3l0.2,0.1l0.2-0.2
			l-0.3-0.1L160.4,52.3z M160.4,63.6l0,0.2l0.2,0.1l0.2-0.2L160.4,63.6L160.4,63.6z M160.7,56.5l0.1-0.3h-0.3l0.1,0.2L160.7,56.5z
			 M160.5,47.5l0.2,0.1l0.2-0.2l-0.2-0.2L160.5,47.5z M160.6,67.3l0.3,0.2l0-0.2l-0.2-0.1L160.6,67.3z M160.9,60.3l0.1-0.6l-0.2,0
			l0,0.5L160.9,60.3z M160.9,55.3l0.2-0.1l0.1-0.2l-0.5-0.2V55L160.9,55.3z M160.9,58.9l0.1,0.2l0.2,0l0-0.2L160.9,58.9z M161,61.6
			v0.2l0.1,0.1l0.1-0.1l0.2,0l-0.2-0.2L161,61.6z M161,51h0.2l-0.1-0.2L161,51z M161.1,45.4h0.3l0.2-0.1V45l-0.2-0.1l-0.2,0
			l-0.2,0.2V45.4z M161.1,48.9l0.1,0.2h0.2l0.1-0.2H161.1z M161.3,69.2l0.3,0l0.1-0.2l-0.4-0.2l-0.1,0.2L161.3,69.2z M161.4,63.1
			h0.2l0.1,0.1l0.2-0.1l-0.5-0.3L161.4,63.1z M161.6,65.3l0.1-0.4h-0.2v0.2L161.6,65.3z M161.5,47l0.6-0.1l0-0.2l-0.3-0.2l-0.1,0.3
			L161.5,47z M161.9,48l0.1-0.5l-0.2-0.1h-0.3l0,0.2l0.1,0.2L161.9,48z M161.5,51.4l0.2,0.2l0.6,0.2l-0.1-0.2l-0.2-0.1l-0.3,0
			L161.5,51.4z M161.5,55.8l0.2,0l0.4-0.2l-0.4-0.1l-0.2,0L161.5,55.8z M161.9,67.9v-0.5h-0.2l0,0.4L161.9,67.9z M162.2,45.8
			l-0.1-0.3h-0.3v0.2l0.2,0.1L162.2,45.8z M162.1,50.4l-0.1-0.2l-0.1,0.2L162.1,50.4z M162.1,59.8l0-0.5l-0.1-0.2l-0.1,0.5
			L162.1,59.8z M161.9,49.6l0.6,0l-0.1-0.2h-0.3L161.9,49.6z M162.4,65.9v-0.2l-0.4-0.1l0.1,0.3L162.4,65.9z M162.2,61.9h0.2
			l-0.1-0.2l-0.2-0.1V61.9z M162.5,57.4l0.1-0.2l-0.1-0.2l-0.2-0.1l-0.1,0.2l0.1,0.2L162.5,57.4z M162.3,48.3l0.1,0.2l0.2,0.1l0.2,0
			l0.1-0.2l-0.5-0.2L162.3,48.3z M162.3,58.6l0.1,0.1l0.1-0.1l-0.1-0.1L162.3,58.6z M162.6,53.4l0.2-0.2l-0.1-0.2l-0.2,0l0,0.2
			L162.6,53.4z M162.8,64.7l0-0.3l-0.2-0.1l-0.1,0.2l0.1,0.1L162.8,64.7z M162.5,55.6l0.1,0.2l0.2,0l0.2-0.1l-0.2-0.2L162.5,55.6z
			 M162.5,59.7l0.1,0.2l0.2,0.1l0.1-0.2l-0.2-0.2L162.5,59.7z M162.6,68.6l0.3,0l0.1-0.2l-0.2-0.1L162.6,68.6z M163.1,46.3l-0.2,0.1
			l0.1,0.1L163.1,46.3z M163.1,51.2l-0.1-0.2l-0.1,0L163.1,51.2z M162.9,63.7v0.2l0.2,0.1l0.1-0.1v-0.2H162.9L162.9,63.7z
			 M162.9,67.2l0.2,0.4l0.2,0.1l0.1-0.5l-0.2-0.1l-0.2,0L162.9,67.2z M162.9,58.7l0.2,0.1l0.2,0l-0.1-0.2l-0.2-0.1L162.9,58.7z
			 M163,45v0.2l0.3,0.1l0.2-0.1l-0.1-0.2l-0.2-0.1L163,45z M163.1,52.6L163.1,52.6l-0.1-0.2L163.1,52.6z M163,62.6l0.1,0.2h0.2
			l0.1-0.2H163z M163.4,55.2V55h-0.2l0,0.2L163.4,55.2z M163.4,50.3l0.2-0.1v-0.5l-0.3-0.1v0.5L163.4,50.3z M163.3,60.7l0.5,0.1
			l0.2-0.2l-0.2-0.2l-0.2,0L163.3,60.7z M163.7,62l0.1-0.2l0-0.3l-0.2-0.1l-0.2,0.4l0.1,0.2L163.7,62z M163.6,66.6v-0.2h-0.2
			L163.6,66.6z M163.9,47.9l-0.3-0.2l-0.1,0.2l0.1,0.2l0.2,0L163.9,47.9z M163.5,58.1h0.2v-0.2h-0.2V58.1z M163.6,49.2l0.3-0.1
			l-0.1-0.2l-0.2-0.1l-0.1,0.2L163.6,49.2z M164,44.3l0-0.6h-0.2l-0.1,0.3l0.2,0.2L164,44.3z M163.7,52h0.2l0.3-0.4l-0.2-0.1l-0.2,0
			l-0.1,0.2L163.7,52z M163.9,53.2L164,53l-0.1-0.5l-0.2-0.1l0,0.8L163.9,53.2z M164.2,64.4V64l-0.1-0.2l-0.2-0.1l-0.1,0.2v0.2
			l0.2,0.2L164.2,64.4z M163.9,50.4l0,0.3l0.3,0l0-0.2l-0.2,0L163.9,50.4z M164.2,55.6l0.1-0.2l-0.1-0.5H164l0,0.2l0.1,0.3
			L164.2,55.6z M164.2,62.4l0.2,0l0-0.2l-0.2,0L164.2,62.4z M164.4,57.6l0.2-0.2h0.3l0.2-0.2l-0.2-0.1l-0.5,0.3L164.4,57.6z
			 M164.4,58.2l0.2,0l0-0.2l-0.2-0.2L164.4,58.2z M164.8,53.5l-0.1-0.2l-0.2-0.1l0.1,0.3H164.8z M164.7,56.1l0.1,0.2l0.2,0.1
			l0.2-0.1l0-0.3l-0.2-0.1h-0.2L164.7,56.1z M164.8,61.5l0.2-0.1v-0.2l-0.1-0.1l-0.2,0.2L164.8,61.5z M164.8,65l0.2-0.1l0-0.2
			l-0.2-0.1l0,0.2L164.8,65z M165.2,52.1l-0.1-0.2l-0.2,0.1L165.2,52.1z M165.1,51.6h0.2l0.1-0.2h-0.3V51.6z M165.5,59.1l-0.2-0.4
			l-0.2-0.1l0,0.3l0.1,0.1L165.5,59.1z M165.1,60.1l0.3,0l-0.1-0.2L165.1,60.1z M165.4,54.3l0.2-0.1l-0.2-0.1L165.4,54.3z
			 M165.6,61.6l0.2,0l-0.1-0.4h-0.2l0,0.2L165.6,61.6z M166,56.3h0.2v-0.1H166V56.3z M166.1,60.5l0.2-0.1l0.1-0.4l-0.2-0.1l-0.2,0.2
			L166.1,60.5z M166.1,52.9h0.2v-0.2h-0.2V52.9z M166.1,55.4l0,0.2l0.1,0.1l0.2-0.3l-0.2,0L166.1,55.4z M166.4,58.2l0.2,0.1h0.3
			l0-0.2l-0.2-0.1l-0.2,0.1L166.4,58.2z M166.8,57l0.3-0.1l0.2-0.2v-0.2l-0.2,0.1l-0.1,0.2L166.8,57z M167,53.6l0.1-0.3l-0.2-0.1
			l0,0.2L167,53.6z M167.4,52.6l-0.1-0.2l-0.2-0.1l0.1,0.2L167.4,52.6z M167.2,54.8l0.1,0.2l0.2,0.1l0.2,0l0.1-0.2l-0.5-0.1
			L167.2,54.8z M167.9,53.7l0-0.3h-0.2v0.2L167.9,53.7z M167.9,57.7l0-0.2l-0.1-0.1v0.2L167.9,57.7z M167.8,56l0,0.2l0.2,0l0-0.2
			l-0.1-0.1L167.8,56z M168.2,60.6l0-0.2l-0.3-0.2l-0.1,0.2l0.2,0.2H168.2z M168.6,59.4l0-0.2l-0.2-0.2l-0.2,0l0.1,0.2L168.6,59.4z
			 M168.4,55.4l0.2,0l0.1-0.2l-0.2-0.1L168.4,55.4z M168.8,58.4l0.1-0.4v-0.2l-0.2,0l-0.1,0.5L168.8,58.4z M169,52.6l0.3,0l0.2-0.1
			v-0.3l-0.2,0l-0.2,0.2L169,52.6z M169,59.6l0.1,0.2l0.2,0.1h0.3v-0.2l-0.1-0.2l-0.2,0L169,59.6z M169.6,56.2v-0.3l-0.4-0.1
			l0.1,0.2L169.6,56.2z M169.4,52.1h0.1v-0.2h-0.1V52.1z M169.6,55.5l0.3-0.8l-0.2,0l-0.2,0.7L169.6,55.5z M170.1,56.7l0.1-0.1
			l0-0.2l-0.3-0.1l-0.1,0.2l0.1,0.2L170.1,56.7z M170,57.8h0.2l-0.2-0.2V57.8z M170.1,60.4l0.3,0l0.2-0.2l-0.1-0.1h-0.3l-0.1,0.2
			V60.4z M170.7,51.9l-0.1-0.2l0.1-0.5l-0.4,0.4l-0.1,0.2l0.1,0.2l0.3-0.2L170.7,51.9z M170.2,53.2h0.2V53h-0.2V53.2z M170.4,59.2
			l0.1,0.2l0.2,0.1l0.2-0.1l-0.1-0.3h-0.2L170.4,59.2z M170.8,54.8l0.2,0l0.1-0.2l0-0.2h-0.2l-0.1,0.2V54.8z M170.9,60.4l0.1,0.2
			l0.2,0l-0.2-0.2H170.9z M171.1,57.4l0.2-0.1l0.1-0.2l0-0.2l-0.2,0.1l-0.1,0.2L171.1,57.4z M171.4,55.8l-0.1-0.3l-0.1,0.2
			L171.4,55.8z M171.6,56.4l0.1-0.3h-0.3l0,0.2L171.6,56.4z M171.4,52.6h0.2v-0.2h-0.2V52.6z M171.8,58.9l0-0.2l-0.1-0.2l-0.2-0.1
			l-0.1,0.2l0.1,0.2L171.8,58.9z M171.6,59.8h0.2l0.1-0.2h-0.2V59.8z M172.1,50.5l-0.2-0.7l-0.2-0.1l-0.1,0.3l0.1,0.2l0.2,0.2
			L172.1,50.5z M171.8,51.1l0.1,0.1l-0.1-0.2V51.1z M172,61.4l0-0.2l-0.2,0l0,0.2L172,61.4z M171.9,54.2l0.5-0.1l0-0.3l-0.1-0.1
			l-0.2,0l-0.1,0.3L171.9,54.2z M171.9,53.1h0.4l-0.2-0.6h-0.2l0,0.4L171.9,53.1z M172.3,57.7l-0.1-0.2l-0.2-0.1l0,0.2l0.1,0.1
			L172.3,57.7z M172.7,60.2l-0.2-0.2l-0.3,0l0,0.2l0.2,0.1L172.7,60.2z M172.4,55.7l0.2-0.1l0.2-0.5l-0.3-0.2l-0.1,0.2l0,0.3
			L172.4,55.7z M173.2,51v-0.5l-0.2-0.1l-0.1,0.2v0.3L173.2,51z M173.2,52.4l0.2,0.2l0.1-0.2l-0.1-0.1L173.2,52.4z M173.3,61.1
			l0.3,0.1l-0.1-0.2L173.3,61.1z M173.7,64.6h0.3v-0.2l-0.2-0.1L173.7,64.6z M174.1,46.8v-0.2l-0.1-0.2l-0.2,0v0.2l0.1,0.2
			L174.1,46.8z M173.9,50.4l0.2,0l0.2-0.3l-0.2,0l-0.2,0.1L173.9,50.4z M174.2,58.8l-0.2-0.2L174.2,58.8L174.2,58.8z M174.6,47.2
			l0.4,0.3l0.2-0.5l-0.1-0.2l-0.2-0.1l-0.2,0.2L174.6,47.2z M174.7,48.5l0.2-0.2l-0.2-0.1V48.5z M175.2,63.4l0.2-0.2l-0.2-0.2
			l-0.3,0v0.2l0.1,0.2L175.2,63.4z M175,56.7h0.2l-0.1-0.2L175,56.7z M175.5,66.2l0-0.6l-0.2-0.1l-0.2,0.5l0.1,0.2L175.5,66.2z
			 M175.7,59.8l0.2,0.2l0.2-0.2l-0.2-0.2L175.7,59.8z M176.2,43.7l-0.2,0l-0.1,0.1l0.2,0L176.2,43.7z M175.9,64.6l0.2-0.1v-0.2
			l-0.2-0.1l-0.1,0.2L175.9,64.6z M176.1,46.7l0.3,0l-0.1-0.3L176.1,46.7z M176.1,62.6l0.3,0.1l0.1-0.4l-0.2-0.1l-0.1,0.2
			L176.1,62.6z M176.2,49.2l0.1,0.4l0.2,0l0.2-0.2l0.1-0.2l-0.4,0L176.2,49.2z M176.4,63.9l0-0.2l-0.1-0.1l-0.1,0.2L176.4,63.9z
			 M177,65.6l0-0.2l-0.2,0l0,0.2L177,65.6z M176.9,67.7l0,0.3h0.4l-0.1-0.3l-0.2-0.1L176.9,67.7z M177.3,63.1l0.2,0.1l0.1-0.4
			l-0.2-0.1L177.3,63.1z M177.4,70.8h0.2v-0.2h-0.2V70.8z M177.6,45h0.2l-0.2-0.2V45z M177.9,66.1l0.3-0.3l0-0.2l-0.2-0.1l-0.2,0.1
			l-0.1,0.2l0,0.2L177.9,66.1z M178,48.9l0.2-0.3l-0.4-0.1v0.2L178,48.9z M177.9,64.7V65l0.2,0l0.1-0.2l-0.2,0L177.9,64.7z
			 M178.1,63.5h0.2l-0.2-0.2V63.5z M178.5,68.5v-0.3h-0.3v0.3L178.5,68.5z M179.1,43.9l-0.2-0.1L179,44L179.1,43.9z M178.9,70.3v0.2
			l0.3,0l0.1-0.2l-0.2,0L178.9,70.3z M179.3,65.2V65l-0.2,0.2L179.3,65.2z M179.6,68.1L179.6,68.1l-0.1-0.2L179.6,68.1z M180.3,69.8
			l-0.1-0.2h-0.3l0.1,0.2H180.3z M180.6,68l0.2,0l0.1-0.2v-0.2l-0.1-0.2l-0.2,0.3V68z M181.1,70.4h0.2l0.1-0.2h-0.3V70.4z"/>
		<path class="st17" d="M229.4,41l0.2,0.3l0.4,0l0.6,0.4l0.5,0.1l0.2,0l0.7,0.6l0.7,0.2l0.3,0.4l1.2,0.9l0.6,0.7l0.2,0.2l0.3,0.5
			l0,0.3l-0.1,0.2l0.7,0.5l0.3,0.4l0.1,0.5l0.3,0.5l-0.2,0.5l0.5,0.5l0.2,1.1l0,0.5l-0.1,0.2l-0.2,0.2l0.2,0.4l-0.2,0.1l-0.4,0.3
			l-1.5,0.2h-0.8l-0.1-0.4l-0.4,0.3l-0.6,0.1l-0.5-0.1l-0.5,0.2l-1.6-0.1l-0.9-0.2l-0.4-0.2l0-0.4l-0.7-0.6l-0.2-0.5l-0.8-0.7
			l-0.3-0.4l-1.5-0.4l-0.6-0.3H224l-1.1,0.1l-1,0.2l-0.4,0.2l-0.7,0.5l-0.6,0.8l0.2,0.5l-0.1,0.2L221,51l0.4,0.3l0.5,0.2l0.3,0.4
			l0.3,0l0.7,0.2l0.4,0.3l0.6,0l0.7,0.3h0.3l0.4,0.2l1.4,0.5l0.4,0.2l0.5,0.1l1.7,0.7l0.2,0l0.5,0.5l0.5,0.1l0.8,0.5L232,56l0.5,0
			l0.5,0.2l0.8,1l0.3,0.1l0.8,0.6l0.3,0.1l0.2,0.5l0.8,0.8l0.2,0.4l0.1,0.5v0.3l0.5,0.6l0.1,0.5l0.3,0.3l0,0.5l0.2,0.4l-0.2,0.9
			l0.1,0.2l0.2,0.1l-0.1,0.5l0,0.5l-0.1,0.5l-0.2,0.2l0.1,0.2v0.7l-0.3,0.3v0.4l-0.3,1l-0.2,0.2l-0.2,0.1v0.5l-0.3,0.4l-0.3-0.2
			l-0.1,0.2l-0.2,0.1l0.1,0.2l0.2,0.1l-1,0.9l-0.1,0.3l-0.2,0.1l-0.4,0.3l-0.3,0.1l-0.7,0.6l-0.6,0l-0.2,0.4l-0.2,0l-0.6,0.4H231
			l-0.2,0.2l-0.5,0.2l-0.2,0.2l-0.6,0l-0.8,0.3l-0.3,0l-0.7,0.1l-0.3-0.2l-0.2,0.2l-1,0.4l-1-0.1l-1.2,0.1L224,74v-0.3l-0.5,0.2
			h-0.2l-0.5-0.2l-0.1,0.4l-1-0.3l-0.3-0.4l-0.2,0.5l-0.2-0.2l-0.5-0.1h-0.8l0.2-0.2l-0.2-0.3h-0.2l-0.2,0.1h-0.2l-0.4-0.2l-1.5-0.2
			l-0.7-0.2l0.1-0.4l-0.4,0.3l-0.2,0l0-0.3l0.2-0.1l-0.1-0.2l-0.8,0l-0.3-0.3l-0.2-0.1h-0.3l-0.2-0.4l-0.5-0.4l-0.3,0l-0.2-0.6
			L213,70l-1.2-1.7l-0.5-1l-0.5-2v-0.8l0.6-0.9l0.2-0.1l0.5,0.1l1-0.1h4.9l0.8,0.6l1.7,1.8l0.6,0.5l0.3-0.1l1,0.2l0.5,0.2l0.7,0.1
			l0.2-0.1l0.2,0l0.1,0.1l0.5-0.2l0.5,0.1l0,0.3l0.1,0.1l0.2-0.1v-0.3l0.1,0.2l0.4-0.2l0.1-0.2h0.3l0.6-0.3l0.3,0l0.3-0.3l0.2-0.5
			l0.3-1.2l-0.2-0.3l-0.2-0.1l-0.3,0l-0.1-0.5l-0.5-0.1l-0.6-0.4l-0.4-0.1l-0.3,0l-0.2-0.4H225l-0.5-0.2l-0.4-0.3l-0.1-0.2l-0.5,0.1
			l-0.2-0.1l-0.4-0.3l-0.5,0l-1.3-0.5l-0.8-0.2l-0.7-0.4h-0.5l-0.6-0.5l-0.5-0.1l-0.7-0.5l-0.5-0.1h-0.3l-0.7-0.6l-1.1-0.6v-0.3
			l-0.3-0.3l-0.5,0l-0.2-0.5l-0.7-0.6l0-0.5l-0.4-0.2l0.1-0.4l-0.5-0.1l-0.4-0.6l0-0.5l-0.5-0.8l-0.1-0.5v-0.3l0.4-0.2l-0.3-1l0-0.5
			l0.1-0.2l-0.2-0.4l0-0.6l0.1-0.6l0.3-0.4l0-0.6l0.1-0.5l0.3-0.4l-0.1-0.5l0.2,0l0.2-0.2l0.3-1h0.3l0.2-0.1l0.2-0.5l0.3-0.3l0.2,0
			l0-0.5l0.1-0.2l0.6,0.2l0.3,0l-0.2-0.5l0.6-0.5l0.2-0.1l0.1,0.2v0.3l0.2-0.1v-0.6h0.5l0.1-0.1l0-0.2l0.2,0l0.6-0.3h0.6l0.6-0.7
			l1,0.3l-0.1-0.2v-0.2l0.2-0.1l0.8,0l0.1-0.2l0.5,0.2l0.1-0.2l0.3,0.4l0.2-0.2v-0.2l0.1-0.2l0.5-0.1l0.3,0.1l0,0.2l0.2-0.2h0.8
			l-0.1,0.5l0.2-0.1l0.1-0.1v-0.2l-0.2-0.1l0.5-0.2h0.2l0.7,0.3l0.6-0.1l2.4,0.4l0.5,0l0.2,0.1l0.3,0.3l0.2,0L229.4,41z M213,48.7
			l0.3-0.2H213L213,48.7z M213.5,52.6l0.2,0l0-0.3l-0.2,0.1L213.5,52.6z M214.1,50.6l-0.1-0.2l-0.2-0.1l0,0.2L214.1,50.6z
			 M214.2,48.4l0.5,0.2l0.2-0.1l-0.2-0.4l-0.4-0.3l-0.1,0.2v0.2L214.2,48.4z M214.2,49.2l0.3-0.1l-0.2-0.1L214.2,49.2z M214.6,49.8
			l-0.1-0.2l-0.2,0l0,0.2H214.6z M215.2,53.6l0,0.2l0.1,0.2l0.2-0.2l0-0.2l-0.5-0.3l-0.2,0l-0.2,0.1l0.2,0.1l0.2,0L215.2,53.6z
			 M214.7,47.4v0.2l0.2,0.1l0.1-0.1v-0.2H214.7L214.7,47.4z M214.9,46.7l0.4-0.1l0-0.2l-0.3,0.1L214.9,46.7z M214.9,51.3h0.3
			l-0.1-0.2l-0.2-0.1V51.3z M214.9,52.4l0.2-0.5l-0.2,0.1l0,0.2L214.9,52.4z M215.3,45.3l0.1-0.2l-0.1-0.2l-0.1,0.2L215.3,45.3z
			 M215.4,55.1l0-0.2l-0.2-0.1v0.2L215.4,55.1z M215.4,46.3l0.1-0.2l-0.2-0.2l0,0.2L215.4,46.3z M215.6,47.7l0.1,0.3l0.2,0.1l0.2,0
			l-0.1-0.2l-0.2-0.2L215.6,47.7z M215.6,48.7l0.1,0.2l0.2,0.1l0.1-0.4l-0.2-0.1L215.6,48.7z M215.9,52l0.3,0.1l0.1-0.5l-0.2-0.1
			l-0.2,0.3V52z M215.9,53.1L216,53l-0.2-0.1V53.1z M215.9,50.3v0.2l0.1,0.2l0.2,0.1l0.2-0.1l-0.2-0.5h-0.2L215.9,50.3z M216.2,47.1
			l0.2,0.2l0.2-0.3l-0.2,0L216.2,47.1z M216.3,46.1l0.2,0.1l0.3,0l0.1-0.2v-0.4l-0.1-0.2l-0.4,0.2l-0.1,0.2L216.3,46.1z M216.4,53.4
			l0.5,0.2l0-0.3l-0.1-0.2l-0.2-0.1l-0.1,0.2L216.4,53.4z M216.7,54.7l0-0.4l-0.1-0.2l-0.1,0.2v0.2L216.7,54.7z M216.5,44.7l0.3,0.1
			v-0.2l-0.2-0.1L216.5,44.7z M216.9,69.4h0.2l-0.1-0.2L216.9,69.4L216.9,69.4z M217.2,72.3l-0.2-0.1l0.1,0.2L217.2,72.3z
			 M217.3,47.5l0-0.2l-0.2-0.1l0,0.2L217.3,47.5z M217.2,52.7l0-0.2l-0.2-0.1v0.2L217.2,52.7z M217.3,48.4v-0.3l-0.2,0v0.2
			L217.3,48.4z M217.3,68.4h0.1l-0.1-0.2L217.3,68.4L217.3,68.4z M217.6,50.1l0.2-0.4l-0.3,0l-0.1,0.2l0.1,0.2L217.6,50.1z
			 M217.3,51.5l0.2,0.1l0.2-0.5l-0.3-0.1l-0.1,0.2L217.3,51.5z M217.3,58.9h0.2l-0.2-0.2V58.9z M217.7,46.6l0-0.2l-0.3-0.1l0.1,0.2
			L217.7,46.6z M217.6,45.4l0.4,0.1l0.2,0l-0.1-0.2h-0.3L217.6,45.4z M217.6,54.1l0.2,0.1L218,54l-0.3-0.2L217.6,54.1z M217.7,56.9
			l0.2,0.1l0.5-0.2v-0.3l-0.2-0.1l-0.4,0.2L217.7,56.9z M218,53l0-0.2l-0.2-0.1l0.1,0.2L218,53z M218.1,55.7l0.2-0.5H218l0,0.3
			L218.1,55.7z M218.1,48.1l0.4,0.2l0.1-0.3l-0.3,0L218.1,48.1z M218.5,46.7l0.1-0.2l0-0.2l-0.2-0.1l0,0.4L218.5,46.7z M218.8,50.4
			l-0.2,0.2l-0.1,0.2l0.1,0.2l0.2,0l0-0.2L218.8,50.4z M218.8,69.5l-0.1-0.2l-0.1,0.2L218.8,69.5z M219.2,49.7l-0.1-0.2l-0.3,0v0.2
			l0.2,0H219.2z M219.2,70.6l-0.1-0.2l-0.3-0.1l0.2,0.3L219.2,70.6z M219.3,52.6l0.1-0.3l0-0.3l-0.2-0.1l-0.2,0.4l0.1,0.2
			L219.3,52.6z M219.2,53.8l0-0.2l-0.2-0.1v0.2L219.2,53.8z M219.3,43.4v-0.3l-0.2,0.2L219.3,43.4z M219.2,56.3l0.5,0.2l-0.1-0.5
			l-0.1-0.2l-0.2,0.2L219.2,56.3z M219.6,47.3l0.1-0.3h-0.2l0,0.2L219.6,47.3z M219.5,55l0.2,0.2l0.1-0.2H219.5z M219.6,46.1h0.1
			v-0.2h-0.1V46.1z M220,57.9v-0.5l-0.2-0.1l0.1,0.5L220,57.9z M220,53.2l0.2,0V53l-0.2-0.1L220,53.2z M220.2,44.3h0.2v-0.3
			l-0.2,0.1V44.3z M220.4,55.7l0.2,0.4l0.5-0.2l0.1-0.2l-0.2-0.1l-0.2,0.1L220.4,55.7z M220.6,45.3l0.2,0.4l0.2,0l0-0.3l-0.2-0.2
			L220.6,45.3z M221.1,56.9l0.3,0.6l0.2,0l-0.3-0.6L221.1,56.9z M221.4,43.8l0.3,0l0.2-0.2l0.2,0.2l-0.1-0.2l-0.3-0.1l-0.1,0.2
			L221.4,43.8z M221.6,55.2l0.2,0.1l0.5,0V55l-0.2-0.1l-0.3,0.1L221.6,55.2z M221.8,46.5h0.2v-0.2h-0.2V46.5z M222.2,54.3l-0.1-0.5
			h-0.2l0.1,0.3L222.2,54.3z M221.9,45.3l0.4,0V45l-0.1-0.1L222,45L221.9,45.3z M222,59v0.2l0.2-0.1L222,59L222,59z M222.4,44.3
			l0.3,0.1v-0.2h-0.2L222.4,44.3z M222.4,56.7l0,0.2l0.2,0.1l0.2,0l0-0.3l-0.2-0.2L222.4,56.7z M222.7,58.2l0-0.2l-0.3-0.3l-0.1,0.2
			l0.1,0.2L222.7,58.2z M222.5,69l0.2,0.2l0.1-0.2l0-0.2L222.5,69z M222.7,68.4l0-0.2l-0.2-0.1v0.2L222.7,68.4z M222.8,43h0.2v-0.2
			h-0.2V43z M223.1,54.8h0.3v-0.3l-0.2-0.1l-0.1,0.2V54.8z M223.2,46l0.2,0l0-0.2l-0.2-0.1l-0.1,0.2V46z M223.7,44.5l0-0.2l-0.4-0.2
			l0.2,0.4L223.7,44.5z M223.7,67.4l-0.1-0.4l-0.2-0.2l-0.1,0.2l0.1,0.2L223.7,67.4z M224.2,56.5l-0.2-0.4l-0.2-0.1v0.2l0.2,0.2
			L224.2,56.5z M224.1,42.7l0.2-0.1l0-0.3l-0.3,0.3L224.1,42.7z M224.2,55.9h0.1v-0.2h-0.1V55.9z M224.7,44.3l0.2-0.1l0-0.3
			l-0.2-0.1l-0.1,0.3L224.7,44.3z M224.6,57l0.4,0.1l0.2-0.1v-0.3l-0.2,0l-0.4,0.1L224.6,57z M224.7,69.5h0.1v-0.2h-0.1V69.5z
			 M224.9,46.6l0.2-0.1l-0.1-0.2L224.9,46.6z M225.1,55.8l0.1-0.3H225v0.2L225.1,55.8z M225.4,59.7l0.2-0.4l-0.2-0.1l-0.2,0.4
			L225.4,59.7z M225.7,58.7l-0.2-0.5l0-0.3l-0.3,0.1l-0.1,0.2l0.1,0.2l0.2,0.2L225.7,58.7z M225.6,71.1l-0.1-0.2l-0.2-0.1l0,0.2
			L225.6,71.1z M225.4,70.1l0.3,0.1l0-0.5l-0.1-0.2l-0.1,0.1l0,0.2V70.1z M225.5,44.8l0.2,0.1h0.4v-0.3h-0.5L225.5,44.8z
			 M225.9,72.5h0.2l0.1-0.2H226L225.9,72.5z M226.1,56.5L226.1,56.5l-0.1-0.2L226.1,56.5z M226.3,59.2h0.2l0.1-0.2h-0.3V59.2z
			 M226.7,58.1l0-0.2l-0.1-0.1l-0.1,0.2L226.7,58.1z M226.8,44.4h0.3l0.1-0.2l-0.2-0.2l-0.2,0.2L226.8,44.4z M226.8,72l0.4,0.2
			l0.2-0.1l0-0.2l-0.5,0L226.8,72z M226.9,42.8h0.2v-0.2H227L226.9,42.8z M227.1,56h0.1v-0.2h-0.1V56z M227.3,45.5l0.2,0.5l0.2,0.2
			l0.1-0.2l-0.1-0.2l-0.2-0.2L227.3,45.5z M227.4,47h0.2l0.1-0.2h-0.2V47z M228.1,57.5l0.1-0.2l0-0.2l-0.2-0.2h-0.2l-0.1,0.2l0,0.2
			l0.1,0.1L228.1,57.5z M227.6,58.7l0.2,0l0.1-0.2l-0.2-0.1l-0.1,0.2L227.6,58.7z M228,69.9l-0.2,0.1l0.2,0.1L228,69.9z M227.9,68.5
			h0.2v-0.2H228L227.9,68.5z M228,61.1l0.2,0.1v-0.2h-0.2L228,61.1z M228.6,45.3h0.1v-0.2h-0.1V45.3z M228.9,56.6l0.1,0.2l0.2,0
			l0.1-0.4h-0.2L228.9,56.6z M229.1,58.2v-0.3l-0.2-0.1l0,0.2L229.1,58.2z M229,68l0.4,0.1l0.1-0.2l-0.2-0.2h-0.2L229,68z
			 M229.3,54.7l-0.2,0l0.1,0.2L229.3,54.7z M229.3,48l0.2-0.3h-0.2l0,0.2L229.3,48z M229.7,63.5l-0.3-0.2l0,0.2l0.2,0.1L229.7,63.5z
			 M229.3,62l0.1,0.2l0.2,0.1h0.2l0.1-0.2l-0.2-0.2l-0.3-0.1L229.3,62z M229.5,45.8l0.1,0.2l0.3,0.1v-0.2l-0.1-0.2L229.5,45.8z
			 M229.9,64.8l0.2,0.4l0.2,0.1l0.1-0.3l-0.1-0.3l-0.2-0.2l-0.2,0L229.9,64.8z M230,66.4l0.2-0.1l-0.2-0.1V66.4z M230.2,47.2h0.2V47
			h-0.2L230.2,47.2z M230.7,64.2v-0.2l-0.3,0.1L230.7,64.2z M230.5,67.8l0.3,0l0.1-0.2l0-0.3l-0.3,0l-0.1,0.2L230.5,67.8z
			 M230.7,61.5l0.4,0.3l0.2,0.1l0.1-0.2l-0.1-0.2l-0.4-0.2L230.7,61.5z M231.1,62.9l-0.1-0.2l-0.2,0l0.1,0.3L231.1,62.9z
			 M231.4,45.7l0-0.2l-0.2-0.1H231l0,0.3l0.2,0.1L231.4,45.7z M231,60.3l0.2-0.1L231,60V60.3z M231,65.7h0.3l0.1-0.2l-0.3-0.1
			L231,65.7z M231.5,64.7l0.2-0.1l0.1-0.2l-0.1-0.3l-0.2-0.2l-0.2,0.5l0,0.2L231.5,64.7z M231.2,69.5h0.2v-0.2h-0.2V69.5z
			 M231.7,68.4l0.1-0.2l-0.3-0.1l0,0.2L231.7,68.4z M231.7,63.3l0.1,0.2l0.2-0.2H231.7z M232.2,67h-0.3l0,0.2l0.2,0L232.2,67z
			 M232.1,62.4l0.3-0.4l-0.2-0.2l-0.2,0.4L232.1,62.4z M232.2,61.3l0.2,0.1l0.1-0.2l-0.2,0L232.2,61.3z M232.7,62.4h0.2l-0.2-0.2
			V62.4z M232.9,63.8l-0.2,0.1L232.9,63.8l0.2-0.2h-0.2L232.9,63.8z M232.9,66.9h0.2l0.3-0.3v-0.2l-0.2-0.1l-0.3,0.4L232.9,66.9z
			 M232.9,65.3l0.2,0.1l0.1-0.2l-0.2,0L232.9,65.3z M233.6,60.7l0-0.2l-0.1-0.2l-0.2-0.1l-0.1,0.2l0.2,0.4H233.6z M233.6,61.9
			l0.2-0.2h-0.2l-0.2,0.1L233.6,61.9z M234,64.7l-0.1-0.2l-0.3,0l0.1,0.2L234,64.7z M233.8,68.6l0.2-0.4l-0.2-0.1l-0.1,0.4
			L233.8,68.6z M234,63.4l-0.1-0.3l-0.2-0.2l0,0.5H234z M234.6,66.1l0-0.2l-0.2-0.1l-0.2,0l0,0.3l0.2,0.2L234.6,66.1z M234.2,61.2
			l0.1,0.2h0.2l0.1-0.2H234.2L234.2,61.2z M235.3,65.5l0.5,0.2l-0.1-0.2l-0.2,0L235.3,65.5z"/>
		<path class="st17" d="M273.6,44.6l0,0.5l0.1,0.7l-0.1,0.2l-0.2,0.1l0.1,0.2v0.2l-0.2,0.8l0.3,0.2l-0.2,0.5h-0.2l0,0.2l0.1,0.5
			l-0.5,0.2l-0.9,0.1l-0.4,0.2l-0.4-0.1l-1,0.1l-0.5-0.1l-0.2-0.1l-0.5,0.2h-1.1l-0.4-0.2l-0.1-0.2l-0.4,0.2l-0.8,0.1l-0.5-0.2
			l-0.4,0.2l-0.5,0l-0.2-0.1l-0.3,0.3l-0.5,0.2h-0.2l-0.1,0.2l-0.1,0.5l-0.1,1.9l-0.1,0.5l0.3,0.5l-0.1,0.2l-0.4,0.3l0,0.2l0.5-0.1
			l0.1,0.2l0,0.3l-0.2,0.2l0.1,0.2v0.5l-0.2,0.9l0.3,0.2l-0.1,0.8v0.5l0.1,0.5l-0.3,0.1l0.3,1.3l-0.1,0.5l-0.1,0.2l0.3,0.5l-0.1,0.2
			l0,1.2l-0.2,0.2l0.3,0.7l-0.2,0.4l0.1,0.8l0,1l0.1,0.9l-0.1,0.7l0.1,1l-0.3,0.4l0.1,0.2l0.1,0.5l0,1l-0.2,0.5l-0.1,0.5l-0.2,0.2
			l0.3,0.1l0.1,0.2l-0.2,1l0.2,0.1l-0.2,0.3l0,0.2l-0.2,0.1l-0.2,0.4l-0.8,0.1l-0.5-0.2l-0.2,0.1l-1,0l-0.2,0.1l-0.1-0.2l-0.2,0.1
			l-0.4,0l-0.5,0.2h-0.2l-0.4-0.2l-0.2,0l-0.1,0.1l-0.5-0.1l-1.5-0.1l-0.5-0.2l-0.1-0.2l-0.2-1l-0.2-0.4l0.1-0.9l0-0.5l0.3-0.1
			l-0.3-0.3l0-0.3l0.4-0.2l-0.3-0.7l0.1-0.8l-0.1-0.2l0.2-0.4l-0.1-0.2l-0.2-2l0.4-0.1l-0.3-0.4l0.1-0.4l-0.2-0.4l0.2-0.8l0-0.5
			l0.4-0.1l-0.3-0.3l-0.1-0.5l0.2,0.1l0.2,0.2h0.2l-0.2-0.4l-0.2,0l-0.2-0.6l0-1.1l0.1-0.5l-0.1-0.4l0.2-0.3l0.2-0.2l-0.2-0.4
			l-0.1-1.2l0.2-0.1l0.2-0.4v-0.3l-0.2-0.1l-0.1-0.5l-0.2-0.2l0.2-0.2l0-0.8l0.2,0l-0.1-0.7l0.2-0.1l0.2,0.2l0.1-0.2l0-0.3h0.4
			l0-0.2l-0.1-0.1l-0.2,0.1l-0.2-0.2l-0.2-0.4l0-0.4l-0.4-0.4l0-0.5l0.2-0.6l-0.2-0.4v-0.3L254,49l-0.3,0.4h-0.1l-0.1-0.5l-0.2-0.2
			l-0.2,0.4l-0.2-0.3l-0.2,0.1v0.2l-1.1-0.1l-0.5,0l-0.5,0.2l-1.4-0.2l-0.1-0.2l-0.2-0.1l-0.4,0.5l-0.2-0.1l-0.9,0l-0.7,0.3
			l-0.2-0.2l-1.4-0.3l0-0.3l0.4-0.3l-0.2-0.2l-0.5,0.2l0-0.2l-0.1-0.8l0.2-0.2l-0.1-0.2l-0.1-0.5l0.2-0.7l-0.2-0.4l0-0.5l0.2-0.1
			l0-0.5l0.5-0.2l-0.2-0.2h-0.5l0.1-0.5l0-0.5l-0.1-0.2l0.3-0.6l-0.1-0.2l0.2-0.1h0.3l-0.1-0.5l0.4-0.2l0.5,0l0.4,0.2l0.9-0.2h2
			l0.2,0.1l0.1,0.2l1.7-0.2l0.2,0.1l0.5,0.1l0.5,0l0.5-0.2l0.1-0.1l0.8,0.2h1l0.5-0.2l0.1,0.5l0.2-0.1l0-0.2l0.2-0.1l0.8,0.1
			l0.5-0.1v0.2l0.1,0.2l0.2-0.1l0.2-0.4l0.5,0.1l0.8-0.1l-0.1,0.4h0.5l0.1-0.1l0-0.2l0.5,0.2l0.5-0.2h2.3l0.5,0.1l0.2,0.1l0.4-0.2
			h2.7l1,0.1l0.2-0.1l0.5,0.1l0.5-0.2l1,0.1l1,0l0.4,0.3l0.4-0.3l1.2,0.3l0.4,0.2l0.3,0.6v1.1l-0.1,0.5l-0.1,0.2l0.3,0.5L273.6,44.6
			z M248.1,44.7v-0.2l-0.2-0.1l-0.1,0.2l0.2,0.4L248.1,44.7z M249.2,44.2l-0.2,0l0,0.2l0.2,0.1V44.2z M249.5,47l0.2-0.2l-0.3-0.3
			l-0.2,0.4L249.5,47z M249.9,45.5h-0.2l-0.1,0.7h0.4V45.5z M250,44.9l0.2,0l0.1-0.2h-0.3L250,44.9z M250.5,43.8v-0.2l-0.2-0.2
			l-0.1,0.5l0.2,0.2L250.5,43.8z M250.9,44.3h0.2v-0.2h-0.2V44.3z M251.2,45.3l-0.2,0v0.2h0.2L251.2,45.3z M251.5,43.2h0.2v-0.5
			l-0.2,0l-0.2,0.2l0,0.2L251.5,43.2z M252.1,45.6h-0.4l-0.1,0.2l0.4-0.1l0.2,0.2V45.6z M252.3,43.8l0.2,0.1l0.2-0.1l-0.3-0.1
			l-0.2,0L252.3,43.8z M252.5,44.5h-0.2l0,0.2l0.2,0V44.5z M252.7,47.4l0.1-0.2l-0.2-0.1v0.5L252.7,47.4z M253.7,44.3v-0.4l-0.2-0.1
			l-0.2,0.2l0.1,0.3L253.7,44.3z M253.6,43.3l0.2,0.1l-0.1-0.2l-0.3-0.1L253.6,43.3z M254.1,41.9l-0.2-0.1l-0.2,0.1l0.5,0.2
			L254.1,41.9z M254.1,47l0-0.3l-0.2-0.2l-0.2-0.1l0.1,0.7l0.1,0.2L254.1,47z M254.5,44.8l0.1-0.2l-0.2-0.1l-0.2,0v0.2H254.5z
			 M254.9,43.9l0.1-0.2l-0.1-0.3l-0.2,0.1l-0.1,0.5l0.1,0.1L254.9,43.9z M254.7,42.8l0.2,0l0.1-0.2h-0.4L254.7,42.8z M255.3,65.5
			l-0.2-0.2v0.2H255.3z M255.5,66.1l-0.2-0.1v0.2l0.2,0.1L255.5,66.1z M256,48l-0.3,0l-0.2,0.2l0.4,0.1L256,48z M256.2,43.1l0-0.2
			l-0.1-0.2l-0.3-0.1l-0.1,0.4l0.1,0.2l0.2,0.1L256.2,43.1z M256.5,49.7l0-0.3l-0.3,0.1l-0.2,0.2H256.5z M256.3,45.5l0,0.3l0.2,0.1
			l0.1-0.2l0-0.3L256.3,45.5z M256.4,52.2l0.2,0.2l0.3,0l0-0.2l-0.2-0.2l-0.2,0L256.4,52.2z M256.6,43.5l0,0.2l0.3,0.1l0.2-0.2
			l0-0.2l-0.3-0.1L256.6,43.5z M256.7,44.8v-0.1h-0.2v0.1H256.7z M256.6,48.4v0.2h0.2l0.1-0.2l-0.1-0.1L256.6,48.4z M257.1,68.2
			l0.2-0.1l-0.1-0.2l-0.4,0.1l-0.1,0.1l0.2,0.2L257.1,68.2z M257,46.3l0.3,0l0.2-0.2L257,46l-0.2,0.1L257,46.3z M257.2,51.3l0.1-0.2
			v-0.2l-0.2-0.1l-0.1,0.5L257.2,51.3z M257.1,60l0.2,0.2v-0.2L257.1,60z M257.2,64h0.3l0-0.2l-0.2-0.1h-0.2v0.3L257.2,64z
			 M257.1,42.7l0.2,0.2l0.2,0l-0.2-0.3L257.1,42.7z M257.3,48.6l-0.2,0.2l0.2,0.2l0.2-0.2L257.3,48.6z M257.3,57.7l0.2,0l-0.2-0.2
			L257.3,57.7z M257.7,54.3V54h-0.2l-0.1,0.2l0.1,0.2L257.7,54.3z M257.6,62.3h-0.2l0.1,0.2l0.3-0.2L257.6,62.3z M257.8,66.5
			l0.3-0.3l-0.2-0.1h-0.2l-0.2,0.1l0.1,0.3H257.8z M257.5,45.1l0,0.2h0.3l0-0.3l-0.2-0.2L257.5,45.1z M257.8,51.7l0.2,0.1l0.2-0.1
			l0.1-0.2l-0.2-0.1l-0.5,0.1L257.8,51.7z M258.1,47.7l-0.1-0.2l-0.2,0l0,0.2l0.1,0.5l0.2,0.1l0.3-0.5L258.1,47.7z M257.7,44.5
			l0.2,0l0.1-0.2h-0.3V44.5z M258.4,46.8l-0.3,0l0,0.2l0.2,0l0.2-0.1L258.4,46.8z M258.7,50.6v-0.2l0.1-0.2l-0.2-0.1l-0.3,0l0.1,0.5
			l0.2,0.2L258.7,50.6z M258.2,60.5l0.2,0.1l0.1-0.2l-0.2-0.1L258.2,60.5z M258.5,67.5l-0.2-0.1l-0.1,0.2l0.2,0.1L258.5,67.5z
			 M258.7,63.1l-0.2-0.1l-0.1,0.1H258.7z M258.5,45.9l0.1-0.1l-0.1-0.1V45.9z M258.9,49.6l-0.2-0.1l0,0.2l0.2,0.1L258.9,49.6z
			 M258.9,53.6l-0.2-0.1v0.2L258.9,53.6z M259,70.7l-0.2-0.1v0.1H259z M259,43.7l-0.2,0.1l0.3,0.2l0.1-0.1l0-0.2H259z M259,42.5
			l0.1,0.2l0.1-0.3L259,42.5z M259.2,64.6l0.1-0.1l-0.2,0l-0.1,0.2L259.2,64.6z M259.4,46.8l-0.2,0V47h0.2L259.4,46.8z M259.5,51.1
			l-0.4,0l0.1,0.2l0.5,0.1l0.1-0.2L259.5,51.1z M259.1,65.1h0.2l-0.1-0.2l-0.2-0.1V65.1z M259.2,59.9l0.2-0.2h-0.2L259.2,59.9z
			 M259.4,68.7l0.2-0.1l0-0.2l-0.2-0.1l-0.2,0.3H259.4z M259.4,42.6l0.1,0.2l0.1-0.3L259.4,42.6z M259.7,49.6l-0.2,0.1l0.1,0.5
			l0.2,0.2l0.2-0.6L259.7,49.6z M259.7,54l0.2-0.2l-0.2-0.1l-0.2,0l-0.1,0.2L259.7,54z M259.9,45.3l-0.2-0.1l-0.1,0.1l0.4,0.1
			l0.2-0.1v-0.1L259.9,45.3z M259.7,57.9v-0.2h-0.1v0.2H259.7z M259.8,69.9h-0.2v0.2h0.2V69.9z M259.8,49v0.2l0.2,0.1l0.2-0.2
			l-0.1-0.2L259.8,49z M260.3,52.6l-0.1-0.2l-0.2-0.1l0.1,0.5l0.2,0.1L260.3,52.6z M260.1,56.7l-0.2-0.1v0.2L260.1,56.7z
			 M260.4,43.1l-0.2,0.1v0.2h0.4l0.1-0.2L260.4,43.1z M260.4,50.7l0.2,0l0-0.2h-0.2L260.4,50.7z M260.7,63.6l0.2,0.1v-0.2l-0.1-0.2
			l-0.2,0l-0.1,0.1L260.7,63.6z M260.7,46l-0.1,0.2l0.2,0l0.1-0.1L260.7,46z M260.8,54.6v-0.2h-0.2v0.2H260.8z M260.8,58.6h0.2
			l0.1-0.2h-0.2V58.6z M260.8,67.1L260.8,67.1l0.2,0.1L260.8,67.1z M261.3,44.7l-0.2,0l-0.2,0.1l0.4,0.1V44.7z M260.9,49.4l0,0.2
			l0.2-0.1l0-0.3H261L260.9,49.4z M261.3,69.4l-0.1-0.2l-0.2-0.1v0.3l0.1,0.2l0.2,0.1V69.4z M261.1,60.8l0.3,0.1v-0.2L261.1,60.8z
			 M261.1,57.4l0.2,0.1v-0.2L261.1,57.4z M261.4,47.4l-0.1-0.1l-0.2,0.1L261.4,47.4z M261.4,43.7l-0.1,0.2l0,0.2l0.2,0l0.1-0.4
			L261.4,43.7z M261.4,51.5l0.2,0l0.1-0.2l-0.2-0.1l-0.3,0L261.4,51.5z M261.4,64.9l0.1-0.1h-0.2L261.4,64.9z M261.6,60.3l0.2-0.2
			l-0.2-0.1l-0.2,0.2L261.6,60.3z M261.6,42.8l0.1-0.2l-0.2,0.1L261.6,42.8z M261.6,50.2l0.2,0l-0.1-0.2l-0.2-0.1L261.6,50.2z
			 M261.9,46.1l-0.1-0.2h-0.2l0.1,0.4l0.2,0V46.1z M261.8,41.6l0.1,0.2l0.2,0.1l0.1-0.2l-0.1-0.2l-0.2-0.1L261.8,41.6z M262.3,44.2
			h-0.2l-0.1,0.2h0.3L262.3,44.2z M262.6,46.7l-0.2-0.2l-0.1,0.2l0.1,0.2l0.2,0.1L262.6,46.7z M262.9,46l0.2,0.1l0-0.3l-0.2-0.1
			L262.9,46z M263.3,51.8l-0.4-0.1l0.1,0.2l0.2,0.1L263.3,51.8z M263.3,45.1l0.2-0.2l-0.2-0.1l-0.2,0.2L263.3,45.1z M263.6,46.2
			h-0.1v0.1h0.1V46.2z M264.3,45.2l-0.2-0.1v0.2l0.2,0.1L264.3,45.2z M264.5,43.2l0.2,0.1h0.5l0.1-0.2l-0.2-0.1l-0.3,0l-0.2,0.1
			V43.2z M264.8,45.7l0.2,0.2l0.3,0.1l0-0.4l-0.3-0.2L264.8,45.7z M266,43.8l-0.5-0.2l-0.2,0.2l0.3,0.3l0.2,0L266,43.8z M265.7,45
			l0-0.3l-0.2-0.1l-0.1,0.2l0.1,0.2L265.7,45z M266.9,44.3h0.1l0.1-0.2h-0.2V44.3z M267.2,46.2l0.2,0l0.1-0.2l-0.2-0.1h-0.2
			l-0.1,0.2L267.2,46.2z M268,43.6l-0.2,0.3h0.4L268,43.6z M267.9,43.1h0.1v-0.2h-0.1V43.1z M268.3,45.7l0.1,0.2l0.3,0l0-0.2
			l-0.2-0.2l-0.2,0V45.7z M269.8,46l-0.2-0.1l0,0.2l0.1,0.2l0.2,0L269.8,46z M269.9,45.5l-0.2,0.1l0.1,0.1h0.2L269.9,45.5z
			 M270.5,44.3V44h-0.2l-0.1,0.2l0.2,0.1L270.5,44.3z M272.8,46.8l-0.2-0.2v0.2L272.8,46.8z"/>
		<path class="st17" d="M304.3,41.9h0.5l2.2,1.4l0.2,0.3l0.1,0.2l0.2,0l0.7,0.4l0.5,0.5l0.2,0.5v0.2l0.1,0.2h0.5l-0.1,0.2l0.2,0.2
			l0,0.2l1,0.5L311,47l-0.1,0.2h-0.2l0.1,0.3l0.2,0.1l0.1,0.3l0.5-0.1l0.1,0.3l0.3,0.4l0.4,0.2l0.1,0.3l0.4,0.6V50l0.3,0.3l0.2,0.5
			V51l-0.1,0.2l0.2,0.1l0.3,0.4l0.2,0.5l0,0.5l0.4,0.6l0.1,0.5l0,1.1l0.3,0.5l-0.2,4l-0.4,1.5l0,0.5l-1,1.8l-0.1,1l-0.9,1.7
			l-0.5,0.4l-0.2,0.5l-0.8,0.8l0,0.4l-0.4,0.3l-0.1,0.2l-1.5,1.2l-2,1.5l-0.7,0.3l-0.3,0.4l-0.8,0.5l-0.2,0.2l-1.1,0.2l-1.6,0.7
			l-0.2-0.3l-0.3,0l-0.5,0.5l-0.2-0.2l-1.4,0.3l-1,0l-0.2-0.1l-0.4,0.3l-0.5-0.1l-1,0.1l-0.4,0l-0.4-0.3L295,74l-0.3-0.3l-0.2-0.1
			l-0.2,0.1l-0.5,0l-0.7-0.2l-0.2-0.1h-0.5l-0.6-0.4l-0.4,0.2l-1.1-0.7l-0.2,0l-0.2,0.1l-0.4-0.3l-0.7-0.4h-0.2l-0.3-0.4l-1-0.4
			l-0.1-0.2l0.1-0.2l-0.5-0.1l-0.4-0.2l-0.6-0.7l-0.4-0.6H285l-0.3-0.4l-1-0.7l-0.5-0.9l-0.7-0.7V66l-0.6-0.8l-0.1-0.5l-0.3-0.3
			l-0.2-0.5l-0.4-1.5l-0.3-0.3l0-0.2l0.2-0.1l0-0.2l-0.3-0.1l-0.5-1.5l-0.2-0.2l0.2-0.5l-0.2-0.6l0.1-1.6l0-0.5l-0.2-0.5l0.2-0.9
			v-0.8l0.3-0.3l-0.2-0.5l0.2-1l0.4-1l0.2-0.2l0.1-0.6l0.2-0.5l0.3-0.3l0-0.6l0.3-0.4l0.1-0.5l1-1.4l0.1,0.2l0.1-0.5l0.5-0.2v-0.3
			h0.5l-0.1-0.2l-0.2-0.1l0.3-0.3l0.3,0l0.2-0.6l0.6-0.1l0.2,0.1v-0.2l-0.2-0.2l0.1-0.2l0.3-0.2l0.5-0.1l0-0.2l0.3-0.4l0.9-0.5
			l0.1-0.4l0.5,0l0.4-0.3l0.9-0.5l2-0.7l0.9-0.5l0.2,0l0.3,0.1l0.8-0.2h0.5l0.2-0.1l0.5-0.1l0.4-0.2l0.3,0.2l2.1-0.2l0.5,0.1l0.2,0
			l0.2-0.1l0.7,0.2l0.5,0l0.2,0.2l1,0.3l0.2-0.1l1.3,0.1l0.1,0.2l0.5,0.2l0.5,0.1l0.4,0.2L304.3,41.9z M280.4,55.1l0-0.2h0V55.1z
			 M281,62.3l0.3-0.2l-0.2,0L281,62.3z M281.9,58.9l0.1,0.2l0.2-0.1l0.1-0.2H282L281.9,58.9z M282.4,57.9l-0.3-0.2v0.2L282.4,57.9z
			 M282.6,60.9h0.3v-0.3l-0.2-0.1l-0.1,0.2V60.9z M283.6,58.4l-0.2,0.1l0.1,0.1L283.6,58.4z M284,60.3l0-0.3l-0.2-0.1l0,0.2l0.1,0.2
			L284,60.3z M283.8,61.4l0.1-0.2l-0.1-0.5l-0.2-0.1l0,0.5L283.8,61.4z M284,64l0.3,0.2l0-0.3l-0.2-0.2L284,64z M284.2,59h0.1v-0.1
			h-0.1V59z M284.9,52.3h0.2l0.1-0.2l-0.2-0.1V52.3z M285.1,55.9l0-0.3h-0.2l0,0.2L285.1,55.9z M284.9,59.8l0.2,0l0.2-0.1l0.1-0.2
			l-0.2,0l-0.1,0.1L284.9,59.8z M285.3,62.5l0.2,0.1l0.2-0.1v-0.2l-0.2-0.1l-0.2,0.1L285.3,62.5z M285.5,54.6l0-0.2l-0.2,0
			L285.5,54.6z M285.6,65.1h0.2v-0.2h-0.2V65.1z M285.9,66.2l0.1-0.3h-0.3v0.2L285.9,66.2z M285.9,47.8l0.2-0.4l-0.2,0.1l-0.1,0.2
			L285.9,47.8z M286,49.1l0.1-0.3l-0.2,0.1L286,49.1z M286.1,48.5l-0.2-0.1v0.2L286.1,48.5z M286,59.3l0.2-0.1l0-0.3l-0.2,0l0,0.2
			L286,59.3z M286.4,60.1l0-0.3l-0.2-0.1l-0.1,0.2l0.1,0.2L286.4,60.1z M286.3,50.5L286.3,50.5l-0.1-0.2L286.3,50.5z M286.4,53.3
			l0.4,0.1V53l-0.2-0.1l0,0.2L286.4,53.3z M286.6,49.4l0,0.2l0.2,0l0-0.2H286.6L286.6,49.4z M286.6,54.5l0.2,0.1l0.1-0.2l-0.2,0
			L286.6,54.5z M286.8,65.8l0.2-0.1l0.1-0.2l-0.2-0.1l0,0.2L286.8,65.8z M287.3,55.7l-0.1-0.2l-0.3,0l0.1,0.3L287.3,55.7z
			 M287.3,60.1h0.2v-0.2h-0.2V60.1z M287.6,67.4l0-0.4l-0.2,0l-0.1,0.2l0.1,0.2L287.6,67.4z M287.6,68.5l0-0.3l-0.2-0.1l0,0.3
			L287.6,68.5z M287.7,52.7h0.3l0.2-0.2l-0.1-0.2l-0.2-0.1l-0.1,0.3L287.7,52.7z M288.3,68.7l-0.1-0.2l-0.1,0.2L288.3,68.7z
			 M288.5,63.9l0-0.2l-0.1-0.1l0,0.2L288.5,63.9z M297.2,48.1l-0.3,0.3l-0.2,0.1l-0.8-0.1l-0.2,0.1l-0.5,0.1l-0.5,0l-0.1,0.3l-2,0.8
			l-0.3,0.4l-0.3,0.1l-0.2,0.3l-0.4,0.3l-1,1.1l-0.2,0.1l-0.1,0.5l-0.4,0.4l-0.8,1.3v0.5l-0.2,0.7l-0.1,0.2l0.1,0.5l-0.3,0.4
			l0.1,0.5v0.5l0.2,0.7l-0.1,0.2l0.4,1l0.1,0.8l1.1,1.7l1.6,1.9h0.3l0.2,0.1l0.3,0.4l0.5,0.1l1.2,0.7l1.2,0.3l0.2,0.2l0.2-0.1l0.2,0
			l0.5,0.3l0.1-0.2l0.2-0.1l0.7,0.2l0.2-0.2l0.2,0l0.2,0.1l0.9,0.1l0.2-0.3l0.2-0.2l0.5,0.2l0.8-0.6l0-0.2h0.5l0.2-0.5l0.4-0.3
			l0.9-0.5h0.5l0.3-1l0.3-0.4l0.4-0.2l0.2-0.4l0.1-0.5l0.2,0.1l0.2,0l-0.2-0.2l0-0.2l0.2-0.5l0.3-0.4h0.3l-0.2-0.6l0.2-0.2l-0.1-0.5
			l0.1-2l0-1l-0.2-0.6v-0.5l-0.4-1l-0.5-0.9l0.2-0.2l0.1-0.3l-0.3,0.1l-0.1,0.2l-0.1-0.2l0.2-0.2l-0.5-0.2l-0.3-0.3l-0.2-0.5l0-0.2
			l-0.5-0.2l0-0.3l-0.5-0.1l-0.2-0.1l-0.1-0.2l0.1-0.2l-0.5,0l0-0.3l-0.4-0.5v0.5l-1.4-0.6l-0.4-0.3l0-0.5l-0.3,0l-0.4,0.3l-0.5-0.2
			l-0.4-0.3l0,0.4l-0.1,0.1l-0.2-0.1l-0.3-0.4L297.2,48.1z M288.5,50.7l0.2-0.1v-0.2h-0.2V50.7z M288.6,67.9l0.2,0.1h0.3l-0.1-0.5
			l-0.2-0.1l-0.1,0.3L288.6,67.9z M289,66.9l-0.1-0.2l-0.2-0.1l-0.1,0.2l0.2,0.2L289,66.9z M289.2,44.4h0.2v-0.2h-0.2V44.4z
			 M289.8,65v-0.5h-0.2l0.1,0.5L289.8,65z M289.7,67.6l0.2,0.1l0.2-0.1l0-0.2l-0.3,0L289.7,67.6z M290.2,68.6l0,0.3l0.1,0.2l0.3-0.1
			v-0.5L290.2,68.6z M290.2,70l0.3,0.1l0-0.2l-0.1-0.1L290.2,70z M290.8,45.6l0.3,0.2l0-0.2l-0.2-0.1L290.8,45.6z M290.9,66.9
			L291,67h0.4l0.1-0.2l-0.2-0.1h-0.3L290.9,66.9z M291.8,68.3v-0.2l-0.3,0l-0.1,0.2l0.1,0.1L291.8,68.3z M292,71.3h0.5l-0.1-0.2
			l-0.2-0.1L292,71.3z M292.5,44.5h0.3l-0.2-0.2L292.5,44.5z M293,67.8v-0.3l-0.2,0.1v0.2L293,67.8z M293.5,70.9l0.2-0.5l-0.2-0.4
			l-0.1,0.2v0.6L293.5,70.9z M293.7,69.7l0.2-0.2h-0.2L293.7,69.7z M294.5,45.4l0.2,0l0.1-0.2l-0.2-0.1L294.5,45.4z M294.5,70.3
			l0.2,0.1l0.3-0.1l-0.1-0.5l-0.2-0.1l-0.2,0.4L294.5,70.3z M294.9,71.2l-0.1-0.3h-0.3v0.3l0.2,0.1L294.9,71.2z M295.1,42.2h0.1
			l-0.1-0.2L295.1,42.2L295.1,42.2z M295.4,68.3l0.1-0.2l-0.2-0.2l-0.2,0.2L295.4,68.3z M295.4,46l0.3,0.1l-0.1-0.2L295.4,46z
			 M295.5,44.9l0.4,0.2l0.2-0.1l-0.1-0.3l-0.2-0.1l-0.2,0.1L295.5,44.9z M295.7,70.7l0.2,0.2l0.2-0.1l-0.2-0.2L295.7,70.7z
			 M295.7,69.8l0.4,0l0-0.2l-0.1-0.3l-0.2-0.1l-0.2,0.3V69.8z M296.2,43.9l0-0.5l-0.2,0l-0.1,0.2l0.1,0.2L296.2,43.9z M296.6,43
			l-0.1-0.2h-0.2l0.1,0.2L296.6,43z M296.3,45.9l0.1,0.2l0.1,0.5l0.2,0.1l-0.1-0.3v-0.5l0.2-0.4l-0.3,0l-0.2,0.1L296.3,45.9z
			 M296.7,44.4l0.2,0.1l0.3-0.3v-0.2l-0.5,0.1L296.7,44.4z M297.3,69.1v-0.3l-0.2-0.1l0,0.2L297.3,69.1z M297.2,71.9l0.2,0l0.3-0.3
			l0.1-0.2h-0.5l-0.1,0.2L297.2,71.9z M297.7,45.9l0.2-0.3l-0.2-0.1l-0.1,0.2L297.7,45.9z M297.8,46.4h0.2v-0.2h-0.2V46.4z
			 M298,45.2l0.2,0l0-0.2l-0.2,0L298,45.2z M298.6,68.4l0-0.2l-0.2-0.1h-0.2l0.1,0.2L298.6,68.4z M298.2,43.9l0.4,0.2l-0.1-0.6
			l-0.2-0.1l-0.1,0.2V43.9z M298.3,68.9h0.3v-0.2l-0.2-0.1l-0.1,0.2L298.3,68.9z M298.7,46.7h0.5l-0.4-0.4v0.2L298.7,46.7z
			 M298.7,67.8h0.1v-0.2h-0.1V67.8z M299.3,70.6v-0.2l-0.2,0L299.3,70.6z M299.3,44.8l0.1-0.3h-0.3v0.2L299.3,44.8z M299.1,69.2
			l0.1,0.2l0.2,0.1l0.2-0.5l-0.2,0l-0.1,0.2L299.1,69.2z M299.4,68.1h0.5v-0.5l-0.2,0l-0.2,0.1L299.4,68.1z M299.7,43.5l0.2,0.1
			l0.1-0.2l-0.2,0L299.7,43.5z M299.9,67.3l0.2-0.1l-0.2-0.2V67.3z M300.5,44.1L300.5,44.1l-0.1-0.2L300.5,44.1z M300.5,67.5h0.3
			l0.2,0.1l0.1-0.5l-0.2-0.1l-0.3,0.2L300.5,67.5z M300.8,68.9l0.1-0.2l-0.1-0.2l-0.2-0.1l-0.1,0.2l0.1,0.2L300.8,68.9z M300.8,47.9
			h0.2l-0.1-0.2L300.8,47.9L300.8,47.9z M301,47l0.2-0.2l0-0.3l-0.2,0.1l-0.1,0.2L301,47z M300.9,71.3l0.1,0.2h0.2v-0.2L300.9,71.3z
			 M301,70.3l0.5-0.1l-0.1-0.2h-0.2L301,70.3z M301.5,68l0.1,0.2h0.5V68l-0.4-0.1L301.5,68z M302,48.4l-0.1-0.2l-0.3-0.1l0.1,0.2
			L302,48.4z M301.7,66.9l0.5,0.3l0.1-0.4v-0.3l-0.2-0.1l-0.2,0.1l-0.1,0.2L301.7,66.9z M302.1,73.2l0.1-0.3l-0.3-0.1v0.3
			L302.1,73.2z M302.2,70.9h0.2l0.1-0.1h-0.2L302.2,70.9z M302.4,69.6h0.2l0.2-0.1l0-0.2l-0.2,0l-0.2,0.1L302.4,69.6z M302.7,45.1
			l0.1-0.2v-0.3h-0.2l-0.1,0.3L302.7,45.1z M302.5,68.2h0.2V68h-0.2V68.2z M302.7,47.4l0,0.2l0.2,0.2l0.2,0.1l-0.1-0.6l-0.2,0H302.7
			z M303.3,46.7v0.1l0.2,0.1l0.1-0.2l-0.1-0.1L303.3,46.7L303.3,46.7z M303.3,66.7l0.2,0l0.1-0.1l0-0.4h-0.3V66.7z M303.5,45.7
			l0.3,0.2l0.2-0.1l-0.1-0.2l-0.2,0L303.5,45.7z M303.9,69.5l0.2-0.2l-0.1-0.5l-0.2-0.2l-0.3,0v0.5l0.2,0.2L303.9,69.5z M303.8,44.8
			l0.3,0l0.1-0.2l-0.1-0.1l-0.2,0.1L303.8,44.8z M304.1,48.4l-0.3,0l0.2,0.1L304.1,48.4z M304.3,47.4l0.1-0.2l-0.3-0.1l0,0.2
			L304.3,47.4z M304.8,65.5l-0.3,0l-0.1,0.2l0.1,0.2l0.2,0.1l0.2-0.1l0-0.3L304.8,65.5z M304.6,45.8l0.1-0.1l0-0.2l-0.2-0.1
			L304.6,45.8z M304.6,46.1v0.2l0.2,0.1l0.1-0.1v-0.2H304.6L304.6,46.1z M304.6,45l0,0.2h0.2l0.1-0.1V45l-0.1-0.1L304.6,45L304.6,45
			z M305.2,64h0.2l0.1-0.2l-0.2-0.1L305.2,64z M305.6,66.6l0-0.2l-0.2-0.1l0,0.2L305.6,66.6z M305.7,46.7l-0.2,0.1l0.1,0.1
			L305.7,46.7z M306.1,65.2l-0.6-0.1l0,0.2l0.2,0.1l0.3-0.1L306.1,65.2z M305.9,50.7l-0.1-0.2l-0.2,0l0,0.3L305.9,50.7z M305.9,67.9
			l-0.2,0l0.1,0.2L305.9,67.9z M305.9,49.4l0.2-0.1l-0.1-0.2L305.9,49.4z M306.4,64.4l-0.1-0.2l-0.3,0l0,0.3H306.4z M306.1,48.4h0.2
			v-0.2h-0.2L306.1,48.4z M306.6,47.5l0-0.2l-0.2-0.2l-0.2,0l0.2,0.4L306.6,47.5z M306.2,67.7l0.1,0.2h0.2l0.1-0.2l-0.1-0.1
			L306.2,67.7L306.2,67.7z M306.6,61.9l0.1,0.3l0.2-0.1l0.1-0.2l-0.2,0L306.6,61.9z M306.6,45.9l0,0.2l0.2,0l0.2-0.1l-0.1-0.2
			l-0.2,0L306.6,45.9z M306.7,64.5L307,65l0.2,0.1l0.1-0.2l0-0.5l-0.5,0.1L306.7,64.5z M307.3,49.1l0.1-0.2v-0.3l-0.5-0.1l0.2,0.5
			L307.3,49.1z M306.8,50l0.2,0.1l0.2,0l-0.1-0.2L306.8,50z M307.1,47.1l0.3,0.6l0,0.2l0.2-0.1v-0.6l-0.4-0.2L307.1,47.1z
			 M307.2,60.1h0.2l0.1-0.2l-0.2-0.1V60.1z M307.8,54.4l0-0.3l-0.2-0.1l0,0.3L307.8,54.4z M307.5,44.7h0.2l0.1-0.2l-0.3-0.1V44.7z
			 M307.6,49.9l0,0.2l0.3,0.2l0.1-0.2l-0.1-0.2l-0.2-0.1L307.6,49.9z M307.6,61.4l0.1,0.2v0.3l0.5-0.2l0.1-0.2l-0.1-0.2h-0.4
			L307.6,61.4z M308.1,49.6h0.2l0.1-0.2h-0.3V49.6z M308.1,53.1h0.2l-0.1-0.2l-0.1-0.1V53.1z M308.3,60.7l0-0.2l-0.2-0.1l0,0.2
			L308.3,60.7z M308.5,48.6v-0.3l-0.4-0.1l0,0.2l0.2,0.1L308.5,48.6z M308.5,64.4h0.2v-0.1h-0.2V64.4z M308.7,51.1h0.2l0.1-0.2
			l-0.3,0V51.1z M308.8,53.5l0.1,0.3l0.2-0.1l0.1-0.2l-0.2-0.2L308.8,53.5z M309.1,49.2h0.3l-0.1-0.2h-0.2L309.1,49.2z M309.2,61.2
			l0.2-0.1l0.1-0.2l0-0.2l-0.2,0.1l-0.1,0.2L309.2,61.2z M309.3,52.8l0.2,0.1l0.1-0.2v-0.3l-0.1-0.2l-0.3-0.1l0.1,0.5V52.8z
			 M309.9,64l0-0.3l-0.2-0.4l-0.2,0.2v0.3l0.2,0.2L309.9,64z M309.6,59l0.2,0.1l0.2-0.2l-0.3-0.1L309.6,59z M309.7,51.7l0.2,0
			l0.1-0.2l-0.2,0L309.7,51.7z M309.8,50.6l0.3-0.1l-0.1-0.2l-0.2-0.1l-0.1,0.2L309.8,50.6z M310.1,47.9l-0.1-0.2l-0.2,0l0.1,0.2
			L310.1,47.9z M310.2,46.1L310,46l-0.1-0.1l0.2,0L310.2,46.1z M310.3,62.9l-0.1-0.2h-0.3l0.1,0.2L310.3,62.9z M310,57.8l0.2,0.2
			l0.1-0.4l-0.3-0.1V57.8z M310.2,61.8h0.2v-0.2h-0.2V61.8z M310.5,61l0.2-0.1l0.1-0.2v-0.3l-0.5-0.2l-0.1,0.2l0.2,0.4L310.5,61z
			 M310.5,52.4l0.2-0.1l-0.1-0.2L310.5,52.4z M311,63.3l0-0.3l-0.2-0.1l-0.1,0.2l0.1,0.2H311z M311.1,54.7h0.1l-0.1-0.2L311.1,54.7
			L311.1,54.7z M311.5,52.6l0.1,0.2l0.2-0.2H311.5z M311.7,60.1l0.3,0.2l-0.1-0.5l-0.2-0.1l-0.1,0.2L311.7,60.1z M312.1,54.4
			l0.2-0.1l0.1-0.3l-0.2-0.1l-0.1,0.2V54.4z M312.4,56.8h0.2l0.1-0.2l-0.2-0.1V56.8z"/>
		<path class="st17" d="M327.7,41.3l0.2-0.1l0.1-0.2l0.2-0.1l0.6,0.1l0.3,0l0.2-0.1l0.7,0.2l1,0l0.5,0.1l0.2,0.1l0.2-0.2l0.5-0.1
			l0.8,0.2l0.5-0.2l0.2,0l0.1,0.2l0.4-0.3l0.5,0.1l2,0l0.4,0.2l0.2,0l0.3-0.2l0.7,0.2l0.4,0l0.5-0.1l0.8,0.2l1.1,0l0.5,0.4l0,0.2
			l0.5-0.1l0.3,0.4h0.5l1,0.3l0.8,0.5l0.5,0.5h0.5l0.1,0.2l0.3,0.3l0.8,0.3l0.3,0.4l0,0.3L348,45l0.4,1.2l0.5,0.2l0.5,0.9l-0.4-0.1
			l0,0.3l0.2,0.2l0.2,0.1l0,0.3l0.4,0.3l0,0.3l-0.2,0.7l0.1,0.1h0.2l-0.1,0.2l-0.2,0l0.2,0.5l0.2-0.2l0.2,0.4l0.2,1l0,0.2l-0.3,0.4
			l0.4,0.3l0.1,0.5v1l0.1,0.2l-0.2,0.4l0,0.6h-0.2l0.2,0.4v0.5l-0.2,1v0.6l-0.2,0l-0.2,0.2l0.2,0.3l-0.5,0.9l-0.2,0.2v0.3l-0.2,0.4
			l-0.2,0v0.6l-0.6,0.7l-0.8,1.3h-0.4l0,0.2l-0.4,0.5l-0.6,0.3v0.2H346l-0.3,0.3l-0.8,0.5l-1.7,0.7l-0.1,0.2l-1.9,0.4l-1.4,0.2
			l-3.9,0.1H334l-0.5-0.2l-0.4,0.3l-0.8,0.3l-0.2,0.2l0,0.2h-0.2l-0.3,0.2l0.1,0.1l0.4,0.1l0,0.2l-0.1,0.2l-0.2,0l0.1,0.1l0.2,0V70
			l0.1,0.7l-0.4,0.3l0.3,0.2l-0.2,1.6l-0.3,0l-0.2,0.2l-0.2,0.4l-0.7-0.3l-0.3,0l-0.2,0.5l-0.7-0.1l-0.3-0.3l-0.2,0.2l-0.1,0.3
			l-0.2-0.1l-0.1-0.2l-0.4,0.2l-0.7,0.2l-0.5-0.2l-0.5,0.1l-0.8,0l-0.2,0.1l-0.3-0.3l-0.5,0.1l-0.5-0.2l-0.3-0.6l0-0.7l-0.2-0.5
			l0.2-0.3l-0.1-1.4l0.2-0.4l-0.2-1v-0.5l0.2-0.8l-0.2-1.4l0.1-1l-0.1-0.5l0.2-0.1l-0.1-0.2l0-0.4l0.1-0.5l-0.2-1l0.2-0.5l-0.2-0.5
			l0.1-1.9l0-0.6l0.5-0.4l-0.5-0.5l0-0.2l-0.1-0.6l0.3-1l-0.2-1.2l0.2,0.1l-0.2-0.9l-0.1-2.3l0.5,0l-0.1-0.2l-0.4-0.4l0-1.1
			l-0.2-1.5l0.2-0.2l-0.1-0.5l0.2-0.3l-0.2-0.3l0.2-0.4l-0.2-0.3l0.1-1l-0.1-1.2l0.1-0.2l-0.1-0.5l0-0.8l0.2,0l0.1-0.2l-0.2-0.2
			l0-0.5l0.3-0.4l0.2-0.1h0.6l0,0.2l0.2,0.1v-0.5l0.5-0.1l0.2,0.1l0.5-0.1l1.5,0.2L327.7,41.3z M323.9,71.6h0.2l0.1-0.2h-0.2V71.6z
			 M324.3,50.4h0.1v-0.2h-0.1V50.4z M324.6,49.6h0.2l-0.2-0.1V49.6z M324.9,61.9l0.2,0l0.1-0.2l-0.2-0.1L324.9,61.9z M325.4,46.1
			h0.1l0.1-0.2l-0.2,0V46.1z M325.6,65l0.2-0.1v-0.4l-0.3,0.1l-0.1,0.2L325.6,65z M325.7,48.5l-0.2,0.2l0.1,0.2l0.2,0.2l0.2,0
			l0.2-0.2l-0.3-0.4L325.7,48.5z M325.8,56.7l0.1-0.2l0-0.8h-0.3l-0.1,0.3l0.1,0.5L325.8,56.7z M325.8,51.8h0.2l0.3-0.2l-0.2-0.3
			l-0.2,0l-0.1,0.2L325.8,51.8z M326.1,59.1l0-0.2l-0.1-0.2l-0.3,0l0,0.2l0.2,0.2L326.1,59.1z M326,66.1h0.2l-0.1-0.2L326,66.1
			L326,66.1z M326,50.3h0.2V50H326V50.3z M326,47.9h0.2v-0.1H326V47.9z M326,54.2l0.2,0.2l0.6-0.3l-0.2-0.1l-0.5,0L326,54.2z
			 M326.6,63l0-0.2h-0.2l0,0.2H326.6z M326.4,49.6l0.2,0.1l0.2-0.1l-0.1-0.2h-0.2L326.4,49.6z M326.4,50.8h0.1v-0.2h-0.1V50.8z
			 M326.7,53.3l-0.1-0.5l-0.3-0.1l0,0.3l0.1,0.2L326.7,53.3z M326.7,55.5l0.1,0.3l0.2,0.1l0.1-0.2l0-0.2l-0.3,0L326.7,55.5z
			 M326.7,56.9l0.2,0l0.1-0.1l-0.3-0.1V56.9z M326.8,52.3l0.2,0l0.1-0.1L327,52h-0.2L326.8,52.3z M327.3,48.6l0-0.2L327,48l0,0.2
			l0.1,0.2L327.3,48.6z M327,51.3l0.2-0.1l0.1-0.3l-0.2-0.1L327,51L327,51.3z M327.1,58.2l0.2,0l0.1-0.1l0-0.2h-0.2L327.1,58.2z
			 M327.1,62.4h0.2l-0.1-0.2l-0.2-0.1V62.4z M327.2,46.2l0.1,0.2l0.2-0.1l0.1-0.2l-0.2,0L327.2,46.2z M327.3,61.1l0.2-0.1v-0.3
			l-0.2,0.1L327.3,61.1z M327.4,57.4l0.2,0.1l0.2,0l-0.1-0.2L327.4,57.4z M327.6,44.8l0.2,0.4l0.4,0.2l0-0.3l-0.1-0.2l-0.2-0.1
			L327.6,44.8z M327.6,54l0.2,0l0.1-0.1v-0.2h-0.3V54z M327.6,61.3h0.2v-0.2h-0.2L327.6,61.3z M327.7,69.8l0.1-0.4h-0.3v0.3
			L327.7,69.8z M327.7,50.2l0-0.2l-0.1-0.1l0,0.2L327.7,50.2z M327.7,53.2L328,53l0.1-0.2l0-0.3l-0.2-0.1l-0.2,0.5L327.7,53.2z
			 M327.7,49.1L328,49l-0.1-0.2L327.7,49.1z M328,56.5l0.2-0.3l-0.3-0.1v0.2L328,56.5z M328,47.9h0.2l0.2-0.2l0-0.3l-0.2-0.2
			l-0.2,0.4L328,47.9z M328,54.9l0.2,0.3l0.2,0l0-0.2l-0.1-0.2h-0.2L328,54.9z M328.3,44.4V44H328l0,0.3L328.3,44.4z M328,70.9h0.2
			v-0.1H328V70.9z M328.2,66.7l0.2-0.1l0.2-0.4l-0.2-0.1l-0.2,0.4V66.7z M328.4,50.6l0.2,0l-0.1-0.2L328.4,50.6z M328.5,45.8h0.2
			l0.1-0.2l-0.2-0.1V45.8z M328.6,49.2h0.4l-0.1-0.2l-0.2-0.1V49.2z M328.6,53.3l0.2,0.2l0.3,0l0.2-0.4v-0.2l-0.5,0.2L328.6,53.3z
			 M328.7,48.7l0.3-0.1l0-0.2h-0.3V48.7z M328.7,56.8l0,0.2h0.2l-0.1-0.2L328.7,56.8z M328.7,55.9l0.2,0.1l0.2-0.1l-0.2-0.3
			L328.7,55.9z M329,60.7l0-0.2l-0.2,0l0,0.2L329,60.7z M328.9,44.7l0.2-0.1l0.1-0.3l-0.2,0l-0.1,0.1L328.9,44.7z M329.3,52.3
			l0.1-0.8l-0.2-0.1l-0.2,0.2l0.1,0.5L329.3,52.3z M329.1,59.7h0.2l-0.2-0.2V59.7z M329.6,54.9l0.1-0.3l-0.1-0.2l-0.2-0.1l-0.1,0.2
			v0.2l0.2,0.2L329.6,54.9z M329.5,58.4l-0.3-0.1l0.1,0.2L329.5,58.4z M329.2,63.3h0.2v-0.2h-0.2V63.3z M329.8,61.4l0.1-0.2
			l-0.6-0.1l0,0.2l0.2,0.1L329.8,61.4z M329.4,47.5h0.2v-0.2h-0.2V47.5z M329.7,57.5l0.2-0.1l0-0.2l-0.5-0.2l0.1,0.4L329.7,57.5z
			 M329.7,46.2l0.1-0.2l-0.1-0.2l-0.3-0.1l0.1,0.5L329.7,46.2z M329.5,49.9l0.1,0.2h0.5l-0.1-0.2l-0.2,0L329.5,49.9z M329.6,53.8V54
			l0.2-0.1L329.6,53.8L329.6,53.8z M330.1,49.3l0.1-0.2l0-0.3l-0.2-0.1v0.5L330.1,49.3z M329.9,60h0.2l-0.2-0.1V60z M329.9,68.5h0.2
			v-0.1h-0.2V68.5z M330,44.1h0.2v-0.1H330V44.1z M330.4,51.3l0-0.2l-0.2-0.1l-0.1,0.2l0.1,0.2L330.4,51.3z M330.3,46.7h0.2
			l-0.2-0.2V46.7z M330.5,63l0.1-0.2l0-0.3l-0.2-0.1l-0.1,0.4L330.5,63z M330.5,58.1l-0.1-0.3V58L330.5,58.1z M330.8,50.6l-0.3-0.1
			l0.1,0.2L330.8,50.6z M330.5,53.9l0.2,0l0.1-0.2h-0.2L330.5,53.9z M330.8,61.9v-0.3l-0.2-0.2l-0.1,0.2l0.1,0.2L330.8,61.9z
			 M330.6,42.9h0.2v-0.2h-0.2V42.9z M330.6,60.5l0.1,0.2l0.2,0.1l0.2-0.3l-0.2,0L330.6,60.5z M331.3,48.2l0-0.2l-0.3,0l0.1,0.2
			L331.3,48.2z M331,47.4l0.2,0.1l0.2,0l0.1-0.2l-0.2-0.1l-0.3,0L331,47.4z M331,63.3l0.1,0.2l0.2,0.1l0.2-0.1l-0.1-0.2l-0.2-0.1
			L331,63.3z M331.7,43.5l-0.1-0.4l-0.2-0.1v0.3l0.1,0.2L331.7,43.5z M331.7,62.4l0.1-0.3l-0.2-0.1h-0.3l0.1,0.3L331.7,62.4z
			 M335.4,48.3l-0.3,0.3l-0.5,0.1l-0.8-0.2l-0.3,0.2l-0.3-0.1l-0.5,0.4l-0.2,0l-0.3,0.9l-0.2,0.1l0.2,0.4v0.7l-0.2-0.1l-0.2,0.1
			l-0.1,0.2l0.2,0.1l0.2,0l0.1,0.1l-0.3,0.4L332,52l0.1,0.2v0.3l-0.4,0.1l-0.1,0.2l0.4,0.3l0.1,0.2l-0.5,0.1l0.3,0.4l0.2,0.7
			l-0.1,0.5l-0.1,0.2l0.2,0.7v0.7l-0.2,0.5l0.1,0.2l-0.2,0.4l1.1,0.6l0.1,0.2l1-0.2l2-0.1l1.7,0.1l1.1-0.3l0.2,0l0.7-0.5h0.3
			l0.7-0.6l0.8-1.1l0.3-1l0-0.6l0.2-0.4l0-0.5l0.2-0.1l0.1-0.2l-0.5-0.3v-0.6l0.3-0.1l-0.2-0.5l-0.6-0.8l-0.3-0.7l-0.9-0.5l-0.2-0.5
			l-0.9-0.3l-0.3,0l0-0.3l-0.2,0.1l-0.7-0.4h-0.2v0.2l0.2,0.2l-1.3-0.1l-0.8-0.3L335.4,48.3z M331.7,46.4h0.2v-0.2h-0.1L331.7,46.4z
			 M331.9,69.1v-0.2h-0.2L331.9,69.1z M331.9,61.3l0.2-0.1V61l-0.2-0.1l0,0.1L331.9,61.3z M332.4,60.1l-0.5-0.1l0.1,0.2l0.2,0.1
			L332.4,60.1z M332,44.8l0.2-0.1l-0.2-0.1V44.8z M332,65l0.2,0.1l0.1-0.1l0-0.2h-0.3L332,65z M332.4,63l0.3-0.1l0-0.3l-0.2,0
			l-0.1,0.1L332.4,63z M332.8,61.8l0.2-0.1l0.1-0.3l-0.4,0l0,0.2L332.8,61.8z M333,45.5l0.2-0.2h-0.2L333,45.5z M333.6,64.4l-0.4,0
			l0.1,0.2h0.2L333.6,64.4z M333.4,63l0.1,0.2l0.2,0.1l0.2,0l-0.1-0.2l-0.2-0.1L333.4,63z M333.5,46.7l0,0.2l0.4,0l-0.1-0.2
			L333.5,46.7z M333.9,62.3l-0.4-0.3l0,0.3l0.2,0.2L333.9,62.3z M334.3,61.3l-0.1-0.2l-0.4-0.2l0,0.2l0.2,0.1L334.3,61.3z
			 M334.6,43.2l0.1-0.2l-0.1-0.1l-0.1,0.2L334.6,43.2z M336,62.8l0.2-0.1l0.1-0.2l0-0.3l-0.2-0.2l-0.1,0.5L336,62.8z M337.1,43.2
			v-0.3l-0.2,0.1L337.1,43.2z M337.2,58.9h0.2l-0.2-0.2V58.9z M337.4,60.8l0.5-0.1l-0.1-0.2l-0.3,0L337.4,60.8z M339.4,59v-0.1h-0.2
			L339.4,59z M339.3,45.6l0.2-0.1l0-0.2l-0.2,0.1L339.3,45.6z M340.2,46.5h0.1v-0.2h-0.1V46.5z M341,47.9l0.2,0l0.2-0.2l-0.2,0
			L341,47.9z M341,60.9v0.2l0.3,0l0.1-0.2h-0.2L341,60.9z M341.3,44.1l-0.2-0.1l0.1,0.2L341.3,44.1z M341.1,49l0.2-0.1l-0.1-0.2
			L341.1,49z M341.4,47l0.2-0.1l0.1-0.3h-0.2l0,0.2L341.4,47z M341.6,45.8l0.2,0l0-0.2l-0.2,0.1L341.6,45.8z M342.6,60.5l-0.2-0.1
			h-0.3l0.1,0.3h0.3L342.6,60.5z M342.3,47.5l0.1-0.2l-0.1-0.2l-0.1,0.2L342.3,47.5z M342.5,59.9h0.2v-0.2l-0.2-0.1L342.5,59.9z
			 M342.8,58.9l0.3-0.2l0-0.2l-0.2-0.1l-0.2,0.1l-0.1,0.2L342.8,58.9z M342.7,54.8l0.2,0.1l0.1-0.2L342.7,54.8z M342.9,45.4l0.2-0.1
			l0-0.2l-0.2,0.1V45.4z M343.6,61.4l-0.1-0.2H343l0.4,0.2H343.6z M343.2,62.4v-0.3l0.1-0.2l-0.2-0.1l0,0.5L343.2,62.4z M343.1,63.5
			h0.2v-0.3h-0.2V63.5z M343.2,57.2l0.1,0.3l0.1-0.1l0-0.2L343.2,57.2z M343.3,48.3l0.2-0.1l0.1-0.3l-0.2,0.1L343.3,48.3z
			 M343.5,51.9l0.2,0.1l-0.1-0.5L343.5,51.9z M343.6,50.7l0.4,0.1l0.1-0.3l-0.2-0.1l-0.2,0.1L343.6,50.7z M343.8,55.5l0-0.3
			l-0.1,0.2L343.8,55.5z M343.7,62.9h0.2v-0.2h-0.2V62.9z M344.3,45.1l-0.1-0.4l-0.2-0.1l-0.2,0L344,45L344.3,45.1z M343.8,49.1
			l0.2,0.2l0.2-0.1l-0.2-0.1L343.8,49.1z M343.8,59.1l0.1,0.2l0.2,0l0-0.2H343.8L343.8,59.1z M344,46h0.2l0.1-0.1l-0.2-0.1V46z
			 M344,53.5l0.1,0.2l0.5-0.1l-0.1-0.3l-0.2-0.2l-0.1,0.2L344,53.5z M344.2,54.5l-0.2,0v0.2L344.2,54.5z M344.1,60.8l0.2-0.2l0.1,0
			l-0.2-0.2L344.1,60.8z M344.2,61.9l0.2-0.1l0.1-0.2l-0.2-0.2l-0.2,0.2L344.2,61.9z M344.7,52.3l-0.1-0.2l-0.2-0.1l0,0.2
			L344.7,52.3z M344.7,59.2l0.2,0.2l-0.1,0.1l-0.2-0.1l0.2,0.4l0.5-0.1l0-0.2l-0.1-0.6l-0.3,0.1L344.7,59.2z M344.6,55.9h0.2v-0.2
			l-0.2-0.1V55.9z M344.7,64.4l0-0.2l-0.1-0.1L344.7,64.4z M345.1,55.1l-0.1-0.2l-0.2-0.1l0.1,0.2L345.1,55.1z M344.9,50.6h0.3
			l-0.1-0.3l0.2-0.5l-0.2,0.1l-0.2,0.4V50.6z M345.3,58.7l0.1-0.1l0-0.2l-0.1-0.2l-0.2-0.1l-0.1,0.2l0,0.3L345.3,58.7z M345.3,57.7
			h0.1l0.1-0.2l-0.2-0.1V57.7z M345.9,54.8l0.4-0.1l0.1-0.2v-0.2l-0.2-0.1l-0.2,0.1l-0.1,0.2V54.8z M346,55.7l0.2-0.5l0-0.2
			l-0.1-0.1l-0.2,0.5v0.2L346,55.7z M345.9,63h0.2v-0.1h-0.2V63z M346.3,50.8l0-0.2l-0.2-0.1l-0.1,0.2L346.3,50.8z M346.3,56.8
			l0,0.2l0.2,0.1h0.2l-0.1-0.2l-0.2-0.1L346.3,56.8z M346.3,49.7l0.2-0.1v-0.2l-0.2,0L346.3,49.7z M346.6,58.2l0-0.4l-0.2,0v0.4
			L346.6,58.2z M346.9,52.6l0.1-0.2l0-0.3l-0.2-0.2l-0.2,0.2l0,0.2L346.9,52.6z M346.7,59.4l0,0.2l0.2,0l-0.1-0.2H346.7z
			 M347.4,58.4l-0.5-0.1l0.1,0.3l0.2,0L347.4,58.4z M347.1,44.8l0-0.2H347L347.1,44.8z M347.1,51.2h0.2V51h-0.2V51.2z M347.1,55.2
			l0.2-0.1l0.1-0.2v-0.2l-0.2-0.1l-0.2,0.4V55.2z M347.2,54l0.2,0l0.1-0.1l-0.2,0L347.2,54z M347.5,56.7l0.3,0l0.1-0.2l-0.1-0.2
			l-0.2-0.1l-0.1,0.3L347.5,56.7z M347.6,50.3l0.2-0.1l-0.2-0.1V50.3z M347.6,57.9l0.2-0.1l0-0.4l-0.2-0.1l0,0.2L347.6,57.9z
			 M347.7,51.9l0.2,0.2l0.3,0l0.1-0.2l0-0.6l-0.5,0.3L347.7,51.9z M348,55.3l0-0.3l-0.2-0.2l-0.1,0.2l0,0.2L348,55.3z M347.9,50.6
			l0.2,0l0.1-0.2h-0.2L347.9,50.6z M348.3,60.6l-0.2-0.2l-0.1,0.2L348.3,60.6z M348.1,54.1l0.2,0.5l0.2,0.1V54l-0.2,0L348.1,54.1z
			 M348.5,53.5l0.1-0.2l0-0.3l-0.2-0.1l-0.1,0.2l0.1,0.3L348.5,53.5z"/>
	</g>
</g>
</svg>
